<svg height="512pt" viewBox="0 -26 512.00264 512" width="512pt" xmlns="http://www.w3.org/2000/svg"><path d="m455.085938 113.25-21.421876-16.808594-78.335937-61.699218c19.003906-13.378907 40.910156-22.0625 63.917969-25.34375 10.648437-1.648438 21.515625-1.214844 32 1.28125 18.257812 34.304687 11.773437 75.265624 3.839844 102.570312zm0 0" fill="#cad9fc"/><path d="m433.664062 96.441406-78.335937-61.699218c19.003906-13.378907 40.910156-22.0625 63.917969-25.34375 2.160156.277343 4.296875.703124 6.398437 1.28125 14.847657 27.820312 13.3125 60.074218 8.019531 85.761718zm0 0" fill="#e8edfc"/><path d="m56.917969 113.25c-7.933594-27.304688-14.421875-68.265625 3.839843-102.570312 0 0 40.960938-12.714844 95.914063 24.0625zm0 0" fill="#e8edfc"/><path d="m74.777344 113.25c-6.515625-20.988281-11.839844-52.46875 3.152344-78.835938 0 0 33.628906-9.773437 78.742187 18.496094zm0 0" fill="#e8edfc"/><path d="m437.226562 113.25c6.515626-20.988281 11.839844-52.46875-3.152343-78.835938 0 0-33.628907-9.773437-78.746094 18.496094zm0 0" fill="#e8edfc"/><path d="m503.46875 258.914062c.105469 75.117188-34.628906 146.03125-94.039062 192h-306.859376c-53.171874-41.28125-86.851562-102.761718-93.015624-169.796874-6.160157-67.035157 15.746093-133.625 60.503906-183.910157 2.476562-2.730469 4.949218-5.375 7.511718-8.019531l58.707032-44.375c16.863281-9.085938 34.738281-16.160156 53.25-21.078125 10.339844-2.753906 20.863281-4.78125 31.488281-6.058594 7.339844-.9375 14.675781-1.535156 22.1875-1.875 2.816406 0 5.628906-.085937 8.53125-.085937h8.535156c10.269531.003906 20.53125.660156 30.71875 1.960937 10.800781 1.328125 21.492188 3.410157 32 6.230469 18.324219 4.914062 36.023438 11.929688 52.734375 20.90625l58.710938 44.375c2.558594 2.644531 5.035156 5.289062 7.507812 8.019531 39.679688 44.511719 61.582032 102.078125 61.527344 161.707031zm0 0" fill="#cad9fc"/><path d="m477.867188 258.914062c.105468 75.117188-34.628907 146.03125-94.035157 192h-281.261719c-53.171874-41.28125-86.851562-102.761718-93.015624-169.796874-6.160157-67.035157 15.746093-133.625 60.503906-183.910157 2.476562-2.730469 4.949218-5.375 7.511718-8.019531l58.707032-44.375c16.863281-9.085938 34.738281-16.160156 53.25-21.078125 10.339844-2.753906 20.863281-4.78125 31.488281-6.058594 7.339844-.9375 14.675781-1.535156 22.1875-1.875 7.507813.339844 14.847656.9375 22.183594 1.875 10.800781 1.328125 21.492187 3.410157 32 6.230469 18.328125 4.914062 36.023437 11.929688 52.738281 20.90625l58.707031 44.375c2.5625 2.644531 5.035157 5.289062 7.511719 8.019531 39.675781 44.511719 61.578125 102.078125 61.523438 161.707031zm0 0" fill="#e8edfc"/><path d="m213.335938 152.246094c0-13.195313-13.371094-23.890625-29.867188-23.890625s-29.867188 10.695312-29.867188 23.890625c0 13.199218 13.371094 23.894531 29.867188 23.894531s29.867188-10.695313 29.867188-23.894531zm0 0" fill="#a4c2f7"/><path d="m358.402344 152.246094c0-13.195313-13.371094-23.890625-29.867188-23.890625s-29.867187 10.695312-29.867187 23.890625c0 13.199218 13.371093 23.894531 29.867187 23.894531s29.867188-10.695313 29.867188-23.894531zm0 0" fill="#a4c2f7"/><path d="m290.050781 252.34375c.070313.765625.097657 1.535156.085938 2.304688 0 23.550781-15.277344 42.664062-34.136719 42.664062-18.855469 0-34.132812-19.113281-34.132812-42.664062 0-.769532 34.050781-16.300782 34.132812-17.066407zm0 0" fill="#a4c2f7"/><path d="m273.066406 41.3125c0 37.71875-7.679687 68.269531-17.066406 68.269531s-17.066406-30.550781-17.066406-68.269531c0-8.957031.429687-17.40625 1.195312-25.257812 3.925782-.253907 7.851563-.339844 11.863282-.339844h8.019531c4.011719 0 7.9375.085937 11.863281.339844.765625 7.851562 1.191406 16.300781 1.191406 25.257812zm0 0" fill="#a4c2f7"/><path d="m221.1875 18.019531c-2.136719 28.242188-8.707031 48.894531-16.386719 48.894531-6.996093 0-13.140625-17.152343-15.699219-41.640624v-.085938c.167969-.511719.253907-.941406.425782-1.453125 10.339844-2.753906 20.863281-4.78125 31.488281-6.058594.085937.085938.085937.257813.171875.34375zm0 0" fill="#a4c2f7"/><path d="m322.988281 23.90625c0 .425781-.085937.851562-.085937 1.28125v.085938c-2.558594 24.488281-8.703125 41.640624-15.699219 41.640624-7.679687 0-14.253906-20.652343-16.386719-48.894531.085938-.085937.085938-.257812.171875-.34375 10.800781 1.328125 21.492188 3.410157 32 6.230469zm0 0" fill="#a4c2f7"/><path d="m290.136719 183.566406s-17.070313 28.414063-34.136719 28.414063-34.132812-28.414063-34.132812-28.414063c1.109374-.941406 2.304687-1.878906 3.414062-2.648437 8.460938-6.375 18.484375-10.351563 29.015625-11.519531 1.105469-.085938 1.703125-.085938 1.703125-.085938s.597656 0 1.707031.085938c.34375-.007813.6875.023437 1.023438.085937 10.148437 1.382813 19.777343 5.316406 27.992187 11.433594 1.109375.769531 2.304688 1.707031 3.414063 2.648437zm0 0" fill="#e8edfc"/><path d="m102.570312 450.914062h25.601563c-104.792969-81.335937-125.027344-231.664062-45.464844-337.8125l-.1875.148438c-7.9375-27.304688-14.421875-68.265625 3.839844-102.570312 2.046875-.550782 4.128906-.96875 6.230469-1.253907-10.59375-1.613281-21.398438-1.1875-31.832032 1.253907-18.261718 34.304687-11.773437 75.265624-3.839843 102.570312l.1875-.148438c-79.558594 106.148438-59.324219 256.476563 45.464843 337.8125zm0 0" fill="#fff"/><path d="m0 258.914062c.0195312-38.441406 8.8125-76.367187 25.707031-110.898437 10.089844-20.429687 22.867188-39.421875 37.988281-56.46875l12.746094 11.351563c-14.09375 15.894531-26.003906 33.601562-35.414062 52.648437-15.746094 32.183594-23.941406 67.539063-23.960938 103.367187zm0 0" fill="#fff"/><g fill="#428dff"><path d="m12.277344 216.46875c-2.265625-.371094-4.585938.1875-6.4375 1.550781-1.847656 1.359375-3.070313 3.410157-3.386719 5.683594-1.550781 11.675781-2.3671875 23.433594-2.453125 35.210937h17.066406c.085938-10.984374.847656-21.953124 2.285156-32.84375.617188-4.585937-2.511718-8.832031-7.074218-9.601562zm0 0"/><path d="m76.441406 102.898438-12.746094-11.347657c-15.121093 17.046875-27.898437 36.035157-37.988281 56.46875l-3.75 7.996094c-.953125 2.09375-1.015625 4.484375-.175781 6.621094.839844 2.140625 2.511719 3.847656 4.636719 4.730469 4.273437 1.75 9.171875-.175782 11.113281-4.367188l3.492188-7.453125c9.410156-19.046875 21.320312-36.753906 35.417968-52.648437zm0 0"/><path d="m9.796875 189.167969c-.578125 2.25-.296875 4.636719.792969 6.6875l.972656 1.335937c.375.433594.8125.816406 1.292969 1.136719.40625.359375.863281.652344 1.359375.871094.523437.230469 1.0625.425781 1.609375.578125 2.195312.507812 4.5.203125 6.488281-.863282 3.886719-2.347656 5.308594-7.296874 3.261719-11.351562-.558594-.964844-1.289063-1.824219-2.15625-2.53125-.847657-.730469-1.828125-1.289062-2.886719-1.652344-2.15625-.675781-4.496094-.480468-6.511719.542969-2.007812 1.167969-3.511719 3.035156-4.222656 5.246094zm0 0"/><path d="m102.570312 459.449219c-1.890624 0-3.726562-.628907-5.222656-1.789063-61.632812-47.472656-97.625-120.953125-97.347656-198.746094 0-4.710937 3.820312-8.53125 8.535156-8.53125 4.710938 0 8.53125 3.820313 8.53125 8.53125-.261718 72.515626 33.285156 141.007813 90.734375 185.257813 2.882813 2.238281 4.023438 6.054687 2.84375 9.507813-1.183593 3.449218-4.425781 5.765624-8.074219 5.769531zm0 0"/><path d="m70.058594 105.757812c-3.359375-.003906-6.40625-1.976562-7.78125-5.042968-1.375-3.070313-.824219-6.65625 1.414062-9.167969 2.519532-2.828125 5.101563-5.597656 7.746094-8.3125 2.121094-2.210937 5.261719-3.113281 8.234375-2.367187 2.972656.746093 5.316406 3.027343 6.140625 5.980468.824219 2.949219.003906 6.117188-2.152344 8.296875-2.464844 2.527344-4.875 5.113281-7.21875 7.753907-1.621094 1.820312-3.945312 2.859374-6.382812 2.859374zm0 0"/><path d="m25.601562 459.449219h-17.066406c-4.714844 0-8.535156-3.820313-8.535156-8.535157 0-4.710937 3.820312-8.53125 8.535156-8.53125h17.066406c4.710938 0 8.535157 3.820313 8.535157 8.53125 0 4.714844-3.824219 8.535157-8.535157 8.535157zm0 0"/><path d="m56.914062 121.789062c-3.796874 0-7.136718-2.511718-8.191406-6.15625-8.613281-29.664062-14.828125-72.644531 4.503906-108.964843 1.054688-1.984375 2.855469-3.472657 5.003907-4.140625 1.824219-.570313 45.503906-13.488282 103.1875 25.121094 3.878906 2.636718 4.902343 7.90625 2.292969 11.800781-2.605469 3.898437-7.867188 4.960937-11.785157 2.382812-42.398437-28.375-75.074219-25.617187-85.34375-23.742187-14.519531 30.601562-8.925781 67.117187-1.46875 92.78125.746094 2.582031.234375 5.359375-1.378906 7.503906-1.609375 2.148438-4.136719 3.410156-6.820313 3.414062zm0 0"/><path d="m409.433594 459.449219c-3.648438 0-6.894532-2.316407-8.078125-5.769531-1.183594-3.453126-.039063-7.277344 2.847656-9.511719 51.308594-39.828125 83.804687-99.148438 89.746094-163.828125 5.945312-64.679688-15.195313-128.929688-58.386719-177.441406-2.347656-2.640626-4.757812-5.222657-7.222656-7.753907-2.15625-2.179687-2.976563-5.347656-2.152344-8.296875.824219-2.953125 3.167969-5.234375 6.140625-5.980468 2.96875-.746094 6.113281.15625 8.234375 2.367187 2.644531 2.714844 5.226562 5.484375 7.746094 8.3125 46.335937 52.042969 69.015625 120.972656 62.636718 190.359375-6.378906 69.390625-41.242187 133.027344-96.285156 175.753906-1.496094 1.160156-3.332031 1.789063-5.226562 1.789063zm0 0"/><path d="m375.722656 53.351562c-1.414062 0-2.804687-.351562-4.046875-1.023437-34.242187-18.4375-72.519531-28.085937-111.40625-28.082031h-8.535156c-38.886719-.003906-77.164063 9.644531-111.402344 28.074218-4.148437 2.242188-9.328125.699219-11.570312-3.449218-2.238281-4.148438-.695313-9.328125 3.453125-11.566406 36.734375-19.773438 77.800781-30.125 119.519531-30.125h8.535156c41.71875 0 82.785157 10.355468 119.519531 30.128906 3.441407 1.859375 5.179688 5.816406 4.21875 9.609375-.960937 3.789062-4.375 6.441406-8.285156 6.433593zm0 0"/><path d="m455.089844 121.789062c-2.683594-.003906-5.210938-1.265624-6.824219-3.414062-1.609375-2.144531-2.121094-4.921875-1.375-7.503906 7.457031-25.664063 13.042969-62.1875-1.472656-92.785156-10.207031-1.859376-42.898438-4.652344-85.339844 23.75-2.535156 1.722656-5.796875 1.953124-8.550781.605468-2.75-1.34375-4.570313-4.0625-4.765625-7.121094-.195313-3.054687 1.265625-5.984374 3.824219-7.667968 57.679687-38.609375 101.355468-25.6875 103.1875-25.121094 2.148437.667969 3.945312 2.15625 5.003906 4.140625 19.332031 36.316406 13.121094 79.296875 4.503906 108.960937-1.058594 3.644532-4.394531 6.15625-8.191406 6.15625zm0 0"/><path d="m503.46875 459.449219h-443.734375c-4.710937 0-8.53125-3.820313-8.53125-8.535157 0-4.710937 3.820313-8.53125 8.53125-8.53125h443.734375c4.710938 0 8.53125 3.820313 8.53125 8.53125 0 4.714844-3.820312 8.535157-8.53125 8.535157zm0 0"/><path d="m256 220.515625c-21.28125 0-39.449219-29.253906-41.449219-32.589844-2.164062-3.605469-1.375-8.253906 1.855469-10.945312 11.070312-9.585938 24.980469-15.273438 39.59375-16.199219 14.617188.925781 28.523438 6.613281 39.597656 16.199219 3.230469 2.691406 4.015625 7.339843 1.851563 10.945312-1.996094 3.335938-20.164063 32.589844-41.449219 32.589844zm-22.46875-34.9375c6.542969 8.792969 15.765625 17.871094 22.46875 17.871094 6.707031 0 15.929688-9.074219 22.472656-17.871094-6.730468-4.457031-14.488281-7.117187-22.539062-7.730469-8 .636719-15.710938 3.296875-22.402344 7.730469zm0 0"/><path d="m226.867188 261.285156c-14.097657-.691406-27.316407-7.066406-36.632813-17.671875-3.234375-3.347656-3.1875-8.671875.105469-11.960937 3.289062-3.292969 8.613281-3.339844 11.960937-.105469 6.46875 7.839844 16.050781 12.449219 26.214844 12.613281 7.277344-.902344 13.996094-4.371094 18.953125-9.777344v-22.402343c0-4.710938 3.820312-8.53125 8.53125-8.53125 4.714844 0 8.535156 3.820312 8.535156 8.53125v25.601562c0 1.84375-.597656 3.640625-1.707031 5.117188-8.144531 10.3125-20.054687 16.960937-33.105469 18.484375-.949218.066406-1.902344.101562-2.855468.101562zm0 0"/><path d="m285.136719 261.285156c-.953125 0-1.902344-.035156-2.855469-.101562-13.050781-1.523438-24.960938-8.171875-33.105469-18.484375-1.109375-1.476563-1.707031-3.273438-1.707031-5.117188v-25.601562c0-4.710938 3.820312-8.53125 8.53125-8.53125 4.714844 0 8.535156 3.820312 8.535156 8.53125v22.394531c4.984375 5.441406 11.753906 8.914062 19.082032 9.792969 10.109374-.238281 19.625-4.839844 26.085937-12.621094 3.347656-3.234375 8.667969-3.1875 11.960937.105469 3.292969 3.289062 3.335938 8.613281.105469 11.960937-9.316406 10.605469-22.535156 16.980469-36.632812 17.671875zm0 0"/><path d="m183.46875 177.847656c-15.28125 1.066406-28.585938-10.335937-29.867188-25.601562 1.28125-15.261719 14.585938-26.664063 29.867188-25.597656 15.28125-1.066407 28.582031 10.335937 29.867188 25.597656-1.285157 15.265625-14.585938 26.667968-29.867188 25.601562zm0-34.132812c-6.816406 0-12.800781 3.988281-12.800781 8.53125 0 4.546875 5.984375 8.535156 12.800781 8.535156s12.800781-3.988281 12.800781-8.535156c0-4.542969-5.984375-8.53125-12.800781-8.53125zm0 0"/><path d="m135.65625 116.816406c1.222656-7.382812 4.765625-14.183594 10.113281-19.414062 5.46875-5.480469 12.375-9.304688 19.925781-11.027344 7.335938-1.449219 14.90625-1.210938 22.140626.691406 3.390624.996094 6.710937 2.226563 9.929687 3.679688 3.019531 1.675781 5.933594 3.542968 8.726563 5.578125 1.515624 1.152343 2.109374 3.160156 1.457031 4.949219-.648438 1.792968-2.386719 2.953124-4.289063 2.867187l-.546875-.027344c-3.085937-.207031-6.160156-.59375-9.203125-1.15625l-8.671875-.800781c-5.324219-.335938-10.671875-.039062-15.925781.882812-4.992188 1.089844-9.761719 3.007813-14.117188 5.675782-4.738281 3.046875-9.101562 6.636718-13.007812 10.699218l-.496094.492188c-1.09375 1.085938-2.765625 1.347656-4.136718.644531-1.375-.703125-2.140626-2.210937-1.898438-3.734375zm0 0"/><path d="m328.535156 177.847656c-15.28125 1.066406-28.585937-10.335937-29.867187-25.601562 1.28125-15.261719 14.585937-26.664063 29.867187-25.597656 15.28125-1.066407 28.582032 10.335937 29.867188 25.597656-1.285156 15.265625-14.585938 26.667968-29.867188 25.601562zm0-34.132812c-6.816406 0-12.800781 3.988281-12.800781 8.53125 0 4.546875 5.984375 8.535156 12.800781 8.535156s12.800782-3.988281 12.800782-8.535156c0-4.542969-5.984376-8.53125-12.800782-8.53125zm0 0"/><path d="m369.816406 119.414062c-3.90625-4.0625-8.269531-7.652343-13.007812-10.699218-4.355469-2.667969-9.128906-4.585938-14.117188-5.675782-5.253906-.921874-10.601562-1.21875-15.925781-.882812l-8.671875.800781c-3.042969.5625-6.117188.949219-9.203125 1.15625l-.519531.023438c-1.910156.101562-3.65625-1.054688-4.3125-2.851563-.65625-1.792968-.066406-3.804687 1.453125-4.960937 2.792969-2.035157 5.703125-3.902344 8.726562-5.578125 3.21875-1.453125 6.539063-2.683594 9.929688-3.679688 7.230469-1.902344 14.804687-2.140625 22.140625-.691406 7.546875 1.722656 14.457031 5.546875 19.925781 11.027344 5.347656 5.230468 8.890625 12.03125 10.109375 19.414062.242188 1.519532-.515625 3.023438-1.886719 3.730469-1.367187.703125-3.035156.453125-4.132812-.628906zm0 0"/><path d="m256 305.847656c-23.523438 0-42.664062-22.964844-42.664062-51.199218-.015626-1.078126.03125-2.152344.132812-3.226563.316406-3.042969 2.234375-5.683594 5.03125-6.921875s6.039062-.886719 8.507812.925781c2.464844 1.808594 3.773438 4.800781 3.425782 7.839844-.035156.457031-.046875.921875-.03125 1.382813 0 18.820312 11.484375 34.132812 25.597656 34.132812 14.117188 0 25.601562-15.3125 25.601562-34.132812.015626-.460938.003907-.925782-.035156-1.382813-.34375-3.039063.964844-6.03125 3.429688-7.839844 2.464844-1.8125 5.710937-2.164062 8.507812-.925781s4.714844 3.878906 5.03125 6.921875c.101563 1.074219.148438 2.148437.132813 3.226563 0 28.234374-19.140625 51.199218-42.667969 51.199218zm0 0"/><path d="m177.066406 394.664062c-24.1875 0-66.691406-31.253906-79.871094-41.429687-2.511718-1.828125-3.832031-4.875-3.445312-7.957031.382812-3.078125 2.410156-5.710938 5.292969-6.863282 2.882812-1.15625 6.164062-.652343 8.570312 1.3125 30.507813 23.523438 64.382813 41.480469 71.039063 37.652344 4.65625-9.558594-17.890625-41.585937-41.941406-65.472656-3.347657-3.320312-3.367188-8.722656-.046876-12.070312 3.316407-3.34375 8.722657-3.367188 12.066407-.046876 13.738281 13.628907 57.578125 60.050782 45.105469 85.234376-2.289063 4.6875-6.625 8.054687-11.734376 9.105468-1.652343.371094-3.339843.546875-5.035156.535156zm0 0"/><path d="m334.9375 394.664062c-1.691406.011719-3.378906-.164062-5.03125-.535156-5.113281-1.050781-9.445312-4.417968-11.734375-9.105468-12.476563-25.183594 31.367187-71.605469 45.101563-85.234376 3.347656-3.320312 8.75-3.300781 12.070312.046876 3.320312 3.347656 3.300781 8.75-.046875 12.070312-24.050781 23.886719-46.597656 55.921875-41.832031 65.546875 6.476562 3.6875 40.984375-14.617187 70.929687-37.71875 3.734375-2.757813 8.988281-2.023437 11.824219 1.652344s2.214844 8.941406-1.402344 11.855469c-13.1875 10.167968-55.691406 41.421874-79.878906 41.421874zm0 0"/><path d="m153.601562 220.515625c-2.261718 0-4.433593-.898437-6.03125-2.5-21.984374-21.976563-60.203124-14.808594-60.578124-14.730469-4.570313.808594-8.945313-2.183594-9.851563-6.734375s1.988281-8.992187 6.519531-10c1.921875-.394531 47.464844-9.097656 75.972656 19.402344 2.4375 2.441406 3.167969 6.109375 1.847657 9.292969-1.320313 3.1875-4.429688 5.265625-7.878907 5.269531zm0 0"/><path d="m119.46875 237.582031h-42.667969c-4.710937 0-8.53125-3.820312-8.53125-8.535156 0-4.710937 3.820313-8.53125 8.53125-8.53125h42.667969c4.710938 0 8.53125 3.820313 8.53125 8.53125 0 4.714844-3.820312 8.535156-8.53125 8.535156zm0 0"/><path d="m106.730469 273.148438c-7.558594 0-15.113281-.507813-22.605469-1.519532-4.664062-.664062-7.90625-4.988281-7.242188-9.652344.664063-4.664062 4.984376-7.910156 9.652344-7.242187 17.210938 2.453125 54.242188 2.878906 58.972656-11.320313 1.488282-4.46875 6.324219-6.886718 10.792969-5.394531 4.472657 1.492188 6.886719 6.324219 5.394531 10.796875-6.785156 20.363282-34.457031 24.332032-54.964843 24.332032zm0 0"/><path d="m358.402344 220.515625c-3.453125-.003906-6.5625-2.082031-7.882813-5.269531-1.320312-3.1875-.589843-6.859375 1.847657-9.296875 28.507812-28.511719 74.050781-19.792969 75.976562-19.402344 4.621094.921875 7.621094 5.417969 6.699219 10.039063-.921875 4.621093-5.414063 7.621093-10.035157 6.699218-.585937-.125-38.65625-7.191406-60.574218 14.730469-1.597656 1.601563-3.769532 2.5-6.03125 2.5zm0 0"/><path d="m435.203125 237.582031h-42.667969c-4.714844 0-8.535156-3.820312-8.535156-8.535156 0-4.710937 3.820312-8.53125 8.535156-8.53125h42.667969c4.710937 0 8.53125 3.820313 8.53125 8.53125 0 4.714844-3.820313 8.535156-8.53125 8.535156zm0 0"/><path d="m405.273438 273.148438c-20.511719 0-48.175782-3.96875-54.96875-24.335938-.964844-2.890625-.3125-6.078125 1.710937-8.359375s5.109375-3.3125 8.09375-2.699219c2.988281.609375 5.421875 2.769532 6.386719 5.660156 4.703125 14.105469 42.46875 13.6875 58.964844 11.320313 3.050781-.5 6.136718.6875 8.0625 3.105469 1.925781 2.417968 2.394531 5.6875 1.222656 8.546875-1.171875 2.863281-3.796875 4.867187-6.867188 5.238281-7.492187 1.015625-15.046875 1.523438-22.605468 1.523438zm0 0"/></g></svg>