<svg height="512pt" viewBox="0 -26 512.00264 512" width="512pt" xmlns="http://www.w3.org/2000/svg"><path d="m455.085938 113.25-21.421876-16.808594-78.335937-61.699218c19.003906-13.378907 40.910156-22.0625 63.917969-25.34375 10.648437-1.648438 21.515625-1.214844 32 1.28125 18.257812 34.304687 11.773437 75.265624 3.839844 102.570312zm0 0" fill="#cad9fc"/><path d="m433.664062 96.441406-78.335937-61.699218c19.003906-13.378907 40.910156-22.0625 63.917969-25.34375 2.160156.277343 4.296875.703124 6.398437 1.28125 14.847657 27.820312 13.3125 60.074218 8.019531 85.761718zm0 0" fill="#e8edfc"/><path d="m56.917969 113.25c-7.933594-27.304688-14.421875-68.265625 3.839843-102.570312 0 0 40.960938-12.714844 95.914063 24.0625zm0 0" fill="#e8edfc"/><path d="m74.777344 113.25c-6.515625-20.988281-11.839844-52.46875 3.152344-78.835938 0 0 33.628906-9.773437 78.742187 18.496094zm0 0" fill="#e8edfc"/><path d="m437.226562 113.25c6.515626-20.988281 11.839844-52.46875-3.152343-78.835938 0 0-33.628907-9.773437-78.746094 18.496094zm0 0" fill="#e8edfc"/><path d="m503.46875 258.914062c.105469 75.117188-34.628906 146.03125-94.039062 192h-306.859376c-53.171874-41.28125-86.851562-102.761718-93.015624-169.796874-6.160157-67.035157 15.746093-133.625 60.503906-183.910157 2.476562-2.730469 4.949218-5.375 7.511718-8.019531l58.707032-44.375c16.863281-9.085938 34.738281-16.160156 53.25-21.078125 10.339844-2.753906 20.863281-4.78125 31.488281-6.058594 7.339844-.9375 14.675781-1.535156 22.1875-1.875 2.816406 0 5.628906-.085937 8.53125-.085937h8.535156c10.269531.003906 20.53125.660156 30.71875 1.960937 10.800781 1.328125 21.492188 3.410157 32 6.230469 18.324219 4.914062 36.023438 11.929688 52.734375 20.90625l58.710938 44.375c2.558594 2.644531 5.035156 5.289062 7.507812 8.019531 39.679688 44.511719 61.582032 102.078125 61.527344 161.707031zm0 0" fill="#cad9fc"/><path d="m477.867188 258.914062c.105468 75.117188-34.628907 146.03125-94.035157 192h-281.261719c-53.171874-41.28125-86.851562-102.761718-93.015624-169.796874-6.160157-67.035157 15.746093-133.625 60.503906-183.910157 2.476562-2.730469 4.949218-5.375 7.511718-8.019531l58.707032-44.375c16.863281-9.085938 34.738281-16.160156 53.25-21.078125 10.339844-2.753906 20.863281-4.78125 31.488281-6.058594 7.339844-.9375 14.675781-1.535156 22.1875-1.875 7.507813.339844 14.847656.9375 22.183594 1.875 10.800781 1.328125 21.492187 3.410157 32 6.230469 18.328125 4.914062 36.023437 11.929688 52.738281 20.90625l58.707031 44.375c2.5625 2.644531 5.035157 5.289062 7.511719 8.019531 39.675781 44.511719 61.578125 102.078125 61.523438 161.707031zm0 0" fill="#e8edfc"/><path d="m273.066406 41.3125c0 37.71875-7.679687 68.269531-17.066406 68.269531s-17.066406-30.550781-17.066406-68.269531c0-8.957031.429687-17.40625 1.195312-25.257812 3.925782-.253907 7.851563-.339844 11.863282-.339844h8.019531c4.011719 0 7.9375.085937 11.863281.339844.765625 7.851562 1.191406 16.300781 1.191406 25.257812zm0 0" fill="#a4c2f7"/><path d="m221.1875 18.019531c-2.136719 28.242188-8.707031 48.894531-16.386719 48.894531-6.996093 0-13.140625-17.152343-15.699219-41.640624v-.085938c.167969-.511719.253907-.941406.425782-1.453125 10.339844-2.753906 20.863281-4.78125 31.488281-6.058594.085937.085938.085937.257813.171875.34375zm0 0" fill="#a4c2f7"/><path d="m322.988281 23.90625c0 .425781-.085937.851562-.085937 1.28125v.085938c-2.558594 24.488281-8.703125 41.640624-15.699219 41.640624-7.679687 0-14.253906-20.652343-16.386719-48.894531.085938-.085937.085938-.257812.171875-.34375 10.800781 1.328125 21.492188 3.410157 32 6.230469zm0 0" fill="#a4c2f7"/><path d="m221.613281 151.820312c-8.109375 15.789063-29.183593 31.488282-46.679687 41.984376-4.179688-2.472657-8.53125-5.289063-12.96875-8.363282-13.613282-8.535156-25.136719-20.027344-33.707032-33.621094-11.691406-20.992187-11.691406-41.898437 0-52.394531 7.238282-5.894531 16.78125-8.144531 25.890626-6.09375 9.105468 2.046875 16.769531 8.164063 20.785156 16.589844 2.589844-4.800781 6.273437-8.921875 10.753906-12.03125 10.9375-7.691406 25.683594-7.058594 35.925781 1.535156 11.691407 10.496094 11.691407 31.402344 0 52.394531zm0 0" fill="#fff" fill-rule="evenodd"/><path d="m337.066406 109.890625c4.027344-8.425781 11.699219-14.539063 20.808594-16.582031 9.113281-2.046875 18.660156.199218 25.902344 6.09375 11.675781 10.488281 11.675781 31.46875 0 52.445312-8.175782 15.730469-29.195313 31.460938-46.710938 41.957032-17.515625-10.488282-38.53125-26.222657-46.707031-41.953126-11.675781-20.976562-11.675781-41.957031 0-52.445312 7.242187-5.894531 16.789063-8.140625 25.898437-6.097656 9.113282 2.046875 16.785157 8.15625 20.808594 16.582031zm0 0" fill="#fff" fill-rule="evenodd"/><path d="m298.667969 271.714844c0 28.246094-19.113281 51.199218-42.667969 51.199218-23.550781 0-42.664062-22.953124-42.664062-51.199218-.070313-8.859375 1.886718-17.613282 5.714843-25.601563h73.898438c3.832031 7.988281 5.785156 16.742188 5.71875 25.601563zm0 0" fill="#a4c2f7"/><path d="m281.601562 189.25s-12.800781 22.730469-25.601562 22.730469c-12.796875 0-25.597656-22.730469-25.597656-22.730469.832031-.753906 1.726562-1.503906 2.558594-2.117188 6.238281-5.0625 13.785156-8.257812 21.761718-9.21875.832032-.066406 1.277344-.066406 1.277344-.066406s.449219 0 1.28125.066406c.257812-.003906.515625.019532.769531.070313 7.683594 1.132813 14.929688 4.289063 20.992188 9.148437.832031.613282 1.726562 1.363282 2.558593 2.117188zm0 0" fill="#e8edfc"/><path d="m273.066406 182.113281c0-4.710937-7.640625-8.53125-17.066406-8.53125s-17.066406 3.820313-17.066406 8.53125c0 4.714844 7.640625 8.535157 17.066406 8.535157s17.066406-3.820313 17.066406-8.535157zm0 0" fill="#fb7b76"/><path d="m221.613281 151.820312c-8.109375 15.789063-29.183593 31.488282-46.679687 41.984376-4.179688-2.472657-8.53125-5.289063-12.96875-8.363282 15.699218-9.554687 30.632812-23.296875 34.304687-41.726562 3.105469-16.085938-.738281-32.730469-10.582031-45.824219 10.9375-7.691406 25.683594-7.058594 35.925781 1.535156 11.691407 10.496094 11.691407 31.402344 0 52.394531zm0 0" fill="#e8edfc"/><path d="m383.765625 151.820312c-8.105469 15.789063-29.183594 31.488282-46.675781 41.984376-4.179688-2.472657-8.535156-5.289063-12.972656-8.363282 15.703124-9.554687 30.636718-23.296875 34.304687-41.726562 3.109375-16.085938-.734375-32.730469-10.582031-45.824219 10.941406-7.691406 25.683594-7.058594 35.925781 1.535156 11.691406 10.496094 11.691406 31.402344 0 52.394531zm0 0" fill="#e8edfc"/><path d="m291.757812 299.617188c-6.691406 13.78125-20.445312 22.742187-35.757812 23.296874-15.308594-.554687-29.0625-9.515624-35.753906-23.296874 1.859375-2.828126 4.035156-5.433594 6.484375-7.765626 16.445312-15.472656 42.09375-15.472656 58.539062 0 2.453125 2.332032 4.628907 4.9375 6.488281 7.765626zm0 0" fill="#cad9fc"/><path d="m285.269531 291.851562c-7.136719 8.851563-17.898437 13.996094-29.269531 13.996094-11.367188 0-22.128906-5.144531-29.269531-13.996094 16.445312-15.472656 42.09375-15.472656 58.539062 0zm0 0" fill="#e8edfc"/><path d="m102.570312 450.914062h25.601563c-104.792969-81.335937-125.027344-231.664062-45.464844-337.8125l-.1875.148438c-7.9375-27.304688-14.421875-68.265625 3.839844-102.570312 2.046875-.550782 4.128906-.96875 6.230469-1.253907-10.59375-1.613281-21.398438-1.1875-31.832032 1.253907-18.261718 34.304687-11.773437 75.265624-3.839843 102.570312l.1875-.148438c-79.558594 106.148438-59.324219 256.476563 45.464843 337.8125zm0 0" fill="#fff"/><path d="m0 258.914062c.0195312-38.441406 8.8125-76.367187 25.707031-110.898437 10.089844-20.429687 22.867188-39.421875 37.988281-56.46875l12.746094 11.351563c-14.09375 15.894531-26.003906 33.601562-35.414062 52.648437-15.746094 32.183594-23.941406 67.539063-23.960938 103.367187zm0 0" fill="#fff"/><g fill="#428dff"><path d="m12.277344 216.46875c-2.265625-.371094-4.585938.1875-6.4375 1.550781-1.847656 1.359375-3.070313 3.410157-3.386719 5.683594-1.550781 11.675781-2.3671875 23.433594-2.453125 35.210937h17.066406c.085938-10.984374.847656-21.953124 2.285156-32.84375.617188-4.585937-2.511718-8.832031-7.074218-9.601562zm0 0"/><path d="m76.441406 102.898438-12.746094-11.347657c-15.121093 17.046875-27.898437 36.035157-37.988281 56.46875l-3.75 7.996094c-.953125 2.09375-1.015625 4.484375-.175781 6.621094.839844 2.140625 2.511719 3.847656 4.636719 4.730469 4.273437 1.75 9.171875-.175782 11.113281-4.367188l3.492188-7.453125c9.410156-19.046875 21.320312-36.753906 35.417968-52.648437zm0 0"/><path d="m9.796875 189.167969c-.582031 2.25-.296875 4.636719.792969 6.6875l.972656 1.335937c.375.433594.8125.816406 1.292969 1.136719.40625.359375.863281.652344 1.359375.871094.523437.230469 1.0625.425781 1.609375.578125 2.195312.507812 4.5.203125 6.488281-.863282 3.886719-2.347656 5.308594-7.296874 3.261719-11.351562-.558594-.964844-1.289063-1.824219-2.15625-2.53125-.847657-.730469-1.828125-1.289062-2.886719-1.652344-2.15625-.675781-4.496094-.480468-6.511719.542969-2.007812 1.167969-3.511719 3.035156-4.222656 5.246094zm0 0"/><path d="m102.570312 459.449219c-1.890624 0-3.726562-.628907-5.222656-1.789063-61.632812-47.472656-97.625-120.953125-97.347656-198.746094 0-4.710937 3.820312-8.53125 8.535156-8.53125 4.710938 0 8.53125 3.820313 8.53125 8.53125-.261718 72.515626 33.285156 141.007813 90.734375 185.257813 2.882813 2.238281 4.023438 6.054687 2.84375 9.507813-1.183593 3.449218-4.425781 5.765624-8.074219 5.769531zm0 0"/><path d="m70.058594 105.757812c-3.359375-.003906-6.40625-1.976562-7.78125-5.042968-1.375-3.070313-.824219-6.65625 1.414062-9.167969 2.519532-2.828125 5.101563-5.597656 7.746094-8.3125 2.121094-2.210937 5.261719-3.113281 8.234375-2.367187 2.972656.746093 5.316406 3.027343 6.140625 5.980468.824219 2.949219.003906 6.117188-2.152344 8.296875-2.464844 2.527344-4.875 5.113281-7.21875 7.753907-1.621094 1.820312-3.945312 2.859374-6.382812 2.859374zm0 0"/><path d="m25.601562 459.449219h-17.066406c-4.714844 0-8.535156-3.820313-8.535156-8.535157 0-4.710937 3.820312-8.53125 8.535156-8.53125h17.066406c4.710938 0 8.535157 3.820313 8.535157 8.53125 0 4.714844-3.824219 8.535157-8.535157 8.535157zm0 0"/><path d="m56.914062 121.789062c-3.796874 0-7.136718-2.511718-8.191406-6.15625-8.613281-29.664062-14.828125-72.644531 4.503906-108.964843 1.054688-1.984375 2.855469-3.472657 5.003907-4.140625 1.828125-.570313 45.507812-13.488282 103.1875 25.121094 3.878906 2.636718 4.902343 7.90625 2.292969 11.800781-2.605469 3.898437-7.867188 4.960937-11.785157 2.382812-42.398437-28.375-75.0625-25.617187-85.34375-23.742187-14.519531 30.601562-8.925781 67.117187-1.46875 92.78125.746094 2.582031.234375 5.359375-1.378906 7.503906-1.609375 2.148438-4.136719 3.410156-6.820313 3.414062zm0 0"/><path d="m409.433594 459.449219c-3.648438 0-6.894532-2.316407-8.078125-5.769531-1.183594-3.453126-.039063-7.277344 2.847656-9.511719 51.308594-39.828125 83.804687-99.148438 89.746094-163.828125 5.945312-64.679688-15.195313-128.929688-58.386719-177.441406-2.347656-2.640626-4.757812-5.222657-7.222656-7.753907-2.15625-2.179687-2.976563-5.347656-2.152344-8.296875.824219-2.953125 3.167969-5.234375 6.140625-5.980468 2.96875-.746094 6.113281.15625 8.234375 2.367187 2.644531 2.714844 5.226562 5.484375 7.746094 8.3125 46.335937 52.042969 69.015625 120.972656 62.636718 190.359375-6.378906 69.390625-41.242187 133.027344-96.285156 175.753906-1.496094 1.160156-3.332031 1.789063-5.226562 1.789063zm0 0"/><path d="m375.722656 53.351562c-1.414062 0-2.804687-.351562-4.046875-1.023437-34.242187-18.4375-72.519531-28.085937-111.40625-28.082031h-8.535156c-38.886719-.003906-77.164063 9.644531-111.402344 28.074218-4.148437 2.242188-9.328125.699219-11.570312-3.449218-2.238281-4.148438-.695313-9.328125 3.453125-11.566406 36.734375-19.773438 77.800781-30.125 119.519531-30.125h8.535156c41.71875 0 82.785157 10.355468 119.519531 30.128906 3.441407 1.859375 5.179688 5.816406 4.21875 9.609375-.960937 3.789062-4.375 6.441406-8.285156 6.433593zm0 0"/><path d="m455.089844 121.789062c-2.683594-.003906-5.210938-1.265624-6.824219-3.414062-1.609375-2.144531-2.121094-4.921875-1.375-7.503906 7.457031-25.664063 13.042969-62.1875-1.472656-92.785156-10.207031-1.859376-42.902344-4.652344-85.339844 23.75-2.535156 1.722656-5.796875 1.953124-8.550781.605468-2.75-1.34375-4.570313-4.0625-4.765625-7.121094-.195313-3.054687 1.265625-5.984374 3.824219-7.667968 57.679687-38.609375 101.355468-25.6875 103.1875-25.121094 2.148437.667969 3.945312 2.15625 5.003906 4.140625 19.332031 36.316406 13.121094 79.296875 4.503906 108.960937-1.058594 3.644532-4.394531 6.15625-8.191406 6.15625zm0 0"/><path d="m503.46875 459.449219h-443.734375c-4.710937 0-8.53125-3.820313-8.53125-8.535157 0-4.710937 3.820313-8.53125 8.53125-8.53125h443.734375c4.710938 0 8.53125 3.820313 8.53125 8.53125 0 4.714844-3.820312 8.535157-8.53125 8.535157zm0 0"/><path d="m177.066406 394.664062c-24.1875 0-66.691406-31.253906-79.871094-41.429687-2.511718-1.828125-3.832031-4.875-3.445312-7.957031.382812-3.078125 2.410156-5.710938 5.292969-6.863282 2.882812-1.15625 6.164062-.652343 8.570312 1.3125 30.507813 23.523438 64.382813 41.480469 71.039063 37.652344 4.65625-9.558594-17.890625-41.585937-41.941406-65.472656-3.347657-3.320312-3.367188-8.722656-.046876-12.070312 3.316407-3.34375 8.722657-3.367188 12.066407-.046876 13.738281 13.628907 57.578125 60.050782 45.105469 85.234376-2.289063 4.6875-6.625 8.054687-11.734376 9.105468-1.652343.371094-3.339843.546875-5.035156.535156zm0 0"/><path d="m334.9375 394.664062c-1.691406.011719-3.378906-.164062-5.03125-.535156-5.113281-1.050781-9.445312-4.417968-11.734375-9.105468-12.476563-25.183594 31.367187-71.605469 45.101563-85.234376 3.347656-3.320312 8.75-3.300781 12.070312.046876 3.320312 3.347656 3.300781 8.75-.046875 12.070312-24.050781 23.886719-46.597656 55.921875-41.832031 65.546875 6.484375 3.6875 40.984375-14.617187 70.929687-37.71875 3.734375-2.757813 8.988281-2.023437 11.824219 1.652344s2.214844 8.941406-1.402344 11.855469c-13.1875 10.167968-55.691406 41.421874-79.878906 41.421874zm0 0"/><path d="m119.46875 220.515625c-2.265625 0-4.433594-.898437-6.035156-2.5-21.976563-21.976563-60.199219-14.808594-60.574219-14.730469-4.570313.808594-8.945313-2.183594-9.851563-6.734375s1.988282-8.992187 6.519532-10c1.914062-.394531 47.464844-9.097656 75.972656 19.402344 2.4375 2.441406 3.164062 6.109375 1.847656 9.292969-1.320312 3.1875-4.429687 5.265625-7.878906 5.269531zm0 0"/><path d="m85.335938 237.582031h-42.667969c-4.710938 0-8.53125-3.820312-8.53125-8.535156 0-4.710937 3.820312-8.53125 8.53125-8.53125h42.667969c4.710937 0 8.53125 3.820313 8.53125 8.53125 0 4.714844-3.820313 8.535156-8.53125 8.535156zm0 0"/><path d="m72.597656 273.148438c-7.5625 0-15.113281-.507813-22.605468-1.519532-4.664063-.664062-7.90625-4.988281-7.242188-9.652344.664062-4.664062 4.984375-7.910156 9.652344-7.242187 17.203125 2.453125 54.246094 2.878906 58.96875-11.320313.964844-2.890624 3.402344-5.046874 6.386718-5.660156 2.988282-.609375 6.074219.417969 8.097657 2.699219 2.019531 2.285156 2.671875 5.46875 1.707031 8.363281-6.785156 20.363282-34.457031 24.332032-54.964844 24.332032zm0 0"/><path d="m392.535156 220.515625c-3.449218-.003906-6.5625-2.082031-7.882812-5.269531-1.320313-3.1875-.589844-6.859375 1.847656-9.296875 28.511719-28.511719 74.054688-19.792969 75.976562-19.402344 4.621094.921875 7.621094 5.417969 6.699219 10.039063-.921875 4.621093-5.414062 7.621093-10.035156 6.699218-.585937-.125-38.652344-7.191406-60.574219 14.730469-1.597656 1.601563-3.769531 2.5-6.03125 2.5zm0 0"/><path d="m469.335938 237.582031h-42.667969c-4.710938 0-8.53125-3.820312-8.53125-8.535156 0-4.710937 3.820312-8.53125 8.53125-8.53125h42.667969c4.710937 0 8.53125 3.820313 8.53125 8.53125 0 4.714844-3.820313 8.535156-8.53125 8.535156zm0 0"/><path d="m439.40625 273.148438c-20.511719 0-48.175781-3.96875-54.96875-24.335938-.960938-2.890625-.3125-6.078125 1.710938-8.359375 2.023437-2.28125 5.109374-3.3125 8.097656-2.699219 2.984375.609375 5.417968 2.769532 6.382812 5.660156 4.695313 14.105469 42.464844 13.6875 58.96875 11.320313 3.046875-.5 6.132813.6875 8.058594 3.105469 1.925781 2.417968 2.394531 5.6875 1.222656 8.546875-1.171875 2.863281-3.796875 4.867187-6.867187 5.238281-7.492188 1.015625-15.042969 1.523438-22.605469 1.523438zm0 0"/><path d="m174.933594 202.339844c-1.542969 0-3.058594-.421875-4.382813-1.214844-14.277343-8.550781-39.746093-25.804688-49.894531-45.339844-13.722656-24.632812-13.035156-49.34375 1.867188-62.730468 8.503906-7.371094 19.882812-10.511719 30.964843-8.542969 8.160157 1.367187 15.671875 5.296875 21.445313 11.21875 5.777344-5.921875 13.285156-9.851563 21.441406-11.21875 11.085938-1.964844 22.464844 1.171875 30.972656 8.539062 14.898438 13.386719 15.585938 38.097657 1.75 62.945313-10.035156 19.320312-35.5 36.578125-49.777344 45.125-1.324218.796875-2.839843 1.214844-4.386718 1.21875zm-27.847656-101.292969c-4.8125-.078125-9.488282 1.59375-13.15625 4.707031-8.476563 7.609375-7.757813 24.859375 1.75 41.945313 10.050781 14.960937 23.503906 27.332031 39.253906 36.09375 15.683594-8.71875 29.089844-21.007813 39.136718-35.875 9.625-17.300781 10.347657-34.550781 1.867188-42.160157-4.652344-3.878906-10.789062-5.496093-16.75-4.410156-7.292969 1.335938-13.523438 6.046875-16.796875 12.699219-1.632813 2.53125-4.441406 4.0625-7.453125 4.0625-3.015625 0-5.824219-1.53125-7.457031-4.0625-3.273438-6.65625-9.507813-11.367187-16.804688-12.699219-1.1875-.199218-2.386719-.300781-3.589843-.300781zm0 0"/><path d="m337.066406 202.339844c-1.542968 0-3.058594-.421875-4.382812-1.214844-14.277344-8.550781-39.746094-25.804688-49.894532-45.339844-13.722656-24.632812-13.035156-49.34375 1.867188-62.730468 8.503906-7.371094 19.882812-10.507813 30.964844-8.542969 8.160156 1.367187 15.671875 5.296875 21.445312 11.21875 5.777344-5.921875 13.285156-9.851563 21.445313-11.21875 11.082031-1.964844 22.460937 1.171875 30.96875 8.539062 14.902343 13.386719 15.589843 38.097657 1.75 62.945313-10.03125 19.320312-35.5 36.578125-49.777344 45.125-1.324219.796875-2.839844 1.214844-4.386719 1.21875zm-27.847656-101.292969c-4.8125-.078125-9.484375 1.59375-13.15625 4.707031-8.476562 7.609375-7.757812 24.859375 1.75 41.945313 10.050781 14.960937 23.503906 27.332031 39.253906 36.09375 15.683594-8.71875 29.089844-21.007813 39.136719-35.875 9.628906-17.300781 10.347656-34.550781 1.867187-42.160157-4.652343-3.878906-10.789062-5.496093-16.75-4.410156-7.292968 1.335938-13.523437 6.046875-16.792968 12.699219-1.636719 2.53125-4.445313 4.0625-7.457032 4.0625-3.015624 0-5.820312-1.53125-7.457031-4.0625-3.273437-6.65625-9.507812-11.367187-16.804687-12.699219-1.1875-.199218-2.386719-.300781-3.589844-.300781zm0 0"/><path d="m256 223.714844c-17.136719 0-30.652344-24.585938-33.1875-29.515625-1.714844-3.339844-1.050781-7.40625 1.640625-10.023438 8.285156-8.726562 19.542969-14.03125 31.546875-14.863281 12.007812.832031 23.265625 6.136719 31.550781 14.863281 2.6875 2.617188 3.355469 6.683594 1.636719 10.023438-2.53125 4.929687-16.046875 29.515625-33.1875 29.515625zm-14.625-31.5c5.160156 7.980468 11.492188 14.433594 14.625 14.433594 3.40625 0 9.746094-6.898438 14.621094-14.433594-4.285156-3.261719-9.382813-5.28125-14.742188-5.832032-5.269531.605469-10.28125 2.621094-14.503906 5.832032zm0 0"/><path d="m292.949219 254.648438h-73.898438c-4.710937 0-8.53125-3.820313-8.53125-8.535157 0-4.710937 3.820313-8.53125 8.53125-8.53125h73.898438c4.714843 0 8.535156 3.820313 8.535156 8.53125 0 4.714844-3.820313 8.535157-8.535156 8.535157zm0 0"/><path d="m256 331.449219c-28.230469 0-51.199219-26.796875-51.199219-59.734375-.050781-10.15625 2.199219-20.1875 6.585938-29.347656 1.429687-2.929688 4.40625-4.785157 7.664062-4.785157h73.898438c3.261719 0 6.238281 1.855469 7.667969 4.785157 4.382812 9.160156 6.636718 19.191406 6.585937 29.347656 0 32.9375-22.96875 59.734375-51.203125 59.734375zm-31.28125-76.800781c-1.90625 5.484374-2.871094 11.257812-2.851562 17.066406 0 23.523437 15.3125 42.667968 34.132812 42.667968 18.824219 0 34.136719-19.144531 34.136719-42.667968.019531-5.808594-.945313-11.582032-2.851563-17.066406zm0 0"/><path d="m291.765625 308.152344c-2.894531.003906-5.589844-1.457032-7.164063-3.882813-6.304687-9.664062-17.0625-15.488281-28.601562-15.488281-11.535156 0-22.292969 5.824219-28.597656 15.488281-1.644532 2.59375-4.558594 4.105469-7.628906 3.957031-3.066407-.148437-5.820313-1.9375-7.203126-4.683593-1.382812-2.742188-1.183593-6.019531.523438-8.578125 9.453125-14.503906 25.59375-23.253906 42.90625-23.253906 17.316406 0 33.457031 8.75 42.910156 23.253906 1.703125 2.625 1.835938 5.96875.347656 8.71875-1.492187 2.75-4.367187 4.460937-7.492187 4.464844zm0 0"/></g></svg>