<svg height="512pt" viewBox="0 -26 512.00264 512" width="512pt" xmlns="http://www.w3.org/2000/svg"><path d="m455.085938 113.25-21.421876-16.808594-78.335937-61.699218c19.003906-13.378907 40.910156-22.0625 63.917969-25.34375 10.648437-1.648438 21.515625-1.214844 32 1.28125 18.257812 34.304687 11.773437 75.265624 3.839844 102.570312zm0 0" fill="#cad9fc"/><path d="m433.664062 96.441406-78.335937-61.699218c19.003906-13.378907 40.910156-22.0625 63.917969-25.34375 2.160156.277343 4.296875.703124 6.398437 1.28125 14.847657 27.820312 13.3125 60.074218 8.019531 85.761718zm0 0" fill="#e8edfc"/><path d="m56.917969 113.25c-7.933594-27.304688-14.421875-68.265625 3.839843-102.570312 0 0 40.960938-12.714844 95.914063 24.0625zm0 0" fill="#e8edfc"/><path d="m74.777344 113.25c-6.515625-20.988281-11.839844-52.46875 3.152344-78.835938 0 0 33.628906-9.773437 78.742187 18.496094zm0 0" fill="#e8edfc"/><path d="m437.226562 113.25c6.515626-20.988281 11.839844-52.46875-3.152343-78.835938 0 0-33.628907-9.773437-78.746094 18.496094zm0 0" fill="#e8edfc"/><path d="m503.46875 258.914062c.105469 75.117188-34.628906 146.03125-94.039062 192h-306.859376c-53.171874-41.28125-86.851562-102.761718-93.015624-169.796874-6.160157-67.035157 15.746093-133.625 60.503906-183.910157 2.476562-2.730469 4.949218-5.375 7.511718-8.019531l58.707032-44.375c16.863281-9.085938 34.738281-16.160156 53.25-21.078125 10.339844-2.753906 20.863281-4.78125 31.488281-6.058594 7.339844-.9375 14.675781-1.535156 22.1875-1.875 2.816406 0 5.628906-.085937 8.53125-.085937h8.535156c10.269531.003906 20.53125.660156 30.71875 1.960937 10.800781 1.328125 21.492188 3.410157 32 6.230469 18.324219 4.914062 36.023438 11.929688 52.734375 20.90625l58.710938 44.375c2.558594 2.644531 5.035156 5.289062 7.507812 8.019531 39.679688 44.511719 61.582032 102.078125 61.527344 161.707031zm0 0" fill="#cad9fc"/><path d="m477.867188 258.914062c.105468 75.117188-34.628907 146.03125-94.035157 192h-281.261719c-53.171874-41.28125-86.851562-102.761718-93.015624-169.796874-6.160157-67.035157 15.746093-133.625 60.503906-183.910157 2.476562-2.730469 4.949218-5.375 7.511718-8.019531l58.707032-44.375c16.863281-9.085938 34.738281-16.160156 53.25-21.078125 10.339844-2.753906 20.863281-4.78125 31.488281-6.058594 7.339844-.9375 14.675781-1.535156 22.1875-1.875 7.507813.339844 14.847656.9375 22.183594 1.875 10.800781 1.328125 21.492187 3.410157 32 6.230469 18.328125 4.914062 36.023437 11.929688 52.738281 20.90625l58.707031 44.375c2.5625 2.644531 5.035157 5.289062 7.511719 8.019531 39.675781 44.511719 61.578125 102.078125 61.523438 161.707031zm0 0" fill="#e8edfc"/><path d="m273.066406 41.3125c0 37.71875-7.679687 68.269531-17.066406 68.269531s-17.066406-30.550781-17.066406-68.269531c0-8.957031.429687-17.40625 1.195312-25.257812 3.925782-.253907 7.851563-.339844 11.863282-.339844h8.019531c4.011719 0 7.9375.085937 11.863281.339844.765625 7.851562 1.191406 16.300781 1.191406 25.257812zm0 0" fill="#a4c2f7"/><path d="m221.1875 18.019531c-2.136719 28.242188-8.707031 48.894531-16.386719 48.894531-6.996093 0-13.140625-17.152343-15.699219-41.640624v-.085938c.167969-.511719.253907-.941406.425782-1.453125 10.339844-2.753906 20.863281-4.78125 31.488281-6.058594.085937.085938.085937.257813.171875.34375zm0 0" fill="#a4c2f7"/><path d="m322.988281 23.90625c0 .425781-.085937.851562-.085937 1.28125v.085938c-2.558594 24.488281-8.703125 41.640624-15.699219 41.640624-7.679687 0-14.253906-20.652343-16.386719-48.894531.085938-.085937.085938-.257812.171875-.34375 10.800781 1.328125 21.492188 3.410157 32 6.230469zm0 0" fill="#a4c2f7"/><path d="m261.71875 222.050781c7.746094 5.472657 12.050781 14.605469 11.347656 24.0625 0 14.167969-7.679687 25.601563-17.066406 25.601563s-17.066406-11.433594-17.066406-25.601563c-.699219-9.457031 3.605468-18.589843 11.351562-24.0625zm0 0" fill="#a4c2f7"/><path d="m281.601562 198.839844s-12.800781 24.832031-25.601562 24.832031c-12.796875 0-25.597656-24.832031-25.597656-24.832031.597656-.597656 1.277344-1.195313 1.875-1.707032 5.996094-5.53125 13.464844-9.203124 21.503906-10.582031 1.472656-.226562 2.96875-.226562 4.4375 0 8.042969 1.378907 15.511719 5.050781 21.503906 10.582031.597656.511719 1.28125 1.109376 1.878906 1.707032zm0 0" fill="#cad9fc"/><path d="m102.570312 450.914062h25.601563c-104.792969-81.335937-125.027344-231.664062-45.464844-337.8125l-.1875.148438c-7.9375-27.304688-14.421875-68.265625 3.839844-102.570312 2.046875-.550782 4.128906-.96875 6.230469-1.253907-10.59375-1.613281-21.398438-1.1875-31.832032 1.253907-18.261718 34.304687-11.773437 75.265624-3.839843 102.570312l.1875-.148438c-79.558594 106.148438-59.324219 256.476563 45.464843 337.8125zm0 0" fill="#fff"/><path d="m256 232.246094c-17.136719 0-30.652344-24.585938-33.1875-29.515625-1.714844-3.335938-1.050781-7.402344 1.640625-10.019531 8.285156-8.730469 19.542969-14.03125 31.546875-14.863282 12.007812.832032 23.265625 6.132813 31.550781 14.863282 2.6875 2.617187 3.355469 6.683593 1.636719 10.019531-2.53125 4.929687-16.046875 29.515625-33.1875 29.515625zm-14.625-31.5c5.160156 7.984375 11.492188 14.433594 14.625 14.433594 3.40625 0 9.746094-6.894532 14.621094-14.433594-4.285156-3.261719-9.382813-5.277344-14.742188-5.832032-5.269531.605469-10.28125 2.621094-14.503906 5.832032zm0 0" fill="#428dff"/><path d="m0 258.914062c.0195312-38.441406 8.8125-76.367187 25.707031-110.898437 10.089844-20.429687 22.867188-39.421875 37.988281-56.46875l12.746094 11.351563c-14.09375 15.894531-26.003906 33.601562-35.414062 52.648437-15.746094 32.183594-23.941406 67.539063-23.960938 103.367187zm0 0" fill="#fff"/><g fill="#428dff"><path d="m12.277344 216.46875c-2.265625-.371094-4.585938.1875-6.4375 1.550781-1.847656 1.359375-3.070313 3.410157-3.386719 5.683594-1.550781 11.675781-2.3671875 23.433594-2.453125 35.210937h17.066406c.085938-10.984374.847656-21.953124 2.285156-32.84375.617188-4.585937-2.511718-8.832031-7.074218-9.601562zm0 0"/><path d="m76.441406 102.898438-12.746094-11.347657c-15.121093 17.046875-27.898437 36.035157-37.988281 56.46875l-3.75 7.996094c-.953125 2.09375-1.015625 4.484375-.175781 6.621094.839844 2.140625 2.511719 3.847656 4.636719 4.730469 4.273437 1.75 9.171875-.175782 11.113281-4.367188l3.492188-7.453125c9.410156-19.046875 21.320312-36.753906 35.417968-52.648437zm0 0"/><path d="m9.796875 189.167969c-.578125 2.25-.296875 4.636719.792969 6.6875l.972656 1.335937c.375.433594.8125.816406 1.292969 1.136719.40625.359375.863281.652344 1.359375.871094.523437.230469 1.0625.425781 1.609375.578125 2.195312.507812 4.5.203125 6.484375-.863282 3.890625-2.347656 5.3125-7.296874 3.265625-11.351562-.558594-.964844-1.289063-1.824219-2.15625-2.53125-.847657-.730469-1.828125-1.289062-2.886719-1.652344-2.160156-.675781-4.496094-.480468-6.511719.542969-2.007812 1.167969-3.511719 3.035156-4.222656 5.246094zm0 0"/><path d="m102.570312 459.449219c-1.890624 0-3.726562-.628907-5.222656-1.789063-61.632812-47.472656-97.625-120.953125-97.347656-198.746094 0-4.710937 3.820312-8.53125 8.535156-8.53125 4.710938 0 8.53125 3.820313 8.53125 8.53125-.261718 72.515626 33.285156 141.007813 90.734375 185.257813 2.882813 2.238281 4.023438 6.054687 2.84375 9.507813-1.183593 3.449218-4.425781 5.765624-8.074219 5.769531zm0 0"/><path d="m70.058594 105.757812c-3.359375-.003906-6.40625-1.976562-7.78125-5.042968-1.375-3.070313-.824219-6.65625 1.414062-9.167969 2.519532-2.828125 5.101563-5.597656 7.746094-8.3125 2.121094-2.210937 5.261719-3.113281 8.234375-2.367187 2.972656.746093 5.316406 3.027343 6.140625 5.980468.824219 2.949219.003906 6.117188-2.152344 8.296875-2.464844 2.527344-4.875 5.113281-7.21875 7.753907-1.621094 1.820312-3.945312 2.859374-6.382812 2.859374zm0 0"/><path d="m25.601562 459.449219h-17.066406c-4.714844 0-8.535156-3.820313-8.535156-8.535157 0-4.710937 3.820312-8.53125 8.535156-8.53125h17.066406c4.710938 0 8.535157 3.820313 8.535157 8.53125 0 4.714844-3.824219 8.535157-8.535157 8.535157zm0 0"/><path d="m56.914062 121.789062c-3.796874 0-7.136718-2.511718-8.191406-6.15625-8.613281-29.664062-14.828125-72.644531 4.503906-108.964843 1.054688-1.984375 2.855469-3.472657 5.003907-4.140625 1.820312-.570313 45.507812-13.488282 103.1875 25.121094 3.878906 2.636718 4.902343 7.90625 2.292969 11.800781-2.605469 3.898437-7.867188 4.960937-11.785157 2.382812-42.398437-28.375-75.070312-25.617187-85.34375-23.742187-14.519531 30.601562-8.925781 67.117187-1.46875 92.78125.746094 2.582031.234375 5.359375-1.378906 7.503906-1.609375 2.148438-4.136719 3.410156-6.820313 3.414062zm0 0"/><path d="m409.433594 459.449219c-3.648438 0-6.894532-2.316407-8.078125-5.769531-1.183594-3.453126-.039063-7.277344 2.847656-9.511719 51.308594-39.828125 83.804687-99.148438 89.746094-163.828125 5.945312-64.679688-15.195313-128.929688-58.386719-177.441406-2.347656-2.640626-4.757812-5.222657-7.222656-7.753907-2.15625-2.179687-2.976563-5.347656-2.152344-8.296875.824219-2.953125 3.167969-5.234375 6.140625-5.980468 2.96875-.746094 6.113281.15625 8.234375 2.367187 2.644531 2.714844 5.226562 5.484375 7.746094 8.3125 46.335937 52.042969 69.015625 120.972656 62.636718 190.359375-6.378906 69.390625-41.242187 133.027344-96.285156 175.753906-1.496094 1.160156-3.332031 1.789063-5.226562 1.789063zm0 0"/><path d="m375.722656 53.351562c-1.414062 0-2.804687-.351562-4.046875-1.023437-34.242187-18.4375-72.519531-28.085937-111.40625-28.082031h-8.535156c-38.886719-.003906-77.164063 9.644531-111.402344 28.074218-4.148437 2.242188-9.328125.699219-11.570312-3.449218-2.238281-4.148438-.695313-9.328125 3.453125-11.566406 36.734375-19.773438 77.800781-30.125 119.519531-30.125h8.535156c41.71875 0 82.785157 10.355468 119.519531 30.128906 3.441407 1.859375 5.179688 5.816406 4.21875 9.609375-.960937 3.789062-4.375 6.441406-8.285156 6.433593zm0 0"/><path d="m455.089844 121.789062c-2.683594-.003906-5.210938-1.265624-6.824219-3.414062-1.609375-2.144531-2.121094-4.921875-1.375-7.503906 7.457031-25.664063 13.042969-62.1875-1.472656-92.785156-10.210938-1.859376-42.902344-4.652344-85.339844 23.75-2.535156 1.722656-5.796875 1.953124-8.550781.605468-2.75-1.34375-4.570313-4.0625-4.765625-7.121094-.195313-3.054687 1.265625-5.984374 3.824219-7.667968 57.683593-38.609375 101.367187-25.6875 103.1875-25.121094 2.148437.667969 3.945312 2.15625 5.003906 4.140625 19.332031 36.316406 13.121094 79.296875 4.503906 108.960937-1.058594 3.644532-4.394531 6.15625-8.191406 6.15625zm0 0"/><path d="m503.46875 459.449219h-443.734375c-4.710937 0-8.53125-3.820313-8.53125-8.535157 0-4.710937 3.820313-8.53125 8.53125-8.53125h443.734375c4.710938 0 8.53125 3.820313 8.53125 8.53125 0 4.714844-3.820312 8.535157-8.53125 8.535157zm0 0"/><path d="m177.066406 425.269531c-24.1875 0-66.691406-31.253906-79.871094-41.429687-2.453124-1.847656-3.722656-4.875-3.328124-7.921875.398437-3.046875 2.402343-5.644531 5.25-6.800781 2.84375-1.15625 6.09375-.695313 8.503906 1.210937 30.511718 23.527344 64.390625 41.492187 71.035156 37.652344 4.660156-9.554688-17.890625-41.585938-41.941406-65.472657-3.257813-3.335937-3.242188-8.671874.042968-11.980468 3.285157-3.308594 8.621094-3.371094 11.980469-.132813 13.738281 13.628907 57.578125 60.050781 45.101563 85.230469-2.289063 4.691406-6.621094 8.054688-11.730469 9.109375-1.65625.367187-3.347656.546875-5.042969.535156zm0 0"/><path d="m334.9375 425.269531c-1.691406.011719-3.378906-.167969-5.03125-.535156-5.113281-1.054687-9.445312-4.417969-11.734375-9.109375-12.476563-25.179688 31.367187-71.601562 45.101563-85.230469 3.355468-3.269531 8.714843-3.226562 12.015624.097657 3.300782 3.324218 3.304688 8.683593.007813 12.015624-24.050781 23.886719-46.597656 55.917969-41.832031 65.542969 6.570312 3.714844 40.425781-14.195312 70.929687-37.722656 2.410157-1.902344 5.65625-2.363281 8.503907-1.203125 2.84375 1.15625 4.84375 3.753906 5.242187 6.800781.398437 3.042969-.875 6.066407-3.328125 7.917969-13.183594 10.171875-55.6875 41.425781-79.875 41.425781zm0 0"/><path d="m179.203125 238.945312c-2.265625.003907-4.4375-.894531-6.035156-2.5-21.984375-21.980468-60.203125-14.800781-60.574219-14.730468-4.601562.875-9.042969-2.125-9.960938-6.714844-.914062-4.59375 2.042969-9.0625 6.628907-10.019531 1.921875-.398438 47.46875-9.109375 75.972656 19.398437 2.441406 2.441406 3.171875 6.109375 1.851563 9.300782-1.320313 3.1875-4.433594 5.265624-7.882813 5.265624zm0 0"/><path d="m145.066406 256.011719h-42.664062c-4.714844 0-8.535156-3.820313-8.535156-8.53125 0-4.714844 3.820312-8.535157 8.535156-8.535157h42.664062c4.714844 0 8.535156 3.820313 8.535156 8.535157 0 4.710937-3.820312 8.53125-8.535156 8.53125zm0 0"/><path d="m132.332031 291.582031c-7.5625 0-15.113281-.507812-22.605469-1.523437-4.664062-.664063-7.910156-4.984375-7.242187-9.652344.664063-4.664062 4.984375-7.90625 9.648437-7.242188 17.207032 2.453126 54.238282 2.878907 58.972657-11.316406 1.492187-4.472656 6.324219-6.886718 10.796875-5.394531 4.46875 1.492187 6.886718 6.324219 5.394531 10.792969-6.789063 20.367187-34.457031 24.335937-54.964844 24.335937zm0 0"/><path d="m332.800781 238.945312c-3.449219 0-6.5625-2.078124-7.882812-5.265624-1.320313-3.191407-.589844-6.859376 1.851562-9.300782 28.5-28.507812 74.054688-19.78125 75.972657-19.398437 4.621093.921875 7.621093 5.414062 6.699218 10.035156-.917968 4.621094-5.414062 7.621094-10.035156 6.699219-.582031-.113282-38.65625-7.1875-60.570312 14.730468-1.597657 1.605469-3.769532 2.503907-6.035157 2.5zm0 0"/><path d="m409.601562 256.011719h-42.667968c-4.710938 0-8.53125-3.820313-8.53125-8.53125 0-4.714844 3.820312-8.535157 8.53125-8.535157h42.667968c4.710938 0 8.535157 3.820313 8.535157 8.535157 0 4.710937-3.824219 8.53125-8.535157 8.53125zm0 0"/><path d="m379.671875 291.582031c-20.511719 0-48.175781-3.96875-54.964844-24.335937-1.492187-4.46875.921875-9.300782 5.394531-10.792969 4.472657-1.492187 9.304688.921875 10.796876 5.394531 4.699218 14.105469 42.464843 13.691406 58.964843 11.320313 4.664063-.667969 8.988281 2.574219 9.65625 7.238281.667969 4.667969-2.574219 8.992188-7.242187 9.65625-7.492188 1.015625-15.042969 1.519531-22.605469 1.519531zm0 0"/><path d="m187.734375 194.914062c-23.550781-.027343-42.636719-19.113281-42.667969-42.667968 0-4.710938 3.824219-8.53125 8.535156-8.53125 4.710938 0 8.535157 3.820312 8.535157 8.53125 0 14.140625 11.460937 25.601562 25.597656 25.601562 14.140625 0 25.601563-11.460937 25.601563-25.601562 0-4.710938 3.820312-8.53125 8.53125-8.53125 4.714843 0 8.535156 3.820312 8.535156 8.53125-.027344 23.554687-19.113282 42.640625-42.667969 42.667968zm0 0"/><path d="m324.269531 194.914062c-23.554687-.027343-42.640625-19.113281-42.667969-42.667968 0-4.710938 3.820313-8.53125 8.535157-8.53125 4.710937 0 8.53125 3.820312 8.53125 8.53125 0 14.140625 11.460937 25.601562 25.601562 25.601562 14.136719 0 25.597657-11.460937 25.597657-25.601562 0-4.710938 3.820312-8.53125 8.535156-8.53125 4.710937 0 8.53125 3.820312 8.53125 8.53125-.027344 23.554687-19.113282 42.640625-42.664063 42.667968zm0 0"/><path d="m256 280.246094c-14.351562 0-25.597656-14.988282-25.597656-34.132813-.765625-12.617187 5.292968-24.675781 15.871094-31.59375 3.171874-1.695312 7.0625-1.214843 9.726562 1.195313 2.671875-2.40625 6.558594-2.882813 9.730469-1.195313 10.578125 6.917969 16.636719 18.976563 15.871093 31.59375 0 19.144531-11.246093 34.132813-25.601562 34.132813zm0-51.855469c-.515625.464844-1.089844.867187-1.703125 1.195313-4.871094 4.042968-7.425781 10.230468-6.828125 16.527343 0 10.257813 5.136719 17.066407 8.53125 17.066407 3.398438 0 8.535156-6.808594 8.535156-17.066407.59375-6.296875-1.960937-12.484375-6.828125-16.527343-.613281-.328126-1.1875-.730469-1.707031-1.195313zm0 0"/></g></svg>