<svg height="512pt" viewBox="0 0 512 512.00249" width="512pt" xmlns="http://www.w3.org/2000/svg"><path d="m85.332031 273.070312-70.9375-70.9375c-1.128906-1.132812-1.53125-2.796874-1.046875-4.320312.488282-1.523438 1.789063-2.644531 3.363282-2.90625l34.824218-5.800781c5.175782-.863281 10.457032.703125 14.328125 4.242187l96.425781 88.253906zm0 0" fill="#a4c2f7"/><path d="m497.578125 202.15625-70.910156 70.914062-85.335938 17.066407 18.859375-17.410157 85.929688-79.359374c3.914062-3.535157 9.21875-5.105469 14.421875-4.265626l12.628906 2.132813 22.101563 3.667969c1.578124.269531 2.875 1.398437 3.359374 2.925781.488282 1.527344.078126 3.199219-1.054687 4.328125zm0 0" fill="#7facfa"/><path d="m473.171875 191.234375c-.113281.910156-.535156 1.753906-1.195313 2.390625l-70.910156 70.910156-40.875 8.191406 85.929688-79.359374c3.914062-3.535157 9.21875-5.105469 14.421875-4.265626zm0 0" fill="#a4c2f7"/><path d="m400.726562 106.753906c26.921876 47.714844 21.589844 107.09375-13.398437 149.25-.285156.417969-.601563.816406-.9375 1.191406l-24.320313 24.40625h-199.765624l-36.695313-24.40625c-.339844-.375-.652344-.773437-.9375-1.191406-6.027344-7.164062-11.238281-14.980468-15.53125-23.296875v-.085937c-21.101563-39.472656-20.292969-87.046875 2.132813-125.78125v-.085938c-5.035157-13.3125-28.246094-81.578125-15.019532-95.574218 1.558594-1.742188 3.808594-2.710938 6.144532-2.644532 23.042968 0 50.859374 12.972656 70.742187 28.246094 2.988281 2.304688 5.71875 4.609375 8.277344 6.910156 4.949219-2.300781 10.070312-4.351562 15.359375-6.226562 8.144531-2.886719 16.503906-5.113282 25.003906-6.65625 6.558594-1.347656 13.203125-2.257813 19.882812-2.730469.507813-.070313 1.023438-.101563 1.535157-.085937 4.179687-.339844 8.449219-.511719 12.800781-.511719 4.863281 0 9.640625.171875 14.335938.597656 6.679687.472656 13.320312 1.382813 19.882812 2.730469 7.808594 1.445312 15.507812 3.441406 23.039062 5.972656.683594.257812 1.28125.425781 1.964844.683594 5.289063 1.875 10.410156 3.925781 15.359375 6.226562 17.105469-15.292968 37.523438-26.421875 59.648438-32.511718 6.320312-1.679688 12.828125-2.570313 19.367187-2.644532 25.003906 0-3.242187 83.371094-8.871094 98.21875zm0 0" fill="#cad9fc"/><path d="m375.125 106.753906c26.921875 47.714844 21.59375 107.09375-13.398438 149.25-.285156.417969-.597656.816406-.9375 1.191406l-24.320312 24.40625h-174.164062l-36.695313-24.40625c-.339844-.375-.652344-.773437-.9375-1.191406-6.027344-7.164062-11.238281-14.980468-15.53125-23.296875v-.085937c-21.101563-39.472656-20.292969-87.046875 2.132813-125.78125v-.085938c-5.035157-13.3125-28.246094-81.578125-15.019532-95.574218 22.09375 6.105468 42.480469 17.234374 59.5625 32.511718 4.949219-2.300781 10.070313-4.351562 15.363282-6.226562.679687-.257813 1.277343-.425782 1.960937-.683594 7.53125-2.53125 15.230469-4.527344 23.039063-5.972656 6.5625-1.347656 13.203124-2.257813 19.882812-2.730469 4.695312-.425781 9.472656-.597656 14.335938-.597656 4.351562 0 8.621093.171875 12.800781.511719.515625-.015626 1.027343.015624 1.535156.085937 6.679687.472656 13.324219 1.382813 19.882813 2.730469 8.5 1.542968 16.863281 3.769531 25.003906 6.65625 5.289062 1.875 10.410156 3.925781 15.359375 6.226562 2.558593-2.300781 5.289062-4.605468 8.277343-6.910156.683594.257812 1.28125.425781 1.964844.683594 5.289063 1.875 10.410156 3.925781 15.359375 6.226562 17.105469-15.292968 37.523438-26.421875 59.648438-32.511718 13.054687 14.253906-10.070313 82.261718-15.105469 95.574218zm0 0" fill="#e8edfc"/><path d="m426.667969 273.070312v213.332032c-.03125 9.414062-7.65625 17.039062-17.070313 17.066406h-307.199218c-9.414063-.027344-17.039063-7.652344-17.066407-17.066406v-213.332032zm0 0" fill="#cad9fc"/><path d="m401.066406 273.070312v213.332032c.3125 9.058594-6.734375 16.671875-15.785156 17.066406h-284.160156c-9.054688-.394531-16.101563-8.007812-15.789063-17.066406v-213.332032zm0 0" fill="#e8edfc"/><path d="m109.140625 26.027344c20.046875 3.828125 38.855469 12.5 54.785156 25.261718-15.820312 9.671876-29.757812 22.132813-41.132812 36.777344-7.21875-20-11.808594-40.855468-13.652344-62.039062zm0 0" fill="#cad9fc"/><path d="m402.859375 26.027344c-1.847656 21.183594-6.433594 42.039062-13.65625 62.039062-11.371094-14.644531-25.308594-27.105468-41.128906-36.777344 15.925781-12.761718 34.734375-21.433593 54.785156-25.261718zm0 0" fill="#cad9fc"/><path d="m221.867188 281.601562c0 18.605469-14.25 29.097657-34.132813 32.683594-.597656.085938-1.109375.171875-1.707031.257813-2.832032 5.917969-8.796875 9.699219-15.359375 9.726562-4.53125.023438-8.871094-1.792969-12.035157-5.035156-1.398437-1.335937-2.527343-2.929687-3.328124-4.691406-.597657-.085938-1.109376-.171875-1.707032-.257813-19.878906-3.585937-34.132812-14.078125-34.132812-32.683594.023437-2.867187.335937-5.726562.941406-8.53125 1.203125-5.394531 3.277344-10.550781 6.140625-15.277343 8.945313-16.175781 25.652344-26.550781 44.121094-27.390625 24.382812 1.449218 44.871093 18.84375 50.257812 42.667968.605469 2.804688.917969 5.664063.941407 8.53125zm0 0" fill="#e8edfc"/><path d="m392.53125 281.601562c0 18.605469-14.25 29.097657-34.132812 32.683594-.597657.085938-1.109376.171875-1.707032.257813-2.828125 5.917969-8.796875 9.699219-15.359375 9.726562-4.527343.023438-8.871093-1.792969-12.03125-5.035156-.257812-.257813-.511719-.597656-.769531-.851563-1.070312-1.121093-1.9375-2.421874-2.558594-3.839843-.597656-.085938-1.109375-.171875-1.707031-.257813-19.882813-3.585937-34.132813-14.078125-34.132813-32.683594.023438-2.867187.335938-5.726562.9375-8.53125 1.203126-5.394531 3.28125-10.550781 6.144532-15.277343 6.902344-12.050781 18.03125-21.109375 31.234375-25.429688 4.167969-1.300781 8.515625-1.960937 12.882812-1.960937 24.382813 1.449218 44.871094 18.84375 50.261719 42.667968.601562 2.804688.917969 5.664063.9375 8.53125zm0 0" fill="#cad9fc"/><path d="m366.933594 281.601562c0 18.605469-14.25 29.097657-34.132813 32.683594-.597656.085938-1.109375.171875-1.707031.257813-.671875 1.390625-1.535156 2.683593-2.5625 3.839843-1.070312-1.121093-1.9375-2.421874-2.558594-3.839843-.597656-.085938-1.109375-.171875-1.707031-.257813-19.882813-3.585937-34.132813-14.078125-34.132813-32.683594.023438-2.867187.335938-5.726562.9375-8.53125 1.203126-5.394531 3.28125-10.550781 6.144532-15.277343 6.902344-12.050781 18.03125-21.109375 31.234375-25.429688 18.746093 6.109375 32.96875 21.527344 37.542969 40.707031.605468 2.804688.917968 5.664063.941406 8.53125zm0 0" fill="#e8edfc"/><path d="m273.066406 51.203125c0 23.550781-7.679687 42.667969-17.066406 42.667969s-17.066406-19.117188-17.066406-42.667969c-.046875-7.792969.871094-15.558594 2.730468-23.125 4.691407-.425781 9.472657-.597656 14.335938-.597656s9.640625.171875 14.335938.597656c1.859374 7.566406 2.777343 15.332031 2.730468 23.125zm0 0" fill="#a4c2f7"/><path d="m221.78125 30.808594c-.769531 21.078125-6.144531 37.460937-12.714844 37.460937-5.886718 0-10.753906-13.054687-12.289062-30.804687 8.144531-2.886719 16.503906-5.113282 25.003906-6.65625zm0 0" fill="#a4c2f7"/><path d="m315.222656 37.464844c-1.539062 17.75-6.402344 30.804687-12.289062 30.804687-6.570313 0-11.949219-16.382812-12.714844-37.460937 8.5 1.542968 16.859375 3.769531 25.003906 6.65625zm0 0" fill="#a4c2f7"/><path d="m279.058594 161.6875-12.8125 13.496094c-5.777344 5.359375-14.714844 5.359375-20.496094 0l-12.808594-13.496094c-2.101562-2.015625-2.976562-4.988281-2.304687-7.820312 1.773437-5.328126 6.953125-8.761719 12.554687-8.324219h25.621094c5.601562-.4375 10.777344 2.996093 12.554688 8.324219.671874 2.832031-.207032 5.804687-2.308594 7.820312zm0 0" fill="#a4c2f7"/><path d="m85.332031 273.070312v213.332032c-.3125 9.058594 6.734375 16.671875 15.789063 17.066406h25.597656c-9.054688-.394531-16.097656-8.007812-15.785156-17.066406v-213.332032l-70.9375-70.9375c-1.128906-1.132812-1.535156-2.796874-1.046875-4.320312s1.785156-2.644531 3.363281-2.90625l20.898438-3.484375c-3.488282-2.152344-7.632813-2.976563-11.675782-2.320313l-34.824218 5.804688c-1.574219.261719-2.875 1.382812-3.363282 2.90625-.484375 1.519531-.082031 3.1875 1.046875 4.316406zm0 0" fill="#fff"/><path d="m198.742188 36.78125c7.527343-2.53125 15.226562-4.527344 23.039062-5.972656 6.558594-1.347656 13.203125-2.257813 19.882812-2.730469 4.691407-.425781 9.472657-.597656 14.335938-.597656-4.351562 0-8.621094.171875-12.800781.511719-4.179688-.339844-8.449219-.511719-12.800781-.511719-4.863282 0-9.640626.171875-14.335938.597656-6.679688.472656-13.320312 1.382813-19.882812 2.730469-1.492188.269531-2.925782.664062-4.398438.976562 2.394531 1.632813 4.742188 3.289063 6.960938 4.996094zm0 0" fill="#fff"/><path d="m111.273438 106.839844c-11.394532 19.683594-17.398438 42.023437-17.40625 64.769531 0 9.0625 23.789062 75.808594 25.589843 84.394531l15.601563-22.753906c-.097656-.1875-.222656-.355469-.316406-.542969v-.085937c-21.101563-39.472656-20.292969-87.046875 2.132812-125.78125v-.085938c-5.035156-13.304687-28.210938-81.480468-15.039062-95.539062-6.347657-1.683594-12.875-2.582032-19.4375-2.679688-2.335938-.066406-4.585938.902344-6.144532 2.644532-13.226562 13.996093 9.984375 82.261718 15.019532 95.574218zm0 0" fill="#fff"/><path d="m76.800781 486.402344v-213.332032h17.066407v213.332032zm0 0" fill="#fff"/><g fill="#428dff"><path d="m85.332031 443.734375c-4.707031.015625-8.519531 3.828125-8.53125 8.535156v34.132813h17.066407v-34.132813c-.015626-4.707031-3.828126-8.519531-8.535157-8.535156zm0 0"/><path d="m93.867188 273.070312h-17.066407v110.933594c0 4.710938 3.820313 8.53125 8.53125 8.53125 4.714844 0 8.535157-3.820312 8.535157-8.53125zm0 0"/><path d="m76.800781 418.136719c.03125 2.257812.917969 4.421875 2.472657 6.058593l1.28125 1.023438c.476562.324219.992187.582031 1.535156.769531.484375.246094 1 .417969 1.535156.511719.566406.09375 1.136719.152344 1.707031.167969 2.261719-.03125 4.425781-.914063 6.058594-2.472657 2.070313-1.996093 2.980469-4.910156 2.410156-7.726562-.570312-2.820312-2.542969-5.152344-5.226562-6.183594-1.023438-.4375-2.125-.667968-3.242188-.683594-2.269531-.023437-4.453125.871094-6.058593 2.476563-1.605469 1.605469-2.496094 3.789063-2.472657 6.058594zm0 0"/><path d="m409.597656 512.003906h-307.199218c-14.132813-.015625-25.582032-11.46875-25.597657-25.601562 0-4.710938 3.820313-8.53125 8.53125-8.53125 4.714844 0 8.535157 3.820312 8.535157 8.53125.003906 4.710937 3.820312 8.527344 8.53125 8.535156h307.199218c4.710938-.007812 8.53125-3.824219 8.535156-8.535156v-204.800782h-26.367187c-4.714844 0-8.535156-3.820312-8.535156-8.53125 0-4.714843 3.820312-8.535156 8.535156-8.535156h34.902344c4.710937 0 8.53125 3.820313 8.53125 8.535156v213.332032c-.015625 14.132812-11.46875 25.585937-25.601563 25.601562zm0 0"/><path d="m120.234375 281.601562h-34.902344c-4.710937 0-8.53125-3.820312-8.53125-8.53125 0-4.714843 3.820313-8.535156 8.53125-8.535156h34.902344c4.710937 0 8.53125 3.820313 8.53125 8.535156 0 4.710938-3.820313 8.53125-8.53125 8.53125zm0 0"/><path d="m291.070312 281.601562h-70.144531c-4.710937 0-8.53125-3.820312-8.53125-8.53125 0-4.714843 3.820313-8.535156 8.53125-8.535156h70.144531c4.714844 0 8.535157 3.820313 8.535157 8.535156 0 4.710938-3.820313 8.53125-8.535157 8.53125zm0 0"/><path d="m85.332031 281.601562c-2.261719.003907-4.433593-.894531-6.03125-2.5l-76.800781-76.800781c-2.257812-2.257812-3.066406-5.589843-2.089844-8.632812.972656-3.046875 3.566406-5.289063 6.71875-5.816407l51.199219-8.53125c2.578125-.429687 5.207031.34375 7.140625 2.097657l49.410156 44.886719c2.339844 2.125 3.316406 5.371093 2.539063 8.433593-.777344 3.066407-3.179688 5.453125-6.25 6.207031-3.070313.757813-6.308594-.242187-8.417969-2.597656l-45.691406-41.515625-30.765625 5.128907 65.074219 65.074218c2.4375 2.441406 3.167968 6.109375 1.847656 9.300782-1.320313 3.1875-4.429688 5.265624-7.882813 5.265624zm0 0"/><path d="m426.667969 281.601562c-3.453125 0-6.5625-2.078124-7.882813-5.265624-1.320312-3.191407-.59375-6.859376 1.847656-9.300782l65.074219-65.074218-30.765625-5.128907-46.34375 42.105469c-2.253906 2.058594-5.4375 2.757812-8.347656 1.832031-2.910156-.929687-5.105469-3.339843-5.75-6.324219-.644531-2.988281.351562-6.089843 2.621094-8.140624l49.40625-44.882813c1.9375-1.753906 4.566406-2.527344 7.144531-2.101563l51.199219 8.535157c3.152344.523437 5.746094 2.765625 6.722656 5.8125.976562 3.042969.167969 6.375-2.089844 8.636719l-76.800781 76.800781c-1.597656 1.601562-3.773437 2.5-6.035156 2.496093zm0 0"/><path d="m386.382812 265.730469c-3.320312 0-6.339843-1.929688-7.738281-4.941407-1.394531-3.015624-.917969-6.5625 1.226563-9.101562 5.972656-7.074219 11.144531-14.789062 15.417968-23.003906 19.757813-36.921875 19.015626-81.4375-1.964843-117.683594-1.269531-2.214844-1.484375-4.886719-.578125-7.277344 14.113281-37.191406 22.585937-81.003906 16.785156-86.8125-24.277344.160156-55.21875 16.730469-73.207031 33.097656-2.539063 2.304688-6.207031 2.867188-9.320313 1.433594-45.101562-20.566406-96.90625-20.566406-142.007812 0-3.113282 1.433594-6.785156.871094-9.320313-1.433594-17.988281-16.367187-48.929687-32.9375-73.277343-32.9375-5.734376 5.644532 2.738281 49.460938 16.855468 86.652344.367188.96875.554688 1.996094.554688 3.03125 0 1.519532-.390625 3.011719-1.132813 4.335938-20.96875 36.191406-21.722656 80.652344-1.992187 117.535156.136718.253906.253906.523438.371094.792969 4.191406 7.957031 9.25 15.425781 15.074218 22.273437 2.988282 3.605469 2.511719 8.941406-1.0625 11.964844-3.574218 3.019531-8.914062 2.597656-11.972656-.949219-6.800781-8-12.679688-16.746093-17.523438-26.066406-.125-.230469-.234374-.46875-.332031-.710937-21.449219-40.683594-21.191406-89.386719.691407-129.839844-6.234376-17.140625-27.246094-78.988282-13.609376-98.75 3.148438-4.667969 8.445313-7.4296878 14.078126-7.33593775 27.972656 0 60.246093 16.82812475 80.515624 33.69140575 46.742188-19.664062 99.429688-19.664062 146.167969 0 20.273438-16.863281 52.546875-33.69140575 80.515625-33.69140575 5.632813-.09765625 10.933594 2.66406275 14.078125 7.33593775 13.625 19.742187-7.328125 81.488281-13.585937 98.703125 10.84375 20.152343 16.539062 42.675781 16.578125 65.566406.019531 22.675781-5.566407 45.011719-16.269531 65.007813-4.847657 9.316406-10.714844 18.066406-17.492188 26.089843-1.621094 1.921875-4.007812 3.027344-6.523438 3.023438zm0 0"/><path d="m186.011719 323.074219c-4.488281.003906-8.214844-3.472657-8.519531-7.949219-.308594-4.480469 2.910156-8.429688 7.355468-9.039062l.75-.109376c.039063-.007812.914063-.136718.953125-.140624 12.035157-2.179688 26.78125-8.199219 26.78125-24.234376-.023437-2.292968-.277343-4.574218-.761719-6.816406-4.519531-19.890625-21.550781-34.464844-41.902343-35.847656-15.4375.851562-29.339844 9.621094-36.761719 23.183594-2.394531 3.9375-4.136719 8.234375-5.15625 12.730468-.476562 2.21875-.730469 4.480469-.75 6.75 0 16.035157 14.746094 22.054688 27.113281 24.285157 4.8125.617187 8.304688 4.886719 7.960938 9.726562-.160157 2.183594-1.203125 4.207031-2.894531 5.601563-1.6875 1.394531-3.871094 2.035156-6.046876 1.777344l-.996093-.148438c-.070313-.011719-.980469-.144531-1.050781-.160156-26.152344-4.714844-41.152344-19.683594-41.152344-41.082032.019531-3.445312.390625-6.878906 1.109375-10.25 1.390625-6.328124 3.816406-12.386718 7.175781-17.929687 10.402344-18.835937 29.941406-30.820313 51.449219-31.550781 28.425781 1.382812 52.421875 21.605468 58.597656 49.390625.734375 3.398437 1.113281 6.863281 1.132813 10.339843 0 21.398438-15 36.367188-41.152344 41.085938-.070313.011719-.980469.144531-1.050782.15625l-.996093.152344c-.394531.050781-.789063.078125-1.1875.078125zm0 0"/><path d="m356.679688 323.074219c-4.492188.003906-8.214844-3.472657-8.523438-7.949219-.304688-4.480469 2.910156-8.429688 7.359375-9.039062l.75-.109376c.039063-.007812.914063-.136718.949219-.140624 12.039062-2.179688 26.785156-8.199219 26.785156-24.234376-.023438-2.292968-.277344-4.574218-.761719-6.816406-1.019531-4.453125-2.75-8.714844-5.121093-12.621094-7.421876-13.582031-21.332032-22.367187-36.785157-23.226562-20.382812 1.394531-37.429687 16.007812-41.925781 35.941406-.472656 2.210938-.71875 4.460938-.738281 6.722656 0 16.035157 14.742187 22.054688 27.109375 24.285157 4.8125.617187 8.308594 4.886719 7.964844 9.726562-.152344 2.1875-1.199219 4.214844-2.886719 5.609375-1.691407 1.394532-3.878907 2.035156-6.054688 1.769532l-.996093-.148438c-.070313-.011719-.980469-.144531-1.050782-.160156-26.15625-4.714844-41.15625-19.683594-41.15625-41.082032.019532-3.445312.390625-6.878906 1.109375-10.25 6.15625-27.824218 30.164063-48.089843 58.625-49.480468 21.523438.738281 41.074219 12.738281 51.476563 31.597656 3.332031 5.511719 5.742187 11.527344 7.132812 17.816406.726563 3.390625 1.101563 6.847656 1.125 10.316406 0 21.398438-15 36.367188-41.15625 41.085938-.070312.011719-.976562.144531-1.046875.15625l-.996093.152344c-.394532.050781-.792969.078125-1.1875.078125zm0 0"/><path d="m170.667969 332.800781c-14.132813-.015625-25.585938-11.464843-25.601563-25.597656v-8.535156c0-4.710938 3.820313-8.53125 8.53125-8.53125 4.714844 0 8.535156 3.820312 8.535156 8.53125v8.535156c0 4.710937 3.820313 8.53125 8.535157 8.53125 4.710937 0 8.53125-3.820313 8.53125-8.53125v-8.535156c0-4.710938 3.820312-8.53125 8.535156-8.53125 4.710937 0 8.53125 3.820312 8.53125 8.53125v8.535156c-.015625 14.132813-11.46875 25.582031-25.597656 25.597656zm0 0"/><path d="m341.332031 332.800781c-14.132812-.015625-25.582031-11.464843-25.597656-25.597656v-8.535156c0-4.710938 3.820313-8.53125 8.53125-8.53125 4.714844 0 8.535156 3.820312 8.535156 8.53125v8.535156c0 4.710937 3.820313 8.53125 8.53125 8.53125 4.714844 0 8.535157-3.820313 8.535157-8.53125v-8.535156c0-4.710938 3.820312-8.53125 8.53125-8.53125 4.714843 0 8.535156 3.820312 8.535156 8.53125v8.535156c-.015625 14.132813-11.46875 25.582031-25.601563 25.597656zm0 0"/><path d="m119.464844 512.003906c-4.710938 0-8.53125-3.820312-8.53125-8.535156v-25.597656c0-4.714844 3.820312-8.535156 8.53125-8.535156 4.714844 0 8.535156 3.820312 8.535156 8.535156v25.597656c0 4.714844-3.820312 8.535156-8.535156 8.535156zm0 0"/><path d="m153.597656 512.003906c-4.710937 0-8.53125-3.820312-8.53125-8.535156v-25.597656c0-4.714844 3.820313-8.535156 8.53125-8.535156 4.714844 0 8.535156 3.820312 8.535156 8.535156v25.597656c0 4.714844-3.820312 8.535156-8.535156 8.535156zm0 0"/><path d="m187.734375 512.003906c-4.714844 0-8.535156-3.820312-8.535156-8.535156v-25.597656c0-4.714844 3.820312-8.535156 8.535156-8.535156 4.710937 0 8.53125 3.820312 8.53125 8.535156v25.597656c0 4.714844-3.820313 8.535156-8.53125 8.535156zm0 0"/><path d="m221.867188 512.003906c-4.714844 0-8.535157-3.820312-8.535157-8.535156v-25.597656c0-4.714844 3.820313-8.535156 8.535157-8.535156 4.710937 0 8.53125 3.820312 8.53125 8.535156v25.597656c0 4.714844-3.820313 8.535156-8.53125 8.535156zm0 0"/><path d="m256 512.003906c-4.714844 0-8.535156-3.820312-8.535156-8.535156v-25.597656c0-4.714844 3.820312-8.535156 8.535156-8.535156 4.710938 0 8.53125 3.820312 8.53125 8.535156v25.597656c0 4.714844-3.820312 8.535156-8.53125 8.535156zm0 0"/><path d="m290.132812 512.003906c-4.710937 0-8.535156-3.820312-8.535156-8.535156v-25.597656c0-4.714844 3.824219-8.535156 8.535156-8.535156 4.710938 0 8.535157 3.820312 8.535157 8.535156v25.597656c0 4.714844-3.824219 8.535156-8.535157 8.535156zm0 0"/><path d="m324.265625 512.003906c-4.710937 0-8.53125-3.820312-8.53125-8.535156v-25.597656c0-4.714844 3.820313-8.535156 8.53125-8.535156 4.714844 0 8.535156 3.820312 8.535156 8.535156v25.597656c0 4.714844-3.820312 8.535156-8.535156 8.535156zm0 0"/><path d="m358.398438 512.003906c-4.710938 0-8.53125-3.820312-8.53125-8.535156v-25.597656c0-4.714844 3.820312-8.535156 8.53125-8.535156 4.714843 0 8.535156 3.820312 8.535156 8.535156v25.597656c0 4.714844-3.820313 8.535156-8.535156 8.535156zm0 0"/><path d="m392.53125 512.003906c-4.710938 0-8.53125-3.820312-8.53125-8.535156v-25.597656c0-4.714844 3.820312-8.535156 8.53125-8.535156 4.714844 0 8.535156 3.820312 8.535156 8.535156v25.597656c0 4.714844-3.820312 8.535156-8.535156 8.535156zm0 0"/><path d="m213.332031 128.003906c-2.246093 0-4.402343-.882812-6-2.464844-12.757812-10.257812-28.847656-15.457031-45.199219-14.601562-4.710937 0-8.535156-3.820312-8.535156-8.535156 0-4.710938 3.824219-8.53125 8.535156-8.53125 20.859376-.90625 41.292969 6.078125 57.234376 19.566406 2.4375 2.4375 3.167968 6.109375 1.847656 9.296875-1.320313 3.1875-4.429688 5.265625-7.882813 5.269531zm0 0"/><path d="m298.679688 127.964844c-3.445313.003906-6.550782-2.066406-7.875-5.246094-1.324219-3.179688-.601563-6.84375 1.828124-9.28125 15.941407-13.488281 36.375-20.472656 57.234376-19.566406 4.710937 0 8.53125 3.820312 8.53125 8.53125 0 4.714844-3.820313 8.535156-8.53125 8.535156-16.355469-.859375-32.453126 4.339844-45.214844 14.609375-1.597656 1.554687-3.742188 2.421875-5.972656 2.417969zm0 0"/><path d="m256 187.734375c-6.1875.097656-12.144531-2.363281-16.457031-6.796875l-12.792969-13.65625c-4.832031-4.957031-6.199219-12.339844-3.46875-18.699219 3.660156-7.617187 11.484375-12.347656 19.929688-12.046875h25.574218c8.449219-.296875 16.273438 4.429688 19.929688 12.050782 2.734375 6.359374 1.367187 13.742187-3.464844 18.699218l-12.792969 13.652344c-4.316406 4.433594-10.269531 6.894531-16.457031 6.796875zm-12.789062-34.132813c-2.910157 0-4.179688 1.417969-4.285157 1.816407l13.074219 13.855469c2.386719 1.722656 5.609375 1.722656 8 0l12.792969-13.660157c.175781-.597656-1.09375-2.015625-4.007813-2.015625zm0 0"/><path d="m221.867188 221.871094c-9.132813.265625-17.972657-3.246094-24.433594-9.703125-6.457032-6.460938-9.96875-15.300781-9.699219-24.433594 0-4.710937 3.820313-8.53125 8.53125-8.53125 4.714844 0 8.535156 3.820313 8.535156 8.53125-.300781 4.613281 1.402344 9.128906 4.671875 12.398437 3.265625 3.265626 7.78125 4.96875 12.394532 4.667969 18.566406 0 25.785156-27.410156 25.855468-27.691406 1.148438-4.570313 5.785156-7.34375 10.359375-6.195313 4.570313 1.148438 7.34375 5.789063 6.195313 10.359376-.414063 1.65625-10.515625 40.597656-42.410156 40.597656zm0 0"/><path d="m290.132812 221.871094c-31.894531 0-41.996093-38.941406-42.410156-40.597656-1.148437-4.570313 1.625-9.210938 6.195313-10.359376 4.570312-1.148437 9.210937 1.625 10.359375 6.195313.066406.28125 7.289062 27.691406 25.855468 27.691406 4.609376.300781 9.128907-1.402343 12.394532-4.667969 3.269531-3.269531 4.96875-7.785156 4.671875-12.398437 0-4.710937 3.820312-8.53125 8.535156-8.53125 4.710937 0 8.53125 3.820313 8.53125 8.53125.269531 9.132813-3.242187 17.972656-9.703125 24.433594-6.460938 6.457031-15.296875 9.96875-24.429688 9.703125zm0 0"/></g></svg>