<svg height="512pt" viewBox="0 0 512 512.00249" width="512pt" xmlns="http://www.w3.org/2000/svg"><path d="m85.332031 273.070312-70.9375-70.9375c-1.128906-1.132812-1.535156-2.796874-1.046875-4.320312.488282-1.523438 1.785156-2.644531 3.363282-2.90625l38.925781-6.488281c2.589843-.433594 5.230469.351562 7.167969 2.121093l99.484374 91.0625zm0 0" fill="#a4c2f7"/><path d="m497.578125 202.15625-70.914063 70.914062-85.332031 17.066407 18.859375-17.410157 89.003906-82.175781c1.933594-1.773437 4.574219-2.558593 7.167969-2.132812l16.808594 2.816406 22.101563 3.667969c1.578124.269531 2.875 1.398437 3.359374 2.925781.484376 1.527344.078126 3.199219-1.054687 4.328125zm0 0" fill="#7facfa"/><path d="m473.171875 191.234375c-.113281.910156-.535156 1.753906-1.195313 2.390625l-70.910156 70.910156-40.875 8.191406 89.003906-82.175781c1.933594-1.773437 4.574219-2.558593 7.167969-2.132812zm0 0" fill="#a4c2f7"/><path d="m400.722656 106.753906c26.925782 47.714844 21.59375 107.09375-13.394531 149.25-.289063.417969-.601563.816406-.941406 1.191406l-24.320313 24.40625h-199.761718l-36.695313-24.40625c-.339844-.375-.652344-.773437-.9375-1.191406-6.027344-7.164062-11.238281-14.980468-15.53125-23.296875v-.085937c-21.101563-39.472656-20.292969-87.046875 2.132813-125.78125v-.085938c-5.035157-13.3125-28.246094-81.578125-15.019532-95.574218 1.558594-1.742188 3.808594-2.710938 6.144532-2.644532 23.039062 0 50.859374 12.972656 70.742187 28.246094 2.984375 2.304688 5.71875 4.609375 8.277344 6.910156 4.949219-2.300781 10.070312-4.351562 15.359375-6.226562 8.140625-2.886719 16.503906-5.113282 25.003906-6.65625 6.558594-1.347656 13.203125-2.257813 19.882812-2.730469.507813-.070313 1.019532-.101563 1.535157-.085937 4.179687-.339844 8.449219-.511719 12.800781-.511719 4.863281 0 9.640625.171875 14.335938.597656 6.679687.472656 13.320312 1.382813 19.882812 2.730469 7.808594 1.445312 15.507812 3.441406 23.039062 5.972656.683594.257812 1.28125.425781 1.960938.683594 5.292969 1.875 10.410156 3.925781 15.363281 6.226562 17.105469-15.292968 37.519531-26.421875 59.644531-32.511718 6.324219-1.679688 12.832032-2.570313 19.371094-2.644532 25.003906 0-3.242187 83.371094-8.875 98.21875zm0 0" fill="#cad9fc"/><path d="m375.125 106.753906c26.921875 47.714844 21.59375 107.09375-13.398438 149.25-.285156.417969-.597656.816406-.9375 1.191406l-24.320312 24.40625h-174.164062l-36.695313-24.40625c-.339844-.375-.652344-.773437-.9375-1.191406-6.027344-7.164062-11.238281-14.980468-15.53125-23.296875v-.085937c-21.101563-39.472656-20.292969-87.046875 2.132813-125.78125v-.085938c-5.035157-13.3125-28.246094-81.578125-15.019532-95.574218 22.09375 6.105468 42.476563 17.234374 59.5625 32.511718 4.949219-2.300781 10.070313-4.351562 15.359375-6.226562.683594-.257813 1.28125-.425782 1.964844-.683594 7.53125-2.53125 15.230469-4.527344 23.039063-5.972656 6.5625-1.347656 13.203124-2.257813 19.882812-2.730469 4.695312-.425781 9.472656-.597656 14.335938-.597656 4.351562 0 8.617187.171875 12.800781.511719.511719-.015626 1.027343.015624 1.535156.085937 6.679687.472656 13.324219 1.382813 19.882813 2.730469 8.5 1.542968 16.859374 3.769531 25.003906 6.65625 5.289062 1.875 10.410156 3.925781 15.359375 6.226562 2.558593-2.300781 5.289062-4.605468 8.277343-6.910156.683594.257812 1.28125.425781 1.960938.683594 5.292969 1.875 10.410156 3.925781 15.363281 6.226562 17.105469-15.292968 37.519531-26.421875 59.644531-32.511718 13.058594 14.253906-10.066406 82.261718-15.101562 95.574218zm0 0" fill="#e8edfc"/><path d="m426.664062 273.070312v213.332032c-.027343 9.414062-7.652343 17.039062-17.066406 17.066406h-307.199218c-9.414063-.027344-17.039063-7.652344-17.066407-17.066406v-213.332032zm0 0" fill="#cad9fc"/><path d="m401.066406 273.070312v213.332032c.3125 9.058594-6.734375 16.671875-15.789062 17.066406h-284.160156c-9.050782-.394531-16.097657-8.007812-15.785157-17.066406v-213.332032zm0 0" fill="#e8edfc"/><path d="m109.140625 26.027344c20.046875 3.828125 38.855469 12.5 54.785156 25.261718-15.824219 9.671876-29.757812 22.132813-41.132812 36.777344-7.21875-20-11.808594-40.855468-13.652344-62.039062zm0 0" fill="#cad9fc"/><path d="m402.859375 26.027344c-1.847656 21.183594-6.4375 42.039062-13.65625 62.039062-11.375-14.644531-25.308594-27.105468-41.128906-36.777344 15.925781-12.761718 34.734375-21.433593 54.785156-25.261718zm0 0" fill="#cad9fc"/><path d="m221.867188 281.601562c0 18.605469-14.253907 29.097657-34.136719 32.683594-.59375.085938-1.109375.171875-1.703125.257813-2.832032 5.917969-8.800782 9.699219-15.363282 9.726562-4.527343.023438-8.867187-1.792969-12.03125-5.035156-1.398437-1.335937-2.527343-2.929687-3.328124-4.691406-.597657-.085938-1.109376-.171875-1.707032-.257813-19.882812-3.585937-34.132812-14.078125-34.132812-32.683594.023437-2.867187.335937-5.726562.9375-8.53125 1.207031-5.394531 3.28125-10.550781 6.144531-15.277343 8.945313-16.175781 25.652344-26.550781 44.117187-27.390625 24.382813 1.449218 44.875 18.84375 50.261719 42.667968.605469 2.804688.917969 5.664063.941407 8.53125zm0 0" fill="#e8edfc"/><path d="m392.53125 281.601562c0 18.605469-14.25 29.097657-34.132812 32.683594-.597657.085938-1.109376.171875-1.707032.257813-2.828125 5.917969-8.796875 9.699219-15.359375 9.726562-4.527343.023438-8.871093-1.792969-12.03125-5.035156-.257812-.257813-.511719-.597656-.769531-.851563-1.070312-1.121093-1.9375-2.421874-2.558594-3.839843-.597656-.085938-1.109375-.171875-1.707031-.257813-19.882813-3.585937-34.132813-14.078125-34.132813-32.683594.019532-2.867187.335938-5.726562.9375-8.53125 1.203126-5.394531 3.28125-10.550781 6.144532-15.277343 6.902344-12.050781 18.03125-21.109375 31.230468-25.429688 4.171876-1.300781 8.515626-1.960937 12.886719-1.960937 24.382813 1.449218 44.871094 18.84375 50.261719 42.667968.601562 2.804688.917969 5.664063.9375 8.53125zm0 0" fill="#cad9fc"/><path d="m366.933594 281.601562c0 18.605469-14.253906 29.097657-34.132813 32.683594-.597656.085938-1.109375.171875-1.707031.257813-.671875 1.390625-1.535156 2.683593-2.5625 3.839843-1.070312-1.121093-1.9375-2.421874-2.558594-3.839843-.597656-.085938-1.109375-.171875-1.707031-.257813-19.882813-3.585937-34.132813-14.078125-34.132813-32.683594.019532-2.867187.335938-5.726562.9375-8.53125 1.203126-5.394531 3.28125-10.550781 6.144532-15.277343 6.902344-12.050781 18.03125-21.109375 31.230468-25.429688 18.75 6.109375 32.972657 21.527344 37.546876 40.707031.605468 2.804688.917968 5.664063.941406 8.53125zm0 0" fill="#e8edfc"/><path d="m279.058594 152.90625-12.8125 13.6875c-5.75 5.433594-14.746094 5.433594-20.496094 0l-12.8125-13.6875c-2.101562-2.058594-2.976562-5.066406-2.300781-7.929688 1.734375-5.371093 6.921875-8.859374 12.550781-8.441406h25.621094c5.632812-.421875 10.820312 3.066406 12.554687 8.441406.675781 2.863282-.199219 5.875-2.304687 7.929688zm0 0" fill="#a4c2f7"/><path d="m281.597656 221.871094c0 14.136718-11.460937 17.066406-25.597656 17.066406-14.140625 0-25.601562-2.929688-25.601562-17.066406 0-14.140625 11.460937-34.136719 25.601562-34.136719 14.136719 0 25.597656 19.996094 25.597656 34.136719zm0 0" fill="#a4c2f7"/><path d="m85.332031 273.070312v213.332032c-.3125 9.058594 6.734375 16.671875 15.785157 17.066406h25.601562c-9.054688-.394531-16.097656-8.007812-15.785156-17.066406v-213.332032l-70.9375-70.9375c-1.132813-1.132812-1.535156-2.796874-1.046875-4.320312s1.785156-2.644531 3.359375-2.90625l21.367187-3.5625-.878906-.804688c-1.933594-1.769531-4.578125-2.554687-7.167969-2.121093l-38.921875 6.484375c-1.578125.265625-2.875 1.386718-3.363281 2.90625-.488281 1.523437-.082031 3.191406 1.046875 4.320312zm0 0" fill="#fff"/><path d="m111.273438 106.839844c-11.394532 19.683594-17.402344 42.023437-17.40625 64.769531 0 9.0625 23.789062 75.808594 25.59375 84.394531l15.597656-22.753906c-.097656-.1875-.222656-.355469-.320313-.542969v-.085937c-21.097656-39.472656-20.292969-87.046875 2.136719-125.78125v-.085938c-5.035156-13.304687-28.210938-81.480468-15.042969-95.539062-6.34375-1.683594-12.871093-2.582032-19.433593-2.679688-2.335938-.066406-4.585938.902344-6.144532 2.644532-13.226562 13.996093 9.984375 82.261718 15.019532 95.574218zm0 0" fill="#fff"/><path d="m76.800781 486.402344v-213.332032h17.066407v213.332032zm0 0" fill="#fff"/><g fill="#428dff"><path d="m85.332031 443.734375c-4.707031.015625-8.519531 3.828125-8.53125 8.535156v34.132813h17.066407v-34.132813c-.015626-4.707031-3.828126-8.519531-8.535157-8.535156zm0 0"/><path d="m93.867188 273.070312h-17.066407v110.933594c0 4.710938 3.820313 8.53125 8.53125 8.53125 4.714844 0 8.535157-3.820312 8.535157-8.53125zm0 0"/><path d="m76.800781 418.136719c.03125 2.257812.914063 4.421875 2.472657 6.058593l1.28125 1.023438c.476562.324219.992187.582031 1.535156.769531.484375.246094 1 .417969 1.535156.511719.566406.09375 1.136719.152344 1.707031.167969 2.257813-.03125 4.421875-.914063 6.058594-2.472657 2.070313-1.996093 2.980469-4.910156 2.410156-7.726562-.570312-2.820312-2.542969-5.152344-5.226562-6.183594-1.023438-.4375-2.125-.667968-3.242188-.683594-2.269531-.023437-4.453125.871094-6.058593 2.476563-1.605469 1.605469-2.496094 3.789063-2.472657 6.058594zm0 0"/><path d="m409.597656 512.003906h-307.199218c-14.132813-.015625-25.585938-11.46875-25.597657-25.601562 0-4.710938 3.820313-8.53125 8.53125-8.53125 4.714844 0 8.535157 3.820312 8.535157 8.53125.003906 4.710937 3.820312 8.527344 8.53125 8.535156h307.199218c4.710938-.007812 8.53125-3.824219 8.535156-8.535156v-204.800782h-26.367187c-4.714844 0-8.535156-3.820312-8.535156-8.53125 0-4.714843 3.820312-8.535156 8.535156-8.535156h34.898437c4.714844 0 8.535157 3.820313 8.535157 8.535156v213.332032c-.015625 14.132812-11.46875 25.585937-25.601563 25.601562zm0 0"/><path d="m120.234375 281.601562h-34.902344c-4.710937 0-8.53125-3.820312-8.53125-8.53125 0-4.714843 3.820313-8.535156 8.53125-8.535156h34.902344c4.710937 0 8.53125 3.820313 8.53125 8.535156 0 4.710938-3.820313 8.53125-8.53125 8.53125zm0 0"/><path d="m291.070312 281.601562h-70.144531c-4.710937 0-8.53125-3.820312-8.53125-8.53125 0-4.714843 3.820313-8.535156 8.53125-8.535156h70.144531c4.714844 0 8.535157 3.820313 8.535157 8.535156 0 4.710938-3.820313 8.53125-8.535157 8.53125zm0 0"/><path d="m85.332031 281.601562c-2.261719.003907-4.433593-.894531-6.03125-2.5l-76.800781-76.800781c-2.261719-2.257812-3.066406-5.59375-2.089844-8.636719.972656-3.042968 3.570313-5.285156 6.722656-5.8125l51.199219-8.53125c2.578125-.429687 5.207031.34375 7.140625 2.097657l49.410156 44.886719c2.339844 2.128906 3.316407 5.371093 2.539063 8.4375-.777344 3.066406-3.179687 5.457031-6.253906 6.210937-3.070313.753906-6.308594-.25-8.417969-2.605469l-45.691406-41.515625-30.769532 5.128907 65.078126 65.074218c2.4375 2.441406 3.167968 6.109375 1.847656 9.300782-1.320313 3.1875-4.433594 5.265624-7.882813 5.265624zm0 0"/><path d="m426.664062 281.601562c-3.449218 0-6.558593-2.078124-7.878906-5.265624-1.320312-3.191407-.59375-6.859376 1.847656-9.300782l65.074219-65.074218-30.765625-5.128907-46.34375 42.105469c-2.253906 2.050781-5.433594 2.742188-8.339844 1.8125-2.902343-.925781-5.089843-3.335938-5.738281-6.3125-.648437-2.980469.339844-6.078125 2.597657-8.132812l49.40625-44.882813c1.9375-1.753906 4.566406-2.527344 7.140624-2.101563l51.203126 8.535157c3.152343.523437 5.746093 2.765625 6.722656 5.8125.976562 3.042969.167968 6.375-2.089844 8.636719l-76.800781 76.800781c-1.597657 1.601562-3.769531 2.5-6.035157 2.496093zm0 0"/><path d="m386.382812 265.730469c-3.320312 0-6.339843-1.929688-7.734374-4.941407-1.398438-3.011718-.917969-6.5625 1.226562-9.097656 5.972656-7.074218 11.140625-14.792968 15.40625-23.011718 9.410156-17.550782 14.328125-37.15625 14.316406-57.070313-.042968-21.277344-5.652344-42.171875-16.273437-60.605469-1.273438-2.21875-1.484375-4.890625-.574219-7.28125 14.105469-37.191406 22.582031-81.003906 16.78125-86.8125-24.273438.160156-55.214844 16.730469-73.207031 33.097656-2.539063 2.300782-6.203125 2.863282-9.316407 1.433594-45.105468-20.566406-96.914062-20.566406-142.015624 0-3.113282 1.4375-6.78125.871094-9.320313-1.433594-17.988281-16.367187-48.933594-32.9375-73.273437-32.9375-5.734376 5.648438 2.742187 49.460938 16.851562 86.652344.367188.96875.554688 1.996094.558594 3.03125 0 1.519532-.390625 3.011719-1.136719 4.335938-20.964844 36.191406-21.71875 80.652344-1.988281 117.535156.132812.253906.253906.523438.367187.792969 4.199219 7.949219 9.253907 15.417969 15.074219 22.273437 2.070312 2.316406 2.71875 5.574219 1.695312 8.507813-1.027343 2.929687-3.5625 5.074219-6.625 5.59375-3.066406.523437-6.167968-.664063-8.105468-3.09375-6.796875-8.003907-12.675782-16.742188-17.523438-26.058594-.117187-.234375-.226562-.476563-.324218-.714844-21.457032-40.683593-21.195313-89.386719.691406-129.839843-6.234375-17.132813-27.25-78.984376-13.609375-98.746094 3.144531-4.671875 8.441406-7.433594 14.074219-7.33593775 27.964843 0 60.234374 16.82812475 80.515624 33.69140575 46.738282-19.664062 99.429688-19.664062 146.167969 0 20.285157-16.863281 52.550781-33.69140575 80.515625-33.69140575 5.632813-.09765625 10.929688 2.66406275 14.074219 7.33593775 13.628906 19.742187-7.324219 81.488281-13.582031 98.703125 10.84375 20.152343 16.539062 42.675781 16.574218 65.566406.023438 22.675781-5.5625 45.011719-16.265624 65.007813-4.847657 9.316406-10.714844 18.0625-17.492188 26.085937-1.621094 1.925781-4.007812 3.035156-6.523438 3.027344zm0 0"/><path d="m119.464844 512.003906c-4.710938 0-8.53125-3.820312-8.53125-8.535156v-25.597656c0-4.714844 3.820312-8.535156 8.53125-8.535156 4.714844 0 8.535156 3.820312 8.535156 8.535156v25.597656c0 4.714844-3.820312 8.535156-8.535156 8.535156zm0 0"/><path d="m153.597656 512.003906c-4.710937 0-8.53125-3.820312-8.53125-8.535156v-25.597656c0-4.714844 3.820313-8.535156 8.53125-8.535156 4.714844 0 8.535156 3.820312 8.535156 8.535156v25.597656c0 4.714844-3.820312 8.535156-8.535156 8.535156zm0 0"/><path d="m187.730469 512.003906c-4.710938 0-8.53125-3.820312-8.53125-8.535156v-25.597656c0-4.714844 3.820312-8.535156 8.53125-8.535156 4.714843 0 8.535156 3.820312 8.535156 8.535156v25.597656c0 4.714844-3.820313 8.535156-8.535156 8.535156zm0 0"/><path d="m221.867188 512.003906c-4.714844 0-8.535157-3.820312-8.535157-8.535156v-25.597656c0-4.714844 3.820313-8.535156 8.535157-8.535156 4.710937 0 8.53125 3.820312 8.53125 8.535156v25.597656c0 4.714844-3.820313 8.535156-8.53125 8.535156zm0 0"/><path d="m256 512.003906c-4.714844 0-8.535156-3.820312-8.535156-8.535156v-25.597656c0-4.714844 3.820312-8.535156 8.535156-8.535156 4.710938 0 8.53125 3.820312 8.53125 8.535156v25.597656c0 4.714844-3.820312 8.535156-8.53125 8.535156zm0 0"/><path d="m290.132812 512.003906c-4.714843 0-8.535156-3.820312-8.535156-8.535156v-25.597656c0-4.714844 3.820313-8.535156 8.535156-8.535156 4.710938 0 8.53125 3.820312 8.53125 8.535156v25.597656c0 4.714844-3.820312 8.535156-8.53125 8.535156zm0 0"/><path d="m324.265625 512.003906c-4.714844 0-8.535156-3.820312-8.535156-8.535156v-25.597656c0-4.714844 3.820312-8.535156 8.535156-8.535156 4.710937 0 8.535156 3.820312 8.535156 8.535156v25.597656c0 4.714844-3.824219 8.535156-8.535156 8.535156zm0 0"/><path d="m358.398438 512.003906c-4.710938 0-8.53125-3.820312-8.53125-8.535156v-25.597656c0-4.714844 3.820312-8.535156 8.53125-8.535156 4.714843 0 8.535156 3.820312 8.535156 8.535156v25.597656c0 4.714844-3.820313 8.535156-8.535156 8.535156zm0 0"/><path d="m392.53125 512.003906c-4.710938 0-8.53125-3.820312-8.53125-8.535156v-25.597656c0-4.714844 3.820312-8.535156 8.53125-8.535156 4.714844 0 8.535156 3.820312 8.535156 8.535156v25.597656c0 4.714844-3.820312 8.535156-8.535156 8.535156zm0 0"/><path d="m256 179.203125c-6.1875.097656-12.144531-2.363281-16.460938-6.796875l-12.789062-13.652344c-4.832031-4.957031-6.199219-12.335937-3.46875-18.695312 3.65625-7.625 11.476562-12.355469 19.925781-12.054688h25.582031c8.449219-.300781 16.273438 4.429688 19.925782 12.054688 2.734375 6.359375 1.363281 13.742187-3.472656 18.695312l-12.777344 13.652344c-4.320313 4.433594-10.277344 6.890625-16.464844 6.796875zm-12.792969-34.132813c-2.90625 0-4.179687 1.414063-4.285156 1.816407l13.078125 13.851562c2.390625 1.726563 5.617188 1.726563 8.007812 0l12.773438-13.652343c.191406-.597657-1.082031-2.015626-3.992188-2.015626zm0 0"/><path d="m256 179.203125c-6.1875.097656-12.144531-2.363281-16.460938-6.796875l-12.789062-13.652344c-4.832031-4.957031-6.199219-12.335937-3.46875-18.695312 3.65625-7.625 11.476562-12.355469 19.925781-12.054688h25.582031c8.449219-.300781 16.273438 4.429688 19.925782 12.054688 2.734375 6.359375 1.363281 13.742187-3.472656 18.695312l-12.777344 13.652344c-4.320313 4.433594-10.277344 6.890625-16.464844 6.796875zm-12.792969-34.132813c-2.90625 0-4.179687 1.414063-4.285156 1.816407l13.078125 13.851562c2.390625 1.726563 5.617188 1.726563 8.007812 0l12.773438-13.652343c.191406-.597657-1.082031-2.015626-3.992188-2.015626zm0 0"/><path d="m186.015625 323.074219c-4.492187.007812-8.21875-3.46875-8.523437-7.949219-.308594-4.480469 2.90625-8.429688 7.355468-9.039062l1.707032-.253907c12.035156-2.175781 26.777343-8.195312 26.777343-24.230469-.023437-2.289062-.277343-4.566406-.769531-6.804687-4.511719-19.894531-21.542969-34.472656-41.898438-35.859375-15.433593.851562-29.335937 9.617188-36.757812 23.183594-2.394531 3.933594-4.132812 8.234375-5.148438 12.726562-.484374 2.21875-.738281 4.484375-.757812 6.753906 0 16.035157 14.738281 22.054688 27.113281 24.285157l.636719.089843c4.746094.632813 8.132812 4.921876 7.648438 9.683594-.238282 2.210938-1.355469 4.230469-3.097657 5.609375-1.742187 1.378907-3.964843 2-6.167969 1.726563l-.976562-.148438-1.074219-.160156c-26.148437-4.71875-41.148437-19.6875-41.148437-41.085938.019531-3.449218.394531-6.886718 1.117187-10.261718 1.386719-6.328125 3.8125-12.382813 7.171875-17.917969 10.402344-18.835937 29.9375-30.820313 51.441406-31.550781 28.429688 1.386718 52.421876 21.609375 58.601563 49.390625.730469 3.398437 1.109375 6.863281 1.132813 10.339843 0 21.398438-15 36.367188-41.148438 41.085938l-2.050781.308594c-.390625.050781-.789063.078125-1.183594.078125zm0 0"/><path d="m356.683594 323.074219c-4.492188.007812-8.21875-3.46875-8.527344-7.949219s2.910156-8.429688 7.359375-9.039062l1.707031-.253907c12.035156-2.175781 26.777344-8.195312 26.777344-24.230469-.023438-2.289062-.28125-4.566406-.769531-6.804687-1.015625-4.457031-2.738281-8.71875-5.109375-12.628906-7.421875-13.585938-21.332032-22.371094-36.789063-23.230469-20.382812 1.394531-37.425781 16.011719-41.917969 35.941406-.476562 2.207032-.730468 4.460938-.75 6.722656 0 16.035157 14.742188 22.054688 27.117188 24.285157l.632812.089843c4.75.632813 8.132813 4.921876 7.652344 9.683594-.238281 2.210938-1.355468 4.230469-3.097656 5.609375-1.742188 1.378907-3.964844 2-6.167969 1.726563l-.976562-.148438-1.074219-.160156c-26.152344-4.71875-41.152344-19.6875-41.152344-41.085938.019532-3.449218.394532-6.886718 1.117188-10.261718 6.160156-27.816406 30.164062-48.074219 58.617187-49.46875 21.523438.738281 41.074219 12.738281 51.476563 31.597656 3.335937 5.511719 5.742187 11.53125 7.132812 17.820312.726563 3.390626 1.101563 6.847657 1.125 10.3125 0 21.398438-15 36.367188-41.152344 41.085938l-2.046874.308594c-.394532.050781-.789063.078125-1.183594.078125zm0 0"/><path d="m170.664062 332.800781c-14.128906-.015625-25.582031-11.464843-25.597656-25.597656v-8.535156c0-4.710938 3.820313-8.53125 8.53125-8.53125 4.714844 0 8.535156 3.820312 8.535156 8.53125v8.535156c0 4.710937 3.820313 8.53125 8.53125 8.53125 4.714844 0 8.535157-3.820313 8.535157-8.53125v-8.535156c0-4.710938 3.820312-8.53125 8.53125-8.53125 4.714843 0 8.535156 3.820312 8.535156 8.53125v8.535156c-.015625 14.132813-11.46875 25.582031-25.601563 25.597656zm0 0"/><path d="m341.332031 332.800781c-14.132812-.015625-25.585937-11.464843-25.601562-25.597656v-8.535156c0-4.710938 3.820312-8.53125 8.535156-8.53125 4.710937 0 8.535156 3.820312 8.535156 8.53125v8.535156c0 4.710937 3.820313 8.53125 8.53125 8.53125 4.714844 0 8.535157-3.820313 8.535157-8.53125v-8.535156c0-4.710938 3.820312-8.53125 8.53125-8.53125 4.714843 0 8.535156 3.820312 8.535156 8.53125v8.535156c-.015625 14.132813-11.46875 25.582031-25.601563 25.597656zm0 0"/><path d="m170.664062 145.070312c-3.449218 0-6.558593-2.082031-7.878906-5.269531-1.320312-3.1875-.59375-6.859375 1.847656-9.296875 7.304688-7.109375 16.171876-12.417968 25.890626-15.492187-6.289063-2.648438-13.035157-4.035157-19.859376-4.074219-4.710937 0-8.53125-3.820312-8.53125-8.535156 0-4.710938 3.820313-8.53125 8.53125-8.53125 18.085938.332031 35.414063 7.292968 48.703126 19.566406 2.4375 2.4375 3.167968 6.109375 1.847656 9.296875-1.320313 3.1875-4.433594 5.265625-7.882813 5.269531-13.53125.464844-26.480469 5.613282-36.632812 14.566406-1.597657 1.601563-3.769531 2.5-6.035157 2.5zm0 0"/><path d="m341.332031 145.070312c-2.261719 0-4.433593-.898437-6.03125-2.5-10.125-9.007812-23.09375-14.164062-36.636719-14.566406-3.449218-.003906-6.558593-2.082031-7.878906-5.269531-1.320312-3.1875-.59375-6.859375 1.847656-9.296875 13.285157-12.273438 30.617188-19.234375 48.699219-19.566406 4.714844 0 8.535157 3.820312 8.535157 8.53125 0 4.714844-3.820313 8.535156-8.535157 8.535156-6.84375.03125-13.613281 1.40625-19.925781 4.050781 9.746094 3.074219 18.636719 8.386719 25.960938 15.515625 2.4375 2.4375 3.167968 6.109375 1.847656 9.296875-1.320313 3.1875-4.433594 5.269531-7.882813 5.269531zm0 0"/><path d="m256 196.269531c-4.714844 0-8.535156-3.820312-8.535156-8.535156v-17.066406c0-4.710938 3.820312-8.53125 8.535156-8.53125 4.710938 0 8.53125 3.820312 8.53125 8.53125v17.066406c0 4.714844-3.820312 8.535156-8.53125 8.535156zm0 0"/><path d="m256 247.46875c-22.652344 0-34.132812-8.613281-34.132812-25.597656 0-16.988282 13.613281-42.667969 34.132812-42.667969 20.515625 0 34.132812 25.679687 34.132812 42.667969 0 16.984375-11.484374 25.597656-34.132812 25.597656zm0-51.199219c-8.242188 0-17.066406 15.023438-17.066406 25.601563 0 4 0 8.53125 17.066406 8.53125s17.066406-4.53125 17.066406-8.53125c0-10.578125-8.824218-25.601563-17.066406-25.601563zm0 0"/></g></svg>