<svg height="511pt" viewBox="-25 0 511 511.92295" width="511pt" xmlns="http://www.w3.org/2000/svg"><path d="m362.617188 183.886719-15.53125 18.261719-29.949219 35.328124-183.46875-.425781-34.558594-53.164062c5.949219-9.738281 13.34375-18.511719 21.929687-26.027344 26.007813-21.890625 58.257813-35.03125 92.160157-37.546875 1.621093-.167969 3.328125-.339844 5.035156-.425781 4.179687-.253907 8.363281-.425781 12.628906-.425781 14.894531-.015626 29.734375 1.757812 44.203125 5.289062 14.203125 3.40625 27.890625 8.6875 40.703125 15.703125 19.152344 10.121094 35.308594 25.101563 46.847657 43.433594zm0 0" fill="#cad9fc"/><path d="m133.667969 237.21875v-.167969l-34.558594-53.164062c5.949219-9.738281 13.34375-18.511719 21.929687-26.027344 26.007813-21.890625 58.257813-35.03125 92.160157-37.546875 1.621093-.167969 3.328125-.339844 5.035156-.425781 10.53125.71875 20.980469 2.347656 31.230469 4.863281 14.203125 3.40625 27.894531 8.6875 40.703125 15.703125 19.15625 10.121094 35.308593 25.101563 46.847656 43.433594l10.070313 18.261719 20.308593 36.777343zm0 0" fill="#e8edfc"/><path d="m427.128906 375.460938c.207032 17.6875-4.109375 35.136718-12.542968 50.6875l-82.003907 62.121093c-32.863281 10.527344-67.214843 15.65625-101.71875 15.191407-4.351562 0-8.621093-.085938-12.886719-.257813-23.859374-.59375-47.578124-3.800781-70.742187-9.554687-4.519531-1.195313-9.042969-2.476563-13.308594-3.839844-1.621093-.511719-3.246093-1.027344-4.78125-1.539063l-82.003906-62.121093c-4.433594-8.03125-7.707031-16.652344-9.726563-25.601563-1.910156-8.222656-2.855468-16.644531-2.816406-25.085937 0-3.328126.167969-6.742188.425782-10.070313 2.527343-25.761719 11.191406-50.546875 25.257812-72.277344-13.398438-40.960937-25.429688-104.105469-8.875-119.039062 2.351562-2.273438 5.519531-3.503907 8.789062-3.414063 19.710938 0 53.761719 20.480469 78.933594 37.632813 3.328125 2.304687 6.570313 4.523437 9.558594 6.65625 21.746094-10.367188 45.253906-16.53125 69.289062-18.175781 4.265626-.34375 8.535157-.511719 12.886719-.511719 3.5 0 6.996094.085937 10.496094.339843 19.113281 1.0625 37.957031 5.003907 55.894531 11.691407 5.460938 2.046875 10.75 4.265625 15.957032 6.742187 7.847656-5.546875 17.152343-11.949218 26.878906-18.09375 14.097656-9.234375 29.144531-16.929687 44.886718-22.953125 5.398438-1.964843 11.066407-3.085937 16.808594-3.328125 28.757813 0 15.105469 76.117188-.171875 122.792969 15.957031 24.4375 24.792969 52.832031 25.515625 82.007813zm0 0" fill="#cad9fc"/><path d="m401.53125 375.460938c.207031 17.6875-4.113281 35.136718-12.546875 50.6875l-82.003906 62.121093c-28.78125 9.292969-58.765625 14.324219-89.003907 14.933594-23.859374-.59375-47.578124-3.800781-70.742187-9.554687-4.519531-1.195313-9.042969-2.476563-13.308594-3.839844-1.621093-.511719-3.246093-1.027344-4.78125-1.539063l-82.003906-62.121093c-4.433594-8.03125-7.707031-16.652344-9.726563-25.601563-1.910156-8.222656-2.855468-16.644531-2.816406-25.085937 0-3.328126.167969-6.742188.425782-10.070313 2.527343-25.761719 11.191406-50.546875 25.257812-72.277344-13.398438-40.960937-25.429688-104.105469-8.875-119.039062 25.519531 10.554687 49.601562 24.289062 71.679688 40.875 5.207031-2.476563 10.582031-4.695313 16.042968-6.65625 21.152344-7.921875 43.546875-11.996094 66.132813-12.03125 3.5 0 7 .085937 10.496093.339843.742188.015626 1.484376.070313 2.21875.171876 24.152344 1.671874 47.769532 7.867187 69.632813 18.261718 2.988281-2.136718 6.230469-4.351562 9.644531-6.742187 5.460938 2.046875 10.75 4.265625 15.957032 6.742187 7.847656-5.546875 17.152343-11.949218 26.878906-18.09375 14.097656-9.234375 29.144531-16.929687 44.886718-22.953125 16.554688 15.105469 4.4375 78.59375-8.960937 119.464844 15.953125 24.4375 24.789063 52.832031 25.515625 82.007813zm0 0" fill="#e8edfc"/><path d="m147.152344 450.210938c.035156 14.289062-4.609375 28.199218-13.226563 39.597656-1.621093-.511719-3.246093-1.027344-4.78125-1.539063l-82.003906-62.121093c-4.433594-8.03125-7.707031-16.652344-9.726563-25.601563 11.964844-10.699219 27.464844-16.59375 43.519532-16.554687 36.554687.035156 66.183594 29.664062 66.21875 66.21875zm0 0" fill="#a4c2f7"/><path d="m213.796875 127.992188c.007813 22.230468-14.335937 41.925781-35.496094 48.738281-21.160156 6.8125-44.296875-.8125-57.261719-18.871094 26.007813-21.890625 58.257813-35.03125 92.160157-37.546875.417969 2.539062.617187 5.109375.597656 7.679688zm0 0" fill="#a4c2f7"/><path d="m316.195312 145.058594c.019532 12.019531-8.320312 22.433594-20.054687 25.035156-11.730469 2.605469-23.695313-3.304688-28.757813-14.199219-5.066406-10.898437-1.871093-23.851562 7.683594-31.144531 14.203125 3.40625 27.890625 8.6875 40.703125 15.703125.269531 1.519531.410157 3.0625.425781 4.605469zm0 0" fill="#a4c2f7"/><path d="m252.792969 120.742188c.484375-13.410157-.894531-26.820313-4.09375-39.851563-2.769531-12.941406 2.140625-26.320313 12.628906-34.390625 14.589844-9.8125 34.300781 1.535156 44.796875 9.214844 7.613281 5.5625 18.292969 3.902344 23.851562-3.710938 5.5625-7.609375 3.898438-18.289062-3.710937-23.851562-42.667969-31.230469-72.875-17.40625-83.96875-10.066406-22.421875 16.019531-32.96875 43.984374-26.707031 70.824218 2.488281 10.128906 3.550781 20.554688 3.15625 30.976563zm0 0" fill="#a4c2f7"/><path d="m136.996094 469.328125c0-23.566406-26.742188-51.199219-59.734375-51.199219-32.988281 0-59.730469 27.632813-59.730469 51.199219 0 23.5625 26.742188 34.132813 59.730469 34.132813 32.992187 0 59.734375-10.570313 59.734375-34.132813zm0 0" fill="#e8edfc"/><path d="m444.195312 469.328125c0 23.550781-26.707031 34.132813-59.734374 34.132813-4.273438.019531-8.542969-.179688-12.796876-.597657-26.882812-2.476562-46.933593-13.140625-46.933593-33.535156s20.050781-43.863281 46.933593-49.835937c4.207032-.894532 8.496094-1.351563 12.796876-1.363282 33.027343 0 59.734374 27.644532 59.734374 51.199219zm0 0" fill="#cad9fc"/><path d="m418.597656 469.328125c0 20.394531-20.054687 31.058594-46.933594 33.535156-26.882812-2.476562-46.933593-13.140625-46.933593-33.535156s20.050781-43.863281 46.933593-49.835937c26.878907 5.972656 46.933594 29.441406 46.933594 49.835937zm0 0" fill="#e8edfc"/><path d="m350.328125 230.394531c0 32.988281-26.742187 59.734375-59.730469 59.734375-32.992187 0-59.734375-26.746094-59.734375-59.734375-.042969-12.074219 3.621094-23.867187 10.496094-33.792969 24.921875 1.410157 49.328125 7.671876 71.851563 18.433594 7.847656-5.546875 17.152343-11.949218 26.878906-18.09375 6.71875 9.859375 10.289062 21.523438 10.238281 33.453125zm0 0" fill="#a4c2f7"/><path d="m389.242188 275.792969c-16.300782-20.789063-36.363282-38.328125-59.136719-51.714844 6.910156-4.777344 13.226562-8.960937 19.113281-12.714844 30.039062-18.6875 44.460938-22.78125 50.519531-23.464843 4.011719 9.726562 1.875 45.140624-10.496093 87.894531zm0 0" fill="#cad9fc"/><path d="m131.707031 223.992188c-22.726562 13.347656-42.753906 30.828124-59.050781 51.542968-12.289062-42.667968-14.507812-77.910156-10.414062-87.636718 7 .765624 26.285156 6.230468 69.464843 36.09375zm0 0" fill="#cad9fc"/><path d="m256.460938 195.246094 39.753906-16.355469c17.019531-7.003906 37.046875 3.179687 37.046875 18.84375v37.164063c0 15.660156-20.027344 25.847656-37.046875 18.84375l-39.753906-16.359376h-51.199219l-39.75 16.359376c-17.023438 7.003906-37.050781-3.183594-37.050781-18.84375v-37.164063c0-15.664063 20.027343-25.847656 37.050781-18.84375l39.75 16.355469zm0 0" fill="#a4c2f7"/><path d="m213.796875 184.710938h34.132813c4.710937 0 8.53125 3.820312 8.53125 8.535156v46.140625c0 4.710937-3.820313 8.53125-8.53125 8.53125h-34.132813c-4.714844 0-8.535156-3.820313-8.535156-8.53125v-46.140625c0-4.714844 3.820312-8.535156 8.535156-8.535156zm0 0" fill="#e8edfc"/><path d="m253.921875 340.632812-12.8125 13.683594c-5.75 5.4375-14.746094 5.4375-20.496094 0l-12.808593-13.683594c-2.105469-2.058593-2.980469-5.066406-2.304688-7.929687 1.734375-5.375 6.921875-8.863281 12.550781-8.441406h25.625c5.628907-.421875 10.816407 3.066406 12.550781 8.441406.675782 2.863281-.199218 5.871094-2.304687 7.929687zm0 0" fill="#a4c2f7"/><path d="m264.996094 426.566406c0 18.851563-15.28125 34.132813-34.132813 34.132813-18.851562 0-34.132812-15.28125-34.132812-34.132813 0-18.851562 15.28125-34.132812 34.132812-34.132812 18.851563 0 34.132813 15.28125 34.132813 34.132812zm0 0" fill="#a4c2f7"/><path d="m119.394531 192.234375c5.945313-9.730469 13.335938-18.496094 21.917969-26.003906 15.460938-13.34375 33.476562-23.402344 52.949219-29.5625 4.09375-1.332031 8.285156-2.523438 12.570312-3.570313 8.757813-2.132812 17.660157-3.609375 26.636719-4.417968 1.621094-.167969 3.328125-.339844 5.035156-.425782.171875-.011718.34375-.007812.511719-.015625.394531-10.417969-.667969-20.839843-3.15625-30.960937-6.261719-26.839844 4.285156-54.804688 26.710937-70.824219 5.941407-3.882813 12.550782-6.628906 19.492188-8.105469-15.511719-3.390625-31.734375-.472656-45.09375 8.109375-22.421875 16.019531-32.96875 43.984375-26.707031 70.824219 2.488281 10.125 3.550781 20.542969 3.15625 30.960938-.171875.007812-.34375.003906-.511719.015624-1.707031.085938-3.414062.257813-5.035156.429688-8.976563.808594-17.882813 2.28125-26.640625 4.414062-4.28125 1.042969-8.46875 2.234376-12.570313 3.570313-19.472656 6.160156-37.488281 16.21875-52.949218 29.5625-5.851563 5.171875-11.164063 10.925781-15.855469 17.167969 6.691406 2.527344 13.21875 5.476562 19.539062 8.832031zm0 0" fill="#fff"/><path d="m17.53125 469.328125c0 23.5625 26.742188 34.132813 59.730469 34.132813 4.398437 0 8.671875-.203126 12.800781-.585938-26.832031-2.476562-46.933594-13.125-46.933594-33.546875 1.824219-18.519531 13.019532-34.808594 29.660156-43.144531l-.050781-.035156c-2.1875-3.980469-4.101562-8.109376-5.726562-12.351563-1.652344-4.3125-2.988281-8.742187-4-13.25-1.910157-8.222656-2.855469-16.644531-2.816407-25.085937 0-3.328126.171876-6.742188.425782-10.070313 2.53125-25.761719 11.191406-50.546875 25.261718-72.277344-13.398437-40.960937-25.429687-104.105469-8.875-119.039062l.03125-.019531c-5.398437-2.019532-11.085937-3.164063-16.84375-3.394532-3.269531-.089844-6.4375 1.140625-8.789062 3.414063-16.554688 14.933593-4.523438 78.078125 8.875 119.039062-14.066406 21.730469-22.730469 46.515625-25.257812 72.277344-.257813 3.328125-.425782 6.742187-.425782 10.070313-.039062 8.441406.90625 16.863281 2.816406 25.085937 1.007813 4.507813 2.347657 8.9375 4 13.25 1.625 4.242187 3.539063 8.371094 5.726563 12.351563l.046875.035156c-16.636719 8.335937-27.835938 24.625-29.65625 43.144531zm0 0" fill="#fff"/><path d="m247.929688 256.453125h-34.132813c-9.421875-.011719-17.058594-7.644531-17.066406-17.066406v-46.144531c.007812-9.421876 7.644531-17.054688 17.066406-17.066407h34.132813c9.421874.011719 17.058593 7.644531 17.066406 17.066407v46.144531c-.007813 9.421875-7.644532 17.054687-17.066406 17.066406zm-34.132813-63.210937v46.144531h34.144531l-.011718-46.144531zm0 0" fill="#428dff"/><path d="m154.035156 264.527344c-7.4375.035156-14.71875-2.132813-20.925781-6.230469-8.070313-5.066406-13.03125-13.871094-13.179687-23.398437v-37.164063c.148437-9.527344 5.105468-18.335937 13.179687-23.40625 10.609375-6.910156 23.941406-8.15625 35.648437-3.332031l39.746094 16.359375c2.820313 1.160156 4.808594 3.734375 5.214844 6.757812.40625 3.023438-.832031 6.03125-3.246094 7.894531-2.414062 1.863282-5.640625 2.292969-8.460937 1.132813l-39.75-16.355469c-6.445313-2.648437-13.777344-2.003906-19.660157 1.726563-3.28125 1.957031-5.382812 5.410156-5.605468 9.222656v37.164063c.222656 3.8125 2.324218 7.269531 5.609375 9.222656 5.886719 3.726562 13.214843 4.371094 19.660156 1.730468l39.75-16.359374c4.359375-1.792969 9.347656.289062 11.140625 4.648437s-.289062 9.347656-4.648438 11.140625l-39.75 16.355469c-4.671874 1.914062-9.675781 2.894531-14.722656 2.890625zm0 0" fill="#428dff"/><path d="m307.691406 264.527344c-5.050781.003906-10.050781-.976563-14.726562-2.890625l-39.746094-16.359375c-4.359375-1.792969-6.4375-6.78125-4.644531-11.140625s6.777343-6.4375 11.136719-4.648438l39.75 16.359375c6.449218 2.640625 13.773437 1.996094 19.664062-1.726562 3.28125-1.957032 5.378906-5.410156 5.605469-9.222656v-37.164063c-.222657-3.8125-2.324219-7.269531-5.609375-9.222656-5.886719-3.726563-13.214844-4.371094-19.664063-1.730469l-39.75 16.359375c-4.359375 1.792969-9.347656-.289063-11.140625-4.648437-1.792968-4.359376.289063-9.347657 4.648438-11.140626l39.75-16.351562c11.710937-4.816406 25.039062-3.570312 35.652344 3.335938 8.070312 5.066406 13.03125 13.871093 13.179687 23.398437v37.164063c-.148437 9.527343-5.109375 18.335937-13.179687 23.402343-6.207032 4.09375-13.488282 6.261719-20.925782 6.226563zm0 0" fill="#428dff"/><path d="m230.863281 511.898438c-35.4375.433593-70.710937-4.847657-104.464843-15.640626-4.460938-1.519531-6.847657-6.367187-5.328126-10.828124 1.515626-4.460938 6.363282-6.847657 10.824219-5.332032 31.984375 10.195313 65.402344 15.167969 98.96875 14.734375 33.566407.433594 66.984375-4.539062 98.964844-14.734375 2.886719-.980468 6.078125-.347656 8.371094 1.660156 2.292969 2.007813 3.34375 5.089844 2.75 8.078126-.59375 2.992187-2.738281 5.4375-5.625 6.421874-33.753907 10.792969-69.027344 16.074219-104.460938 15.640626zm0 0" fill="#428dff"/><path d="m414.574219 434.597656c-3.015625-.003906-5.804688-1.597656-7.335938-4.191406-1.535156-2.597656-1.585937-5.808594-.132812-8.453125 7.726562-14.296875 11.683593-30.328125 11.492187-46.578125-.6875-27.582031-9.074218-54.421875-24.222656-77.484375-1.339844-2.144531-1.65625-4.773437-.871094-7.179687 15.714844-48.015626 21.207032-97.132813 12.246094-109.488282-.824219-1.390625-2.351562-2.203125-3.964844-2.113281-12.464844 1.578125-24.453125 5.777344-35.179687 12.316406-8.792969 4.589844-18.429688 10.308594-28.671875 17.007813-3.945313 2.582031-9.234375 1.472656-11.8125-2.46875-2.582032-3.945313-1.472656-9.234375 2.46875-11.816406 10.707031-7.003907 20.828125-13.003907 30.078125-17.832032 13.101562-7.972656 27.847656-12.851562 43.117187-14.273437 7.085938-.105469 13.757813 3.328125 17.789063 9.15625 18.957031 26.15625-3.035157 102.8125-8.652344 121.03125 15.59375 24.976562 24.140625 53.707031 24.742187 83.144531.199219 19.125-4.480468 37.984375-13.601562 54.796875-1.5 2.730469-4.371094 4.429687-7.488281 4.425781zm0 0" fill="#428dff"/><path d="m47.148438 434.597656c-3.113282.003906-5.984376-1.695312-7.484376-4.425781-9.121093-16.8125-13.804687-35.671875-13.601562-54.796875.613281-29.570312 9.21875-58.417969 24.910156-83.492188-5.597656-18.195312-27.480468-94.644531-8.597656-120.671874 4.039062-5.839844 10.722656-9.277344 17.820312-9.167969 15.207032 1.363281 29.890626 6.230469 42.90625 14.214843 9.507813 4.964844 19.910157 11.101563 30.035157 17.722657 3.945312 2.578125 5.050781 7.867187 2.472656 11.8125-2.582031 3.941406-7.871094 5.050781-11.8125 2.46875-9.664063-6.324219-19.566406-12.164063-28.632813-16.894531-10.578124-6.683594-22.535156-10.878907-34.96875-12.257813-1.625-.09375-3.164062.722656-4.003906 2.121094-8.917968 12.289062-3.441406 61.25 12.203125 109.140625.785157 2.40625.460938 5.035156-.878906 7.179687-15.238281 23.152344-23.6875 50.113281-24.386719 77.824219-.191406 16.25 3.761719 32.28125 11.492188 46.578125 1.453125 2.644531 1.402344 5.855469-.132813 8.453125-1.535156 2.59375-4.324219 4.1875-7.339843 4.191406zm0 0" fill="#428dff"/><path d="m230.863281 127.898438c-35.386719-.515626-69.972656 10.574218-98.457031 31.574218-10.28125 7.976563-19.078125 17.699219-25.992188 28.722656l-14.613281-8.8125c7.984375-12.804687 18.171875-24.097656 30.089844-33.351562 31.484375-23.359375 69.773437-35.726562 108.972656-35.199219zm0 0" fill="#fff"/><g fill="#428dff"><path d="m188.554688 124.164062c1.019531 4.492188 5.351562 7.421876 9.898437 6.695313 10.699219-1.898437 21.542969-2.890625 32.410156-2.960937v-17.066407c-11.898437.074219-23.769531 1.15625-35.484375 3.242188-2.273437.378906-4.289062 1.671875-5.578125 3.582031-1.289062 1.90625-1.738281 4.261719-1.246093 6.507812zm0 0"/><path d="m91.800781 179.386719 14.613281 8.8125c6.914063-11.023438 15.710938-20.746094 25.992188-28.722657 2.066406-1.671874 4.316406-3.132812 6.460938-4.714843 3.695312-2.671875 4.722656-7.738281 2.355468-11.640625-1.21875-1.976563-3.203125-3.359375-5.476562-3.820313-2.277344-.460937-4.640625.039063-6.535156 1.386719-2.4375 1.785156-4.960938 3.445312-7.320313 5.34375-11.917969 9.257812-22.105469 20.546875-30.089844 33.355469zm0 0"/><path d="m167.304688 139.761719c2.007812-.851563 3.625-2.425781 4.527343-4.410157l.519531-1.511718c.144532-.550782.214844-1.117188.214844-1.683594.070313-.535156.066406-1.078125-.019531-1.609375-.089844-.566406-.21875-1.121094-.386719-1.667969-.761718-2.15625-2.332031-3.933594-4.382812-4.949218-1.058594-.4375-2.199219-.65625-3.347656-.636719-3.585938-.058594-6.855469 2.03125-8.308594 5.308593-.398438 1.066407-.574219 2.199219-.527344 3.335938.019531 1.121094.265625 2.222656.71875 3.242188 1.878906 4.191406 6.695312 6.195312 10.992188 4.582031zm0 0"/><path d="m362.625 192.328125c-2.988281.003906-5.761719-1.554687-7.308594-4.113281-22.179687-36.640625-71.027344-60.316406-124.453125-60.316406-4.714843 0-8.535156-3.820313-8.535156-8.535157 0-4.710937 3.820313-8.53125 8.535156-8.53125 59.265625 0 113.847657 26.902344 139.054688 68.539063 1.59375 2.636718 1.648437 5.925781.136719 8.609375-1.511719 2.683593-4.351563 4.34375-7.429688 4.347656zm0 0"/><path d="m252.792969 129.179688-.332031-.003907c-4.710938-.183593-8.375-4.148437-8.191407-8.855469.457031-12.621093-.839843-25.242187-3.859375-37.5-3.609375-16.425781 2.71875-33.441406 16.183594-43.515624 14-9.414063 33.386719-6.058594 54.570312 9.429687 3.839844 2.757813 9.1875 1.902344 11.980469-1.910156 2.738281-3.808594 1.882813-9.117188-1.914062-11.871094-36.796875-26.9375-62.292969-17.730469-74.226563-9.847656-19.476562 13.980469-28.609375 38.320312-23.132812 61.664062 2.691406 10.910157 3.835937 22.140625 3.398437 33.371094-.066406 3.085937-1.792969 5.894531-4.519531 7.34375-2.722656 1.453125-6.019531 1.320313-8.617188-.347656-2.597656-1.667969-4.09375-4.609375-3.910156-7.6875.367188-9.628907-.617187-19.257813-2.921875-28.609375-7.039062-30.304688 4.898438-61.867188 30.226563-79.929688 12.652344-8.355468 46.972656-23.996094 93.78125 10.261719 7.386718 5.398437 11.332031 14.328125 10.347656 23.421875-.980469 9.09375-6.742188 16.972656-15.109375 20.671875-8.367187 3.695313-18.070313 2.648437-25.453125-2.75-6.980469-5.109375-24.355469-16.191406-35.007812-9.03125-7.503907 6.082031-11.011719 15.828125-9.097657 25.296875 3.394531 13.796875 4.851563 27.996094 4.328125 42.195312-.175781 4.582032-3.941406 8.203126-8.523437 8.203126zm0 0"/><path d="m77.261719 511.898438c-42.109375 0-68.265625-16.351563-68.265625-42.667969 0-27.625 29.820312-59.730469 68.265625-59.730469 38.445312 0 68.269531 32.105469 68.269531 59.730469 0 26.316406-26.160156 42.667969-68.269531 42.667969zm0-85.332032c-27.574219 0-51.199219 23.464844-51.199219 42.664063 0 18.875 26.453125 25.601562 51.199219 25.601562 24.746093 0 51.199219-6.726562 51.199219-25.601562 0-19.203125-23.625-42.664063-51.199219-42.664063zm0 0"/><path d="m384.460938 511.898438c-42.105469 0-68.265626-16.351563-68.265626-42.667969 0-27.625 29.820313-59.730469 68.265626-59.730469 38.449218 0 68.269531 32.105469 68.269531 59.730469 0 26.316406-26.160157 42.667969-68.269531 42.667969zm0-85.332032c-27.574219 0-51.199219 23.464844-51.199219 42.664063 0 18.875 26.453125 25.601562 51.199219 25.601562 24.75 0 51.203124-6.726562 51.203124-25.601562 0-19.203125-23.625-42.664063-51.203124-42.664063zm0 0"/><path d="m77.261719 511.898438c-14.132813-.015626-25.582031-11.46875-25.597657-25.601563v-17.066406c0-4.710938 3.820313-8.53125 8.53125-8.53125 4.714844 0 8.535157 3.820312 8.535157 8.53125v17.066406c0 4.714844 3.820312 8.535156 8.53125 8.535156 4.714843 0 8.535156-3.820312 8.535156-8.535156v-17.066406c0-4.710938 3.820313-8.53125 8.53125-8.53125 4.714844 0 8.535156 3.820312 8.535156 8.53125v17.066406c-.015625 14.132813-11.46875 25.585937-25.601562 25.601563zm0 0"/><path d="m384.460938 511.898438c-14.128907-.015626-25.582032-11.46875-25.597657-25.601563v-17.066406c0-4.710938 3.820313-8.53125 8.53125-8.53125 4.714844 0 8.535157 3.820312 8.535157 8.53125v17.066406c0 4.714844 3.820312 8.535156 8.53125 8.535156 4.714843 0 8.535156-3.820312 8.535156-8.535156v-17.066406c0-4.710938 3.820312-8.53125 8.535156-8.53125 4.710938 0 8.53125 3.820312 8.53125 8.53125v17.066406c-.015625 14.132813-11.46875 25.585937-25.601562 25.601563zm0 0"/><path d="m102.855469 358.296875c-1.839844.003906-3.625-.59375-5.097657-1.695313-26.597656-16.507812-57.46875-24.820312-88.761718-23.902343-4.710938 0-8.535156-3.820313-8.535156-8.535157 0-4.710937 3.824218-8.53125 8.535156-8.53125 61.867187 0 97.5 26.191407 98.988281 27.304688 2.9375 2.207031 4.136719 6.042969 2.972656 9.53125-1.164062 3.484375-4.429687 5.832031-8.105469 5.828125zm0 0"/><path d="m9.003906 400.964844c-3.761718.003906-7.082031-2.457032-8.175781-6.054688-1.089844-3.601562.304687-7.492187 3.433594-9.578125 27.433593-18.292969 79.339843-18.5 81.535156-18.5 4.710937 0 8.535156 3.816407 8.535156 8.53125 0 4.710938-3.820312 8.535157-8.53125 8.535157-.488281 0-48.945312.214843-72.070312 15.632812-1.398438.9375-3.042969 1.433594-4.726563 1.433594zm0 0"/><path d="m358.878906 358.285156c-3.671875.003906-6.933594-2.339844-8.097656-5.820312-1.167969-3.480469.027344-7.320313 2.960938-9.523438 1.488281-1.117187 37.121093-27.308594 98.988281-27.308594 4.710937 0 8.53125 3.820313 8.53125 8.535157 0 4.710937-3.820313 8.53125-8.53125 8.53125-31.296875-.917969-62.167969 7.394531-88.765625 23.910156-1.472656 1.089844-3.253906 1.679687-5.085938 1.675781zm0 0"/><path d="m452.722656 400.964844c-1.683594 0-3.328125-.496094-4.726562-1.433594-23.125-15.417969-71.582032-15.632812-72.070313-15.632812-4.714843 0-8.53125-3.824219-8.53125-8.535157 0-4.714843 3.820313-8.53125 8.535157-8.53125 2.195312 0 54.101562.207031 81.53125 18.5 3.132812 2.085938 4.527343 5.976563 3.433593 9.578125-1.089843 3.597656-4.410156 6.058594-8.171875 6.054688zm0 0"/><path d="m230.863281 366.832031c-6.1875.09375-12.144531-2.363281-16.457031-6.800781l-12.792969-13.652344c-4.832031-4.960937-6.199219-12.339844-3.46875-18.699218 3.660157-7.621094 11.484375-12.351563 19.929688-12.050782h25.574219c8.449218-.300781 16.273437 4.429688 19.929687 12.050782 2.734375 6.359374 1.367187 13.738281-3.464844 18.699218l-12.792969 13.652344c-4.316406 4.433594-10.269531 6.894531-16.457031 6.800781zm-12.789062-34.132812c-2.910157 0-4.179688 1.414062-4.285157 1.816406l13.074219 13.851563c2.386719 1.722656 5.609375 1.722656 8 0l12.792969-13.65625c.175781-.597657-1.09375-2.015626-4.007812-2.015626zm0 0"/><path d="m230.863281 400.964844c-4.714843 0-8.535156-3.820313-8.535156-8.535156v-34.132813c0-4.710937 3.820313-8.53125 8.535156-8.53125 4.710938 0 8.53125 3.820313 8.53125 8.53125v34.132813c0 4.714843-3.820312 8.535156-8.53125 8.535156zm0 0"/><path d="m230.863281 400.964844c-4.714843 0-8.535156-3.820313-8.535156-8.535156v-34.132813c0-4.710937 3.820313-8.53125 8.535156-8.53125 4.710938 0 8.53125 3.820313 8.53125 8.53125v34.132813c0 4.714843-3.820312 8.535156-8.53125 8.535156zm0 0"/><path d="m299.402344 307.078125c-9.957032-.234375-19.785156-2.324219-28.976563-6.164063-4.390625-1.714843-6.5625-6.664062-4.847656-11.054687s6.664063-6.558594 11.054687-4.84375c18.027344 7.035156 31.597657 6.714844 40.328126-.960937 3.820312-3.480469 6.582031-7.964844 7.972656-12.941407 1.050781-4.550781 5.566406-7.414062 10.128906-6.417969 4.566406.992188 7.484375 5.472657 6.546875 10.046876-2.136719 8.554687-6.796875 16.265624-13.382813 22.128906-7.996093 6.878906-18.277343 10.519531-28.824218 10.207031zm0 0"/><path d="m153.746094 307.113281c-7.449219.117188-14.808594-1.636719-21.402344-5.101562-10.347656-5.878907-17.847656-15.730469-20.761719-27.269531-1-4.605469 1.925781-9.148438 6.53125-10.148438s9.148438 1.921875 10.148438 6.527344c1.859375 6.734375 6.292969 12.464844 12.347656 15.953125 8.652344 4.566406 20.757813 3.878906 35.949219-2.058594 4.390625-1.714844 9.339844.453125 11.054687 4.84375 1.714844 4.390625-.457031 9.339844-4.847656 11.054687-9.207031 3.84375-19.046875 5.945313-29.019531 6.199219zm0 0"/><path d="m230.863281 469.230469c-23.566406 0-42.667969-19.101563-42.667969-42.664063 0-23.566406 19.101563-42.667968 42.667969-42.667968 23.5625 0 42.667969 19.101562 42.667969 42.667968-.03125 23.550782-19.117188 42.636719-42.667969 42.664063zm0-68.265625c-14.140625 0-25.601562 11.460937-25.601562 25.601562 0 14.136719 11.460937 25.597656 25.601562 25.597656 14.136719 0 25.597657-11.460937 25.597657-25.597656-.015626-14.132812-11.464844-25.585937-25.597657-25.601562zm0 0"/></g></svg>