<svg height="512pt" viewBox="-13 0 512 512.05575" width="512pt" xmlns="http://www.w3.org/2000/svg"><path d="m90.734375 474.582031c-10.210937 6.058594-21.761719 9.488281-33.621094 9.984375-3.15625.003906-6.304687-.339844-9.386719-1.023437-12.792968-2.914063-23.472656-11.667969-28.84375-23.636719-13.910156-27.820312 2.644532-49.066406 14.675782-64.683594 9.046875-11.691406 17.664062-22.785156 17.664062-36.777344.007813-1.457031-.078125-2.910156-.253906-4.351562-.070312-3.800781-1.632812-7.417969-4.351562-10.070312-5.359376-3.03125-11.609376-4.089844-17.664063-2.988282-9.238281 1.839844-18.214844-4.160156-20.054687-13.394531-1.835938-9.238281 4.160156-18.21875 13.398437-20.054687 16.0625-3.144532 32.714844.5 45.996094 10.070312 7.277343 6.042969 12.472656 14.222656 14.847656 23.378906 1.515625 5.679688 2.261719 11.535156 2.21875 17.410156 0 25.683594-13.738281 43.433594-24.832031 57.683594-12.289063 15.957032-14.933594 20.90625-11.09375 28.585938 2.386718 4.78125 4.605468 5.292968 5.632812 5.464844 7.761719 1.703124 22.183594-6.402344 28.15625-11.179688 1.394532-1.15625 2.984375-2.054688 4.695313-2.644531zm0 0" fill="#cad9fc"/><path d="m426.605469 455.042969c-2.25 27.707031-25.621094 48.914062-53.417969 48.46875h-234.324219c-27.796875.445312-51.171875-20.761719-53.421875-48.46875-1.230468-24.367188 14.855469-46.238281 38.488282-52.308594 2.4375-.570313 4.519531-2.152344 5.714843-4.355469 4.625-9.230468 8.339844-18.890625 11.09375-28.839844 1.792969-6.460937 3.246094-13.015624 4.351563-19.628906.429687-2.644531.855468-5.289062 1.367187-7.765625 1.023438-5.800781 2.046875-11.175781 3.070313-16.042969h212.992187c1.023438 4.867188 2.050781 10.15625 3.074219 15.957032l.253906 1.539062c.425782 2.046875.769532 4.09375 1.109375 6.3125 2.667969 16.84375 7.878907 33.1875 15.445313 48.46875.929687 1.804688 2.519531 3.179688 4.4375 3.839844.394531.246094.828125.417969 1.28125.515625 23.679687 5.996094 39.804687 27.914063 38.484375 52.308594zm0 0" fill="#cad9fc"/><path d="m401.003906 455.042969c-2.246094 27.707031-25.621094 48.914062-53.417968 48.46875h-208.722657c-27.796875.445312-51.171875-20.761719-53.421875-48.46875-1.230468-24.367188 14.855469-46.238281 38.488282-52.308594 2.4375-.570313 4.519531-2.152344 5.714843-4.355469 4.625-9.230468 8.339844-18.890625 11.09375-28.839844 1.792969-6.460937 3.246094-13.015624 4.351563-19.628906.429687-2.644531.855468-5.289062 1.367187-7.765625 1.023438-5.800781 2.046875-11.175781 3.070313-16.042969h187.394531c1.023437 4.867188 2.046875 10.15625 3.070313 15.957032l.257812 1.539062c.425781 1.875.679688 3.839844 1.023438 5.886719 0 .171875.085937.257813.085937.425781 2.667969 16.84375 7.875 33.1875 15.445313 48.46875.929687 1.804688 2.519531 3.179688 4.4375 3.839844.390624.246094.824218.417969 1.277343.515625 5.367188 1.335937 10.46875 3.554687 15.105469 6.570313 15.457031 9.925781 24.386719 27.394531 23.378906 45.738281zm0 0" fill="#e8edfc"/><path d="m83.140625 341.035156c-8.84375 8.023438-20.242187 12.648438-32.171875 13.058594-.070312-3.800781-1.632812-7.417969-4.351562-10.070312-5.359376-3.03125-11.609376-4.089844-17.664063-2.988282-9.238281 1.839844-18.214844-4.160156-20.054687-13.394531-1.835938-9.238281 4.160156-18.21875 13.398437-20.054687 16.0625-3.144532 32.714844.5 45.996094 10.070312 7.277343 6.042969 12.472656 14.222656 14.847656 23.378906zm0 0" fill="#a4c2f7"/><path d="m219.777344 388.738281c-6.054688-1.214843-12.34375.09375-17.410156 3.625-5.066407 3.53125-8.472657 8.976563-9.433594 15.074219-3.269532 20.628906-8.488282 48.1875-13.710938 53.40625-5.597656 5.601562-14.875 7.527344-20.589844 17.835938-2.753906 5.289062-2.53125 11.632812.585938 16.71875 3.113281 5.085937 8.667969 8.164062 14.628906 8.113281h34.503906c7.976563.023437 14.898438-5.5 16.644532-13.28125 5.871094-25.5 10.199218-51.335938 12.953125-77.355469.984375-11.503906-6.847657-21.902344-18.175781-24.132812zm0 0" fill="#e8edfc"/><path d="m292.277344 388.738281c6.054687-1.214843 12.34375.09375 17.410156 3.625 5.070312 3.53125 8.476562 8.976563 9.4375 15.074219 3.265625 20.628906 8.484375 48.1875 13.699219 53.40625 5.601562 5.601562 14.878906 7.527344 20.59375 17.835938 2.75 5.289062 2.527343 11.632812-.585938 16.714843-3.113281 5.085938-8.664062 8.164063-14.625 8.117188h-34.507812c-7.976563.023437-14.894531-5.5-16.644531-13.28125-5.871094-25.5-10.195313-51.335938-12.953126-77.355469-.980468-11.503906 6.851563-21.902344 18.175782-24.132812zm0 0" fill="#e8edfc"/><path d="m477.890625 187.777344c0 65.792968-40.960937 110.421875-102.742187 133.886718-33.410157 12.105469-68.578126 18.648438-104.105469 19.371094-4.949219.257813-9.984375.34375-15.019531.34375-3.582032 0-7.167969-.085937-10.664063-.171875-53.25-1.28125-101.546875-12.457031-138.496094-33.621093-36.523437-20.820313-61.867187-51.285157-69.890625-91.390626-1.914062-9.351562-2.859375-18.875-2.816406-28.417968-.621094-32.199219 10.894531-63.453125 32.257812-87.550782-2.765624-30.941406.773438-62.117187 10.410157-91.648437 3.691406.023437 7.367187.542969 10.921875 1.535156 22.359375 5.632813 48.300781 26.199219 62.890625 38.996094 21.296875-6.625 43.238281-10.972656 65.453125-12.96875 13.265625-1.351563 26.597656-2.007813 39.933594-1.960937 22.160156-.09375 44.289062 1.730468 66.132812 5.460937 12.671875 2.160156 25.1875 5.152344 37.464844 8.957031 14.761718-12.882812 40.445312-33.023437 62.460937-38.570312 3.511719-.917969 7.125-1.40625 10.753907-1.449219 9.382812 28.734375 12.953124 59.046875 10.496093 89.171875 22.429688 23.839844 34.78125 55.421875 34.472657 88.152344.070312.621094.101562 1.25.085937 1.875zm0 0" fill="#e8edfc"/><path d="m140.226562 254.59375c.03125 22.621094-12.953124 43.242188-33.363281 52.992188-36.523437-20.820313-61.867187-51.285157-69.890625-91.390626 4.363282-5.089843 9.589844-9.367187 15.445313-12.628906 8.816406-5.109375 18.828125-7.789062 29.015625-7.765625 32.457031.03125 58.761718 26.335938 58.792968 58.792969zm0 0" fill="#a4c2f7"/><path d="m326.167969 60.714844c0 31.929687-25.882813 57.816406-57.8125 57.816406-31.929688 0-57.8125-25.886719-57.8125-57.816406-.027344-8.503906 1.867187-16.90625 5.546875-24.574219 13.265625-1.351563 26.597656-2.007813 39.933594-1.960937 22.160156-.09375 44.289062 1.730468 66.132812 5.460937 2.679688 6.699219 4.042969 13.859375 4.011719 21.074219zm0 0" fill="#a4c2f7"/><path d="m386.839844 402.21875c-2.621094 2.898438-5.742188 5.296875-9.214844 7.085938-4.636719-3.015626-9.738281-5.234376-15.105469-6.570313-.453125-.097656-.886719-.269531-1.277343-.515625-1.917969-.660156-3.507813-2.035156-4.4375-3.839844-7.570313-15.28125-12.777344-31.625-15.445313-48.46875 0-.167968-.085937-.253906-.085937-.425781 5.867187-4.058594 12.832031-6.234375 19.96875-6.230469 1.542968-.011718 3.082031.101563 4.605468.34375.425782 2.046875.769532 4.09375 1.109375 6.3125 2.667969 16.84375 7.878907 33.1875 15.445313 48.46875.929687 1.804688 2.519531 3.179688 4.4375 3.839844zm0 0" fill="#7facfa"/><path d="m377.625 409.304688c-5.03125 2.71875-10.664062 4.125-16.382812 4.09375-15.34375-.003907-28.902344-9.972657-33.476563-24.617188s.894531-30.5625 13.507813-39.296875c0 .171875.085937.257813.085937.425781 2.667969 16.84375 7.875 33.1875 15.445313 48.46875.929687 1.804688 2.519531 3.179688 4.4375 3.839844.390624.246094.824218.417969 1.277343.515625 5.367188 1.335937 10.46875 3.554687 15.105469 6.570313zm0 0" fill="#a4c2f7"/><path d="m171.628906 406.828125c-.007812 18.558594-13.449218 34.378906-31.761718 37.386719-18.3125 3.003906-36.109376-7.6875-42.050782-25.269532 6.792969-8.003906 15.925782-13.671874 26.113282-16.210937 2.4375-.570313 4.519531-2.152344 5.714843-4.355469 4.625-9.230468 8.339844-18.890625 11.09375-28.839844 17.9375 3.359376 30.925781 19.039063 30.890625 37.289063zm0 0" fill="#a4c2f7"/><path d="m134.167969 57.472656c-18.246094 7.421875-35.457031 17.175782-51.199219 29.015625-.5-19.597656 1.480469-39.179687 5.886719-58.285156 16.566406 7.285156 31.863281 17.164063 45.3125 29.269531zm0 0" fill="#cad9fc"/><path d="m290.15625 88.960938 42.070312 19.117187c19.882813 9.042969 43.265626-4.097656 43.265626-24.320313v-48.042968c-.085938-20.140625-23.382813-33.28125-43.265626-24.234375l-42.070312 19.113281h-68.265625l-42.070313-19.113281c-19.882812-9.046875-43.261718 4.09375-43.261718 24.320312v47.957031c0 20.222657 23.378906 33.363282 43.261718 24.320313l42.070313-19.117187zm0 0" fill="#cad9fc"/><path d="m230.425781 17.109375h51.199219c4.710938 0 8.53125 3.824219 8.53125 8.535156v68.265625c0 4.714844-3.820312 8.535156-8.53125 8.535156h-51.199219c-4.714843 0-8.535156-3.820312-8.535156-8.535156v-68.265625c0-4.710937 3.820313-8.535156 8.535156-8.535156zm0 0" fill="#e8edfc"/><path d="m279.042969 221.53125-12.867188 13.910156c-5.738281 5.5625-14.855469 5.5625-20.589843 0l-12.871094-13.910156c-2.199219-2.195312-3.066406-5.394531-2.285156-8.402344 1.621093-4.835937 6.109374-8.128906 11.207031-8.226562.457031-.046875.917969-.066406 1.375-.058594h25.734375c.460937-.007812.917968.011719 1.375.058594 5.089844.121094 9.566406 3.40625 11.210937 8.226562.78125 3.007813-.089843 6.207032-2.289062 8.402344zm0 0" fill="#a4c2f7"/><path d="m477.890625 187.777344c0 65.792968-40.960937 110.421875-102.742187 133.886718-33.410157 12.105469-68.578126 18.648438-104.105469 19.371094-4.949219.257813-9.984375.34375-15.019531.34375-3.582032 0-7.167969-.085937-10.664063-.171875-.855469 0-1.621094-.085937-2.476563-.085937.855469 0 1.707032 0 2.558594-.085938 35.53125-.722656 70.699219-7.265625 104.109375-19.371094 5.632813-2.132812 11.09375-4.4375 16.382813-6.996093 52.566406-24.832031 86.359375-67.070313 86.359375-126.890625.011719-.625-.015625-1.253906-.085938-1.875-.035156-5.25-.378906-10.492188-1.023437-15.703125-2.921875-27.160157-14.671875-52.609375-33.453125-72.449219 1.921875-27.980469-.933594-56.089844-8.449219-83.113281 4.121094-1.921875 8.402344-3.464844 12.800781-4.609375 3.511719-.917969 7.125-1.40625 10.753907-1.449219 9.382812 28.734375 12.953124 59.046875 10.496093 89.171875 22.429688 23.839844 34.78125 55.421875 34.472657 88.152344.070312.621094.101562 1.25.085937 1.875zm0 0" fill="#cad9fc"/><path d="m426.691406 84.609375c-15.582031-11.296875-32.488281-20.640625-50.347656-27.816406 13.238281-11.792969 28.238281-21.4375 44.460938-28.589844 4.222656 18.5 6.199218 37.4375 5.886718 56.40625zm0 0" fill="#cad9fc"/><path d="m477.890625 187.777344c0 65.792968-40.960937 110.421875-102.742187 133.886718-1.386719-.859374-2.726563-1.800781-4.007813-2.8125-35.625-26.390624-45.097656-75.664062-21.800781-113.382812 23.296875-37.714844 71.601562-51.300781 111.144531-31.257812 6.242187 3.152343 12.058594 7.082031 17.320313 11.691406.070312.621094.101562 1.25.085937 1.875zm0 0" fill="#a4c2f7"/><path d="m477.890625 187.777344c0 65.792968-40.960937 110.421875-102.742187 133.886718-1.386719-.859374-2.726563-1.800781-4.007813-2.8125-1.808594-1.300781-3.546875-2.695312-5.207031-4.183593 52.566406-24.832031 86.359375-67.070313 86.359375-126.890625.011719-.625-.015625-1.253906-.085938-1.875-.035156-5.25-.378906-10.492188-1.023437-15.703125 3.191406 1.109375 6.300781 2.449219 9.300781 4.011719 6.242187 3.152343 12.058594 7.082031 17.320313 11.691406.070312.621094.101562 1.25.085937 1.875zm0 0" fill="#7facfa"/><path d="m175.128906 326.101562h.203125c-14.898437-4.660156-29.265625-10.867187-42.871093-18.515624-36.523438-20.820313-61.867188-51.285157-69.886719-91.390626-1.917969-9.351562-2.859375-18.875-2.816407-28.417968-.625-32.199219 10.890626-63.453125 32.257813-87.550782-2.207031-28.769531.617187-57.703124 8.34375-85.503906-4.0625-1.894531-8.285156-3.4375-12.613281-4.609375-3.554688-.992187-7.230469-1.511719-10.921875-1.535156-9.636719 29.53125-13.175781 60.707031-10.410157 91.648437-21.363281 24.097657-32.878906 55.351563-32.257812 87.550782-.042969 9.542968.902344 19.066406 2.816406 28.417968 8.023438 40.105469 33.367188 70.570313 69.890625 91.390626 13.605469 7.648437 27.972657 13.855468 42.867188 18.515624h-.203125c-1.023438 4.867188 24.578125 4.867188 25.601562 0zm0 0" fill="#fff"/><path d="m28.953125 341.035156c6.054687-1.101562 12.304687-.042968 17.664063 2.988282 2.71875 2.652343 4.28125 6.269531 4.351562 10.070312.175781 1.441406.261719 2.894531.253906 4.351562 0 13.992188-8.617187 25.085938-17.664062 36.777344-12.03125 15.617188-28.585938 36.863282-14.675782 64.683594 5.371094 11.96875 16.050782 20.722656 28.84375 23.636719 3.082032.683593 6.230469 1.027343 9.386719 1.023437 4.429688-.078125 8.832031-.695312 13.113281-1.839844-11.433593-3.605468-20.792968-11.902343-25.742187-22.820312-13.910156-27.820312 2.644531-49.066406 14.675781-64.683594 9.046875-11.691406 17.664063-22.785156 17.664063-36.777344.007812-1.457031-.078125-2.910156-.253907-4.351562-.070312-3.800781-1.636718-7.417969-4.355468-10.070312-5.355469-3.03125-11.605469-4.089844-17.664063-2.988282-9.050781 1.820313-17.902343-3.914062-19.945312-12.917968-2.042969-9.003907 3.464843-17.996094 12.417969-20.261719-8.152344-1.644531-16.542969-1.734375-24.726563-.269531-9.238281 1.835937-15.234375 10.816406-13.398437 20.054687 1.839843 9.234375 10.816406 15.234375 20.054687 13.394531zm0 0" fill="#fff"/><path d="m42.691406 187.777344c.171875 17.359375 3.621094 34.527344 10.164063 50.601562 7.019531 15.863282 17.371093 30.023438 30.351562 41.527344 23.191407 20 50.816407 34.183594 80.582031 41.386719 30.101563 7.894531 61.117188 11.777343 92.234376 11.550781v17.066406c-32.636719.226563-65.160157-3.863281-96.730469-12.160156-32.371094-7.898438-62.390625-23.402344-87.570313-45.226562-14.765625-13.125-26.539062-29.269532-34.519531-47.34375-7.476563-18.222657-11.40625-37.703126-11.578125-57.402344zm0 0" fill="#fff"/><g fill="#428dff"><path d="m40.683594 229.753906c4.289062-1.382812 6.820312-5.800781 5.847656-10.199218-.902344-5.25-2.207031-10.425782-2.847656-15.722657l-.992188-16.054687h-17.066406l1.109375 18.015625c.714844 5.972656 2.152344 11.898437 3.226563 17.84375.53125 2.28125 1.988281 4.238281 4.023437 5.402343 2.035156 1.160157 4.464844 1.421876 6.699219.714844zm0 0"/><path d="m256.023438 349.910156v-17.066406c-31.117188.226562-62.132813-3.660156-92.234376-11.558594-29.765624-7.199218-57.390624-21.386718-80.582031-41.386718-1.949219-1.832032-4.117187-3.464844-5.902343-5.445313-3.160157-3.28125-8.351563-3.46875-11.746094-.429687-1.726563 1.5625-2.75 3.757812-2.835938 6.085937-.085937 2.332031.773438 4.59375 2.382813 6.28125 2.03125 2.234375 4.417969 4.078125 6.613281 6.132813 25.179688 21.824218 55.203125 37.328124 87.574219 45.226562 31.566406 8.296875 64.09375 12.386719 96.730469 12.160156zm0 0"/><path d="m58.160156 249.046875c-.988281-1.886719-2.683594-3.304687-4.714844-3.945313l-1.582031-.308593c-.570312-.070313-1.144531-.070313-1.714843.003906-.542969-.003906-1.085938.070313-1.605469.21875-.550781.160156-1.089844.355469-1.613281.582031-2.046876.996094-3.601563 2.773438-4.316407 4.929688-.3125 1.132812-.402343 2.316406-.269531 3.484375.183594 1.777343.847656 3.476562 1.921875 4.90625 1.195313 1.332031 2.765625 2.273437 4.507813 2.695312 1.125.234375 2.285156.242188 3.410156.023438 1.109375-.1875 2.164062-.59375 3.109375-1.199219 1.835937-1.253906 3.164062-3.125 3.738281-5.277344.359375-2.078125.054688-4.214844-.871094-6.113281zm0 0"/><path d="m34.15625 196.3125c-4.710938 0-8.53125-3.820312-8.53125-8.535156-.628906-33.0625 10.769531-65.226563 32.074219-90.515625-2.421875-31.058594 1.386719-62.289063 11.203125-91.855469 1.296875-3.238281 4.433594-5.3632812 7.921875-5.3632812 16.976562 0 38.832031 10.3085932 64.972656 30.6367192 3.71875 2.890624 4.390625 8.253906 1.5 11.976562-2.894531 3.71875-8.253906 4.390625-11.976563 1.496094-14.070312-12.226563-30.632812-21.25-48.539062-26.441406-7.269531 26.683593-9.921875 54.414062-7.847656 81.988281.136718 2.261719-.628906 4.488281-2.128906 6.183593-19.976563 22.542969-30.730469 51.78125-30.113282 81.894532 0 2.261718-.898437 4.433594-2.5 6.035156-1.601562 1.601562-3.769531 2.5-6.035156 2.5zm0 0"/><path d="m256.023438 349.910156c-4.710938 0-8.53125-3.820312-8.53125-8.53125 0-4.714844 3.820312-8.535156 8.53125-8.535156 98.414062 0 213.335937-37.992188 213.335937-145.066406.675781-31.203125-10.90625-61.433594-32.257813-84.199219-1.582031-1.699219-2.410156-3.964844-2.289062-6.285156 1.804688-26.785157-.882812-53.683594-7.945312-79.585938-17.011719 4.777344-32.769532 13.230469-46.15625 24.761719-3.726563 2.855469-9.066407 2.164062-11.941407-1.554688-2.871093-3.714843-2.203125-9.054687 1.5-11.945312 17.054688-13.195312 41.753907-28.9257812 62.566407-28.9257812 3.488281 0 6.625 2.1250002 7.925781 5.3632812 9.539062 28.71875 13.363281 59.027344 11.261719 89.21875 22.804687 25.601562 35.09375 58.875 34.402343 93.152344 0 98.492187-90.4375 162.132812-230.402343 162.132812zm0 0"/><path d="m373.1875 512.042969h-234.324219c-32.398437.613281-59.613281-24.230469-61.941406-56.550781-1.519531-28.464844 17.296875-54.027344 44.921875-61.035157 7.332031-14.4375 12.335938-29.941406 14.828125-45.9375 1.46875-9.070312 3.027344-17.046875 4.503906-24.152343 1.023438-4.542969 5.496094-7.425782 10.058594-6.480469 4.558594.949219 7.515625 5.375 6.648437 9.949219-1.425781 6.886718-2.941406 14.617187-4.367187 23.4375-2.808594 17.703124-8.289063 34.882812-16.25 50.945312-2.265625 4.359375-6.296875 7.542969-11.066406 8.734375-19.792969 4.960937-33.304688 23.242187-32.238281 43.621094 2.109374 23.132812 21.675781 40.738281 44.902343 40.402343h234.324219c23.21875.339844 42.785156-17.257812 44.894531-40.386718 1.101563-20.316406-12.324219-38.574219-32.046875-43.578125-4.847656-1.179688-8.953125-4.386719-11.261718-8.8125-7.949219-16.046875-13.425782-33.207031-16.234376-50.894531-1.429687-8.847657-2.945312-16.578126-4.371093-23.464844-.867188-4.574219 2.089843-9 6.652343-9.949219 4.558594-.945313 9.035157 1.9375 10.058594 6.480469 1.472656 7.105468 3.03125 15.085937 4.507813 24.179687 2.527343 15.984375 7.464843 31.492188 14.640625 45.996094 27.714844 6.863281 46.644531 32.449219 45.101562 60.960937-2.335937 32.316407-29.546875 57.152344-61.941406 56.535157zm0 0"/><path d="m208.355469 512.042969h-34.507813c-9.167968.03125-17.652344-4.835938-22.253906-12.769531-4.554688-7.570313-4.714844-17-.421875-24.722657 3.910156-6.6875 9.601563-12.152343 16.441406-15.789062 1.992188-1.113281 3.867188-2.4375 5.582031-3.949219 4.113282-5.417969 10.84375-41.558594 14.632813-71.824219.34375-3.054687 2.300781-5.691406 5.128906-6.898437 2.828125-1.207032 6.085938-.800782 8.53125 1.066406 2.441407 1.863281 3.691407 4.902344 3.273438 7.945312-3.320313 26.582032-10.273438 72.550782-19.5 81.777344-2.628907 2.472656-5.542969 4.621094-8.679688 6.402344-4.308593 2.148438-7.9375 5.449219-10.480469 9.535156-1.335937 2.445313-1.261718 5.421875.199219 7.796875 1.554688 2.699219 4.429688 4.363281 7.546875 4.363281h34.507813c3.988281.03125 7.453125-2.726562 8.320312-6.617187 7.578125-31.421875 12.183594-63.492187 13.75-95.78125 0-4.714844 3.820313-8.535156 8.53125-8.535156 4.714844 0 8.535157 3.820312 8.535157 8.535156-1.558594 33.542969-6.304688 66.863281-14.167969 99.511719-2.578125 11.707031-12.984375 20.023437-24.96875 19.953125zm0 0"/><path d="m338.199219 512.042969h-34.507813c-11.984375.066406-22.386718-8.246094-24.96875-19.949219-7.863281-32.648438-12.605468-65.96875-14.164062-99.515625 0-4.714844 3.820312-8.535156 8.53125-8.535156 4.714844 0 8.535156 3.820312 8.535156 8.535156 1.566406 32.289063 6.171875 64.363281 13.757812 95.789063.867188 3.886718 4.328126 6.640624 8.3125 6.609374h34.503907c3.117187 0 5.996093-1.664062 7.550781-4.367187 1.460938-2.371094 1.535156-5.347656.199219-7.792969-2.542969-4.085937-6.171875-7.386718-10.480469-9.535156-3.136719-1.78125-6.050781-3.933594-8.679688-6.402344-9.222656-9.226562-16.175781-55.195312-19.5-81.777344-.417968-3.042968.832032-6.082031 3.273438-7.945312 2.445312-1.867188 5.703125-2.273438 8.53125-1.066406 2.828125 1.207031 4.789062 3.839844 5.128906 6.898437 3.789063 30.269531 10.523438 66.40625 14.804688 72.011719 1.679687 1.421875 3.492187 2.683594 5.414062 3.761719 6.835938 3.632812 12.527344 9.101562 16.4375 15.785156 4.292969 7.722656 4.132813 17.152344-.421875 24.726563-4.597656 7.933593-13.085937 12.800781-22.257812 12.769531zm0 0"/><path d="m57.113281 493.101562c-3.78125 0-7.546875-.410156-11.238281-1.226562-15.285156-3.496094-28.082031-13.898438-34.625-28.148438-16.230469-32.46875 2.789062-57.144531 15.367188-73.46875 8.757812-11.320312 16.074218-20.78125 16.074218-31.8125.308594-2.679687-.191406-5.390624-1.4375-7.785156-3.402344-1.4375-7.148437-1.859375-10.789062-1.222656-6.605469 1.316406-13.46875-.070312-19.042969-3.851562-5.640625-3.757813-9.554687-9.601563-10.886719-16.246094-1.347656-6.65625.011719-13.578125 3.777344-19.230469s9.628906-9.574219 16.292969-10.890625c18.574219-3.625 37.8125.664062 53.089843 11.832031 13.777344 11.765625 21.25 29.304688 20.195313 47.394531 0 28.71875-15.390625 48.492188-26.632813 62.925782-12.101562 15.714844-11.503906 16.910156-10.191406 19.527344.195313.390624.367188.699218.511719.933593 7.433594-1.496093 14.402344-4.75 20.316406-9.496093 2.136719-1.761719 4.570313-3.125 7.1875-4.035157 4.445313-1.5625 9.320313.773438 10.882813 5.21875 1.566406 4.445313-.769532 9.316407-5.214844 10.882813-.765625.261718-1.476562.660156-2.097656 1.179687-5.339844 4.277344-23.074219 15.640625-35.417969 12.929688-5.230469-1.230469-9.511719-4.96875-11.4375-9.984375-6.691406-13.375.730469-23.015625 11.964844-37.605469 10.824219-13.902344 23.0625-29.621094 23.0625-52.476563.960937-12.941406-4.1875-25.582031-13.917969-34.167968-11.257812-7.945313-25.265625-10.960938-38.792969-8.355469-2.296875.425781-4.324219 1.757813-5.625 3.699219-1.238281 1.855468-1.679687 4.128906-1.226562 6.3125.445312 2.238281 1.765625 4.207031 3.664062 5.476562 1.851563 1.25 4.132813 1.703125 6.324219 1.261719 8.589844-1.582031 17.460938.136719 24.839844 4.804687 5.621094 5.453126 8.445312 13.175782 7.667968 20.96875 0 16.867188-9.839843 29.585938-19.359374 41.886719-12.011719 15.585938-25.328126 32.863281-13.882813 55.757813 4.222656 9.644531 12.753906 16.730468 23.007813 19.117187 12.914062 1.660157 26-1.195312 37.050781-8.078125 2.664062-1.484375 5.917969-1.4375 8.535156.128906 2.617187 1.5625 4.203125 4.402344 4.160156 7.453126-.046875 3.046874-1.714843 5.84375-4.378906 7.328124-11.484375 6.753907-24.464844 10.550782-37.777344 11.0625zm-.648437-51.339843.109375.023437zm0 0"/><path d="m256.023438 247.511719c-6.1875.09375-12.140626-2.363281-16.457032-6.800781l-12.792968-13.652344c-4.828126-4.960938-6.199219-12.339844-3.464844-18.699219 3.660156-7.621094 11.480468-12.347656 19.929687-12.046875h25.574219c8.445312-.300781 16.269531 4.429688 19.929688 12.046875 2.730468 6.363281 1.363281 13.742187-3.46875 18.703125l-12.789063 13.652344c-4.320313 4.433594-10.273437 6.890625-16.460937 6.796875zm-12.785157-34.132813c-2.914062 0-4.183593 1.414063-4.289062 1.816406l13.074219 13.851563c2.390624 1.722656 5.613281 1.722656 8 0l12.792968-13.65625c.179688-.597656-1.09375-2.015625-4.003906-2.015625zm0 0"/><path d="m203.867188 298.710938c-25.976563 0-35.476563-13.746094-38.828126-21.941407-5.578124-14.804687-3.011718-31.445312 6.765626-43.878906 3.375-3.234375 8.71875-3.152344 11.996093.179687 3.273438 3.335938 3.257813 8.679688-.035156 11.996094-4.703125 7.554688-5.777344 16.816406-2.925781 25.246094 3.078125 7.519531 10.820312 11.332031 23.027344 11.332031 41.949218 0 43.578124-30.691406 43.625-34.191406.0625-4.671875 3.859374-8.433594 8.53125-8.449219h.058593c4.683594.019532 8.472657 3.820313 8.476563 8.507813 0 .511719-.695313 51.199219-60.691406 51.199219zm0 0"/><path d="m308.183594 298.710938c-59.996094 0-60.691406-50.6875-60.691406-51.199219-.015626-4.714844 3.796874-8.542969 8.507812-8.558594 4.714844-.011719 8.546875 3.800781 8.558594 8.511719.050781 3.546875 1.710937 34.179687 43.625 34.179687 12.203125 0 19.949218-3.8125 23.023437-11.332031 2.851563-8.429688 1.777344-17.691406-2.925781-25.246094-3.292969-3.316406-3.304688-8.660156-.03125-11.996094 3.273438-3.332031 8.617188-3.414062 11.992188-.179687 9.777343 12.433594 12.34375 29.074219 6.765624 43.878906-3.347656 8.195313-12.851562 21.941407-38.824218 21.941407zm0 0"/><path d="m159.152344 187.820312c-11.34375-.152343-22.609375-1.886718-33.472656-5.152343-4.53125-1.292969-7.15625-6.019531-5.859376-10.550781 1.296876-4.53125 6.019532-7.152344 10.550782-5.855469 51.527344 14.71875 66.273437-11.644531 66.871094-12.777344 2.199218-4.132813 7.304687-5.742187 11.476562-3.613281 4.152344 2.113281 5.820312 7.179687 3.742188 11.347656-.667969 1.324219-13.867188 26.601562-53.308594 26.601562zm0 0"/><path d="m352.894531 187.820312c-39.445312 0-52.636719-25.277343-53.304687-26.605468-1.375-2.71875-1.199219-5.96875.464844-8.519532 1.667968-2.554687 4.570312-4.027343 7.613281-3.859374 3.042969.164062 5.769531 1.941406 7.148437 4.664062.71875 1.332031 15.585938 27.414062 66.863282 12.761719 4.53125-1.296875 9.253906 1.324219 10.550781 5.855469s-1.328125 9.257812-5.859375 10.550781c-10.863282 3.265625-22.132813 5-33.476563 5.152343zm0 0"/><path d="m281.625 110.976562h-51.199219c-9.421875-.007812-17.058593-7.644531-17.066406-17.066406v-68.265625c.007813-9.421875 7.644531-17.058593 17.066406-17.066406h51.199219c9.421875.007813 17.058594 7.644531 17.066406 17.066406v68.265625c-.007812 9.421875-7.644531 17.058594-17.066406 17.066406zm-51.199219-85.332031v68.265625h51.210938l-.011719-68.265625zm0 0"/><path d="m166.375 119.554688c-7.746094 0-15.328125-2.234376-21.835938-6.433594-10.222656-6.265625-16.46875-17.375-16.515624-29.363282v-47.957031c.046874-11.988281 6.292968-23.101562 16.515624-29.363281 11.621094-7.484375 26.261719-8.511719 38.816407-2.722656l42.066406 19.113281c4.292969 1.949219 6.191406 7.007813 4.242187 11.300781-1.949218 4.292969-7.007812 6.191406-11.300781 4.242188l-42.066406-19.117188c-7.289063-3.308594-15.75-2.730468-22.519531 1.539063-5.296875 3.160156-8.582032 8.835937-8.6875 15.007812v47.957031c.105468 6.167969 3.386718 11.84375 8.683594 15.011719 6.769531 4.265625 15.226562 4.847657 22.515624 1.539063l42.074219-19.117188c4.289063-1.949218 9.347657-.050781 11.296875 4.238282 1.949219 4.292968.050782 9.351562-4.238281 11.300781l-42.070313 19.117187c-5.332031 2.429688-11.117187 3.695313-16.976562 3.707032zm0 0"/><path d="m345.675781 119.546875c-5.859375-.003906-11.652343-1.265625-16.980469-3.703125l-42.070312-19.113281c-4.292969-1.949219-6.191406-7.007813-4.242188-11.300781 1.949219-4.292969 7.007813-6.191407 11.300782-4.242188l42.070312 19.113281c7.28125 3.320313 15.75 2.742188 22.515625-1.535156 5.296875-3.164063 8.582031-8.839844 8.6875-15.007813v-47.957031c-.117187-6.1875-3.421875-11.875-8.742187-15.039062-6.75-4.25-15.1875-4.820313-22.453125-1.515625l-42.074219 19.117187c-4.292969 1.949219-9.351562.050781-11.300781-4.238281-1.949219-4.292969-.050781-9.351562 4.242187-11.300781l42.070313-19.117188c12.519531-5.765625 27.117187-4.753906 38.722656 2.683594 10.226563 6.238281 16.503906 17.316406 16.601563 29.292969v48.074218c-.042969 11.984376-6.292969 23.097657-16.511719 29.359376-6.507813 4.199218-14.089844 6.433593-21.835938 6.429687zm0 0"/></g></svg>