<svg height="512pt" viewBox="-13 0 512 512.05225" width="512pt" xmlns="http://www.w3.org/2000/svg"><path d="m90.746094 474.578125c-10.207032 6.058594-21.761719 9.488281-33.621094 9.984375-3.15625.003906-6.304688-.339844-9.386719-1.023438-12.792969-2.914062-23.472656-11.667968-28.84375-23.636718-13.910156-27.820313 2.644531-49.066406 14.679688-64.683594 9.042969-11.691406 17.664062-22.78125 17.664062-36.777344.007813-1.457031-.078125-2.910156-.257812-4.351562-.070313-3.800782-1.632813-7.417969-4.351563-10.070313-5.359375-3.03125-11.609375-4.085937-17.664062-2.988281-9.238282 1.839844-18.214844-4.160156-20.054688-13.394531-1.835937-9.238281 4.160156-18.214844 13.398438-20.054688 16.066406-3.144531 32.714844.5 45.996094 10.070313 7.28125 6.042968 12.472656 14.222656 14.847656 23.378906 1.515625 5.679688 2.265625 11.535156 2.21875 17.410156 0 25.683594-13.738282 43.433594-24.832032 57.683594-12.289062 15.957031-14.933593 20.90625-11.09375 28.589844 2.390626 4.777344 4.609376 5.289062 5.632813 5.460937 7.765625 1.707031 22.183594-6.402343 28.160156-11.179687 1.390625-1.15625 2.980469-2.050782 4.691407-2.644532zm0 0" fill="#cad9fc"/><path d="m426.617188 455.039062c-2.25 27.707032-25.621094 48.914063-53.417969 48.46875h-234.324219c-27.796875.445313-51.167969-20.761718-53.417969-48.46875-1.234375-24.367187 14.855469-46.238281 38.484375-52.308593 2.4375-.570313 4.519532-2.152344 5.71875-4.355469 4.621094-9.230469 8.335938-18.890625 11.089844-28.839844 1.792969-6.460937 3.246094-13.015625 4.355469-19.628906.425781-2.644531.851562-5.289062 1.363281-7.765625 1.023438-5.800781 2.046875-11.175781 3.070312-16.042969h212.992188c1.027344 4.867188 2.050781 10.15625 3.074219 15.960938l.253906 1.535156c.429687 2.046875.769531 4.09375 1.109375 6.3125 2.671875 16.84375 7.878906 33.1875 15.445312 48.46875.933594 1.804688 2.519532 3.179688 4.4375 3.84375.394532.242188.828126.414062 1.28125.511719 23.679688 5.996093 39.808594 27.914062 38.484376 52.308593zm0 0" fill="#cad9fc"/><path d="m401.019531 455.039062c-2.25 27.707032-25.621093 48.914063-53.421875 48.46875h-208.722656c-27.796875.445313-51.167969-20.761718-53.417969-48.46875-1.234375-24.367187 14.855469-46.238281 38.484375-52.308593 2.4375-.570313 4.519532-2.152344 5.71875-4.355469 4.621094-9.230469 8.335938-18.890625 11.089844-28.839844 1.792969-6.460937 3.246094-13.015625 4.355469-19.628906.425781-2.644531.851562-5.289062 1.363281-7.765625 1.023438-5.800781 2.046875-11.175781 3.070312-16.042969h187.394532c1.023437 4.867188 2.046875 10.15625 3.070312 15.960938l.257813 1.535156c.425781 1.875.683593 3.839844 1.023437 5.886719 0 .171875.085938.257812.085938.425781 2.667968 16.84375 7.875 33.1875 15.445312 48.46875.929688 1.804688 2.519532 3.179688 4.4375 3.84375.394532.242188.824219.414062 1.277344.511719 5.367188 1.335937 10.46875 3.554687 15.105469 6.570312 15.457031 9.925781 24.386719 27.394531 23.382812 45.738281zm0 0" fill="#e8edfc"/><path d="m83.152344 341.03125c-8.84375 8.023438-20.242188 12.648438-32.171875 13.058594-.070313-3.800782-1.632813-7.417969-4.351563-10.070313-5.359375-3.03125-11.609375-4.085937-17.664062-2.988281-9.238282 1.839844-18.214844-4.160156-20.054688-13.394531-1.835937-9.238281 4.160156-18.214844 13.398438-20.054688 16.066406-3.144531 32.714844.5 45.996094 10.070313 7.28125 6.042968 12.472656 14.222656 14.847656 23.378906zm0 0" fill="#a4c2f7"/><path d="m219.789062 388.734375c-6.054687-1.214844-12.339843.097656-17.410156 3.625-5.066406 3.53125-8.472656 8.976563-9.433594 15.074219-3.265624 20.628906-8.484374 48.1875-13.707031 53.40625-5.601562 5.601562-14.878906 7.527344-20.59375 17.835937-2.753906 5.289063-2.53125 11.636719.585938 16.71875 3.113281 5.085938 8.667969 8.164063 14.628906 8.113281h34.507813c7.972656.023438 14.894531-5.5 16.640624-13.28125 5.875-25.5 10.199219-51.332031 12.953126-77.355468.984374-11.503906-6.847657-21.902344-18.175782-24.132813zm0 0" fill="#e8edfc"/><path d="m292.289062 388.734375c6.058594-1.214844 12.34375.097656 17.410157 3.625 5.070312 3.53125 8.476562 8.976563 9.4375 15.074219 3.265625 20.628906 8.484375 48.1875 13.699219 53.40625 5.601562 5.601562 14.878906 7.527344 20.59375 17.835937 2.75 5.289063 2.53125 11.632813-.585938 16.71875-3.113281 5.082031-8.664062 8.160157-14.625 8.113281h-34.507812c-7.972657.023438-14.894532-5.5-16.640626-13.28125-5.875-25.5-10.199218-51.332031-12.953124-77.355468-.984376-11.503906 6.847656-21.902344 18.175781-24.132813zm0 0" fill="#e8edfc"/><path d="m477.902344 187.773438c0 65.792968-40.957032 110.421874-102.738282 133.890624-33.414062 12.101563-68.582031 18.644532-104.109374 19.367188-4.949219.257812-9.984376.34375-15.019532.34375-3.582031 0-7.167968-.085938-10.664062-.171875-53.25-1.28125-101.546875-12.457031-138.496094-33.621094-36.523438-20.820312-61.867188-51.285156-69.890625-91.390625-1.914063-9.351562-2.859375-18.875-2.8125-28.417968-.625-32.199219 10.890625-63.453126 32.253906-87.550782-2.765625-30.941406.777344-62.117187 10.410157-91.648437 3.695312.023437 7.367187.542969 10.921874 1.535156 22.359376 5.632813 48.300782 26.199219 62.890626 39 21.296874-6.628906 43.238281-10.976563 65.453124-12.972656 13.269532-1.351563 26.597657-2.007813 39.933594-1.960938 22.164063-.09375 44.289063 1.730469 66.136719 5.460938 12.667969 2.160156 25.183594 5.152343 37.460937 8.957031 14.761719-12.882812 40.445313-33.023438 62.460938-38.570312 3.511719-.917969 7.125-1.40625 10.753906-1.449219 9.382813 28.734375 12.953125 59.046875 10.496094 89.171875 22.429688 23.839844 34.78125 55.421875 34.472656 88.152344.074219.621093.101563 1.25.085938 1.875zm0 0" fill="#e8edfc"/><path d="m477.902344 187.773438c0 65.792968-40.957032 110.421874-102.738282 133.890624-33.414062 12.101563-68.582031 18.644532-104.109374 19.367188-4.949219.257812-9.984376.34375-15.019532.34375-3.582031 0-7.167968-.085938-10.664062-.171875-.855469 0-1.621094-.085937-2.476563-.085937.855469 0 1.707031 0 2.5625-.085938 35.527344-.722656 70.695313-7.265625 104.105469-19.367188 5.632812-2.136718 11.09375-4.4375 16.382812-7 52.566407-24.832031 86.359376-67.070312 86.359376-126.890624.011718-.625-.015626-1.253907-.085938-1.875-.035156-5.25-.378906-10.492188-1.023438-15.703126-2.921874-27.160156-14.671874-52.609374-33.453124-72.449218 1.921874-27.980469-.933594-56.089844-8.445313-83.113282 4.117187-1.921874 8.402344-3.464843 12.796875-4.609374 3.511719-.917969 7.125-1.40625 10.753906-1.449219 9.382813 28.734375 12.953125 59.046875 10.496094 89.171875 22.429688 23.839844 34.78125 55.421875 34.472656 88.152344.074219.621093.101563 1.25.085938 1.875zm0 0" fill="#cad9fc"/><path d="m140.238281 254.589844c.03125 22.621094-12.949219 43.242187-33.363281 52.992187-36.523438-20.820312-61.867188-51.285156-69.890625-91.390625 4.363281-5.089844 9.59375-9.367187 15.445313-12.628906 8.816406-5.109375 18.828124-7.789062 29.015624-7.765625 32.457032.03125 58.761719 26.335937 58.792969 58.792969zm0 0" fill="#a4c2f7"/><path d="m326.179688 60.714844c0 31.925781-25.882813 57.8125-57.8125 57.8125-31.929688 0-57.8125-25.886719-57.8125-57.8125-.027344-8.507813 1.867187-16.910156 5.546874-24.578125 13.269532-1.351563 26.597657-2.007813 39.933594-1.960938 22.164063-.09375 44.289063 1.730469 66.136719 5.460938 2.679687 6.703125 4.039063 13.859375 4.007813 21.078125zm0 0" fill="#a4c2f7"/><path d="m452.304688 187.773438c0 59.820312-33.792969 102.058593-86.359376 126.890624-26.871093-23.34375-36.417968-60.921874-23.949218-94.261718s44.332031-55.429688 79.929687-55.410156c9.988281-.046876 19.90625 1.71875 29.269531 5.203124.644532 5.210938.988282 10.453126 1.023438 15.703126.070312.621093.097656 1.25.085938 1.875zm0 0" fill="#a4c2f7"/><path d="m477.902344 187.773438c0 65.792968-40.957032 110.421874-102.738282 133.890624-1.390624-.863281-2.730468-1.800781-4.011718-2.816406-1.808594-1.300781-3.546875-2.695312-5.207032-4.183594 52.566407-24.832031 86.359376-67.070312 86.359376-126.890624.011718-.625-.015626-1.253907-.085938-1.875-.035156-5.25-.378906-10.492188-1.023438-15.703126 3.191407 1.109376 6.300782 2.449219 9.300782 4.011719 6.242187 3.15625 12.0625 7.082031 17.320312 11.691407.074219.621093.101563 1.25.085938 1.875zm0 0" fill="#7facfa"/><path d="m386.851562 402.21875c-2.621093 2.894531-5.742187 5.292969-9.214843 7.082031-4.636719-3.015625-9.738281-5.234375-15.105469-6.570312-.453125-.097657-.882812-.269531-1.277344-.511719-1.917968-.664062-3.507812-2.039062-4.4375-3.84375-7.570312-15.28125-12.777344-31.625-15.445312-48.46875 0-.167969-.085938-.253906-.085938-.425781 5.867188-4.058594 12.832032-6.234375 19.96875-6.230469 1.542969-.011719 3.082032.101562 4.605469.34375.429687 2.046875.769531 4.09375 1.109375 6.3125 2.671875 16.84375 7.878906 33.1875 15.445312 48.46875.933594 1.804688 2.519532 3.179688 4.4375 3.84375zm0 0" fill="#7facfa"/><path d="m377.636719 409.300781c-5.03125 2.71875-10.664063 4.128907-16.382813 4.09375-15.34375-.003906-28.902344-9.972656-33.476562-24.617187-4.574219-14.644532.898437-30.558594 13.507812-39.296875 0 .171875.085938.257812.085938.425781 2.667968 16.84375 7.875 33.1875 15.445312 48.46875.929688 1.804688 2.519532 3.179688 4.4375 3.84375.394532.242188.824219.414062 1.277344.511719 5.367188 1.335937 10.46875 3.554687 15.105469 6.570312zm0 0" fill="#a4c2f7"/><path d="m171.640625 406.824219c-.007813 18.558593-13.449219 34.378906-31.761719 37.386719-18.3125 3.003906-36.109375-7.6875-42.050781-25.269532 6.792969-8.003906 15.925781-13.671875 26.113281-16.210937 2.4375-.570313 4.519532-2.152344 5.71875-4.355469 4.621094-9.230469 8.335938-18.890625 11.089844-28.839844 17.9375 3.359375 30.925781 19.039063 30.890625 37.289063zm0 0" fill="#a4c2f7"/><path d="m134.179688 57.46875c-18.246094 7.421875-35.453126 17.175781-51.199219 29.015625-.496094-19.597656 1.480469-39.179687 5.886719-58.285156 16.566406 7.285156 31.863281 17.164062 45.3125 29.269531zm0 0" fill="#cad9fc"/><path d="m426.703125 84.605469c-15.582031-11.296875-32.488281-20.640625-50.347656-27.816407 13.238281-11.792968 28.238281-21.4375 44.460937-28.589843 4.222656 18.5 6.199219 37.4375 5.886719 56.40625zm0 0" fill="#cad9fc"/><path d="m290.171875 88.957031 42.066406 19.117188c19.882813 9.042969 43.265625-4.097657 43.265625-24.320313v-48.042968c-.085937-20.140626-23.382812-33.28125-43.265625-24.234376l-42.066406 19.113282h-68.269531l-42.066406-19.113282c-19.882813-9.046874-43.265626 4.09375-43.265626 24.320313v47.957031c0 20.222656 23.382813 33.363282 43.265626 24.320313l42.066406-19.117188zm0 0" fill="#cad9fc"/><path d="m230.4375 17.109375h51.199219c4.714843 0 8.535156 3.820313 8.535156 8.53125v68.265625c0 4.714844-3.820313 8.535156-8.535156 8.535156h-51.199219c-4.714844 0-8.535156-3.820312-8.535156-8.535156v-68.265625c0-4.710937 3.820312-8.53125 8.535156-8.53125zm0 0" fill="#e8edfc"/><path d="m278.792969 212.691406-12.722657 13.652344c-5.6875 5.460938-14.671874 5.460938-20.355468 0l-12.726563-13.652344c-2.171875-2.148437-3.03125-5.292968-2.261719-8.25 1.621094-4.761718 6.058594-7.992187 11.085938-8.078125.449219-.046875.902344-.066406 1.355469-.054687h25.445312c.453125-.011719.90625.007812 1.359375.054687 5.019532.109375 9.441406 3.332031 11.082032 8.078125.773437 2.957032-.089844 6.101563-2.261719 8.25zm0 0" fill="#a4c2f7"/><path d="m28.964844 341.03125c6.054687-1.097656 12.304687-.042969 17.664062 2.988281 2.71875 2.652344 4.28125 6.269531 4.351563 10.070313.179687 1.441406.265625 2.894531.257812 4.351562 0 13.996094-8.621093 25.085938-17.664062 36.777344-12.035157 15.617188-28.589844 36.863281-14.679688 64.683594 5.371094 11.96875 16.050781 20.722656 28.84375 23.636718 3.082031.683594 6.230469 1.027344 9.386719 1.023438 4.429688-.078125 8.832031-.695312 13.113281-1.835938-11.433593-3.609374-20.792969-11.90625-25.742187-22.824218-13.910156-27.820313 2.644531-49.066406 14.675781-64.683594 9.046875-11.691406 17.664063-22.78125 17.664063-36.777344.007812-1.457031-.078126-2.910156-.253907-4.351562-.070312-3.800782-1.636719-7.417969-4.351562-10.070313-5.359375-3.03125-11.609375-4.085937-17.664063-2.988281-9.054687 1.820312-17.90625-3.914062-19.949218-12.917969-2.042969-9.003906 3.46875-17.996093 12.417968-20.261719-8.152344-1.644531-16.539062-1.734374-24.726562-.269531-9.238282 1.839844-15.234375 10.816407-13.398438 20.054688 1.839844 9.234375 10.816406 15.234375 20.054688 13.394531zm0 0" fill="#fff"/><path d="m175.140625 326.097656h.203125c-14.894531-4.660156-29.261719-10.867187-42.871094-18.515625-36.519531-20.820312-61.863281-51.285156-69.886718-91.390625-1.917969-9.351562-2.859376-18.875-2.816407-28.417968-.621093-32.199219 10.890625-63.453126 32.257813-87.550782-2.207032-28.769531.617187-57.703125 8.34375-85.503906-4.0625-1.894531-8.285156-3.433594-12.613282-4.609375-3.554687-.992187-7.226562-1.511719-10.921874-1.535156-9.632813 29.53125-13.175782 60.707031-10.410157 91.648437-21.363281 24.097656-32.878906 55.351563-32.253906 87.550782-.046875 9.542968.898437 19.066406 2.8125 28.417968 8.023437 40.105469 33.367187 70.570313 69.890625 91.390625 13.605469 7.648438 27.972656 13.855469 42.867188 18.515625h-.203126c-1.023437 4.867188 24.578126 4.867188 25.601563 0zm0 0" fill="#fff"/><path d="m42.703125 187.773438c.171875 17.359374 3.621094 34.527343 10.164063 50.601562 7.019531 15.863281 17.371093 30.023438 30.351562 41.527344 23.195312 20 50.816406 34.1875 80.582031 41.386718 30.101563 7.894532 61.117188 11.777344 92.234375 11.550782v17.066406c-32.636718.226562-65.160156-3.863281-96.726562-12.160156-32.375-7.898438-62.394532-23.402344-87.574219-45.226563-14.765625-13.125-26.539063-29.269531-34.519531-47.339843-7.476563-18.226563-11.40625-37.707032-11.578125-57.40625zm0 0" fill="#fff"/><g fill="#428dff"><path d="m40.695312 229.753906c4.289063-1.386718 6.820313-5.804687 5.847657-10.203125-.902344-5.25-2.207031-10.425781-2.84375-15.722656l-.996094-16.054687h-17.066406l1.109375 18.015624c.714844 5.972657 2.152344 11.898438 3.226562 17.84375.53125 2.28125 1.988282 4.238282 4.023438 5.402344 2.035156 1.160156 4.464844 1.421875 6.699218.71875zm0 0"/><path d="m256.035156 349.90625v-17.066406c-31.117187.226562-62.132812-3.660156-92.234375-11.558594-29.765625-7.199219-57.386719-21.386719-80.582031-41.386719-1.949219-1.828125-4.117188-3.464843-5.902344-5.445312-3.160156-3.277344-8.351562-3.46875-11.742187-.429688-1.730469 1.5625-2.753907 3.757813-2.839844 6.085938-.085937 2.332031.773437 4.59375 2.382813 6.28125 2.03125 2.234375 4.417968 4.078125 6.613281 6.132812 25.183593 21.824219 55.203125 37.328125 87.574219 45.226563 31.570312 8.296875 64.09375 12.386718 96.730468 12.160156zm0 0"/><path d="m58.171875 249.042969c-.988281-1.886719-2.683594-3.304688-4.710937-3.945313l-1.585938-.308594c-.566406-.070312-1.144531-.070312-1.714844.003907-.542968-.003907-1.082031.070312-1.605468.21875-.550782.160156-1.089844.355469-1.613282.582031-2.042968.996094-3.601562 2.773438-4.316406 4.929688-.3125 1.132812-.402344 2.316406-.269531 3.484374.183593 1.777344.847656 3.476563 1.921875 4.90625 1.195312 1.332032 2.765625 2.273438 4.507812 2.695313 1.125.234375 2.285156.242187 3.414063.023437 1.105469-.1875 2.160156-.59375 3.105469-1.199218 1.839843-1.253906 3.164062-3.125 3.738281-5.277344.359375-2.078125.054687-4.214844-.871094-6.113281zm0 0"/><path d="m34.171875 196.308594c-4.714844 0-8.535156-3.820313-8.535156-8.535156-.625-33.0625 10.777343-65.226563 32.085937-90.515626-2.421875-31.058593 1.382813-62.285156 11.1875-91.855468 1.296875-3.238282 4.4375-5.3632815 7.925782-5.3632815 16.96875 0 38.828124 10.3085935 64.976562 30.6367185 3.722656 2.894531 4.390625 8.257813 1.496094 11.980469-2.894532 3.71875-8.257813 4.390625-11.980469 1.496094-14.070313-12.230469-30.628906-21.25-48.535156-26.441406-7.273438 26.683593-9.929688 54.410156-7.847657 81.988281.140626 2.261719-.625 4.484375-2.125 6.183593-19.980468 22.539063-30.730468 51.777344-30.117187 81.890626 0 2.265624-.898437 4.433593-2.5 6.035156-1.597656 1.601562-3.769531 2.5-6.03125 2.5zm0 0"/><path d="m256.035156 349.90625c-4.710937 0-8.53125-3.820312-8.53125-8.53125 0-4.714844 3.820313-8.535156 8.53125-8.535156 98.410156 0 213.335938-37.988282 213.335938-145.066406.675781-31.203126-10.90625-61.433594-32.257813-84.199219-1.582031-1.699219-2.40625-3.964844-2.289062-6.28125 1.804687-26.789063-.882813-53.6875-7.945313-79.589844-16.824218 4.722656-32.425781 13.03125-45.734375 24.351563-2.503906 2.226562-6.078125 2.777343-9.136719 1.40625-3.058593-1.367188-5.027343-4.402344-5.039062-7.75v-.085938c.003906-2.652344 1.234375-5.148438 3.335938-6.765625 24.882812-19.121094 45.925781-28.8203125 62.542968-28.8203125 3.488282.0039063 6.625 2.1249995 7.925782 5.3632815 9.539062 28.71875 13.363281 59.027344 11.261718 89.21875 22.808594 25.601562 35.09375 58.875 34.402344 93.152344 0 98.492187-90.433594 162.132812-230.402344 162.132812zm0 0"/><path d="m373.203125 512.039062h-234.328125c-32.398438.613282-59.613281-24.230468-61.941406-56.550781-1.515625-28.460937 17.296875-54.023437 44.921875-61.035156 7.332031-14.4375 12.339843-29.941406 14.832031-45.9375 1.464844-9.066406 3.023438-17.046875 4.492188-24.152344.957031-4.613281 5.472656-7.582031 10.089843-6.625 4.617188.960938 7.582031 5.476563 6.625 10.09375-1.433593 6.886719-2.941406 14.617188-4.367187 23.4375-2.808594 17.703125-8.285156 34.878907-16.242188 50.945313-2.277344 4.355468-6.304687 7.535156-11.074218 8.734375-19.796876 4.957031-33.308594 23.238281-32.242188 43.617187 2.109375 23.136719 21.675781 40.746094 44.90625 40.40625h234.332031c23.21875.339844 42.785157-17.261718 44.890625-40.386718 1.101563-20.316407-12.324218-38.570313-32.042968-43.578126-4.84375-1.179687-8.945313-4.382812-11.265626-8.789062-7.949218-16.058594-13.425781-33.222656-16.234374-50.917969-1.433594-8.851562-2.941407-16.578125-4.375-23.46875-.957032-4.613281 2.011718-9.132812 6.625-10.089843 4.617187-.957032 9.136718 2.007812 10.09375 6.625 1.464843 7.105468 3.023437 15.082031 4.5 24.179687 2.527343 15.980469 7.464843 31.488281 14.640624 45.992187 27.714844 6.863282 46.644532 32.453126 45.101563 60.964844-2.328125 32.316406-29.542969 57.15625-61.9375 56.535156zm0 0"/><path d="m208.363281 512.039062h-34.503906c-9.167969.03125-17.65625-4.839843-22.257813-12.769531-4.554687-7.570312-4.71875-17-.425781-24.722656 3.910157-6.6875 9.605469-12.152344 16.441407-15.789063 1.996093-1.113281 3.867187-2.4375 5.585937-3.949218 4.105469-5.417969 10.847656-41.558594 14.632813-71.824219.339843-3.054687 2.300781-5.691406 5.128906-6.898437 2.828125-1.207032 6.085937-.800782 8.527344 1.066406 2.445312 1.867187 3.695312 4.902344 3.277343 7.949218-3.328125 26.578126-10.277343 72.546876-19.503906 81.773438-2.625 2.46875-5.539063 4.621094-8.671875 6.402344-4.3125 2.148437-7.941406 5.449218-10.484375 9.539062-1.339844 2.445313-1.261719 5.417969.199219 7.792969 1.554687 2.703125 4.433594 4.367187 7.550781 4.363281h34.5c3.992187.03125 7.460937-2.726562 8.328125-6.621094 7.578125-31.421874 12.179688-63.492187 13.75-95.777343 0-4.710938 3.820312-8.535157 8.53125-8.535157 4.714844 0 8.535156 3.824219 8.535156 8.535157-1.5625 33.542969-6.304687 66.863281-14.164062 99.511719-2.582032 11.707031-12.988282 20.023437-24.976563 19.953124zm0 0"/><path d="m338.214844 512.039062h-34.503906c-11.984376.070313-22.390626-8.238281-24.976563-19.945312-7.859375-32.648438-12.601563-65.972656-14.164063-99.519531 0-4.710938 3.820313-8.535157 8.535157-8.535157 4.710937 0 8.53125 3.824219 8.53125 8.535157 1.570312 32.289062 6.171875 64.359375 13.75 95.789062.871093 3.886719 4.339843 6.640625 8.324219 6.609375h34.503906c3.113281.003906 5.996094-1.664062 7.546875-4.363281 1.460937-2.375 1.539062-5.351563.199219-7.796875-2.542969-4.085938-6.171876-7.386719-10.480469-9.535156-3.132813-1.785156-6.042969-3.933594-8.671875-6.402344-9.226563-9.226562-16.175782-55.195312-19.5-81.777344-.421875-3.042968.828125-6.082031 3.273437-7.945312 2.441407-1.867188 5.699219-2.273438 8.527344-1.066406 2.828125 1.207031 4.789063 3.839843 5.132813 6.898437 3.78125 30.269531 10.523437 66.40625 14.796874 72.011719 1.683594 1.421875 3.496094 2.683594 5.417969 3.761718 6.835938 3.636719 12.527344 9.101563 16.441407 15.785157 4.292968 7.726562 4.128906 17.15625-.425782 24.730469-4.601562 7.929687-13.089844 12.796874-22.257812 12.765624zm0 0"/><path d="m57.125 493.097656c-3.78125 0-7.550781-.410156-11.242188-1.226562-15.285156-3.5-28.078124-13.898438-34.625-28.148438-16.234374-32.46875 2.785157-57.148437 15.367188-73.472656 8.753906-11.308594 16.078125-20.769531 16.078125-31.808594 0-6.277344-1.417969-7.765625-1.433594-7.78125-3.40625-1.433594-7.15625-1.859375-10.800781-1.226562-6.605469 1.316406-13.464844-.070313-19.039062-3.851563-5.636719-3.761719-9.546876-9.601562-10.875-16.246093-1.375-6.625-.035157-13.527344 3.722656-19.15625 3.769531-5.691407 9.65625-9.640626 16.351562-10.960938 18.570313-3.636719 37.816406.652344 53.082032 11.835938 13.777343 11.765624 21.246093 29.300781 20.191406 47.386718 0 28.707032-15.390625 48.484375-26.632813 62.925782-12.101562 15.71875-11.5 16.910156-10.191406 19.527343.15625.320313.328125.632813.515625.933594 7.433594-1.496094 14.398438-4.75 20.3125-9.496094 2.136719-1.761719 4.578125-3.128906 7.199219-4.03125 2.894531-1.089843 6.152343-.527343 8.515625 1.472657 2.363281 1.996093 3.457031 5.117187 2.863281 8.152343-.597656 3.039063-2.789063 5.515625-5.730469 6.472657-.761718.261718-1.46875.660156-2.082031 1.179687-5.359375 4.273437-23.140625 15.617187-35.425781 12.929687-5.226563-1.230468-9.507813-4.964843-11.433594-9.976562-6.691406-13.375.730469-23.019531 11.964844-37.609375 10.828125-13.910156 23.058594-29.632813 23.058594-52.480469.960937-12.9375-4.1875-25.582031-13.917969-34.167968-11.292969-7.847657-25.257813-10.855469-38.78125-8.351563-2.300781.417969-4.332031 1.75-5.632813 3.695313-1.234375 1.855468-1.679687 4.132812-1.234375 6.320312.453125 2.234375 1.773438 4.203125 3.671875 5.46875 1.851563 1.25 4.125 1.703125 6.3125 1.265625 8.59375-1.589844 17.46875.125 24.851563 4.800781 5.621093 5.453125 8.441406 13.175782 7.664062 20.96875 0 16.871094-9.847656 29.59375-19.371093 41.902344-12 15.566406-25.316407 32.847656-13.867188 55.742188 4.226562 9.644531 12.753906 16.726562 23.011719 19.117187 12.910156 1.65625 25.996093-1.195313 37.046875-8.078125 4.117187-2.296875 9.316406-.820312 11.613281 3.296875s.820313 9.316406-3.296875 11.613281c-11.484375 6.753906-24.464844 10.554688-37.78125 11.0625zm-.648438-51.339844.105469.023438zm0 0"/><path d="m256.035156 238.972656c-6.1875.097656-12.140625-2.359375-16.457031-6.792968l-12.789063-13.65625c-4.832031-4.957032-6.203124-12.335938-3.46875-18.695313 3.65625-7.621094 11.476563-12.355469 19.925782-12.054687h25.582031c8.449219-.300782 16.269531 4.433593 19.925781 12.054687 2.734375 6.359375 1.363282 13.742187-3.476562 18.695313l-12.773438 13.652343c-4.320312 4.4375-10.277344 6.894531-16.46875 6.796875zm-12.789062-34.132812c-2.910156 0-4.183594 1.417968-4.285156 1.816406l13.074218 13.855469c2.390625 1.726562 5.621094 1.726562 8.011719 0l12.773437-13.652344c.191407-.597656-1.082031-2.019531-3.992187-2.019531zm0 0"/><path d="m128.046875 179.242188c-3.628906.003906-6.859375-2.285157-8.0625-5.703126-1.203125-3.421874-.113281-7.230468 2.71875-9.496093 37.847656-30.269531 73.625-18.921875 87.253906-8.695313 3.769531 2.828125 4.535157 8.175782 1.707031 11.945313-2.828124 3.773437-8.175781 4.535156-11.945312 1.707031-1.160156-.835938-29.703125-20.957031-66.351562 8.371094-1.511719 1.210937-3.386719 1.871094-5.320313 1.871094zm0 0"/><path d="m384.027344 179.242188c-1.933594 0-3.8125-.660157-5.324219-1.871094-37.050781-29.65625-66.046875-8.574219-66.351563-8.371094-2.433593 1.902344-5.703124 2.339844-8.554687 1.144531-2.847656-1.195312-4.828125-3.835937-5.175781-6.90625-.351563-3.070312.988281-6.085937 3.496094-7.890625 13.625-10.230468 49.40625-21.582031 87.25 8.695313 2.832031 2.265625 3.921874 6.070312 2.722656 9.492187-1.203125 3.421875-4.433594 5.710938-8.0625 5.707032zm0 0"/><path d="m256.035156 264.574219c-4.710937 0-8.53125-3.820313-8.53125-8.535157v-25.597656c0-4.714844 3.820313-8.535156 8.53125-8.535156 4.714844 0 8.535156 3.820312 8.535156 8.535156v25.597656c0 4.714844-3.820312 8.535157-8.535156 8.535157zm0 0"/><path d="m290.171875 298.707031c-2.265625.003907-4.4375-.898437-6.035156-2.5l-28.101563-28.097656-28.097656 28.097656c-3.347656 3.234375-8.671875 3.1875-11.964844-.105469-3.289062-3.289062-3.335937-8.613281-.101562-11.960937l34.132812-34.132813c1.597656-1.601562 3.769532-2.5 6.03125-2.5 2.265625 0 4.433594.898438 6.035156 2.5l34.132813 34.132813c2.441406 2.441406 3.167969 6.109375 1.847656 9.300781-1.320312 3.1875-4.429687 5.265625-7.878906 5.265625zm0 0"/><path d="m281.636719 110.972656h-51.199219c-9.421875-.007812-17.054688-7.644531-17.066406-17.066406v-68.265625c.011718-9.421875 7.644531-17.054687 17.066406-17.066406h51.199219c9.421875.011719 17.054687 7.644531 17.066406 17.066406v68.265625c-.011719 9.421875-7.644531 17.058594-17.066406 17.066406zm-51.199219-85.332031v68.265625h51.207031l-.007812-68.265625zm0 0"/><path d="m166.386719 119.546875c-7.746094 0-15.332031-2.230469-21.839844-6.429687-10.21875-6.269532-16.464844-17.378907-16.511719-29.363282v-47.957031c.046875-11.988281 6.292969-23.097656 16.511719-29.363281 11.625-7.476563 26.265625-8.503906 38.824219-2.722656l42.070312 19.113281c4.289063 1.953125 6.1875 7.011719 4.234375 11.304687-1.949219 4.292969-7.011719 6.1875-11.304687 4.238282l-42.066406-19.113282c-7.289063-3.3125-15.75-2.730468-22.519532 1.539063-5.292968 3.164062-8.578125 8.835937-8.679687 15.003906v47.957031c.101562 6.167969 3.386719 11.84375 8.679687 15.007813 6.769532 4.273437 15.230469 4.855469 22.519532 1.546875l42.066406-19.121094c4.292968-1.953125 9.355468-.054688 11.304687 4.234375 1.953125 4.292969.054688 9.355469-4.234375 11.304687l-42.070312 19.117188c-5.332032 2.429688-11.125 3.695312-16.984375 3.703125zm0 0"/><path d="m345.6875 119.546875c-5.859375-.007813-11.652344-1.269531-16.980469-3.707031l-42.070312-19.113282c-4.292969-1.953124-6.1875-7.011718-4.238281-11.304687 1.953124-4.292969 7.015624-6.1875 11.304687-4.238281l42.070313 19.117187c7.285156 3.320313 15.753906 2.742188 22.515624-1.542969 5.292969-3.164062 8.578126-8.839843 8.679688-15.003906v-47.957031c-.113281-6.1875-3.421875-11.875-8.738281-15.039063-6.757813-4.242187-15.191407-4.8125-22.460938-1.515624l-42.066406 19.121093c-4.292969 1.949219-9.355469.054688-11.304687-4.238281-1.953126-4.292969-.054688-9.355469 4.234374-11.304688l42.070313-19.113281c12.527344-5.761719 27.121094-4.75 38.734375 2.683594 10.222656 6.238281 16.5 17.3125 16.597656 29.289063v48.074218c-.042968 11.984375-6.289062 23.09375-16.507812 29.363282-6.511719 4.195312-14.09375 6.429687-21.839844 6.429687zm0 0"/></g></svg>