<svg height="512pt" viewBox="0 0 512.1415 512" width="512pt" xmlns="http://www.w3.org/2000/svg"><path d="m503.539062 246.171875c0 3.5-.085937 6.914063-.339843 10.410156-.390625 8.320313-1.246094 16.609375-2.5625 24.832031-3.03125 17.609376-7.894531 34.855469-14.507813 51.457032-5.824218 14.980468-12.992187 29.402344-21.417968 43.09375-2.984376 4.949218-6.144532 9.726562-9.472657 14.507812-45.054687 64.9375-117.503906 113.066406-199.167969 113.066406-81.746093 0-154.28125-48.214843-199.25-113.238281-3.328124-4.695312-6.402343-9.472656-9.386718-14.335937-8.425782-13.691406-15.59375-28.113282-21.421875-43.09375-6.609375-16.601563-11.472657-33.847656-14.503907-51.457032-1.316406-8.222656-2.171874-16.511718-2.5625-24.832031-.253906-3.496093-.339843-6.910156-.339843-10.410156 0-5.460937.257812-10.75.683593-15.957031.621094-8.511719 1.933594-16.960938 3.925782-25.257813 4.046875-17.988281 11.304687-35.101562 21.417968-50.519531-17.324218-27.21875-36.949218-76.542969-18.773437-145.832031 0 0 72.703125 0 136.960937 65.023437 9.128907-2.644531 18.515626-4.949218 28.242188-6.828125 24.71875-4.769531 49.839844-7.113281 75.007812-6.996093 25.171876-.117188 50.292969 2.226562 75.007813 6.996093 9.730469 1.878907 19.117187 4.183594 28.246094 6.828125h.085937c64.171875-65.023437 136.875-65.023437 136.875-65.023437 18.175782 69.289062-1.449218 118.613281-18.773437 145.832031 10.113281 15.417969 17.367187 32.53125 21.417969 50.519531 1.992187 8.296875 3.304687 16.746094 3.925781 25.257813.425781 5.121094.683593 10.496094.683593 15.957031zm0 0" fill="#e8edfc"/><path d="m205.238281 291.21875s-57.921875 28.851562-90.964843 6.824219c-33.039063-22.027344-28.679688-86.589844-28.679688-86.589844s57.921875-28.855469 90.964844-6.828125c33.039062 22.027344 28.679687 86.59375 28.679687 86.59375zm0 0" fill="#fff"/><path d="m398.40625 298.054688c-33.023438 22.015624-90.964844-6.828126-90.964844-6.828126-.820312-17.367187 1.078125-34.757812 5.632813-51.539062 3.351562-13.820312 11.332031-26.074219 22.613281-34.730469.101562-.160156.25-.277343.425781-.34375 33.109375-22.015625 90.964844 6.828125 90.964844 6.828125s4.355469 64.597656-28.671875 86.613282zm0 0" fill="#fff"/><path d="m90.441406 101.277344c-21.265625 14.699218-40.097656 32.636718-55.808594 53.160156-2.972656-4.574219-5.652343-9.332031-8.023437-14.25-14.503906-28.757812-26.109375-73.042969-10.75-131.582031h1.363281c.855469.425781 7.085938 3.667969 15.957032 9.214843.386718.34375.816406.628907 1.28125.851563 18.175781 11.691406 46.25 32.855469 61.355468 60.160156 4.285156 7.746094 1.953125 17.480469-5.375 22.445313zm0 0" fill="#7facfa"/><path d="m24.050781 134.898438c15.296875-19.507813 33.449219-36.597657 53.84375-50.6875 7.328125-4.964844 9.660157-14.699219 5.378907-22.445313-.683594-1.277344-1.453126-2.472656-2.132813-3.753906l-.085937-.085938c-18.28125-19.933593-39.839844-36.585937-63.746094-49.238281h-.085938c-.851562-.082031-1.363281-.082031-1.363281-.082031-12.28125 41.742187-9.378906 86.484375 8.191406 126.292969zm0 0" fill="#a4c2f7"/><path d="m281.671875 136.605469c0-4.714844-11.460937-8.535157-25.601563-8.535157-14.136718 0-25.597656 3.820313-25.597656 8.535157 0 4.710937 11.460938 8.53125 25.597656 8.53125 14.140626 0 25.601563-3.820313 25.601563-8.53125zm0 0" fill="#a4c2f7"/><path d="m307.273438 102.472656c0-4.714844-22.925782-8.535156-51.203126-8.535156-28.273437 0-51.199218 3.820312-51.199218 8.535156 0 4.710938 22.925781 8.53125 51.199218 8.53125 28.277344 0 51.203126-3.820312 51.203126-8.53125zm0 0" fill="#a4c2f7"/><path d="m331.078125 66.800781c-7.59375 5.804688-38.3125 10.070313-75.007813 10.070313-36.691406 0-67.410156-4.265625-75.007812-10.070313 24.71875-4.769531 49.839844-7.113281 75.007812-6.996093 25.171876-.117188 50.292969 2.226562 75.007813 6.996093zm0 0" fill="#a4c2f7"/><path d="m59.804688 217.671875c0 7.082031-19.113282 12.800781-42.664063 12.800781-2.648437 0-5.292969-.085937-7.851563-.257812.621094-8.511719 1.933594-16.960938 3.925782-25.257813 1.277344-.085937 2.558594-.085937 3.925781-.085937 23.550781 0 42.664063 5.71875 42.664063 12.800781zm0 0" fill="#a4c2f7"/><path d="m68.339844 268.871094c0 7.082031-20.992188 12.800781-46.933594 12.800781-3.414062 0-6.742188-.085937-9.898438-.257813-1.316406-8.222656-2.171874-16.511718-2.5625-24.832031 4.011719-.339843 8.109376-.511719 12.460938-.511719 25.941406 0 46.933594 5.71875 46.933594 12.800782zm0 0" fill="#a4c2f7"/><path d="m76.871094 320.070312c0 7.082032-22.78125 12.714844-50.859375 12.800782-3.355469-8.304688-6.230469-16.796875-8.617188-25.429688 2.644531-.085937 5.460938-.171875 8.277344-.171875 28.246094 0 51.199219 5.71875 51.199219 12.800781zm0 0" fill="#a4c2f7"/><path d="m196.339844 251.804688c0-30.632813-21.015625-55.46875-46.933594-55.46875-25.921875 0-46.933594 24.835937-46.933594 55.46875 0 30.632812 21.011719 55.464843 46.933594 55.464843 25.917969 0 46.933594-24.832031 46.933594-55.464843zm0 0" fill="#fff"/><path d="m409.671875 251.804688c0-30.632813-21.011719-55.46875-46.933594-55.46875s-46.933593 24.835937-46.933593 55.46875c0 30.632812 21.011718 55.464843 46.933593 55.464843s46.933594-24.832031 46.933594-55.464843zm0 0" fill="#fff"/><path d="m170.738281 251.804688c0-30.632813-9.550781-55.46875-21.332031-55.46875s-21.335938 24.835937-21.335938 55.46875c0 30.632812 9.554688 55.464843 21.335938 55.464843s21.332031-24.832031 21.332031-55.464843zm0 0" fill="#7facfa"/><path d="m384.070312 251.804688c0-30.632813-9.550781-55.46875-21.332031-55.46875s-21.332031 24.835937-21.332031 55.46875c0 30.632812 9.550781 55.464843 21.332031 55.464843s21.332031-24.832031 21.332031-55.464843zm0 0" fill="#7facfa"/><path d="m178.078125 205.808594c-3.886719 3.40625-8.023437 6.515625-12.375 9.300781-10.925781 7.023437-23.136719 11.808594-35.925781 14.082031-14.785156 2.441406-29.945313 1.300782-44.203125-3.328125-1.402344-7.527343-4.367188-14.679687-8.703125-20.992187 0 0 66.644531-30.550782 99.671875-8.535156.511719.34375 1.023437 8.960937 1.535156 9.472656zm0 0" fill="#e8edfc"/><path d="m427.078125 225.863281h-.339844c-14.253906 4.628907-29.414062 5.769531-44.203125 3.328125-12.789062-2.273437-24.996094-7.058594-35.925781-14.082031-4.277344-2.75-8.355469-5.800781-12.203125-9.128906.597656-.597657 1.109375-9.214844 1.707031-9.644531 33.109375-22.015626 99.160157 8.535156 99.160157 8.535156-4.097657 6.382812-6.882813 13.519531-8.195313 20.992187zm0 0" fill="#e8edfc"/><path d="m296.582031 345.957031-33.828125 35.339844c-1.769531 1.777344-4.175781 2.773437-6.683594 2.773437-2.503906 0-4.910156-.996093-6.679687-2.773437l-33.828125-35.339844c-1.644531-1.613281-2.410156-3.914062-2.0625-6.1875.664062-3.46875 3.410156-6.164062 6.894531-6.757812.636719-.082031 1.277344-.128907 1.917969-.140625h67.519531c.640625.011718 1.28125.058594 1.917969.140625 3.484375.59375 6.230469 3.289062 6.894531 6.757812.347657 2.273438-.421875 4.574219-2.0625 6.1875zm0 0" fill="#a4c2f7"/><path d="m503.539062 246.171875c0 3.5-.085937 6.914063-.339843 10.410156-.390625 8.320313-1.246094 16.609375-2.5625 24.832031-3.03125 17.609376-7.894531 34.855469-14.507813 51.457032-5.824218 14.980468-12.992187 29.402344-21.417968 43.09375-2.984376 4.949218-6.144532 9.726562-9.472657 14.507812-45.054687 64.9375-117.503906 113.066406-199.167969 113.066406-4.265624 0-8.617187-.171874-12.796874-.429687 76.457031-4.691406 143.699218-51.113281 186.367187-112.636719 3.328125-4.78125 6.484375-9.558594 9.472656-14.507812 8.421875-13.691406 15.589844-28.113282 21.417969-43.09375.253906-.511719.425781-1.109375.683594-1.621094 2.984375-7.679688 5.546875-15.445312 7.765625-23.210938.082031-.171874.082031-.425781.167969-.597656 2.457031-8.554687 4.425781-17.246094 5.890624-26.027344 0-.171874.082032-.339843.082032-.511718 1.25-8.058594 2.074218-16.175782 2.476562-24.320313.253906-3.496093.339844-6.910156.339844-10.410156 0-5.460937-.253906-10.835937-.679688-15.957031 0-.339844-.085937-.597656-.085937-.9375-.621094-7.640625-1.789063-15.226563-3.5-22.699219-.074219-.550781-.1875-1.089844-.339844-1.621094-4.050781-17.988281-11.308593-35.101562-21.421875-50.519531 17.070313-26.792969 36.355469-75.09375 19.542969-142.761719 8.167969-1.765625 16.480469-2.792969 24.832031-3.070312 18.175782 69.289062-1.449218 118.613281-18.773437 145.832031 10.113281 15.417969 17.367187 32.53125 21.417969 50.519531 1.992187 8.296875 3.304687 16.746094 3.925781 25.257813.425781 5.121094.683593 10.496094.683593 15.957031zm0 0" fill="#cad9fc"/><path d="m477.171875 229.277344c-14.679687-1.964844-24.832031-6.402344-24.832031-11.605469 0-4.78125 8.53125-8.875 21.332031-11.09375 1.710937 7.472656 2.878906 15.058594 3.5 22.699219zm0 0" fill="#a4c2f7"/><path d="m502.855469 230.214844c-2.558594.171875-5.203125.257812-7.851563.257812-5.964844.015625-11.921875-.382812-17.832031-1.195312-.621094-7.640625-1.789063-15.226563-3.5-22.699219 7.050781-1.183594 14.1875-1.753906 21.332031-1.707031 1.367188 0 2.648438 0 3.925782.085937 1.992187 8.296875 3.304687 16.746094 3.925781 25.257813zm0 0" fill="#7facfa"/><path d="m477.597656 256.582031c-.402344 8.144531-1.226562 16.261719-2.476562 24.320313-18.257813-1.707032-31.316406-6.484375-31.316406-12.03125 0-5.804688 14.25-10.753906 33.792968-12.289063zm0 0" fill="#a4c2f7"/><path d="m503.199219 256.582031c-.390625 8.320313-1.246094 16.609375-2.5625 24.832031-3.15625.171876-6.484375.257813-9.898438.257813-5.214843.011719-10.425781-.242187-15.617187-.769531 1.25-8.058594 2.074218-16.175782 2.476562-24.320313 4.179688-.339843 8.617188-.511719 13.140625-.511719 4.351563 0 8.449219.171876 12.460938.511719zm0 0" fill="#7facfa"/><path d="m468.980469 308.039062c-2.21875 7.765626-4.78125 15.53125-7.765625 23.210938-15.53125-2.21875-25.941406-6.402344-25.941406-11.179688 0-5.546874 14.078124-10.238281 33.707031-12.03125zm0 0" fill="#a4c2f7"/><path d="m494.75 307.441406c-2.386719 8.632813-5.261719 17.125-8.621094 25.429688-8.332031.027344-16.65625-.515625-24.914062-1.621094 2.984375-7.679688 5.546875-15.445312 7.765625-23.210938 5.460937-.511718 11.347656-.769531 17.492187-.769531 2.816406 0 5.632813.085938 8.277344.171875zm0 0" fill="#7facfa"/><path d="m488.09375 134.898438c-3.0625 6.753906-6.597656 13.285156-10.582031 19.539062-15.710938-20.523438-34.542969-38.460938-55.808594-53.160156-7.328125-4.964844-9.660156-14.699219-5.375-22.445313 4.152344-7.429687 9.074219-14.410156 14.675781-20.820312l.085938-.085938c18.28125-19.933593 39.839844-36.585937 63.746094-49.238281h.085937c.851563-.082031 1.363281-.082031 1.363281-.082031 12.277344 41.742187 9.375 86.484375-8.191406 126.292969zm0 0" fill="#7facfa"/><path d="m488.09375 134.898438c-5.613281-7.078126-11.597656-13.859376-17.921875-20.308594-10.917969-11.3125-22.953125-21.492188-35.921875-30.378906-7.332031-4.964844-9.664062-14.699219-5.378906-22.445313.683594-1.277344 1.453125-2.472656 2.132812-3.753906l.085938-.085938c12.566406-13.976562 26.875-26.28125 42.582031-36.605469 11.347656-7.511718 19.882813-11.949218 21.164063-12.632812h.085937c.851563-.082031 1.363281-.082031 1.363281-.082031 12.277344 41.742187 9.375 86.484375-8.191406 126.292969zm0 0" fill="#7facfa"/><path d="m470.171875 114.589844c-10.917969-11.3125-22.953125-21.492188-35.921875-30.378906-7.332031-4.964844-9.664062-14.699219-5.378906-22.445313.683594-1.277344 1.453125-2.472656 2.132812-3.753906l.085938-.085938c12.566406-13.976562 26.875-26.28125 42.582031-36.605469 6.761719 30.882813 5.558594 62.976563-3.5 93.269532zm0 0" fill="#a4c2f7"/><path d="m31.277344 148.914062c1.121094 1.929688 2.242187 3.777344 3.355468 5.523438-10.113281 15.417969-17.371093 32.53125-21.417968 50.519531-1.992188 8.296875-3.304688 16.746094-3.925782 25.257813-.425781 5.207031-.683593 10.496094-.683593 15.957031 0 3.5.085937 6.914063.339843 10.410156.390626 8.320313 1.246094 16.609375 2.5625 24.832031 3.03125 17.609376 7.894532 34.855469 14.503907 51.457032 5.828125 14.980468 12.996093 29.402344 21.421875 43.09375 2.984375 4.863281 6.058594 9.640625 9.386718 14.335937 42.664063 61.691407 110.15625 108.167969 186.769532 112.777344l-.316406.03125c4.179687.257813 8.53125.429687 12.796874.429687 4.300782 0 8.5625-.207031 12.808594-.46875-76.488281-4.71875-143.851562-51.160156-186.460937-112.769531-3.328125-4.695312-6.398438-9.472656-9.386719-14.335937-8.421875-13.691406-15.59375-28.113282-21.417969-43.09375-6.613281-16.601563-11.472656-33.847656-14.507812-51.457032-1.316407-8.222656-2.171875-16.511718-2.558594-24.832031-.257813-3.496093-.339844-6.910156-.339844-10.410156 0-5.460937.253907-10.75.679688-15.957031.625-8.511719 1.9375-16.960938 3.925781-25.257813 4.050781-17.988281 11.304688-35.101562 21.417969-50.519531-1.109375-1.746094-2.234375-3.59375-3.355469-5.523438-.59375-1.027343-1.167969-2.089843-1.753906-3.164062-1.859375-3.375-3.691406-6.984375-5.460938-10.859375l-.007812.007813c-.128906-.28125-.25-.582032-.378906-.867188-1.035157-2.289062-2.039063-4.667969-3.015626-7.128906-.480468-1.207032-.964843-2.40625-1.425781-3.65625-.359375-.964844-.691406-1.976563-1.039062-2.964844-.457031-1.308594-.910157-2.621094-1.34375-3.972656-.097657-.304688-.199219-.605469-.296875-.914063-.25-.792969-.480469-1.613281-.722656-2.421875-.332032-1.117187-.664063-2.238281-.976563-3.382812-.191406-.695313-.375-1.402344-.5625-2.109375-.195313-.746094-.386719-1.492188-.578125-2.25-.214844-.882813-.425781-1.773438-.632812-2.671875-.246094-1.066406-.472657-2.15625-.699219-3.246094-.058594-.28125-.125-.554688-.183594-.835938-.09375-.46875-.207031-.914062-.296875-1.386718-.121094-.613282-.21875-1.253906-.332031-1.875-.222657-1.207032-.429688-2.429688-.628907-3.660156-.160156-.996094-.328124-1.980469-.476562-2.992188-.074219-.527344-.144531-1.0625-.214844-1.597656-.15625-1.140625-.289062-2.296875-.425781-3.457032-.152344-1.296874-.28125-2.605468-.40625-3.925781v-.027343c-.058594-.617188-.136719-1.210938-.1875-1.835938-.070313-.839844-.113281-1.707031-.171875-2.558594-.085938-1.273437-.152344-2.566406-.210938-3.863281-.054687-1.144531-.132812-2.265625-.164062-3.429687-.015625-.457032 0-.9375-.011719-1.398438-.027343-1.230469-.023437-2.488281-.023437-3.742188 0-1.640624 0-3.277343.039062-4.949218.011719-.460938.007813-.910156.023438-1.371094.027344-.84375.101562-1.71875.140625-2.570312.082031-1.8125.164062-3.625.296875-5.472657.042968-.59375.09375-1.1875.140625-1.78125.085937-1.066406.207031-2.148437.3125-3.222656.148437-1.5.28125-2.988281.464843-4.507813.117188-1 .28125-2.023437.414063-3.035156.171875-1.238281.335937-2.472656.527344-3.730468.15625-1.011719.292969-2.015626.460937-3.035157.25-1.484375.570313-3.011719.855469-4.515625l.074219-.398437c.230468-1.210938.425781-2.40625.683594-3.632813.105468-.511718.199218-1.019531.308593-1.535156.511719-2.378906 1.117188-4.808594 1.71875-7.238281-7.707031-1.636719-15.53125-2.667969-23.398437-3.082031l-.085938-.042969h-1.363281c-.917969 3.507812-1.742187 6.964843-2.464844 10.371093-.113281.515626-.203125 1.023438-.3125 1.535157-.253906 1.226562-.453125 2.421875-.683593 3.632812l-.074219.394531c-.28125 1.507813-.601563 3.035157-.851563 4.519532-.171875 1.023437-.308594 2.023437-.460937 3.035156-.195313 1.257812-.359375 2.492188-.527344 3.730469-.136719 1.011719-.296875 2.035156-.417969 3.035156-.183594 1.523437-.316406 3.011719-.464844 4.507813-.105468 1.074218-.222656 2.15625-.308593 3.222656-.050781.597656-.101563 1.1875-.144531 1.78125-.132813 1.847656-.214844 3.660156-.296876 5.472656-.039062.855469-.113281 1.726562-.140624 2.570312-.015626.464844-.011719.910157-.023438 1.371094-.042969 1.675782-.042969 3.3125-.039062 4.949219 0 1.253906 0 2.511719.023437 3.742187.011719.464844 0 .941407.011719 1.402344.03125 1.160156.109375 2.285156.164062 3.429688.058594 1.292968.125 2.585937.210938 3.859375.058594.855469.101562 1.714843.171875 2.558593.050781.625.132812 1.21875.1875 1.835938v.027344c.125 1.320312.257812 2.628906.40625 3.925781.132812 1.160156.269531 2.320313.425781 3.460937.074219.53125.140625 1.066407.21875 1.59375.144531 1.011719.3125 1.996094.472656 2.992188.203125 1.230469.40625 2.453125.628906 3.660156.113282.621094.210938 1.257813.332032 1.875.09375.472656.203125.921875.300781 1.386719.054687.28125.121094.554687.179687.835937.230469 1.089844.457032 2.179688.703126 3.246094.207031.898438.414062 1.792969.632812 2.671875.1875.757813.382812 1.503907.578125 2.25.183594.707031.367187 1.414063.558594 2.109375.316406 1.144532.644531 2.265625.976562 3.382813.242188.808593.476563 1.628906.726563 2.425781.09375.304688.195312.605469.292968.914062.433594 1.347657.890626 2.660157 1.34375 3.96875.347657.992188.683594 2 1.039063 2.96875.460937 1.246094.949219 2.445313 1.429687 3.652344.972657 2.460938 1.980469 4.839844 3.011719 7.132813.128907.28125.25.582031.378907.863281l.003906-.003906c1.773437 3.871094 3.605468 7.480468 5.460937 10.855468.589844 1.066407 1.164063 2.132813 1.757813 3.15625zm0 0" fill="#fff"/><path d="m17.140625 246.171875c.8125 35.800781 9.546875 70.976563 25.574219 102.996094 1.238281 2.5625 2.359375 5.175781 3.691406 7.679687l4.300781 7.375c2.945313 4.863282 5.539063 9.953125 8.761719 14.644532 6.277344 9.5 13.117188 18.613281 20.480469 27.296874 7.296875 8.730469 15.09375 17.03125 23.355469 24.855469 4.164062 3.863281 8.660156 7.355469 12.96875 11.054688l6.527343 5.484375 6.996094 4.839844c18.359375 13.285156 38.574219 23.796874 59.996094 31.195312 21.375 7.179688 43.730469 11.027344 66.277343 11.410156v17.066406c-24.425781-.382812-48.648437-4.539062-71.804687-12.324218-22.984375-7.929688-44.675781-19.195313-64.378906-33.441406l-7.457031-5.179688-6.953126-5.824219c-4.589843-3.929687-9.367187-7.667969-13.792968-11.777343-8.769532-8.300782-17.050782-17.105469-24.796875-26.367188-7.804688-9.210938-15.050781-18.878906-21.703125-28.953125-3.410156-4.976563-6.1875-10.363281-9.300782-15.53125l-4.550781-7.828125c-1.414062-2.667969-2.617187-5.445312-3.9375-8.164062-17.175781-34.355469-26.507812-72.101563-27.3242185-110.507813zm0 0" fill="#fff"/><g fill="#428dff"><path d="m13.007812 288.550781c4.558594-.875 7.652344-5.148437 7.0625-9.753906-1.722656-10.796875-2.703124-21.695313-2.929687-32.625h-17.0703125c.2304685 11.820313 1.2812495 23.613281 3.1445315 35.289063.304687 2.261718 1.523437 4.304687 3.375 5.644531 1.851562 1.339843 4.167968 1.863281 6.417968 1.445312zm0 0"/><path d="m256.070312 512.070312v-17.066406c-22.546874-.378906-44.90625-4.226562-66.285156-11.40625-21.421875-7.394531-41.636718-17.90625-59.996094-31.191406l-6.996093-4.84375-6.523438-5.480469c-4.308593-3.703125-8.804687-7.195312-12.972656-11.054687-8.257813-7.824219-16.054687-16.125-23.351563-24.855469-7.367187-8.683594-14.203124-17.800781-20.480468-27.296875-3.222656-4.695312-5.816406-9.78125-8.761719-14.644531l-4.296875-7.375c-1.328125-2.511719-2.453125-5.128907-3.691406-7.679688l-3.53125-7.480469c-2.121094-4.140624-7.050782-5.972656-11.359375-4.222656-2.105469.871094-3.753907 2.578125-4.550781 4.714844-.792969 2.136719-.660157 4.507812.363281 6.542969l3.753906 7.953125c1.320313 2.71875 2.523437 5.496094 3.9375 8.164062l4.550781 7.828125c3.117188 5.167969 5.894532 10.554688 9.300782 15.53125 6.652343 10.074219 13.902343 19.738281 21.707031 28.949219 7.75 9.265625 16.027343 18.070312 24.800781 26.375 4.425781 4.101562 9.203125 7.839844 13.792969 11.773438l6.953125 5.824218 7.460937 5.179688c19.699219 14.246094 41.390625 25.511718 64.375 33.441406 23.15625 7.785156 47.375 11.941406 71.800781 12.320312zm0 0"/><path d="m27.34375 310.875c-.59375-2.101562-1.984375-3.890625-3.875-4.988281l-1.488281-.625c-.542969-.183594-1.109375-.292969-1.679688-.328125-.527343-.109375-1.074219-.136719-1.613281-.085938-.566406.054688-1.132812.148438-1.6875.28125-2.1875.621094-4.050781 2.0625-5.199219 4.027344-.53125 1.023438-.867187 2.140625-.984375 3.289062-.503906 3.539063 1.320313 7 4.523438 8.589844 1.035156.480469 2.152344.753906 3.292968.8125 1.117188.085938 2.242188-.050781 3.308594-.402344 2.101563-.753906 3.847656-2.261718 4.894532-4.234374.863281-1.996094 1.039062-4.226563.507812-6.335938zm0 0"/><path d="m256.070312 512.070312c-4.710937 0-8.53125-3.820312-8.53125-8.53125 0-4.714843 3.820313-8.535156 8.53125-8.535156 134.558594 0 238.933594-133.761718 238.933594-248.832031.578125-30.8125-7.988281-61.109375-24.625-87.054687-1.839844-2.804688-1.867187-6.429688-.066406-9.261719 16.898438-26.539063 33.585938-70.726563 19.402344-132.273438-47.292969 5.839844-91.148438 27.742188-124.226563 62.046875-2.257812 2.203125-5.523437 3.039063-8.566406 2.191406-32.804687-9.265624-66.761719-13.804687-100.851563-13.484374-34.085937-.320313-68.042968 4.21875-100.847656 13.484374-3.011718.886719-6.265625.046876-8.46875-2.1875-33.117187-34.304687-77.003906-56.207031-124.324218-62.054687-14.183594 61.554687 2.507812 105.734375 19.402343 132.277344 1.800781 2.832031 1.773438 6.457031-.070312 9.261719-16.632813 25.945312-25.199219 56.238281-24.621094 87.054687 0 4.714844-3.824219 8.535156-8.535156 8.535156-4.714844 0-8.5351565-3.820312-8.5351565-8.535156-.5195315-32.28125 7.9648435-64.070313 24.5117185-91.796875-18.28125-30.828125-34.703125-80.371094-16.976562-147.9375.984375-3.75 4.375-6.3671875 8.253906-6.3671875 3.058594 0 74.367187.7460935 139.433594 63.9843755 32.867187-8.757813 66.765625-13.058594 100.777343-12.785157 34.039063-.277343 67.960938 4.027344 100.851563 12.800781 64.984375-63.265624 136.308594-63.9999995 139.363281-63.9999995 3.878906.0039063 7.265625 2.6171875 8.25 6.3671875 17.726563 67.566406 1.308594 117.113281-16.976562 147.9375 16.546875 27.726562 25.035156 59.515625 24.511718 91.796875 0 122.964844-111.824218 265.898437-256 265.898437zm0 0"/><path d="m145.628906 314.832031c-12.722656.421875-25.28125-2.953125-36.082031-9.6875-36.734375-24.480469-32.65625-91.429687-32.464844-94.265625.203125-3.023437 1.996094-5.710937 4.707031-7.0625 2.550782-1.273437 62.765626-30.792968 99.5-6.292968 36.730469 24.484374 32.65625 91.429687 32.464844 94.269531-.207031 3.019531-1.996094 5.707031-4.707031 7.0625-19.835937 9.570312-41.414063 15.003906-63.417969 15.976562zm-51.664062-97.859375c-.175782 14.730469 1.40625 58.214844 25.050781 73.972656 21.632813 14.421876 59.996094 2.578126 77.855469-5.246093.171875-14.734375-1.40625-58.214844-25.046875-73.972657-21.644531-14.425781-60.003907-2.578124-77.859375 5.246094zm0 0"/><path d="m367.070312 314.832031c-22-.972656-43.578124-6.40625-63.414062-15.976562-2.710938-1.355469-4.503906-4.042969-4.710938-7.0625-.191406-2.839844-4.265624-69.785157 32.46875-94.269531 36.734376-24.480469 96.949219 5.023437 99.5 6.292968 2.707032 1.355469 4.5 4.039063 4.707032 7.0625.191406 2.835938 4.265625 69.785156-32.46875 94.265625-10.800782 6.734375-23.359375 10.105469-36.082032 9.6875zm-51.296874-29.210937c13.523437 5.816406 54.289062 21.070312 77.914062 5.324218 21.652344-14.429687 25.460938-54.394531 25.109375-73.898437-13.53125-5.828125-54.300781-21.082031-77.917969-5.324219-21.648437 14.429688-25.457031 54.398438-25.105468 73.898438zm0 0"/><path d="m149.40625 314.867188c-.242188 0-.535156-.019532-.855469-.046876-.570312 0-1.144531-.058593-1.707031-.171874-18.757812-2.816407-27.304688-34.90625-27.304688-63.78125-.023437-7.730469.585938-15.445313 1.824219-23.074219.457031-3.050781 2.519531-5.617188 5.398438-6.714844 2.882812-1.101563 6.132812-.558594 8.5 1.414063 2.371093 1.96875 3.492187 5.066406 2.933593 8.101562-1.082031 6.699219-1.617187 13.480469-1.589843 20.273438 0 30.722656 9.375 45.84375 12.628906 46.863281h.015625c.191406-.027344.382812-.050781.574219-.070313 4.019531-1.789062 12.375-18.523437 12.375-46.792968.15625-11.203126-1.398438-22.363282-4.609375-33.097657-1.023438-2.917969-.394532-6.160156 1.652344-8.480469 2.046874-2.320312 5.1875-3.347656 8.210937-2.691406s5.453125 2.898438 6.351563 5.855469c3.800781 12.445313 5.644531 25.402344 5.46875 38.414063 0 29.027343-8.183594 59.96875-26.46875 63.660156-.222657.042968-.449219.082031-.683594.109375l-.425782.046875c-.753906.132812-1.523437.191406-2.289062.183594zm0 0"/><path d="m357.617188 205.554688c-4.710938 0-8.53125-3.820313-8.53125-8.535157.03125-4.746093 3.871093-8.585937 8.617187-8.617187 4.671875.113281 8.394531 3.945312 8.371094 8.617187-.023438 4.671875-3.785157 8.46875-8.457031 8.535157zm0 0"/><path d="m362.738281 314.867188c-.707031.007812-1.417969-.046876-2.117187-.164063-.585938-.046875-1.171875-.132813-1.75-.253906-18.140625-4.875-26-35.417969-26-63.582031-.195313-13.070313 1.679687-26.085938 5.558594-38.5625.972656-2.890626 3.414062-5.046876 6.402343-5.648438 2.992188-.605469 6.074219.433594 8.09375 2.71875 2.015625 2.289062 2.660157 5.480469 1.6875 8.371094-3.273437 10.726562-4.851562 21.902344-4.675781 33.121094 0 27.167968 7.882812 44.550781 12.335938 46.785156.242187.015625.484374.046875.722656.085937.226562-.019531.460937-.027343.683594-.027343 2.832031-.464844 11.863281-17.546876 11.863281-46.851563.023437-6.789063-.507813-13.570313-1.59375-20.273437-.6875-4.605469 2.445312-8.910157 7.039062-9.675782s8.953125 2.296875 9.792969 6.875c1.238281 7.632813 1.847656 15.351563 1.824219 23.082032 0 29.148437-8.683594 61.5625-27.742188 63.847656l-.175781.023437c-.644531.09375-1.296875.136719-1.949219.128907zm-1.167969-16.894532h-.007812zm0 0"/><path d="m256.070312 392.605469c-4.84375.019531-9.492187-1.929688-12.875-5.40625l-33.816406-35.355469c-4.480468-4.546875-5.757812-11.363281-3.222656-17.226562 2.824219-6.34375 9.164062-10.390626 16.109375-10.28125h67.613281c6.945313-.109376 13.289063 3.9375 16.113282 10.28125 2.535156 5.863281 1.257812 12.675781-3.226563 17.222656l-33.816406 35.363281c-3.382813 3.472656-8.03125 5.421875-12.878907 5.402344zm-33.066406-51.203125 32.527344 34.007812c.339844.171875.742188.171875 1.082031 0l32.910157-34.414062zm0 0"/><path d="m256.070312 418.203125c-4.710937 0-8.53125-3.820313-8.53125-8.53125v-25.601563c0-4.710937 3.820313-8.53125 8.53125-8.53125 4.714844 0 8.535157 3.820313 8.535157 8.53125v25.601563c0 4.710937-3.820313 8.53125-8.535157 8.53125zm0 0"/><path d="m120.605469 170.742188c-6.453125-.027344-12.894531-.488282-19.285157-1.382813-3.054687-.375-5.671874-2.363281-6.847656-5.207031-1.179687-2.839844-.734375-6.097656 1.160156-8.519532 1.894532-2.425781 4.949219-3.640624 7.992188-3.183593 50.867188 6.886719 58.800781-17.765625 58.867188-18.019531 1.261718-4.484376 5.882812-7.128907 10.386718-5.941407 4.503906 1.191407 7.226563 5.769531 6.113282 10.292969-.386719 1.445312-9.054688 31.960938-58.386719 31.960938zm0 0"/><path d="m391.539062 170.742188c-49.339843 0-58-30.515626-58.382812-31.964844-.800781-2.941406.027344-6.085938 2.175781-8.25 2.148438-2.164063 5.285157-3.019532 8.234375-2.242188 2.949219.777344 5.257813 3.070313 6.058594 6.011719.398438 1.285156 8.574219 24.953125 58.898438 18.152344 3.042968-.457031 6.097656.757812 7.992187 3.183593 1.894531 2.421876 2.339844 5.679688 1.160156 8.519532-1.175781 2.84375-3.792969 4.832031-6.847656 5.207031-6.390625.894531-12.835937 1.355469-19.289063 1.382813zm0 0"/><path d="m34.621094 162.972656c-3.253906-.003906-6.226563-1.859375-7.65625-4.785156-1.429688-2.925781-1.074219-6.410156.925781-8.980469 16.253906-21.265625 35.761719-39.839843 57.796875-55.035156 3.664062-2.476563 4.8125-7.351563 2.632812-11.199219-21.992187-39.820312-74.472656-66.472656-75-66.738281-4.132812-2.152344-5.78125-7.222656-3.695312-11.390625 2.085938-4.167969 7.128906-5.894531 11.332031-3.871094 2.339844 1.171875 57.714844 29.230469 82.296875 73.746094 6.503906 11.574219 3.015625 26.207031-8.015625 33.597656-20.539062 14.183594-38.71875 31.511719-53.863281 51.355469-1.617188 2.085937-4.113281 3.304687-6.753906 3.300781zm0 0"/><path d="m477.523438 162.972656c-2.640626.003906-5.132813-1.214844-6.75-3.300781-15.148438-19.839844-33.328126-37.171875-53.867188-51.359375-11.03125-7.390625-14.527344-22.019531-8.023438-33.597656 24.585938-44.507813 79.957032-72.566406 82.300782-73.742188 4.203125-2.019531 9.246094-.296875 11.332031 3.871094 2.085937 4.171875.4375 9.242188-3.699219 11.390625-.523437.265625-53.007812 26.921875-75 66.730469-2.175781 3.847656-1.03125 8.726562 2.632813 11.199218 22.039062 15.199219 41.542969 33.773438 57.800781 55.042969 1.996094 2.570313 2.355469 6.054688.925781 8.980469-1.429687 2.925781-4.402343 4.78125-7.65625 4.785156zm0 0"/><path d="m114.761719 238.996094c-10.769531-.042969-21.472657-1.726563-31.734375-4.988282-4.476563-1.421874-6.964844-6.191406-5.566406-10.675781 1.402343-4.480469 6.160156-6.992187 10.648437-5.613281 12.976563 4.210938 26.769531 5.261719 40.234375 3.0625 11.675781-2.074219 22.824219-6.453125 32.792969-12.875 3.984375-2.558594 7.773437-5.40625 11.332031-8.53125 3.550781-3.097656 8.945312-2.726562 12.042969.824219 3.097656 3.554687 2.726562 8.945312-.828125 12.042969-4.207032 3.683593-8.683594 7.050781-13.390625 10.070312-11.882813 7.640625-25.167969 12.839844-39.082031 15.292969-5.433594.929687-10.9375 1.394531-16.449219 1.390625zm0 0"/><path d="m397.554688 238.996094c-5.515626 0-11.019532-.464844-16.457032-1.390625-13.902344-2.453125-27.179687-7.648438-39.050781-15.285157-4.726563-3.015624-9.214844-6.386718-13.425781-10.085937-3.546875-3.101563-3.910156-8.496094-.808594-12.042969s8.492188-3.910156 12.042969-.808594c3.558593 3.128907 7.355469 5.980469 11.347656 8.535157 9.960937 6.417969 21.101563 10.792969 32.769531 12.863281 13.460938 2.199219 27.25 1.148438 40.222656-3.0625 4.5-1.40625 9.285157 1.101562 10.6875 5.601562 1.40625 4.5-1.101562 9.285157-5.601562 10.6875-10.261719 3.261719-20.960938 4.945313-31.726562 4.988282zm0 0"/><path d="m298.738281 460.871094c-2.261719.003906-4.433593-.898438-6.03125-2.5l-36.636719-36.632813-36.632812 36.632813c-3.347656 3.234375-8.667969 3.1875-11.960938-.105469-3.292968-3.289063-3.339843-8.613281-.105468-11.960937l42.667968-42.667969c1.597657-1.601563 3.769532-2.5 6.03125-2.5 2.265626 0 4.433594.898437 6.035157 2.5l42.667969 42.667969c2.4375 2.441406 3.167968 6.109374 1.847656 9.296874-1.320313 3.1875-4.429688 5.269532-7.882813 5.269532zm0 0"/><path d="m17.140625 435.269531c-3.351563 0-6.386719-1.960937-7.769531-5.007812-1.386719-3.046875-.859375-6.625 1.34375-9.144531 38.882812-43.113282 93.480468-68.769532 151.492187-71.179688 4.710938-.003906 8.535157 3.816406 8.535157 8.527344.003906 4.714844-3.816407 8.535156-8.527344 8.539062-.816406.003906-82.316406.96875-138.652344 65.355469-1.621094 1.851563-3.960938 2.914063-6.421875 2.910156zm0 0"/><path d="m85.40625 495.007812c-2.742188-.003906-5.316406-1.324218-6.917969-3.550781-1.605469-2.222656-2.039062-5.085937-1.175781-7.6875 26.710938-80.144531 88.46875-98.625 91.085938-99.371093 4.492187-1.207032 9.128906 1.410156 10.414062 5.882812 1.289062 4.476562-1.25 9.152344-5.699219 10.519531-2.273437.667969-55.859375 17.113281-79.617187 88.371094-1.160156 3.484375-4.417969 5.835937-8.089844 5.835937zm0 0"/><path d="m495.003906 435.269531c-2.460937.003907-4.800781-1.058593-6.421875-2.910156-35.804687-39.191406-85.625-62.679687-138.644531-65.355469-4.710938 0-8.53125-3.820312-8.53125-8.53125 0-4.714844 3.820312-8.535156 8.53125-8.535156 58.011719 2.410156 112.609375 28.066406 151.492188 71.179688 2.203124 2.519531 2.726562 6.097656 1.34375 9.144531-1.382813 3.046875-4.421876 5.007812-7.769532 5.007812zm0 0"/><path d="m426.738281 495.007812c-3.671875 0-6.929687-2.351562-8.089843-5.835937-23.757813-71.257813-77.34375-87.703125-79.617188-88.371094-4.449219-1.367187-6.988281-6.042969-5.699219-10.519531 1.285157-4.472656 5.921875-7.089844 10.414063-5.882812 2.617187.746093 64.378906 19.226562 91.085937 99.371093.863281 2.605469.429688 5.464844-1.175781 7.6875-1.601562 2.226563-4.175781 3.546875-6.917969 3.550781zm0 0"/></g></svg>