<svg height="512pt" viewBox="0 0 512.13678 512" width="512pt" xmlns="http://www.w3.org/2000/svg"><path d="m503.539062 246.167969c0 3.5-.085937 6.914062-.339843 10.414062-.390625 8.316407-1.246094 16.605469-2.5625 24.832031-3.03125 17.609376-7.894531 34.855469-14.507813 51.453126-5.824218 14.980468-12.992187 29.40625-21.417968 43.09375-2.984376 4.949218-6.144532 9.730468-9.472657 14.507812-45.054687 64.9375-117.503906 113.066406-199.167969 113.066406-81.746093 0-154.28125-48.214844-199.25-113.238281-3.328124-4.691406-6.402343-9.472656-9.386718-14.335937-8.425782-13.6875-15.59375-28.113282-21.421875-43.09375-6.609375-16.597657-11.472657-33.84375-14.503907-51.453126-1.316406-8.226562-2.171874-16.515624-2.5625-24.832031-.253906-3.5-.339843-6.914062-.339843-10.414062 0-5.460938.257812-10.75.683593-15.957031.621094-8.511719 1.933594-16.957032 3.925782-25.257813 4.046875-17.988281 11.304687-35.097656 21.417968-50.515625-17.324218-27.222656-36.949218-76.546875-18.773437-145.835938 0 0 72.703125 0 136.960937 65.023438 9.128907-2.644531 18.515626-4.949219 28.242188-6.824219 24.71875-4.769531 49.839844-7.113281 75.007812-7 25.171876-.113281 50.292969 2.230469 75.007813 7 9.730469 1.875 19.117187 4.179688 28.246094 6.824219h.085937c64.171875-65.023438 136.875-65.023438 136.875-65.023438 18.175782 69.289063-1.449218 118.613282-18.773437 145.835938 10.113281 15.417969 17.367187 32.527344 21.417969 50.515625 1.992187 8.300781 3.304687 16.746094 3.925781 25.257813.425781 5.121093.683593 10.496093.683593 15.957031zm0 0" fill="#e8edfc"/><path d="m503.539062 246.167969c0 3.5-.085937 6.914062-.339843 10.414062-.390625 8.316407-1.246094 16.609375-2.5625 24.832031-3.03125 17.609376-7.894531 34.855469-14.507813 51.453126-5.824218 14.980468-12.992187 29.40625-21.417968 43.09375-2.984376 4.949218-6.144532 9.730468-9.472657 14.507812-45.054687 64.9375-117.503906 113.066406-199.167969 113.066406-4.265624 0-8.617187-.171875-12.796874-.425781 76.457031-4.695313 143.699218-51.117187 186.367187-112.640625 3.328125-4.777344 6.484375-9.558594 9.472656-14.507812 8.421875-13.6875 15.589844-28.113282 21.417969-43.09375.253906-.511719.425781-1.109376.683594-1.621094 2.984375-7.679688 5.546875-15.445313 7.765625-23.210938.082031-.167968.082031-.425781.167969-.597656 2.457031-8.554688 4.425781-17.246094 5.890624-26.023438 0-.171874.082032-.34375.082032-.515624 1.25-8.054688 2.074218-16.175782 2.476562-24.316407.253906-3.5.339844-6.914062.339844-10.414062 0-5.460938-.253906-10.835938-.679688-15.957031 0-.339844-.085937-.597657-.085937-.9375-.621094-7.640626-1.789063-15.226563-3.5-22.699219-.074219-.546875-.1875-1.089844-.339844-1.621094-4.050781-17.988281-11.308593-35.097656-21.421875-50.515625 17.070313-26.796875 36.355469-75.09375 19.542969-142.765625 8.167969-1.761719 16.480469-2.792969 24.832031-3.070313 18.175782 69.289063-1.449218 118.613282-18.773437 145.835938 10.113281 15.417969 17.367187 32.527344 21.417969 50.515625 1.992187 8.300781 3.304687 16.746094 3.925781 25.257813.425781 5.121093.683593 10.496093.683593 15.957031zm0 0" fill="#cad9fc"/><path d="m205.238281 291.214844s-57.921875 28.855468-90.964843 6.828125c-33.039063-22.03125-28.679688-86.59375-28.679688-86.59375s57.921875-28.855469 90.964844-6.824219c33.039062 22.027344 28.679687 86.589844 28.679687 86.589844zm0 0" fill="#fff"/><path d="m398.40625 298.050781c-33.023438 22.019531-90.964844-6.824219-90.964844-6.824219-.820312-17.371093 1.078125-34.761718 5.632813-51.542968 3.351562-13.816406 11.332031-26.074219 22.613281-34.730469.101562-.15625.25-.277344.425781-.339844 33.109375-22.015625 90.964844 6.824219 90.964844 6.824219s4.355469 64.597656-28.671875 86.613281zm0 0" fill="#fff"/><path d="m90.441406 101.273438c-21.265625 14.699218-40.097656 32.636718-55.808594 53.164062-2.972656-4.578125-5.652343-9.335938-8.023437-14.25-14.503906-28.757812-26.109375-73.046875-10.75-131.585938h1.363281c.855469.425782 7.085938 3.667969 15.957032 9.214844.386718.34375.816406.628906 1.28125.855469 18.175781 11.691406 46.25 32.851563 61.355468 60.160156 4.285156 7.742188 1.953125 17.476563-5.375 22.441407zm0 0" fill="#7facfa"/><path d="m488.09375 134.894531c-3.0625 6.753907-6.597656 13.285157-10.582031 19.542969-15.710938-20.527344-34.542969-38.464844-55.808594-53.164062-7.328125-4.964844-9.660156-14.699219-5.375-22.441407 4.152344-7.433593 9.074219-14.414062 14.675781-20.824219l.085938-.082031c18.28125-19.933593 39.839844-36.589843 63.746094-49.238281h.085937c.851563-.085938 1.363281-.085938 1.363281-.085938 12.277344 41.742188 9.375 86.484376-8.191406 126.292969zm0 0" fill="#7facfa"/><path d="m488.09375 134.894531c-5.613281-7.078125-11.597656-13.855469-17.921875-20.308593-10.917969-11.3125-22.957031-21.488282-35.921875-30.378907-7.332031-4.964843-9.664062-14.699219-5.378906-22.441406.683594-1.28125 1.453125-2.476563 2.132812-3.757813l.085938-.082031c12.566406-13.980469 26.875-26.285156 42.582031-36.609375 11.347656-7.507812 19.882813-11.945312 21.164063-12.628906h.085937c.851563-.085938 1.363281-.085938 1.363281-.085938 12.28125 41.742188 9.378906 86.488282-8.191406 126.292969zm0 0" fill="#7facfa"/><path d="m470.171875 114.585938c-10.917969-11.3125-22.957031-21.488282-35.921875-30.378907-7.332031-4.964843-9.664062-14.699219-5.378906-22.441406.683594-1.28125 1.453125-2.476563 2.132812-3.757813l.085938-.082031c12.566406-13.980469 26.875-26.285156 42.582031-36.609375 6.761719 30.882813 5.558594 62.980469-3.5 93.269532zm0 0" fill="#a4c2f7"/><path d="m24.050781 134.894531c15.296875-19.507812 33.449219-36.597656 53.84375-50.6875 7.328125-4.964843 9.660157-14.699219 5.378907-22.441406-.683594-1.28125-1.453126-2.476563-2.132813-3.757813l-.085937-.082031c-18.28125-19.933593-39.839844-36.589843-63.746094-49.238281h-.085938c-.851562-.085938-1.363281-.085938-1.363281-.085938-12.28125 41.742188-9.378906 86.484376 8.191406 126.292969zm0 0" fill="#a4c2f7"/><path d="m281.671875 136.601562c0-4.710937-11.460937-8.53125-25.601563-8.53125-14.136718 0-25.597656 3.820313-25.597656 8.53125 0 4.714844 11.460938 8.535157 25.597656 8.535157 14.140626 0 25.601563-3.820313 25.601563-8.535157zm0 0" fill="#a4c2f7"/><path d="m307.273438 102.46875c0-4.714844-22.925782-8.535156-51.203126-8.535156-28.273437 0-51.199218 3.820312-51.199218 8.535156 0 4.710938 22.925781 8.53125 51.199218 8.53125 28.277344 0 51.203126-3.820312 51.203126-8.53125zm0 0" fill="#a4c2f7"/><path d="m331.078125 66.800781c-7.59375 5.800781-38.3125 10.066407-75.007813 10.066407-36.691406 0-67.410156-4.265626-75.007812-10.066407 24.71875-4.769531 49.839844-7.113281 75.007812-7 25.171876-.113281 50.292969 2.230469 75.007813 7zm0 0" fill="#f0c419"/><path d="m59.804688 217.667969c0 7.082031-19.113282 12.800781-42.664063 12.800781-2.648437 0-5.292969-.085938-7.851563-.257812.621094-8.511719 1.933594-16.957032 3.925782-25.257813 1.277344-.085937 2.558594-.085937 3.925781-.085937 23.550781 0 42.664063 5.71875 42.664063 12.800781zm0 0" fill="#a4c2f7"/><path d="m68.339844 268.867188c0 7.082031-20.992188 12.800781-46.933594 12.800781-3.414062 0-6.742188-.085938-9.898438-.253907-1.316406-8.226562-2.171874-16.515624-2.5625-24.832031 4.011719-.34375 8.109376-.511719 12.460938-.511719 25.941406 0 46.933594 5.714844 46.933594 12.796876zm0 0" fill="#a4c2f7"/><path d="m76.871094 320.070312c0 7.082032-22.78125 12.710938-50.859375 12.796876-3.355469-8.304688-6.230469-16.792969-8.617188-25.429688 2.644531-.082031 5.460938-.167969 8.277344-.167969 28.246094 0 51.199219 5.714844 51.199219 12.800781zm0 0" fill="#a4c2f7"/><path d="m477.171875 229.273438c-14.679687-1.960938-24.832031-6.398438-24.832031-11.605469 0-4.777344 8.53125-8.875 21.332031-11.09375 1.710937 7.472656 2.878906 15.058593 3.5 22.699219zm0 0" fill="#a4c2f7"/><path d="m502.855469 230.210938c-2.558594.171874-5.203125.257812-7.851563.257812-5.964844.015625-11.921875-.382812-17.832031-1.195312-.621094-7.640626-1.789063-15.226563-3.5-22.699219 7.050781-1.179688 14.1875-1.75 21.332031-1.707031 1.367188 0 2.648438 0 3.925782.085937 1.992187 8.300781 3.304687 16.746094 3.925781 25.257813zm0 0" fill="#7facfa"/><path d="m477.597656 256.582031c-.402344 8.140625-1.226562 16.261719-2.476562 24.316407-18.257813-1.703126-31.316406-6.484376-31.316406-12.03125 0-5.800782 14.25-10.75 33.792968-12.285157zm0 0" fill="#a4c2f7"/><path d="m503.199219 256.582031c-.390625 8.316407-1.246094 16.609375-2.5625 24.832031-3.15625.167969-6.484375.253907-9.898438.253907-5.214843.015625-10.425781-.242188-15.617187-.769531 1.25-8.054688 2.074218-16.175782 2.476562-24.316407 4.179688-.34375 8.617188-.511719 13.140625-.511719 4.351563 0 8.449219.167969 12.460938.511719zm0 0" fill="#7facfa"/><path d="m468.980469 308.035156c-2.21875 7.765625-4.78125 15.53125-7.765625 23.210938-15.53125-2.21875-25.941406-6.398438-25.941406-11.175782 0-5.546874 14.078124-10.242187 33.707031-12.035156zm0 0" fill="#a4c2f7"/><path d="m494.75 307.4375c-2.386719 8.636719-5.265625 17.125-8.621094 25.429688-8.332031.027343-16.65625-.515626-24.914062-1.621094 2.984375-7.679688 5.546875-15.445313 7.765625-23.210938 5.460937-.511718 11.347656-.765625 17.492187-.765625 2.816406 0 5.632813.085938 8.277344.167969zm0 0" fill="#7facfa"/><path d="m196.339844 251.800781c0-30.632812-21.015625-55.464843-46.933594-55.464843-25.921875 0-46.933594 24.832031-46.933594 55.464843 0 30.632813 21.011719 55.46875 46.933594 55.46875 25.917969 0 46.933594-24.835937 46.933594-55.46875zm0 0" fill="#fff"/><path d="m409.671875 251.800781c0-30.632812-21.011719-55.464843-46.933594-55.464843s-46.933593 24.832031-46.933593 55.464843c0 30.632813 21.011718 55.46875 46.933593 55.46875s46.933594-24.835937 46.933594-55.46875zm0 0" fill="#fff"/><path d="m170.738281 251.800781c0-30.632812-9.550781-55.464843-21.332031-55.464843s-21.335938 24.832031-21.335938 55.464843c0 30.632813 9.554688 55.46875 21.335938 55.46875s21.332031-24.835937 21.332031-55.46875zm0 0" fill="#7facfa"/><path d="m384.070312 251.800781c0-30.632812-9.550781-55.464843-21.332031-55.464843s-21.332031 24.832031-21.332031 55.464843c0 30.632813 9.550781 55.46875 21.332031 55.46875s21.332031-24.835937 21.332031-55.46875zm0 0" fill="#7facfa"/><path d="m296.582031 337.421875-33.828125 35.339844c-1.769531 1.773437-4.175781 2.773437-6.683594 2.773437-2.503906 0-4.910156-1-6.679687-2.773437l-33.828125-35.339844c-1.644531-1.613281-2.410156-3.914063-2.0625-6.1875.664062-3.46875 3.410156-6.164063 6.894531-6.757813.636719-.082031 1.277344-.128906 1.917969-.140624h67.519531c.640625.011718 1.28125.058593 1.917969.140624 3.484375.59375 6.230469 3.289063 6.894531 6.757813.347657 2.273437-.421875 4.574219-2.0625 6.1875zm0 0" fill="#a4c2f7"/><path d="m281.671875 42.734375 52.800781-23.464844c5.28125-2.347656 11.386719-1.863281 16.230469 1.285157 4.847656 3.148437 7.769531 8.53125 7.769531 14.308593v49.878907c0 5.777343-2.921875 11.164062-7.769531 14.308593-4.84375 3.148438-10.953125 3.632813-16.234375 1.285157l-52.796875-23.46875h-51.199219l-52.800781 23.46875c-5.28125 2.34375-11.386719 1.863281-16.234375-1.285157-4.84375-3.148437-7.765625-8.535156-7.765625-14.308593v-49.878907c0-5.777343 2.921875-11.160156 7.765625-14.308593 4.84375-3.144532 10.949219-3.628907 16.230469-1.285157l52.804687 23.464844zm0 0" fill="#cad9fc"/><path d="m239 34.203125h34.132812c4.714844 0 8.535157 3.820313 8.535157 8.53125v34.132813c0 4.714843-3.820313 8.535156-8.535157 8.535156h-34.132812c-4.710938 0-8.53125-3.820313-8.53125-8.535156v-34.132813c0-4.710937 3.820312-8.53125 8.53125-8.53125zm0 0" fill="#e8edfc"/><path d="m31.277344 148.910156c1.121094 1.929688 2.242187 3.777344 3.355468 5.527344-10.113281 15.417969-17.371093 32.527344-21.417968 50.515625-1.992188 8.300781-3.304688 16.746094-3.925782 25.257813-.425781 5.207031-.683593 10.496093-.683593 15.957031 0 3.5.085937 6.914062.339843 10.414062.390626 8.316407 1.242188 16.609375 2.5625 24.832031 3.03125 17.609376 7.890626 34.855469 14.503907 51.453126 5.828125 14.980468 12.996093 29.40625 21.421875 43.09375 2.984375 4.863281 6.058594 9.644531 9.386718 14.335937 42.664063 61.691406 110.152344 108.167969 186.769532 112.78125l-.316406.03125c4.179687.253906 8.53125.425781 12.796874.425781 4.300782 0 8.558594-.207031 12.808594-.46875-76.488281-4.71875-143.851562-51.15625-186.460937-112.769531-3.328125-4.691406-6.398438-9.472656-9.386719-14.335937-8.421875-13.6875-15.589844-28.113282-21.417969-43.09375-6.613281-16.597657-11.476562-33.84375-14.507812-51.453126-1.316407-8.222656-2.171875-16.515624-2.558594-24.832031-.257813-3.5-.339844-6.914062-.339844-10.414062 0-5.460938.253907-10.75.679688-15.957031.625-8.511719 1.9375-16.957032 3.925781-25.257813 4.050781-17.988281 11.304688-35.097656 21.417969-50.515625-1.109375-1.75-2.234375-3.597656-3.355469-5.527344-.59375-1.023437-1.167969-2.089844-1.753906-3.164062-1.859375-3.375-3.691406-6.984375-5.460938-10.855469l-.007812.003906c-.128906-.28125-.253906-.582031-.378906-.863281-1.035157-2.292969-2.039063-4.667969-3.015626-7.128906-.480468-1.210938-.964843-2.40625-1.425781-3.65625-.359375-.96875-.691406-1.976563-1.039062-2.96875-.457031-1.308594-.910157-2.617188-1.34375-3.96875-.097657-.308594-.199219-.605469-.296875-.914063-.25-.796875-.480469-1.613281-.722656-2.425781-.332032-1.117188-.664063-2.238281-.976563-3.382812-.191406-.695313-.375-1.402344-.5625-2.105469-.195313-.75-.386719-1.496094-.578125-2.253907-.214844-.882812-.425781-1.773437-.632812-2.671874-.246094-1.066407-.472657-2.15625-.699219-3.246094-.058594-.277344-.125-.550782-.183594-.832032-.09375-.46875-.207031-.917968-.296875-1.386718-.121094-.617188-.21875-1.253906-.332031-1.878906-.222657-1.203126-.429688-2.429688-.628907-3.660157-.160156-.992187-.328124-1.980469-.476562-2.992187-.074219-.527344-.144531-1.0625-.214844-1.59375-.15625-1.140625-.289062-2.300782-.425781-3.460938-.148437-1.292968-.285156-2.601562-.40625-3.925781v-.027344c-.054687-.617187-.136719-1.210937-.1875-1.832031-.070313-.84375-.109375-1.707031-.171875-2.5625-.082031-1.273438-.152344-2.5625-.210938-3.859375-.054687-1.144531-.132812-2.269531-.164062-3.429687-.011719-.460938 0-.9375-.011719-1.398438-.023437-1.234375-.023437-2.492188-.023437-3.742188 0-1.640624 0-3.28125.039062-4.949218.011719-.460938.007813-.910156.023438-1.375.027344-.839844.101562-1.71875.140625-2.570313.085937-1.8125.164062-3.621093.296875-5.472656.042968-.59375.09375-1.1875.144531-1.78125.082031-1.0625.203125-2.144531.308594-3.222656.148437-1.496094.28125-2.988281.464843-4.507813.121094-.996094.28125-2.023437.417969-3.03125.164063-1.242187.332031-2.476562.523438-3.734375.15625-1.011719.292969-2.011719.464843-3.035156.246094-1.484375.566407-3.011719.851563-4.515625l.074219-.394531c.234375-1.214844.429687-2.40625.683594-3.636719.105468-.511719.199218-1.019531.308593-1.535156.515625-2.375 1.117188-4.808594 1.71875-7.234375-7.707031-1.640625-15.53125-2.667969-23.398437-3.085938l-.085938-.042969h-1.363281c-.917969 3.511719-1.742187 6.96875-2.464844 10.371094-.109375.515625-.203125 1.023438-.3125 1.535156-.253906 1.226563-.453125 2.421876-.679687 3.636719l-.078125.394531c-.28125 1.503907-.59375 3.03125-.851563 4.515626-.171875 1.023437-.308594 2.023437-.464844 3.035156-.191406 1.257812-.355468 2.492187-.523437 3.734375-.136719 1.007812-.296875 2.035156-.417969 3.035156-.183594 1.519531-.316406 3.007813-.464844 4.503906-.105468 1.078125-.222656 2.160157-.3125 3.222657-.046874.597656-.097656 1.191406-.140624 1.78125-.132813 1.851562-.214844 3.664062-.296876 5.476562-.039062.851562-.113281 1.726562-.140624 2.566406-.015626.464844-.015626.914063-.023438 1.375-.042969 1.671875-.042969 3.3125-.039062 4.949219 0 1.253906 0 2.507813.023437 3.742187.007813.460938 0 .9375.011719 1.398438.03125 1.164062.109375 2.285156.164062 3.429688.058594 1.296874.125 2.589843.210938 3.859374.058594.855469.097656 1.71875.171875 2.5625.050781.621094.132812 1.214844.1875 1.832032v.027344c.121093 1.320312.257812 2.628906.40625 3.925781.132812 1.164062.269531 2.320312.425781 3.460937.070312.53125.140625 1.066406.214844 1.59375.144531 1.011719.316406 2 .476562 2.992188.199219 1.234375.402344 2.457031.625 3.660156.117188.621094.214844 1.261719.335938 1.878906.089844.472656.203125.917969.296875 1.386719.058593.28125.125.554687.179687.832031.230469 1.089844.457032 2.179688.703125 3.25.207031.894532.417969 1.789063.632813 2.667969.1875.761719.382812 1.503906.578125 2.253906.1875.707031.371093 1.410157.558593 2.105469.316407 1.148438.648438 2.265625.980469 3.382812.242188.8125.472657 1.628907.722657 2.425782.097656.308594.199218.609375.296874.914062.433594 1.351563.886719 2.660156 1.34375 3.96875.347657.992188.683594 2 1.039063 2.96875.460937 1.25.945313 2.445313 1.425781 3.65625.976563 2.460938 1.980469 4.835938 3.015625 7.128906.125.28125.25.585938.375.863282l.007813-.003906c1.773437 3.871093 3.605468 7.484374 5.460937 10.855468.589844 1.066406 1.164063 2.132813 1.757813 3.15625zm0 0" fill="#fff"/><path d="m17.140625 246.167969c.8125 35.800781 9.546875 70.976562 25.570313 103 1.238281 2.558593 2.359374 5.171875 3.691406 7.679687l4.300781 7.375c2.945313 4.863282 5.539063 9.949219 8.761719 14.640625 6.277344 9.5 13.117187 18.617188 20.480468 27.300781 7.296876 8.730469 15.09375 17.027344 23.355469 24.855469 4.164063 3.859375 8.660157 7.351563 12.96875 11.054688l6.523438 5.480469 7 4.84375c18.359375 13.285156 38.574219 23.792968 59.996093 31.191406 21.378907 7.179687 43.734376 11.027344 66.28125 11.410156v17.070312c-24.425781-.382812-48.648437-4.539062-71.804687-12.324218-22.984375-7.933594-44.675781-19.199219-64.378906-33.441406l-7.457031-5.183594-6.953126-5.824219c-4.589843-3.929687-9.367187-7.664063-13.792968-11.773437-8.773438-8.300782-17.054688-17.105469-24.804688-26.371094-7.804687-9.210938-15.050781-18.878906-21.703125-28.953125-3.410156-4.976563-6.1875-10.363281-9.304687-15.527344l-4.546875-7.832031c-1.414063-2.664063-2.621094-5.445313-3.9375-8.160156-17.175781-34.359376-26.503907-72.105469-27.3164065-110.511719zm0 0" fill="#fff"/><g fill="#428dff"><path d="m13.003906 288.550781c4.558594-.878906 7.652344-5.148437 7.0625-9.757812-1.722656-10.792969-2.699218-21.695313-2.925781-32.625h-17.0703125c.2304685 11.824219 1.2812495 23.613281 3.1445315 35.289062.304687 2.265625 1.523437 4.304688 3.375 5.644531 1.847656 1.339844 4.167968 1.863282 6.414062 1.449219zm0 0"/><path d="m256.070312 512.070312v-17.070312c-22.546874-.378906-44.90625-4.226562-66.285156-11.402344-21.421875-7.398437-41.636718-17.910156-59.996094-31.195312l-6.996093-4.839844-6.523438-5.484375c-4.308593-3.699219-8.804687-7.191406-12.972656-11.054687-8.257813-7.824219-16.054687-16.125-23.351563-24.855469-7.367187-8.679688-14.203124-17.796875-20.480468-27.296875-3.222656-4.691406-5.816406-9.777344-8.761719-14.644532l-4.300781-7.371093c-1.332032-2.511719-2.453125-5.128907-3.691406-7.679688l-3.53125-7.484375c-2.121094-4.136718-7.054688-5.96875-11.363282-4.21875-2.105468.867188-3.753906 2.578125-4.546875 4.714844-.796875 2.136719-.664062 4.507812.363281 6.542969l3.753907 7.953125c1.316406 2.71875 2.519531 5.496094 3.933593 8.160156l4.550782 7.832031c3.117187 5.164063 5.894531 10.550781 9.300781 15.53125 6.652344 10.070313 13.902344 19.738281 21.707031 28.945313 7.75 9.265625 16.027344 18.070312 24.800782 26.375 4.425781 4.105468 9.203124 7.839844 13.789062 11.777344l6.957031 5.820312 7.457031 5.183594c19.703126 14.242187 41.394532 25.511718 64.378907 33.441406 23.15625 7.78125 47.382812 11.9375 71.808593 12.320312zm0 0"/><path d="m27.339844 310.875c-.59375-2.105469-1.984375-3.894531-3.875-4.992188l-1.492188-.625c-.539062-.179687-1.105468-.289062-1.675781-.328124-.53125-.105469-1.074219-.132813-1.613281-.082032-.566406.054688-1.132813.148438-1.6875.277344-2.1875.621094-4.050782 2.066406-5.199219 4.027344-.535156 1.027344-.867187 2.140625-.984375 3.289062-.503906 3.539063 1.320312 7 4.519531 8.589844 1.035157.480469 2.15625.757812 3.292969.816406 1.121094.085938 2.246094-.050781 3.308594-.402344 2.101562-.757812 3.847656-2.265624 4.898437-4.234374.859375-2 1.039063-4.226563.507813-6.335938zm0 0"/><path d="m8.597656 254.703125c-4.714844 0-8.535156-3.820313-8.535156-8.535156-.519531-32.28125 7.96875-64.070313 24.519531-91.796875-18.28125-30.824219-34.703125-80.367188-16.976562-147.9375.984375-3.75 4.375-6.3632815 8.253906-6.3632815 3.082031 0 75.484375.7421875 140.957031 65.4843755 3.257813 1.332031 5.359375 4.53125 5.285156 8.050781-.074218 3.515625-2.308593 6.625-5.617187 7.816406-.152344.054687-.75.238281-.910156.285156-3.101563.898438-6.449219.109375-8.824219-2.082031-33.117188-34.300781-77-56.203125-124.320312-62.046875-14.183594 61.550781 2.507812 105.730469 19.402343 132.273437 1.800781 2.832032 1.773438 6.457032-.070312 9.261719-16.632813 25.949219-25.203125 56.242188-24.632813 87.054688 0 2.265625-.898437 4.433593-2.5 6.035156-1.597656 1.601563-3.769531 2.5-6.03125 2.5zm0 0"/><path d="m256.0625 512.070312c-4.710938 0-8.53125-3.824218-8.53125-8.535156 0-4.714844 3.820312-8.535156 8.53125-8.535156 134.558594 0 238.933594-133.761719 238.933594-248.832031.578125-30.8125-7.992188-61.105469-24.625-87.050781-1.839844-2.808594-1.867188-6.433594-.066406-9.265626 16.898437-26.535156 33.582031-70.722656 19.402343-132.273437-47.296875 5.839844-91.148437 27.746094-124.226562 62.046875-2.351563 2.292969-5.777344 3.097656-8.898438 2.085938l-.859375-.253907c-3.457031-1.167969-5.789062-4.402343-5.800781-8.050781-.015625-3.648438 2.289063-6.902344 5.734375-8.097656 65.324219-64.488282 137.550781-65.2382815 140.625-65.2382815 3.875 0 7.265625 2.6132815 8.25 6.3632815 17.722656 67.570312 1.308594 117.113281-16.976562 147.9375 16.542968 27.726562 25.03125 59.515625 24.507812 91.796875 0 122.96875-111.824219 265.902343-256 265.902343zm0 0"/><path d="m145.628906 314.832031c-12.726562.417969-25.289062-2.953125-36.09375-9.6875-36.730468-24.484375-32.65625-91.429687-32.464844-94.269531.207032-3.019531 2-5.707031 4.710938-7.058594 2.550781-1.277344 62.773438-30.785156 99.507812-6.292968 36.734376 24.492187 32.65625 91.429687 32.464844 94.265624-.207031 3.023438-1.996094 5.707032-4.707031 7.0625-19.835937 9.570313-41.414063 15.007813-63.417969 15.980469zm-51.671875-97.863281c-.175781 14.734375 1.40625 58.214844 25.046875 73.972656 21.652344 14.433594 60.007813 2.574219 77.867188-5.242187.171875-14.734375-1.414063-58.21875-25.046875-73.976563-21.660157-14.433594-60.011719-2.570312-77.867188 5.246094zm0 0"/><path d="m367.0625 314.832031c-22.003906-.972656-43.578125-6.410156-63.414062-15.980469-2.710938-1.351562-4.503907-4.039062-4.710938-7.0625-.191406-2.835937-4.265625-69.78125 32.46875-94.265624 36.714844-24.480469 96.949219 5.019531 99.507812 6.292968 2.710938 1.351563 4.5 4.039063 4.707032 7.058594.191406 2.839844 4.257812 69.78125-32.464844 94.269531-10.804688 6.730469-23.367188 10.105469-36.09375 9.6875zm-51.300781-29.214843c13.535156 5.820312 54.273437 21.089843 77.925781 5.324218 21.644531-14.425781 25.453125-54.394531 25.109375-73.898437-13.53125-5.820313-54.273437-21.082031-77.925781-5.324219-21.652344 14.433594-25.457032 54.398438-25.109375 73.898438zm0 0"/><path d="m149.398438 314.863281c-.328126-.003906-.652344-.023437-.976563-.058593-.511719-.003907-1.023437-.058594-1.523437-.152344-18.800782-2.773438-27.367188-34.894532-27.367188-63.789063 0-23.859375 5.867188-54.480469 22.398438-62.253906 2.710937-1.277344 5.890624-1.039063 8.375.632813 2.589843-1.328126 5.679687-1.234376 8.183593.242187 15.332031 8.96875 20.773438 38.671875 20.773438 61.378906 0 29.03125-8.183594 59.972657-26.464844 63.664063-.214844.039062-.433594.074218-.648437.101562l-.160157.023438c-.855469.152344-1.722656.226562-2.589843.210937zm-.160157-17.132812.125.011719c.132813-.023438.273438-.042969.410157-.058594 3.988281-1.667969 12.421874-18.425782 12.421874-46.820313 0-25.734375-7.15625-43.628906-12.324218-46.652343-.148438-.085938-.289063-.175782-.433594-.273438l-.242188.121094c-4.257812 1.996094-12.597656 18.261718-12.597656 46.804687 0 30.734375 9.382813 45.855469 12.640625 46.867188zm0 0"/><path d="m362.730469 314.863281c-.710938.007813-1.417969-.046875-2.117188-.164062-.585937-.042969-1.171875-.128907-1.75-.253907-18.140625-4.875-26-35.414062-26-63.582031 0-22.484375 5.367188-52.015625 20.480469-61.222656 2.554688-1.550781 5.738281-1.65625 8.390625-.277344 2.554687-1.804687 5.886719-2.070312 8.691406-.6875 16.359375 8.042969 22.167969 38.527344 22.167969 62.1875 0 29.085938-8.617188 61.273438-27.53125 63.800781-.769531.144532-1.550781.210938-2.332031.199219zm-1.167969-16.890625h-.007812zm.699219-.320312c.226562.015625.445312.039062.660156.074218 3.207031-.910156 12.609375-15.980468 12.609375-46.863281 0-26.183593-7.46875-44.332031-12.628906-46.871093l-.183594-.097657c-.160156.113281-.316406.222657-.484375.324219-4.957031 3.019531-12.300781 19.933594-12.300781 46.644531-.003906 27.171875 7.878906 44.554688 12.328125 46.789063zm0 0"/><path d="m256.0625 384.070312c-4.84375.019532-9.484375-1.929687-12.867188-5.398437l-33.816406-35.367187c-4.484375-4.542969-5.761718-11.355469-3.230468-17.21875 2.820312-6.347657 9.160156-10.394532 16.105468-10.285157h67.625c6.949219-.113281 13.289063 3.9375 16.113282 10.285157 2.53125 5.863281 1.253906 12.675781-3.234376 17.222656l-33.808593 35.355468c-3.382813 3.476563-8.035157 5.425782-12.886719 5.40625zm-33.058594-51.203124 32.519532 34.011718c.34375.175782.753906.171875 1.097656-.011718l32.902344-34.410157zm0 0"/><path d="m311.980469 443.800781c-17.019531.683594-32.980469-8.253906-41.292969-23.125-5.324219-7.535156-8-10.921875-14.617188-11.007812-6.363281.085937-9.03125 3.441406-14.355468 10.914062-8.410156 14.914063-24.449219 23.878907-41.558594 23.21875-18.59375 2.160157-36.359375-8.277343-43.527344-25.566406-7.171875-17.289063-2.003906-37.234375 12.660156-48.867187 3.40625-3.257813 8.808594-3.136719 12.066407.269531 3.257812 3.40625 3.136719 8.808593-.265625 12.066406-8.773438 7.144531-12.269532 18.933594-8.816406 29.707031 5.214843 10.398438 16.308593 16.5 27.882812 15.324219 11.605469.660156 22.488281-5.65625 27.671875-16.0625 5.410156-10.382813 15.816406-17.21875 27.5-18.058594.242187-.011719.492187-.011719.742187-.011719s.484376.003907.726563.011719c11.828125.773438 22.390625 7.679688 27.832031 18.210938 5.089844 10.320312 15.863282 16.589843 27.351563 15.910156 11.574219 1.175781 22.671875-4.921875 27.882812-15.324219 3.453125-10.773437-.046875-22.5625-8.816406-29.707031-3.40625-3.257813-3.527344-8.660156-.265625-12.066406 3.257812-3.40625 8.660156-3.527344 12.066406-.269531 14.660156 11.632812 19.828125 31.578124 12.660156 48.867187-7.167968 17.289063-24.9375 27.722656-43.527343 25.566406zm0 0"/><path d="m256.0625 409.667969c-4.710938 0-8.53125-3.820313-8.53125-8.53125v-25.601563c0-4.714844 3.820312-8.535156 8.53125-8.535156 4.714844 0 8.535156 3.820312 8.535156 8.535156v25.601563c0 4.710937-3.820312 8.53125-8.535156 8.53125zm0 0"/><path d="m204.855469 187.800781c-3.867188-.003906-7.25-2.609375-8.242188-6.347656-.390625-1.339844-8.484375-26.503906-58.808593-19.339844-3.050782.503907-6.132813-.683593-8.058594-3.101562-1.925782-2.417969-2.394532-5.6875-1.222656-8.550781 1.167968-2.859376 3.796874-4.863282 6.863281-5.238282 66.660156-9.550781 77.335937 30.277344 77.753906 31.976563.636719 2.546875.0625 5.25-1.554687 7.324219-1.617188 2.070312-4.101563 3.28125-6.730469 3.277343zm0 0"/><path d="m307.253906 187.726562c-.734375 0-1.46875-.097656-2.183594-.289062-4.488281-1.167969-7.199218-5.734375-6.082031-10.238281.425781-1.691407 11.140625-41.492188 77.75-31.972657 3.070313.371094 5.695313 2.375 6.867188 5.238282 1.171875 2.859375.703125 6.128906-1.222657 8.546875-1.925781 2.417969-5.011718 3.605469-8.0625 3.105469-50.539062-7.207032-58.496093 18.265624-58.816406 19.355468-1.058594 3.6875-4.417968 6.230469-8.25 6.253906zm0 0"/><path d="m34.621094 162.96875c-3.253906-.003906-6.226563-1.859375-7.65625-4.78125-1.429688-2.925781-1.074219-6.410156.925781-8.984375 16.25-21.273437 35.757813-39.847656 57.796875-55.039063 3.664062-2.480468 4.808594-7.355468 2.625-11.203124-21.984375-39.808594-74.472656-66.464844-75-66.730469-4.105469-2.167969-5.726562-7.214844-3.648438-11.367188 2.074219-4.152343 7.089844-5.882812 11.28125-3.894531 2.34375 1.175781 57.726563 29.234375 82.308594 73.746094 6.492188 11.578125 3.003906 26.195312-8.015625 33.59375-20.542969 14.179687-38.722656 31.511718-53.863281 51.359375-1.617188 2.085937-4.113281 3.308593-6.753906 3.300781zm0 0"/><path d="m477.511719 162.96875c-2.640625.007812-5.132813-1.210938-6.75-3.300781-15.140625-19.84375-33.320313-37.175781-53.867188-51.351563-11.015625-7.398437-14.507812-22.015625-8.023437-33.597656 24.59375-44.515625 79.96875-72.574219 82.308594-73.75 4.199218-2.011719 9.238281-.285156 11.320312 3.878906 2.082031 4.164063.441406 9.230469-3.6875 11.382813-.523438.265625-53.007812 26.921875-75 66.730469-2.171875 3.851562-1.027344 8.722656 2.632812 11.203124 22.042969 15.191407 41.550782 33.761719 57.800782 55.035157 2 2.570312 2.363281 6.058593.929687 8.988281-1.429687 2.925781-4.40625 4.78125-7.664062 4.78125zm0 0"/><path d="m8.589844 435.269531c-3.101563-.003906-5.960938-1.6875-7.460938-4.398437-1.5-2.714844-1.410156-6.03125.234375-8.660156 45.035157-72.074219 116.199219-64.070313 119.226563-63.675782 3.023437.375 5.621094 2.332032 6.808594 5.140625 1.1875 2.808594.789062 6.035157-1.050782 8.46875-1.835937 2.433594-4.832031 3.703125-7.859375 3.328125-2.699219-.332031-63.582031-6.726562-102.65625 55.78125-1.558593 2.5-4.296875 4.019532-7.242187 4.015625zm0 0"/><path d="m42.730469 495.007812c-2.742188-.003906-5.316407-1.328124-6.917969-3.550781-1.605469-2.226562-2.039062-5.085937-1.171875-7.6875 26.949219-80.871093 89.566406-90.699219 92.214844-91.082031 4.609375-.570312 8.828125 2.648438 9.496093 7.246094.664063 4.597656-2.472656 8.882812-7.054687 9.640625-2.332031.359375-55.007813 9.195312-78.472656 79.589843-1.160157 3.488282-4.421875 5.839844-8.09375 5.84375zm0 0"/><path d="m503.539062 435.269531c-2.945312.003907-5.683593-1.511719-7.242187-4.011719-21.058594-36.355468-60.679687-57.890624-102.640625-55.789062-3.046875.421875-6.082031-.832031-7.949219-3.273438-1.867187-2.445312-2.273437-5.703124-1.066406-8.53125 1.207031-2.828124 3.84375-4.785156 6.898437-5.128906 3.007813-.386718 74.175782-8.394531 119.226563 63.679688 1.644531 2.628906 1.734375 5.941406.230469 8.65625-1.5 2.710937-4.355469 4.394531-7.457032 4.398437zm0 0"/><path d="m469.398438 495.007812c-3.671876-.003906-6.933594-2.355468-8.09375-5.839843-23.492188-70.46875-76.25-79.25-78.484376-79.589844-4.59375-.746094-7.746093-5.039063-7.078124-9.648437.671874-4.609376 4.910156-7.832032 9.53125-7.238282 2.648437.378906 65.265624 10.207032 92.214843 91.078125.867188 2.601563.429688 5.460938-1.171875 7.6875-1.601562 2.222657-4.175781 3.546875-6.917968 3.550781zm0 0"/><path d="m273.128906 93.933594h-34.132812c-9.421875-.007813-17.054688-7.644532-17.066406-17.066406v-34.132813c.011718-9.421875 7.644531-17.054687 17.066406-17.066406h34.132812c9.421875.011719 17.058594 7.644531 17.066406 17.066406v34.132813c-.007812 9.421874-7.644531 17.058593-17.066406 17.066406zm-34.132812-51.199219v34.132813h34.144531l-.011719-34.132813zm0 0"/><path d="m170.722656 110.351562c-14.136718-.019531-25.585937-11.476562-25.59375-25.613281v-49.875c0-8.664062 4.386719-16.742187 11.652344-21.464843 7.269531-4.722657 16.429688-5.445313 24.347656-1.925782l52.800782 23.464844c2.839843 1.207031 4.808593 3.847656 5.148437 6.914062.34375 3.0625-.996094 6.074219-3.5 7.875-2.503906 1.796876-5.785156 2.105469-8.582031.804688l-52.796875-23.46875c-2.640625-1.171875-5.695313-.929688-8.121094.644531-2.421875 1.574219-3.882813 4.269531-3.882813 7.15625v49.875c0 2.890625 1.460938 5.582031 3.882813 7.160157 2.425781 1.574218 5.480469 1.816406 8.121094.640624l52.796875-23.464843c2.796875-1.304688 6.078125-.996094 8.582031.804687 2.503906 1.800782 3.84375 4.808594 3.5 7.875-.339844 3.0625-2.308594 5.707032-5.148437 6.910156l-52.800782 23.46875c-3.273437 1.460938-6.820312 2.21875-10.40625 2.21875zm0 0"/><path d="m341.414062 110.351562c-3.585937 0-7.132812-.757812-10.410156-2.21875l-52.808594-23.464843c-4.308593-1.917969-6.246093-6.960938-4.332031-11.269531 1.914063-4.308594 6.957031-6.246094 11.265625-4.332032l52.808594 23.464844c2.636719 1.175781 5.691406.933594 8.113281-.640625s3.878907-4.265625 3.878907-7.152344v-49.875c0-2.886719-1.460938-5.578125-3.878907-7.152343-2.421875-1.574219-5.472656-1.820313-8.113281-.648438l-52.808594 23.472656c-4.304687 1.914063-9.351562-.027344-11.265625-4.332031-1.914062-4.308594.027344-9.355469 4.335938-11.269531l52.804687-23.464844c7.917969-3.519531 17.082032-2.789062 24.34375 1.929688 7.265625 4.722656 11.648438 12.800781 11.648438 21.464843v49.875c-.003906 14.132813-11.449219 25.589844-25.582032 25.613281zm0 0"/><path d="m84.039062 220.050781c-6.195312.132813-12.234374-1.96875-17.007812-5.929687-4.914062-4.574219-7.558594-11.082032-7.234375-17.785156 0-4.714844 3.820313-8.535157 8.535156-8.535157 4.710938 0 8.53125 3.820313 8.53125 8.535157-.203125 1.8125.339844 3.632812 1.507813 5.035156 1.871094 1.242187 4.113281 1.804687 6.351562 1.59375 4.632813-.414063 8.746094 2.960937 9.242188 7.589844.5 4.625-2.800782 8.796874-7.417969 9.378906-.832031.082031-1.667969.125-2.507813.117187zm0 0"/><path d="m428.089844 220.050781c-.835938.003907-1.671875-.035156-2.5-.121093-4.644532-.554688-7.980469-4.742188-7.472656-9.394532.503906-4.648437 4.660156-8.027344 9.3125-7.570312 2.230468.214844 4.464843-.347656 6.324218-1.59375 1.167969-1.402344 1.710938-3.222656 1.507813-5.035156 0-4.714844 3.824219-8.535157 8.535156-8.535157s8.535156 3.820313 8.535156 8.535157c.324219 6.707031-2.324219 13.214843-7.234375 17.792968-4.773437 3.953125-10.8125 6.058594-17.007812 5.921875zm0 0"/></g></svg>