<svg height="512pt" viewBox="0 0 512.13678 512" width="512pt" xmlns="http://www.w3.org/2000/svg"><path d="m503.539062 246.167969c0 3.5-.085937 6.914062-.339843 10.414062-.390625 8.316407-1.246094 16.605469-2.5625 24.832031-3.03125 17.609376-7.894531 34.855469-14.507813 51.453126-5.824218 14.980468-12.992187 29.40625-21.417968 43.09375-2.984376 4.949218-6.144532 9.730468-9.472657 14.507812-45.054687 64.9375-117.503906 113.066406-199.167969 113.066406-81.746093 0-154.28125-48.214844-199.25-113.238281-3.328124-4.691406-6.402343-9.472656-9.386718-14.335937-8.425782-13.6875-15.59375-28.113282-21.421875-43.09375-6.609375-16.597657-11.472657-33.84375-14.503907-51.453126-1.316406-8.226562-2.171874-16.515624-2.5625-24.832031-.253906-3.5-.339843-6.914062-.339843-10.414062 0-5.460938.257812-10.75.683593-15.957031.621094-8.511719 1.933594-16.957032 3.925782-25.257813 4.046875-17.988281 11.304687-35.097656 21.417968-50.515625-17.324218-27.222656-36.949218-76.546875-18.773437-145.835938 0 0 72.703125 0 136.960937 65.023438 9.128907-2.644531 18.515626-4.949219 28.242188-6.824219 24.71875-4.769531 49.839844-7.113281 75.007812-7 25.171876-.113281 50.292969 2.230469 75.007813 7 9.730469 1.875 19.117187 4.179688 28.246094 6.824219h.085937c64.171875-65.023438 136.875-65.023438 136.875-65.023438 18.175782 69.289063-1.449218 118.613282-18.773437 145.835938 10.113281 15.417969 17.367187 32.527344 21.417969 50.515625 1.992187 8.300781 3.304687 16.746094 3.925781 25.257813.425781 5.121093.683593 10.496093.683593 15.957031zm0 0" fill="#f29c1f"/><path d="m205.238281 291.214844s-57.921875 28.855468-90.964843 6.828125c-33.039063-22.03125-28.679688-86.59375-28.679688-86.59375s57.921875-28.855469 90.964844-6.824219c33.039062 22.027344 28.679687 86.589844 28.679687 86.589844zm0 0" fill="#fff"/><path d="m398.40625 298.050781c-33.023438 22.019531-90.964844-6.824219-90.964844-6.824219-.820312-17.371093 1.078125-34.761718 5.632813-51.542968 3.351562-13.816406 11.332031-26.074219 22.613281-34.730469.101562-.15625.25-.277344.425781-.339844 33.109375-22.015625 90.964844 6.824219 90.964844 6.824219s4.355469 64.597656-28.671875 86.613281zm0 0" fill="#fff"/><path d="m90.441406 101.273438c-21.265625 14.699218-40.097656 32.636718-55.808594 53.164062-2.972656-4.578125-5.652343-9.335938-8.023437-14.25-14.503906-28.757812-26.109375-73.046875-10.75-131.585938h1.363281c.855469.425782 7.085938 3.667969 15.957032 9.214844.386718.34375.816406.628906 1.28125.855469 18.175781 11.691406 46.25 32.851563 61.355468 60.160156 4.285156 7.742188 1.953125 17.476563-5.375 22.441407zm0 0" fill="#df4d60"/><path d="m488.09375 134.894531c-3.0625 6.753907-6.597656 13.285157-10.582031 19.542969-15.710938-20.527344-34.542969-38.464844-55.808594-53.164062-7.328125-4.964844-9.660156-14.699219-5.375-22.441407 4.152344-7.433593 9.074219-14.414062 14.675781-20.824219l.085938-.082031c18.28125-19.933593 39.839844-36.589843 63.746094-49.238281h.085937c.851563-.085938 1.363281-.085938 1.363281-.085938 12.277344 41.742188 9.375 86.484376-8.191406 126.292969zm0 0" fill="#df4d60"/><path d="m488.09375 134.894531c-15.296875-19.507812-33.449219-36.59375-53.84375-50.6875-7.332031-4.964843-9.664062-14.699219-5.378906-22.441406.683594-1.28125 1.453125-2.476563 2.132812-3.757813l.085938-.082031c18.28125-19.933593 39.839844-36.589843 63.746094-49.238281h.085937c.851563-.085938 1.363281-.085938 1.363281-.085938 12.277344 41.742188 9.375 86.484376-8.191406 126.292969zm0 0" fill="#ff5364"/><path d="m24.050781 134.894531c15.296875-19.507812 33.449219-36.597656 53.84375-50.6875 7.328125-4.964843 9.660157-14.699219 5.378907-22.441406-.683594-1.28125-1.453126-2.476563-2.132813-3.757813l-.085937-.082031c-18.28125-19.933593-39.839844-36.589843-63.746094-49.238281h-.085938c-.851562-.085938-1.363281-.085938-1.363281-.085938-12.28125 41.742188-9.378906 86.484376 8.191406 126.292969zm0 0" fill="#ff5364"/><path d="m281.671875 136.601562c0-4.710937-11.460937-8.53125-25.601563-8.53125-14.136718 0-25.597656 3.820313-25.597656 8.53125 0 4.714844 11.460938 8.535157 25.597656 8.535157 14.140626 0 25.601563-3.820313 25.601563-8.535157zm0 0" fill="#f0c419"/><path d="m307.273438 102.46875c0-4.714844-22.925782-8.535156-51.203126-8.535156-28.273437 0-51.199218 3.820312-51.199218 8.535156 0 4.710938 22.925781 8.53125 51.199218 8.53125 28.277344 0 51.203126-3.820312 51.203126-8.53125zm0 0" fill="#f0c419"/><path d="m331.078125 66.800781c-7.59375 5.800781-38.3125 10.066407-75.007813 10.066407-36.691406 0-67.410156-4.265626-75.007812-10.066407 24.71875-4.769531 49.839844-7.113281 75.007812-7 25.171876-.113281 50.292969 2.230469 75.007813 7zm0 0" fill="#f0c419"/><path d="m59.804688 217.667969c0 7.082031-19.113282 12.800781-42.664063 12.800781-2.648437 0-5.292969-.085938-7.851563-.257812.621094-8.511719 1.933594-16.957032 3.925782-25.257813 1.277344-.085937 2.558594-.085937 3.925781-.085937 23.550781 0 42.664063 5.71875 42.664063 12.800781zm0 0" fill="#f0c419"/><path d="m68.339844 268.867188c0 7.082031-20.992188 12.800781-46.933594 12.800781-3.414062 0-6.742188-.085938-9.898438-.253907-1.316406-8.226562-2.171874-16.515624-2.5625-24.832031 4.011719-.34375 8.109376-.511719 12.460938-.511719 25.941406 0 46.933594 5.714844 46.933594 12.796876zm0 0" fill="#f0c419"/><path d="m76.871094 320.070312c0 7.082032-22.78125 12.710938-50.859375 12.796876-3.355469-8.304688-6.230469-16.792969-8.617188-25.429688 2.644531-.082031 5.460938-.167969 8.277344-.167969 28.246094 0 51.199219 5.714844 51.199219 12.800781zm0 0" fill="#f0c419"/><path d="m502.855469 230.210938c-2.558594.171874-5.203125.257812-7.851563.257812-23.550781 0-42.664062-5.71875-42.664062-12.800781s19.113281-12.800781 42.664062-12.800781c1.367188 0 2.648438 0 3.925782.085937 1.992187 8.300781 3.304687 16.746094 3.925781 25.257813zm0 0" fill="#f0c419"/><path d="m503.199219 256.582031c-.390625 8.316407-1.246094 16.605469-2.5625 24.832031-3.15625.167969-6.484375.253907-9.898438.253907-25.941406 0-46.933593-5.71875-46.933593-12.800781 0-7.082032 20.992187-12.796876 46.933593-12.796876 4.351563 0 8.449219.167969 12.460938.511719zm0 0" fill="#f0c419"/><path d="m494.75 307.4375c-2.386719 8.636719-5.261719 17.125-8.621094 25.429688-28.074218-.085938-50.855468-5.714844-50.855468-12.796876 0-7.085937 22.953124-12.800781 51.199218-12.800781 2.816406 0 5.632813.085938 8.277344.167969zm0 0" fill="#f0c419"/><path d="m196.339844 251.800781c0-30.632812-21.015625-55.464843-46.933594-55.464843-25.921875 0-46.933594 24.832031-46.933594 55.464843 0 30.632813 21.011719 55.46875 46.933594 55.46875 25.917969 0 46.933594-24.835937 46.933594-55.46875zm0 0" fill="#26b99a"/><path d="m409.671875 251.800781c0-30.632812-21.011719-55.464843-46.933594-55.464843s-46.933593 24.832031-46.933593 55.464843c0 30.632813 21.011718 55.46875 46.933593 55.46875s46.933594-24.835937 46.933594-55.46875zm0 0" fill="#26b99a"/><path d="m170.738281 251.800781c0-30.632812-9.550781-55.464843-21.332031-55.464843s-21.335938 24.832031-21.335938 55.464843c0 30.632813 9.554688 55.46875 21.335938 55.46875s21.332031-24.835937 21.332031-55.46875zm0 0" fill="#2c3e50"/><path d="m384.070312 251.800781c0-30.632812-9.550781-55.464843-21.332031-55.464843s-21.332031 24.832031-21.332031 55.464843c0 30.632813 9.550781 55.46875 21.332031 55.46875s21.332031-24.835937 21.332031-55.46875zm0 0" fill="#2c3e50"/><path d="m145.140625 226.203125c0-11.785156-11.464844-21.335937-25.601563-21.335937-14.140624 0-25.601562 9.550781-25.601562 21.335937 0 11.78125 11.460938 21.332031 25.601562 21.332031 14.136719 0 25.601563-9.550781 25.601563-21.332031zm0 0" fill="#fff"/><path d="m358.472656 226.203125c-1.273437 12.910156-12.671875 22.40625-25.601562 21.332031-7.382813.144532-14.519532-2.683594-19.796875-7.851562 3.351562-13.816406 11.332031-26.074219 22.613281-34.730469 11.917969.199219 21.753906 9.375 22.785156 21.25zm0 0" fill="#fff"/><path d="m178.078125 205.808594c-3.886719 3.402344-8.023437 6.511718-12.375 9.300781-10.925781 7.019531-23.136719 11.808594-35.925781 14.078125-14.785156 2.445312-29.945313 1.304688-44.203125-3.328125-1.402344-7.527344-4.367188-14.675781-8.703125-20.992187 0 0 66.644531-30.546876 99.671875-8.53125.511719.339843 1.023437 8.960937 1.535156 9.472656zm0 0" fill="#f29c1f"/><path d="m427.078125 225.859375h-.339844c-14.253906 4.632813-29.414062 5.773437-44.203125 3.328125-12.789062-2.269531-24.996094-7.058594-35.925781-14.078125-4.277344-2.753906-8.355469-5.804687-12.203125-9.132813.597656-.597656 1.109375-9.214843 1.707031-9.640624 33.109375-22.015626 99.160157 8.53125 99.160157 8.53125-4.097657 6.386718-6.882813 13.523437-8.195313 20.992187zm0 0" fill="#f29c1f"/><path d="m256.070312 418.203125c-4.710937 0-8.53125-3.820313-8.53125-8.535156v-25.597657c0-4.714843 3.820313-8.535156 8.53125-8.535156 4.714844 0 8.535157 3.820313 8.535157 8.535156v25.597657c0 4.714843-3.820313 8.535156-8.535157 8.535156zm0 0" fill="#d25627"/><path d="m120.605469 170.738281c-6.453125-.027343-12.894531-.488281-19.285157-1.382812-3.054687-.371094-5.671874-2.359375-6.847656-5.203125-1.179687-2.84375-.734375-6.097656 1.160156-8.523438 1.894532-2.421875 4.949219-3.640625 7.992188-3.179687 50.867188 6.886719 58.800781-17.769531 58.867188-18.023438 1.261718-4.484375 5.882812-7.125 10.386718-5.9375s7.226563 5.765625 6.113282 10.289063c-.386719 1.445312-9.054688 31.960937-58.386719 31.960937zm0 0" fill="#d25627"/><path d="m391.539062 170.738281c-49.339843 0-58-30.515625-58.382812-31.960937-.800781-2.941406.027344-6.089844 2.175781-8.253906 2.148438-2.164063 5.285157-3.019532 8.234375-2.242188 2.949219.777344 5.257813 3.070312 6.058594 6.011719.398438 1.289062 8.574219 24.953125 58.898438 18.15625 3.042968-.460938 6.097656.757812 7.992187 3.179687 1.894531 2.425782 2.339844 5.679688 1.160156 8.523438-1.175781 2.84375-3.792969 4.832031-6.847656 5.203125-6.390625.894531-12.835937 1.355469-19.289063 1.382812zm0 0" fill="#d25627"/><path d="m298.738281 460.867188c-2.261719.003906-4.433593-.894532-6.03125-2.5l-36.636719-36.632813-36.632812 36.632813c-3.347656 3.234374-8.667969 3.1875-11.960938-.101563-3.292968-3.292969-3.339843-8.617187-.105468-11.964844l42.667968-42.664062c1.597657-1.601563 3.769532-2.503907 6.03125-2.503907 2.265626 0 4.433594.902344 6.035157 2.503907l42.667969 42.664062c2.4375 2.441407 3.167968 6.113281 1.847656 9.300781-1.320313 3.1875-4.429688 5.265626-7.882813 5.265626zm0 0" fill="#d25627"/><path d="m304.710938 340.035156-40.617188 42.410156c-2.125 2.132813-5.011719 3.328126-8.023438 3.328126-3.007812 0-5.894531-1.195313-8.019531-3.328126l-40.617187-42.410156c-1.972656-1.929687-2.894532-4.695312-2.476563-7.421875.796875-4.164062 4.097657-7.394531 8.277344-8.109375.765625-.097656 1.535156-.15625 2.304687-.167968h81.066407c.769531.011718 1.539062.070312 2.304687.167968 4.179688.714844 7.476563 3.945313 8.277344 8.109375.414062 2.726563-.503906 5.492188-2.476562 7.421875zm0 0" fill="#df4d60"/><path d="m307.1875 332.613281c-.332031 1.5625-1.207031 2.953125-2.476562 3.925781l-40.617188 33.023438c-4.804688 3.414062-11.238281 3.414062-16.042969 0l-40.617187-33.023438c-1.269532-.972656-2.148438-2.363281-2.476563-3.925781.796875-4.164062 4.097657-7.394531 8.277344-8.109375.765625-.097656 1.535156-.15625 2.304687-.167968h81.066407c.769531.011718 1.539062.070312 2.304687.167968 4.179688.714844 7.476563 3.945313 8.277344 8.109375zm0 0" fill="#ff5364"/><path d="m281.671875 337.988281c0-4.710937-11.460937-8.535156-25.601563-8.535156-14.136718 0-25.597656 3.824219-25.597656 8.535156 0 4.714844 11.460938 8.535157 25.597656 8.535157 14.140626 0 25.601563-3.820313 25.601563-8.535157zm0 0" fill="#fb7b76"/><path d="m503.539062 246.167969c0 3.5-.085937 6.914062-.339843 10.414062-.390625 8.316407-1.246094 16.605469-2.5625 24.832031-3.03125 17.609376-7.894531 34.855469-14.507813 51.453126-5.824218 14.980468-12.992187 29.40625-21.417968 43.09375-2.984376 4.949218-6.144532 9.730468-9.472657 14.507812-45.054687 64.9375-117.503906 113.066406-199.167969 113.066406-81.746093 0-154.28125-48.214844-199.25-113.238281-3.328124-4.691406-6.402343-9.472656-9.386718-14.335937-8.425782-13.6875-15.59375-28.113282-21.421875-43.09375-6.609375-16.597657-11.472657-33.84375-14.503907-51.453126-1.316406-8.226562-2.171874-16.515624-2.5625-24.832031-.253906-3.5-.339843-6.914062-.339843-10.414062 0-5.460938.257812-10.75.683593-15.957031.621094-8.511719 1.933594-16.957032 3.925782-25.257813 4.046875-17.988281 11.304687-35.097656 21.417968-50.515625-17.324218-27.222656-36.949218-76.546875-18.773437-145.835938 0 0 72.703125 0 136.960937 65.023438 9.128907-2.644531 18.515626-4.949219 28.242188-6.824219 24.71875-4.769531 49.839844-7.113281 75.007812-7 25.171876-.113281 50.292969 2.230469 75.007813 7 9.730469 1.875 19.117187 4.179688 28.246094 6.824219h.085937c64.171875-65.023438 136.875-65.023438 136.875-65.023438 18.175782 69.289063-1.449218 118.613282-18.773437 145.835938 10.113281 15.417969 17.367187 32.527344 21.417969 50.515625 1.992187 8.300781 3.304687 16.746094 3.925781 25.257813.425781 5.121093.683593 10.496093.683593 15.957031zm0 0" fill="#e8edfc"/><path d="m503.539062 246.167969c0 3.5-.085937 6.914062-.339843 10.414062-.390625 8.316407-1.246094 16.609375-2.5625 24.832031-3.03125 17.609376-7.894531 34.855469-14.507813 51.453126-5.824218 14.980468-12.992187 29.40625-21.417968 43.09375-2.984376 4.949218-6.144532 9.730468-9.472657 14.507812-45.054687 64.9375-117.503906 113.066406-199.167969 113.066406-4.265624 0-8.617187-.171875-12.796874-.425781 76.457031-4.695313 143.699218-51.117187 186.367187-112.640625 3.328125-4.777344 6.484375-9.558594 9.472656-14.507812 8.421875-13.6875 15.589844-28.113282 21.417969-43.09375.253906-.511719.425781-1.109376.683594-1.621094 2.984375-7.679688 5.546875-15.445313 7.765625-23.210938.082031-.167968.082031-.425781.167969-.597656 2.457031-8.554688 4.425781-17.246094 5.890624-26.023438 0-.171874.082032-.34375.082032-.515624 1.25-8.054688 2.074218-16.175782 2.476562-24.316407.253906-3.5.339844-6.914062.339844-10.414062 0-5.460938-.253906-10.835938-.679688-15.957031 0-.339844-.085937-.597657-.085937-.9375-.621094-7.640626-1.789063-15.226563-3.5-22.699219-.074219-.546875-.1875-1.089844-.339844-1.621094-4.050781-17.988281-11.308593-35.097656-21.421875-50.515625 17.070313-26.796875 36.355469-75.09375 19.542969-142.765625 8.167969-1.761719 16.480469-2.792969 24.832031-3.070313 18.175782 69.289063-1.449218 118.613282-18.773437 145.835938 10.113281 15.417969 17.367187 32.527344 21.417969 50.515625 1.992187 8.300781 3.304687 16.746094 3.925781 25.257813.425781 5.121093.683593 10.496093.683593 15.957031zm0 0" fill="#cad9fc"/><path d="m205.238281 291.214844s-57.921875 28.855468-90.964843 6.828125c-33.039063-22.03125-28.679688-86.59375-28.679688-86.59375s57.921875-28.855469 90.964844-6.824219c33.039062 22.027344 28.679687 86.589844 28.679687 86.589844zm0 0" fill="#fff"/><path d="m398.40625 298.050781c-33.023438 22.019531-90.964844-6.824219-90.964844-6.824219-.820312-17.371093 1.078125-34.761718 5.632813-51.542968 3.351562-13.816406 11.332031-26.074219 22.613281-34.730469.101562-.15625.25-.277344.425781-.339844 33.109375-22.015625 90.964844 6.824219 90.964844 6.824219s4.355469 64.597656-28.671875 86.613281zm0 0" fill="#fff"/><path d="m90.441406 101.273438c-21.265625 14.699218-40.097656 32.636718-55.808594 53.164062-2.972656-4.578125-5.652343-9.335938-8.023437-14.25-14.503906-28.757812-26.109375-73.046875-10.75-131.585938h1.363281c.855469.425782 7.085938 3.667969 15.957032 9.214844.386718.34375.816406.628906 1.28125.855469 18.175781 11.691406 46.25 32.851563 61.355468 60.160156 4.285156 7.742188 1.953125 17.476563-5.375 22.441407zm0 0" fill="#7facfa"/><path d="m488.09375 134.894531c-3.0625 6.753907-6.597656 13.285157-10.582031 19.542969-15.710938-20.527344-34.542969-38.464844-55.808594-53.164062-7.328125-4.964844-9.660156-14.699219-5.375-22.441407 4.152344-7.433593 9.074219-14.414062 14.675781-20.824219l.085938-.082031c18.28125-19.933593 39.839844-36.589843 63.746094-49.238281h.085937c.851563-.085938 1.363281-.085938 1.363281-.085938 12.277344 41.742188 9.375 86.484376-8.191406 126.292969zm0 0" fill="#7facfa"/><path d="m488.09375 134.894531c-5.613281-7.078125-11.597656-13.855469-17.921875-20.308593-10.917969-11.3125-22.957031-21.488282-35.921875-30.378907-7.332031-4.964843-9.664062-14.699219-5.378906-22.441406.683594-1.28125 1.453125-2.476563 2.132812-3.757813l.085938-.082031c12.566406-13.980469 26.875-26.285156 42.582031-36.609375 11.347656-7.507812 19.882813-11.945312 21.164063-12.628906h.085937c.851563-.085938 1.363281-.085938 1.363281-.085938 12.28125 41.742188 9.378906 86.488282-8.191406 126.292969zm0 0" fill="#7facfa"/><path d="m470.171875 114.585938c-10.917969-11.3125-22.957031-21.488282-35.921875-30.378907-7.332031-4.964843-9.664062-14.699219-5.378906-22.441406.683594-1.28125 1.453125-2.476563 2.132812-3.757813l.085938-.082031c12.566406-13.980469 26.875-26.285156 42.582031-36.609375 6.761719 30.882813 5.558594 62.980469-3.5 93.269532zm0 0" fill="#a4c2f7"/><path d="m24.050781 134.894531c15.296875-19.507812 33.449219-36.597656 53.84375-50.6875 7.328125-4.964843 9.660157-14.699219 5.378907-22.441406-.683594-1.28125-1.453126-2.476563-2.132813-3.757813l-.085937-.082031c-18.28125-19.933593-39.839844-36.589843-63.746094-49.238281h-.085938c-.851562-.085938-1.363281-.085938-1.363281-.085938-12.28125 41.742188-9.378906 86.484376 8.191406 126.292969zm0 0" fill="#a4c2f7"/><path d="m281.671875 136.601562c0-4.710937-11.460937-8.53125-25.601563-8.53125-14.136718 0-25.597656 3.820313-25.597656 8.53125 0 4.714844 11.460938 8.535157 25.597656 8.535157 14.140626 0 25.601563-3.820313 25.601563-8.535157zm0 0" fill="#a4c2f7"/><path d="m307.273438 102.46875c0-4.714844-22.925782-8.535156-51.203126-8.535156-28.273437 0-51.199218 3.820312-51.199218 8.535156 0 4.710938 22.925781 8.53125 51.199218 8.53125 28.277344 0 51.203126-3.820312 51.203126-8.53125zm0 0" fill="#a4c2f7"/><path d="m331.078125 66.800781c-7.59375 5.800781-38.3125 10.066407-75.007813 10.066407-36.691406 0-67.410156-4.265626-75.007812-10.066407 24.71875-4.769531 49.839844-7.113281 75.007812-7 25.171876-.113281 50.292969 2.230469 75.007813 7zm0 0" fill="#f0c419"/><path d="m59.804688 217.667969c0 7.082031-19.113282 12.800781-42.664063 12.800781-2.648437 0-5.292969-.085938-7.851563-.257812.621094-8.511719 1.933594-16.957032 3.925782-25.257813 1.277344-.085937 2.558594-.085937 3.925781-.085937 23.550781 0 42.664063 5.71875 42.664063 12.800781zm0 0" fill="#a4c2f7"/><path d="m68.339844 268.867188c0 7.082031-20.992188 12.800781-46.933594 12.800781-3.414062 0-6.742188-.085938-9.898438-.253907-1.316406-8.226562-2.171874-16.515624-2.5625-24.832031 4.011719-.34375 8.109376-.511719 12.460938-.511719 25.941406 0 46.933594 5.714844 46.933594 12.796876zm0 0" fill="#a4c2f7"/><path d="m76.871094 320.070312c0 7.082032-22.78125 12.710938-50.859375 12.796876-3.355469-8.304688-6.230469-16.792969-8.617188-25.429688 2.644531-.082031 5.460938-.167969 8.277344-.167969 28.246094 0 51.199219 5.714844 51.199219 12.800781zm0 0" fill="#a4c2f7"/><path d="m477.171875 229.273438c-14.679687-1.960938-24.832031-6.398438-24.832031-11.605469 0-4.777344 8.53125-8.875 21.332031-11.09375 1.710937 7.472656 2.878906 15.058593 3.5 22.699219zm0 0" fill="#a4c2f7"/><path d="m502.855469 230.210938c-2.558594.171874-5.203125.257812-7.851563.257812-5.964844.015625-11.921875-.382812-17.832031-1.195312-.621094-7.640626-1.789063-15.226563-3.5-22.699219 7.050781-1.179688 14.1875-1.75 21.332031-1.707031 1.367188 0 2.648438 0 3.925782.085937 1.992187 8.300781 3.304687 16.746094 3.925781 25.257813zm0 0" fill="#7facfa"/><path d="m477.597656 256.582031c-.402344 8.140625-1.226562 16.261719-2.476562 24.316407-18.257813-1.703126-31.316406-6.484376-31.316406-12.03125 0-5.800782 14.25-10.75 33.792968-12.285157zm0 0" fill="#a4c2f7"/><path d="m503.199219 256.582031c-.390625 8.316407-1.246094 16.609375-2.5625 24.832031-3.15625.167969-6.484375.253907-9.898438.253907-5.214843.015625-10.425781-.242188-15.617187-.769531 1.25-8.054688 2.074218-16.175782 2.476562-24.316407 4.179688-.34375 8.617188-.511719 13.140625-.511719 4.351563 0 8.449219.167969 12.460938.511719zm0 0" fill="#7facfa"/><path d="m468.980469 308.035156c-2.21875 7.765625-4.78125 15.53125-7.765625 23.210938-15.53125-2.21875-25.941406-6.398438-25.941406-11.175782 0-5.546874 14.078124-10.242187 33.707031-12.035156zm0 0" fill="#a4c2f7"/><path d="m494.75 307.4375c-2.386719 8.636719-5.265625 17.125-8.621094 25.429688-8.332031.027343-16.65625-.515626-24.914062-1.621094 2.984375-7.679688 5.546875-15.445313 7.765625-23.210938 5.460937-.511718 11.347656-.765625 17.492187-.765625 2.816406 0 5.632813.085938 8.277344.167969zm0 0" fill="#7facfa"/><path d="m196.339844 251.800781c0-30.632812-21.015625-55.464843-46.933594-55.464843-25.921875 0-46.933594 24.832031-46.933594 55.464843 0 30.632813 21.011719 55.46875 46.933594 55.46875 25.917969 0 46.933594-24.835937 46.933594-55.46875zm0 0" fill="#fff"/><path d="m409.671875 251.800781c0-30.632812-21.011719-55.464843-46.933594-55.464843s-46.933593 24.832031-46.933593 55.464843c0 30.632813 21.011718 55.46875 46.933593 55.46875s46.933594-24.835937 46.933594-55.46875zm0 0" fill="#fff"/><path d="m170.738281 251.800781c0-30.632812-9.550781-55.464843-21.332031-55.464843s-21.335938 24.832031-21.335938 55.464843c0 30.632813 9.554688 55.46875 21.335938 55.46875s21.332031-24.835937 21.332031-55.46875zm0 0" fill="#7facfa"/><path d="m384.070312 251.800781c0-30.632812-9.550781-55.464843-21.332031-55.464843s-21.332031 24.832031-21.332031 55.464843c0 30.632813 9.550781 55.46875 21.332031 55.46875s21.332031-24.835937 21.332031-55.46875zm0 0" fill="#7facfa"/><path d="m178.078125 205.808594c-3.886719 3.402344-8.023437 6.511718-12.375 9.300781-10.925781 7.019531-23.136719 11.808594-35.925781 14.078125-14.785156 2.445312-29.945313 1.304688-44.203125-3.328125-1.402344-7.527344-4.367188-14.675781-8.703125-20.992187 0 0 66.644531-30.546876 99.671875-8.53125.511719.339843 1.023437 8.960937 1.535156 9.472656zm0 0" fill="#e8edfc"/><path d="m427.078125 225.859375h-.339844c-14.253906 4.632813-29.414062 5.773437-44.203125 3.328125-12.789062-2.269531-24.996094-7.058594-35.925781-14.078125-4.277344-2.753906-8.355469-5.804687-12.203125-9.132813.597656-.597656 1.109375-9.214843 1.707031-9.640624 33.109375-22.015626 99.160157 8.53125 99.160157 8.53125-4.097657 6.386718-6.882813 13.523437-8.195313 20.992187zm0 0" fill="#e8edfc"/><path d="m296.582031 345.953125-33.828125 35.34375c-1.769531 1.773437-4.175781 2.769531-6.683594 2.769531-2.503906 0-4.910156-.996094-6.679687-2.769531l-33.828125-35.34375c-1.644531-1.609375-2.410156-3.914063-2.0625-6.1875.664062-3.46875 3.410156-6.160156 6.894531-6.753906.636719-.082031 1.277344-.132813 1.917969-.144531h67.519531c.640625.011718 1.28125.0625 1.917969.144531 3.484375.59375 6.230469 3.285156 6.894531 6.753906.347657 2.273437-.421875 4.578125-2.0625 6.1875zm0 0" fill="#a4c2f7"/><path d="m281.671875 42.734375 52.800781-23.464844c5.28125-2.347656 11.386719-1.863281 16.230469 1.285157 4.847656 3.148437 7.769531 8.53125 7.769531 14.308593v49.878907c0 5.777343-2.921875 11.164062-7.769531 14.308593-4.84375 3.148438-10.953125 3.632813-16.234375 1.285157l-52.796875-23.46875h-51.199219l-52.800781 23.46875c-5.28125 2.34375-11.386719 1.863281-16.234375-1.285157-4.84375-3.148437-7.765625-8.535156-7.765625-14.308593v-49.878907c0-5.777343 2.921875-11.160156 7.765625-14.308593 4.84375-3.144532 10.949219-3.628907 16.230469-1.285157l52.804687 23.464844zm0 0" fill="#cad9fc"/><path d="m239 34.203125h34.132812c4.714844 0 8.535157 3.820313 8.535157 8.53125v34.132813c0 4.714843-3.820313 8.535156-8.535157 8.535156h-34.132812c-4.710938 0-8.53125-3.820313-8.53125-8.535156v-34.132813c0-4.710937 3.820312-8.53125 8.53125-8.53125zm0 0" fill="#e8edfc"/><path d="m31.277344 148.910156c1.121094 1.929688 2.242187 3.777344 3.355468 5.527344-10.113281 15.417969-17.371093 32.527344-21.417968 50.515625-1.992188 8.300781-3.304688 16.746094-3.925782 25.257813-.425781 5.207031-.683593 10.496093-.683593 15.957031 0 3.5.085937 6.914062.339843 10.414062.390626 8.316407 1.242188 16.609375 2.5625 24.832031 3.03125 17.609376 7.890626 34.855469 14.503907 51.453126 5.828125 14.980468 12.996093 29.40625 21.421875 43.09375 2.984375 4.863281 6.058594 9.644531 9.386718 14.335937 42.664063 61.691406 110.152344 108.167969 186.769532 112.78125l-.316406.03125c4.179687.253906 8.53125.425781 12.796874.425781 4.300782 0 8.558594-.207031 12.808594-.46875-76.488281-4.71875-143.851562-51.15625-186.460937-112.769531-3.328125-4.691406-6.398438-9.472656-9.386719-14.335937-8.421875-13.6875-15.589844-28.113282-21.417969-43.09375-6.613281-16.597657-11.476562-33.84375-14.507812-51.453126-1.316407-8.222656-2.171875-16.515624-2.558594-24.832031-.257813-3.5-.339844-6.914062-.339844-10.414062 0-5.460938.253907-10.75.679688-15.957031.625-8.511719 1.9375-16.957032 3.925781-25.257813 4.050781-17.988281 11.304688-35.097656 21.417969-50.515625-1.109375-1.75-2.234375-3.597656-3.355469-5.527344-.59375-1.023437-1.167969-2.089844-1.753906-3.164062-1.859375-3.375-3.691406-6.984375-5.460938-10.855469l-.007812.003906c-.128906-.28125-.253906-.582031-.378906-.863281-1.035157-2.292969-2.039063-4.667969-3.015626-7.128906-.480468-1.210938-.964843-2.40625-1.425781-3.65625-.359375-.96875-.691406-1.976563-1.039062-2.96875-.457031-1.308594-.910157-2.617188-1.34375-3.96875-.097657-.308594-.199219-.605469-.296875-.914063-.25-.796875-.480469-1.613281-.722656-2.425781-.332032-1.117188-.664063-2.238281-.976563-3.382812-.191406-.695313-.375-1.402344-.5625-2.105469-.195313-.75-.386719-1.496094-.578125-2.253907-.214844-.882812-.425781-1.773437-.632812-2.671874-.246094-1.066407-.472657-2.15625-.699219-3.246094-.058594-.277344-.125-.550782-.183594-.832032-.09375-.46875-.207031-.917968-.296875-1.386718-.121094-.617188-.21875-1.253906-.332031-1.878906-.222657-1.203126-.429688-2.429688-.628907-3.660157-.160156-.992187-.328124-1.980469-.476562-2.992187-.074219-.527344-.144531-1.0625-.214844-1.59375-.15625-1.140625-.289062-2.300782-.425781-3.460938-.148437-1.292968-.285156-2.601562-.40625-3.925781v-.027344c-.054687-.617187-.136719-1.210937-.1875-1.832031-.070313-.84375-.109375-1.707031-.171875-2.5625-.082031-1.273438-.152344-2.5625-.210938-3.859375-.054687-1.144531-.132812-2.269531-.164062-3.429687-.011719-.460938 0-.9375-.011719-1.398438-.023437-1.234375-.023437-2.492188-.023437-3.742188 0-1.640624 0-3.28125.039062-4.949218.011719-.460938.007813-.910156.023438-1.375.027344-.839844.101562-1.71875.140625-2.570313.085937-1.8125.164062-3.621093.296875-5.472656.042968-.59375.09375-1.1875.144531-1.78125.082031-1.0625.203125-2.144531.308594-3.222656.148437-1.496094.28125-2.988281.464843-4.507813.121094-.996094.28125-2.023437.417969-3.03125.164063-1.242187.332031-2.476562.523438-3.734375.15625-1.011719.292969-2.011719.464843-3.035156.246094-1.484375.566407-3.011719.851563-4.515625l.074219-.394531c.234375-1.214844.429687-2.40625.683594-3.636719.105468-.511719.199218-1.019531.308593-1.535156.515625-2.375 1.117188-4.808594 1.71875-7.234375-7.707031-1.640625-15.53125-2.667969-23.398437-3.085938l-.085938-.042969h-1.363281c-.917969 3.511719-1.742187 6.96875-2.464844 10.371094-.109375.515625-.203125 1.023438-.3125 1.535156-.253906 1.226563-.453125 2.421876-.679687 3.636719l-.078125.394531c-.28125 1.503907-.59375 3.03125-.851563 4.515626-.171875 1.023437-.308594 2.023437-.464844 3.035156-.191406 1.257812-.355468 2.492187-.523437 3.734375-.136719 1.007812-.296875 2.035156-.417969 3.035156-.183594 1.519531-.316406 3.007813-.464844 4.503906-.105468 1.078125-.222656 2.160157-.3125 3.222657-.046874.597656-.097656 1.191406-.140624 1.78125-.132813 1.851562-.214844 3.664062-.296876 5.476562-.039062.851562-.113281 1.726562-.140624 2.566406-.015626.464844-.015626.914063-.023438 1.375-.042969 1.671875-.042969 3.3125-.039062 4.949219 0 1.253906 0 2.507813.023437 3.742187.007813.460938 0 .9375.011719 1.398438.03125 1.164062.109375 2.285156.164062 3.429688.058594 1.296874.125 2.589843.210938 3.859374.058594.855469.097656 1.71875.171875 2.5625.050781.621094.132812 1.214844.1875 1.832032v.027344c.121093 1.320312.257812 2.628906.40625 3.925781.132812 1.164062.269531 2.320312.425781 3.460937.070312.53125.140625 1.066406.214844 1.59375.144531 1.011719.316406 2 .476562 2.992188.199219 1.234375.402344 2.457031.625 3.660156.117188.621094.214844 1.261719.335938 1.878906.089844.472656.203125.917969.296875 1.386719.058593.28125.125.554687.179687.832031.230469 1.089844.457032 2.179688.703125 3.25.207031.894532.417969 1.789063.632813 2.667969.1875.761719.382812 1.503906.578125 2.253906.1875.707031.371093 1.410157.558593 2.105469.316407 1.148438.648438 2.265625.980469 3.382812.242188.8125.472657 1.628907.722657 2.425782.097656.308594.199218.609375.296874.914062.433594 1.351563.886719 2.660156 1.34375 3.96875.347657.992188.683594 2 1.039063 2.96875.460937 1.25.945313 2.445313 1.425781 3.65625.976563 2.460938 1.980469 4.835938 3.015625 7.128906.125.28125.25.585938.375.863282l.007813-.003906c1.773437 3.871093 3.605468 7.484374 5.460937 10.855468.589844 1.066406 1.164063 2.132813 1.757813 3.15625zm0 0" fill="#fff"/><path d="m17.140625 246.167969c.8125 35.800781 9.546875 70.976562 25.570313 103 1.238281 2.558593 2.359374 5.171875 3.691406 7.679687l4.300781 7.375c2.945313 4.863282 5.539063 9.949219 8.761719 14.640625 6.277344 9.5 13.117187 18.617188 20.480468 27.300781 7.296876 8.730469 15.09375 17.027344 23.355469 24.855469 4.164063 3.859375 8.660157 7.351563 12.96875 11.054688l6.523438 5.480469 7 4.84375c18.359375 13.285156 38.574219 23.792968 59.996093 31.191406 21.378907 7.179687 43.734376 11.027344 66.28125 11.410156v17.070312c-24.425781-.382812-48.648437-4.539062-71.804687-12.324218-22.984375-7.933594-44.675781-19.199219-64.378906-33.441406l-7.457031-5.183594-6.953126-5.824219c-4.589843-3.929687-9.367187-7.664063-13.792968-11.773437-8.773438-8.300782-17.054688-17.105469-24.804688-26.371094-7.804687-9.210938-15.050781-18.878906-21.703125-28.953125-3.410156-4.976563-6.1875-10.363281-9.304687-15.527344l-4.546875-7.832031c-1.414063-2.664063-2.621094-5.445313-3.9375-8.160156-17.175781-34.359376-26.503907-72.105469-27.3164065-110.511719zm0 0" fill="#fff"/><g fill="#428dff"><path d="m13.003906 288.550781c4.558594-.878906 7.652344-5.148437 7.0625-9.757812-1.722656-10.792969-2.699218-21.695313-2.925781-32.625h-17.0703125c.2304685 11.824219 1.2812495 23.613281 3.1445315 35.289062.304687 2.265625 1.523437 4.304688 3.375 5.644531 1.847656 1.339844 4.167968 1.863282 6.414062 1.449219zm0 0"/><path d="m256.070312 512.070312v-17.070312c-22.546874-.378906-44.90625-4.226562-66.285156-11.402344-21.421875-7.398437-41.636718-17.910156-59.996094-31.195312l-6.996093-4.839844-6.523438-5.484375c-4.308593-3.699219-8.804687-7.191406-12.972656-11.054687-8.257813-7.824219-16.054687-16.125-23.351563-24.855469-7.367187-8.679688-14.203124-17.796875-20.480468-27.296875-3.222656-4.691406-5.816406-9.777344-8.761719-14.644532l-4.300781-7.371093c-1.332032-2.511719-2.453125-5.128907-3.691406-7.679688l-3.53125-7.484375c-2.121094-4.136718-7.054688-5.96875-11.363282-4.21875-2.105468.867188-3.753906 2.578125-4.546875 4.714844-.796875 2.136719-.664062 4.507812.363281 6.542969l3.753907 7.953125c1.316406 2.71875 2.519531 5.496094 3.933593 8.160156l4.550782 7.832031c3.117187 5.164063 5.894531 10.550781 9.300781 15.53125 6.652344 10.070313 13.902344 19.738281 21.707031 28.945313 7.75 9.265625 16.027344 18.070312 24.800782 26.375 4.425781 4.105468 9.203124 7.839844 13.789062 11.777344l6.957031 5.820312 7.457031 5.183594c19.703126 14.242187 41.394532 25.511718 64.378907 33.441406 23.15625 7.78125 47.382812 11.9375 71.808593 12.320312zm0 0"/><path d="m27.339844 310.875c-.59375-2.105469-1.984375-3.894531-3.875-4.992188l-1.492188-.625c-.539062-.179687-1.105468-.289062-1.675781-.328124-.53125-.105469-1.074219-.132813-1.613281-.082032-.566406.054688-1.132813.148438-1.6875.277344-2.1875.621094-4.050782 2.066406-5.199219 4.027344-.535156 1.027344-.867187 2.140625-.984375 3.289062-.503906 3.539063 1.320312 7 4.519531 8.589844 1.035157.480469 2.15625.757812 3.292969.816406 1.121094.085938 2.246094-.050781 3.308594-.402344 2.101562-.757812 3.847656-2.265624 4.898437-4.234374.859375-2 1.039063-4.226563.507813-6.335938zm0 0"/><path d="m8.597656 254.703125c-4.714844 0-8.535156-3.820313-8.535156-8.535156-.519531-32.28125 7.96875-64.070313 24.519531-91.796875-18.28125-30.824219-34.703125-80.367188-16.976562-147.9375.984375-3.75 4.375-6.3632815 8.253906-6.3632815 3.082031 0 75.484375.7421875 140.957031 65.4843755 3.257813 1.332031 5.359375 4.53125 5.285156 8.050781-.074218 3.515625-2.308593 6.625-5.617187 7.816406-.152344.054687-.75.238281-.910156.285156-3.101563.898438-6.449219.109375-8.824219-2.082031-33.117188-34.300781-77-56.203125-124.320312-62.046875-14.183594 61.550781 2.507812 105.730469 19.402343 132.273437 1.800781 2.832032 1.773438 6.457032-.070312 9.261719-16.632813 25.949219-25.203125 56.242188-24.632813 87.054688 0 2.265625-.898437 4.433593-2.5 6.035156-1.597656 1.601563-3.769531 2.5-6.03125 2.5zm0 0"/><path d="m256.0625 512.070312c-4.710938 0-8.53125-3.824218-8.53125-8.535156 0-4.714844 3.820312-8.535156 8.53125-8.535156 134.558594 0 238.933594-133.761719 238.933594-248.832031.578125-30.8125-7.992188-61.105469-24.625-87.050781-1.839844-2.808594-1.867188-6.433594-.066406-9.265626 16.898437-26.535156 33.582031-70.722656 19.402343-132.273437-47.296875 5.839844-91.148437 27.746094-124.226562 62.046875-2.351563 2.292969-5.777344 3.097656-8.898438 2.085938l-.859375-.253907c-3.457031-1.167969-5.789062-4.402343-5.800781-8.050781-.015625-3.648438 2.289063-6.902344 5.734375-8.097656 65.324219-64.488282 137.550781-65.2382815 140.625-65.2382815 3.875 0 7.265625 2.6132815 8.25 6.3632815 17.722656 67.570312 1.308594 117.113281-16.976562 147.9375 16.542968 27.726562 25.03125 59.515625 24.507812 91.796875 0 122.96875-111.824219 265.902343-256 265.902343zm0 0"/><path d="m34.621094 162.96875c-3.253906-.003906-6.226563-1.859375-7.65625-4.78125-1.429688-2.925781-1.074219-6.410156.925781-8.984375 16.25-21.273437 35.757813-39.847656 57.796875-55.039063 3.664062-2.480468 4.808594-7.355468 2.625-11.203124-21.984375-39.808594-74.472656-66.464844-75-66.730469-4.105469-2.167969-5.726562-7.214844-3.648438-11.367188 2.074219-4.152343 7.089844-5.882812 11.28125-3.894531 2.34375 1.175781 57.726563 29.234375 82.308594 73.746094 6.492188 11.578125 3.003906 26.195312-8.015625 33.59375-20.542969 14.179687-38.722656 31.511718-53.863281 51.359375-1.617188 2.085937-4.113281 3.308593-6.753906 3.300781zm0 0"/><path d="m477.511719 162.96875c-2.640625.007812-5.132813-1.210938-6.75-3.300781-15.140625-19.84375-33.320313-37.175781-53.867188-51.351563-11.015625-7.398437-14.507812-22.015625-8.023437-33.597656 24.59375-44.515625 79.96875-72.574219 82.308594-73.75 4.199218-2.011719 9.238281-.285156 11.320312 3.878906 2.082031 4.164063.441406 9.230469-3.6875 11.382813-.523438.265625-53.007812 26.921875-75 66.730469-2.171875 3.851562-1.027344 8.722656 2.632812 11.203124 22.042969 15.191407 41.550782 33.761719 57.800782 55.035157 2 2.570312 2.363281 6.058593.929687 8.988281-1.429687 2.925781-4.40625 4.78125-7.664062 4.78125zm0 0"/><path d="m273.128906 93.933594h-34.132812c-9.421875-.007813-17.054688-7.644532-17.066406-17.066406v-34.132813c.011718-9.421875 7.644531-17.054687 17.066406-17.066406h34.132812c9.421875.011719 17.058594 7.644531 17.066406 17.066406v34.132813c-.007812 9.421874-7.644531 17.058593-17.066406 17.066406zm-34.132812-51.199219v34.132813h34.144531l-.011719-34.132813zm0 0"/><path d="m170.722656 110.351562c-14.136718-.019531-25.585937-11.476562-25.59375-25.613281v-49.875c0-8.664062 4.386719-16.742187 11.652344-21.464843 7.269531-4.722657 16.429688-5.445313 24.347656-1.925782l52.800782 23.464844c2.839843 1.207031 4.808593 3.847656 5.148437 6.914062.34375 3.0625-.996094 6.074219-3.5 7.875-2.503906 1.796876-5.785156 2.105469-8.582031.804688l-52.796875-23.46875c-2.640625-1.171875-5.695313-.929688-8.121094.644531-2.421875 1.574219-3.882813 4.269531-3.882813 7.15625v49.875c0 2.890625 1.460938 5.582031 3.882813 7.160157 2.425781 1.574218 5.480469 1.816406 8.121094.640624l52.796875-23.464843c2.796875-1.304688 6.078125-.996094 8.582031.804687 2.503906 1.800782 3.84375 4.808594 3.5 7.875-.339844 3.0625-2.308594 5.707032-5.148437 6.910156l-52.800782 23.46875c-3.273437 1.460938-6.820312 2.21875-10.40625 2.21875zm0 0"/><path d="m341.414062 110.351562c-3.585937 0-7.132812-.757812-10.410156-2.21875l-52.808594-23.464843c-4.308593-1.917969-6.246093-6.960938-4.332031-11.269531 1.914063-4.308594 6.957031-6.246094 11.265625-4.332032l52.808594 23.464844c2.636719 1.175781 5.691406.933594 8.113281-.640625s3.878907-4.265625 3.878907-7.152344v-49.875c0-2.886719-1.460938-5.578125-3.878907-7.152343-2.421875-1.574219-5.472656-1.820313-8.113281-.648438l-52.808594 23.472656c-4.304687 1.914063-9.351562-.027344-11.265625-4.332031-1.914062-4.308594.027344-9.355469 4.335938-11.269531l52.804687-23.464844c7.917969-3.519531 17.082032-2.789062 24.34375 1.929688 7.265625 4.722656 11.648438 12.800781 11.648438 21.464843v49.875c-.003906 14.132813-11.449219 25.589844-25.582032 25.613281zm0 0"/><path d="m145.628906 314.832031c-12.726562.417969-25.289062-2.953125-36.09375-9.6875-36.730468-24.484375-32.65625-91.429687-32.464844-94.269531.207032-3.019531 2-5.707031 4.710938-7.058594 2.539062-1.277344 62.765625-30.785156 99.507812-6.292968 36.722657 24.488281 32.65625 91.429687 32.464844 94.265624-.207031 3.023438-1.996094 5.707032-4.707031 7.0625-19.835937 9.570313-41.414063 15.007813-63.417969 15.980469zm-51.671875-97.863281c-.175781 14.734375 1.40625 58.214844 25.046875 73.972656 21.660156 14.433594 60.007813 2.574219 77.867188-5.242187.171875-14.734375-1.414063-58.21875-25.046875-73.976563-21.652344-14.433594-60.003907-2.570312-77.867188 5.246094zm0 0"/><path d="m367.0625 314.832031c-22.003906-.972656-43.578125-6.410156-63.414062-15.980469-2.710938-1.351562-4.503907-4.039062-4.710938-7.0625-.191406-2.835937-4.265625-69.78125 32.46875-94.265624 36.730469-24.484376 96.957031 5.019531 99.507812 6.292968 2.710938 1.351563 4.5 4.039063 4.707032 7.058594.191406 2.839844 4.257812 69.78125-32.464844 94.269531-10.804688 6.730469-23.367188 10.105469-36.09375 9.6875zm-51.300781-29.214843c13.535156 5.820312 54.273437 21.089843 77.925781 5.324218 21.644531-14.425781 25.453125-54.394531 25.109375-73.898437-13.523437-5.820313-54.273437-21.082031-77.925781-5.324219-21.652344 14.433594-25.457032 54.398438-25.109375 73.898438zm0 0"/><path d="m149.398438 314.863281c-.328126-.003906-.652344-.023437-.976563-.058593-.511719-.003907-1.023437-.058594-1.523437-.152344-18.800782-2.773438-27.367188-34.894532-27.367188-63.789063-.023438-7.730469.585938-15.445312 1.824219-23.074219.839843-4.582031 5.199219-7.640624 9.792969-6.875 4.59375.761719 7.726562 5.070313 7.039062 9.675782-1.085938 6.703125-1.617188 13.484375-1.589844 20.273437 0 30.734375 9.386719 45.855469 12.640625 46.867188h.015625c.191406-.03125.375-.050781.566406-.070313 4.011719-1.792968 12.375-18.519531 12.375-46.796875.15625-11.203125-1.398437-22.363281-4.609374-33.097656-1.347657-4.4375 1.097656-9.144531 5.507812-10.589844 4.410156-1.445312 9.164062.898438 10.707031 5.273438 3.796875 12.445312 5.640625 25.402343 5.460938 38.414062 0 29.03125-8.183594 59.972657-26.464844 63.664063-.21875.039062-.433594.074218-.660156.101562-.140625.023438-.292969.039063-.441407.050782-.757812.132812-1.527343.195312-2.296874.183593zm0 0"/><path d="m357.613281 205.550781c-4.710937 0-8.53125-3.820312-8.53125-8.53125.03125-4.75 3.871094-8.589843 8.617188-8.621093 3.941406-.011719 7.378906 2.671874 8.324219 6.496093.945312 3.824219-.847657 7.800781-4.339844 9.625-1.25.679688-2.648438 1.035157-4.070313 1.03125zm0 0"/><path d="m362.730469 314.863281c-.710938.007813-1.417969-.046875-2.117188-.164062-.585937-.042969-1.171875-.128907-1.75-.253907-18.140625-4.875-26-35.414062-26-63.582031-.167969-13.066406 1.710938-26.078125 5.566407-38.5625 1.503906-4.46875 6.34375-6.875 10.8125-5.371093 4.46875 1.5 6.875 6.34375 5.371093 10.8125-3.277343 10.726562-4.859375 21.902343-4.683593 33.121093 0 27.171875 7.882812 44.554688 12.332031 46.789063.246093.015625.488281.042968.726562.082031.226563-.019531.457031-.027344.683594-.027344 2.839844-.460937 11.859375-17.546875 11.859375-46.847656.027344-6.789063-.5-13.570313-1.582031-20.273437-.6875-4.605469 2.445312-8.914063 7.039062-9.675782 4.59375-.765625 8.953125 2.292969 9.792969 6.875 1.238281 7.628906 1.847656 15.347656 1.816406 23.078125 0 29.152344-8.675781 61.5625-27.734375 63.851563l-.199219.023437c-.640624.089844-1.285156.132813-1.933593.125zm-1.167969-16.890625h-.007812zm0 0"/><path d="m256.0625 392.601562c-4.84375.019532-9.484375-1.925781-12.867188-5.394531l-33.816406-35.367187c-4.484375-4.546875-5.761718-11.359375-3.230468-17.222656 2.820312-6.34375 9.160156-10.394532 16.105468-10.28125h67.625c6.949219-.113282 13.289063 3.933593 16.113282 10.28125 2.53125 5.867187 1.253906 12.679687-3.234376 17.226562l-33.808593 35.355469c-3.382813 3.472656-8.035157 5.425781-12.886719 5.402343zm-33.058594-51.199218 32.519532 34.007812c.34375.175782.753906.171875 1.097656-.007812l32.902344-34.414063zm0 0"/><path d="m256.0625 418.203125c-4.710938 0-8.53125-3.820313-8.53125-8.535156v-25.597657c0-4.714843 3.820312-8.535156 8.53125-8.535156 4.714844 0 8.535156 3.820313 8.535156 8.535156v25.597657c0 4.714843-3.820312 8.535156-8.535156 8.535156zm0 0"/><path d="m120.597656 170.738281c-6.453125-.027343-12.894531-.488281-19.285156-1.382812-3.054688-.371094-5.671875-2.359375-6.847656-5.203125-1.179688-2.84375-.734375-6.097656 1.160156-8.523438 1.894531-2.421875 4.949219-3.640625 7.992188-3.179687 50.863281 6.886719 58.796874-17.769531 58.863281-18.023438.738281-2.992187 3.03125-5.355469 6-6.179687 2.972656-.828125 6.15625.011718 8.332031 2.195312s3.003906 5.371094 2.167969 8.335938c-.382813 1.445312-9.050781 31.960937-58.382813 31.960937zm0 0"/><path d="m391.53125 170.738281c-49.34375 0-58-30.515625-58.382812-31.960937-1.238282-4.546875 1.445312-9.238282 5.992187-10.476563s9.238281 1.445313 10.476563 5.992188c.398437 1.289062 8.539062 24.953125 58.898437 18.15625 3.042969-.460938 6.097656.757812 7.992187 3.179687 1.894532 2.425782 2.339844 5.679688 1.160157 8.523438-1.175781 2.84375-3.792969 4.832031-6.847657 5.203125-6.390624.894531-12.835937 1.355469-19.289062 1.382812zm0 0"/><path d="m114.761719 238.992188c-10.769531-.042969-21.464844-1.722657-31.726563-4.984376-4.476562-1.421874-6.964844-6.191406-5.566406-10.675781 1.402344-4.484375 6.160156-6.996093 10.648438-5.617187 12.96875 4.210937 26.757812 5.261718 40.21875 3.0625 11.679687-2.074219 22.828124-6.449219 32.796874-12.875 3.988282-2.550782 7.773438-5.398438 11.328126-8.523438 3.546874-3.101562 8.9375-2.738281 12.039062.808594 3.105469 3.550781 2.742188 8.941406-.808594 12.042969-4.203125 3.691406-8.679687 7.0625-13.394531 10.074219-11.882813 7.644531-25.171875 12.84375-39.082031 15.296874-5.4375.929688-10.941406 1.394532-16.453125 1.390626zm0 0"/><path d="m397.546875 238.992188c-5.511719.003906-11.015625-.460938-16.449219-1.390626-13.90625-2.449218-27.183594-7.644531-39.058594-15.285156-4.71875-3.019531-9.203124-6.386718-13.417968-10.078125-3.550782-3.097656-3.921875-8.488281-.824219-12.039062 3.097656-3.554688 8.488281-3.921875 12.042969-.828125 3.566406 3.132812 7.363281 5.984375 11.359375 8.542968 9.957031 6.421876 21.097656 10.792969 32.765625 12.863282 13.460937 2.191406 27.25 1.144531 40.226562-3.0625 4.488282-1.378906 9.246094 1.132812 10.648438 5.617187 1.398437 4.484375-1.089844 9.253907-5.566406 10.675781-10.261719 3.261719-20.960938 4.941407-31.726563 4.984376zm0 0"/><path d="m298.730469 460.867188c-2.265625.003906-4.433594-.894532-6.035157-2.5l-36.632812-36.632813-36.632812 36.632813c-3.34375 3.246093-8.675782 3.207031-11.972657-.089844s-3.339843-8.628906-.09375-11.976563l42.667969-42.664062c3.332031-3.332031 8.734375-3.332031 12.066406 0l42.667969 42.664062c2.4375 2.441407 3.167969 6.113281 1.847656 9.300781-1.320312 3.1875-4.433593 5.265626-7.882812 5.265626zm0 0"/><path d="m17.128906 435.269531c-3.347656-.003906-6.382812-1.960937-7.769531-5.011719-1.382813-3.046874-.855469-6.621093 1.347656-9.144531 38.882813-43.113281 93.480469-68.765625 151.488281-71.179687 4.714844 0 8.535157 3.816406 8.539063 8.53125.003906 4.710937-3.816406 8.535156-8.527344 8.535156-.816406.007812-82.320312.96875-138.652343 65.355469-1.621094 1.851562-3.960938 2.914062-6.425782 2.914062zm0 0"/><path d="m85.398438 495.007812c-2.742188-.003906-5.316407-1.328124-6.921876-3.550781-1.601562-2.226562-2.039062-5.085937-1.171874-7.6875 26.710937-80.148437 88.46875-98.625 91.082031-99.371093 4.496093-1.210938 9.132812 1.40625 10.417969 5.882812 1.289062 4.472656-1.25 9.152344-5.699219 10.515625-2.277344.667969-55.859375 17.113281-79.617188 88.371094-1.160156 3.484375-4.417969 5.835937-8.089843 5.839843zm0 0"/><path d="m494.996094 435.269531c-2.460938 0-4.804688-1.0625-6.425782-2.914062-35.804687-39.191407-85.625-62.675781-138.640624-65.355469-4.710938 0-8.53125-3.820312-8.53125-8.53125 0-4.714844 3.820312-8.535156 8.53125-8.535156 58.007812 2.414062 112.609374 28.066406 151.492187 71.179687 2.203125 2.523438 2.726563 6.097657 1.34375 9.144531-1.382813 3.050782-4.421875 5.007813-7.769531 5.011719zm0 0"/><path d="m426.730469 495.007812c-3.671875-.003906-6.929688-2.355468-8.089844-5.839843-23.761719-71.257813-77.34375-87.703125-79.617187-88.371094-4.453126-1.363281-6.988282-6.042969-5.699219-10.515625 1.285156-4.476562 5.917969-7.09375 10.414062-5.882812 2.617188.746093 64.375 19.222656 91.085938 99.371093.863281 2.601563.429687 5.460938-1.175781 7.6875-1.601563 2.222657-4.175782 3.546875-6.917969 3.550781zm0 0"/></g></svg>