<svg height="512pt" viewBox="-26 0 512 512.17796" width="512pt" xmlns="http://www.w3.org/2000/svg"><path d="m441.523438 266.757812c-.660157-12.292968-3.222657-24.414062-7.59375-35.925781 2.390624-34.558593 18.515624-41.726562 18.515624-102.652343.226563-45.199219-18.316406-88.460938-51.199218-119.46875-25.597656 17.066406-58.707032 43.09375-76.800782 85.332031-25.597656 59.734375-59.730468 59.734375-59.730468 59.734375h-68.269532s-34.132812 0-59.730468-59.734375c-18.089844-42.238281-51.199219-68.265625-76.800782-85.332031-32.882812 31.007812-51.425781 74.269531-51.199218 119.46875 0 60.925781 16.128906 68.09375 18.515625 102.652343-4.371094 11.511719-6.929688 23.632813-7.59375 35.925781l-4.097657 59.734376c-1.785156 32.765624 9.984376 64.820312 32.550782 88.644531 22.5625 23.824219 53.933594 37.316406 86.746094 37.308593h191.488281c32.8125.007813 64.183593-13.484374 86.75-37.308593 22.5625-23.824219 34.332031-55.878907 32.546875-88.644531zm0 0" fill="#cf976a"/><path d="m326.324219 452.445312h-191.488281c-32.8125.007813-64.183594-13.484374-86.746094-37.308593-22.566406-23.824219-34.335938-55.878907-32.550782-88.644531l4.097657-59.734376c2.15625-39.929687 24.164062-76.132812 58.625-96.425781l-.085938-.085937c5.886719-3.414063 32-20.222656 24.40625-50.601563-9.046875-36.179687-27.648437-47.957031-38.058593-88.0625-2.046876-7.511719-3.585938-15.152343-4.609376-22.871093 25.601563 17.066406 58.710938 43.09375 76.800782 85.332031 25.597656 59.734375 59.730468 59.734375 59.730468 59.734375h68.269532s34.132812 0 59.730468-59.734375c10.613282-24.070313 26.542969-45.429688 46.59375-62.460938 9.550782-8.285156 19.640626-15.925781 30.207032-22.871093-8.53125 59.734374-32.085938 68.695312-42.664063 110.933593-7.339843 29.269531 16.722657 45.996094 23.722657 50.175781l-.085938.085938c34.832031 20.21875 57.132812 56.632812 59.304688 96.851562l4.097656 59.734376c1.785156 32.765624-9.984375 64.820312-32.546875 88.644531-22.566407 23.824219-53.9375 37.316406-86.75 37.308593zm0 0" fill="#cad9fc"/><path d="m300.722656 452.445312h-165.886718c-32.8125.007813-64.183594-13.484374-86.746094-37.308593-22.566406-23.824219-34.335938-55.878907-32.550782-88.644531l4.097657-59.734376c2.15625-39.929687 24.164062-76.132812 58.625-96.425781l-.085938-.085937c5.886719-3.414063 32-20.222656 24.40625-50.601563-9.046875-36.179687-27.648437-47.957031-38.058593-88.0625 20.046874 17.03125 35.976562 38.390625 46.589843 62.460938 25.601563 59.734375 59.734375 59.734375 59.734375 59.734375h93.867188s34.132812 0 59.730468-59.734375c10.613282-24.070313 26.542969-45.429688 46.59375-62.460938-10.410156 40.105469-29.011718 51.882813-38.058593 88.0625-7.339844 29.269531 16.726562 45.996094 23.722656 50.175781l-.085937.085938c34.835937 20.21875 57.132812 56.632812 59.308593 96.851562l4.09375 59.734376c1.789063 32.765624-9.984375 64.820312-32.546875 88.644531s-53.933594 37.316406-86.75 37.308593zm0 0" fill="#e8edfc"/><path d="m78.175781 170.246094.085938.085937c-23.359375 13.820313-41.347657 35.148438-51.03125 60.5-2.386719-34.558593-18.515625-41.726562-18.515625-102.652343-.226563-45.199219 18.316406-88.460938 51.199218-119.46875 8.53125 59.734374 32.085938 68.695312 42.667969 110.933593 7.59375 30.378907-18.519531 47.1875-24.40625 50.601563zm0 0" fill="#a4c2f7"/><path d="m452.445312 128.179688c0 60.925781-16.125 68.09375-18.515624 102.652343-4.421876-11.664062-10.671876-22.554687-18.515626-32.253906-9.210937-11.515625-20.464843-21.234375-33.195312-28.671875l.085938-.085938c-7-4.179687-31.0625-20.90625-23.722657-50.175781 8.957031-35.925781 27.390625-47.785156 37.886719-87.210937 2.078125-7.800782 3.675781-15.722656 4.777344-23.722656 32.882812 31.007812 51.425781 74.269531 51.199218 119.46875zm0 0" fill="#7facfa"/><path d="m426.847656 128.179688c.75 23.980468-3.132812 47.886718-11.433594 70.398437-9.210937-11.515625-20.464843-21.234375-33.195312-28.671875l.085938-.085938c-7-4.179687-31.0625-20.90625-23.722657-50.175781 8.957031-35.925781 27.390625-47.785156 37.886719-87.210937 19.804688 27.996094 30.421875 61.453125 30.378906 95.746094zm0 0" fill="#a4c2f7"/><path d="m182.792969 477.875c6.796875 15.628906 22.210937 25.746094 39.253906 25.769531h17.066406c17.046875-.023437 32.457031-10.140625 39.253907-25.769531l-47.785157-51.199219zm0 0" fill="#a4c2f7"/><path d="m230.582031 409.777344v17.066406c0 28.277344-22.925781 51.199219-51.203125 51.199219-28.273437 0-51.199218-22.921875-51.199218-51.199219zm0 0" fill="#e8edfc"/><path d="m230.582031 409.777344v17.066406c0 28.277344 22.921875 51.199219 51.199219 51.199219s51.199219-22.921875 51.199219-51.199219zm0 0" fill="#e8edfc"/><path d="m271.058594 371.660156-33.753906 35.359375c-3.730469 3.675781-9.71875 3.675781-13.449219 0l-33.753907-35.359375c-1.625-1.640625-2.40625-3.933594-2.121093-6.222656.683593-3.441406 3.410156-6.105469 6.863281-6.71875.632812-.082031 1.269531-.128906 1.910156-.140625h67.652344c.640625.011719 1.277344.058594 1.910156.140625 3.453125.613281 6.179688 3.277344 6.867188 6.71875.28125 2.289062-.5 4.582031-2.125 6.222656zm0 0" fill="#cad9fc"/><path d="m187.914062 281.777344c-.019531 19.679687-13.480468 36.804687-32.597656 41.472656h-.085937c-14.871094.21875-29.375-4.628906-41.128907-13.738281-1.25-.929688-2.445312-1.925781-3.585937-2.988281-5.183594-7.207032-7.960937-15.867188-7.933594-24.746094.007813-23.558594 19.105469-42.65625 42.664063-42.667969 1.457031.003906 2.910156.085937 4.351562.257813h.085938c7.046875 2.140624 13.640625 5.554687 19.457031 10.070312 7.121094 5.582031 12.96875 12.625 17.152344 20.648438 1.058593 3.808593 1.601562 7.742187 1.621093 11.691406zm0 0" fill="#fff"/><path d="m273.246094 281.777344c.023437 19.679687 13.480468 36.804687 32.597656 41.472656l-6.996094-7.339844c12.96875 0 34.730469 4.097656 48.214844-6.398437 1.246094-.929688 2.445312-1.925781 3.582031-2.988281 8-12.8125 13.582031-26.984376 16.46875-41.8125 0-23.550782-27.648437-25.601563-51.199219-25.601563-1.453124.003906-2.90625.085937-4.351562.257813h-.085938c-7.046874 2.140624-13.640624 5.554687-19.457031 10.070312-7.121093 5.582031-12.96875 12.625-17.152343 20.648438-1.054688 3.808593-1.601563 7.742187-1.621094 11.691406zm0 0" fill="#fff"/><path d="m170.847656 281.777344c0-18.851563-9.550781-34.132813-21.332031-34.132813-11.785156 0-21.335937 15.28125-21.335937 34.132813 0 18.851562 9.550781 34.132812 21.335937 34.132812 11.78125 0 21.332031-15.28125 21.332031-34.132812zm0 0" fill="#7facfa"/><path d="m332.980469 281.777344c0-18.851563-9.550781-34.132813-21.332031-34.132813-11.785157 0-21.335938 15.28125-21.335938 34.132813 0 18.851562 9.550781 34.132812 21.335938 34.132812 11.78125 0 21.332031-15.28125 21.332031-34.132812zm0 0" fill="#7facfa"/><path d="m145.246094 264.710938c0-9.425782-9.550782-17.066407-21.332032-17.066407s-21.332031 7.640625-21.332031 17.066407c0 9.425781 9.550781 17.066406 21.332031 17.066406s21.332032-7.640625 21.332032-17.066406zm0 0" fill="#fff"/><path d="m307.378906 264.710938c-1.316406 10.527343-10.773437 18.089843-21.332031 17.066406-5.210937.097656-10.308594-1.519532-14.507813-4.605469 4.289063-10.875 11.351563-20.4375 20.480469-27.734375.335938-.304688.707031-.5625 1.109375-.769531 7.808594 1.550781 13.632813 8.105469 14.25 16.042969zm0 0" fill="#fff"/><path d="m80.394531 168.882812c6.28125-9.574218 8.148438-21.386718 5.121094-32.425781-10.496094-41.902343-33.707031-51.03125-42.414063-109.398437 5-6.644532 10.628907-12.789063 16.8125-18.347656 8.53125 59.734374 32.085938 68.695312 42.667969 110.933593 4.222657 19.503907-4.777343 39.480469-22.1875 49.238281zm0 0" fill="#7facfa"/><path d="m380.800781 168.882812c-6.28125-9.574218-8.148437-21.386718-5.121093-32.425781 10.496093-41.902343 33.707031-51.03125 42.410156-109.398437-4.996094-6.644532-10.628906-12.789063-16.808594-18.347656-8.535156 59.734374-32.085938 68.695312-42.667969 110.933593-4.222656 19.503907 4.777344 39.480469 22.1875 49.238281zm0 0" fill="#7facfa"/><path d="m27.230469 230.832031c-4.371094 11.511719-6.929688 23.632813-7.59375 35.925781l-4.097657 59.734376c-1.785156 32.765624 9.984376 64.820312 32.550782 88.644531 22.5625 23.824219 53.933594 37.316406 86.746094 37.308593h.25c8.855468 15.289063-97.699219-57.515624-93.945313-125.953124l4.097656-59.734376c.660157-12.292968 3.222657-24.414062 7.59375-35.925781-2.390625-34.558593-18.519531-41.726562-18.519531-102.652343-.058594-36.582032 12.039062-72.144532 34.394531-101.101563l-.003906-.019531.273437-.34375c.617188-.796875 1.195313-1.492188 1.792969-2.238282.628907-.785156 1.257813-1.566406 1.863281-2.292968.804688-.960938 1.558594-1.847656 2.3125-2.707032l.046876-.054687c-5.179688-3.875-10.277344-7.511719-15.078126-10.710937l-.339843.300781c-.171875.140625-.402344.359375-.75.671875l-.34375.316406c-.398438.363281-.84375.789062-1.40625 1.324219l-.0625.0625c-1.699219 1.621093-4.046875 4.03125-6.832031 7.15625-.277344.308593-.542969.609375-.828126.933593-.753906.859376-1.507812 1.746094-2.3125 2.707032-.605468.726562-1.234374 1.507812-1.863281 2.292968-.597656.746094-1.175781 1.441407-1.792969 2.238282l-.273437.34375.003906.019531c-22.355469 28.957031-34.457031 64.519531-34.398437 101.101563 0 60.925781 16.128906 68.09375 18.515625 102.652343zm0 0" fill="#fff"/><path d="m264.714844 162.3125h-68.269532c-4.710937 0-8.53125-3.820312-8.53125-8.535156 0-4.710938 3.820313-8.53125 8.53125-8.53125h68.269532c4.710937 0 8.53125 3.820312 8.53125 8.53125 0 4.714844-3.820313 8.535156-8.53125 8.535156zm0 0" fill="#428dff"/><path d="m134.835938 460.976562c-35.140626-.039062-68.722657-14.511718-92.890626-40.027343-24.164062-25.511719-36.792968-59.832031-34.925781-94.925781l17.042969.941406c-1.609375 30.410156 9.339844 60.144531 30.28125 82.253906s50.039062 34.648438 80.492188 34.691406zm0 0" fill="#fff"/><g fill="#428dff"><path d="m93.101562 444.800781c-.824218 2.195313-.675781 4.636719.410157 6.714844 1.082031 2.082031 2.996093 3.605469 5.265625 4.191406 11.722656 3.386719 23.855468 5.160157 36.058594 5.269531v-17.066406c-10.578126-.109375-21.09375-1.648437-31.257813-4.582031-4.371094-1.082031-8.867187 1.265625-10.476563 5.472656zm0 0"/><path d="m24.0625 326.960938-17.042969-.9375c-1.535156 29.957031 7.433594 59.515624 25.359375 83.570312 1.796875 2.457031 3.726563 4.816406 5.777344 7.070312 1.457031 1.832032 3.628906 2.953126 5.964844 3.082032 2.339844.128906 4.621094-.75 6.269531-2.410156 3.15625-3.226563 3.4375-8.289063.664063-11.847657-1.785157-1.949219-3.460938-3.992187-5.019532-6.128906-15.523437-20.84375-23.292968-46.445313-21.972656-72.398437zm0 0"/><path d="m65.652344 440.53125c2 1.261719 4.394531 1.734375 6.722656 1.324219l1.550781-.5625c.53125-.261719 1.019531-.589844 1.460938-.984375.457031-.304688.863281-.679688 1.207031-1.109375.355469-.449219.683594-.921875.972656-1.417969 1.023438-1.976562 1.324219-4.253906.847656-6.429688-.257812-1.0625-.703124-2.066406-1.324218-2.96875-1.882813-2.648437-5.15625-3.929687-8.339844-3.265624-1.066406.214843-2.089844.625-3.011719 1.207031-2.574219 1.429687-4.179687 4.136719-4.199219 7.082031-.015624 2.941406 1.554688 5.667969 4.113282 7.128906zm0 0"/><path d="m135.09375 460.976562c-4.738281.011719-8.601562-3.792968-8.664062-8.53125-.027344-2.25.84375-4.417968 2.421874-6.019531 1.578126-1.605469 3.734376-2.507812 5.984376-2.515625h.253906c4.714844 0 8.535156 3.820313 8.535156 8.535156 0 4.710938-3.820312 8.53125-8.535156 8.53125zm0 0"/><path d="m15.546875 335.027344c-.195313 0-.390625-.007813-.589844-.023438-4.703125-.320312-8.253906-4.394531-7.929687-9.09375l4.09375-59.734375c2.347656-42.738281 25.921875-81.472656 62.800781-103.195312 4.058594-2.394531 9.292969-1.046875 11.6875 3.011719 2.394531 4.058593 1.046875 9.292968-3.011719 11.6875-32 18.84375-52.441406 52.460937-54.441406 89.542968l-4.105469 59.855469c-.304687 4.46875-4.019531 7.941406-8.503906 7.949219zm0 0"/><path d="m326.324219 460.976562c-4.738281.011719-8.601563-3.792968-8.660157-8.53125-.03125-2.25.839844-4.417968 2.417969-6.019531 1.582031-1.605469 3.734375-2.507812 5.984375-2.515625 30.511719.078125 59.710938-12.417968 80.71875-34.546875 21.007813-22.128906 31.976563-51.933593 30.316406-82.402343l-4.085937-59.617188c-1.980469-37.394531-22.699219-71.265625-55.089844-90.0625-4.003906-2.398438-5.339843-7.574219-2.988281-11.609375 2.347656-4.039063 7.503906-5.4375 11.570312-3.140625 37.320313 21.664062 61.210938 60.675781 63.539063 103.765625l4.089844 59.613281c1.945312 35.125-10.648438 69.5-34.828125 95.050782-24.175782 25.550781-57.808594 40.023437-92.984375 40.015624zm0 0"/><path d="m27.222656 239.367188c-4.480468-.003907-8.195312-3.476563-8.503906-7.945313-.894531-10.789063-3.308594-21.398437-7.167969-31.511719-8.261719-22.984375-12.121093-47.320312-11.371093-71.730468-.363282-47.757813 19.324218-93.476563 54.273437-126.023438 2.898437-2.425781 7.050781-2.648438 10.195313-.542969 25.085937 16.722657 60.671874 44.160157 79.910156 89.074219 22.683594 52.929688 50.847656 54.515625 52.035156 54.558594 4.667969.160156 8.351562 4.011718 8.308594 8.683594-.046875 4.636718-3.816406 8.375-8.457032 8.382812-1.621093 0-40.074218-.738281-67.574218-64.90625-14.898438-31.820312-38.492188-58.78125-68.058594-77.765625-27.90625 29.25-43.503906 68.109375-43.566406 108.539063-.753906 22.566406 2.804687 45.070312 10.484375 66.300781 4.339843 11.488281 7.035156 23.527343 8.011719 35.769531.324218 4.699219-3.222657 8.773438-7.925782 9.097656-.199218.007813-.398437.019532-.59375.019532zm0 0"/><path d="m433.9375 239.367188c-.195312 0-.394531-.007813-.59375-.019532-4.703125-.328125-8.25-4.402344-7.925781-9.101562.976562-12.238282 3.671875-24.28125 8.011719-35.765625 7.679687-21.234375 11.238281-43.738281 10.484374-66.300781-.0625-40.429688-15.660156-79.285157-43.566406-108.539063-29.566406 18.984375-53.15625 45.941406-68.054687 77.761719-27.503907 64.171875-65.957031 64.910156-67.578125 64.910156-4.714844.03125-8.5625-3.757812-8.597656-8.472656-.035157-4.710938 3.757812-8.5625 8.472656-8.59375 1.472656-.058594 29.453125-1.921875 52.015625-54.5625 19.234375-44.910156 54.816406-72.34375 79.910156-89.070313 3.140625-2.101562 7.292969-1.882812 10.191406.542969 34.949219 32.546875 54.636719 78.265625 54.273438 126.023438.75 24.410156-3.109375 48.746093-11.371094 71.726562-3.859375 10.117188-6.273437 20.722656-7.167969 31.511719-.308594 4.472656-4.019531 7.945312-8.503906 7.949219zm0 0"/><path d="m76.988281 179.378906c-3.953125.003906-7.390625-2.707031-8.308593-6.554687-.914063-3.84375.925781-7.816407 4.453124-9.597657 1.171876-.597656 27.898438-14.589843 21.164063-41.511718-3.765625-14.039063-9.597656-27.4375-17.300781-39.765625-13.546875-21.914063-22.253906-46.472657-25.53125-72.03125-.667969-4.664063 2.574218-8.988281 7.242187-9.65625 4.664063-.664063 8.988281 2.574219 9.65625 7.242187 2.976563 23.4375 10.988281 45.957032 23.476563 66.011719 8.480468 13.667969 14.890625 28.515625 19.023437 44.058594 8.0625 32.253906-16.136719 53.941406-30.0625 60.902343-1.183593.59375-2.488281.902344-3.8125.902344zm0 0"/><path d="m384.164062 179.378906c-1.320312 0-2.621093-.308594-3.800781-.902344-13.925781-6.960937-38.125-28.648437-30.0625-60.902343 4.132813-15.542969 10.542969-30.390625 19.023438-44.058594 12.488281-20.054687 20.496093-42.574219 23.476562-66.011719.371094-3.070312 2.375-5.695312 5.238281-6.867187 2.859376-1.171875 6.128907-.7031252 8.546876 1.222656 2.417968 1.925781 3.605468 5.011719 3.105468 8.058594-3.277344 25.558593-11.984375 50.117187-25.535156 72.03125-7.703125 12.324219-13.53125 25.726562-17.300781 39.765625-6.730469 26.929687 20.027343 40.929687 21.164062 41.511718 3.519531 1.789063 5.355469 5.753907 4.4375 9.59375-.917969 3.839844-4.347656 6.550782-8.292969 6.558594zm0 0"/><path d="m230.582031 418.3125c-4.847656.019531-9.496093-1.929688-12.875-5.40625l-33.8125-35.359375c-4.484375-4.542969-5.765625-11.355469-3.234375-17.21875 2.824219-6.347656 9.164063-10.394531 16.109375-10.285156h67.625c6.941407-.109375 13.28125 3.941406 16.105469 10.285156 2.53125 5.863281 1.25 12.675781-3.234375 17.222656l-33.8125 35.355469c-3.378906 3.476562-8.023437 5.425781-12.871094 5.40625zm-33.0625-51.203125 32.519531 34.011719c.339844.167968.742188.167968 1.082032-.003906l32.910156-34.417969zm0 0"/><path d="m179.378906 486.578125c-32.972656-.035156-59.695312-26.757813-59.730468-59.734375 0-4.710938 3.820312-8.53125 8.53125-8.53125 4.714843 0 8.535156 3.820312 8.535156 8.53125 0 23.566406 19.101562 42.667969 42.664062 42.667969 23.566406 0 42.667969-19.101563 42.667969-42.667969v-17.066406c0-4.710938 3.820313-8.53125 8.535156-8.53125 4.710938 0 8.53125 3.820312 8.53125 8.53125v17.066406c-.035156 32.976562-26.757812 59.699219-59.734375 59.734375zm0 0"/><path d="m281.78125 486.578125c-32.976562-.035156-59.699219-26.757813-59.734375-59.734375v-17.066406c0-4.710938 3.820313-8.53125 8.535156-8.53125 4.710938 0 8.53125 3.820312 8.53125 8.53125v17.066406c0 23.566406 19.101563 42.667969 42.667969 42.667969 23.5625 0 42.664062-19.101563 42.664062-42.667969 0-4.710938 3.824219-8.53125 8.535157-8.53125 4.714843 0 8.535156 3.820312 8.535156 8.53125-.039063 32.976562-26.761719 59.699219-59.734375 59.734375zm0 0"/><path d="m239.113281 512.179688h-17.066406c-20.445313-.011719-38.9375-12.148438-47.078125-30.902344-1.878906-4.320313.097656-9.347656 4.421875-11.226563 4.320313-1.882812 9.347656.097657 11.226563 4.417969 5.433593 12.523438 17.777343 20.632812 31.429687 20.640625h17.066406c13.652344-.007813 25.996094-8.117187 31.429688-20.640625 1.214843-2.792969 3.832031-4.730469 6.859375-5.074219 3.03125-.34375 6.011718.953125 7.828125 3.40625 1.8125 2.449219 2.179687 5.679688.960937 8.476563-8.140625 18.753906-26.632812 30.890625-47.078125 30.902344zm0 0"/><path d="m155.347656 323.222656c-14.914062.234375-29.464844-4.585937-41.285156-13.683594-20.570312-14.996093-27.90625-42.300781-17.625-65.589843 1.121094-2.378907 3.273438-4.105469 5.835938-4.683594 27.722656-6.257813 50.234374-2.839844 66.902343 10.171875 26.121094 20.394531 27.234375 56.566406 27.269531 58.09375.078126 3.351562-1.8125 6.4375-4.835937 7.882812-11.425781 5.058594-23.765625 7.71875-36.261719 7.808594zm-44.800781-68.238281c-4.714844 15.273437.925781 31.847656 13.980469 41.074219 19.53125 15.144531 43.675781 9.648437 54.269531 6.078125-1.625-15.15625-8.828125-29.167969-20.207031-39.3125-11.589844-8.996094-27.734375-11.625-48.046875-7.839844zm0 0"/><path d="m305.8125 323.222656c-12.492188-.09375-24.832031-2.75-36.257812-7.808594-3.019532-1.445312-4.914063-4.53125-4.835938-7.882812.03125-1.527344 1.144531-37.699219 27.261719-58.09375 16.667969-13.011719 39.191406-16.429688 66.902343-10.171875 2.5625.578125 4.714844 2.304687 5.835938 4.683594 10.28125 23.289062 2.945312 50.59375-17.625 65.589843-11.816406 9.097657-26.367188 13.917969-41.28125 13.683594zm-23.46875-21.125c10.621094 3.539063 34.878906 9.019532 54.296875-6.039062 13.050781-9.226563 18.691406-25.800782 13.976563-41.074219-20.359376-3.808594-36.539063-1.152344-48.132813 7.90625-11.355469 10.109375-18.539063 24.089844-20.140625 39.207031zm0 0"/><path d="m187.914062 375.644531c-4.714843 0-8.535156-3.820312-8.535156-8.535156v-59.386719c0-4.710937 3.820313-8.53125 8.535156-8.53125 4.710938 0 8.53125 3.820313 8.53125 8.53125v59.386719c0 4.714844-3.820312 8.535156-8.53125 8.535156zm0 0"/><path d="m273.246094 375.644531c-4.710938 0-8.53125-3.820312-8.53125-8.535156v-59.386719c0-4.710937 3.820312-8.53125 8.53125-8.53125 4.714844 0 8.535156 3.820313 8.535156 8.53125v59.386719c0 4.714844-3.820312 8.535156-8.535156 8.535156zm0 0"/></g></svg>