<svg height="512pt" viewBox="0 0 512 512.00274" width="512pt" xmlns="http://www.w3.org/2000/svg"><path d="m468.054688 192.511719c-22.1875-68.777344 35.414062-183.976563 35.414062-183.976563s-68.265625 34.132813-247.464844 34.132813c-179.203125 0-247.46875-34.132813-247.46875-34.132813s57.601563 115.199219 35.414063 183.976563c0 .046875-.039063.085937-.085938.085937-22.847656 43.226563-34.964843 91.3125-35.328125 140.203125 0 110.761719 68.777344 170.667969 153.601563 170.667969 19.113281.089844 38.09375-3.203125 56.0625-9.730469 12.074219-4.644531 24.871093-7.128906 37.804687-7.335937 12.933594.207031 25.726563 2.691406 37.800782 7.335937 17.96875 6.527344 36.949218 9.820313 56.0625 9.730469 84.824218 0 153.601562-59.90625 153.601562-170.667969-.363281-48.890625-12.480469-96.976562-35.328125-140.203125-.046875 0-.085937-.039062-.085937-.085937zm0 0" fill="#ecf0f1"/><path d="m468.140625 192.597656c22.847656 43.226563 34.964844 91.3125 35.328125 140.203125 0 110.761719-68.777344 170.667969-153.601562 170.667969-4.351563 0-8.617188-.171875-12.796876-.511719-14.785156-1.023437-29.347656-4.125-43.265624-9.21875-12.074219-4.644531-24.867188-7.128906-37.800782-7.335937-4.285156.015625-8.5625.328125-12.800781.9375-8.546875 1.195312-16.933594 3.339844-25.003906 6.398437-17.96875 6.527344-36.949219 9.820313-56.0625 9.730469-4.351563 0-8.621094-.171875-12.800781-.511719-78.847657-5.71875-140.800782-65.027343-140.800782-170.15625.363282-48.890625 12.480469-96.976562 35.328125-140.203125.046875 0 .085938-.039062.085938-.085937 26.539062-49.40625 65.621093-85.589844 109.738281-89.683594l-.085938-.425781c-45.140624-6.488282-104.789062-56.664063-131.328124-80.898438-7.851563-7.167968-12.800782-12.03125-13.652344-12.882812 1.960937.9375 66.644531 31.914062 230.910156 33.960937h7.339844c2.988281.085938 6.058594.085938 9.132812.085938 103.847656 0 170.496094-11.433594 208.125-21.164063 13.503906-3.039062 26.675782-7.382812 39.339844-12.96875 0 0-85.332031 85.332032-145.066406 93.867188l-.085938.425781c44.117188 4.09375 83.199219 40.277344 109.738282 89.683594 0 .046875.039062.085937.085937.085937zm0 0" fill="#cad9fc"/><path d="m477.867188 332.800781c0 105.128907-61.949219 164.4375-140.796876 170.15625-4.183593.339844-8.449218.511719-12.800781.511719-19.117187.089844-38.097656-3.203125-56.066406-9.730469-8.066406-3.058593-16.453125-5.203125-25-6.398437-4.242187-.609375-8.515625-.921875-12.800781-.9375-12.933594.207031-25.730469 2.691406-37.804688 7.335937-13.914062 5.09375-28.480468 8.195313-43.261718 9.21875-78.847657-5.71875-140.800782-65.027343-140.800782-170.15625.363282-48.890625 12.480469-96.976562 35.328125-140.203125.046875 0 .085938-.039062.085938-.085937 26.539062-49.40625 65.621093-85.589844 109.738281-89.683594l-.085938-.425781c-45.140624-6.488282-104.789062-56.664063-131.328124-80.898438 37.632812 9.730469 104.277343 21.164063 208.128906 21.164063 3.070312 0 6.144531 0 9.128906-.085938h7.339844c2.988281.085938 6.058594.085938 9.132812.085938 103.847656 0 170.496094-11.433594 208.125-21.164063-26.539062 24.234375-86.183594 74.410156-131.328125 80.898438l-.082031.425781c44.117188 4.09375 83.199219 40.277344 109.738281 89.683594 0 .046875.035157.085937.082031.085937 22.847657 43.226563 34.964844 91.3125 35.328126 140.203125zm0 0" fill="#e8edfc"/><path d="m153.6875 102.828125c-44.117188 4.09375-83.199219 40.277344-109.738281 89.683594 22.1875-68.777344-35.414063-183.976563-35.414063-183.976563s85.332032 85.332032 145.066406 93.867188zm0 0" fill="#a4c2f7"/><path d="m468.054688 192.511719c-8.441407-15.914063-18.691407-30.804688-30.546876-44.371094-22.613281-25.601563-49.835937-42.582031-79.191406-45.3125l.085938-.425781c33.023437-4.695313 73.8125-32.855469 103.679687-57.175782 24.320313-19.625 41.386719-36.691406 41.386719-36.691406s-57.601562 115.199219-35.414062 183.976563zm0 0" fill="#7facfa"/><path d="m462.082031 45.226562c-13.316406 32.875-21.601562 67.570313-24.574219 102.914063-22.613281-25.601563-49.835937-42.582031-79.191406-45.3125l.085938-.425781c33.023437-4.695313 73.8125-32.855469 103.679687-57.175782zm0 0" fill="#a4c2f7"/><path d="m203.523438 257.964844c-2.164063-15.132813-9.523438-29.042969-20.824219-39.339844-8.359375-7.054688-18.585938-11.527344-29.4375-12.886719-11.152344-1.429687-22.464844-.941406-33.453125 1.453125-2.875.554688-5.261719 2.554688-6.3125 5.289063-5.632813 14.679687-9.046875 47.703125 18.003906 67.5 9.625 7.21875 21.335938 11.113281 33.367188 11.09375 12.871093-.257813 25.421874-4.066407 36.265624-11.007813 2.222657-1.5 3.589844-3.976562 3.667969-6.65625.089844-5.179687-.339843-10.351562-1.277343-15.445312zm0 0" fill="#fff"/><path d="m398.59375 212.480469c-1.097656-2.699219-3.460938-4.683594-6.3125-5.289063-26.796875-5.292968-47.957031-1.453125-62.976562 11.433594-1.28125 1.109375-2.476563 2.21875-3.585938 3.328125-5.953125 6.257813-10.519531 13.703125-13.394531 21.84375-3.445313 9.492187-5.175781 19.515625-5.121094 29.613281.082031 2.679688 1.445313 5.15625 3.667969 6.65625 10.84375 6.941406 23.394531 10.75 36.265625 11.007813 12.035156.03125 23.75-3.863281 33.367187-11.09375 27.136719-19.796875 23.636719-52.820313 18.089844-67.5zm0 0" fill="#fff"/><path d="m296.535156 328.789062-33.792968 35.414063c-3.742188 3.671875-9.734376 3.671875-13.480469 0l-33.792969-35.414063c-1.804688-1.773437-2.523438-4.378906-1.878906-6.824218 1.058594-3.84375 4.640625-6.433594 8.621094-6.230469h67.582031c.542969-.015625 1.085937.011719 1.621093.085937 3.363282.4375 6.128907 2.867188 7 6.144532.644532 2.445312-.074218 5.050781-1.878906 6.824218zm0 0" fill="#cad9fc"/><path d="m218.390625 424.140625s18.964844-29.710937 37.613281-31.605469c18.644532-1.898437 43.261719 39.851563 43.261719 39.851563-10.578125 12.953125-26.546875 20.289062-43.261719 19.882812-16.824218.414063-32.882812-7.03125-43.4375-20.140625zm0 0" fill="#a4c2f7"/><path d="m203.523438 257.964844c-5.171876 20.421875-24.472657 34.011718-45.441407 32.003906-20.972656-2.007812-37.339843-19.015625-38.542969-40.046875-1.203124-21.03125 13.117188-39.796875 33.722657-44.183594 10.851562 1.359375 21.078125 5.832031 29.4375 12.886719 11.300781 10.296875 18.660156 24.207031 20.824219 39.339844zm0 0" fill="#fff"/><path d="m179.203125 251.734375c0-16.496094-7.640625-29.867187-17.066406-29.867187s-17.066407 13.371093-17.066407 29.867187 7.640626 29.867187 17.066407 29.867187 17.066406-13.371093 17.066406-29.867187zm0 0" fill="#7facfa"/><path d="m308.480469 257.964844c5.175781 20.421875 24.472656 34.011718 45.445312 32.003906 20.96875-2.007812 37.335938-19.015625 38.539063-40.046875 1.207031-21.03125-13.117188-39.796875-33.722656-44.183594-10.851563 1.359375-21.078126 5.832031-29.4375 12.886719-11.300782 10.296875-18.660157 24.207031-20.824219 39.339844zm0 0" fill="#fff"/><path d="m366.9375 251.734375c0-16.496094-7.644531-29.867187-17.070312-29.867187-9.425782 0-17.066407 13.371093-17.066407 29.867187s7.640625 29.867187 17.066407 29.867187c9.425781 0 17.070312-13.371093 17.070312-29.867187zm0 0" fill="#7facfa"/><path d="m153.601562 234.667969c0-7.070313-7.640624-12.800781-17.066406-12.800781-9.425781 0-17.066406 5.730468-17.066406 12.800781 0 7.070312 7.640625 12.800781 17.066406 12.800781 9.425782 0 17.066406-5.730469 17.066406-12.800781zm0 0" fill="#fff"/><path d="m341.335938 234.667969c0 7.082031-7.679688 12.800781-17.066407 12.800781-4.269531.050781-8.445312-1.234375-11.945312-3.671875 2.875-8.140625 7.441406-15.585937 13.394531-21.84375 7.710938-.445313 14.488281 5.074219 15.617188 12.714844zm0 0" fill="#fff"/><path d="m502.734375 8.882812c-.28125.128907-.707031.320313-1.164063.523438-.296874.128906-.660156.285156-1.027343.441406-.335938.144532-.742188.308594-1.136719.472656-.695312.289063-1.484375.605469-2.371094.953126-.539062.210937-1.121094.433593-1.734375.667968s-1.25.476563-1.949219.730469c-1.195312.4375-2.519531.90625-3.941406 1.398437-.546875.1875-1.132812.382813-1.714844.578126-6.011718 2.019531-13.769531 4.375-23.566406 6.855468-11.539062 2.984375-25.835937 6.125-43.066406 9.046875-1.210938.207031-2.476562.40625-3.714844.609375-2.03125.332032-4.089844.664063-6.199218.988282-1.644532.257812-3.328126.503906-5.019532.75-1.828125.269531-3.6875.535156-5.574218.800781-1.902344.261719-3.820313.523437-5.78125.78125-1.808594.238281-3.667969.46875-5.523438.699219-2.082031.257812-4.15625.515624-6.304688.769531-1.898437.21875-3.867187.425781-5.816406.640625-2.195312.242187-4.351562.484375-6.609375.714844-2.75.28125-5.609375.539062-8.457031.800781-3.226562.300781-6.527344.582031-9.878906.855469-2.585938.210937-5.15625.425781-7.816406.621093-2.179688.160157-4.4375.304688-6.664063.457031-2.640625.175782-5.289063.351563-7.996094.511719-2.269531.132813-4.585937.253907-6.902343.382813-2.835938.148437-5.707032.292968-8.617188.425781-2.292969.101563-4.613281.203125-6.953125.296875-3.140625.125-6.34375.234375-9.574219.339844-2.234375.070312-4.457031.144531-6.730468.203125-3.675782.097656-7.4375.171875-11.222657.234375-1.960937.035156-3.875.082031-5.863281.105468-1.765625.023438-3.617188.023438-5.402344.039063h4.03125c2.984375.089844 6.058594.089844 9.128906.089844 6.082032 0 12.011719-.046875 17.839844-.121094 1.988282-.027344 3.910156-.074219 5.867188-.105469 3.785156-.066406 7.546875-.140625 11.222656-.234375 2.273438-.0625 4.496094-.136719 6.730469-.207031 3.226562-.101562 6.429687-.210938 9.574219-.339844 2.339843-.09375 4.660156-.191406 6.953124-.296875 2.910157-.132812 5.785157-.277343 8.617188-.425781 2.316406-.125 4.632812-.246094 6.898438-.382812 2.714843-.160157 5.359374-.339844 8-.511719 2.230468-.152344 4.484374-.292969 6.664062-.453125 2.660156-.199219 5.230469-.414063 7.816406-.625 3.351563-.273438 6.65625-.558594 9.878906-.851563 2.847657-.261719 5.703126-.523437 8.457032-.804687 2.253906-.226563 4.414062-.472656 6.609375-.710938 1.949219-.214844 3.917969-.429687 5.816406-.644531 2.144531-.25 4.222656-.511719 6.304687-.769531 1.855469-.230469 3.714844-.460938 5.523438-.699219 1.960938-.253906 3.878906-.515625 5.78125-.78125 1.886719-.261719 3.742188-.527344 5.574219-.796875 1.691406-.25 3.375-.5 5.019531-.75 2.109375-.328125 4.167969-.65625 6.199219-.992188 1.238281-.203124 2.5-.402343 3.710937-.609374 17.234375-2.921876 31.53125-6.066407 43.070313-9.042969 3.144531-.796875 6.03125-1.578125 8.777343-2.34375 3.015626-6.738281 4.960938-10.632813 4.960938-10.632813l-.3125.148438zm0 0" fill="#fff"/><path d="m43.863281 192.597656c-22.847656 43.226563-34.964843 91.3125-35.328125 140.203125 0 6.753907.273438 13.304688.773438 19.679688.171875 2.132812.5 4.128906.722656 6.214843.441406 4.160157.863281 8.332032 1.511719 12.316407.390625 2.390625.9375 4.644531 1.40625 6.976562.695312 3.507813 1.363281 7.039063 2.214843 10.402344.609376 2.386719 1.359376 4.636719 2.050782 6.949219.925781 3.121094 1.828125 6.265625 2.894531 9.257812.816406 2.292969 1.757813 4.464844 2.65625 6.683594 1.136719 2.816406 2.265625 5.640625 3.53125 8.335938 1.015625 2.164062 2.132813 4.222656 3.230469 6.308593 1.339844 2.542969 2.675781 5.085938 4.125 7.507813 1.207031 2.023437 2.5 3.945312 3.785156 5.882812 1.519531 2.285156 3.046875 4.554688 4.667969 6.722656 1.394531 1.863282 2.851562 3.644532 4.316406 5.421876 1.679687 2.03125 3.378906 4.03125 5.152344 5.949218 1.574219 1.707032 3.195312 3.335938 4.84375 4.949219 1.816406 1.78125 3.660156 3.515625 5.5625 5.183594 1.753906 1.535156 3.542969 3.019531 5.367187 4.460937 1.929688 1.527344 3.894532 3 5.898438 4.414063 1.9375 1.371093 3.898437 2.699219 5.898437 3.96875 2.003907 1.269531 4.0625 2.472656 6.140625 3.644531 2.121094 1.195312 4.253906 2.367188 6.4375 3.453125 2.0625 1.023437 4.167969 1.960937 6.285156 2.894531 2.320313 1.015625 4.644532 2.019532 7.027344 2.917969 2.058594.777344 4.160156 1.457031 6.261719 2.144531 2.546875.835938 5.085937 1.660156 7.691406 2.363282 1.996094.539062 4.035157.972656 6.066407 1.429687 2.800781.636719 5.59375 1.277344 8.453124 1.765625 1.855469.3125 3.746094.515625 5.621094.765625 3.113282.421875 6.222656.847656 9.394532 1.09375.273437.023437.539062.074219.816406.09375 4.179687.34375 8.445312.511719 12.796875.511719 4.257812 0 8.449219-.226563 12.617187-.53125-.210937-.015625-.417968-.058594-.628906-.074219-3.171875-.246094-6.28125-.671875-9.394531-1.09375-1.878907-.253906-3.769531-.457031-5.625-.765625-2.855469-.488281-5.652344-1.128906-8.449219-1.765625-2.03125-.457031-4.070312-.890625-6.066406-1.429687-2.605469-.703126-5.148438-1.527344-7.691406-2.363282-2.101563-.683594-4.203126-1.363281-6.261719-2.144531-2.382813-.898437-4.707031-1.902344-7.027344-2.917969-2.117187-.929687-4.222656-1.871094-6.285156-2.894531-2.1875-1.085937-4.316407-2.253906-6.441407-3.453125-2.074218-1.167969-4.125-2.371094-6.136718-3.644531-2.011719-1.273438-3.964844-2.597657-5.902344-3.96875-2.003906-1.417969-3.96875-2.890625-5.894531-4.414063-1.824219-1.441406-3.613281-2.921875-5.367188-4.460937-1.902343-1.667969-3.75-3.402344-5.566406-5.183594-1.644531-1.613281-3.269531-3.242187-4.84375-4.949219-1.773437-1.917968-3.46875-3.917968-5.148437-5.949218-1.46875-1.777344-2.925782-3.558594-4.320313-5.421876-1.621094-2.167968-3.148437-4.4375-4.667969-6.722656-1.28125-1.9375-2.574218-3.859375-3.785156-5.882812-1.449219-2.421875-2.785156-4.960938-4.121094-7.507813-1.097656-2.085937-2.21875-4.144531-3.234375-6.308593-1.265625-2.695313-2.390625-5.519532-3.53125-8.335938-.894531-2.21875-1.835937-4.390625-2.652343-6.683594-1.066407-2.992187-1.96875-6.136718-2.898438-9.257812-.679688-2.3125-1.433594-4.5625-2.046875-6.949219-.855469-3.363281-1.523437-6.894531-2.21875-10.402344-.460937-2.332031-1.015625-4.582031-1.402344-6.976562-.648437-3.984375-1.074219-8.15625-1.511719-12.316407-.222656-2.085937-.554687-4.082031-.722656-6.214843-.5-6.375-.773437-12.925781-.773437-19.679688.363281-48.890625 12.480469-96.976562 35.328125-140.203125.046875 0 .085937-.039062.085937-.085937 18.113281-56.160157-16.953125-143.238281-30.433593-173.3125-10.476563-2.691407-20.703126-6.261719-30.582032-10.664063 0 0 57.601563 115.199219 35.414063 183.976563 0 .046875-.039063.085937-.085938.085937zm0 0" fill="#fff"/><path d="m293.804688 493.738281c-8.007813-3.03125-16.328126-5.164062-24.804688-6.359375-.621094.085938-1.238281.191406-1.855469.289063-2.953125.4375-5.878906 1.035156-8.789062 1.730469-.726563.171874-1.449219.347656-2.175781.535156 4.0625 1.074218 8.074218 2.351562 12.023437 3.804687 17.96875 6.527344 36.949219 9.820313 56.066406 9.730469 4.351563 0 8.617188-.171875 12.800781-.511719 4.179688.339844 8.445313.511719 12.796876.511719-19.113282.089844-38.09375-3.203125-56.0625-9.730469zm0 0" fill="#fff"/><path d="m17.070312 332.800781c.089844 17.800781 2.183594 35.539063 6.238282 52.871094 4.285156 17.035156 11.261718 33.277344 20.671875 48.113281 12.632812 19.445313 30.164062 35.21875 50.835937 45.734375 20.976563 10.1875 44 15.457031 67.320313 15.414063v17.066406c-25.992188.042969-51.652344-5.855469-75.015625-17.25-23.34375-11.863281-43.152344-29.671875-57.429688-51.625-10.445312-16.421875-18.1875-34.414062-22.9375-53.289062-4.394531-18.695313-6.660156-37.828126-6.74999975-57.035157zm0 0" fill="#fff"/><g fill="#428dff"><path d="m12.359375 375.234375c4.496094-.902344 7.574219-5.070313 7.113281-9.632813-.546875-5.445312-1.585937-10.828124-1.753906-16.324218l-.648438-16.476563h-17.06640575l.68749975 17.632813c.191406 5.878906 1.28125 11.730468 1.890625 17.59375.246094 2.296875 1.445313 4.382812 3.304688 5.75 1.859375 1.371094 4.207031 1.898437 6.472656 1.457031zm0 0"/><path d="m162.136719 512v-17.066406c-23.320313.042968-46.34375-5.226563-67.320313-15.414063-20.671875-10.515625-38.203125-26.289062-50.835937-45.734375-1.582031-2.171875-2.980469-4.46875-4.183594-6.871094-2.390625-3.925781-7.414063-5.332031-11.5-3.21875-2.042969 1.070313-3.550781 2.9375-4.171875 5.160157-.621094 2.222656-.300781 4.601562.886719 6.578125 1.359375 2.679687 2.925781 5.25 4.679687 7.691406 14.277344 21.953125 34.085938 39.757812 57.429688 51.625 23.363281 11.394531 49.019531 17.292969 75.015625 17.25zm0 0"/><path d="m26.785156 397.367188c-.703125-2.074219-2.167968-3.796876-4.101562-4.820313l-1.527344-.597656c-.554688-.171875-1.125-.273438-1.707031-.304688-.535157-.097656-1.085938-.121093-1.628907-.066406-.570312.058594-1.136718.15625-1.695312.292969-2.167969.613281-3.996094 2.074218-5.078125 4.050781-.496094 1.035156-.789063 2.15625-.855469 3.300781-.257812 3.527344 1.527344 6.890625 4.59375 8.648438 1.042969.472656 2.171875.722656 3.316406.730468 1.125.050782 2.246094-.121093 3.304688-.511718 2.0625-.828125 3.757812-2.378906 4.765625-4.363282.992187-1.96875 1.210937-4.238281.613281-6.359374zm0 0"/><path d="m8.535156 341.335938c-4.710937 0-8.53124975-3.820313-8.53124975-8.535157.44531275-50.285156 12.90234375-99.734375 36.33593775-144.230469 29.917968-55.789062 72.398437-90.140624 116.558594-94.238281 3.0625-.335937 6.070312 1.007813 7.863281 3.511719 1.792969 2.507812 2.097656 5.785156.792969 8.578125-1.300782 2.792969-4.007813 4.664063-7.082032 4.898437-38.355468 3.5625-75.929687 34.65625-103.085937 85.308594-22.128907 42.007813-33.894531 88.695313-34.316407 136.171875 0 4.714844-3.820312 8.535157-8.535156 8.535157zm0 0"/><path d="m349.867188 512c-20.117188.09375-40.097657-3.378906-59.007813-10.253906-22.335937-9.167969-47.390625-9.167969-69.726563.003906-18.90625 6.875-38.882812 10.34375-58.996093 10.25-4.714844 0-8.535157-3.820312-8.535157-8.53125 0-4.714844 3.820313-8.535156 8.535157-8.535156 18.109375.09375 36.09375-3.023438 53.117187-9.203125 26.128906-10.578125 55.351563-10.578125 81.484375 0 17.027344 6.179687 35.015625 9.296875 53.128907 9.203125 88.125 0 145.070312-63.640625 145.070312-162.132813-.425781-47.480469-12.191406-94.171875-34.324219-136.179687-27.152343-50.644532-64.726562-81.738282-103.082031-85.300782-4.632812-.503906-8-4.628906-7.570312-9.269531.429687-4.640625 4.5-8.074219 9.144531-7.71875 44.160156 4.097657 86.644531 38.445313 116.554687 94.230469 23.4375 44.496094 35.894532 93.949219 36.34375 144.238281 0 107.183594-65.160156 179.199219-162.136718 179.199219zm0 0"/><path d="m42.667969 204.804688c-2.796875-.003907-5.417969-1.375-7.011719-3.675782-1.59375-2.300781-1.957031-5.234375-.980469-7.855468 24.019531-64.042969-33.191406-179.761719-33.773437-180.921876-1.363282-2.726562-1.167969-5.976562.511718-8.519531 1.679688-2.542969 4.589844-4 7.632813-3.816406s5.757813 1.976563 7.121094 4.703125c2.503906 5.011719 61.09375 123.613281 34.492187 194.542969-1.25 3.332031-4.433594 5.539062-7.992187 5.542969zm0 0"/><path d="m358.390625 110.933594c-4.476563-.003906-8.191406-3.46875-8.503906-7.933594-.316407-4.464844 2.875-8.414062 7.308593-9.046875 35.257813-5.035156 81.0625-39.339844 110.558594-64.460937-38.042968 9.914062-105.609375 21.707031-211.75 21.707031-106.121094 0-173.6875-11.789063-211.734375-21.699219 29.507813 25.121094 75.320313 59.417969 110.542969 64.453125 3.066406.375 5.695312 2.378906 6.863281 5.238281 1.171875 2.859375.703125 6.132813-1.222656 8.550782-1.925781 2.417968-5.007813 3.605468-8.058594 3.101562-61.839843-8.832031-146.324219-92.710938-149.890625-96.277344-2.960937-2.957031-3.335937-7.625-.890625-11.023437 2.449219-3.394531 6.996094-4.511719 10.738281-2.640625.65625.324218 69.34375 33.230468 243.652344 33.230468 175.15625 0 242.984375-32.898437 243.648438-33.230468 3.742187-1.871094 8.289062-.753906 10.738281 2.640625 2.445313 3.398437 2.070313 8.066406-.886719 11.023437-3.566406 3.566406-88.054687 87.445313-149.894531 96.28125-.402344.058594-.8125.085938-1.21875.085938zm0 0"/><path d="m469.335938 204.804688c-3.558594-.003907-6.742188-2.210938-7.992188-5.542969-26.601562-70.929688 31.988281-189.53125 34.492188-194.542969 2.117187-4.195312 7.230468-5.890625 11.433593-3.789062 4.203125 2.101562 5.917969 7.207031 3.832031 11.417968-.578124 1.160156-57.769531 116.953125-33.773437 180.925782.980469 2.621093.613281 5.554687-.980469 7.855468-1.59375 2.300782-4.214844 3.671875-7.011718 3.675782zm0 0"/><path d="m256.003906 375.46875c-4.847656.019531-9.496094-1.929688-12.875-5.40625l-33.8125-35.359375c-4.484375-4.542969-5.765625-11.355469-3.234375-17.21875 2.824219-6.347656 9.164063-10.394531 16.109375-10.285156h67.625c6.941406-.109375 13.28125 3.941406 16.105469 10.285156 2.53125 5.863281 1.25 12.675781-3.234375 17.226563l-33.8125 35.351562c-3.378906 3.476562-8.027344 5.425781-12.871094 5.40625zm-33.0625-51.199219 32.519532 34.007813c.339843.167968.742187.167968 1.082031-.003906l32.910156-34.417969zm0 0"/><path d="m332.109375 452.269531c-32.710937 0-45.074219-19.183593-54.101563-33.191406-7.539062-11.703125-12-17.875-22.34375-18.003906-9.992187.132812-14.433593 6.246093-21.972656 17.847656-9.148437 14.070313-21.671875 33.347656-54.488281 33.347656-26.566406 0-47.65625-12.632812-56.414063-33.769531-8.664062-23.289062-2.222656-49.507812 16.246094-66.132812 3.347656-3.234376 8.671875-3.1875 11.964844.105468 3.289062 3.289063 3.335938 8.613282.101562 11.960938-13.496093 11.796875-18.460937 30.613281-12.542968 47.53125 6.027344 14.550781 21.21875 23.234375 40.644531 23.234375 23.550781 0 31.257813-11.851563 40.179687-25.582031 7.636719-11.753907 16.269532-25.042969 35.363282-25.597657.3125-.019531.613281-.011719.914062-.019531.296875.003906.59375 0 .886719.019531 19.519531.542969 28.160156 13.953125 35.804687 25.8125 8.777344 13.613281 16.351563 25.367188 39.757813 25.367188 19.425781 0 34.617187-8.683594 40.648437-23.230469 5.917969-16.921875.949219-35.738281-12.546874-47.53125-2.210938-2.144531-3.09375-5.3125-2.3125-8.292969.785156-2.976562 3.109374-5.304687 6.089843-6.085937 2.976563-.78125 6.148438.101562 8.289063 2.3125 18.46875 16.625 24.910156 42.84375 16.246094 66.132812-8.757813 21.136719-29.847657 33.765625-56.414063 33.765625zm0 0"/><path d="m256.003906 401.066406c-4.714844 0-8.535156-3.820312-8.535156-8.53125v-25.601562c0-4.710938 3.820312-8.53125 8.535156-8.53125 4.710938 0 8.53125 3.820312 8.53125 8.53125v25.601562c0 4.710938-3.820312 8.53125-8.53125 8.53125zm0 0"/><path d="m256.003906 460.800781c-19.53125.457031-38.144531-8.269531-50.28125-23.574219-2.8125-3.78125-2.03125-9.128906 1.75-11.941406 3.78125-2.816406 9.128906-2.03125 11.941406 1.75 9.179688 10.570313 22.476563 16.660156 36.476563 16.699219s27.335937-5.976563 36.570313-16.5c2.851562-3.734375 8.183593-4.457031 11.929687-1.625 3.746094 2.835937 4.496094 8.164063 1.675781 11.925781-12.167968 15.105469-30.667968 23.703125-50.0625 23.265625zm0 0"/><path d="m164.851562 291.09375c-12.03125.003906-23.734374-3.90625-33.351562-11.132812-27.085938-19.789063-23.648438-52.777344-18.046875-67.453126 1.046875-2.746093 3.433594-4.757812 6.316406-5.328124 26.734375-5.289063 47.902344-1.449219 62.945313 11.410156 23.1875 19.824218 22.136718 53.394531 22.078125 54.816406-.101563 2.6875-1.46875 5.167969-3.6875 6.691406-10.832031 6.949219-23.382813 10.757813-36.253907 10.996094zm-36.753906-68.054688c-4.828125 15.78125.523438 32.90625 13.472656 43.136719 13.671876 9.472657 31.558594 10.273438 46.023438 2.066407-.449219-13.851563-6.1875-27.003907-16.039062-36.75-10.015626-8.503907-24.628907-11.351563-43.457032-8.453126zm0 0"/><path d="m196.269531 298.667969c-4.714843 0-8.535156-3.820313-8.535156-8.535157v-16.71875c0-4.714843 3.820313-8.535156 8.535156-8.535156 4.710938 0 8.53125 3.820313 8.53125 8.535156v16.71875c0 4.714844-3.820312 8.535157-8.53125 8.535157zm0 0"/><path d="m347.164062 291.09375c-12.867187-.238281-25.421874-4.046875-36.253906-10.996094-2.214844-1.523437-3.582031-4.003906-3.6875-6.691406-.058594-1.421875-1.109375-34.992188 22.078125-54.816406 15.042969-12.867188 36.226563-16.695313 62.945313-11.410156 2.882812.570312 5.269531 2.582031 6.316406 5.328124 5.605469 14.679688 9.046875 47.664063-18.046875 67.453126-9.617187 7.226562-21.320313 11.132812-33.351563 11.132812zm-22.761718-22.859375c14.46875 8.214844 32.367187 7.414063 46.046875-2.058594 12.894531-10.269531 18.222656-27.363281 13.449219-43.140625-18.878907-2.890625-33.503907-.03125-43.507813 8.523438-9.84375 9.71875-15.570313 22.851562-15.988281 36.675781zm0 0"/><path d="m315.75 298.667969c-4.714844 0-8.535156-3.820313-8.535156-8.535157v-16.71875c0-4.714843 3.820312-8.535156 8.535156-8.535156 4.710938 0 8.53125 3.820313 8.53125 8.535156v16.71875c0 4.714844-3.820312 8.535157-8.53125 8.535157zm0 0"/></g></svg>