<svg height="512pt" viewBox="0 0 512.16619 512" width="512pt" xmlns="http://www.w3.org/2000/svg"><path d="m477.816406 8.636719c-59.734375 0-119.464844 85.332031-145.066406 119.464843-25.601562 34.132813-51.199219 34.132813-51.199219 34.132813v.34375c-8.277343-.257813-16.8125-.34375-25.34375-.34375-8.621093 0-17.238281.085937-25.601562.34375v-.34375s-25.597657 0-51.199219-34.132813c-25.601562-34.132812-85.332031-119.464843-145.066406-119.464843-58.199219 0 0 162.132812 0 264.53125v.085937c0 54.785156 37.289062 122.539063 94.464844 166.742188l255.058593-.171875c57.003907-44.203125 94.210938-111.871094 94.210938-166.570313 0-1.707031-.085938-3.328125-.171875-4.949218 1.707031-102.570313 57.171875-259.667969-.085938-259.667969zm0 0" fill="#fb7b76"/><path d="m478.074219 273.253906c0 54.699219-37.207031 122.367188-94.210938 166.570313l-255.058593.171875c-57.175782-44.203125-94.464844-111.957032-94.464844-166.742188v-.085937c-.03125-1.679688.027344-3.359375.171875-5.03125 2.21875-50.773438 37.886719-78.335938 91.902343-92.332031 1.792969-8.703126 1.367188-23.382813-6.742187-47.703126-17.066406-51.199218-85.332031-119.464843-85.332031-119.464843 59.734375 0 119.464844 85.332031 145.066406 119.464843 25.601562 34.132813 51.199219 34.132813 51.199219 34.132813v.34375c8.363281-.257813 16.980469-.34375 25.601562-.34375 8.53125 0 17.066407.085937 25.34375.34375v-.34375s25.597657 0 51.199219-34.132813c25.601562-34.132812 85.332031-119.464843 145.066406-119.464843 0 0-68.265625 68.265625-85.332031 119.464843-8.105469 24.234376-8.535156 38.828126-6.742187 47.617188 53.078124 13.652344 88.492187 40.535156 92.074218 89.34375v1.535156c.070313.566406.101563 1.136719.085938 1.707032.085937 1.621093.171875 3.242187.171875 4.949218zm0 0" fill="#35495e"/><path d="m477.902344 268.304688c.015625-.570313-.015625-1.140626-.085938-1.707032v-1.535156c-3.582031-48.808594-38.996094-75.691406-92.074218-89.34375-1.792969-8.789062-1.363282-23.382812 6.742187-47.617188 17.066406-51.199218 85.332031-119.464843 85.332031-119.464843 57.257813 0 1.792969 157.097656.085938 259.667969zm0 0" fill="#fb7b76"/><path d="m126.414062 175.804688c-54.015624 13.996093-89.683593 41.558593-91.902343 92.332031-.144531 1.671875-.203125 3.351562-.171875 5.03125 0-102.398438-58.199219-264.53125 0-264.53125 0 0 68.265625 68.265625 85.332031 119.464843 8.109375 24.320313 8.535156 39 6.742187 47.703126zm0 0" fill="#fb7b76"/><path d="m478.074219 273.253906c0 54.699219-37.207031 122.367188-94.210938 166.570313h-25.597656l-229.460937.171875c-57.175782-44.203125-94.464844-111.957032-94.464844-166.742188v-.085937c-.03125-1.679688.027344-3.359375.171875-5.03125 2.21875-50.773438 37.886719-78.335938 91.902343-92.332031 1.792969-8.703126 1.367188-23.382813-6.742187-47.703126-13.480469-40.53125-59.136719-91.816406-77.480469-111.359374h-.085937c-4.777344-5.121094-7.765625-8.105469-7.765625-8.105469 59.734375 0 119.464844 85.332031 145.066406 119.464843 25.601562 34.132813 51.199219 34.132813 51.199219 34.132813v.34375c4.183593-.171875 8.449219-.171875 12.714843-.257813h.085938c4.179688-.085937 8.363281-.085937 12.542969-.085937h.257812c8.53125 0 17.066407.085937 25.34375.34375v-.34375s25.597657 0 51.199219-34.132813c20.820312-27.730468 64.085938-89.171874 111.617188-111.359374h.085937c10.390625-5.117188 21.78125-7.882813 33.363281-8.105469 0 0-68.265625 68.265625-85.332031 119.464843-8.105469 24.234376-8.535156 38.828126-6.742187 47.617188 53.078124 13.652344 88.492187 40.535156 92.074218 89.34375v1.535156c.070313.566406.101563 1.136719.085938 1.707032.085937 1.621093.171875 3.242187.171875 4.949218zm0 0" fill="#cad9fc"/><path d="m452.472656 273.253906c0 54.699219-37.203125 122.367188-94.207031 166.570313l-229.460937.171875c-57.175782-44.203125-94.464844-111.957032-94.464844-166.742188v-.085937c-.03125-1.679688.027344-3.359375.171875-5.03125 2.21875-50.773438 37.886719-78.335938 91.902343-92.332031 1.792969-8.703126 1.367188-23.382813-6.742187-47.703126-13.480469-40.53125-59.136719-91.816406-77.480469-111.359374 47.53125 22.1875 90.792969 83.628906 111.613282 111.359374 25.601562 34.132813 51.203124 34.132813 51.203124 34.132813v.34375c8.359376-.257813 16.980469-.34375 25.597657-.34375 4.265625 0 8.449219 0 12.714843.085937h.085938c4.179688.085938 8.363281.085938 12.542969.257813v-.34375h.257812c8.53125 0 17.066407.085937 25.34375.34375v-.34375s25.597657 0 51.199219-34.132813c20.820312-27.730468 64.085938-89.171874 111.617188-111.359374-18.347657 19.542968-64 70.828124-77.484376 111.359374-8.105468 24.234376-8.53125 38.828126-6.742187 47.617188 53.078125 13.652344 88.492187 40.535156 92.078125 89.34375v1.535156c.070312.566406.097656 1.136719.082031 1.707032.085938 1.621093.171875 3.242187.171875 4.949218zm0 0" fill="#e8edfc"/><path d="m477.902344 268.304688c.015625-.570313-.015625-1.140626-.085938-1.707032v-1.535156c-.96875-18.984375-8.371094-37.070312-20.992187-51.285156-16.128907-18.089844-40.703125-30.207032-71.082031-38.058594-1.792969-8.789062-1.363282-23.382812 6.742187-47.617188 13.480469-40.363281 58.707031-91.304687 77.3125-111.101562 4.949219-5.292969 8.019531-8.363281 8.019531-8.363281 57.257813 0 1.792969 157.097656.085938 259.667969zm0 0" fill="#7facfa"/><path d="m456.824219 213.777344c-16.128907-18.089844-40.703125-30.207032-71.082031-38.058594-1.792969-8.789062-1.363282-23.382812 6.742187-47.617188 13.480469-40.363281 58.707031-91.304687 77.3125-111.101562 20.5625 27.21875-2.5625 116.734375-12.972656 196.777344zm0 0" fill="#a4c2f7"/><path d="m126.414062 175.804688c-54.015624 13.996093-89.683593 41.558593-91.902343 92.332031-.144531 1.671875-.203125 3.351562-.171875 5.03125 0-102.398438-58.199219-264.53125 0-264.53125 0 0 68.265625 68.265625 85.332031 119.464843 8.109375 24.320313 8.535156 39 6.742187 47.703126zm0 0" fill="#a4c2f7"/><path d="m304.847656 474.472656c-10.011718 17.535156-28.457031 28.570313-48.640625 29.097656-17.511719.359376-34.050781-8.023437-44.117187-22.359374-1.621094-2.132813-3.074219-4.4375-4.4375-6.65625l48.808594-73.386719zm0 0" fill="#a4c2f7"/><path d="m213.539062 358.503906c-47.871093 0-85.84375 46.503906-84.734374 81.492188.511718 21.078125 15.273437 37.972656 50.601562 37.972656 5.765625.019531 11.527344-.382812 17.238281-1.195312 3.714844-.484376 7.394531-1.222657 11.007813-2.21875 28.609375-7.453126 48.613281-33.238282 48.726562-62.804688.167969-4.011719.082032-7.167969 0-8.960938-.085937-1.023437-.171875-1.621093-.171875-1.621093zm0 0" fill="#e8edfc"/><path d="m383.863281 439.824219c-.425781 21.164062-15.1875 38.144531-50.601562 38.144531-4.589844.015625-9.179688-.238281-13.738281-.765625-1.28125-.171875-2.558594-.34375-3.753907-.511719h-.085937c-3.660156-.484375-7.28125-1.226562-10.835938-2.21875-28.410156-7.433594-48.285156-33.015625-48.46875-62.378906v-.34375c-.222656-2.980469-.222656-5.976562 0-8.960938-.085937-.082031 0-.167968 0-.253906-.007812-.457031.019532-.914062.082032-1.367187l39.253906-39.25 3.414062-3.414063c47.871094 0 85.761719 46.335938 84.734375 81.320313zm0 0" fill="#cad9fc"/><path d="m358.265625 439.824219c-.34375 18.605469-11.863281 33.964843-38.742187 37.378906-1.28125-.171875-2.558594-.34375-3.753907-.511719h-.085937c-3.660156-.484375-7.28125-1.226562-10.835938-2.21875-28.410156-7.433594-48.285156-33.015625-48.46875-62.378906v-.34375c-.222656-2.980469-.222656-5.976562 0-8.960938-.085937-.082031 0-.167968 0-.253906-.007812-.457031.019532-.914062.082032-1.367187l39.253906-39.25c36.863281 11.175781 63.402344 48.554687 62.550781 77.90625zm0 0" fill="#e8edfc"/><path d="m296.738281 363.027344-33.789062 35.410156c-3.746094 3.671875-9.738281 3.671875-13.484375 0l-33.792969-35.410156c-1.804687-1.777344-2.519531-4.382813-1.875-6.828125 1.054687-3.839844 4.640625-6.433594 8.617187-6.230469h67.585938c.539062-.015625 1.082031.011719 1.621094.085938 3.359375.441406 6.125 2.867187 6.996094 6.144531.644531 2.445312-.070313 5.050781-1.878907 6.828125zm0 0" fill="#cad9fc"/><path d="m165.273438 323.824219c-9.765626.003906-19.3125-2.898438-27.425782-8.339844-23.46875-15.644531-23.738281-52.40625-23.738281-53.960937 0-2.964844 1.898437-5.597657 4.710937-6.539063 31.519532-10.496094 55.792969-9.847656 72.140626 1.9375 12.027343 9.445313 19.21875 23.761719 19.609374 39.050781 0 1.359375-.402343 2.691406-1.15625 3.820313-7.5625 11.460937-19.230468 19.585937-32.605468 22.699219-3.78125.878906-7.652344 1.324218-11.535156 1.332031zm0 0" fill="#e8edfc"/><path d="m385.085938 254.976562c-31.558594-10.472656-55.8125-9.851562-72.140626 1.929688-2.121093 1.5-4.082031 3.207031-5.855468 5.101562-4.5 4.710938-7.992188 10.289063-10.265625 16.398438-2.125 5.625-3.3125 11.558594-3.511719 17.570312-.003906 1.351563.402344 2.671876 1.167969 3.789063 7.566406 11.460937 19.226562 19.597656 32.59375 22.738281 3.773437.875 7.632812 1.3125 11.507812 1.308594 9.765625.015625 19.316407-2.886719 27.421875-8.335938 23.496094-15.640624 23.769532-52.367187 23.769532-53.953124-.019532-2.953126-1.898438-5.574219-4.6875-6.546876zm0 0" fill="#fff"/><path d="m205.007812 285.96875c0 21.207031-17.195312 38.402344-38.402343 38.402344s-38.398438-17.195313-38.398438-38.402344 17.191407-38.398438 38.398438-38.398438 38.402343 17.191407 38.402343 38.398438zm0 0" fill="#fff"/><path d="m375.671875 285.96875c0 21.207031-17.191406 38.402344-38.398437 38.402344-21.207032 0-38.402344-17.195313-38.402344-38.402344s17.195312-38.398438 38.402344-38.398438c21.207031 0 38.398437 17.191407 38.398437 38.398438zm0 0" fill="#fff"/><path d="m187.941406 285.96875c0-25.917969-9.554687-46.933594-21.335937-46.933594s-21.332031 21.015625-21.332031 46.933594c0 25.921875 9.550781 46.933594 21.332031 46.933594s21.335937-21.011719 21.335937-46.933594zm0 0" fill="#7facfa"/><path d="m358.605469 285.96875c0-25.917969-9.550781-46.933594-21.332031-46.933594s-21.332032 21.015625-21.332032 46.933594c0 25.921875 9.550782 46.933594 21.332032 46.933594s21.332031-21.011719 21.332031-46.933594zm0 0" fill="#7facfa"/><path d="m153.804688 268.902344c0-7.070313-9.550782-12.800782-21.332032-12.800782s-21.332031 5.730469-21.332031 12.800782c0 7.070312 9.550781 12.800781 21.332031 12.800781s21.332032-5.730469 21.332032-12.800781zm0 0" fill="#fff"/><path d="m324.472656 268.902344c0 7.082031-9.558594 12.800781-21.332031 12.800781-6.058594.210937-12.019531-1.558594-16.980469-5.035156 2.8125-7.5625 7.140625-14.472657 12.710938-20.308594 1.417968-.171875 2.84375-.257813 4.269531-.257813 11.773437 0 21.332031 5.71875 21.332031 12.800782zm0 0" fill="#fff"/><path d="m328.207031 477.832031c1.664063.066407 3.320313.136719 5.054688.136719 4.023437.007812 8.046875-.242188 12.039062-.753906l-.175781-.011719c-1.28125-.171875-2.5625-.34375-3.757812-.511719h-.082032c-3.660156-.484375-7.28125-1.226562-10.839844-2.21875-.644531 1.117188-1.496093 2.230469-2.238281 3.359375zm0 0" fill="#fff"/><path d="m470.351562 9.121094c-.636718.074218-1.273437.15625-1.910156.246094-2.378906.34375-4.757812.769531-7.132812 1.351562l-.597656.152344c-2.335938.589844-4.664063 1.324218-6.984376 2.132812-.683593.238282-1.367187.480469-2.042968.734375-2.425782.90625-4.847656 1.886719-7.253906 3.003907h-.0625c-.472657.21875-.933594.5-1.40625.730468-2.03125.980469-4.054688 2.03125-6.070313 3.15625-.792969.441406-1.582031.871094-2.371094 1.332032-2.371093 1.378906-4.730469 2.839843-7.070312 4.382812-.640625.429688-1.273438.871094-1.914063 1.304688-2.1875 1.488281-4.359375 3.039062-6.515625 4.652343-.371093.277344-.742187.539063-1.109375.816407-2.476562 1.878906-4.917968 3.855468-7.339844 5.875-.511718.425781-1.019531.851562-1.53125 1.285156-2.457031 2.085937-4.886718 4.226562-7.289062 6.421875-.171875.15625-.332031.3125-.5.464843-2.429688 2.242188-4.824219 4.527344-7.1875 6.863282-.207031.207031-.417969.40625-.625.613281-2.449219 2.429687-4.855469 4.894531-7.226562 7.394531l-.605469.644532c-4.914063 5.199218-9.644531 10.496093-14.160157 15.777343-14.496093 16.960938-26.765624 33.628907-35.703124 45.640625-1.023438 1.375-2.050782 2.757813-2.984376 4.003906-25.601562 34.132813-51.199218 34.132813-51.199218 34.132813h.246094c8.535156 0 17.066406.085937 25.34375.339844v-.339844s25.601562 0 51.203124-34.132813c.9375-1.242187 1.960938-2.628906 2.984376-4.003906 8.9375-12.007812 21.207031-28.679687 35.703124-45.636718 4.515626-5.28125 9.246094-10.582032 14.15625-15.78125l.605469-.640626c2.371094-2.496093 4.78125-4.960937 7.226563-7.394531.210937-.207031.421875-.410156.628906-.617187 2.363281-2.328125 4.757812-4.617188 7.1875-6.859375.167969-.15625.328125-.3125.496094-.464844 2.402344-2.203125 4.832031-4.34375 7.292968-6.425781.511719-.429688 1.019532-.855469 1.53125-1.285156 2.421876-2.019532 4.863282-3.992188 7.335938-5.871094.371094-.28125.742188-.542969 1.109375-.820313 2.15625-1.613281 4.328125-3.164062 6.519531-4.652343.640625-.433594 1.273438-.878907 1.914063-1.300782 2.339843-1.546875 4.695312-3.007812 7.066406-4.386718.792969-.457032 1.582031-.890626 2.375-1.332032 2.015625-1.117187 4.039063-2.167968 6.070313-3.15625.46875-.226562.933593-.511718 1.40625-.730468h.0625c2.402343-1.117188 4.824218-2.09375 7.25-3 .683593-.257813 1.363281-.5 2.042968-.738282 2.324219-.808594 4.652344-1.542968 6.988282-2.132812l.597656-.152344c.210937-.050781.425781-.085938.640625-.132812-3.066407-1.335938-6.382813-2-9.726563-1.949219-2.496094.019531-4.988281.179687-7.464844.484375zm0 0" fill="#fff"/><path d="m34.339844 273.253906c0 54.785156 37.289062 122.539063 94.464844 166.742188.511718 21.078125 15.273437 37.972656 50.601562 37.972656 4.4375-.011719 8.875-.269531 13.285156-.765625-26.484375-3.527344-37.839844-18.765625-38.289062-37.207031-57.171875-44.203125-94.460938-111.957032-94.460938-166.742188v-.085937c0-95.859375-50.992187-244.050781-9.757812-262.589844-5.1875-1.257813-10.503906-1.910156-15.84375-1.941406-58.199219 0 0 162.132812 0 264.53125zm0 0" fill="#fff"/><path d="m256.207031 503.570312c4.304688-.007812 8.59375-.496093 12.792969-1.453124-12.652344-2.882813-23.796875-10.324219-31.3125-20.90625-1.621094-2.132813-3.070312-4.4375-4.4375-6.65625-3.613281.996093-7.289062 1.734374-11.007812 2.21875-4.121094.5625-8.269532.902343-12.425782 1.027343.753906 1.148438 1.441406 2.316407 2.273438 3.410157 10.066406 14.335937 26.605468 22.71875 44.117187 22.359374zm0 0" fill="#fff"/><path d="m230.605469 171.109375c-4.65625-.003906-8.449219-3.746094-8.519531-8.402344-.070313-4.660156 3.609374-8.511719 8.265624-8.660156 16.808594-.519531 34.660157-.527344 51.472657 0 4.714843.152344 8.410156 4.089844 8.261719 8.804687-.148438 4.710938-4.089844 8.410157-8.800782 8.257813-16.46875-.515625-33.945312-.511719-50.417968 0zm0 0" fill="#428dff"/><path d="m42.871094 273.253906c1.851562 35.488282 13.753906 69.71875 34.3125 98.703125 15.53125 23.351563 34.722656 44.042969 56.839844 61.289063l-10.441407 13.5c-23.585937-18.378906-44.054687-40.445313-60.617187-65.347656-22.445313-31.765626-35.339844-69.289063-37.160156-108.144532zm0 0" fill="#fff"/><g fill="#428dff"><path d="m40.816406 315.289062c4.4375-1.25 7.125-5.746093 6.125-10.246093-2.511718-10.417969-3.875-21.074219-4.070312-31.789063h-17.066406c.195312 12.058594 1.71875 24.054688 4.542968 35.777344.511719 2.246094 1.921875 4.183594 3.898438 5.363281 1.976562 1.183594 4.351562 1.503907 6.570312.894531zm0 0"/><path d="m123.582031 446.746094 10.441407-13.5c-22.117188-17.246094-41.308594-37.9375-56.839844-61.289063-1.492188-2.308593-3.132813-4.53125-4.476563-6.929687-2.484375-3.914063-7.617187-5.171875-11.628906-2.847656-1.976563 1.160156-3.398437 3.070312-3.941406 5.296874-.546875 2.226563-.167969 4.578126 1.046875 6.519532 1.453125 2.558594 3.1875 4.9375 4.78125 7.402344 16.558594 24.902343 37.027344 46.96875 60.617187 65.347656zm0 0"/><path d="m57.394531 335.925781c-.898437-1.988281-2.496093-3.578125-4.492187-4.464843l-1.554688-.453126c-.5625-.121093-1.132812-.167968-1.707031-.140624-.542969-.046876-1.089844-.015626-1.621094.09375-.558593.113281-1.113281.269531-1.652343.457031-2.105469.847656-3.796876 2.484375-4.707032 4.558593-.410156 1.082032-.609375 2.226563-.589844 3.382813.0625 3.550781 2.253907 6.714844 5.550782 8.03125 1.0625.371094 2.1875.527344 3.3125.460937 1.113281-.042968 2.207031-.304687 3.214844-.777343 2.015624-1.015625 3.59375-2.722657 4.453124-4.808594.746094-2.0625.671876-4.332031-.207031-6.339844zm0 0"/><path d="m34.339844 281.789062c-4.714844 0-8.535156-3.820312-8.535156-8.535156-.03125-2.003906.042968-4.011718.21875-6.011718 2.152343-49.644532 35.21875-83.371094 98.25-99.699219 2.953124-.765625 6.085937.101562 8.226562 2.277343 2.136719 2.171876 2.953125 5.320313 2.140625 8.261719-.8125 2.9375-3.132813 5.21875-6.085937 5.984375-55.695313 14.429688-83.667969 42.046875-85.519532 84.441406-.136718 1.578126-.191406 3.164063-.164062 4.746094 0 4.714844-3.820313 8.535156-8.53125 8.535156zm0 0"/><path d="m315.769531 485.222656h-.085937c-4.703125-.023437-8.503906-3.851562-8.492188-8.554687.011719-4.703125 3.832032-8.511719 8.535156-8.511719 4.703126 0 8.519532 3.808594 8.53125 8.511719.011719 4.703125-3.785156 8.53125-8.488281 8.554687zm0 0"/><path d="m383.863281 448.359375c-3.644531 0-6.890625-2.316406-8.070312-5.769531-1.183594-3.449219-.042969-7.269532 2.839843-9.503906 53.53125-41.507813 90.90625-107.230469 90.90625-159.832032 0-2.0625-.074218-4.058594-.226562-5.972656l-.027344-2.21875c-2.988281-40.292969-31.011718-67.015625-85.664062-81.078125-3.015625-.703125-5.410156-2.984375-6.261719-5.957031-.855469-2.976563-.03125-6.175782 2.152344-8.371094 2.179687-2.195312 5.378906-3.035156 8.355469-2.199219 61.773437 15.890625 94.898437 48.515625 98.460937 96.980469l.023437 2.160156c.164063 1.671875.257813 4.117188.257813 6.65625 0 58.441406-39.1875 128.09375-97.511719 173.3125-1.496094 1.164063-3.335937 1.796875-5.234375 1.792969zm0 0"/><path d="m34.339844 281.703125c-4.714844 0-8.535156-3.820313-8.535156-8.535156-1.578126-39.859375-6.191407-79.542969-13.796876-118.703125-10.777343-65.210938-20.085937-121.535156-.957031-144.085938 5.777344-6.816406 14.359375-10.605468 23.289063-10.277344 60.542968 0 119.003906 78.652344 147.101562 116.453126l4.792969 6.429687c22.34375 29.792969 43.589844 30.699219 44.484375 30.71875 4.679688.121094 8.398438 3.964844 8.363281 8.644531-.035156 4.660156-3.816406 8.417969-8.476562 8.421875-1.21875 0-30.1875-.425781-58.027344-37.546875l-4.835937-6.492187c-26.433594-35.5625-81.441407-109.5625-133.402344-109.5625-3.90625-.296875-7.71875 1.28125-10.273438 4.25-14.019531 16.527343-4.464844 74.347656 4.777344 130.265625 7.78125 40.074218 12.472656 80.691406 14.027344 121.484375 0 4.714843-3.820313 8.535156-8.53125 8.535156zm0 0"/><path d="m119.679688 196.371094c-3.957032.003906-7.402344-2.714844-8.3125-6.570313-.910157-3.851562.945312-7.828125 4.488281-9.597656 2.164062-1.890625 7.082031-15.320313-4.277344-49.398437-16.226563-48.679688-82.605469-115.464844-83.273437-116.136719-3.230469-3.347657-3.1875-8.667969.105468-11.960938 3.292969-3.292969 8.613282-3.335937 11.960938-.105469 2.847656 2.847657 69.894531 70.296876 87.398437 122.800782 18.46875 55.417968-.324219 68.089844-4.28125 70.066406-1.179687.59375-2.484375.902344-3.808593.902344zm0 0"/><path d="m477.824219 281.703125c-4.714844 0-8.535157-3.820313-8.535157-8.535156 1.558594-40.792969 6.246094-81.410157 14.03125-121.484375 9.242188-55.917969 18.792969-113.738282 4.777344-130.265625-2.554687-2.96875-6.371094-4.542969-10.273437-4.25-51.964844 0-106.972657 74-133.40625 109.5625l-4.835938 6.492187c-27.839843 37.121094-56.804687 37.546875-58.027343 37.546875-4.714844.027344-8.554688-3.773437-8.582032-8.484375-.027344-4.714844 3.773438-8.554687 8.488282-8.582031 1.078124-.03125 22.226562-1.066406 44.46875-30.71875l4.792968-6.429687c28.097656-37.800782 86.558594-116.453126 147.101563-116.453126 8.925781-.328124 17.511719 3.460938 23.289062 10.277344 19.128907 22.550782 9.824219 78.875-.953125 144.085938-7.609375 39.160156-12.222656 78.84375-13.804687 118.703125 0 4.714843-3.820313 8.535156-8.53125 8.535156zm0 0"/><path d="m392.722656 196.414062c-1.40625.003907-2.792968-.320312-4.050781-.945312-3.953125-1.976562-22.75-14.648438-4.277344-70.066406 17.503907-52.503906 84.546875-119.953125 87.394531-122.800782 3.347657-3.230468 8.671876-3.1875 11.964844.105469 3.289063 3.292969 3.335938 8.613281.101563 11.960938-.664063.671875-67.046875 67.457031-83.269531 116.136719-11.359376 34.078124-6.441407 47.507812-3.585938 49.804687 1.980469 1.003906 3.472656 2.765625 4.125 4.886719.65625 2.121094.417969 4.417968-.652344 6.359375-1.515625 2.863281-4.511718 4.628906-7.75 4.558593zm0 0"/><path d="m256.207031 409.703125c-4.847656.023437-9.496093-1.929687-12.875-5.40625l-33.8125-35.355469c-4.484375-4.546875-5.761719-11.359375-3.234375-17.222656 2.824219-6.34375 9.164063-10.390625 16.109375-10.28125h67.625c6.945313-.109375 13.28125 3.9375 16.105469 10.28125 2.53125 5.867188 1.25 12.675781-3.230469 17.226562l-33.8125 35.351563c-3.378906 3.476563-8.027343 5.429687-12.875 5.40625zm-33.0625-51.199219 32.519531 34.007813c.34375.167969.742188.167969 1.085938-.003907l32.90625-34.417968zm0 0"/><path d="m179.40625 486.503906c-36.324219 0-58.429688-17.308594-59.136719-46.300781.667969-22.855469 10.277344-44.539063 26.761719-60.382813 17.175781-18.597656 41.199219-29.378906 66.507812-29.851562 4.714844 0 8.535157 3.820312 8.535157 8.535156 0 4.710938-3.820313 8.53125-8.535157 8.53125-20.683593.496094-40.273437 9.402344-54.246093 24.664063-13.210938 12.597656-21.074219 29.792969-21.960938 48.027343.59375 24.5625 23.207031 29.710938 42.074219 29.710938 5.355469.015625 10.707031-.355469 16.007812-1.109375 3.367188-.433594 6.703126-1.101563 9.976563-2 32.78125-8.871094 41.1875-34.867187 42.46875-55.117187.148437-3.5.070313-6.382813-.007813-8.027344l-.097656-.855469c-.578125-4.632813 2.671875-8.871094 7.296875-9.511719 4.621094-.636718 8.902344 2.554688 9.605469 7.167969 0 0 .113281.769531.226562 2.082031.105469 2.269532.207032 5.699219.019532 10.046875-.453125 33.21875-22.929688 62.089844-55.019532 70.679688-3.984374 1.089843-8.039062 1.90625-12.136718 2.441406-6.074219.859375-12.203125 1.285156-18.339844 1.269531zm0 0"/><path d="m333.261719 486.503906c-6.175781.027344-12.34375-.414062-18.449219-1.328125l-.257812-.027343c-4.0625-.535157-8.082032-1.359376-12.03125-2.46875-31.8125-8.535157-54.117188-37.117188-54.660157-70.050782-.011719-.179687-.019531-.695312-.019531-.875-.210938-3.042968-.214844-6.097656-.015625-9.144531 0-.199219.007813-.398437.023437-.597656.007813-.738281.070313-1.480469.191407-2.210938.875-4.601562 5.253906-7.667969 9.878906-6.925781 4.539063.746094 7.644531 4.992188 6.980469 9.542969.019531.394531.007812.789062-.027344 1.183593-.175781 2.535157-.167969 5.082032.019531 7.617188.011719.179688.015625.695312.015625.875.210938 25.511719 17.503906 47.710938 42.191406 54.148438 3.09375.871093 6.25 1.523437 9.433594 1.953124.203125.019532.394532.042969.574219.070313 5.34375.808594 10.746094 1.203125 16.152344 1.171875 26.746093 0 41.6875-10.582031 42.070312-29.78125-.898437-18.246094-8.773437-35.449219-21.996093-48.050781-13.980469-15.21875-33.550782-24.085938-54.207032-24.570313-4.710937 0-8.535156-3.820312-8.535156-8.53125 0-4.714844 3.824219-8.535156 8.535156-8.535156 25.273438.460938 49.273438 11.199219 66.453125 29.742188 16.496094 15.835937 26.125 37.507812 26.816407 60.363281-.589844 29.042969-22.691407 46.429687-59.136719 46.429687zm0 0"/><path d="m256.207031 512.101562c-20.210937.332032-39.285156-9.328124-50.980469-25.816406-1.71875-2.265625-3.328124-4.804687-4.835937-7.253906-1.636719-2.59375-1.753906-5.867188-.304687-8.574219 1.449218-2.703125 4.234374-4.421875 7.300781-4.503906 3.066406-.078125 5.941406 1.492187 7.527343 4.121094 1.226563 1.984375 2.519532 4.058593 3.972657 5.972656 8.695312 11.929687 22.566406 18.984375 37.332031 18.984375 14.761719 0 28.632812-7.054688 37.328125-18.984375 1.453125-1.847656 2.761719-3.804687 3.914063-5.855469 1.527343-2.636718 4.34375-4.261718 7.394531-4.261718 3.046875.003906 5.863281 1.632812 7.386719 4.273437 1.523437 2.640625 1.519531 5.894531-.007813 8.535156-11.535156 20.175781-32.792969 32.835938-56.027344 33.363281zm0 0"/><path d="m165.972656 332.914062c-12.09375.007813-23.917968-3.589843-33.960937-10.324218-29.070313-19.375-29.40625-64.902344-29.40625-66.828125 0-3.671875 2.351562-6.933594 5.835937-8.097657 39.035156-13 69.097656-12.203124 89.34375 2.402344 14.898438 11.695313 23.804688 29.425782 24.289063 48.363282 0 1.683593-.5 3.328124-1.433594 4.730468-9.367187 14.195313-23.820313 24.257813-40.382813 28.113282-4.683593 1.085937-9.476562 1.636718-14.285156 1.640624zm-45.929687-71.027343c1.070312 11.414062 5.246093 35.710937 21.429687 46.507812 10.269532 6.859375 22.9375 9.125 34.945313 6.246094 11.390625-2.652344 21.464843-9.273437 28.417969-18.675781-1.007813-12.632813-7.21875-24.28125-17.152344-32.152344-14.386719-10.261719-37.679688-10.902344-67.640625-1.925781zm0 0"/><path d="m85.539062 281.703125c-3.449218 0-6.5625-2.078125-7.882812-5.269531-1.320312-3.1875-.589844-6.855469 1.851562-9.296875 8.421876-7.425781 17.722657-13.789063 27.695313-18.949219 2.703125-1.410156 5.953125-1.265625 8.527344.371094 2.570312 1.640625 4.070312 4.527344 3.9375 7.574218-.132813 3.042969-1.882813 5.789063-4.585938 7.195313-8.441406 4.335937-16.332031 9.664063-23.507812 15.871094-1.597657 1.605469-3.769531 2.503906-6.035157 2.503906zm0 0"/><path d="m337.90625 332.914062c-4.808594-.003906-9.601562-.554687-14.285156-1.640624-16.5625-3.859376-31.015625-13.921876-40.378906-28.117188-.933594-1.398438-1.433594-3.042969-1.4375-4.726562.484374-18.9375 9.390624-36.667969 24.289062-48.363282 20.25-14.609375 50.3125-15.410156 89.34375-2.402344 3.484375 1.164063 5.835938 4.425782 5.835938 8.097657 0 1.929687-.335938 47.457031-29.398438 66.832031-10.050781 6.734375-21.875 10.328125-33.96875 10.320312zm-38.878906-36.972656c6.953125 9.414063 17.035156 16.042969 28.433594 18.699219 12.007812 2.875 24.675781.609375 34.945312-6.25 15.128906-10.085937 20.261719-33.195313 21.484375-46.488281-30.082031-9.023438-53.449219-8.351563-67.820313 2.007812-9.902343 7.828125-16.082031 19.441406-17.042968 32.03125zm0 0"/><path d="m418.339844 281.703125c-2.265625.003906-4.433594-.898437-6.035156-2.5-7.171876-6.210937-15.0625-11.539063-23.503907-15.871094-2.703125-1.40625-4.453125-4.152343-4.585937-7.195312-.132813-3.046875 1.367187-5.933594 3.9375-7.570313 2.570312-1.640625 5.820312-1.785156 8.523437-.378906 9.972657 5.164062 19.273438 11.527344 27.695313 18.949219 2.441406 2.441406 3.171875 6.109375 1.851562 9.296875-1.320312 3.191406-4.433594 5.269531-7.882812 5.269531zm0 0"/></g></svg>