<svg height="512pt" viewBox="0 0 512.16619 512" width="512pt" xmlns="http://www.w3.org/2000/svg"><path d="m477.816406 8.636719c-59.734375 0-119.464844 85.332031-145.066406 119.464843-25.601562 34.132813-51.199219 34.132813-51.199219 34.132813v.34375c-8.277343-.257813-16.8125-.34375-25.34375-.34375-8.621093 0-17.238281.085937-25.601562.34375v-.34375s-25.597657 0-51.199219-34.132813c-25.601562-34.132812-85.332031-119.464843-145.066406-119.464843-58.199219 0 0 162.132812 0 264.53125v.085937c0 54.785156 37.289062 122.539063 94.464844 166.742188l255.058593-.171875c57.003907-44.203125 94.210938-111.871094 94.210938-166.570313 0-1.707031-.085938-3.328125-.171875-4.949218 1.707031-102.570313 57.171875-259.667969-.085938-259.667969zm0 0" fill="#cbb292"/><path d="m478.074219 273.253906c0 54.699219-37.207031 122.367188-94.210938 166.570313l-255.058593.171875c-57.175782-44.203125-94.464844-111.957032-94.464844-166.742188v-.085937c-.03125-1.679688.027344-3.359375.171875-5.03125 2.21875-50.773438 37.886719-78.335938 91.902343-92.332031 1.792969-8.703126 1.367188-23.382813-6.742187-47.703126-17.066406-51.199218-85.332031-119.464843-85.332031-119.464843 59.734375 0 119.464844 85.332031 145.066406 119.464843 25.601562 34.132813 51.199219 34.132813 51.199219 34.132813v.34375c8.363281-.257813 16.980469-.34375 25.601562-.34375 8.53125 0 17.066407.085937 25.34375.34375v-.34375s25.597657 0 51.199219-34.132813c25.601562-34.132812 85.332031-119.464843 145.066406-119.464843 0 0-68.265625 68.265625-85.332031 119.464843-8.105469 24.234376-8.535156 38.828126-6.742187 47.617188 53.078124 13.652344 88.492187 40.535156 92.074218 89.34375v1.535156c.070313.566406.101563 1.136719.085938 1.707032.085937 1.621093.171875 3.242187.171875 4.949218zm0 0" fill="#cbb292"/><path d="m477.902344 268.304688c.015625-.570313-.015625-1.140626-.085938-1.707032v-1.535156c-3.582031-48.808594-38.996094-75.691406-92.074218-89.34375-1.792969-8.789062-1.363282-23.382812 6.742187-47.617188 17.066406-51.199218 85.332031-119.464843 85.332031-119.464843 57.257813 0 1.792969 157.097656.085938 259.667969zm0 0" fill="#fb7b76"/><path d="m126.414062 175.804688c-54.015624 13.996093-89.683593 41.558593-91.902343 92.332031-.144531 1.671875-.203125 3.351562-.171875 5.03125 0-102.398438-58.199219-264.53125 0-264.53125 0 0 68.265625 68.265625 85.332031 119.464843 8.109375 24.320313 8.535156 39 6.742187 47.703126zm0 0" fill="#fb7b76"/><path d="m478.074219 273.253906c0 54.699219-37.207031 122.367188-94.210938 166.570313h-25.597656l-229.460937.171875c-57.175782-44.203125-94.464844-111.957032-94.464844-166.742188v-.085937c-.03125-1.679688.027344-3.359375.171875-5.03125 2.21875-50.773438 37.886719-78.335938 91.902343-92.332031 1.792969-8.703126 1.367188-23.382813-6.742187-47.703126-13.480469-40.53125-59.136719-91.816406-77.480469-111.359374h-.085937c-4.777344-5.121094-7.765625-8.105469-7.765625-8.105469 59.734375 0 119.464844 85.332031 145.066406 119.464843 25.601562 34.132813 51.199219 34.132813 51.199219 34.132813v.34375c4.183593-.171875 8.449219-.171875 12.714843-.257813h.085938c4.179688-.085937 8.363281-.085937 12.542969-.085937h.257812c8.53125 0 17.066407.085937 25.34375.34375v-.34375s25.597657 0 51.199219-34.132813c20.820312-27.730468 64.085938-89.171874 111.617188-111.359374h.085937c10.390625-5.117188 21.78125-7.882813 33.363281-8.105469 0 0-68.265625 68.265625-85.332031 119.464843-8.105469 24.234376-8.535156 38.828126-6.742187 47.617188 53.078124 13.652344 88.492187 40.535156 92.074218 89.34375v1.535156c.070313.566406.101563 1.136719.085938 1.707032.085937 1.621093.171875 3.242187.171875 4.949218zm0 0" fill="#cad9fc"/><path d="m452.472656 273.253906c0 54.699219-37.203125 122.367188-94.207031 166.570313l-229.460937.171875c-57.175782-44.203125-94.464844-111.957032-94.464844-166.742188v-.085937c-.03125-1.679688.027344-3.359375.171875-5.03125 2.21875-50.773438 37.886719-78.335938 91.902343-92.332031 1.792969-8.703126 1.367188-23.382813-6.742187-47.703126-13.480469-40.53125-59.136719-91.816406-77.480469-111.359374 47.53125 22.1875 90.792969 83.628906 111.613282 111.359374 25.601562 34.132813 51.203124 34.132813 51.203124 34.132813v.34375c8.359376-.257813 16.980469-.34375 25.597657-.34375 4.265625 0 8.449219 0 12.714843.085937h.085938c4.179688.085938 8.363281.085938 12.542969.257813v-.34375h.257812c8.53125 0 17.066407.085937 25.34375.34375v-.34375s25.597657 0 51.199219-34.132813c20.820312-27.730468 64.085938-89.171874 111.617188-111.359374-18.347657 19.542968-64 70.828124-77.484376 111.359374-8.105468 24.234376-8.53125 38.828126-6.742187 47.617188 53.078125 13.652344 88.492187 40.535156 92.078125 89.34375v1.535156c.070312.566406.097656 1.136719.082031 1.707032.085938 1.621093.171875 3.242187.171875 4.949218zm0 0" fill="#e8edfc"/><path d="m477.902344 268.304688c.015625-.570313-.015625-1.140626-.085938-1.707032v-1.535156c-.96875-18.984375-8.371094-37.070312-20.992187-51.285156-16.128907-18.089844-40.703125-30.207032-71.082031-38.058594-1.792969-8.789062-1.363282-23.382812 6.742187-47.617188 13.480469-40.363281 58.707031-91.304687 77.3125-111.101562 4.949219-5.292969 8.019531-8.363281 8.019531-8.363281 57.257813 0 1.792969 157.097656.085938 259.667969zm0 0" fill="#7facfa"/><path d="m456.824219 213.777344c-16.128907-18.089844-40.703125-30.207032-71.082031-38.058594-1.792969-8.789062-1.363282-23.382812 6.742187-47.617188 13.480469-40.363281 58.707031-91.304687 77.3125-111.101562 20.5625 27.21875-2.5625 116.734375-12.972656 196.777344zm0 0" fill="#a4c2f7"/><path d="m126.414062 175.804688c-54.015624 13.996093-89.683593 41.558593-91.902343 92.332031-.144531 1.671875-.203125 3.351562-.171875 5.03125 0-102.398438-58.199219-264.53125 0-264.53125 0 0 68.265625 68.265625 85.332031 119.464843 8.109375 24.320313 8.535156 39 6.742187 47.703126zm0 0" fill="#a4c2f7"/><path d="m196.722656 281.828125c-3.539062-6.875-8.507812-12.910156-14.570312-17.710937-4.539063-3.542969-9.660156-6.273438-15.136719-8.066407-13.316406-3.894531-27.449219-4.042969-40.84375-.425781-2.148437.460938-3.953125 1.917969-4.855469 3.921875-8.613281 19.480469-2.457031 42.328125 14.78125 54.839844 8.757813 6.71875 19.328125 10.671875 30.347656 11.351562.023438.035157.066407.054688.105469.054688.042969 0 .082031-.019531.109375-.054688 1.355469.074219 2.644532.144531 3.925782.144531 10.460937-.078124 20.792968-2.3125 30.347656-6.570312 2.542968-1.1875 4.140625-3.765625 4.070312-6.570312-.519531-10.78125-3.34375-21.320313-8.28125-30.914063zm0 0" fill="#e8edfc"/><path d="m205.007812 291.175781c.839844 21.667969-15.660156 40.097657-37.292968 41.640625-.03125.042969-.078125.066406-.128906.066406-.046876 0-.097657-.023437-.125-.066406-.28125.070313-.566407.101563-.855469.085938-4.289063.019531-8.542969-.761719-12.542969-2.304688-15.96875-6.496094-26.261719-22.1875-25.855469-39.421875-.894531-22.117187 16.285157-40.785156 38.398438-41.730469.515625-.011718 1.027343.015626 1.535156.085938 6.542969 2.144531 12.664063 5.40625 18.09375 9.644531 7.242187 5.734375 13.179687 12.949219 17.40625 21.160157.9375 3.535156 1.394531 7.183593 1.367187 10.839843zm0 0" fill="#fff"/><path d="m256.207031 419.410156s-9.214843 84.5-77.433593 63.839844c-60.226563-18.242188-43.019532-72.960938-25.808594-82.082031zm0 0" fill="#e8edfc"/><path d="m333.605469 483.261719c-10.476563 3.546875-21.726563 4.136719-32.515625 1.707031-38.824219-9.816406-44.882813-65.539062-44.882813-65.539062l82.429688-14.589844 20.824219-3.671875c17.234374 9.132812 34.386718 63.832031-25.855469 82.09375zm0 0" fill="#cad9fc"/><path d="m308.003906 483.261719c-2.390625.679687-4.695312 1.277343-6.914062 1.707031-38.824219-9.816406-44.882813-65.539062-44.882813-65.539062l82.429688-26.792969c15.019531 15.359375 23.980469 74.070312-30.632813 90.625zm0 0" fill="#e8edfc"/><path d="m294.265625 482.578125c-8.785156 12.476563-22.820313 20.21875-38.058594 20.992187-15.238281-.773437-29.277343-8.515624-38.058593-20.992187 0 0 33.316406-22.160156 38.058593-47.753906 0 0 14.011719 35.292969 38.058594 47.753906zm0 0" fill="#a4c2f7"/><path d="m389.09375 261.050781c-.855469-1.90625-2.570312-3.289062-4.613281-3.726562-12.699219-3.433594-26.101563-3.292969-38.726563.40625h-.066406c-5.203125 1.703125-10.066406 4.296875-14.382812 7.664062-1.707032 1.304688-3.292969 2.757813-4.746094 4.339844h-.066406c-1.316407 1.316406-2.539063 2.722656-3.664063 4.207031-.734375.839844-1.390625 1.75-1.960937 2.710938-.613282.816406-1.15625 1.695312-1.699219 2.578125-.609375 1.015625-1.152344 1.960937-1.695313 2.984375-.878906 1.699218-1.695312 3.460937-2.371094 5.15625-3.21875 7.691406-5.078124 15.886718-5.496093 24.214844-.066407 2.664062 1.453125 5.113281 3.867187 6.238281 9.078125 4.042969 18.890625 6.167969 28.828125 6.242187 1.21875 0 2.441407-.066406 3.726563-.136718h.207031c3.601563-.199219 7.171875-.792969 10.648437-1.761719h.066407c6.585937-1.753907 12.746093-4.820313 18.109375-9.023438 16.375-11.882812 22.222656-33.589843 14.035156-52.09375zm0 0" fill="#fff"/><path d="m296.738281 380.09375-33.789062 35.410156c-3.746094 3.671875-9.738281 3.671875-13.484375 0l-33.792969-35.410156c-1.804687-1.773438-2.519531-4.378906-1.875-6.828125 1.054687-3.839844 4.640625-6.433594 8.617187-6.230469h67.585938c.539062-.015625 1.082031.011719 1.621094.085938 3.359375.441406 6.125 2.867187 6.996094 6.144531.644531 2.449219-.070313 5.054687-1.878907 6.828125zm0 0" fill="#cad9fc"/><path d="m179.40625 291.183594c0-23.039063-5.730469-41.71875-12.800781-41.71875-7.070313 0-12.800781 18.679687-12.800781 41.71875 0 23.042968 5.730468 41.71875 12.800781 41.71875 7.070312 0 12.800781-18.675782 12.800781-41.71875zm0 0" fill="#7facfa"/><path d="m384.207031 291.175781c.378907 17.203125-9.863281 32.867188-25.769531 39.421875h-.085938c-4.003906 1.542969-8.257812 2.324219-12.546874 2.304688-.285157.015625-.574219-.015625-.851563-.085938h-.257813c-21.628906-1.542968-38.132812-19.972656-37.289062-41.640625-.027344-1.167969.027344-2.339843.171875-3.5.132813-2.480469.535156-4.941406 1.195313-7.339843.679687-1.277344 1.363281-2.472657 2.132812-3.753907.679688-1.109375 1.363281-2.21875 2.132812-3.242187.71875-1.210938 1.546876-2.351563 2.472657-3.414063 1.417969-1.863281 2.957031-3.632812 4.609375-5.289062h.085937c1.824219-1.992188 3.824219-3.820313 5.972657-5.460938 5.425781-4.238281 11.546874-7.5 18.089843-9.644531h.085938c.480469-.070312.964843-.097656 1.449219-.085938 22.117187.945313 39.292968 19.613282 38.402343 41.730469zm0 0" fill="#fff"/><path d="m358.605469 291.183594c0-23.039063-5.730469-41.71875-12.800781-41.71875-7.066407 0-12.796876 18.679687-12.796876 41.71875 0 23.042968 5.730469 41.71875 12.796876 41.71875 7.070312 0 12.800781-18.675782 12.800781-41.71875zm0 0" fill="#7facfa"/><path d="m162.339844 277.4375c0-7.070312-9.550782-12.800781-21.332032-12.800781-11.785156 0-21.335937 5.730469-21.335937 12.800781 0 7.066406 9.550781 12.796875 21.335937 12.796875 11.78125 0 21.332032-5.730469 21.332032-12.796875zm0 0" fill="#fff"/><path d="m341.539062 277.4375c0 7.082031-9.558593 12.796875-21.332031 12.796875-4.34375.046875-8.648437-.824219-12.628906-2.558594-.628906-.214843-1.230469-.5-1.792969-.851562.851563-2.132813 1.878906-4.351563 2.988282-6.488281.679687-1.277344 1.363281-2.472657 2.132812-3.753907.679688-1.109375 1.363281-2.21875 2.132812-3.242187.71875-1.210938 1.546876-2.351563 2.472657-3.414063 1.417969-1.863281 2.957031-3.632812 4.609375-5.289062h.085937c11.773438 0 21.332031 5.71875 21.332031 12.800781zm0 0" fill="#fff"/><path d="m470.351562 9.121094c-.636718.074218-1.273437.15625-1.910156.246094-2.378906.34375-4.757812.769531-7.132812 1.351562l-.597656.152344c-2.335938.589844-4.664063 1.324218-6.984376 2.132812-.683593.238282-1.367187.480469-2.042968.734375-2.425782.90625-4.847656 1.886719-7.253906 3.003907h-.0625c-.472657.21875-.933594.5-1.40625.730468-2.03125.980469-4.054688 2.03125-6.070313 3.15625-.792969.441406-1.582031.871094-2.371094 1.332032-2.371093 1.378906-4.730469 2.839843-7.070312 4.382812-.640625.429688-1.273438.871094-1.914063 1.304688-2.1875 1.488281-4.359375 3.039062-6.515625 4.652343-.371093.277344-.742187.539063-1.109375.816407-2.476562 1.878906-4.917968 3.855468-7.339844 5.875-.511718.425781-1.019531.851562-1.53125 1.285156-2.457031 2.085937-4.886718 4.226562-7.289062 6.421875-.171875.15625-.332031.3125-.5.464843-2.429688 2.242188-4.824219 4.527344-7.1875 6.863282-.207031.207031-.417969.40625-.625.613281-2.449219 2.429687-4.855469 4.894531-7.226562 7.394531l-.605469.644532c-4.914063 5.199218-9.644531 10.496093-14.160157 15.777343-14.496093 16.960938-26.765624 33.628907-35.703124 45.640625-1.023438 1.375-2.050782 2.757813-2.984376 4.003906-25.601562 34.132813-51.199218 34.132813-51.199218 34.132813h.246094c8.535156 0 17.066406.085937 25.34375.339844v-.339844s25.601562 0 51.203124-34.132813c.9375-1.242187 1.960938-2.628906 2.984376-4.003906 8.9375-12.007812 21.207031-28.679687 35.703124-45.636718 4.515626-5.28125 9.246094-10.582032 14.15625-15.78125l.605469-.640626c2.371094-2.496093 4.78125-4.960937 7.226563-7.394531.210937-.207031.421875-.410156.628906-.617187 2.363281-2.328125 4.757812-4.617188 7.1875-6.859375.167969-.15625.328125-.3125.496094-.464844 2.402344-2.203125 4.832031-4.34375 7.292968-6.425781.511719-.429688 1.019532-.855469 1.53125-1.285156 2.421876-2.019532 4.863282-3.992188 7.335938-5.871094.371094-.28125.742188-.542969 1.109375-.820313 2.15625-1.613281 4.328125-3.164062 6.519531-4.652343.640625-.433594 1.273438-.878907 1.914063-1.300782 2.339843-1.546875 4.695312-3.007812 7.066406-4.386718.792969-.457032 1.582031-.890626 2.375-1.332032 2.015625-1.117187 4.039063-2.167968 6.070313-3.15625.46875-.226562.933593-.511718 1.40625-.730468h.0625c2.402343-1.117188 4.824218-2.09375 7.25-3 .683593-.257813 1.363281-.5 2.042968-.738282 2.324219-.808594 4.652344-1.542968 6.988282-2.132812l.597656-.152344c.210937-.050781.425781-.085938.640625-.132812-3.066407-1.335938-6.382813-2-9.726563-1.949219-2.496094.019531-4.988281.179687-7.464844.484375zm0 0" fill="#fff"/><path d="m280.46875 439.910156h-3.382812c-2.480469 7.886719-5.976563 15.414063-10.410157 22.390625 6.03125-6.480469 10.71875-14.089843 13.792969-22.390625zm0 0" fill="#fff"/><path d="m256.207031 503.570312c4.355469-.015624 8.679688-.738281 12.800781-2.144531-10.035156-3.738281-18.789062-10.265625-25.230468-18.816406-7.054688 3.015625-14.722656 4.3125-22.375 3.777344 8.613281 10.4375 21.28125 16.691406 34.804687 17.183593zm0 0" fill="#fff"/><path d="m286.535156 439.910156h-2.457031c2.925781 6.152344 6.304687 12.082032 10.101563 17.734375-3.117188-5.648437-5.675782-11.589843-7.644532-17.734375zm0 0" fill="#fff"/><path d="m319.824219 482.625c-.996094 1.246094-2.058594 2.484375-3.171875 3.707031 3.347656-.21875 6.675781-.683593 9.953125-1.394531-2.316407-.589844-4.585938-1.359375-6.78125-2.3125zm0 0" fill="#fff"/><path d="m34.339844 273.253906c0 54.785156 37.289062 122.539063 94.464844 166.742188l8.191406-.003906c1.496094 16.746093 12.367187 34.351562 41.777344 43.257812 10.476562 3.574219 21.738281 4.183594 32.539062 1.761719-2.246094-.472657-4.546875-1.039063-6.9375-1.761719-29.410156-8.90625-40.285156-26.511719-41.78125-43.257812l-8.191406.003906c-57.171875-44.203125-94.460938-111.957032-94.460938-166.742188v-.085937c0-95.859375-50.992187-244.050781-9.757812-262.589844-5.1875-1.257813-10.503906-1.910156-15.84375-1.941406-58.199219 0 0 162.132812 0 264.53125zm0 0" fill="#fff"/><path d="m230.605469 171.109375c-4.65625-.003906-8.449219-3.746094-8.519531-8.402344-.070313-4.660156 3.609374-8.511719 8.265624-8.660156 16.816407-.519531 34.664063-.527344 51.472657 0 4.710937.148437 8.410156 4.085937 8.265625 8.796875-.046875 2.269531-1.007813 4.425781-2.660156 5.984375-1.65625 1.554687-3.867188 2.375-6.136719 2.28125-16.46875-.519531-33.945313-.515625-50.417969 0zm0 0" fill="#428dff"/><path d="m123.535156 450.546875c-30.074218-23.714844-54.917968-53.390625-72.96875-87.167969-15.261718-27.140625-23.753906-57.554687-24.761718-88.671875h17.066406c1.023437 28.324219 8.832031 55.988281 22.769531 80.667969 16.9375 31.671875 40.238281 59.503906 68.4375 81.75zm0 0" fill="#fff"/><g fill="#428dff"><path d="m97.550781 414.855469c-1.6875 1.554687-2.660156 3.734375-2.695312 6.027343-.035157 2.292969.875 4.5 2.515625 6.101563 8.226562 8.386719 16.964844 16.257813 26.164062 23.5625l10.539063-13.421875c-8.621094-6.855469-16.8125-14.234375-24.523438-22.09375-3.328125-3.210938-8.578125-3.289062-12-.175781zm0 0"/><path d="m42.871094 274.707031h-17.066406c1.007812 31.117188 9.5 61.53125 24.761718 88.671875 1.324219 2.628906 2.734375 5.210938 4.265625 7.71875 1.113281 1.996094 2.988281 3.457032 5.199219 4.042969 2.210938.582031 4.5625.246094 6.519531-.941406 3.957031-2.433594 5.308594-7.542969 3.070313-11.613281-1.4375-2.347657-2.753906-4.753907-3.984375-7.210938-13.9375-24.679688-21.742188-52.34375-22.765625-80.667969zm0 0"/><path d="m74.300781 400.433594c1.441407 1.816406 3.527344 3.015625 5.824219 3.347656l1.652344.011719c.578125-.039063 1.144531-.160157 1.6875-.355469.53125-.109375 1.042968-.300781 1.515625-.566406.5-.28125.976562-.59375 1.433593-.9375 1.722657-1.449219 2.855469-3.480469 3.183594-5.707032.105469-1.089843 0-2.191406-.3125-3.242187-.90625-3.207031-3.578125-5.609375-6.863281-6.175781-1.109375-.128906-2.234375-.054688-3.316406.222656-3.382813.738281-5.960938 3.484375-6.488281 6.902344-.261719 2.300781.339843 4.617187 1.683593 6.5zm0 0"/><path d="m138.863281 458c-1.335937 0-2.65625-.316406-3.847656-.921875-3.738281-1.847656-7.378906-3.890625-10.90625-6.113281-3.9375-2.589844-5.035156-7.878906-2.445313-11.820313 2.585938-3.9375 7.878907-5.035156 11.816407-2.449219.035156.027344 3.28125 2.136719 9.25 5.160157 3.527343 1.785156 5.363281 5.757812 4.445312 9.601562-.921875 3.839844-4.359375 6.550781-8.3125 6.542969zm0 0"/><path d="m34.339844 283.238281c-4.714844 0-8.535156-3.820312-8.535156-8.53125-.03125-2.039062.039062-4.078125.21875-6.105469 2.148437-50.347656 35.210937-84.53125 98.222656-101.054687 2.949218-.773437 6.089844.085937 8.234375 2.25 2.144531 2.167969 2.96875 5.3125 2.164062 8.253906-.804687 2.941407-3.113281 5.230469-6.0625 6.003907-55.710937 14.609374-83.691406 42.679687-85.546875 85.8125-.136718 1.609374-.191406 3.222656-.164062 4.839843 0 4.710938-3.820313 8.53125-8.53125 8.53125zm0 0"/><path d="m373.632812 457.660156c-3.960937.003906-7.402343-2.714844-8.316406-6.570312-.910156-3.851563.949219-7.824219 4.488282-9.597656 3.09375-1.542969 6.179687-3.160157 9.269531-4.917969 53.289062-42.183594 90.464843-108.664063 90.464843-161.867188 0-2.164062-.074218-4.167969-.230468-6.175781l-.023438-2.1875c-2.992187-40.984375-31.03125-68.128906-85.691406-82.367188-4.5625-1.1875-7.296875-5.847656-6.109375-10.410156 1.1875-4.558594 5.847656-7.292968 10.40625-6.105468 61.757813 16.085937 94.875 49.152343 98.4375 98.265624l.023437 2.148438c.160157 1.78125.253907 4.210938.253907 6.828125 0 59.171875-39.167969 129.761719-97.460938 175.660156-.324219.257813-.667969.488281-1.023437.695313-3.558594 2.046875-7.117188 3.914062-10.679688 5.699218-1.183594.59375-2.488281.902344-3.808594.902344zm0 0"/><path d="m34.339844 281.703125c-4.714844 0-8.535156-3.820313-8.535156-8.535156-1.578126-39.859375-6.191407-79.542969-13.796876-118.703125-10.777343-65.210938-20.085937-121.535156-.957031-144.085938 5.777344-6.816406 14.359375-10.605468 23.289063-10.277344 60.542968 0 119.003906 78.652344 147.101562 116.453126l4.792969 6.429687c22.34375 29.792969 43.589844 30.699219 44.484375 30.71875 4.679688.121094 8.398438 3.964844 8.363281 8.644531-.035156 4.660156-3.816406 8.417969-8.476562 8.421875-1.21875 0-30.1875-.425781-58.027344-37.546875l-4.835937-6.492187c-26.433594-35.5625-81.441407-109.5625-133.402344-109.5625-3.90625-.296875-7.71875 1.28125-10.273438 4.25-14.019531 16.527343-4.464844 74.347656 4.777344 130.265625 7.78125 40.074218 12.472656 80.691406 14.027344 121.484375 0 4.714843-3.820313 8.535156-8.53125 8.535156zm0 0"/><path d="m119.679688 196.371094c-3.957032.003906-7.402344-2.714844-8.3125-6.570313-.910157-3.851562.945312-7.828125 4.488281-9.597656 2.164062-1.890625 7.082031-15.320313-4.277344-49.398437-16.226563-48.679688-82.605469-115.464844-83.273437-116.136719-3.230469-3.347657-3.1875-8.667969.105468-11.960938 3.292969-3.292969 8.613282-3.335937 11.960938-.105469 2.847656 2.847657 69.894531 70.296876 87.398437 122.800782 18.46875 55.417968-.324219 68.089844-4.28125 70.066406-1.179687.59375-2.484375.902344-3.808593.902344zm0 0"/><path d="m477.824219 281.703125c-4.714844 0-8.535157-3.820313-8.535157-8.535156 1.558594-40.792969 6.246094-81.410157 14.03125-121.484375 9.242188-55.917969 18.792969-113.738282 4.777344-130.265625-2.554687-2.96875-6.371094-4.542969-10.273437-4.25-51.964844 0-106.972657 74-133.40625 109.5625l-4.835938 6.492187c-27.839843 37.121094-56.804687 37.546875-58.027343 37.546875-4.714844.027344-8.554688-3.773437-8.582032-8.484375-.027344-4.714844 3.773438-8.554687 8.488282-8.582031 1.078124-.03125 22.226562-1.066406 44.46875-30.71875l4.792968-6.429687c28.097656-37.800782 86.558594-116.453126 147.101563-116.453126 8.925781-.328124 17.511719 3.460938 23.289062 10.277344 19.128907 22.550782 9.824219 78.875-.953125 144.085938-7.609375 39.160156-12.222656 78.84375-13.804687 118.703125 0 4.714843-3.820313 8.535156-8.53125 8.535156zm0 0"/><path d="m392.722656 196.414062c-1.40625.003907-2.792968-.320312-4.050781-.945312-3.953125-1.976562-22.75-14.648438-4.277344-70.066406 17.503907-52.503906 84.546875-119.953125 87.394531-122.800782 3.347657-3.230468 8.671876-3.1875 11.964844.105469 3.289063 3.292969 3.335938 8.613281.101563 11.960938-.664063.671875-67.046875 67.457031-83.269531 116.136719-11.359376 34.078124-6.441407 47.507812-3.585938 49.804687 1.980469 1.003906 3.472656 2.765625 4.125 4.886719.65625 2.121094.417969 4.417968-.652344 6.359375-1.515625 2.863281-4.511718 4.628906-7.75 4.558593zm0 0"/><path d="m256.207031 426.769531c-4.847656.023438-9.496093-1.929687-12.875-5.402343l-33.8125-35.359376c-4.484375-4.546874-5.761719-11.359374-3.234375-17.222656 2.824219-6.34375 9.164063-10.390625 16.109375-10.28125h67.625c6.945313-.109375 13.28125 3.9375 16.105469 10.28125 2.53125 5.867188 1.25 12.679688-3.230469 17.226563l-33.8125 35.355469c-3.378906 3.472656-8.027343 5.425781-12.875 5.402343zm-33.0625-51.199219 32.519531 34.007813c.34375.167969.742188.167969 1.085938-.003906l32.90625-34.417969zm0 0"/><path d="m199.097656 495.054688c-7.738281-.085938-15.421875-1.3125-22.800781-3.640626-38.511719-11.660156-46.507813-36.496093-47.835937-50.261718-2.085938-21.53125 9.019531-41.429688 20.507812-47.523438 2.695312-1.425781 5.945312-1.308594 8.527344.3125 2.585937 1.617188 4.109375 4.492188 3.996094 7.539063-.109376 3.046875-1.835938 5.804687-4.53125 7.234375-8.707032 7.71875-13.019532 19.253906-11.511719 30.792968 1.621093 16.671876 13.992187 28.972657 35.796875 35.574219 12.839844 5.050781 27.296875 3.839844 39.113281-3.28125 22.957031-15.171875 27.320313-52.933593 27.363281-53.3125.566406-4.65625 4.742188-8.011719 9.410156-7.558593 4.683594.511718 8.066407 4.722656 7.554688 9.410156-.203125 1.875-5.347656 46.15625-34.914062 65.699218-9.09375 6.003907-19.777344 9.144532-30.675782 9.015626zm0 0"/><path d="m313.316406 495.054688c-10.898437.128906-21.582031-3.011719-30.675781-9.019532-29.566406-19.539062-34.714844-63.828125-34.917969-65.699218-.332031-3.03125.976563-6.007813 3.433594-7.8125 2.460938-1.804688 5.695312-2.15625 8.484375-.929688 2.792969 1.226562 4.714844 3.847656 5.046875 6.878906.042969.378906 4.535156 38.285156 27.410156 53.355469 11.808594 7.097656 26.246094 8.296875 39.066406 3.253906 21.804688-6.605469 34.183594-18.902343 35.800782-35.574219 1.507812-11.539062-2.808594-23.078124-11.515625-30.796874-4.164063-2.207032-5.753907-7.371094-3.546875-11.539063 2.207031-4.164063 7.371094-5.75 11.539062-3.542969 11.488282 6.089844 22.59375 25.992188 20.507813 47.523438-1.332031 13.765625-9.324219 38.601562-47.835938 50.261718-7.378906 2.324219-15.0625 3.550782-22.796875 3.640626zm0 0"/><path d="m256.207031 512.101562c-17.871093-.644531-34.414062-9.59375-44.730469-24.199218-1.902343-2.382813-2.386718-5.601563-1.277343-8.4375 1.113281-2.839844 3.65625-4.871094 6.671875-5.328125 3.015625-.453125 6.046875.734375 7.949218 3.117187 7.089844 10.523438 18.710938 17.109375 31.386719 17.78125 12.671875-.671875 24.296875-7.257812 31.386719-17.78125 2.941406-3.683594 8.3125-4.289062 11.996094-1.347656s4.285156 8.3125 1.34375 11.996094c-10.316406 14.605468-26.859375 23.554687-44.726563 24.199218zm0 0"/><path d="m230.613281 375.570312c-.542969 0-1.085937-.054687-1.621093-.15625-4.625-.890624-7.65625-5.363281-6.765626-9.992187 4.269532-21.996094 6.960938-44.269531 8.058594-66.652344 0-4.710937 3.820313-8.535156 8.535156-8.535156 4.710938 0 8.53125 3.824219 8.53125 8.535156-1.066406 23.46875-3.859374 46.824219-8.363281 69.878907-.773437 4.015624-4.285156 6.917968-8.375 6.921874zm0 0"/><path d="m281.796875 375.570312c-4.085937-.003906-7.597656-2.90625-8.371094-6.921874-4.5-23.054688-7.296875-46.410157-8.359375-69.878907 0-4.710937 3.820313-8.535156 8.53125-8.535156 4.714844 0 8.535156 3.824219 8.535156 8.535156 1.09375 22.382813 3.789063 44.65625 8.054688 66.652344.890625 4.628906-2.136719 9.101563-6.765625 9.992187-.535156.105469-1.078125.15625-1.625.15625zm0 0"/><path d="m339.972656 332.949219c-12.492187-.09375-24.835937-2.75-36.257812-7.808594-3.023438-1.449219-4.914063-4.535156-4.835938-7.882813.03125-1.53125 1.144532-37.695312 27.261719-58.09375 16.652344-13.015624 39.167969-16.441406 66.898437-10.171874 2.566407.578124 4.71875 2.304687 5.839844 4.679687 10.28125 23.289063 2.945313 50.59375-17.625 65.59375-11.820312 9.09375-26.371094 13.917969-41.28125 13.683594zm-23.445312-21.117188c10.628906 3.542969 34.875 8.992188 54.269531-6.050781 13.054687-9.226562 18.699219-25.800781 13.980469-41.074219-20.308594-3.785156-36.460938-1.164062-48.042969 7.839844-11.371094 10.136719-18.574219 24.136719-20.207031 39.285156zm0 0"/><path d="m172.441406 332.949219c-14.914062.234375-29.464844-4.589844-41.285156-13.683594-20.570312-14.996094-27.910156-42.304687-17.628906-65.59375 1.125-2.375 3.277344-4.101563 5.839844-4.679687 27.726562-6.25 50.234374-2.839844 66.902343 10.171874 26.113281 20.394532 27.226563 56.5625 27.261719 58.09375.078125 3.347657-1.816406 6.433594-4.839844 7.882813-11.421875 5.058594-23.761718 7.714844-36.25 7.808594zm-44.800781-68.242188c-4.71875 15.273438.925781 31.847657 13.976563 41.074219 19.535156 15.148438 43.671874 9.65625 54.273437 6.082031-1.628906-15.160156-8.828125-29.171875-20.207031-39.316406-11.585938-8.996094-27.722656-11.613281-48.046875-7.839844zm0 0"/><path d="m196.472656 247.570312c-4.679687 0-8.484375-3.769531-8.53125-8.449218-1.265625-10.851563-6.445312-20.875-14.566406-28.183594-3.234375-3.347656-3.1875-8.671875.101562-11.960938 3.292969-3.292968 8.613282-3.339843 11.960938-.105468 11.339844 10.453125 18.324219 24.792968 19.570312 40.164062 0 4.714844-3.820312 8.535156-8.535156 8.535156zm0 0"/><path d="m315.941406 247.519531h-.097656c-4.664062-.03125-8.433594-3.816406-8.4375-8.484375 1.246094-15.371094 8.230469-29.710937 19.566406-40.164062 3.347656-3.234375 8.671875-3.1875 11.960938.101562 3.292968 3.292969 3.339844 8.613282.105468 11.964844-8.128906 7.308594-13.308593 17.335938-14.566406 28.195312-.105468 4.644532-3.886718 8.363282-8.53125 8.386719zm0 0"/></g></svg>