<svg height="512pt" viewBox="0 0 512 512.20999" width="512pt" xmlns="http://www.w3.org/2000/svg"><path d="m503.570312 273.277344c0 127.230468-110.761718 230.398437-247.464843 230.398437-4.265625 0-8.535157-.085937-12.714844-.339843h-.171875c-130.730469-6.230469-234.582031-106.839844-234.582031-230.058594.039062-45.355469 14.238281-89.570313 40.621093-126.464844l69.460938-58.113281 24.40625-20.394531c3.410156-1.621094 6.910156-3.242188 10.410156-4.777344 28.417969-12.046875 58.761719-18.925782 89.597656-20.308594 4.355469-.257812 8.621094-.34375 12.972657-.34375 39.09375-.121094 77.710937 8.570312 112.980469 25.429688l93.867187 78.507812c26.378906 36.894531 40.582031 81.109375 40.617187 126.464844zm0 0" fill="#cad9fc"/><path d="m477.972656 273.277344c0 123.21875-103.851562 223.828125-234.582031 230.058594h-.171875c-130.730469-6.230469-234.582031-106.839844-234.582031-230.058594.039062-45.355469 14.238281-89.570313 40.621093-126.464844l69.460938-58.113281 24.40625-20.394531c3.410156-1.621094 6.910156-3.242188 10.410156-4.777344 28.417969-12.046875 58.761719-18.925782 89.597656-20.308594 34.800782 1.507812 68.9375 10.042969 100.355469 25.085938l93.863281 78.507812c26.382813 36.894531 40.582032 81.109375 40.621094 126.464844zm0 0" fill="#e8edfc"/><path d="m332.90625 94.078125 50.601562 19.371094c2.75-8.472657 6.085938-16.742188 9.984376-24.75l-24.40625-20.394531c-3.414063-1.621094-6.910157-3.242188-10.410157-4.777344-13.910156 17.238281-25.769531 30.550781-25.769531 30.550781zm0 0" fill="#bdc3c7"/><path d="m332.90625 94.078125 44.117188 31.488281c10.410156-17.75 42.066406-49.835937 58.28125-74.15625 13.398437-20.054687 25.601562-42.667968 25.601562-42.667968-8.535156 0-25.601562 0-51.203125 25.601562-24.070313 21.800781-49.742187 41.769531-76.796875 59.734375zm0 0" fill="#e8edfc"/><path d="m452.371094 179.410156c-4.390625-8.84375-10.121094-16.960937-16.980469-24.0625-14.503906-14.753906-33.570313-24.167968-54.101563-26.710937-1.898437-.242188-3.804687-.386719-5.71875-.425781.429688-.855469.941407-1.707032 1.453126-2.644532 10.410156-17.75 42.066406-49.835937 58.28125-74.15625 2.476562-3.667968 4.863281-7.425781 7.167968-11.09375 10.324219-16.46875 18.433594-31.574218 18.433594-31.574218 8.53125 0 17.066406 119.46875-8.535156 170.667968zm0 0" fill="#7facfa"/><path d="m435.390625 155.347656c-14.503906-14.753906-33.570313-24.167968-54.101563-26.710937-1.898437-.242188-3.804687-.386719-5.71875-.425781.429688-.855469.941407-1.707032 1.453126-2.644532 10.410156-17.75 42.066406-49.835937 58.28125-74.15625 2.476562-3.667968 4.863281-7.425781 7.167968-11.09375 3.390625 38.480469 1 77.253906-7.082031 115.03125zm0 0" fill="#a4c2f7"/><path d="m179.304688 94.078125-50.601563 19.371094c-2.75-8.472657-6.085937-16.742188-9.984375-24.75l24.40625-20.394531c3.410156-1.621094 6.910156-3.242188 10.410156-4.777344 13.910156 17.238281 25.769532 30.550781 25.769532 30.550781zm0 0" fill="#bdc3c7"/><path d="m255.335938 358.523438c-6.570313 15.957031-52.90625 123.648437-84.5625 71-34.136719-56.75 42.664062-113.582032 42.664062-113.582032zm0 0" fill="#cad9fc"/><path d="m298.003906 315.941406s76.800782 56.832032 42.667969 113.582032c-31.660156 52.648437-77.996094-55.042969-84.566406-71zm0 0" fill="#cad9fc"/><path d="m179.304688 94.078125-44.117188 31.488281c-10.410156-17.75-42.070312-49.835937-58.28125-74.15625-13.398438-20.054687-25.601562-42.667968-25.601562-42.667968 8.535156 0 25.601562 0 51.199218 25.601562 24.074219 21.800781 49.746094 41.769531 76.800782 59.734375zm0 0" fill="#e8edfc"/><path d="m136.636719 128.210938c-1.910157.039062-3.820313.183593-5.714844.425781-30.785156 3.746093-57.558594 22.867187-71.082031 50.773437-25.601563-51.199218-17.066406-170.667968-8.535156-170.667968 0 0 12.203124 22.613281 25.601562 42.667968 16.210938 24.320313 47.871094 56.40625 58.28125 74.15625.511719.9375 1.023438 1.789063 1.449219 2.644532zm0 0" fill="#a4c2f7"/><path d="m296.636719 320.464844-33.789063 35.414062c-3.746094 3.667969-9.738281 3.667969-13.484375 0l-33.792969-35.414062c-1.804687-1.773438-2.519531-4.378906-1.875-6.824219 1.070313-3.832031 4.644532-6.417969 8.617188-6.230469h67.585938c.539062-.015625 1.082031.011719 1.621093.085938 3.359375.4375 6.125 2.867187 6.996094 6.144531.644531 2.445313-.070313 5.050781-1.878906 6.824219zm0 0" fill="#cad9fc"/><path d="m189.972656 240.851562c-3.421875-8.476562-8.800781-16.023437-15.703125-22.015624-2.613281-2.242188-5.441406-4.214844-8.445312-5.890626 0-.023437-.011719-.042968-.027344-.058593s-.039063-.027344-.058594-.027344c-16.894531-8.328125-36.230469-10.265625-54.445312-5.460937-2.851563.609374-5.214844 2.589843-6.3125 5.292968-5.546875 14.675782-9.046875 47.699219 18.089843 67.496094 9.617188 7.234375 21.332032 11.128906 33.367188 11.09375 12.871094-.253906 25.421875-4.066406 36.265625-11.007812 2.222656-1.5 3.585937-3.976563 3.667969-6.65625.078125-11.238282-2.097656-22.382813-6.398438-32.765626zm0 0" fill="#e8edfc"/><path d="m407.230469 212.691406c-1.097657-2.703125-3.464844-4.683594-6.316407-5.292968-26.792968-5.289063-47.957031-1.449219-62.972656 11.4375-4.160156 3.503906-7.734375 7.652343-10.582031 12.285156-2.84375 4.324218-5.109375 9-6.742187 13.910156-3.222657 9.183594-4.839844 18.855469-4.777344 28.585938.082031 2.679687 1.445312 5.15625 3.667968 6.65625 10.84375 6.941406 23.394532 10.753906 36.265626 11.007812 12.035156.035156 23.75-3.859375 33.367187-11.09375 27.136719-19.796875 23.636719-52.820312 18.089844-67.496094zm0 0" fill="#fff"/><path d="m191.167969 250.492188c.625 21.335937-16.128907 39.160156-37.464844 39.851562-21.023437-1.308594-37.410156-18.742188-37.410156-39.808594s16.386719-38.5 37.410156-39.808594c4.105469.007813 8.175781.730469 12.035156 2.132813.046875 0 .085938.039063.085938.085937 3.003906 1.675782 5.832031 3.648438 8.445312 5.890626 6.902344 5.992187 12.28125 13.539062 15.703125 22.015624.832032 3.144532 1.234375 6.386719 1.195313 9.640626zm0 0" fill="#fff"/><path d="m170.773438 250.519531c0-21.996093-7.644532-39.828125-17.070313-39.828125-9.421875 0-17.066406 17.832032-17.066406 39.828125 0 21.992188 7.644531 39.824219 17.066406 39.824219 9.425781 0 17.070313-17.832031 17.070313-39.824219zm0 0" fill="#7facfa"/><path d="m321.070312 250.492188c1.207032 20.417968 18.535157 36.113281 38.976563 35.296874 20.4375-.8125 36.460937-17.835937 36.042969-38.285156-.421875-20.449218-17.132813-36.800781-37.585938-36.777344-4.101562.007813-8.175781.730469-12.03125 2.132813-.046875 0-.085937.039063-.085937.085937-3.003907 1.675782-5.832031 3.648438-8.445313 5.890626-6.902344 5.992187-12.28125 13.539062-15.703125 22.015624-.824219 3.144532-1.21875 6.390626-1.167969 9.640626zm0 0" fill="#fff"/><path d="m375.597656 250.519531c0-21.996093-7.640625-39.828125-17.066406-39.828125s-17.066406 17.832032-17.066406 39.828125c0 21.992188 7.640625 39.824219 17.066406 39.824219s17.066406-17.832031 17.066406-39.824219zm0 0" fill="#7facfa"/><path d="m145.171875 239.144531c0-4.714843-7.640625-8.535156-17.066406-8.535156s-17.066407 3.820313-17.066407 8.535156c0 4.710938 7.640626 8.53125 17.066407 8.53125s17.066406-3.820312 17.066406-8.53125zm0 0" fill="#fff"/><path d="m349.972656 239.144531c0 4.691407-7.679687 8.53125-17.066406 8.53125-4.25.097657-8.457031-.808593-12.289062-2.644531 1.632812-4.910156 3.898437-9.585938 6.742187-13.910156 1.828125-.351563 3.683594-.523438 5.546875-.511719 9.386719 0 17.066406 3.839844 17.066406 8.535156zm0 0" fill="#fff"/><path d="m8.636719 273.277344c0 123.21875 103.851562 223.828125 234.582031 230.058594h.171875c4.179687.253906 8.449219.339843 12.714844.339843 4.429687 0 8.832031-.117187 13.199219-.332031h-.484376c-130.730468-6.238281-234.582031-106.847656-234.582031-230.066406.039063-45.355469 14.238281-89.570313 40.617188-126.464844-10.273438-49.09375-6.578125-115.550781-.878907-133.425781-7.09375-3.285157-14.855468-4.875-22.671874-4.644531-7.023438 0-14.027344 80.871093-2.03125 138.054687-26.390626 36.898437-40.597657 81.117187-40.636719 126.480469zm0 0" fill="#fff"/><path d="m468.054688 40.316406-.5625.894532c.179687-.28125.382812-.578126.5625-.894532zm0 0" fill="#fff"/><path d="m460.90625 8.742188c-8.535156 0-25.601562 0-51.203125 25.601562-9.90625 9.570312-20.375 18.550781-31.339844 26.886719 1.960938.777343 3.90625 1.5625 5.835938 2.390625l.078125-.09375c3.496094 1.535156 6.996094 3.15625 10.410156 4.777344 14.261719-10.421876 27.832031-21.769532 40.617188-33.960938 6.207031-6.378906 13.144531-12 20.667968-16.75 2.558594-4.523438 4.265625-7.679688 4.789063-8.585938-.324219.605469-2.03125 3.753907-4.761719 8.535157 2.515625-1.5625 5.132812-2.964844 7.832031-4.191407-.9375-2.902343-1.929687-4.609374-2.925781-4.609374zm0 0" fill="#fff"/><path d="m168.714844 68.316406c3.414062-1.625 6.914062-3.246094 10.410156-4.78125 28.382812-12.035156 58.683594-18.910156 89.480469-20.308594-4.144531-.195312-8.300781-.351562-12.5-.351562-4.351563 0-8.617188.085938-12.972657.34375-28.714843 1.308594-57.019531 7.382812-83.746093 17.96875 3.132812 2.441406 6.265625 4.824219 9.328125 7.128906zm0 0" fill="#fff"/><path d="m17.171875 273.277344c.332031 35.691406 9.566406 70.734375 26.863281 101.957031 21.085938 37.179687 52.113282 67.75 89.597656 88.285156 9.296876 5.1875 18.890626 9.820313 28.734376 13.875l15.113281 5.195313 7.558593 2.5625 7.773438 1.851562 15.558594 3.675782 15.828125 2.246093c2.644531.347657 5.273437.800781 7.917969 1.082031l7.996093.367188 15.992188.769531v17.066407l-17.066407-.792969-8.535156-.410157c-2.824218-.292968-5.632812-.761718-8.445312-1.136718l-16.890625-2.40625-16.613281-3.917969-8.292969-1.988281-8.089844-2.730469-16.136719-5.5625c-10.523437-4.335937-20.78125-9.289063-30.71875-14.832031-40.253906-22.078125-73.5625-54.929688-96.199218-94.871094-18.707032-33.769531-28.679688-71.679688-29.011719-110.285156zm0 0" fill="#fff"/><g fill="#428dff"><path d="m13 315.660156c4.554688-.886718 7.636719-5.15625 7.046875-9.761718-1.707031-10.792969-2.667969-21.695313-2.875-32.621094h-17.066406c.207031 11.824218 1.238281 23.621094 3.089843 35.300781.304688 2.265625 1.527344 4.308594 3.382813 5.644531 1.851563 1.339844 4.171875 1.859375 6.421875 1.4375zm0 0"/><path d="m256.105469 512.210938v-17.066407l-15.984375-.761719-7.996094-.367187c-2.644531-.28125-5.273438-.734375-7.917969-1.082031l-15.828125-2.246094-15.558594-3.675781-7.773437-1.851563-7.558594-2.5625-15.113281-5.195312c-9.84375-4.050782-19.4375-8.683594-28.730469-13.875-37.488281-20.535156-68.515625-51.105469-89.601562-88.285156l-3.761719-7.289063c-2.289062-4.054687-7.308594-5.667969-11.53125-3.703125-2.050781.976562-3.613281 2.753906-4.308594 4.917969-.699218 2.164062-.472656 4.519531.625 6.507812l4.070313 7.867188c22.632812 39.953125 55.945312 72.808593 96.203125 94.890625 9.941406 5.542968 20.199218 10.496094 30.71875 14.832031l16.136718 5.5625 8.089844 2.730469 8.296875 1.988281 16.613281 3.917969 16.886719 2.40625c2.816407.375 5.625.855468 8.449219 1.136718l8.53125.410157zm0 0"/><path d="m27.496094 337.78125c-.613282-2.089844-2.019532-3.851562-3.914063-4.917969l-1.496093-.59375c-.550782-.175781-1.125-.28125-1.707032-.308593-.53125-.097657-1.074218-.117188-1.613281-.058594-.574219.058594-1.144531.160156-1.703125.296875-2.171875.660156-4.003906 2.128906-5.121094 4.105469-.519531 1.035156-.84375 2.164062-.949218 3.320312-.449219 3.570312 1.46875 7.023438 4.738281 8.53125 1.046875.457031 2.175781.707031 3.320312.742188 1.117188.0625 2.238281-.101563 3.292969-.484376 2.078125-.804687 3.789062-2.355468 4.792969-4.34375.835937-1.996093.960937-4.214843.359375-6.289062zm0 0"/><path d="m8.636719 281.808594c-4.710938 0-8.53125-3.820313-8.53125-8.53125.035156-47.128906 14.785156-93.070313 42.1875-131.414063 1.753906-2.515625 4.71875-3.894531 7.769531-3.621093 3.050781.277343 5.722656 2.167968 6.996094 4.957031 1.273437 2.785156.953125 6.042969-.839844 8.527343-25.347656 35.464844-39 77.957032-39.046875 121.550782 0 4.710937-3.820313 8.53125-8.535156 8.53125zm0 0"/><path d="m256.105469 512.210938c-4.714844 0-8.535157-3.820313-8.535157-8.535157 0-4.710937 3.820313-8.53125 8.535157-8.53125 131.746093 0 238.933593-99.535156 238.933593-221.867187-.046874-43.589844-13.699218-86.074219-39.050781-121.53125-2.726562-3.847656-1.820312-9.179688 2.027344-11.910156 3.847656-2.726563 9.179687-1.820313 11.910156 2.027343 27.390625 38.347657 42.136719 84.285157 42.179688 131.414063 0 131.746094-114.84375 238.933594-256 238.933594zm0 0"/><path d="m369.085938 76.839844c-1.28125-.003906-2.542969-.296875-3.695313-.855469-69.167969-32.777344-149.402344-32.777344-218.570313 0-2.765624 1.492187-6.128906 1.34375-8.75-.386719-2.621093-1.730468-4.082031-4.761718-3.800781-7.890625.28125-3.128906 2.261719-5.847656 5.152344-7.082031 73.84375-35.035156 159.523437-35.035156 233.367187 0 3.578126 1.734375 5.484376 5.707031 4.601563 9.582031-.886719 3.875-4.328125 6.625-8.304687 6.632813zm0 0"/><path d="m59.839844 187.941406c-3.25.019532-6.230469-1.808594-7.679688-4.71875-24.363281-48.824218-20.011718-160.945312-9.636718-177.722656 1.757812-3.21875 5.113281-5.242188 8.78125-5.289062 9.457031 0 29.132812 0 57.234374 28.097656 23.683594 21.394531 48.917969 41.003906 75.5 58.667968 3.921876 2.617188 4.980469 7.914063 2.367188 11.835938-2.617188 3.921875-7.917969 4.980469-11.835938 2.363281-27.546874-18.246093-53.652343-38.570312-78.097656-60.800781-19.0625-19.0625-32.179687-22.390625-40.507812-22.96875-5.761719 20.511719-10.09375 114.992188 11.554687 158.1875 1.324219 2.65625 1.179688 5.804688-.386719 8.324219-1.566406 2.515625-4.328124 4.042969-7.292968 4.023437zm0 0"/><path d="m59.839844 205.011719c-2.746094 0-5.320313-1.320313-6.925782-3.542969-1.605468-2.226562-2.039062-5.085938-1.175781-7.6875 18.929688-56.773438 51.421875-74.546875 70.265625-80.113281-4.863281-5.691407-11.347656-12.175781-18.066406-18.890625-12.558594-11.785156-23.984375-24.71875-34.132812-38.632813-13.449219-20.179687-25.496094-42.410156-26-43.339843-1.554688-2.6875-1.527344-6.007813.074218-8.671876 1.601563-2.660156 4.519532-4.242187 7.625-4.12890575 3.101563.11718775 5.898438 1.90624975 7.300782 4.67578175.128906.222656 12.195312 22.496093 25.199218 41.996093 9.542969 12.964844 20.253906 25.027344 32 36.035157 10.945313 9.667968 20.476563 20.828124 28.3125 33.152343 1.328125 2.652344 1.179688 5.800781-.386718 8.320313-1.566407 2.519531-4.324219 4.042968-7.292969 4.027344-1.78125 0-45.566407 1.550781-68.699219 70.960937-1.164062 3.488281-4.425781 5.839844-8.097656 5.839844zm0 0"/><path d="m452.371094 187.941406c-2.957032 0-5.699219-1.53125-7.253906-4.046875-1.554688-2.515625-1.695313-5.65625-.375-8.300781 21.605468-43.195312 17.273437-137.675781 11.511718-158.1875-8.328125.578125-21.445312 3.90625-40.507812 22.96875-24.445313 22.230469-50.550782 42.554688-78.097656 60.800781-3.921876 2.617188-9.21875 1.558594-11.835938-2.363281-2.613281-3.921875-1.554688-9.21875 2.363281-11.835938 26.585938-17.664062 51.820313-37.273437 75.503907-58.667968 28.09375-28.097656 47.769531-28.097656 57.226562-28.097656 3.667969.046874 7.023438 2.070312 8.78125 5.289062 10.367188 16.777344 14.734375 128.898438-9.679688 177.722656-1.445312 2.894532-4.402343 4.722656-7.636718 4.71875zm0 0"/><path d="m452.371094 205.011719c-3.671875-.003907-6.929688-2.355469-8.089844-5.839844-23.140625-69.410156-66.925781-70.960937-68.777344-70.960937-2.945312-.023438-5.671875-1.5625-7.210937-4.074219-1.539063-2.511719-1.675781-5.640625-.359375-8.273438 7.824218-12.324219 17.339844-23.480469 28.273437-33.152343 11.742188-11.011719 22.453125-23.074219 32-36.035157 13.003907-19.5 25.070313-41.773437 25.1875-41.996093 2.246094-4.144532 7.425781-5.6875 11.574219-3.445313 4.144531 2.242187 5.6875 7.421875 3.445312 11.570313-.511718.929687-12.550781 23.160156-26.007812 43.339843-10.144531 13.917969-21.574219 26.851563-34.136719 38.632813-6.714843 6.714844-13.199219 13.199218-18.0625 18.890625 18.847657 5.566406 51.328125 23.339843 70.253907 80.113281.867187 2.601562.429687 5.457031-1.171876 7.683594-1.601562 2.222656-4.175781 3.542968-6.917968 3.546875zm0 0"/><path d="m190.449219 452.476562c-7.679688 0-17.960938-3.5-26.992188-18.515624-30.164062-50.136719 16.214844-103.578126 44.902344-124.835938 3.773437-2.472656 8.816406-1.582031 11.515625 2.027344 2.699219 3.613281 2.121094 8.703125-1.316406 11.617187-.707032.53125-70.152344 52.90625-40.441406 102.324219 4.269531 7.109375 8.535156 10.5625 12.980468 10.238281 15.863282-1.195312 40.371094-41.179687 56.378906-80.066406 1.164063-2.820313 3.742188-4.808594 6.761719-5.210937 3.023438-.402344 6.035157.835937 7.894531 3.25 1.863282 2.417968 2.292969 5.644531 1.132813 8.460937-10.898437 26.453125-39.613281 88.226563-70.878906 90.582031-.648438.0625-1.289063.128906-1.9375.128906zm0 0"/><path d="m320.957031 452.476562c-.65625 0-1.289062 0-1.902343-.078124-31.265626-2.355469-59.980469-64.125-70.878907-90.578126-1.792969-4.359374.285157-9.351562 4.644531-11.144531 4.359376-1.796875 9.347657.28125 11.144532 4.640625 16.007812 38.886719 40.515625 78.875 56.378906 80.066406 4.488281.316407 8.710938-3.113281 12.980469-10.238281 29.710937-49.398437-39.730469-101.804687-40.441407-102.332031-3.78125-2.816406-4.5625-8.164062-1.75-11.945312 2.816407-3.785157 8.167969-4.566407 11.949219-1.75 28.722657 21.257812 75.09375 74.699218 44.902344 124.84375-9.027344 14.972656-19.347656 18.515624-27.027344 18.515624zm0 0"/><path d="m156.410156 291.300781c-12.023437.011719-23.730468-3.878906-33.347656-11.09375-27.09375-19.789062-23.65625-52.78125-18.046875-67.457031 1.046875-2.742188 3.433594-4.753906 6.3125-5.324219 26.734375-5.292969 47.90625-1.453125 62.941406 11.410157 23.1875 19.785156 22.101563 53.355468 22.101563 54.78125-.109375 2.6875-1.476563 5.167968-3.695313 6.691406-10.835937 6.949218-23.394531 10.753906-36.265625 10.992187zm-36.753906-68.054687c-4.828125 15.78125.515625 32.90625 13.464844 43.136718 13.675781 9.46875 31.5625 10.277344 46.03125 2.074219-.449219-13.855469-6.191406-27.007812-16.042969-36.753906-10.011719-8.507813-24.621094-11.332031-43.453125-8.457031zm0 0"/><path d="m187.839844 298.875c-4.714844 0-8.535156-3.820312-8.535156-8.53125v-16.71875c0-4.710938 3.820312-8.53125 8.535156-8.53125 4.710937 0 8.53125 3.820312 8.53125 8.53125v16.71875c0 4.710938-3.820313 8.53125-8.53125 8.53125zm0 0"/><path d="m355.800781 291.300781c-12.867187-.242187-25.417969-4.046875-36.25-10.992187-2.222656-1.519532-3.601562-4-3.710937-6.691406-.050782-1.425782-1.101563-34.984376 22.082031-54.816407 15.046875-12.871093 36.226563-16.699219 62.941406-11.410156 2.882813.570313 5.265625 2.582031 6.316407 5.324219 5.597656 14.679687 9.042968 47.667968-18.046876 67.457031-9.613281 7.21875-21.3125 11.125-33.332031 11.128906zm-22.757812-22.855469c14.480469 8.226563 32.390625 7.421876 46.078125-2.0625 12.949218-10.230468 18.296875-27.355468 13.464844-43.136718-18.882813-2.882813-33.519532 0-43.519532 8.53125-9.859375 9.707031-15.601562 22.839844-16.023437 36.667968zm0 0"/><path d="m324.371094 298.875c-4.710938 0-8.53125-3.820312-8.53125-8.53125v-16.71875c0-4.710938 3.820312-8.53125 8.53125-8.53125 4.714844 0 8.535156 3.820312 8.535156 8.53125v16.71875c0 4.710938-3.820312 8.53125-8.535156 8.53125zm0 0"/><path d="m256.105469 367.144531c-4.847657.019531-9.496094-1.929687-12.878907-5.402343l-33.808593-35.363282c-4.484375-4.542968-5.761719-11.355468-3.234375-17.21875 2.824218-6.347656 9.167968-10.394531 16.113281-10.285156h67.617187c6.9375-.117188 13.273438 3.910156 16.109376 10.242188 2.53125 5.867187 1.25 12.679687-3.234376 17.226562l-33.808593 35.355469c-3.371094 3.488281-8.023438 5.453125-12.875 5.445312zm-33.066407-51.203125 32.527344 34.007813c.339844.167969.738282.167969 1.078125 0l32.910157-34.40625zm0 0"/></g></svg>