<svg height="512pt" viewBox="0 0 512 512.00418" width="512pt" xmlns="http://www.w3.org/2000/svg"><path d="m503.46875 273.070312c0 127.234376-110.761719 230.402344-247.464844 230.402344-4.269531 0-8.535156-.085937-12.714844-.34375h-.171874c-130.730469-6.230468-234.582032-106.835937-234.582032-230.058594.039063-45.355468 14.238282-89.566406 40.617188-126.464843l69.464844-58.109375 24.402343-20.394532c3.414063-1.621093 6.914063-3.242187 10.410157-4.78125 28.421874-12.046874 58.765624-18.921874 89.601562-20.308593 4.351562-.253907 8.617188-.339844 12.972656-.339844 39.089844-.125 77.707032 8.570313 112.980469 25.429687l93.867187 78.503907c26.378907 36.898437 40.578126 81.109375 40.617188 126.464843zm0 0" fill="#cad9fc"/><path d="m477.867188 273.070312c0 123.222657-103.847657 223.828126-234.578126 230.058594h-.171874c-130.730469-6.230468-234.582032-106.835937-234.582032-230.058594.039063-45.355468 14.238282-89.566406 40.617188-126.464843l69.464844-58.109375 24.402343-20.394532c3.414063-1.621093 6.914063-3.242187 10.410157-4.78125 28.421874-12.046874 58.765624-18.921874 89.601562-20.308593 34.800781 1.507812 68.9375 10.042969 100.351562 25.089843l93.867188 78.503907c26.378906 36.898437 40.582031 81.109375 40.617188 126.464843zm0 0" fill="#e8edfc"/><path d="m289.027344 419.757812v.085938c-8.445313 9.421875-20.378906 14.976562-33.023438 15.359375-12.898437-.414063-25.042968-6.160156-33.539062-15.871094l-5.652344-65.667969 35.082031-17.066406 27.496094 17.699219zm0 0" fill="#a4c2f7"/><path d="m179.203125 93.871094-50.605469 19.371094c-2.746094-8.472657-6.082031-16.738282-9.980468-24.746094l24.402343-20.394532c3.414063-1.621093 6.914063-3.242187 10.410157-4.78125 13.910156 17.238282 25.773437 30.550782 25.773437 30.550782zm0 0" fill="#bdc3c7"/><path d="m179.203125 93.871094-44.117187 31.488281c-10.410157-17.75-42.070313-49.835937-58.285157-74.15625-13.394531-20.050781-25.597656-42.664063-25.597656-42.664063 8.53125 0 25.597656 0 51.199219 25.597657 24.070312 21.804687 49.742187 41.769531 76.800781 59.734375zm0 0" fill="#e8edfc"/><path d="m332.800781 93.871094 50.605469 19.371094c2.746094-8.472657 6.085938-16.738282 9.984375-24.746094l-24.40625-20.394532c-3.414063-1.621093-6.914063-3.242187-10.410156-4.78125-13.910157 17.238282-25.773438 30.550782-25.773438 30.550782zm0 0" fill="#bdc3c7"/><path d="m332.800781 93.871094 44.117188 31.488281c10.414062-17.75 42.070312-49.835937 58.285156-74.15625 13.394531-20.050781 25.597656-42.664063 25.597656-42.664063-8.53125 0-25.597656 0-51.199219 25.597657-24.070312 21.804687-49.742187 41.769531-76.800781 59.734375zm0 0" fill="#e8edfc"/><path d="m452.269531 179.203125c-4.394531-8.84375-10.121093-16.960937-16.980469-24.0625-14.503906-14.753906-33.570312-24.167969-54.101562-26.710937-1.898438-.242188-3.808594-.386719-5.71875-.425782.425781-.851562.9375-1.707031 1.449219-2.644531 10.414062-17.75 42.070312-49.835937 58.285156-74.15625 2.472656-3.667969 4.863281-7.421875 7.167969-11.09375 10.324218-16.46875 18.429687-31.570313 18.429687-31.570313 8.535157 0 17.066407 119.464844-8.53125 170.664063zm0 0" fill="#7facfa"/><path d="m435.289062 155.140625c-14.503906-14.753906-33.570312-24.167969-54.101562-26.710937-1.898438-.242188-3.808594-.386719-5.71875-.425782.425781-.851562.9375-1.707031 1.449219-2.644531 10.414062-17.75 42.070312-49.835937 58.285156-74.15625 2.472656-3.667969 4.863281-7.421875 7.167969-11.09375 3.386718 38.484375 1 77.253906-7.082032 115.03125zm0 0" fill="#a4c2f7"/><path d="m255.234375 358.320312c-6.570313 15.957032-52.90625 123.648438-84.566406 70.996094-34.132813-56.746094 42.667969-113.578125 42.667969-113.578125zm0 0" fill="#cad9fc"/><path d="m297.902344 315.738281s76.796875 56.832031 42.664062 113.578125c-31.65625 52.652344-77.992187-55.039062-84.5625-70.996094zm0 0" fill="#cad9fc"/><path d="m136.535156 128.003906c-1.910156.039063-3.820312.183594-5.71875.425782-30.78125 3.746093-57.554687 22.871093-71.082031 50.773437-25.597656-51.199219-17.066406-170.664063-8.53125-170.664063 0 0 12.203125 22.613282 25.597656 42.664063 16.214844 24.320313 47.875 56.40625 58.285157 74.15625.511718.9375 1.023437 1.792969 1.449218 2.644531zm0 0" fill="#a4c2f7"/><path d="m296.535156 320.261719-33.792968 35.410156c-3.742188 3.671875-9.734376 3.671875-13.480469 0l-33.792969-35.410156c-1.804688-1.773438-2.523438-4.378907-1.878906-6.828125 1.058594-3.839844 4.640625-6.433594 8.621094-6.230469h67.582031c.542969-.015625 1.085937.011719 1.621093.085937 3.363282.441407 6.128907 2.867188 7 6.144532.644532 2.449218-.074218 5.054687-1.878906 6.828125zm0 0" fill="#cad9fc"/><path d="m190.535156 241.660156c-3.191406-6.875-8.019531-12.863281-14.0625-17.4375-2.371094-1.789062-4.90625-3.351562-7.570312-4.664062 0-.019532-.007813-.035156-.023438-.050782-.011718-.011718-.03125-.019531-.050781-.015624-15.375-6.621094-32.46875-8.136719-48.769531-4.328126-2.453125.40625-4.558594 1.964844-5.65625 4.191407-8.5 19.378906-1.625 42.0625 16.203125 53.460937 8.882812 5.800782 19.28125 8.859375 29.890625 8.789063 11.386718-.148438 22.554687-3.144531 32.488281-8.71875 1.921875-1.082031 3.160156-3.070313 3.285156-5.273438.058594-8.972656-1.898437-17.839843-5.734375-25.953125zm0 0" fill="#fff"/><path d="m397.601562 219.351562c-1.097656-2.226562-3.203124-3.789062-5.65625-4.191406-24-4.191406-42.957031-1.148437-56.414062 9.058594-3.664062 2.710938-6.863281 6-9.476562 9.734375-2.519532 3.371094-4.550782 7.078125-6.039063 11.015625-2.875 7.199219-4.332031 14.886719-4.28125 22.640625.125 2.203125 1.363281 4.191406 3.289063 5.273437 9.929687 5.574219 21.097656 8.574219 32.484374 8.722657 10.609376.070312 21.007813-2.988281 29.890626-8.789063 17.828124-11.402344 24.703124-34.085937 16.203124-53.464844zm0 0" fill="#fff"/><path d="m191.0625 250.285156c.628906 21.339844-16.125 39.160156-37.460938 39.851563-21.046874-1.277344-37.460937-18.71875-37.460937-39.808594 0-21.085937 16.414063-38.527344 37.460937-39.804687 4.105469.003906 8.175782.726562 12.03125 2.132812.046876 0 .085938.035156.085938.082031 3.003906 1.679688 5.835938 3.652344 8.449219 5.890625 6.898437 5.996094 12.28125 13.539063 15.699219 22.015625.832031 3.144531 1.234374 6.390625 1.195312 9.640625zm0 0" fill="#fff"/><path d="m170.667969 250.316406c0-21.996094-7.640625-39.824218-17.066407-39.824218-9.425781 0-17.066406 17.828124-17.066406 39.824218 0 21.992188 7.640625 39.820313 17.066406 39.820313 9.425782 0 17.066407-17.828125 17.066407-39.820313zm0 0" fill="#7facfa"/><path d="m320.96875 250.285156c1.21875 20.402344 18.53125 36.074219 38.953125 35.261719 20.417969-.8125 36.433594-17.8125 36.027344-38.242187-.40625-20.433594-17.085938-36.78125-37.519531-36.78125-4.105469.003906-8.175782.726562-12.03125 2.132812-.050782 0-.085938.035156-.085938.082031-3.007812 1.679688-5.835938 3.652344-8.449219 5.890625-6.898437 5.996094-12.28125 13.539063-15.703125 22.015625-.832031 3.144531-1.234375 6.390625-1.191406 9.640625zm0 0" fill="#fff"/><path d="m375.496094 250.316406c0-21.996094-7.640625-39.824218-17.066406-39.824218-9.425782 0-17.066407 17.828124-17.066407 39.824218 0 21.992188 7.640625 39.820313 17.066407 39.820313 9.425781 0 17.066406-17.828125 17.066406-39.820313zm0 0" fill="#7facfa"/><path d="m145.070312 238.9375c0-4.710938-7.640624-8.535156-17.066406-8.535156-9.425781 0-17.070312 3.824218-17.070312 8.535156s7.644531 8.535156 17.070312 8.535156c9.425782 0 17.066406-3.824218 17.066406-8.535156zm0 0" fill="#fff"/><path d="m349.867188 238.9375c0 4.691406-7.679688 8.535156-17.066407 8.535156-4.246093.09375-8.457031-.8125-12.285156-2.648437 1.632813-4.910157 3.898437-9.585938 6.738281-13.90625 1.828125-.351563 3.6875-.523438 5.546875-.515625 9.386719 0 17.066407 3.84375 17.066407 8.535156zm0 0" fill="#fff"/><path d="m8.535156 273.070312c0 123.222657 103.851563 223.828126 234.582032 230.058594h.171874c4.179688.257813 8.445313.34375 12.714844.34375 4.429688 0 8.828125-.121094 13.203125-.335937l-.320312-.007813h-.171875c-130.730469-6.230468-234.578125-106.835937-234.578125-230.058594.035156-45.355468 14.238281-89.566406 40.617187-126.464843l.019532-.015625c-10.296876-49.074219-6.601563-115.53125-.902344-133.414063-7.09375-3.28125-14.855469-4.871093-22.667969-4.636719-7.023437 0-14.027344 80.867188-2.03125 138.050782l-.019531.015625c-26.378906 36.898437-40.578125 81.109375-40.617188 126.464843zm0 0" fill="#fff"/><path d="m460.800781 8.539062c-8.53125 0-25.597656 0-51.199219 25.597657-9.910156 9.570312-20.375 18.550781-31.339843 26.890625 1.957031.777344 3.90625 1.5625 5.835937 2.390625l.074219-.097657c3.5 1.539063 7 3.160157 10.410156 4.78125l.015625.007813c14.257813-10.429687 27.820313-21.777344 40.605469-33.972656 6.207031-6.375 13.144531-12 20.671875-16.753907 2.5625-4.515624 4.300781-7.6875 4.785156-8.585937-.324218.605469-2.035156 3.757813-4.761718 8.570313 2.519531-1.5625 5.136718-2.960938 7.835937-4.191407-.941406-2.957031-1.9375-4.636719-2.933594-4.636719zm0 0" fill="#fff"/><path d="m168.609375 68.109375.011719-.007813c3.414062-1.621093 6.910156-3.242187 10.410156-4.78125 28.382812-12.027343 58.679688-18.902343 89.472656-20.300781-4.148437-.191406-8.304687-.347656-12.5-.347656-4.355468 0-8.621094.085937-12.972656.339844-28.71875 1.308593-57.015625 7.382812-83.742188 17.972656 3.128907 2.4375 6.25 4.820313 9.320313 7.125zm0 0" fill="#fff"/><path d="m467.953125 40.136719v-.019531l-.5625.894531c.179687-.289063.382813-.585938.5625-.875zm0 0" fill="#fff"/><path d="m17.070312 273.070312c.332032 35.691407 9.566407 70.738282 26.863282 101.960938 21.089844 37.175781 52.113281 67.75 89.601562 88.285156 9.296875 5.183594 18.894532 9.816406 28.734375 13.875l15.105469 5.195313 7.5625 2.570312 7.777344 1.851563 15.550781 3.675781 15.835937 2.242187c2.640626.355469 5.269532.804688 7.917969 1.082032l7.992188.367187 15.992187.761719v17.066406l-17.035156-.792968-8.515625-.40625c-2.824219-.292969-5.628906-.769532-8.445313-1.140626l-16.890624-2.40625-16.613282-3.910156-8.296875-1.996094-8.085937-2.730468-16.136719-5.5625c-10.53125-4.328125-20.796875-9.28125-30.742187-14.824219-40.261719-22.078125-73.574219-54.933594-96.207032-94.882813-18.71875-33.765624-28.699218-71.675781-29.03124975-110.28125zm0 0" fill="#fff"/><g fill="#428dff"><path d="m12.898438 315.453125c4.554687-.890625 7.636718-5.160156 7.046874-9.761719-1.710937-10.792968-2.671874-21.695312-2.875-32.621094h-17.06640575c.20312475 11.824219 1.23437475 23.621094 3.08593775 35.300782.304687 2.265625 1.527344 4.308594 3.382812 5.648437 1.855469 1.335938 4.179688 1.855469 6.425782 1.433594zm0 0"/><path d="m256.003906 512.003906v-17.066406l-15.984375-.761719-7.992187-.367187c-2.644532-.277344-5.28125-.726563-7.921875-1.082032l-15.832031-2.242187-15.554688-3.675781-7.773438-1.855469-7.5625-2.566406-15.105468-5.199219c-9.84375-4.054688-19.4375-8.691406-28.734375-13.875-37.488281-20.535156-68.515625-51.105469-89.601563-88.285156l-3.765625-7.289063c-2.289062-4.054687-7.3125-5.664062-11.53125-3.703125-2.0625.976563-3.628906 2.757813-4.324219 4.929688-.699218 2.167968-.464843 4.53125.640626 6.523437l4.074218 7.867188c22.632813 39.945312 55.949219 72.800781 96.207032 94.875 9.945312 5.546875 20.210937 10.496093 30.742187 14.828125l16.136719 5.570312 8.089844 2.730469 8.296874 1.992187 16.609376 3.910157 16.886718 2.410156c2.816406.375 5.625.84375 8.449219 1.136719l8.515625.410156zm0 0"/><path d="m27.394531 337.570312c-.613281-2.082031-2.019531-3.847656-3.914062-4.90625l-1.492188-.605468c-.546875-.171875-1.109375-.273438-1.679687-.300782-.53125-.101562-1.074219-.121093-1.613282-.0625-.566406.0625-1.128906.164063-1.683593.300782-2.183594.652344-4.03125 2.121094-5.152344 4.105468-.519531 1.039063-.839844 2.164063-.941406 3.320313-.453125 3.570313 1.464843 7.023437 4.738281 8.527344 1.042969.457031 2.167969.710937 3.308594.742187 1.121094.0625 2.242187-.101562 3.300781-.480468 2.078125-.808594 3.789063-2.355469 4.796875-4.34375.824219-2 .9375-4.21875.332031-6.296876zm0 0"/><path d="m8.535156 281.605469c-4.710937 0-8.53124975-3.820313-8.53124975-8.535157.04296875-47.121093 14.78906275-93.054687 42.18359375-131.394531 2.722656-3.847656 8.050781-4.757812 11.898438-2.035156 3.847656 2.726563 4.757812 8.054687 2.03125 11.902344-25.347657 35.457031-39 77.941406-39.046876 121.527343 0 4.714844-3.820312 8.535157-8.535156 8.535157zm0 0"/><path d="m256.003906 512.003906c-4.714844 0-8.535156-3.820312-8.535156-8.53125 0-4.714844 3.820312-8.535156 8.535156-8.535156 131.753906 0 238.929688-99.53125 238.929688-221.867188-.046875-43.585937-13.695313-86.070312-39.046875-121.527343-2.726563-3.847657-1.816407-9.175781 2.03125-11.902344 3.847656-2.722656 9.175781-1.8125 11.902343 2.035156 27.390626 38.339844 42.136719 84.273438 42.183594 131.394531 0 131.753907-114.84375 238.933594-256 238.933594zm0 0"/><path d="m368.976562 76.632812c-1.277343.003907-2.539062-.285156-3.691406-.839843-69.167968-32.785157-149.398437-32.785157-218.566406 0-2.746094 1.320312-5.992188 1.074219-8.511719-.644531s-3.929687-4.648438-3.699219-7.691407c.230469-3.039062 2.0625-5.726562 4.8125-7.046875 73.84375-35.03125 159.519532-35.03125 233.363282 0 3.59375 1.722656 5.511718 5.707032 4.625 9.589844-.886719 3.886719-4.347656 6.640625-8.332032 6.632812zm0 0"/><path d="m59.742188 187.738281c-3.234376.003907-6.195313-1.820312-7.640626-4.71875-24.417968-48.828125-20.050781-160.945312-9.683593-177.726562 1.757812-3.21875 5.113281-5.2421878 8.785156-5.28906275 9.457031 0 29.132813 0 57.230469 28.10156275 23.683594 21.394531 48.917968 41.003906 75.5 58.664062 3.875 2.632813 4.902344 7.894531 2.304687 11.792969-2.597656 3.894531-7.851562 4.96875-11.769531 2.40625-27.542969-18.246094-53.652344-38.570312-78.101562-60.796875-19.066407-19.066406-32.167969-22.398437-40.507813-22.976563-5.757813 20.519532-10.089844 114.996094 11.507813 158.191407 1.324218 2.644531 1.183593 5.785156-.371094 8.300781-1.550782 2.515625-4.296875 4.046875-7.253906 4.050781zm0 0"/><path d="m59.734375 204.808594c-2.742187-.003906-5.316406-1.324219-6.917969-3.550782-1.601562-2.226562-2.039062-5.085937-1.171875-7.6875 18.925781-56.769531 51.40625-74.542968 70.257813-80.105468-4.863282-5.695313-11.347656-12.179688-18.066406-18.894532-12.5625-11.78125-23.992188-24.714843-34.132813-38.632812-13.460937-20.179688-25.5-42.40625-26.011719-43.339844-2.238281-4.148437-.695312-9.328125 3.453125-11.570312 4.144531-2.242188 9.324219-.695313 11.566407 3.453125.117187.21875 12.183593 22.488281 25.191406 41.992187 9.546875 12.960938 20.257812 25.019532 32 36.03125 10.929687 9.667969 20.445312 20.828125 28.265625 33.148438 1.324219 2.648437 1.183593 5.789062-.371094 8.304687-1.558594 2.515625-4.304687 4.046875-7.261719 4.046875-1.78125.027344-45.566406 1.554688-68.707031 70.96875-1.160156 3.480469-4.421875 5.832032-8.09375 5.835938zm0 0"/><path d="m452.261719 187.738281c-2.957031-.003906-5.703125-1.535156-7.253907-4.050781-1.554687-2.515625-1.695312-5.65625-.371093-8.300781 21.597656-43.195313 17.265625-137.671875 11.507812-158.191407-8.335937.578126-21.441406 3.910157-40.507812 22.976563-24.449219 22.226563-50.558594 42.550781-78.101563 60.796875-3.917968 2.5625-9.171875 1.488281-11.769531-2.40625-2.597656-3.898438-1.570313-9.160156 2.304687-11.792969 26.582032-17.660156 51.816407-37.269531 75.5-58.664062 28.097657-28.10156275 47.773438-28.10156275 57.230469-28.10156275 3.671875.04687495 7.03125 2.07031275 8.785157 5.28906275 10.367187 16.785156 14.734374 128.902343-9.683594 177.730469-1.449219 2.894531-4.40625 4.71875-7.640625 4.714843zm0 0"/><path d="m452.269531 204.808594c-3.671875-.003906-6.933593-2.355469-8.09375-5.835938-23.140625-69.414062-66.921875-70.941406-68.777343-70.96875-2.9375-.042968-5.648438-1.585937-7.183594-4.09375-1.535156-2.503906-1.679688-5.621094-.382813-8.257812 7.820313-12.320313 17.339844-23.480469 28.269531-33.148438 11.742188-11.011718 22.453126-23.070312 32-36.03125 13.007813-19.503906 25.074219-41.773437 25.191407-41.992187 1.449219-2.683594 4.222656-4.3906252 7.269531-4.47656275 3.046875-.08593745 5.910156 1.46093775 7.507812 4.05859375 1.597657 2.597656 1.691407 5.851562.242188 8.535156-.511719.9375-12.550781 23.160156-26.011719 43.339844-10.140625 13.917969-21.570312 26.851562-34.132812 38.632812-6.714844 6.714844-13.199219 13.199219-18.066407 18.894532 18.851563 5.5625 51.335938 23.335937 70.257813 80.105468.867187 2.601563.429687 5.460938-1.171875 7.6875-1.601562 2.226563-4.175781 3.546876-6.917969 3.550782zm0 0"/><path d="m256.003906 366.941406c-4.855468.019532-9.503906-1.933594-12.886718-5.414062l-33.808594-35.34375c-4.484375-4.550782-5.757813-11.367188-3.226563-17.230469 2.828125-6.34375 9.167969-10.386719 16.109375-10.277344h67.617188c6.945312-.113281 13.289062 3.933594 16.113281 10.277344 2.535156 5.863281 1.257813 12.675781-3.222656 17.226563l-33.820313 35.359374c-3.378906 3.472657-8.027344 5.425782-12.875 5.402344zm-33.070312-51.203125 32.527344 34c.339843.175781.742187.175781 1.082031.003907l32.910156-34.410157zm0 0"/><path d="m190.34375 452.230469c-7.640625 0-17.957031-3.5-26.992188-18.519531-30.15625-50.140626 16.191407-103.578126 44.910157-124.828126 3.789062-2.683593 9.027343-1.847656 11.789062 1.882813 2.761719 3.734375 2.035157 8.988281-1.636719 11.828125-.707031.527344-70.148437 52.929688-40.441406 102.320312 4.285156 7.113282 8.84375 10.601563 12.984375 10.222657 15.851563-1.195313 40.363281-41.183594 56.382813-80.066407 1.796875-4.359374 6.785156-6.4375 11.144531-4.644531 4.359375 1.796875 6.4375 6.785157 4.644531 11.144531-10.902344 26.453126-39.625 88.226563-70.886718 90.585938-.605469.046875-1.238282.074219-1.898438.074219zm0 0"/><path d="m320.894531 452.230469c-.660156 0-1.292969-.027344-1.910156-.078125-31.289063-2.359375-59.988281-64.136719-70.875-90.582032-1.160156-2.820312-.726563-6.042968 1.132813-8.460937 1.863281-2.414063 4.871093-3.652344 7.894531-3.25 3.023437.40625 5.597656 2.390625 6.761719 5.210937 16 38.878907 40.507812 78.867188 56.375 80.066407 4.332031.265625 8.707031-3.109375 12.980468-10.214844 29.71875-49.398437-39.722656-101.804687-40.429687-102.332031-3.671875-2.839844-4.402344-8.09375-1.636719-11.824219 2.761719-3.734375 8-4.570313 11.789062-1.886719 28.71875 21.25 75.066407 74.695313 44.902344 124.839844-9.027344 15.015625-19.34375 18.511719-26.984375 18.511719zm0 0"/><path d="m157.683594 290.066406c-8.300782-.019531-16.488282-1.9375-23.933594-5.613281-30.273438-14.671875-33.316406-48.796875-30.699219-64.785156.476563-2.875 2.382813-5.3125 5.058594-6.464844 24.757813-10.636719 46.027344-11.195313 63.199219-1.652344 27.375 15.21875 32.976562 50.363281 33.203125 51.847657.382812 2.582031-.429688 5.195312-2.210938 7.101562-11.746093 12.097656-27.757812 19.121094-44.617187 19.566406zm-38.199219-63.0625c-.433594 9.707032 1 32.050782 21.710937 42.089844 15.28125 6.855469 33.175782 3.949219 45.507813-7.386719-3.039063-14.402343-11.5625-27.058593-23.765625-35.285156-11.328125-6.257813-25.925781-6.042969-43.453125.585937zm0 0"/><path d="m354.320312 290.066406c-16.859374-.445312-32.871093-7.46875-44.617187-19.566406-1.78125-1.90625-2.59375-4.519531-2.210937-7.101562.226562-1.484376 5.828124-36.628907 33.203124-51.847657 17.191407-9.546875 38.457032-8.980469 63.199219 1.652344 2.675781 1.152344 4.582031 3.589844 5.058594 6.464844 2.617187 15.988281-.429687 50.113281-30.710937 64.785156-7.441407 3.671875-15.625 5.59375-23.921876 5.613281zm-29.035156-28.363281c12.328125 11.347656 30.230469 14.253906 45.515625 7.394531 20.609375-9.980468 22.085938-32.429687 21.691407-42.097656-17.566407-6.644531-32.183594-6.828125-43.507813-.53125-12.195313 8.203125-20.699219 20.847656-23.699219 35.234375zm0 0"/><path d="m196.550781 273.207031c-4.730469.007813-8.585937-3.800781-8.632812-8.53125-.023438-2.253906.855469-4.421875 2.441406-6.023437 1.582031-1.605469 3.738281-2.507813 5.992187-2.511719 4.457032.035156 8.746094-1.703125 11.917969-4.832031s4.972657-7.390625 5-11.847656l.066407-30.0625c-.011719-21.011719-11.011719-40.488282-29-51.347657l-9.441407-5.664062c-4.039062-2.425781-5.34375-7.664063-2.921875-11.703125 2.425782-4.039063 7.664063-5.351563 11.703125-2.929688l9.441407 5.664063c23.128906 13.964843 37.269531 39.003906 37.285156 66.019531l-.066406 30.0625c-.066407 18.617188-15.164063 33.683594-33.785157 33.707031zm0 0"/><path d="m315.933594 273.207031c-18.613282-.03125-33.707032-15.089843-33.78125-33.707031l-.066406-30.054688c.015624-27.019531 14.15625-52.058593 37.28125-66.027343l9.441406-5.660157c4.042968-2.421874 9.28125-1.113281 11.703125 2.925782 2.425781 4.039062 1.117187 9.277344-2.917969 11.707031l-9.441406 5.660156c-17.988282 10.863281-28.988282 30.339844-29 51.355469l.066406 30.054688c.035156 9.210937 7.503906 16.664062 16.714844 16.683593 4.714844 0 8.535156 3.820313 8.535156 8.53125 0 4.714844-3.820312 8.535157-8.535156 8.535157zm0 0"/><path d="m256.003906 281.605469c-4.714844 0-8.535156-3.820313-8.535156-8.535157v-68.265624c0-4.714844 3.820312-8.535157 8.535156-8.535157 4.710938 0 8.53125 3.820313 8.53125 8.535157v68.265624c0 4.714844-3.820312 8.535157-8.53125 8.535157zm0 0"/><path d="m256.003906 443.738281c-15.222656-.398437-29.597656-7.09375-39.695312-18.492187-3.265625-3.402344-3.152344-8.804688.246094-12.070313 3.402343-3.265625 8.808593-3.15625 12.074218.246094 6.503906 8.195313 16.351563 13.039063 26.816406 13.1875 10.464844.148437 20.445313-4.410156 27.179688-12.421875 2.332031-2.667969 6.074219-3.617188 9.394531-2.378906 3.324219 1.238281 5.527344 4.40625 5.539063 7.949218.003906 2.257813-.871094 4.429688-2.429688 6.0625-10.042968 11.070313-24.183594 17.546876-39.125 17.917969zm0 0"/></g></svg>