<svg height="512pt" viewBox="-11 0 512 512.00893" width="512pt" xmlns="http://www.w3.org/2000/svg"><path d="m329.871094 458.25c-18.945313 25.855469-42.496094 45.226562-85.078125 45.226562s-66.132813-19.371093-85.078125-45.226562l83.179687-92.253906zm0 0" fill="#a4c2f7"/><path d="m476.558594 21.597656c-1.511719-5.785156-5.898438-10.382812-11.605469-12.171875-5.703125-1.785156-11.929687-.507812-16.46875 3.382813-31.519531 27.167968-65.421875 51.445312-101.292969 72.535156-42.667968 25.597656-102.398437 25.597656-102.398437 25.597656s-59.734375 0-102.402344-25.597656c-35.871094-21.089844-69.769531-45.367188-101.289063-72.535156-2.703124-2.347656-6.078124-3.78125-9.644531-4.09375-8.53125-1.035156-16.472656 4.515625-18.429687 12.882812-6.472656 35.222656-6.011719 71.367188 1.363281 106.410156 16.554687 74.582032 33.109375 68.695313 34.050781 122.964844h.082032c0 39.511719 23.210937 89.859375 55.128906 124.503906l25.257812 54.953126c5.894532 13.195312 17.078125 23.296874 30.804688 27.820312 5.144531 1.710938 10.535156 2.578125 15.957031 2.558594h17.921875c28.265625-.023438 51.175781-22.933594 51.199219-51.199219.023437 28.265625 22.929687 51.175781 51.199219 51.199219h17.917968c5.425782.019531 10.8125-.847656 15.960938-2.558594 13.722656-4.523438 24.90625-14.625 30.804687-27.820312l25.257813-54.953126c31.914062-34.644531 55.125-84.992187 55.125-124.503906h.085937c.9375-54.269531 17.492188-48.382812 34.046875-122.964844 7.375-35.042968 7.839844-71.1875 1.367188-106.410156zm0 0" fill="#a56a43"/><path d="m133.773438 151.988281c-23.925782 15.851563-46.605469 33.511719-67.839844 52.820313-12.136719 12.191406-18.472656 28.996094-17.410156 46.164062h-.082032c-.941406-54.269531-17.496094-48.382812-34.050781-122.964844-7.375-35.042968-7.835937-71.1875-1.363281-106.410156 1.957031-8.367187 9.898437-13.917968 18.429687-12.882812.597657 3.324218 9.730469 51.878906 42.667969 76.628906 33.367188 25.085938 58.625 41.898438 59.648438 66.644531zm0 0" fill="#a4c2f7"/><path d="m423.652344 204.808594c12.132812 12.191406 18.46875 28.996094 17.40625 46.164062 0 39.511719-23.210938 89.859375-55.125 124.503906l-25.257813 54.953126c-5.898437 13.195312-17.082031 23.296874-30.804687 27.820312-5.148438 1.710938-10.535156 2.578125-15.960938 2.558594h-17.917968c-28.269532-.023438-51.175782-22.933594-51.199219-51.199219-.023438 28.265625-22.933594 51.175781-51.199219 51.199219h-17.921875c-5.421875.019531-10.8125-.847656-15.957031-2.558594-13.726563-4.523438-24.910156-14.625-30.804688-27.820312l-25.257812-54.953126c-31.917969-34.644531-55.128906-84.992187-55.128906-124.503906-1.0625-17.167968 5.273437-33.972656 17.410156-46.164062 21.234375-19.308594 43.914062-36.96875 67.839844-52.820313-1.023438-24.746093-26.28125-41.558593-59.648438-66.644531-32.9375-24.75-42.070312-73.304688-42.667969-76.628906 3.566407.3125 6.941407 1.746094 9.644531 4.09375 31.519532 27.167968 65.417969 51.445312 101.289063 72.535156 42.667969 25.597656 102.402344 25.597656 102.402344 25.597656s59.730469 0 102.398437-25.597656c35.871094-21.089844 69.773438-45.367188 101.292969-72.535156 2.699219-2.347656 6.074219-3.78125 9.640625-4.09375-.597656 3.324218-9.726562 51.878906-42.667969 76.628906-33.363281 25.085938-58.621093 41.898438-59.644531 66.644531 23.921875 15.851563 46.601562 33.511719 67.839844 52.820313zm0 0" fill="#e8edfc"/><path d="m423.652344 204.808594c12.132812 12.191406 18.46875 28.996094 17.40625 46.164062 0 39.511719-23.210938 89.859375-55.125 124.503906l-25.257813 54.953126c-5.898437 13.195312-17.082031 23.296874-30.804687 27.820312-5.148438 1.710938-10.535156 2.578125-15.960938 2.558594h-17.917968c-1.167969.03125-2.339844-.027344-3.5-.171875 4.007812-.316407 7.960937-1.117188 11.777343-2.386719 13.726563-4.523438 24.910157-14.625 30.804688-27.820312l25.257812-54.953126c31.914063-34.644531 55.125-84.992187 55.125-124.503906 1.066407-17.167968-5.269531-33.972656-17.40625-46.164062-21.234375-19.308594-43.914062-36.96875-67.839843-52.820313 1.023437-24.746093 26.28125-41.558593 59.648437-66.644531 17.097656-14.242188 29.769531-33.070312 36.523437-54.273438 7.25-5.71875 14.589844-11.777343 22.101563-18.261718 2.699219-2.347656 6.074219-3.78125 9.640625-4.09375-.597656 3.324218-9.726562 51.878906-42.667969 76.628906-33.363281 25.085938-58.621093 41.898438-59.644531 66.644531 23.921875 15.851563 46.601562 33.511719 67.839844 52.820313zm0 0" fill="#cad9fc"/><path d="m475.191406 128.007812c-16.554687 74.582032-33.109375 68.695313-34.046875 122.964844h-.085937c1.0625-17.167968-5.273438-33.972656-17.40625-46.164062h-.085938v-.085938c-21.226562-19.257812-43.875-36.886718-67.753906-52.734375 1.023438-24.746093 26.28125-41.558593 59.644531-66.644531 17.503907-14.648438 30.371094-34.066406 37.035157-55.894531 2.367187-6.769531 4.25-13.699219 5.632812-20.734375 8.53125-1.035156 16.472656 4.515625 18.433594 12.882812 6.472656 35.222656 6.007812 71.367188-1.367188 106.410156zm0 0" fill="#7facfa"/><path d="m449.59375 128.007812c-5.761719 26.472657-14.492188 52.207032-26.027344 76.714844-21.226562-19.257812-43.875-36.886718-67.753906-52.734375 1.023438-24.746093 26.28125-41.558593 59.644531-66.644531 17.503907-14.648438 30.371094-34.066406 37.035157-55.894531 4.789062 32.769531 3.808593 66.128906-2.898438 98.558593zm0 0" fill="#a4c2f7"/><path d="m285.328125 371.011719-33.839844 35.78125c-1.761719 1.800781-4.175781 2.816406-6.699219 2.816406-2.519531 0-4.933593-1.015625-6.699218-2.816406l-33.832032-35.78125c-1.691406-1.730469-2.433593-4.179688-1.992187-6.5625v-.074219c.792969-3.3125 3.480469-5.835938 6.839844-6.417969.613281-.085937 1.230469-.136719 1.851562-.144531h67.679688c.621093.007812 1.238281.058594 1.851562.144531 3.355469.582031 6.042969 3.105469 6.839844 6.417969v.074219c.441406 2.382812-.304687 4.832031-2 6.5625zm0 0" fill="#cad9fc"/><path d="m320.550781 297.949219c-10.078125-.1875-19.910156-3.167969-28.398437-8.613281-1.734375-1.195313-2.800782-3.136719-2.886719-5.242188-.429687-16.085938 5.832031-31.632812 17.292969-42.933594 11.792968-10.078125 28.375-13.09375 49.308594-8.9375 2.257812.445313 4.128906 2.023438 4.949218 4.171875 7.464844 18.800781 1.722656 40.273438-14.136718 52.835938-7.53125 5.660156-16.703126 8.722656-26.128907 8.71875zm0 0" fill="#fff"/><path d="m199.339844 272.488281c-1.582032-12.042969-7.359375-23.144531-16.3125-31.355469-6.027344-5.050781-13.296875-8.398437-21.054688-9.691406-9.390625-1.582031-18.996094-1.308594-28.28125.800782-2.246094.453124-4.109375 2.011718-4.949218 4.144531-7.449219 18.824219-1.691407 40.304687 14.175781 52.878906 3.214843 2.355469 6.71875 4.289063 10.425781 5.75 4.046875 1.570313 8.304688 2.519531 12.636719 2.804687.308593.058594.625.082032.9375.070313h.269531c.621094.054687 1.246094.078125 1.871094.066406 10.082031-.199219 19.917968-3.183593 28.410156-8.625 1.683594-1.226562 2.738281-3.136719 2.875-5.214843.027344-3.898438-.308594-7.792969-1.003906-11.628907zm0 0" fill="#fff"/><path d="m209.378906 274.78125c-4.660156 18.921875-21.558594 32.273438-41.046875 32.425781h-.339843c-.398438.015625-.800782-.011719-1.195313-.082031-5.5625-.085938-11.050781-1.304688-16.128906-3.585938-17.335938-7.695312-27.503907-25.914062-24.953125-44.707031 2.546875-18.792969 17.203125-33.644531 35.960937-36.445312.855469.171875 1.707031.34375 2.5625.597656 4.015625.839844 7.933594 2.097656 11.691407 3.753906 4.550781 2.09375 8.796874 4.792969 12.628906 8.023438 11.425781 10.476562 18.800781 24.648437 20.820312 40.019531zm0 0" fill="#fff"/><path d="m185.058594 264.542969c0 23.550781-7.679688 42.664062-17.066406 42.664062-9.386719 0-17.066407-19.113281-17.066407-42.664062 0-20.308594 5.71875-37.292969 13.3125-41.558594 4.015625.839844 7.933594 2.097656 11.691407 3.753906 6.648437 11.449219 9.820312 24.582031 9.128906 37.804688zm0 0" fill="#7facfa"/><path d="m364.257812 264.542969c.003907 16.863281-9.929687 32.148437-25.34375 38.996093-5.074218 2.28125-10.5625 3.5-16.128906 3.585938-.390625.070312-.792968.097656-1.191406.082031h-.34375c-19.484375-.152343-36.386719-13.503906-41.042969-32.425781 1.097657-7.007812 3.136719-13.839844 6.058594-20.308594 2.632813-5.691406 6.144531-10.933594 10.410156-15.53125 1.363281-1.449218 2.816407-2.816406 4.351563-4.179687 3.828125-3.230469 8.078125-5.929688 12.628906-8.023438 3.753906-1.65625 7.671875-2.914062 11.691406-3.753906.851563-.253906 1.707032-.425781 2.558594-.597656 20.894531 3.089843 36.367188 21.03125 36.351562 42.15625zm0 0" fill="#fff"/><path d="m304.523438 264.542969c0 23.550781 7.683593 42.664062 17.070312 42.664062s17.066406-19.113281 17.066406-42.664062c0-20.308594-5.71875-37.292969-13.3125-41.558594-4.019531.839844-7.9375 2.097656-11.691406 3.753906-6.648438 11.449219-9.824219 24.582031-9.132812 37.804688zm0 0" fill="#7facfa"/><path d="m159.457031 247.476562c0-4.714843-7.640625-8.535156-17.066406-8.535156s-17.066406 3.820313-17.066406 8.535156c0 4.710938 7.640625 8.53125 17.066406 8.53125s17.066406-3.820312 17.066406-8.53125zm0 0" fill="#fff"/><path d="m321.59375 247.476562c0 4.691407-7.683594 8.53125-17.070312 8.53125-3.304688.054688-6.597657-.46875-9.726563-1.535156 2.632813-5.691406 6.148437-10.933594 10.410156-15.53125 9.046875.171875 16.386719 3.925782 16.386719 8.535156zm0 0" fill="#fff"/><path d="m31.457031 8.714844c-8.53125-1.035156-16.472656 4.515625-18.429687 12.882812-6.472656 35.222656-6.011719 71.367188 1.363281 106.410156 16.554687 74.582032 33.109375 68.695313 34.050781 122.964844h.082032c0 39.511719 23.210937 89.859375 55.128906 124.503906l25.257812 54.953126c5.894532 13.195312 17.078125 23.296874 30.804688 27.820312 18.945312 25.855469 42.496094 45.226562 85.078125 45.226562 4.277343-.027343 8.546875-.277343 12.800781-.75-34.613281-3.539062-55.34375-21.359374-72.277344-44.476562-13.726562-4.523438-24.910156-14.625-30.808594-27.820312l-25.257812-54.953126c-31.914062-34.644531-55.125-84.992187-55.125-124.503906h-.085938c-.9375-54.269531-17.492187-48.382812-34.046874-122.964844-7.375-35.042968-7.839844-71.1875-1.367188-106.410156.675781-2.800781 2.054688-5.382812 4.011719-7.496094-.511719-.4375-1.015625-.847656-1.535157-1.292968-2.703124-2.347656-6.078124-3.78125-9.644531-4.09375zm0 0" fill="#fff"/><path d="m270.390625 110.941406s59.734375 0 102.402344-25.597656c28.542969-16.859375 55.867187-35.695312 81.78125-56.367188 2.488281-1.980468 4.976562-3.976562 7.488281-6.042968 3.460938-2.855469 6.957031-5.800782 10.484375-8.832032-6.398437-6.761718-16.976563-7.332031-24.0625-1.292968-4.058594 3.5-8.054687 6.851562-12.019531 10.125-2.511719 2.066406-5.003906 4.0625-7.488282 6.042968-25.914062 20.671876-53.242187 39.507813-81.785156 56.367188-30.546875 18.328125-69.742187 23.515625-89.597656 24.992188 7.871094.585937 12.796875.605468 12.796875.605468zm0 0" fill="#fff"/><path d="m57.058594 250.972656c.550781 17.472656 4.21875 34.703125 10.828125 50.886719 9.75 24.992187 24 47.984375 42.039062 67.839844l-12.550781 11.5625c-19.488281-21.425781-34.875-46.246094-45.398438-73.226563-7.382812-18.148437-11.445312-37.476562-11.984374-57.0625zm0 0" fill="#fff"/><g fill="#428dff"><path d="m55.695312 292.871094c4.363282-1.390625 6.921876-5.902344 5.882813-10.363282-2.816406-10.28125-4.335937-20.875-4.519531-31.535156h-17.066406c.179687 12.125 1.886718 24.175782 5.078124 35.871094.539063 2.25 1.988282 4.175781 4.003907 5.320312 2.011719 1.140626 4.410156 1.398438 6.621093.707032zm0 0"/><path d="m97.375 381.257812 12.550781-11.5625c-6.011719-6.636718-11.625-13.628906-16.804687-20.9375l-4.613282-6.800781c-2.570312-3.851562-7.722656-4.992187-11.679687-2.582031-1.953125 1.203125-3.332031 3.148438-3.828125 5.386719s-.0625 4.585937 1.199219 6.5l4.964843 7.320312c5.609376 7.917969 11.691407 15.488281 18.210938 22.675781zm0 0"/><path d="m72.675781 313.183594c-.964843-1.964844-2.601562-3.515625-4.617187-4.367188l-1.566406-.425781c-.566407-.105469-1.140626-.140625-1.714844-.105469-.542969-.035156-1.089844.007813-1.621094.128906-.558594.125-1.105469.289063-1.640625.492188-2.085937.882812-3.742187 2.554688-4.609375 4.644531-1.628906 4.550781.65625 9.570313 5.15625 11.328125 1.070312.359375 2.203125.492188 3.328125.390625 1.121094-.066406 2.214844-.355469 3.21875-.847656 1.984375-1.054687 3.523437-2.785156 4.332031-4.882813.722656-2.074218.628906-4.347656-.265625-6.355468zm0 0"/><path d="m48.523438 259.507812c-4.710938 0-8.53125-3.820312-8.53125-8.535156-1.09375-19.578125 6.261718-38.683594 20.199218-52.476562 21.585938-19.601563 44.628906-37.539063 68.925782-53.65625 2.554687-1.667969 5.804687-1.84375 8.523437-.464844 2.71875 1.382812 4.496094 4.109375 4.660156 7.152344.164063 3.046875-1.308593 5.949218-3.867187 7.613281-23.542969 15.621094-45.867188 33.007813-66.78125 52-10.375 10.558594-15.691406 25.074219-14.59375 39.832031 0 4.714844-3.820313 8.535156-8.535156 8.535156zm0 0"/><path d="m385.933594 384.007812c-3.386719 0-6.457032-2.003906-7.816406-5.105468-1.359376-3.105469-.753907-6.71875 1.542968-9.210938 31.125-33.785156 52.863282-82.609375 52.863282-118.71875 1.101562-14.769531-4.226563-29.292968-14.613282-39.847656-20.910156-18.992188-43.226562-36.371094-66.757812-51.988281-2.558594-1.664063-4.035156-4.566407-3.871094-7.609375.164062-3.046875 1.941406-5.773438 4.660156-7.15625 2.722656-1.378906 5.972656-1.203125 8.527344.464844 24.289062 16.113281 47.320312 34.042968 68.898438 53.640624 13.953124 13.792969 21.316406 32.910157 20.226562 52.496094 0 40.667969-23.058594 93.027344-57.386719 130.285156-1.613281 1.753907-3.886719 2.753907-6.273437 2.75zm0 0"/><path d="m244.792969 512.007812c-49.875 0-75.34375-26.03125-91.960938-48.714843-2.6875-3.804688-1.832031-9.0625 1.925781-11.8125 3.757813-2.753907 9.027344-1.984375 11.84375 1.730469 15.882813 21.671874 36.339844 41.730468 78.191407 41.730468 41.847656 0 62.308593-20.058594 78.191406-41.730468 2.8125-3.714844 8.085937-4.484376 11.84375-1.730469 3.757813 2.75 4.613281 8.007812 1.921875 11.8125-16.617188 22.683593-42.082031 48.714843-91.957031 48.714843zm0 0"/><path d="m48.523438 264.542969c-4.710938 0-8.53125-3.820313-8.53125-8.535157 1.101562-20.515624-3.105469-40.96875-12.214844-59.386718-9.679688-21.386719-16.960938-43.777344-21.71875-66.761719-7.597656-36.292969-8.046875-73.71875-1.324219-110.183594 1.984375-8.667969 8.378906-15.65625 16.839844-18.390625 8.660156-2.835937 18.171875-.902344 25.042969 5.082032 31.203124 26.800781 64.722656 50.78125 100.167968 71.660156 40.175782 24.101562 97.433594 24.382812 98.007813 24.382812 4.710937 0 8.53125 3.820313 8.53125 8.53125 0 4.714844-3.820313 8.535156-8.53125 8.535156-2.535157 0-62.609375-.304687-106.792969-26.816406-36.269531-21.371094-70.570312-45.914062-102.5-73.34375-2.363281-2.070312-5.636719-2.753906-8.632812-1.808594-2.792969.894532-4.894532 3.207032-5.515626 6.070313-6.21875 33.957031-5.75 68.800781 1.375 102.582031 4.527344 21.902344 11.460938 43.238282 20.679688 63.617188 10.105469 20.558594 14.804688 43.351562 13.652344 66.230468 0 4.714844-3.820313 8.535157-8.535156 8.535157zm0 0"/><path d="m133.765625 160.519531c-4.570313-.003906-8.324219-3.609375-8.515625-8.179687-.773438-18.746094-20.800781-33.695313-48.515625-54.390625l-7.734375-5.789063c-35.042969-26.316406-44.925781-76.316406-45.941406-81.933594-.089844-.5-.132813-1.007812-.132813-1.511718-.007812-4.730469 3.800781-8.582032 8.53125-8.621094 4.371094-.0351562 8.046875 3.257812 8.492188 7.605469 1.058593 5.460937 10.265625 49.007812 39.300781 70.820312l7.691406 5.753907c30.308594 22.628906 54.25 40.503906 55.359375 67.359374.09375 2.261719-.714843 4.46875-2.25 6.132813-1.53125 1.664063-3.664062 2.652344-5.925781 2.746094zm0 0"/><path d="m441.058594 264.542969c-4.710938 0-8.535156-3.820313-8.535156-8.535157-1.152344-22.878906 3.546874-45.671874 13.65625-66.230468 9.21875-20.378906 16.152343-41.714844 20.683593-63.617188 7.125-33.78125 7.589844-68.625 1.375-102.585937-.625-2.859375-2.726562-5.171875-5.519531-6.066407-2.996094-.945312-6.265625-.257812-8.632812 1.808594-31.929688 27.429688-66.230469 51.972656-102.5 73.34375-44.1875 26.511719-104.261719 26.816406-106.792969 26.816406-3.050781 0-5.867188-1.625-7.394531-4.265624-1.523438-2.636719-1.527344-5.890626-.003907-8.53125 1.523438-2.640626 4.339844-4.269532 7.390625-4.269532.574219 0 57.949219-.34375 98.015625-24.382812 35.441407-20.878906 68.960938-44.859375 100.164063-71.660156 6.871094-5.988282 16.382812-7.917969 25.042968-5.082032 8.460938 2.734375 14.855469 9.71875 16.84375 18.386719 6.722657 36.464844 6.273438 73.894531-1.324218 110.1875-4.757813 22.984375-12.042969 45.375-21.71875 66.761719-9.109375 18.417968-13.316406 38.871094-12.214844 59.386718 0 2.265626-.902344 4.433594-2.5 6.035157-1.601562 1.601562-3.773438 2.5-6.035156 2.5zm0 0"/><path d="m355.816406 160.519531-.355468-.007812c-2.261719-.09375-4.394532-1.078125-5.929688-2.746094-1.53125-1.664063-2.339844-3.871094-2.246094-6.132813 1.109375-26.855468 25.046875-44.730468 55.355469-67.359374l7.691406-5.753907c29.828125-22.402343 38.734375-67.75 39.367188-71.179687.660156-4.148438 4.222656-7.214844 8.425781-7.246094 2.253906-.0195312 4.425781.859375 6.027344 2.449219 1.601562 1.585937 2.503906 3.746093 2.507812 6 0 .5625-.042968 1.125-.132812 1.683593-1.019532 5.617188-10.902344 55.617188-45.945313 81.9375l-7.730469 5.785157c-27.71875 20.695312-47.742187 35.648437-48.519531 54.394531-.1875 4.566406-3.945312 8.171875-8.515625 8.175781zm0 0"/><path d="m244.792969 418.140625c-4.847657.023437-9.496094-1.929687-12.875-5.402344l-33.816407-35.355469c-4.484374-4.550781-5.761718-11.363281-3.226562-17.226562 2.824219-6.34375 9.164062-10.390625 16.109375-10.28125h67.617187c6.945313-.109375 13.285157 3.933594 16.109376 10.28125 2.535156 5.859375 1.257812 12.675781-3.222657 17.222656l-33.816406 35.363282c-3.382813 3.472656-8.03125 5.421874-12.878906 5.398437zm-33.066407-51.199219 32.523438 34.003906c.339844.175782.742188.175782 1.082031 0l32.910157-34.410156zm0 0"/><path d="m193.59375 469.34375h-17.921875c-6.351563.023438-12.664063-.992188-18.6875-3.007812-15.980469-5.289063-29-17.058594-35.867187-32.429688l-25.214844-54.867188c-1.382813-2.785156-1.140625-6.101562.632812-8.65625 1.769532-2.554687 4.792969-3.941406 7.882813-3.625 3.09375.320313 5.769531 2.292969 6.984375 5.15625l25.257812 54.953126c4.914063 11.035156 14.253906 19.484374 25.726563 23.28125 4.285156 1.417968 8.769531 2.136718 13.285156 2.128906h17.921875c23.550781-.03125 42.636719-19.117188 42.664062-42.667969 0-4.714844 3.820313-8.535156 8.535157-8.535156 4.710937 0 8.53125 3.820312 8.53125 8.535156-.035157 32.972656-26.757813 59.695313-59.730469 59.734375zm0 0"/><path d="m313.910156 469.34375h-17.917968c-32.972657-.039062-59.695313-26.761719-59.734376-59.734375 0-4.714844 3.820313-8.535156 8.535157-8.535156 4.710937 0 8.53125 3.820312 8.53125 8.535156.027343 23.550781 19.113281 42.636719 42.667969 42.667969h17.917968c4.496094.011718 8.960938-.699219 13.230469-2.109375 11.464844-3.769531 20.8125-12.195313 25.75-23.210938l25.296875-55.039062c1.214844-2.863281 3.890625-4.835938 6.984375-5.15625 3.089844-.316407 6.109375 1.070312 7.882813 3.625 1.773437 2.554687 2.015624 5.871093.632812 8.65625l-25.257812 54.953125c-6.886719 15.351562-19.914063 27.097656-35.894532 32.359375-6.003906 2.003906-12.292968 3.015625-18.625 2.988281zm0 0"/><path d="m318.890625 307.292969c-12.871094-.238281-25.421875-4.042969-36.257813-10.996094-2.210937-1.527344-3.574218-4.003906-3.683593-6.691406-.058594-1.417969-1.109375-34.992188 22.074219-54.816407 15.058593-12.867187 36.226562-16.714843 62.953124-11.410156 2.878907.570313 5.265626 2.582032 6.3125 5.328125 5.601563 14.675781 9.035157 47.660157-18.046874 67.453125-9.617188 7.230469-21.320313 11.136719-33.351563 11.132813zm-22.765625-22.855469c14.472656 8.207031 32.367188 7.410156 46.050781-2.0625 12.945313-10.230469 18.292969-27.359375 13.464844-43.140625-18.875-2.875-33.515625-.027344-43.527344 8.523437-9.839843 9.71875-15.566406 22.851563-15.988281 36.675782zm0 0"/><path d="m287.476562 375.476562c-4.714843 0-8.535156-3.820312-8.535156-8.535156v-77.328125c0-4.714843 3.820313-8.535156 8.535156-8.535156 4.710938 0 8.53125 3.820313 8.53125 8.535156v77.328125c0 4.714844-3.820312 8.535156-8.53125 8.535156zm0 0"/><path d="m170.691406 307.292969c-12.027344.003906-23.734375-3.902344-33.347656-11.132813-27.085938-19.792968-23.652344-52.78125-18.050781-67.457031 1.046875-2.746094 3.433593-4.757813 6.3125-5.328125 26.726562-5.304688 47.894531-1.453125 62.953125 11.410156 23.183594 19.824219 22.132812 53.394532 22.074218 54.816406-.109374 2.6875-1.472656 5.164063-3.683593 6.691407-10.835938 6.953125-23.386719 10.761719-36.257813 11zm-36.746094-68.058594c-4.828124 15.78125.515626 32.910156 13.464844 43.140625 13.691406 9.414062 31.546875 10.207031 46.023438 2.050781-.457032-13.847656-6.199219-26.992187-16.050782-36.734375-9.988281-8.503906-24.609374-11.332031-43.4375-8.457031zm0 0"/><path d="m202.109375 375.476562c-4.714844 0-8.535156-3.820312-8.535156-8.535156v-77.328125c0-4.714843 3.820312-8.535156 8.535156-8.535156 4.710937 0 8.53125 3.820313 8.53125 8.535156v77.328125c0 4.714844-3.820313 8.535156-8.53125 8.535156zm0 0"/></g></svg>