<svg height="512pt" viewBox="0 0 512 512.00418" width="512pt" xmlns="http://www.w3.org/2000/svg"><path d="m503.46875 273.070312c0 127.234376-110.761719 230.402344-247.464844 230.402344-4.269531 0-8.535156-.085937-12.714844-.34375h-.171874c-130.730469-6.230468-234.582032-106.835937-234.582032-230.058594.039063-45.355468 14.238282-89.566406 40.617188-126.464843l93.867187-78.503907c17.628907-9.382812 36.425781-16.386718 55.894531-20.824218 4.4375-.9375 9.128907-1.707032 14.164063-2.386719 7.597656-.941406 19.117187 6.058594 29.355469 10.75 4.191406 2.289063 8.8125 3.683594 13.570312 4.097656 7.335938 0 19.027344-8.621093 28.671875-12.972656 3.050781-1.601563 6.449219-2.421875 9.898438-2.386719 26.0625 3.203125 51.300781 11.25 74.410156 23.722656l93.867187 78.503907c26.378907 36.898437 40.578126 81.109375 40.617188 126.464843zm0 0" fill="#cad9fc"/><path d="m477.867188 273.070312c0 123.222657-103.847657 223.828126-234.578126 230.058594h-.171874c-130.730469-6.230468-234.582032-106.835937-234.582032-230.058594.039063-45.355468 14.238282-89.566406 40.617188-126.464843l93.867187-78.503907c17.628907-9.382812 36.425781-16.386718 55.894531-20.824218 10.667969 4.183594 23.210938 12.460937 31.488282 12.460937 4.257812-.488281 8.359375-1.886719 12.03125-4.097656 4.191406 2.289063 8.8125 3.683594 13.570312 4.097656 7.335938 0 19.027344-8.621093 28.671875-12.972656 20.441407 4.429687 40.191407 11.605469 58.707031 21.335937l93.867188 78.503907c26.378906 36.898437 40.582031 81.109375 40.617188 126.464843zm0 0" fill="#e8edfc"/><path d="m299.265625 419.589844c-10.578125 12.953125-26.546875 20.289062-43.261719 19.882812-16.824218.414063-32.882812-7.03125-43.4375-20.140625l22.890625-52.078125 35.082031-6.320312 44.878907 30.976562zm0 0" fill="#a4c2f7"/><path d="m256.003906 174.9375c51.199219 0 42.664063 102.398438 42.664063 128 0 26.984375 42.667969 25.601562 68.265625 42.667969 40.167968 26.777343 17.070312 85.332031-34.132813 85.332031-51.199219 0-42.664062-51.199219-76.796875-51.199219-34.136718 0-25.601562 51.199219-76.800781 51.199219s-74.300781-58.554688-34.132813-85.332031c25.597657-17.066407 68.265626-15.683594 68.265626-42.667969 0-25.601562-8.535157-128 42.667968-128zm0 0" fill="#cad9fc"/><path d="m179.46875 264.6875c-2.421875-15.570312-10.382812-29.742188-22.425781-39.90625-3.140625-2.496094-6.585938-4.578125-10.253907-6.199219-15.128906-6.140625-31.878906-7.050781-47.582031-2.582031-2.222656.480469-4.085937 1.984375-5.015625 4.058594-8.898437 20.109375-2.570312 43.699218 15.195313 56.65625 3.027343 2.347656 6.292969 4.375 9.738281 6.050781 8.089844 3.917969 16.976562 5.914063 25.964844 5.824219 6.480468-.027344 12.925781-.894532 19.179687-2.582032.042969-.039062.09375-.066406.148438-.070312 4.125-1.015625 8.148437-2.398438 12.023437-4.132812 2.628906-1.226563 4.28125-3.890626 4.207032-6.789063-.105469-3.46875-.5-6.921875-1.179688-10.328125zm0 0" fill="#fff"/><path d="m417.820312 220.054688c-.933593-2.070313-2.796874-3.578126-5.019531-4.054688-24.050781-5.464844-43.453125-2.511719-57.84375 8.777344-3.167969 2.460937-6.039062 5.28125-8.554687 8.410156-4.894532 6.167969-8.644532 13.167969-11.066406 20.660156-2.292969 6.839844-3.632813 13.964844-3.984376 21.171875-.074218 2.898438 1.578126 5.5625 4.207032 6.789063 9.871094 4.398437 20.546875 6.710937 31.355468 6.789062 12.898438.179688 25.484376-4.007812 35.707032-11.878906 17.765625-12.960938 24.09375-36.550781 15.199218-56.664062zm0 0" fill="#fff"/><path d="m179.203125 93.871094-50.605469 19.371094c-2.746094-8.472657-6.082031-16.738282-9.980468-24.746094l24.402343-20.394532c3.414063-1.621093 6.914063-3.242187 10.410157-4.78125 13.910156 17.238282 25.773437 30.550782 25.773437 30.550782zm0 0" fill="#a56a43"/><path d="m179.203125 93.871094-44.117187 31.488281c-10.410157-17.75-42.070313-49.835937-58.285157-74.15625-13.394531-20.050781-25.597656-42.664063-25.597656-42.664063 8.53125 0 25.597656 0 51.199219 25.597657 24.070312 21.804687 49.742187 41.769531 76.800781 59.734375zm0 0" fill="#e8edfc"/><path d="m332.800781 93.871094 50.605469 19.371094c2.746094-8.472657 6.085938-16.738282 9.984375-24.746094l-24.40625-20.394532c-3.414063-1.621093-6.914063-3.242187-10.410156-4.78125-13.910157 17.238282-25.773438 30.550782-25.773438 30.550782zm0 0" fill="#a56a43"/><path d="m332.800781 93.871094 44.117188 31.488281c10.414062-17.75 42.070312-49.835937 58.285156-74.15625 13.394531-20.050781 25.597656-42.664063 25.597656-42.664063-8.53125 0-25.597656 0-51.199219 25.597657-24.070312 21.804687-49.742187 41.769531-76.800781 59.734375zm0 0" fill="#e8edfc"/><path d="m452.269531 179.203125c-4.394531-8.84375-10.121093-16.960937-16.980469-24.0625-14.503906-14.753906-33.570312-24.167969-54.101562-26.710937-1.898438-.242188-3.808594-.386719-5.71875-.425782.425781-.851562.9375-1.707031 1.449219-2.644531 10.414062-17.75 42.070312-49.835937 58.285156-74.15625 2.472656-3.667969 4.863281-7.421875 7.167969-11.09375 10.324218-16.46875 18.429687-31.570313 18.429687-31.570313 8.535157 0 17.066407 119.464844-8.53125 170.664063zm0 0" fill="#7facfa"/><path d="m435.289062 155.140625c-14.503906-14.753906-33.570312-24.167969-54.101562-26.710937-1.898438-.242188-3.808594-.386719-5.71875-.425782.425781-.851562.9375-1.707031 1.449219-2.644531 10.414062-17.75 42.070312-49.835937 58.285156-74.15625 2.472656-3.667969 4.863281-7.421875 7.167969-11.09375 3.386718 38.484375 1 77.253906-7.082032 115.03125zm0 0" fill="#a4c2f7"/><path d="m136.535156 128.003906c-1.910156.039063-3.820312.183594-5.71875.425782-30.78125 3.746093-57.554687 22.871093-71.082031 50.773437-25.597656-51.199219-17.066406-170.664063-8.53125-170.664063 0 0 12.203125 22.613282 25.597656 42.664063 16.214844 24.320313 47.875 56.40625 58.285157 74.15625.511718.9375 1.023437 1.792969 1.449218 2.644531zm0 0" fill="#a4c2f7"/><path d="m298.5 309.679688c.433594 2.300781-.300781 4.667968-1.964844 6.3125l-33.792968 35.414062c-3.742188 3.671875-9.734376 3.671875-13.480469 0l-33.792969-35.414062c-1.664062-1.644532-2.398438-4.011719-1.960938-6.3125.640626-3.421876 3.382813-6.0625 6.824219-6.570313.621094-.105469 1.25-.160156 1.878907-.171875h67.582031c.628906.011719 1.257812.066406 1.878906.171875 3.445313.507813 6.183594 3.148437 6.828125 6.570313zm0 0" fill="#cad9fc"/><path d="m186.371094 266.839844c-2.632813 10.03125-8.820313 18.765625-17.410156 24.578125-.0625.007812-.125.039062-.167969.085937-5.308594 1.410156-10.738281 2.324219-16.214844 2.730469-1.878906.167969-3.925781.253906-5.972656.253906-3.140625.007813-6.273438-.191406-9.386719-.597656-7.179688-.878906-14.160156-2.957031-20.652344-6.140625-13.148437-11.8125-17.65625-30.503906-11.332031-47.007812 6.320313-16.503907 22.160156-27.402344 39.835937-27.40625 1.191407 0 2.386719.085937 3.496094.171874 4.246094 1.871094 8.230469 4.28125 11.863282 7.167969 13.929687 11.757813 23.140624 28.152344 25.941406 46.164063zm0 0" fill="#fff"/><path d="m162.136719 256.003906c.769531 13.417969-2.5625 26.753906-9.558594 38.230469-1.878906.167969-3.925781.253906-5.972656.253906-3.140625.007813-6.273438-.191406-9.386719-.597656-6.746094-11.441406-9.953125-24.625-9.214844-37.886719 0-23.550781 7.679688-42.667968 17.066406-42.667968 9.386719 0 17.066407 19.117187 17.066407 42.667968zm0 0" fill="#7facfa"/><path d="m325.632812 266.839844c2.632813 10.03125 8.820313 18.765625 17.410157 24.578125.0625.007812.125.039062.167969.085937 5.308593 1.410156 10.738281 2.324219 16.214843 2.730469 1.878907.167969 3.925781.253906 5.972657.253906 3.140624.007813 6.273437-.191406 9.386718-.597656 7.179688-.878906 14.160156-2.957031 20.652344-6.140625 13.148438-11.8125 17.65625-30.503906 11.335938-47.007812-6.324219-16.503907-22.164063-27.402344-39.839844-27.40625-1.191406 0-2.386719.085937-3.496094.171874-4.246094 1.871094-8.230469 4.28125-11.863281 7.167969-13.929688 11.757813-23.140625 28.152344-25.941407 46.164063zm0 0" fill="#fff"/><path d="m349.867188 256.003906c-.769532 13.417969 2.5625 26.753906 9.558593 38.230469 1.878907.167969 3.925781.253906 5.972657.253906 3.140624.007813 6.273437-.191406 9.386718-.597656 6.746094-11.441406 9.953125-24.625 9.21875-37.886719 0-23.550781-7.683594-42.667968-17.070312-42.667968-9.386719 0-17.066406 19.117187-17.066406 42.667968zm0 0" fill="#7facfa"/><path d="m145.070312 243.203125c0-7.066406-11.464843-12.800781-25.601562-12.800781s-25.601562 5.734375-25.601562 12.800781c0 7.070313 11.464843 12.800781 25.601562 12.800781s25.601562-5.730468 25.601562-12.800781zm0 0" fill="#fff"/><path d="m366.933594 243.203125c0 7.082031-11.433594 12.800781-25.597656 12.800781-4.214844.039063-8.410157-.539062-12.460938-1.707031 2.804688-8.664063 7.140625-16.757813 12.800781-23.894531 13.996094.085937 25.257813 5.804687 25.257813 12.800781zm0 0" fill="#fff"/><path d="m243.117188 503.128906h.171874c4.179688.257813 8.445313.34375 12.714844.34375 4.429688 0 8.828125-.121094 13.203125-.335937l-.320312-.007813h-.171875c-130.730469-6.230468-234.578125-106.835937-234.578125-230.058594.035156-45.355468 14.238281-89.566406 40.617187-126.464843l.019532-.015625c-10.296876-49.074219-6.601563-115.53125-.902344-133.414063-7.09375-3.28125-14.855469-4.871093-22.667969-4.636719-7.023437 0-14.027344 80.867188-2.03125 138.050782l-.019531.015625c-26.378906 36.898437-40.578125 81.109375-40.617188 126.464843 0 123.222657 103.851563 223.828126 234.582032 230.058594zm0 0" fill="#fff"/><path d="m467.371094 41.042969c.191406-.300781.398437-.605469.585937-.90625v-.019531zm0 0" fill="#fff"/><path d="m268.035156 55.640625c4.191406 2.289063 8.808594 3.683594 13.566406 4.097656 7.316407 0 18.953126-8.5625 28.578126-12.925781-4.941407-.960938-10.050782-1.8125-15.605469-2.433594-3.449219-.035156-6.847657.785156-9.898438 2.386719-5.296875 2.390625-11.195312 6.035156-16.664062 8.863281zm0 0" fill="#fff"/><path d="m463.734375 13.175781c-.941406-2.957031-1.9375-4.636719-2.933594-4.636719 0 0-1.871093 3.476563-4.902343 8.828126 2.519531-1.5625 5.136718-2.960938 7.835937-4.191407zm0 0" fill="#fff"/><path d="m198.914062 47.277344c-13.804687 2.929687-27.226562 7.429687-40.007812 13.410156 3.253906 2.539062 6.503906 5.023438 9.699219 7.425781l.015625-.011719c17.628906-9.382812 36.421875-16.386718 55.894531-20.824218l.050781-.007813c-3.585937-1.691406-7.523437-2.507812-11.488281-2.378906-5.035156.679687-9.726563 1.449219-14.164063 2.386719zm0 0" fill="#fff"/><path d="m394.582031 68.101562.015625.007813c14.257813-10.429687 27.820313-21.777344 40.605469-33.972656 6.207031-6.375 13.148437-12 20.671875-16.753907 3.054688-5.382812 4.925781-8.84375 4.925781-8.84375-8.53125 0-25.597656 0-51.199219 25.597657-9.789062 9.460937-20.125 18.339843-30.953124 26.589843 5.144531 2.273438 10.382812 4.710938 15.933593 7.375zm0 0" fill="#fff"/><path d="m17.070312 273.070312c.332032 35.691407 9.566407 70.738282 26.863282 101.960938 21.089844 37.179688 52.113281 67.75 89.601562 88.285156 9.296875 5.183594 18.894532 9.816406 28.734375 13.875l15.105469 5.195313 7.566406 2.570312 7.773438 1.851563 15.550781 3.675781 15.835937 2.242187c2.640626.355469 5.269532.804688 7.917969 1.082032l7.996094.367187 15.988281.761719v17.066406l-17.03125-.792968-8.519531-.40625c-2.820313-.292969-5.628906-.769532-8.445313-1.140626l-16.890624-2.40625-16.613282-3.910156-8.296875-1.996094-8.085937-2.730468-16.136719-5.5625c-10.53125-4.328125-20.796875-9.28125-30.742187-14.824219-40.257813-22.078125-73.574219-54.933594-96.207032-94.882813-18.71875-33.765624-28.699218-71.675781-29.03124975-110.28125zm0 0" fill="#fff"/><g fill="#428dff"><path d="m12.898438 315.453125c4.550781-.890625 7.636718-5.160156 7.046874-9.761719-1.710937-10.792968-2.671874-21.695312-2.875-32.621094h-17.06640575c.20312475 11.824219 1.23437475 23.621094 3.08593775 35.300782.304687 2.265625 1.527344 4.308594 3.382812 5.648437 1.855469 1.335938 4.175782 1.855469 6.425782 1.433594zm0 0"/><path d="m256.003906 512.003906v-17.066406l-15.984375-.761719-7.992187-.367187c-2.644532-.277344-5.277344-.726563-7.921875-1.082032l-15.832031-2.242187-15.554688-3.675781-7.773438-1.851563-7.5625-2.570312-15.105468-5.195313c-9.84375-4.058594-19.4375-8.691406-28.734375-13.875-37.488281-20.535156-68.515625-51.105468-89.601563-88.285156l-3.769531-7.292969c-2.289063-4.050781-7.308594-5.664062-11.527344-3.703125-2.0625.976563-3.628906 2.757813-4.324219 4.929688-.699218 2.167968-.46875 4.53125.640626 6.523437l4.074218 7.867188c22.636719 39.945312 55.949219 72.796875 96.207032 94.875 9.945312 5.542969 20.210937 10.496093 30.742187 14.828125l16.136719 5.570312 8.089844 2.730469 8.296874 1.992187 16.609376 3.910157 16.886718 2.410156c2.816406.375 5.628906.84375 8.449219 1.136719l8.515625.410156zm0 0"/><path d="m27.394531 337.570312c-.613281-2.082031-2.019531-3.847656-3.914062-4.90625l-1.492188-.605468c-.546875-.171875-1.109375-.273438-1.679687-.300782-.53125-.101562-1.074219-.121093-1.613282-.0625-.566406.0625-1.128906.164063-1.683593.300782-2.183594.648437-4.03125 2.121094-5.152344 4.105468-.519531 1.039063-.839844 2.164063-.941406 3.320313-.453125 3.570313 1.464843 7.023437 4.738281 8.527344 1.042969.457031 2.167969.710937 3.308594.742187 1.121094.0625 2.242187-.101562 3.300781-.480468 2.078125-.808594 3.789063-2.355469 4.796875-4.34375.824219-2 .9375-4.21875.332031-6.296876zm0 0"/><path d="m8.535156 281.605469c-4.710937 0-8.53124975-3.820313-8.53124975-8.535157.04296875-47.121093 14.78906275-93.054687 42.18359375-131.394531 2.722656-3.847656 8.050781-4.757812 11.898438-2.035156 3.847656 2.726563 4.757812 8.054687 2.03125 11.902344-25.347657 35.457031-39 77.941406-39.046876 121.527343 0 4.714844-3.820312 8.535157-8.535156 8.535157zm0 0"/><path d="m256.003906 512.003906c-4.714844 0-8.535156-3.820312-8.535156-8.53125 0-4.714844 3.820312-8.535156 8.535156-8.535156 131.753906 0 238.929688-99.53125 238.929688-221.867188-.046875-43.585937-13.695313-86.070312-39.046875-121.527343-2.726563-3.847657-1.816407-9.175781 2.03125-11.902344 3.847656-2.722656 9.175781-1.8125 11.902343 2.035156 27.390626 38.339844 42.136719 84.273438 42.183594 131.394531 0 131.753907-114.84375 238.933594-256 238.933594zm0 0"/><path d="m368.976562 76.632812c-1.277343 0-2.539062-.289062-3.691406-.84375-22.246094-12.046874-46.546875-19.832031-71.648437-22.957031h-.160157c-5.199218 1.511719-10.15625 3.769531-14.707031 6.707031-6.785156 4.679688-14.589843 7.671876-22.765625 8.730469-8.597656-.972656-16.878906-3.804687-24.269531-8.300781-5.382813-3.28125-11.332031-5.53125-17.539063-6.632812-23.660156 3.371093-46.515624 10.980468-67.476562 22.457031-2.746094 1.320312-5.992188 1.074219-8.511719-.644531s-3.929687-4.648438-3.699219-7.691407c.230469-3.039062 2.0625-5.726562 4.8125-7.046875 22.605469-12.269531 47.222657-20.394531 72.691407-23.996094 9.695312.160157 19.15625 3.023438 27.316406 8.269532 5.175781 3.042968 10.804687 5.246094 16.675781 6.519531 5.113282-1.457031 9.980469-3.671875 14.441406-6.570313 7.328126-5.316406 16.058594-8.359374 25.105469-8.757812 27.007813 3.347656 53.160157 11.667969 77.132813 24.539062 3.589844 1.726563 5.503906 5.707032 4.617187 9.585938-.886719 3.882812-4.339843 6.636719-8.324219 6.632812zm0 0"/><path d="m59.742188 187.738281c-3.234376.003907-6.195313-1.820312-7.640626-4.71875-24.417968-48.828125-20.050781-160.945312-9.683593-177.726562 1.757812-3.21875 5.113281-5.2421878 8.785156-5.28906275 9.457031 0 29.132813 0 57.230469 28.10156275 23.683594 21.394531 48.917968 41.003906 75.5 58.664062 3.875 2.632813 4.902344 7.894531 2.304687 11.792969-2.597656 3.894531-7.851562 4.96875-11.769531 2.40625-27.542969-18.246094-53.652344-38.570312-78.101562-60.796875-19.066407-19.066406-32.167969-22.398437-40.507813-22.976563-5.757813 20.519532-10.089844 114.996094 11.507813 158.191407 1.324218 2.644531 1.183593 5.785156-.371094 8.300781-1.550782 2.515625-4.296875 4.046875-7.253906 4.050781zm0 0"/><path d="m59.734375 204.808594c-2.742187-.003906-5.316406-1.324219-6.917969-3.550782-1.601562-2.226562-2.039062-5.085937-1.171875-7.6875 18.925781-56.769531 51.40625-74.542968 70.257813-80.105468-4.863282-5.695313-11.347656-12.179688-18.066406-18.894532-12.5625-11.78125-23.992188-24.714843-34.132813-38.632812-13.460937-20.179688-25.5-42.40625-26.011719-43.339844-2.238281-4.148437-.695312-9.328125 3.453125-11.570312 4.144531-2.242188 9.324219-.695313 11.566407 3.453125.117187.21875 12.183593 22.488281 25.191406 41.992187 9.546875 12.960938 20.257812 25.019532 32 36.03125 10.929687 9.667969 20.445312 20.828125 28.265625 33.148438 1.324219 2.648437 1.183593 5.789062-.371094 8.304687-1.558594 2.515625-4.304687 4.046875-7.261719 4.046875-1.78125.027344-45.566406 1.554688-68.707031 70.96875-1.160156 3.480469-4.421875 5.832032-8.09375 5.835938zm0 0"/><path d="m452.261719 187.738281c-2.957031-.003906-5.703125-1.535156-7.253907-4.050781-1.554687-2.515625-1.695312-5.65625-.371093-8.300781 21.597656-43.195313 17.265625-137.671875 11.507812-158.191407-8.335937.578126-21.441406 3.910157-40.507812 22.976563-24.449219 22.226563-50.558594 42.550781-78.101563 60.796875-3.917968 2.5625-9.171875 1.488281-11.769531-2.40625-2.597656-3.898438-1.570313-9.160156 2.304687-11.792969 26.582032-17.660156 51.816407-37.269531 75.5-58.664062 28.097657-28.10156275 47.773438-28.10156275 57.230469-28.10156275 3.671875.04687495 7.03125 2.07031275 8.785157 5.28906275 10.367187 16.785156 14.734374 128.902343-9.683594 177.730469-1.449219 2.894531-4.40625 4.71875-7.640625 4.714843zm0 0"/><path d="m452.269531 204.808594c-3.671875-.003906-6.933593-2.355469-8.09375-5.835938-23.140625-69.414062-66.921875-70.941406-68.777343-70.96875-2.9375-.042968-5.648438-1.585937-7.183594-4.09375-1.535156-2.503906-1.679688-5.621094-.382813-8.257812 7.820313-12.320313 17.339844-23.480469 28.269531-33.148438 11.742188-11.011718 22.453126-23.070312 32-36.03125 13.007813-19.503906 25.074219-41.773437 25.191407-41.992187 1.449219-2.683594 4.222656-4.3906252 7.269531-4.47656275 3.046875-.08593745 5.910156 1.46093775 7.507812 4.05859375 1.597657 2.597656 1.691407 5.851562.242188 8.535156-.511719.9375-12.550781 23.160156-26.011719 43.339844-10.140625 13.917969-21.570312 26.851562-34.132812 38.632812-6.714844 6.714844-13.199219 13.199219-18.066407 18.894532 18.851563 5.5625 51.335938 23.335937 70.257813 80.105468.867187 2.601563.429687 5.460938-1.171875 7.6875-1.601562 2.226563-4.175781 3.546876-6.917969 3.550782zm0 0"/><path d="m256.003906 362.671875c-4.847656.019531-9.496094-1.929687-12.875-5.40625l-33.820312-35.351563c-4.480469-4.550781-5.757813-11.367187-3.222656-17.230468 2.824218-6.34375 9.164062-10.390625 16.109374-10.28125h67.613282c6.945312-.109375 13.289062 3.9375 16.113281 10.28125 2.535156 5.863281 1.257813 12.675781-3.222656 17.222656l-33.820313 35.363281c-3.378906 3.472657-8.027344 5.421875-12.875 5.402344zm-33.070312-51.199219 32.527344 34.003906c.339843.171876.742187.171876 1.082031 0l32.910156-34.414062zm0 0"/><path d="m332.800781 439.472656c-32.816406 0-45.339843-19.277344-54.488281-33.351562-7.617188-11.730469-12.078125-17.851563-22.308594-17.851563-10.234375 0-14.695312 6.121094-22.308594 17.851563-9.152343 14.074218-21.675781 33.351562-54.492187 33.351562-27.441406.917969-52.203125-16.359375-60.808594-42.429687-6.9375-22.234375 2.097657-46.34375 21.941407-58.539063 10.5625-6.324218 21.917968-11.207031 33.773437-14.523437 20.867187-6.808594 30.691406-11.109375 30.691406-21.042969 0-2.570312-.089843-5.929688-.191406-9.890625-.816406-31.148437-2.332031-89.128906 22.359375-114.476563 7.652344-7.78125 18.113281-12.164062 29.03125-12.164062s21.378906 4.382812 29.035156 12.164062c24.691406 25.34375 23.175782 83.324219 22.355469 114.476563-.097656 3.960937-.1875 7.320313-.1875 9.890625 0 9.933594 9.824219 14.234375 30.691406 21.046875 11.855469 3.316406 23.210938 8.199219 33.773438 14.519531 19.84375 12.199219 28.878906 36.304688 21.941406 58.539063-8.605469 26.070312-33.367187 43.347656-60.808594 42.429687zm-76.796875-68.269531c19.972656 0 28.816406 13.609375 36.625 25.617187 8.914063 13.730469 16.613282 25.582032 40.171875 25.582032 19.90625.890625 38.015625-11.453125 44.46875-30.308594 4.734375-15.035156-1.507812-31.351562-15.066406-39.390625-9.289063-5.433594-19.242187-9.636719-29.617187-12.496094-19.890626-6.503906-42.449219-13.871093-42.449219-37.269531 0-2.683594.089843-6.195312.199219-10.335938.640624-24.519531 2.140624-81.933593-17.527344-102.121093-4.441406-4.484375-10.492188-7.007813-16.804688-7.007813-6.316406 0-12.367187 2.523438-16.808594 7.007813-19.667968 20.1875-18.167968 77.601562-17.527343 102.121093.109375 4.140626.199219 7.652344.199219 10.335938 0 23.398438-22.558594 30.765625-42.449219 37.269531-10.371094 2.859375-20.328125 7.0625-29.617188 12.496094-13.558593 8.039063-19.800781 24.355469-15.066406 39.390625 6.453125 18.855469 24.5625 31.199219 44.46875 30.308594 23.558594 0 31.257813-11.851563 40.175781-25.582032 7.804688-12.007812 16.648438-25.617187 36.625-25.617187zm0 0"/><path d="m256.003906 388.269531c-4.714844 0-8.535156-3.820312-8.535156-8.53125v-25.601562c0-4.710938 3.820312-8.53125 8.535156-8.53125 4.710938 0 8.53125 3.820312 8.53125 8.53125v25.601562c0 4.710938-3.820312 8.53125-8.53125 8.53125zm0 0"/><path d="m256.003906 448.003906c-19.53125.460938-38.144531-8.265625-50.277344-23.574218-1.910156-2.4375-2.351562-5.722657-1.148437-8.578126 1.203125-2.855468 3.863281-4.835937 6.941406-5.171874 3.082031-.332032 6.101563 1.027343 7.890625 3.558593 9.179688 10.574219 22.484375 16.660157 36.484375 16.699219 14.003907.035156 27.335938-5.980469 36.574219-16.503906 2.867188-3.691406 8.167969-4.390625 11.894531-1.566406 3.726563 2.820312 4.484375 8.117187 1.707031 11.875-12.175781 15.105468-30.671874 23.699218-50.066406 23.261718zm0 0"/><path d="m146.636719 294.449219c-14.914063.238281-29.472657-4.585938-41.292969-13.683594-20.570312-14.996094-27.90625-42.304687-17.617188-65.589844 1.117188-2.375 3.269532-4.105469 5.832032-4.683593 27.765625-6.253907 50.242187-2.832032 66.90625 10.175781 26.117187 20.394531 27.234375 56.558593 27.269531 58.089843.074219 3.351563-1.820313 6.4375-4.84375 7.882813-11.421875 5.058594-23.761719 7.71875-36.253906 7.808594zm-44.800781-68.242188c-4.726563 15.273438.914062 31.855469 13.972656 41.078125 19.386718 15.035156 43.617187 9.597656 54.273437 6.046875-1.636719-15.144531-8.835937-29.144531-20.207031-39.28125-11.589844-8.992187-27.738281-11.609375-48.039062-7.84375zm0 0"/><path d="m365.367188 294.449219c-12.492188-.089844-24.832032-2.75-36.257813-7.808594-3.023437-1.445313-4.917969-4.53125-4.839844-7.882813.03125-1.535156 1.148438-37.695312 27.265625-58.089843 16.667969-13.011719 39.148438-16.441407 66.910156-10.175781 2.558594.578124 4.710938 2.308593 5.832032 4.683593 10.285156 23.285157 2.953125 50.59375-17.617188 65.589844-11.824218 9.097656-26.375 13.917969-41.292968 13.683594zm-23.449219-21.117188c10.640625 3.546875 34.882812 8.992188 54.273437-6.046875 13.058594-9.222656 18.703125-25.804687 13.976563-41.078125-20.3125-3.78125-36.453125-1.164062-48.042969 7.84375-11.371094 10.136719-18.574219 24.136719-20.207031 39.28125zm0 0"/></g></svg>