<svg height="511pt" viewBox="-50 0 511 511.9989" width="511pt" xmlns="http://www.w3.org/2000/svg"><path d="m393.105469 236.371094c.222656 19.703125-4.878907 39.101562-14.765625 56.148437-9.996094 16.621094-23.761719 30.652344-40.191406 40.960938-18.402344 11.554687-38.582032 20.003906-59.730469 25.003906-23.914063 5.785156-48.445313 8.621094-73.046875 8.445313-24.601563.175781-49.132813-2.660157-73.046875-8.445313-21.148438-5-41.328125-13.449219-59.730469-25.003906-16.429688-10.308594-30.195312-24.339844-40.195312-40.960938-9.882813-17.046875-14.984376-36.445312-14.761719-56.148437.296875-21.953125 5.332031-43.578125 14.761719-63.402344 5.511718-11.902344 12.292968-23.175781 20.226562-33.621094v-.085937c-3.128906-42.261719 5.640625-84.550781 25.308594-122.085938 1.175781-2.242187 3.28125-3.847656 5.753906-4.386719 2.472656-.539062 5.054688.046876 7.054688 1.59375 21.191406 15.761719 40.097656 34.382813 56.175781 55.332032 18.785156-6.589844 38.546875-9.964844 58.453125-9.984375 19.882812-.015625 39.621094 3.359375 58.367187 9.984375 16.023438-20.972656 34.902344-39.597656 56.089844-55.332032 2-1.546874 4.585937-2.132812 7.054687-1.59375 2.472657.539063 4.578126 2.144532 5.753907 4.386719 19.671875 37.503907 28.46875 79.761719 25.394531 122 7.960938 10.503907 14.769531 21.832031 20.308594 33.792969 9.433594 19.824219 14.46875 41.449219 14.765625 63.402344zm0 0" fill="#cad9fc"/><path d="m367.503906 236.371094c.222656 19.703125-4.878906 39.101562-14.761718 56.148437-9.996094 16.621094-23.765626 30.652344-40.191407 40.960938-18.40625 11.554687-38.585937 20.003906-59.734375 25.003906-19.742187 4.820313-39.933594 7.566406-60.246094 8.191406-20.3125-.625-40.503906-3.371093-60.246093-8.191406-21.148438-5-41.328125-13.449219-59.730469-25.003906-16.429688-10.308594-30.195312-24.339844-40.195312-40.960938-9.882813-17.046875-14.984376-36.445312-14.761719-56.148437.296875-21.953125 5.332031-43.578125 14.761719-63.402344 5.511718-11.902344 12.292968-23.175781 20.226562-33.621094v-.085937c-3.125-40.277344 4.71875-80.644531 22.699219-116.820313 17.164062 13.863282 32.605469 29.734375 45.992187 47.273438 6.839844-2.402344 13.820313-4.367188 20.90625-5.886719 12.332032-2.710937 24.921875-4.085937 37.546875-4.097656 4.351563 0 8.621094.171875 12.800781.511719 15.550782 1.078124 30.878907 4.261718 45.570313 9.472656 1.449219-1.878906 2.984375-3.925782 4.605469-5.972656 7.117187 1.550781 14.128906 3.542968 20.992187 5.972656 13.332031-17.558594 28.746094-33.433594 45.910157-47.273438 17.933593 36.160156 25.800781 76.484375 22.785156 116.734375 7.960937 10.503907 14.769531 21.832031 20.308594 33.792969 9.433593 19.824219 14.46875 41.449219 14.761718 63.402344zm0 0" fill="#e8edfc"/><path d="m401.636719 452.265625v51.199219h-392.53125v-51.199219c-.058594-34.339844 12.902343-67.425781 36.265625-92.589844l16.382812-15.957031h12.460938l266.664062-.9375h12.886719l.425781 6.570312 11.179688 10.324219c23.363281 25.164063 36.324218 58.25 36.265625 92.589844zm0 0" fill="#cad9fc"/><path d="m376.039062 452.265625v51.199219h-366.9375l.003907-51.199219c-.207031-33.9375 11.828125-66.808594 33.898437-92.589844l15.289063-15.957031 273.015625-.9375.433594 6.570312 10.398437 10.324219c22.066406 25.78125 34.101563 58.652344 33.898437 92.589844zm0 0" fill="#e8edfc"/><path d="m204.71875 396.796875c-28.667969.179687-57.253906-3.132813-85.121094-9.863281-26.527344-6.554688-51.789062-17.445313-74.773437-32.226563-3.773438-2.40625-6.425781-6.226562-7.371094-10.601562-.941406-4.378907-.09375-8.949219 2.359375-12.699219 5.144531-7.8125 15.621094-10.03125 23.492188-4.972656 19.839843 12.757812 41.648437 22.152344 64.546874 27.8125 25.167969 6.058594 50.980469 9.03125 76.867188 8.855468 25.867188.179688 51.664062-2.789062 76.8125-8.839843 22.917969-5.664063 44.746094-15.066407 64.605469-27.828125 7.871093-5.066406 18.351562-2.847656 23.496093 4.972656 2.449219 3.75 3.296876 8.320312 2.355469 12.699219-.941406 4.375-3.597656 8.195312-7.371093 10.601562-23.003907 14.789063-48.285157 25.679688-74.832032 32.242188-27.851562 6.722656-56.414062 10.027343-85.066406 9.847656zm0 0" fill="#7facfa"/><path d="m130.535156 76.625c-23.238281 10.941406-44.199218 26.167969-61.78125 44.886719.4375-30.105469 7.183594-59.785157 19.796875-87.125 15.554688 12.4375 29.640625 26.609375 41.984375 42.238281zm0 0" fill="#cad9fc"/><path d="m341.902344 121.425781c-17.613282-18.71875-38.601563-33.949219-61.863282-44.882812 12.351563-15.597657 26.4375-29.738281 41.984376-42.15625 12.644531 27.300781 19.417968 56.953125 19.878906 87.039062zm0 0" fill="#cad9fc"/><path d="m230.972656 307.199219c0 14.136719-11.464844 25.597656-25.601562 25.597656-14.140625 0-25.601563-11.460937-25.601563-25.597656l25.601563-17.066407zm0 0" fill="#a4c2f7"/><path d="m137.273438 503.464844c1.050781-37.226563 30.957031-67.171875 68.183593-68.265625 37.222657 1.09375 67.128907 31.039062 68.179688 68.265625zm0 0" fill="#fff"/><path d="m237.335938 234.964844-26.707032 27.367187c-1.386718 1.40625-3.28125 2.199219-5.257812 2.199219-1.976563 0-3.871094-.792969-5.257813-2.199219l-26.707031-27.367187c-1.714844-1.714844-2.480469-4.160156-2.046875-6.550782.382813-3.101562 2.636719-5.652343 5.667969-6.414062.542968-.078125 1.089844-.125 1.640625-.136719h53.40625c.550781.011719 1.097656.058594 1.640625.136719 3.03125.761719 5.285156 3.3125 5.667968 6.414062.433594 2.390626-.332031 4.839844-2.046874 6.550782zm0 0" fill="#a4c2f7"/><path d="m339.003906 350.460938c-23.011718 14.78125-48.292968 25.679687-74.839844 32.257812-27.859374 6.6875-56.425781 9.984375-85.074218 9.8125-15.863282.042969-31.710938-.925781-47.445313-2.902344-4.097656-.851562-8.109375-1.707031-12.035156-2.730468-26.519531-6.527344-51.777344-17.398438-74.75-32.171876-3.789063-2.394531-6.453125-6.210937-7.398437-10.589843-.949219-4.382813-.097657-8.957031 2.363281-12.703125 1.285156-1.953125 2.9375-3.632813 4.863281-4.949219 17.933594 10.625 37.347656 18.535156 57.601562 23.464844 11.378907 2.804687 22.921876 4.914062 34.558594 6.316406.101563.066406.222656.097656.34375.082031 22.203125 4.582032 44.824219 6.839844 67.496094 6.742188 25.890625.164062 51.703125-2.785156 76.886719-8.789063 22.195312-5.503906 43.367187-14.523437 62.71875-26.707031 4.730469 7.792969 2.386719 17.941406-5.289063 22.867188zm0 0" fill="#a4c2f7"/><path d="m9.105469 503.464844h25.597656v-51.199219c-.203125-33.9375 11.832031-66.808594 33.898437-92.589844l3.703126-3.863281c-.613282-.390625-1.265626-.707031-1.875-1.105469-5.390626-3.414062-8.339844-9.621093-7.582032-15.957031.261719-2.613281 1.140625-5.128906 2.566406-7.335938.597657-.910156 1.285157-1.761718 2.046876-2.539062-1.371094-.839844-2.796876-1.566406-4.152344-2.4375-5.667969-3.625-12.933594-3.597656-18.566406.078125l-.054688-.03125c-.492188.367187-.960938.761719-1.414062 1.175781-4.167969 3.382813-6.457032 8.5625-6.148438 13.921875.304688 5.359375 3.171875 10.246094 7.699219 13.128907.613281.394531 1.265625.714843 1.878906 1.105468l-3.703125 3.863282c-22.066406 25.78125-34.101562 58.652343-33.894531 92.585937zm0 0" fill="#fff"/><path d="m163.695312 64.851562c1.417969-.347656 2.867188-.621093 4.300782-.933593l-.085938-.105469-.085937.015625c-1.398438.296875-2.75.691406-4.128907 1.023437zm0 0" fill="#fff"/><path d="m54.074219 90.164062c.449219-2.929687.945312-5.804687 1.496093-8.632812-.550781 2.824219-1.050781 5.703125-1.496093 8.632812zm0 0" fill="#fff"/><path d="m54 90.632812.070312-.46875zm0 0" fill="#fff"/><path d="m52.894531 99.15625c.316407-2.882812.683594-5.722656 1.105469-8.519531-.421875 2.792969-.789062 5.632812-1.105469 8.519531zm0 0" fill="#fff"/><path d="m55.566406 81.53125.011719-.074219zm0 0" fill="#fff"/><path d="m52.097656 108.429688c.183594-2.847657.410156-5.667969.703125-8.445313-.289062 2.777344-.523437 5.59375-.703125 8.445313zm0 0" fill="#fff"/><path d="m52.800781 99.984375c.03125-.28125.0625-.554687.09375-.832031-.03125.277344-.0625.550781-.09375.832031zm0 0" fill="#fff"/><path d="m52.027344 109.542969c.019531-.375.050781-.742188.074218-1.109375-.027343.371094-.058593.734375-.074218 1.109375zm0 0" fill="#fff"/><path d="m51.730469 118.011719c.042969-2.851563.128906-5.679688.292969-8.472657-.160157 2.796876-.257813 5.621094-.292969 8.472657zm0 0" fill="#fff"/><path d="m51.703125 119.292969c0-.425781.023437-.847657.027344-1.273438-.003907.421875-.023438.847657-.027344 1.273438zm0 0" fill="#fff"/><path d="m51.855469 128.050781c.015625.386719.011719.761719.03125 1.148438-.019531-.386719-.011719-.761719-.03125-1.148438zm0 0" fill="#fff"/><path d="m51.886719 129.199219c.15625 3.328125.386719 6.679687.738281 10.0625-.34375-3.382813-.585938-6.738281-.738281-10.0625zm0 0" fill="#fff"/><path d="m51.855469 128.050781c-.117188-2.941406-.175781-5.867187-.15625-8.761719-.015625 2.894532.035156 5.816407.15625 8.761719zm0 0" fill="#fff"/><path d="m205.371094 365.980469c-4.265625.257812-8.535156.519531-12.800782.695312-20.320312-.636719-40.515624-3.425781-60.246093-8.320312-21.179688-5.089844-41.367188-13.671875-59.730469-25.394531-16.476562-10.519532-30.246094-24.769532-40.195312-41.597657-9.894532-17.363281-14.992188-37.046875-14.761719-57.027343.289062-22.269532 5.324219-44.222657 14.761719-64.394532 5.503906-12.070312 12.285156-23.519531 20.226562-34.144531v-.085937c-3.132812-40.863282 4.703125-81.824219 22.699219-118.648438 6.824219 5.632812 12.96875 11.179688 18.429687 16.640625-13.089844 32.316406-18.410156 67.257813-15.53125 102.007813v.085937c-7.941406 10.625-14.71875 22.074219-20.222656 34.144531-9.441406 20.171875-14.472656 42.125-14.761719 64.394532-.230469 19.980468 4.863281 39.664062 14.761719 57.027343 9.949219 16.828125 23.714844 31.078125 40.191406 41.597657 18.363282 11.722656 38.550782 20.304687 59.734375 25.394531 15.566407 3.894531 31.441407 6.449219 47.445313 7.625zm0 0" fill="#fff"/><path d="m51.632812 365.480469c-11.792968 12.777343-20.878906 27.808593-26.710937 44.183593-2.902344 8.171876-4.945313 16.621094-6.089844 25.214844-1.054687 8.800782-1.453125 17.667969-1.195312 26.527344v42.058594h-17.066407v-42.058594c-.257812-9.628906.191407-19.265625 1.351563-28.824219 1.300781-9.75 3.617187-19.335937 6.910156-28.605469 6.609375-18.574218 16.910157-35.613281 30.28125-50.097656zm0 0" fill="#fff"/><g fill="#428dff"><path d="m21.707031 394.972656c4.128907 1.925782 9.046875.386719 11.347657-3.546875 5.097656-9.382812 11.335937-18.097656 18.578124-25.945312l-12.523437-11.597657c-8.207031 8.894532-15.28125 18.769532-21.058594 29.40625-1.15625 2.015626-1.417969 4.421876-.726562 6.640626.695312 2.21875 2.28125 4.046874 4.382812 5.042968zm0 0"/><path d="m.570312 503.464844h17.066407v-50.59375c-.101563-4.574219-3.714844-8.292969-8.28125-8.527344-2.316407-.105469-4.570313.753906-6.234375 2.367188-1.664063 1.613281-2.585938 3.84375-2.550782 6.160156zm0 0"/><path d="m21.464844 421.140625c.496094-2.097656.183594-4.304687-.878906-6.183594l-.921876-1.304687c-.363281-.441406-.78125-.832032-1.242187-1.167969-.390625-.375-.832031-.691406-1.3125-.9375-.507813-.261719-1.035156-.488281-1.574219-.679687-2.183594-.667969-4.542968-.441407-6.558594.625-.996093.601562-1.851562 1.402343-2.519531 2.355468-2.148437 2.902344-2.363281 6.808594-.539062 9.925782.621093.945312 1.4375 1.75 2.394531 2.359374.925781.628907 1.972656 1.0625 3.070312 1.277344 2.214844.355469 4.480469-.078125 6.40625-1.222656 1.8125-1.164062 3.121094-2.964844 3.675782-5.046875zm0 0"/><path d="m401.636719 511.996094h-392.53125c-4.714844 0-8.535157-3.820313-8.535157-8.53125 0-4.714844 3.820313-8.535156 8.535157-8.535156h384v-42.664063c.042969-32.1875-12.101563-63.195313-33.992188-86.785156-2.074219-2.234375-2.796875-5.40625-1.898437-8.320313.902344-2.914062 3.285156-5.125 6.261718-5.804687 2.972657-.675781 6.078126.285156 8.152344 2.519531 24.820313 26.746094 38.59375 61.898438 38.542969 98.390625v51.199219c0 4.710937-3.820313 8.53125-8.535156 8.53125zm0 0"/><path d="m205.371094 409.597656c-29.492188.179688-58.894532-3.21875-87.566406-10.113281-27.539063-6.773437-53.777344-18.03125-77.664063-33.320313-5.707031-3.625-9.722656-9.390624-11.148437-16.003906-1.421876-6.609375-.132813-13.515625 3.578124-19.171875 7.777344-11.699219 23.488282-15.023437 35.339844-7.472656 19.15625 12.253906 40.195313 21.277344 62.28125 26.707031 24.621094 5.898438 49.863282 8.789063 75.179688 8.613282 25.292968.179687 50.511718-2.707032 75.113281-8.59375 22.109375-5.433594 43.171875-14.460938 62.351563-26.726563 11.847656-7.574219 27.578124-4.246094 35.339843 7.476563 3.710938 5.65625 4.996094 12.558593 3.574219 19.171874-1.421875 6.609376-5.4375 12.375-11.144531 16-23.910157 15.292969-50.171875 26.554688-77.730469 33.335938-28.652344 6.890625-58.035156 10.277344-87.503906 10.097656zm-151.347656-73.078125c-2.886719-.015625-5.589844 1.429688-7.1875 3.839844-1.203126 1.8125-1.625 4.035156-1.164063 6.164063.464844 2.179687 1.789063 4.082031 3.671875 5.273437 22.316406 14.28125 46.828125 24.796875 72.554688 31.125 27.335937 6.5625 55.363281 9.789063 83.472656 9.609375 28.089844.179688 56.09375-3.042969 83.40625-9.597656 25.753906-6.335938 50.285156-16.855469 72.628906-31.144532 1.878906-1.1875 3.203125-3.085937 3.667969-5.261718.457031-2.132813.039062-4.355469-1.167969-6.171875-2.617188-3.921875-7.898438-5.023438-11.867188-2.472657-20.75 13.273438-43.539062 23.046876-67.460937 28.929688-25.9375 6.21875-52.535156 9.273438-79.207031 9.089844-26.695313.175781-53.316406-2.882813-79.273438-9.109375-23.894531-5.875-46.664062-15.640625-67.390625-28.902344-1.398437-.894531-3.023437-1.371094-4.683593-1.371094zm0 0"/><path d="m205.371094 375.464844c-25.304688.179687-50.535156-2.742188-75.125-8.703125-22.058594-5.21875-43.109375-14.039063-62.292969-26.113281-17.554687-11.023438-32.261719-26.039063-42.917969-43.820313-10.640625-18.355469-16.144531-39.238281-15.929687-60.457031.261719-23.1875 5.566406-46.042969 15.542969-66.976563 5.308593-11.460937 11.742187-22.367187 19.203124-32.5625-2.8125-46.433593 8.207032-92.660156 31.664063-132.832031 1.246094-1.988281 3.257813-3.375 5.5625-3.835938 2.300781-.457031 4.691406.050782 6.605469 1.410157 25.105468 17.496093 47.378906 38.742187 66.042968 63 2.730469 3.761719 1.945313 9.015625-1.765624 11.820312-3.710938 2.800781-8.980469 2.117188-11.851563-1.539062-15.617187-20.347657-33.992187-38.429688-54.589844-53.71875-18.824219 36.035156-27.273437 76.589843-24.414062 117.148437.035156.324219.054687.648438.050781.976563v.027343c0 .332032-.019531.664063-.0625.992188-.171875 1.535156-.753906 2.996094-1.679688 4.230469-7.554687 9.957031-14.019531 20.699219-19.273437 32.039062-8.9375 18.691407-13.703125 39.105469-13.96875 59.820313-.203125 18.1875 4.492187 36.09375 13.59375 51.839844 9.320313 15.472656 22.15625 28.53125 37.46875 38.109374 17.609375 11.050782 36.921875 19.121094 57.15625 23.886719 23.238281 5.621094 47.074219 8.371094 70.980469 8.191407 23.902344.179687 47.734375-2.574219 70.964844-8.191407 20.242187-4.765625 39.5625-12.835937 57.175781-23.890625 15.3125-9.574218 28.148437-22.628906 37.464843-38.101562 9.101563-15.75 13.796876-33.65625 13.59375-51.84375-.265624-20.722656-5.035156-41.136719-13.980468-59.832032-5.28125-11.40625-11.777344-22.210937-19.367188-32.226562-1.296875-1.714844-1.894531-3.855469-1.679687-5.996094 2.871093-40.578125-5.605469-81.152344-24.480469-117.191406-20.574219 15.285156-38.914062 33.363281-54.496094 53.710938-1.828125 2.4375-4.820312 3.714843-7.847656 3.351562s-5.628906-2.316406-6.828125-5.121094c-1.195313-2.804687-.808594-6.03125 1.023437-8.472656 18.621094-24.273438 40.875-45.527344 65.972657-63.019531 1.914062-1.359375 4.304687-1.867188 6.609375-1.410157 2.300781.460938 4.3125 1.847657 5.558594 3.835938 23.386718 40.160156 34.4375 86.316406 31.773437 132.714844 7.488281 10.230468 13.945313 21.183594 19.269531 32.691406 9.976563 20.929688 15.277344 43.78125 15.539063 66.964844.214843 21.214844-5.289063 42.09375-15.929688 60.449218-10.652343 17.78125-25.359375 32.796876-42.914062 43.816407-19.191407 12.082031-40.242188 20.90625-62.308594 26.125-24.589844 5.960937-49.8125 8.882812-75.113281 8.703125zm0 0"/><path d="m278.441406 83.9375c-1.1875 0-2.359375-.25-3.445312-.730469-44.300782-19.828125-94.949219-19.828125-139.25 0-4.296875 1.839844-9.273438-.121093-11.164063-4.394531-1.886719-4.277344.011719-9.273438 4.261719-11.214844 48.695312-21.765625 104.355469-21.765625 153.050781 0 3.695313 1.628906 5.742188 5.625 4.90625 9.574219-.832031 3.949219-4.320312 6.773437-8.359375 6.765625zm0 0"/><path d="m205.371094 273.0625c-4.289063.011719-8.394532-1.726562-11.371094-4.8125l-26.679688-27.390625c-4.574218-4.699219-5.882812-11.683594-3.316406-17.71875 2.472656-5.929687 8.261719-9.796875 14.6875-9.808594h53.359375c6.425781.011719 12.214844 3.878907 14.6875 9.8125 2.566407 6.035157 1.257813 13.019531-3.316406 17.714844l-26.675781 27.386719c-2.980469 3.089844-7.085938 4.828125-11.375 4.816406zm.835937-16.734375.015625.011719zm-25.859375-25.929687 25.015625 25.078124 24.425781-25.078124zm0 0"/><path d="m120.027344 255.996094c-1.671875.003906-3.308594-.492188-4.703125-1.414063-19.414063-10.777343-41.355469-16.179687-63.554688-15.652343-4.710937 0-8.53125-3.820313-8.53125-8.53125 0-4.714844 3.820313-8.535157 8.53125-8.535157 25.570313-.65625 50.828125 5.746094 73 18.5 3.132813 2.089844 4.523438 5.976563 3.433594 9.578125-1.09375 3.597656-4.414063 6.058594-8.175781 6.054688zm0 0"/><path d="m68.847656 298.664062c-3.761718.003907-7.082031-2.457031-8.175781-6.054687-1.089844-3.601563.300781-7.492187 3.433594-9.578125 16.613281-11.144531 35.949219-17.539062 55.933593-18.5 4.710938-.007812 8.535157 3.808594 8.542969 8.523438.003907 4.710937-3.8125 8.539062-8.523437 8.542968-16.605469 1.019532-32.640625 6.410156-46.488282 15.632813-1.398437.9375-3.042968 1.433593-4.722656 1.433593zm0 0"/><path d="m290.710938 255.996094c-3.761719.003906-7.082032-2.457032-8.171876-6.054688-1.09375-3.601562.300782-7.488281 3.433594-9.578125 22.171875-12.753906 47.425782-19.15625 73-18.5 4.710938 0 8.53125 3.820313 8.53125 8.535157 0 4.710937-3.820312 8.53125-8.53125 8.53125-22.203125-.609376-44.152344 4.792968-63.535156 15.632812-1.398438.9375-3.042969 1.4375-4.726562 1.433594zm0 0"/><path d="m341.894531 298.664062c-1.679687 0-3.324219-.496093-4.722656-1.433593-13.8125-9.273438-29.859375-14.671875-46.46875-15.632813-4.710937 0-8.53125-3.820312-8.53125-8.535156 0-4.710938 3.820313-8.53125 8.53125-8.53125 19.980469.960938 39.320313 7.355469 55.933594 18.5 3.128906 2.085938 4.523437 5.976562 3.433593 9.578125-1.09375 3.597656-4.414062 6.058594-8.175781 6.054687zm0 0"/><path d="m85.902344 511.996094c-2.890625 0-5.589844-1.46875-7.160156-3.898438-1.570313-2.429687-1.804688-5.492187-.617188-8.132812 16.691406-37.085938 1.558594-58.804688.90625-59.710938-2.707031-3.785156-1.882812-9.039062 1.851562-11.816406 3.738282-2.773438 9.007813-2.046875 11.847657 1.640625.910156 1.210937 21.984375 30.167969.957031 76.882813-1.375 3.066406-4.421875 5.039062-7.785156 5.035156zm0 0"/><path d="m324.84375 511.996094c-3.363281.003906-6.410156-1.96875-7.789062-5.035156-21.027344-46.71875.050781-75.671876.957031-76.882813 2.8125-3.78125 8.160156-4.570313 11.941406-1.757813s4.566406 8.160157 1.753906 11.941407c-.730469 1.023437-15.730469 22.71875.914063 59.703125 1.1875 2.640625.953125 5.703125-.617188 8.132812-1.570312 2.429688-4.269531 3.898438-7.160156 3.898438zm0 0"/><path d="m85.914062 196.265625c-3.960937.003906-7.402343-2.714844-8.316406-6.570313-.910156-3.851562.949219-7.828124 4.488282-9.597656 18.539062-10.566406 40.164062-14.382812 61.195312-10.804687-10.539062-10.804688-25.238281-16.527344-40.308594-15.695313-4.714844 0-8.535156-3.820312-8.535156-8.535156 0-4.710938 3.820312-8.53125 8.535156-8.53125 46.03125 0 64.671875 32.394531 68.09375 49.523438.738282 3.6875-1.027344 7.421874-4.339844 9.195312-3.316406 1.777344-7.402343 1.171875-10.058593-1.484375-.835938-.792969-22.460938-20.660156-66.949219 1.597656-1.183594.59375-2.484375.902344-3.804688.902344zm0 0"/><path d="m324.828125 196.265625c-1.320313 0-2.625-.308594-3.808594-.902344-44.476562-22.242187-66.113281-2.378906-67.019531-1.527343-2.707031 2.570312-6.757812 3.109374-10.042969 1.332031-3.265625-1.773438-5-5.464844-4.285156-9.113281 3.425781-17.128907 22.066406-49.523438 68.097656-49.523438 4.714844 0 8.535157 3.820312 8.535157 8.53125 0 4.714844-3.820313 8.535156-8.535157 8.535156-15.160156-.882812-29.957031 4.863282-40.550781 15.746094 21.105469-3.65625 42.828125.144531 61.4375 10.75 3.542969 1.769531 5.40625 5.746094 4.492188 9.601562-.910157 3.855469-4.359376 6.578126-8.320313 6.570313zm0 0"/><path d="m179.769531 315.730469c-18.839843-.019531-34.109375-15.289063-34.132812-34.132813 0-4.714844 3.820312-8.535156 8.535156-8.535156 4.710937 0 8.53125 3.820312 8.53125 8.535156 0 9.425782 7.640625 17.066406 17.066406 17.066406s17.066407-7.640624 17.066407-17.066406v-17.066406c0-4.714844 3.820312-8.535156 8.535156-8.535156 4.710937 0 8.53125 3.820312 8.53125 8.535156v17.066406c-.019532 18.84375-15.289063 34.113282-34.132813 34.132813zm0 0"/><path d="m230.972656 315.730469c-18.84375-.019531-34.113281-15.289063-34.136718-34.132813v-17.066406c0-4.714844 3.820312-8.535156 8.535156-8.535156 4.710937 0 8.53125 3.820312 8.53125 8.535156v17.066406c0 9.425782 7.644531 17.066406 17.070312 17.066406 9.425782 0 17.066406-7.640624 17.066406-17.066406 0-4.714844 3.820313-8.535156 8.53125-8.535156 4.714844 0 8.535157 3.820312 8.535157 8.535156-.023438 18.84375-15.292969 34.113282-34.132813 34.132813zm0 0"/><path d="m205.371094 341.332031c-9.132813.265625-17.972656-3.242187-24.429688-9.703125-6.460937-6.460937-9.972656-15.300781-9.703125-24.429687-.015625-4.714844 3.792969-8.546875 8.503907-8.5625 4.714843-.015625 8.546874 3.792969 8.5625 8.507812-.015626 9.425781 7.613281 17.078125 17.039062 17.09375s17.078125-7.613281 17.09375-17.039062c0-4.714844 3.820312-8.535157 8.535156-8.535157 4.710938 0 8.53125 3.820313 8.53125 8.535157.269532 9.128906-3.242187 17.96875-9.703125 24.429687-6.460937 6.460938-15.296875 9.96875-24.429687 9.703125zm0 0"/><path d="m273.628906 511.996094c-4.523437-.003906-8.257812-3.535156-8.511718-8.050782-.816407-32.699218-26.972657-59.097656-59.660157-60.214843-32.691406 1.113281-58.847656 27.515625-59.660156 60.214843-.265625 4.703126-4.292969 8.304688-9 8.039063s-8.304687-4.292969-8.039063-9c1.320313-41.738281 34.953126-75.207031 76.699219-76.320313 41.746094 1.113282 75.382813 34.582032 76.703125 76.320313.128906 2.261719-.648437 4.476563-2.15625 6.164063-1.507812 1.691406-3.625 2.710937-5.886718 2.835937-.164063.011719-.324219.011719-.488282.011719zm0 0"/></g></svg>