<svg height="511pt" viewBox="-51 0 511 511.99841" width="511pt" xmlns="http://www.w3.org/2000/svg"><path d="m401.636719 452.265625v51.199219h-392.53125v-51.199219c-.058594-34.339844 12.898437-67.421875 36.265625-92.585937l16.382812-15.957032h12.460938l266.664062-.941406h12.886719l.425781 6.570312 11.179688 10.328126c23.363281 25.164062 36.324218 58.246093 36.265625 92.585937zm0 0" fill="#cad9fc"/><path d="m376.039062 452.265625v51.199219h-366.9375l.003907-51.199219c-.207031-33.933594 11.828125-66.808594 33.894531-92.585937l15.289062-15.957032 273.015626-.941406.4375 6.570312 10.398437 10.328126c22.066406 25.777343 34.101563 58.652343 33.898437 92.585937zm0 0" fill="#e8edfc"/><path d="m204.71875 396.796875c-28.667969.179687-57.253906-3.132813-85.121094-9.863281-26.527344-6.554688-51.789062-17.441406-74.773437-32.222656-3.773438-2.410157-6.429688-6.230469-7.371094-10.605469-.941406-4.378907-.09375-8.949219 2.355469-12.699219 5.148437-7.8125 15.625-10.027344 23.496094-4.972656 19.839843 12.757812 41.648437 22.15625 64.546874 27.8125 25.167969 6.058594 50.980469 9.035156 76.867188 8.855468 25.867188.179688 51.664062-2.789062 76.8125-8.839843 22.917969-5.664063 44.746094-15.066407 64.605469-27.828125 7.871093-5.066406 18.351562-2.847656 23.496093 4.972656 2.449219 3.75 3.296876 8.320312 2.355469 12.699219-.941406 4.375-3.597656 8.195312-7.371093 10.605469-23.003907 14.785156-48.285157 25.679687-74.832032 32.238281-27.851562 6.722656-56.414062 10.03125-85.066406 9.847656zm0 0" fill="#7facfa"/><path d="m393.105469 236.371094c.222656 19.703125-4.878907 39.101562-14.765625 56.148437-9.996094 16.621094-23.765625 30.652344-40.191406 40.960938-18.402344 11.558593-38.582032 20.003906-59.734376 25.003906-23.910156 5.785156-48.441406 8.621094-73.042968 8.449219-4.351563 0-8.617188-.085938-12.800782-.257813-20.3125-.625-40.503906-3.371093-60.246093-8.191406-21.148438-5-41.328125-13.445313-59.730469-25.003906-16.429688-10.308594-30.199219-24.339844-40.195312-40.960938-9.882813-17.046875-14.984376-36.445312-14.761719-56.148437.292969-21.949219 5.332031-43.578125 14.761719-63.402344 5.511718-11.902344 12.292968-23.175781 20.226562-33.621094v-.085937c-3.125-40.273438 4.71875-80.644531 22.699219-116.820313.9375-1.964844 1.789062-3.753906 2.644531-5.289062 1.179688-2.234375 3.289062-3.828125 5.761719-4.355469 2.46875-.527344 5.046875.066406 7.039062 1.621094 19.164063 14.238281 36.453125 30.839843 51.453125 49.410156 1.707032 2.046875 3.242188 4.011719 4.695313 5.886719 14.730469-5.160156 30.082031-8.34375 45.652343-9.472656 4.265626-.339844 8.535157-.511719 12.800782-.511719 19.882812-.015625 39.621094 3.359375 58.367187 9.984375 13.332031-17.558594 28.746094-33.433594 45.910157-47.273438 3.15625-2.644531 6.570312-5.375 10.152343-8.023437 1.992188-1.554688 4.570313-2.148438 7.039063-1.621094 2.472656.527344 4.582031 2.121094 5.761718 4.355469 19.703126 37.5 28.511719 79.773437 25.429688 122.023437 7.960938 10.503907 14.769531 21.835938 20.308594 33.792969 9.433594 19.824219 14.46875 41.453125 14.765625 63.402344zm0 0" fill="#cad9fc"/><path d="m367.503906 236.371094c.222656 19.703125-4.878906 39.101562-14.761718 56.148437-9.996094 16.621094-23.765626 30.652344-40.191407 40.960938-18.40625 11.558593-38.585937 20.003906-59.734375 25.003906-19.742187 4.820313-39.933594 7.566406-60.246094 8.191406-20.3125-.625-40.503906-3.371093-60.246093-8.191406-21.148438-5-41.328125-13.445313-59.730469-25.003906-16.429688-10.308594-30.199219-24.339844-40.195312-40.960938-9.882813-17.046875-14.984376-36.445312-14.761719-56.148437.292969-21.949219 5.332031-43.578125 14.761719-63.402344 5.511718-11.902344 12.292968-23.175781 20.226562-33.621094v-.085937c-3.125-40.273438 4.71875-80.644531 22.699219-116.820313 17.160156 13.867188 32.601562 29.738282 45.992187 47.273438 6.839844-2.398438 13.820313-4.367188 20.90625-5.886719 12.332032-2.710937 24.921875-4.082031 37.546875-4.097656 4.351563 0 8.621094.171875 12.800781.511719 15.550782 1.078124 30.878907 4.265624 45.566407 9.472656 1.453125-1.875 2.988281-3.925782 4.609375-5.972656 7.117187 1.550781 14.128906 3.542968 20.992187 5.972656 13.332031-17.558594 28.746094-33.433594 45.910157-47.273438 17.933593 36.160156 25.800781 76.484375 22.785156 116.734375 7.960937 10.503907 14.769531 21.835938 20.308594 33.792969 9.433593 19.824219 14.46875 41.453125 14.761718 63.402344zm0 0" fill="#e8edfc"/><path d="m130.535156 76.628906c-23.238281 10.9375-44.199218 26.164063-61.78125 44.882813.4375-30.105469 7.183594-59.785157 19.796875-87.125 15.554688 12.4375 29.640625 26.609375 41.984375 42.242187zm0 0" fill="#cad9fc"/><path d="m341.902344 121.429688c-17.613282-18.722657-38.601563-33.949219-61.863282-44.886719 12.351563-15.597657 26.4375-29.738281 41.980469-42.15625 12.648438 27.300781 19.421875 56.957031 19.882813 87.042969zm0 0" fill="#cad9fc"/><path d="m239.503906 469.332031h-68.265625l8.53125-25.601562v-17.066407c0-14.136718 11.460938-25.597656 25.601563-25.597656 14.136718 0 25.597656 11.460938 25.597656 25.597656v17.066407zm0 0" fill="#e8edfc"/><path d="m222.4375 52.164062 38.851562-17.222656c2.511719-1.273437 5.488282-1.222656 7.957032.128906 2.46875 1.355469 4.109375 3.835938 4.390625 6.636719v36.046875c-.28125 2.800782-1.921875 5.285156-4.390625 6.636719-2.46875 1.355469-5.445313 1.402344-7.957032.132813l-38.851562-17.226563h-34.132812l-38.851563 17.226563c-2.511719 1.269531-5.488281 1.222656-7.957031-.132813-2.46875-1.351563-4.113282-3.835937-4.390625-6.636719v-36.046875c.277343-2.800781 1.921875-5.28125 4.390625-6.636719 2.46875-1.351562 5.445312-1.402343 7.957031-.128906l38.851563 17.222656zm0 0" fill="#a4c2f7"/><path d="m151.011719 158.726562c-.050781-.050781-.125-.074218-.195313-.066406h-.132812c-2.679688.371094-5.332032.921875-7.9375 1.652344-.792969-1.054688 2.710937-4.558594 1.390625-5.023438-2.726563-.859374-5.546875-1.390624-8.398438-1.585937h-.195312c-12.382813-.074219-24.597657 2.902344-35.558594 8.660156-2.222656 1.167969-3.582031 3.503907-3.503906 6.015625.066406 1.320313 1.253906 31.332032 20.953125 41.378906 4.902344 2.371094 10.292968 3.550782 15.734375 3.4375.660156 0 1.320312 0 1.984375-.066406 2.371094-.074218 4.734375-.316406 7.070312-.726562 8.183594-1.496094 16.09375-4.214844 23.46875-8.0625 2.222656-1.171875 3.582032-3.507813 3.503906-6.015625-.066406-1.191407-1.125-28.359375-18.183593-39.597657zm0 0" fill="#fff"/><path d="m312.601562 161.183594c-11.582031-6.085938-24.480468-9.226563-37.558593-9.148438h-.351563c-2.964844.207032-5.894531.769532-8.726562 1.675782-2.117188 1.457031-3.980469 3.246093-5.515625 5.308593-1.183594 0-.765625-1.816406-1.324219-1.816406-.15625-.019531-.308594.03125-.421875.140625-3.523437 2.375-6.558594 5.40625-8.933594 8.933594-2.546875 3.605468-4.566406 7.554687-6.003906 11.730468-2.402344 6.816407-3.835937 13.9375-4.261719 21.152344-.085937 2.652344 1.351563 5.117188 3.699219 6.351563 7.847656 4.121093 16.277344 7.015625 24.996094 8.589843h.210937c2.308594.371094 4.640625.605469 6.980469.695313.082031.070313.199219.070313.28125 0 .625.058594 1.253906.082031 1.882813.070313 5.726562.125 11.398437-1.121094 16.546874-3.628907 20.875-10.613281 22.128907-42.308593 22.199219-43.703125.085938-2.652344-1.351562-5.117187-3.699219-6.351562zm0 0" fill="#fff"/><path d="m237.332031 252.035156-26.703125 27.363282c-1.386718 1.40625-3.28125 2.199218-5.257812 2.199218-1.976563 0-3.871094-.792968-5.257813-2.199218l-26.707031-27.363282c-1.714844-1.714844-2.480469-4.164062-2.046875-6.550781.382813-3.105469 2.636719-5.65625 5.667969-6.417969.542968-.078125 1.089844-.125 1.640625-.132812h53.40625c.550781.007812 1.097656.054687 1.640625.132812 3.03125.761719 5.285156 3.3125 5.667968 6.417969.433594 2.386719-.332031 4.835937-2.050781 6.550781zm0 0" fill="#a4c2f7"/><path d="m196.835938 42.664062h17.066406c4.714844 0 8.535156 3.820313 8.535156 8.535157v17.066406c0 4.710937-3.820312 8.53125-8.535156 8.53125h-17.066406c-4.710938 0-8.53125-3.820313-8.53125-8.53125v-17.066406c0-4.714844 3.820312-8.535157 8.53125-8.535157zm0 0" fill="#e8edfc"/><path d="m163.652344 183.464844c.496094 13.183594-7.867188 25.078125-20.441406 29.070312-1.992188.539063-4.046876.804688-6.105469.796875-.335938.011719-.667969-.011719-.996094-.066406-15.113281-1.507813-26.367187-14.636719-25.554687-29.800781-.832032-15.328125 10.65625-28.550782 25.953124-29.867188h.199219c2.859375.195313 5.691407.730469 8.425781 1.59375 1.328126.464844-2.1875 3.980469-1.390624 5.042969 2.613281-.730469 5.273437-1.285156 7.964843-1.660156h.066407c7.65625 5.964843 12.058593 15.1875 11.878906 24.890625zm0 0" fill="#fff"/><path d="m300.183594 183.464844c.808594 15.089844-10.324219 28.179687-25.351563 29.800781-.074219.066406-.191406.066406-.265625 0-.304687.054687-.617187.078125-.929687.066406-1.925781 0-3.84375-.246093-5.707031-.730469h-.199219c-12.667969-3.941406-21.125-15.878906-20.640625-29.136718-.175782-9.753906 4.28125-19.011719 12.011718-24.957032.53125 0 .132813 1.726563 1.261719 1.726563 1.457031-1.957031 3.230469-3.660156 5.242188-5.042969 2.691406-.863281 5.476562-1.398437 8.296875-1.59375h.332031c15.296875 1.316406 26.78125 14.539063 25.949219 29.867188zm0 0" fill="#fff"/><path d="m154.171875 183.464844c0-21.207032-7.640625-38.398438-17.066406-38.398438s-17.066407 17.191406-17.066407 38.398438c0 21.207031 7.640626 38.398437 17.066407 38.398437s17.066406-17.191406 17.066406-38.398437zm0 0" fill="#7facfa"/><path d="m290.703125 183.464844c0-21.207032-7.640625-38.398438-17.066406-38.398438s-17.066407 17.191406-17.066407 38.398438c0 21.207031 7.640626 38.398437 17.066407 38.398437s17.066406-17.191406 17.066406-38.398437zm0 0" fill="#7facfa"/><path d="m128.570312 170.664062c0-4.710937-7.640624-8.53125-17.066406-8.53125-9.425781 0-17.066406 3.820313-17.066406 8.53125 0 4.714844 7.640625 8.535157 17.066406 8.535157 9.425782 0 17.066406-3.820313 17.066406-8.535157zm0 0" fill="#fff"/><path d="m265.105469 170.664062c0 4.695313-7.679688 8.535157-17.066407 8.535157-4.082031.0625-8.125-.753907-11.863281-2.390625 1.757813-5.101563 4.226563-9.929688 7.339844-14.335938 1.492187-.242187 3.007813-.359375 4.523437-.339844 9.386719 0 17.066407 3.839844 17.066407 8.53125zm0 0" fill="#fff"/><path d="m339.003906 350.460938c-23.011718 14.78125-48.292968 25.679687-74.839844 32.257812-27.859374 6.691406-56.425781 9.984375-85.074218 9.8125-15.863282.042969-31.710938-.925781-47.445313-2.902344-4.097656-.851562-8.109375-1.707031-12.035156-2.730468-26.519531-6.527344-51.777344-17.398438-74.75-32.167969-3.789063-2.398438-6.453125-6.214844-7.402344-10.59375-.945312-4.378907-.09375-8.957031 2.367188-12.703125 1.285156-1.953125 2.9375-3.632813 4.863281-4.949219 17.933594 10.625 37.347656 18.535156 57.601562 23.464844 11.378907 2.804687 22.921876 4.914062 34.558594 6.316406.101563.066406.222656.097656.339844.085937 22.207031 4.578126 44.828125 6.835938 67.5 6.738282 25.886719.167968 51.703125-2.785156 76.886719-8.789063 22.195312-5.503906 43.367187-14.519531 62.71875-26.707031 4.730469 7.796875 2.382812 17.941406-5.289063 22.867188zm0 0" fill="#a4c2f7"/><path d="m9.105469 452.265625v51.199219h25.597656v-51.199219c0-35.753906 12.84375-56.042969 33.898437-80.367187l3.703126-3.863282c-.613282-.390625-1.265626-.710937-1.875-1.101562-2.957032-1.902344-5.121094-16.785156-6.398438-19.777344-3.015625-6.84375-1.023438-14.859375 4.847656-19.492188.449219-.417968.917969-.8125 1.410156-1.179687l.050782.027344c5-3.253907 11.496094 3.46875 17.035156 6.285156-12.023438-9.488281-22.015625-27.683594-29.375-40.277344-9.886719-17.046875-14.984375-36.445312-14.761719-56.148437.292969-21.949219 5.328125-43.578125 14.761719-63.402344 5.511719-11.902344 12.292969-23.175781 20.222656-33.621094v-.085937c-3.121094-40.273438 4.722656-80.644531 22.699219-116.820313l.007813-.015625c-3.242188-2.65625-6.597657-5.328125-10.160157-8.007812-1.992187-1.554688-4.570312-2.148438-7.039062-1.621094-2.472657.527344-4.582031 2.121094-5.761719 4.355469-.855469 1.535156-1.707031 3.324218-2.644531 5.289062-17.980469 36.175782-25.824219 76.546875-22.699219 116.820313v.085937c-7.933594 10.445313-14.714844 21.71875-20.226562 33.621094-9.429688 19.824219-14.46875 41.453125-14.761719 63.402344-.222657 19.703125 4.878906 39.101562 14.761719 56.148437 7.628906 12.789063 17.59375 24.03125 29.378906 33.136719-5.425782-2.777344-11.917969-2.453125-17.039063.855469l-.050781-.027344c-.492188.367187-.960938.761719-1.414062 1.179687-4.167969 3.378907-6.457032 8.5625-6.148438 13.921876.304688 5.359374 3.171875 10.242187 7.699219 13.125.613281.398437 1.265625.714843 1.878906 1.105468l-3.703125 3.867188c-22.070312 25.777344-34.101562 58.648437-33.894531 92.582031zm0 0" fill="#fff"/><path d="m51.628906 365.480469c-11.789062 12.777343-20.875 27.808593-26.707031 44.1875-2.902344 8.167969-4.945313 16.617187-6.089844 25.210937-1.054687 8.800782-1.453125 17.667969-1.195312 26.527344v42.058594h-17.066407v-42.058594c-.261718-9.628906.191407-19.261719 1.347657-28.824219 1.304687-9.75 3.621093-19.335937 6.914062-28.605469 6.609375-18.570312 16.910157-35.613281 30.28125-50.097656zm0 0" fill="#fff"/><g fill="#428dff"><path d="m21.707031 394.972656c4.128907 1.925782 9.046875.390625 11.347657-3.542968 5.097656-9.386719 11.335937-18.101563 18.574218-25.949219l-12.519531-11.597657c-8.207031 8.894532-15.28125 18.773438-21.058594 29.40625-1.15625 2.015626-1.417969 4.425782-.726562 6.640626.695312 2.21875 2.28125 4.046874 4.382812 5.042968zm0 0"/><path d="m.570312 503.464844h17.066407v-50.59375c-.101563-4.570313-3.714844-8.292969-8.28125-8.527344-2.316407-.101562-4.574219.753906-6.234375 2.367188-1.664063 1.613281-2.585938 3.84375-2.550782 6.160156zm0 0"/><path d="m21.464844 421.140625c.496094-2.097656.183594-4.304687-.878906-6.179687l-.921876-1.308594c-.363281-.441406-.78125-.832032-1.242187-1.167969-.390625-.375-.832031-.691406-1.3125-.9375-.507813-.261719-1.035156-.488281-1.574219-.679687-2.183594-.667969-4.542968-.441407-6.558594.628906-.996093.597656-1.851562 1.402344-2.519531 2.351562-2.148437 2.902344-2.363281 6.808594-.539062 9.925782.621093.949218 1.4375 1.75 2.394531 2.359374.925781.628907 1.972656 1.0625 3.070312 1.277344 2.214844.355469 4.480469-.078125 6.40625-1.222656 1.8125-1.164062 3.121094-2.964844 3.675782-5.046875zm0 0"/><path d="m401.636719 512h-392.53125c-4.714844 0-8.535157-3.820312-8.535157-8.535156 0-4.710938 3.820313-8.53125 8.535157-8.53125h384v-42.667969c.042969-32.183594-12.101563-63.191406-33.992188-86.785156-2.074219-2.234375-2.796875-5.40625-1.898437-8.320313.902344-2.914062 3.285156-5.125 6.257812-5.804687 2.976563-.675781 6.082032.285156 8.15625 2.519531 24.820313 26.746094 38.59375 61.902344 38.542969 98.390625v51.199219c0 4.714844-3.820313 8.535156-8.535156 8.535156zm0 0"/><path d="m205.371094 409.597656c-29.492188.179688-58.894532-3.214844-87.566406-10.113281-27.539063-6.773437-53.777344-18.03125-77.664063-33.320313-5.707031-3.625-9.726563-9.390624-11.148437-16.003906-1.421876-6.609375-.132813-13.515625 3.578124-19.171875 7.777344-11.699219 23.488282-15.019531 35.335938-7.472656 19.160156 12.253906 40.199219 21.277344 62.285156 26.707031 24.621094 5.898438 49.863282 8.789063 75.179688 8.613282 25.292968.179687 50.511718-2.707032 75.113281-8.59375 22.105469-5.429688 43.171875-14.460938 62.351563-26.726563 11.847656-7.570313 27.578124-4.242187 35.339843 7.480469 3.710938 5.652344 4.996094 12.558594 3.574219 19.167968-1.421875 6.609376-5.4375 12.375-11.144531 16-23.910157 15.292969-50.171875 26.554688-77.730469 33.339844-28.652344 6.886719-58.035156 10.277344-87.503906 10.09375zm-151.347656-73.078125c-2.886719-.011719-5.589844 1.429688-7.1875 3.839844-1.203126 1.8125-1.625 4.039063-1.164063 6.167969.464844 2.179687 1.789063 4.078125 3.671875 5.269531 22.316406 14.28125 46.828125 24.796875 72.554688 31.125 27.335937 6.5625 55.363281 9.789063 83.472656 9.609375 28.085937.179688 56.09375-3.042969 83.40625-9.59375 25.75-6.335938 50.285156-16.859375 72.628906-31.148438 1.878906-1.1875 3.203125-3.085937 3.667969-5.261718.457031-2.128906.039062-4.355469-1.167969-6.171875-2.617188-3.921875-7.898438-5.019531-11.867188-2.46875-20.75 13.273437-43.539062 23.042969-67.460937 28.925781-25.9375 6.21875-52.535156 9.273438-79.207031 9.089844-26.695313.179687-53.316406-2.878906-79.273438-9.109375-23.898437-5.875-46.664062-15.640625-67.390625-28.902344-1.398437-.894531-3.023437-1.371094-4.683593-1.371094zm0 0"/><path d="m205.371094 375.464844c-25.304688.183594-50.535156-2.742188-75.125-8.703125-22.0625-5.214844-43.109375-14.039063-62.292969-26.113281-17.558594-11.023438-32.261719-26.039063-42.917969-43.820313-10.640625-18.355469-16.144531-39.238281-15.929687-60.457031.261719-23.1875 5.566406-46.042969 15.542969-66.972656 5.308593-11.464844 11.738281-22.371094 19.203124-32.566407-2.8125-46.433593 8.207032-92.65625 31.664063-132.828125 1.246094-1.992187 3.257813-3.378906 5.5625-3.839844 2.300781-.457031 4.691406.050782 6.605469 1.410157 20.652344 14.457031 39.433594 31.417969 55.914062 50.492187 2.023438 2.3125 2.644532 5.539063 1.625 8.4375-1.015625 2.902344-3.515625 5.03125-6.539062 5.574219-3.027344.542969-6.109375-.582031-8.074219-2.945313-13.453125-15.605468-28.570313-29.6875-45.085937-42-18.84375 36.070313-27.296876 76.667969-24.410157 117.261719.027344.289063.042969.578125.042969.867188 0 1.894531-.609375 3.734375-1.742188 5.25-7.554687 9.957031-14.019531 20.699219-19.273437 32.042969-8.9375 18.691406-13.703125 39.101562-13.96875 59.816406-.203125 18.1875 4.492187 36.09375 13.59375 51.84375 9.320313 15.472656 22.15625 28.527344 37.46875 38.105468 17.609375 11.050782 36.921875 19.121094 57.15625 23.886719 23.238281 5.621094 47.074219 8.371094 70.980469 8.191407 23.902344.179687 47.734375-2.570313 70.964844-8.191407 20.242187-4.765625 39.558593-12.835937 57.175781-23.886719 15.3125-9.578124 28.148437-22.632812 37.464843-38.105468 9.101563-15.746094 13.796876-33.65625 13.59375-51.84375-.265624-20.722656-5.035156-41.136719-13.980468-59.832032-5.28125-11.40625-11.777344-22.207031-19.371094-32.226562-1.292969-1.714844-1.890625-3.855469-1.675781-5.996094 2.871093-40.578125-5.609375-81.15625-24.484375-117.191406-16.445313 12.292969-31.511719 26.328125-44.941406 41.855469-1.984376 2.316406-5.054688 3.398437-8.050782 2.835937s-5.464844-2.679687-6.480468-5.554687c-1.011719-2.875-.414063-6.074219 1.570312-8.386719 16.453125-18.984375 35.171875-35.878906 55.734375-50.304688 1.917969-1.355468 4.304687-1.863281 6.605469-1.40625 2.300781.460938 4.3125 1.851563 5.558594 3.839844 23.386718 40.160156 34.4375 86.3125 31.773437 132.710938 7.488281 10.234375 13.945313 21.183594 19.265625 32.691406 9.980469 20.929688 15.28125 43.78125 15.542969 66.964844.214843 21.214844-5.289063 42.097656-15.929688 60.449218-10.652343 17.78125-25.359375 32.796876-42.914062 43.816407-19.191407 12.082031-40.242188 20.90625-62.308594 26.125-24.589844 5.960937-49.816406 8.882812-75.113281 8.703125zm0 0"/><path d="m239.503906 477.863281h-68.265625c-2.742187 0-5.320312-1.320312-6.921875-3.542969-1.605468-2.226562-2.039062-5.085937-1.175781-7.6875l8.097656-24.285156v-15.683594c0-18.851562 15.28125-34.132812 34.132813-34.132812 18.851562 0 34.132812 15.28125 34.132812 34.132812v15.683594l8.09375 24.285156c.867188 2.601563.429688 5.460938-1.171875 7.6875-1.605469 2.222657-4.179687 3.542969-6.921875 3.542969zm-56.429687-17.066406h44.59375l-4.792969-14.363281c-.289062-.871094-.4375-1.785156-.4375-2.703125v-17.066407c0-9.425781-7.640625-17.066406-17.066406-17.066406-9.425782 0-17.066406 7.640625-17.066406 17.066406v17.066407c0 .917969-.148438 1.832031-.4375 2.703125zm0 0"/><path d="m85.902344 512c-2.894532-.003906-5.589844-1.472656-7.160156-3.902344-1.570313-2.429687-1.804688-5.492187-.617188-8.132812 16.691406-37.085938 1.558594-58.800782.90625-59.710938-2.707031-3.785156-1.882812-9.039062 1.851562-11.816406 3.738282-2.773438 9.007813-2.042969 11.847657 1.640625.90625 1.210937 21.984375 30.167969.957031 76.886719-1.375 3.0625-4.421875 5.035156-7.785156 5.035156zm0 0"/><path d="m324.839844 512c-3.359375 0-6.40625-1.972656-7.785156-5.035156-21.027344-46.722656.050781-75.675782.957031-76.886719 2.8125-3.78125 8.160156-4.566406 11.941406-1.757813 3.78125 2.8125 4.566406 8.160157 1.753906 11.941407-.734375 1.023437-15.734375 22.722656.914063 59.703125 1.1875 2.640625.953125 5.703125-.617188 8.132812-1.570312 2.429688-4.269531 3.898438-7.164062 3.902344zm0 0"/><path d="m213.902344 85.332031h-17.066406c-9.421876-.007812-17.054688-7.644531-17.066407-17.066406v-17.066406c.011719-9.421875 7.644531-17.058594 17.066407-17.066407h17.066406c9.421875.007813 17.058594 7.644532 17.066406 17.066407v17.066406c-.007812 9.421875-7.644531 17.058594-17.066406 17.066406zm-17.066406-34.132812v17.066406h17.082031l-.015625-17.066406zm0 0"/><path d="m145.609375 93.882812c-3.4375 0-6.804687-1-9.683594-2.875-4.542969-2.882812-7.3125-7.871093-7.355469-13.25v-36.050781c.042969-5.378906 2.8125-10.367187 7.355469-13.25 5.070313-3.296875 11.46875-3.792969 16.984375-1.316406l38.851563 17.222656c2.996093 1.328125 4.96875 4.257813 5.070312 7.53125.105469 3.277344-1.675781 6.320313-4.582031 7.835938 2.90625 1.515625 4.6875 4.5625 4.582031 7.835937-.101562 3.277344-2.074219 6.203125-5.070312 7.53125l-38.851563 17.226563c-2.296875 1.023437-4.785156 1.554687-7.300781 1.558593zm.027344-51.304687v33.941406l38.675781-16.789062-38.316406-16.984375c-.136719-.003906-.269532-.0625-.359375-.167969zm0 0"/><path d="m265.132812 93.882812c-2.515624-.003906-5.003906-.535156-7.304687-1.558593l-38.847656-17.226563c-2.996094-1.328125-4.96875-4.253906-5.070313-7.53125-.105468-3.273437 1.675782-6.320312 4.582032-7.835937-2.90625-1.515625-4.6875-4.558594-4.582032-7.835938.101563-3.273437 2.074219-6.203125 5.070313-7.53125l38.847656-17.222656c5.519531-2.476563 11.917969-1.980469 16.988281 1.316406 4.539063 2.882813 7.308594 7.871094 7.355469 13.25v36.050781c-.046875 5.378907-2.816406 10.367188-7.355469 13.25-2.882812 1.875-6.246094 2.875-9.683594 2.875zm-38.703124-34.148437 38.3125 16.988281c.140624 0 .269531.058594.363281.160156v-33.9375zm0 0"/><path d="m205.371094 290.132812c-4.289063.007813-8.394532-1.730468-11.371094-4.8125l-26.679688-27.394531c-4.574218-4.695312-5.882812-11.679687-3.316406-17.714843 2.472656-5.929688 8.261719-9.800782 14.6875-9.8125h53.359375c6.425781.011718 12.214844 3.882812 14.6875 9.8125 2.5625 6.035156 1.257813 13.019531-3.316406 17.71875l-26.675781 27.386718c-2.980469 3.085938-7.085938 4.824219-11.375 4.816406zm.835937-16.738281.015625.011719zm-25.859375-25.929687 25.015625 25.078125 24.421875-25.078125zm0 0"/><path d="m205.371094 315.730469c-4.714844 0-8.535156-3.820313-8.535156-8.53125v-25.601563c0-4.710937 3.820312-8.53125 8.535156-8.53125 4.710937 0 8.53125 3.820313 8.53125 8.53125v25.601563c0 4.710937-3.820313 8.53125-8.53125 8.53125zm0 0"/><path d="m179.769531 341.332031c-3.449219 0-6.558593-2.082031-7.882812-5.269531-1.320313-3.1875-.589844-6.855469 1.851562-9.296875l23.097657-23.101563v-22.066406c0-4.710937 3.820312-8.53125 8.535156-8.53125 4.710937 0 8.53125 3.820313 8.53125 8.53125v25.601563c0 2.261719-.898438 4.433593-2.5 6.03125l-25.597656 25.601562c-1.597657 1.601563-3.769532 2.503907-6.035157 2.5zm0 0"/><path d="m133.28125 221.90625c-7.023438.140625-13.980469-1.394531-20.292969-4.476562-25.421875-12.972657-27.023437-51.742188-27.078125-53.390626-.109375-3.253906 1.644532-6.289062 4.519532-7.820312 1.324218-.707031 32.683593-17.152344 56.960937-9.101562 1.648437.546874 3.09375 1.585937 4.136719 2.980468 1.695312.019532 3.355468.507813 4.792968 1.414063 22.027344 14.554687 23.402344 49.648437 23.449219 51.132812.101563 3.246094-1.644531 6.269531-4.503906 7.800781-12.980469 6.859376-27.316406 10.773438-41.984375 11.460938zm-29.816406-52.992188c1.40625 10.46875 5.964844 27.539063 17.292968 33.316407 11.863282 6.066406 30.867188.171875 41.457032-4.445313-1.296875-9.71875-5.363282-25.464844-15.308594-32.03125-.816406-.542968-1.53125-1.21875-2.121094-2-.945312.078125-1.894531-.070312-2.773437-.433594-11.855469-3.945312-28.886719 1.441407-38.546875 5.59375zm0 0"/><path d="m277.460938 221.90625c-14.667969-.683594-29.003907-4.597656-41.984376-11.460938-2.863281-1.53125-4.605468-4.554687-4.503906-7.800781.046875-1.484375 1.421875-36.578125 23.449219-51.132812 1.429687-.921875 3.09375-1.414063 4.792969-1.410157 1.042968-1.394531 2.484375-2.433593 4.136718-2.980468 24.253907-8.046875 55.640626 8.390625 56.960938 9.101562 2.875 1.527344 4.628906 4.5625 4.519531 7.820313-.054687 1.644531-1.65625 40.417969-27.089843 53.390625-6.308594 3.082031-13.261719 4.617187-20.28125 4.472656zm-28.9375-24.132812c10.609374 4.609374 29.65625 10.484374 41.449218 4.460937 12.054688-6.148437 16.011719-24.199219 17.257813-33.335937-9.675781-4.152344-26.667969-9.511719-38.5-5.578126-.867188.394532-1.828125.546876-2.773438.433594-.589843.78125-1.308593 1.457032-2.125 2-9.9375 6.5625-14.003906 22.292969-15.308593 32.019532zm0 0"/><path d="m128.5625 264.53125c-1.671875 0-3.308594-.492188-4.703125-1.417969-19.417969-10.773437-41.355469-16.175781-63.554687-15.648437-4.714844 0-8.535157-3.820313-8.535157-8.53125 0-4.714844 3.820313-8.535156 8.535157-8.535156 25.570312-.65625 50.828124 5.746093 73 18.5 3.128906 2.085937 4.523437 5.976562 3.429687 9.578124-1.089844 3.597657-4.410156 6.058594-8.171875 6.054688zm0 0"/><path d="m77.378906 307.199219c-3.761718.003906-7.082031-2.457031-8.171875-6.058594-1.09375-3.597656.300781-7.488281 3.429688-9.574219 16.613281-11.144531 35.953125-17.542968 55.933593-18.5 4.714844-.007812 8.539063 3.808594 8.542969 8.523438.007813 4.710937-3.808593 8.535156-8.523437 8.542968-16.601563 1.015626-32.640625 6.410157-46.484375 15.632813-1.398438.933594-3.042969 1.433594-4.726563 1.433594zm0 0"/><path d="m282.179688 264.53125c-3.761719.003906-7.082032-2.457031-8.175782-6.054688-1.089844-3.601562.304688-7.492187 3.433594-9.578124 22.171875-12.753907 47.429688-19.15625 73-18.5 4.710938 0 8.53125 3.820312 8.53125 8.535156 0 4.710937-3.820312 8.53125-8.53125 8.53125-22.199219-.609375-44.152344 4.792968-63.535156 15.632812-1.394532.9375-3.039063 1.433594-4.722656 1.433594zm0 0"/><path d="m333.363281 307.199219c-1.683593 0-3.328125-.5-4.726562-1.433594-13.8125-9.273437-29.859375-14.671875-46.464844-15.632813-4.714844 0-8.535156-3.820312-8.535156-8.535156 0-4.710937 3.820312-8.53125 8.535156-8.53125 19.980469.957032 39.320313 7.355469 55.933594 18.5 3.128906 2.085938 4.523437 5.976563 3.429687 9.574219-1.089844 3.601563-4.410156 6.0625-8.171875 6.058594zm0 0"/><path d="m230.96875 341.332031c-2.261719.003907-4.433594-.898437-6.03125-2.5l-25.601562-25.601562c-3.230469-3.347657-3.1875-8.667969.105468-11.960938 3.292969-3.292969 8.613282-3.339843 11.960938-.105469l25.601562 25.601563c2.441406 2.441406 3.167969 6.109375 1.847656 9.296875-1.320312 3.1875-4.429687 5.269531-7.882812 5.269531zm0 0"/><path d="m171.238281 170.664062c-39.824219 0-50.335937-30.148437-50.761719-31.433593-1.511718-4.464844.882813-9.308594 5.347657-10.816407 4.464843-1.511718 9.304687.882813 10.816406 5.347657.347656.953125 7.507813 19.835937 34.597656 19.835937 4.710938 0 8.53125 3.820313 8.53125 8.535156 0 4.710938-3.820312 8.53125-8.53125 8.53125zm0 0"/><path d="m239.503906 170.664062c-4.710937 0-8.535156-3.820312-8.535156-8.53125 0-4.714843 3.824219-8.535156 8.535156-8.535156 27.664063 0 34.503906-19.566406 34.570313-19.765625.964843-2.890625 3.398437-5.050781 6.386719-5.660156 2.988281-.613281 6.074218.417969 8.09375 2.699219 2.023437 2.28125 2.675781 5.46875 1.710937 8.359375-.429687 1.285156-10.9375 31.433593-50.761719 31.433593zm0 0"/></g></svg>