<svg height="512pt" viewBox="-51 0 512 512.00201" width="512pt" xmlns="http://www.w3.org/2000/svg"><path d="m401.527344 452.269531v51.199219h-392.535156v-51.199219c-.054688-34.339843 12.902343-67.421875 36.269531-92.585937l16.382812-15.957032h12.457031l266.667969-.941406h12.886719l.425781 6.570313 11.179688 10.328125c23.363281 25.164062 36.324219 58.246094 36.265625 92.585937zm0 0" fill="#cad9fc"/><path d="m375.925781 452.269531.003907 51.199219h-366.9375v-51.199219c-.203126-33.9375 11.832031-66.808593 33.898437-92.585937l15.289063-15.957032 273.015624-.941406.4375 6.570313 10.394532 10.328125c22.070312 25.777344 34.105468 58.648437 33.898437 92.585937zm0 0" fill="#e8edfc"/><path d="m204.609375 396.800781c-28.671875.179688-57.253906-3.132812-85.121094-9.863281-26.527343-6.554688-51.792969-17.441406-74.773437-32.222656-3.773438-2.410156-6.429688-6.230469-7.371094-10.605469-.941406-4.378906-.09375-8.949219 2.355469-12.699219 5.148437-7.8125 15.625-10.03125 23.496093-4.972656 19.839844 12.757812 41.648438 22.152344 64.546876 27.8125 25.167968 6.058594 50.980468 9.035156 76.867187 8.855469 25.867187.179687 51.660156-2.789063 76.8125-8.839844 22.917969-5.664063 44.746094-15.066406 64.601563-27.828125 7.871093-5.066406 18.355468-2.847656 23.5 4.972656 2.449218 3.75 3.296874 8.320313 2.355468 12.699219-.945312 4.375-3.597656 8.195313-7.371094 10.605469-23.003906 14.785156-48.285156 25.675781-74.832031 32.238281-27.851562 6.722656-56.417969 10.03125-85.066406 9.847656zm0 0" fill="#7facfa"/><path d="m392.992188 236.375c.222656 19.703125-4.875 39.101562-14.761719 56.148438-9.996094 16.621093-23.765625 30.652343-40.191407 40.960937-18.402343 11.558594-38.585937 20.003906-59.734374 25.003906-23.910157 5.785157-48.441407 8.621094-73.042969 8.445313-4.355469 0-8.621094-.082032-12.800781-.253906-20.3125-.625-40.503907-3.371094-60.246094-8.191407-21.148438-5-41.328125-13.445312-59.734375-25.003906-16.425781-10.308594-30.195313-24.339844-40.191407-40.960937-9.882812-17.046876-14.984374-36.445313-14.761718-56.148438.292968-21.949219 5.328125-43.578125 14.761718-63.402344 5.511719-11.902344 12.292969-23.175781 20.222657-33.621094v-.085937c-3.121094-40.277344 4.722656-80.644531 22.699219-116.820313.941406-1.964843 1.792968-3.753906 2.648437-5.292968 1.179687-2.230469 3.289063-3.824219 5.761719-4.351563 2.46875-.527343 5.046875.066407 7.035156 1.621094 19.164062 14.238281 36.453125 30.839844 51.457031 49.410156 1.707031 2.046875 3.242188 4.011719 4.695313 5.886719 14.730468-5.160156 30.082031-8.34375 45.652344-9.472656 4.265624-.339844 8.53125-.511719 12.800781-.511719 19.878906-.015625 39.621093 3.359375 58.367187 9.984375 13.332032-17.558594 28.746094-33.433594 45.910156-47.273438 3.15625-2.644531 6.570313-5.375 10.152344-8.023437 1.992188-1.554687 4.566406-2.148437 7.039063-1.621094 2.46875.527344 4.582031 2.121094 5.761719 4.351563 19.703124 37.503906 28.511718 79.777344 25.429687 122.027344 7.960937 10.503906 14.769531 21.835937 20.308594 33.792968 9.433593 19.824219 14.46875 41.453125 14.761719 63.402344zm0 0" fill="#cad9fc"/><path d="m367.394531 236.375c.222657 19.703125-4.878906 39.101562-14.765625 56.148438-9.996094 16.621093-23.761718 30.652343-40.191406 40.960937-18.402344 11.558594-38.582031 20.003906-59.730469 25.003906-19.742187 4.820313-39.933593 7.566407-60.246093 8.191407-20.3125-.625-40.503907-3.371094-60.246094-8.191407-21.148438-5-41.328125-13.445312-59.734375-25.003906-16.425781-10.308594-30.195313-24.339844-40.191407-40.960937-9.882812-17.046876-14.984374-36.445313-14.761718-56.148438.292968-21.949219 5.328125-43.578125 14.761718-63.402344 5.511719-11.902344 12.292969-23.175781 20.222657-33.621094v-.085937c-3.121094-40.277344 4.722656-80.644531 22.699219-116.820313 17.164062 13.863282 32.605468 29.738282 45.996093 47.273438 6.835938-2.398438 13.820313-4.367188 20.90625-5.886719 12.332031-2.710937 24.921875-4.082031 37.546875-4.097656 4.351563 0 8.617188.171875 12.800782.511719 15.546874 1.078125 30.878906 4.261718 45.566406 9.472656 1.453125-1.875 2.988281-3.925781 4.609375-5.972656 7.113281 1.550781 14.125 3.542968 20.992187 5.972656 13.332032-17.558594 28.746094-33.433594 45.910156-47.273438 17.929688 36.160157 25.800782 76.484376 22.78125 116.734376 7.960938 10.503906 14.769532 21.835937 20.308594 33.792968 9.433594 19.824219 14.46875 41.453125 14.765625 63.402344zm0 0" fill="#e8edfc"/><path d="m130.421875 76.632812c-23.234375 10.9375-44.195313 26.164063-61.78125 44.882813.441406-30.105469 7.1875-59.785156 19.796875-87.125 15.558594 12.4375 29.644531 26.609375 41.984375 42.242187zm0 0" fill="#cad9fc"/><path d="m341.792969 121.429688c-17.613281-18.71875-38.605469-33.949219-61.867188-44.882813 12.355469-15.597656 26.4375-29.738281 41.984375-42.15625 12.648438 27.300781 19.421875 56.957031 19.882813 87.039063zm0 0" fill="#cad9fc"/><path d="m239.394531 469.335938h-68.269531l8.535156-25.601563v-17.066406c0-14.136719 11.460938-25.597657 25.601563-25.597657 14.136719 0 25.597656 11.460938 25.597656 25.597657v17.066406zm0 0" fill="#e8edfc"/><path d="m222.328125 52.167969 38.847656-17.222657c2.511719-1.273437 5.492188-1.222656 7.957031.128907 2.46875 1.355469 4.113282 3.835937 4.394532 6.636719v36.046874c-.28125 2.800782-1.925782 5.285157-4.394532 6.636719-2.464843 1.355469-5.445312 1.402344-7.957031.132813l-38.847656-17.226563h-34.132813l-38.851562 17.226563c-2.511719 1.269531-5.488281 1.222656-7.957031-.132813-2.46875-1.351562-4.113281-3.835937-4.394531-6.636719v-36.046874c.28125-2.800782 1.925781-5.28125 4.394531-6.636719 2.46875-1.351563 5.445312-1.402344 7.957031-.128907l38.851562 17.222657zm0 0" fill="#a4c2f7"/><path d="m237.222656 243.503906-26.703125 27.363282c-1.386719 1.410156-3.28125 2.203124-5.257812 2.203124-1.980469 0-3.871094-.792968-5.261719-2.203124l-26.703125-27.363282c-1.71875-1.714844-2.484375-4.164062-2.046875-6.550781.382812-3.105469 2.632812-5.652344 5.667969-6.414063.542969-.078124 1.089843-.125 1.636719-.136718h53.410156c.546875.011718 1.09375.058594 1.640625.136718 3.03125.761719 5.285156 3.308594 5.667969 6.414063.433593 2.386719-.332032 4.835937-2.050782 6.550781zm0 0" fill="#a4c2f7"/><path d="m196.726562 42.667969h17.066407c4.714843 0 8.535156 3.820312 8.535156 8.535156v17.066406c0 4.710938-3.820313 8.53125-8.535156 8.53125h-17.066407c-4.710937 0-8.53125-3.820312-8.53125-8.53125v-17.066406c0-4.714844 3.820313-8.535156 8.53125-8.535156zm0 0" fill="#e8edfc"/><path d="m338.890625 350.464844c-23.007813 14.78125-48.292969 25.679687-74.835937 32.257812-27.859376 6.691406-56.425782 9.984375-85.078126 9.8125-15.859374.042969-31.707031-.925781-47.445312-2.902344-4.09375-.851562-8.105469-1.707031-12.03125-2.730468-26.519531-6.527344-51.777344-17.398438-74.75-32.167969-3.789062-2.398437-6.453125-6.214844-7.402344-10.59375-.945312-4.382813-.09375-8.957031 2.367188-12.703125 1.28125-1.953125 2.933594-3.632812 4.863281-4.949219 17.933594 10.625 37.34375 18.535157 57.597656 23.464844 11.382813 2.804687 22.925781 4.914063 34.5625 6.316406.097657.066407.21875.097657.339844.085938 22.207031 4.578125 44.828125 6.835937 67.5 6.738281 25.886719.164062 51.703125-2.785156 76.882813-8.789062 22.199218-5.503907 43.371093-14.523438 62.722656-26.707032 4.730468 7.796875 2.382812 17.941406-5.292969 22.867188zm0 0" fill="#a4c2f7"/><path d="m8.992188 452.269531v51.199219h25.601562v-51.199219c-.207031-33.9375 11.828125-66.808593 33.898438-92.585937l3.703124-3.867188c-.617187-.390625-1.269531-.707031-1.878906-1.101562-5.386718-3.417969-8.335937-9.625-7.578125-15.960938.386719-4.371094 2.570313-8.386718 6.027344-11.085937.449219-.417969.921875-.8125 1.410156-1.179688l.054688.027344c5-3.253906 11.496093 3.46875 17.035156 6.285156-12.027344-9.488281-22.015625-27.683593-29.375-40.277343-9.886719-17.046876-14.988281-36.445313-14.765625-56.148438.296875-21.949219 5.332031-43.578125 14.765625-63.402344 5.511719-11.902344 12.292969-23.175781 20.222656-33.621094v-.085937c-3.121093-40.277344 4.722657-80.644531 22.699219-116.820313l.007812-.015624c-3.242187-2.660157-6.597656-5.328126-10.164062-8.007813-1.988281-1.554687-4.566406-2.148437-7.035156-1.621094-2.472656.527344-4.582032 2.121094-5.761719 4.351563-.855469 1.539062-1.707031 3.328125-2.648437 5.292968-17.976563 36.175782-25.820313 76.542969-22.699219 116.820313v.085937c-7.929688 10.445313-14.710938 21.71875-20.222657 33.621094-9.433593 19.824219-14.46875 41.453125-14.761718 63.402344-.222656 19.703125 4.878906 39.101562 14.761718 56.148438 7.628907 12.789062 17.59375 24.03125 29.375 33.132812-5.421874-2.773438-11.917968-2.449219-17.035156.859375l-.050781-.027344c-.492187.367188-.964844.761719-1.414063 1.175781-4.167968 3.382813-6.457031 8.566407-6.152343 13.925782.308593 5.359375 3.175781 10.242187 7.703125 13.125.613281.398437 1.265625.714844 1.875 1.105468l-3.703125 3.863282c-22.066407 25.78125-34.097657 58.652344-33.894531 92.585937zm0 0" fill="#fff"/><path d="m53.519531 365.539062c-11.933593 12.679688-21.238281 27.59375-27.382812 43.882813-3.058594 8.121094-5.273438 16.53125-6.609375 25.105469-1.25 8.765625-1.824219 17.617187-1.714844 26.46875l-.746094 42.621094-17.066406-.296876.746094-42.621093c-.09375-9.644531.550781-19.28125 1.921875-28.824219 1.511719-9.710938 4.023437-19.242188 7.488281-28.4375 6.9375-18.421875 17.457031-35.285156 30.949219-49.617188zm0 0" fill="#fff"/><g fill="#428dff"><path d="m23.183594 394.667969c4.101562 1.992187 9.042968.53125 11.402344-3.367188 5.246093-9.320312 11.605468-17.972656 18.933593-25.761719l-12.414062-11.714843c-8.28125 8.800781-15.464844 18.574219-21.394531 29.105469-1.1875 1.996093-1.484376 4.398437-.828126 6.628906.660157 2.226562 2.21875 4.078125 4.300782 5.109375zm0 0"/><path d="m.00390625 503.320312 17.06640575.296876.894532-51.152344c-.03125-4.558594-3.550782-8.328125-8.09375-8.667969-2.320313-.160156-4.601563.652344-6.304688 2.238281-1.699218 1.585938-2.664062 3.804688-2.667968 6.132813zm0 0"/><path d="m22.460938 420.84375c.519531-2.089844.253906-4.300781-.753907-6.203125l-.902343-1.324219c-.355469-.449218-.765626-.851562-1.222657-1.195312-.382812-.382813-.820312-.707032-1.296875-.964844-.503906-.265625-1.023437-.503906-1.558594-.699219-2.167968-.710937-4.53125-.53125-6.5625.5-1.015624.570313-1.894531 1.355469-2.574218 2.300781-2.210938 2.855469-2.496094 6.757813-.730469 9.90625.601563.953126 1.394531 1.769532 2.328125 2.402344.917969.648438 1.957031 1.101563 3.050781 1.339844 2.210938.398438 4.492188.011719 6.445313-1.089844 1.824218-1.140625 3.167968-2.910156 3.777344-4.972656zm0 0"/><path d="m401.070312 512.003906h-392.535156c-4.710937 0-8.535156-3.824218-8.535156-8.535156 0-4.714844 3.824219-8.535156 8.535156-8.535156h384.148438l.746094-42.816406c.671874-31.980469-10.933594-63.007813-32.433594-86.699219-3.074219-3.496094-2.773438-8.8125.671875-11.945313 3.449219-3.132812 8.769531-2.921875 11.960937.472656 24.421875 26.90625 37.613282 62.144532 36.863282 98.472657l-.898438 51.199219c-.082031 4.652343-3.875 8.382812-8.523438 8.386718zm0 0"/><path d="m206.523438 409.601562c-29.4375.1875-58.785157-3.210937-87.402344-10.117187-27.382813-6.753906-53.449219-18.019531-77.132813-33.339844-5.65625-3.636719-9.601562-9.410156-10.929687-16.003906-1.363282-6.671875.027344-13.609375 3.863281-19.234375 7.867187-11.628906 23.554687-14.894531 35.40625-7.363281 18.960937 12.265625 39.835937 21.285156 61.765625 26.6875 24.5625 5.902343 49.753906 8.792969 75.015625 8.609375 25.347656.171875 50.621094-2.710938 75.277344-8.59375 22.265625-5.457032 43.496093-14.492188 62.871093-26.753906 11.847657-7.582032 27.59375-4.191407 35.269532 7.597656 3.605468 5.613281 4.804687 12.441406 3.328125 18.949218-1.480469 6.695313-5.589844 12.515626-11.398438 16.15625-24.117187 15.265626-50.546875 26.519532-78.265625 33.320313-28.710937 6.875-58.144531 10.261719-87.667968 10.085937zm-150.074219-73.082031c-2.960938.003907-5.722657 1.476563-7.375 3.929688-1.265625 1.832031-1.730469 4.097656-1.289063 6.28125.421875 2.097656 1.679688 3.9375 3.484375 5.089843 22.09375 14.289063 46.414063 24.800782 71.960938 31.101563 27.273437 6.570313 55.242187 9.800781 83.292969 9.613281 28.144531.171875 56.210937-3.046875 83.585937-9.59375 25.933594-6.363281 50.660156-16.890625 73.21875-31.171875 1.964844-1.222656 3.359375-3.179687 3.867187-5.4375.476563-2.078125.097657-4.261719-1.050781-6.058593-2.609375-3.882813-7.855469-4.933594-11.757812-2.359376-20.929688 13.242188-43.867188 23.003907-67.921875 28.902344-25.988282 6.210938-52.632813 9.265625-79.355469 9.089844-26.648437.183594-53.21875-2.875-79.128906-9.113281-23.761719-5.859375-46.378907-15.636719-66.929688-28.929688-1.371093-.882812-2.972656-1.351562-4.601562-1.34375zm0 0"/><path d="m202.960938 375.46875c-25.257813.1875-50.441407-2.734375-74.984376-8.703125-21.941406-5.203125-42.859374-14.039063-61.886718-26.136719-17.390625-11.039062-31.871094-26.089844-42.226563-43.894531-10.347656-18.445313-15.496093-39.359375-14.890625-60.5.6875-23.253906 6.386719-46.085937 16.703125-66.933594 5.515625-11.472656 12.140625-22.378906 19.777344-32.5625-1.917969-46.644531 9.890625-92.824219 33.964844-132.824219 1.265625-1.964843 3.285156-3.324218 5.582031-3.757812 2.296875-.4375 4.671875.089844 6.570312 1.453125 20.410157 14.464844 38.914063 31.441406 55.074219 50.53125 2.027344 2.332031 2.636719 5.578125 1.59375 8.484375-1.046875 2.910156-3.582031 5.027344-6.628906 5.535156-3.050781.503906-6.136719-.675781-8.066406-3.085937-13.164063-15.589844-28.027344-29.664063-44.308594-41.960938-19.480469 35.960938-28.664063 76.59375-26.539063 117.433594.179688 2.164063-.449218 4.320313-1.765624 6.046875-7.738282 9.957031-14.394532 20.710938-19.859376 32.078125-9.253906 18.640625-14.382812 39.058594-15.027343 59.859375-.542969 18.089844 3.839843 35.992188 12.671875 51.789062 9.023437 15.4375 21.621094 28.480469 36.734375 38.03125 17.4375 11.058594 36.601562 19.121094 56.695312 23.863282 23.179688 5.625 46.964844 8.378906 70.820313 8.191406 23.953125.175781 47.835937-2.578125 71.121094-8.191406 20.382812-4.785156 39.851562-12.859375 57.632812-23.90625 15.515625-9.597656 28.59375-22.667969 38.203125-38.175782 9.371094-15.699218 14.382813-33.617187 14.519531-51.898437.113282-20.636719-4.296875-41.046875-12.921875-59.796875-5.074219-11.378906-11.375-22.171875-18.789062-32.1875-1.285157-1.746094-1.859375-3.914062-1.605469-6.066406 3.625-40.328125-4.121094-80.871094-22.355469-117.023438-16.679687 12.308594-32 26.355469-45.714843 41.898438-3.101563 3.546875-8.492188 3.910156-12.039063.808594-3.550781-3.101563-3.910156-8.492188-.808594-12.042969 16.765625-18.972657 35.757813-35.855469 56.566407-50.28125 1.933593-1.351563 4.339843-1.84375 6.648437-1.363281 2.308594.484374 4.3125 1.902343 5.539063 3.917968 22.753906 40.351563 33.011718 86.550782 29.480468 132.742188 7.308594 10.238281 13.566406 21.1875 18.679688 32.683594 9.636718 21.011718 14.546875 43.886718 14.386718 67.003906-.183593 21.28125-6.039062 42.128906-16.960937 60.394531-10.960937 17.761719-25.890625 32.738281-43.617187 43.746094-19.347657 12.050781-40.53125 20.867187-62.714844 26.097656-24.636719 5.953125-49.910156 8.878906-75.253906 8.703125zm0 0"/><path d="m239.53125 477.867188h-68.265625c-2.769531.003906-5.363281-1.339844-6.964844-3.597657-1.601562-2.253906-2.007812-5.148437-1.089843-7.757812l8.523437-24.300781.277344-15.691407c.414062-18.828125 15.75-33.894531 34.578125-33.984375 9.046875-.023437 17.71875 3.601563 24.058594 10.054688 6.339843 6.449218 9.808593 15.183594 9.628906 24.230468l-.277344 15.671876 7.667969 24.273437c.820312 2.589844.355469 5.421875-1.253907 7.613281-1.605468 2.195313-4.164062 3.488282-6.882812 3.488282zm-56.230469-17.066407h44.585938l-4.582031-14.496093c-.277344-.878907-.410157-1.796876-.394532-2.71875l.300782-17.066407c.101562-4.464843-1.605469-8.785156-4.738282-11.96875-3.128906-3.1875-7.417968-4.972656-11.882812-4.949219-9.539063.042969-17.304688 7.679688-17.511719 17.21875l-.300781 17.066407c-.019532.910156-.179688 1.8125-.480469 2.675781zm0 0"/><path d="m204.605469 281.601562h-.144531c-4.257813-.027343-8.320313-1.785156-11.25-4.871093l-26.199219-27.390625c-4.441407-4.703125-5.679688-11.589844-3.152344-17.546875s8.339844-9.851563 14.808594-9.925781h53.355469c6.390624.003906 12.152343 3.863281 14.589843 9.773437 2.546875 6.097656 1.167969 13.128906-3.496093 17.8125l-27.15625 27.386719c-2.988282 3.050781-7.082032 4.765625-11.355469 4.761718zm-23.933594-42.667968 24.21875 25.3125 24.644531-25.3125zm0 0"/><path d="m119.554688 264.535156c-1.6875 0-3.335938-.5-4.734376-1.441406-19.289062-10.792969-41.128906-16.1875-63.222656-15.625-4.710937 0-8.53125-3.820312-8.53125-8.535156 0-4.710938 3.820313-8.53125 8.53125-8.53125 25.496094-.695313 50.679688 5.71875 72.738282 18.523437 3.109374 2.101563 4.488281 5.984375 3.386718 9.574219-1.097656 3.589844-4.414062 6.039062-8.167968 6.035156zm0 0"/><path d="m76.160156 307.203125c-3.769531.003906-7.097656-2.46875-8.179687-6.078125-1.085938-3.613281.328125-7.507812 3.476562-9.582031 16.722657-11.113281 36.140625-17.5 56.195313-18.472657 4.710937-.007812 8.539062 3.808594 8.542968 8.519532.007813 4.714844-3.808593 8.539062-8.523437 8.546875-16.710937 1.035156-32.855469 6.433593-46.828125 15.65625-1.390625.921875-3.019531 1.410156-4.683594 1.410156zm0 0"/><path d="m290.238281 264.535156c-3.769531.003906-7.09375-2.46875-8.179687-6.078125-1.085938-3.609375.328125-7.503906 3.476562-9.582031 22.285156-12.703125 47.617188-19.09375 73.261719-18.472656 4.714844 0 8.535156 3.820312 8.535156 8.53125 0 4.714844-3.820312 8.535156-8.535156 8.535156-22.304687-.574219-44.359375 4.832031-63.871094 15.660156-1.390625.917969-3.019531 1.40625-4.6875 1.40625zm0 0"/><path d="m332.144531 307.203125c-1.699219 0-3.359375-.507813-4.765625-1.460937-13.683594-9.269532-29.625-14.660157-46.125-15.605469-4.714844 0-8.535156-3.820313-8.535156-8.535157 0-4.710937 3.820312-8.53125 8.535156-8.53125 19.902344.945313 39.164063 7.355469 55.667969 18.523438 3.113281 2.097656 4.488281 5.984375 3.390625 9.574219-1.101562 3.589843-4.414062 6.039062-8.167969 6.035156zm0 0"/><path d="m85.332031 512.003906c-2.917969-.003906-5.628906-1.496094-7.195312-3.957031-1.566407-2.460937-1.765625-5.546875-.53125-8.191406 17.339843-37.085938 2.621093-58.773438 1.988281-59.679688-2.710938-3.816406-1.839844-9.101562 1.949219-11.847656 3.789062-2.746094 9.082031-1.929687 11.867187 1.832031.886719 1.214844 21.492188 30.210938-.34375 76.921875-1.40625 3.003907-4.421875 4.921875-7.734375 4.921875zm0 0"/><path d="m324.273438 512.003906c-3.40625 0-6.484376-2.023437-7.839844-5.148437-20.210938-46.734375 1.332031-75.640625 2.253906-76.847657 2.871094-3.707031 8.191406-4.40625 11.917969-1.566406 3.726562 2.835938 4.46875 8.152344 1.664062 11.902344-.777343 1.058594-16.152343 22.785156-.171875 59.738281 1.140625 2.636719.878906 5.667969-.699218 8.070313-1.574219 2.398437-4.253907 3.847656-7.125 3.851562zm0 0"/><path d="m204.304688 298.667969h-.152344c-2.265625-.039063-4.417969-.976563-5.992188-2.605469-1.570312-1.628906-2.433594-3.8125-2.390625-6.078125l.296875-17.066406c.175782-4.671875 4.007813-8.371094 8.683594-8.382813 2.261719.039063 4.417969.976563 5.988281 2.605469 1.574219 1.628906 2.433594 3.816406 2.394531 6.078125l-.300781 17.066406c-.082031 4.652344-3.875 8.378906-8.527343 8.382813zm0 0"/><path d="m178.253906 324.269531c-3.464844 0-6.585937-2.09375-7.898437-5.300781-1.3125-3.210938-.554688-6.890625 1.917969-9.320312l23.558593-23.152344.238281-13.578125c.171876-4.671875 4.003907-8.371094 8.679688-8.382813 2.261719.039063 4.417969.976563 5.988281 2.605469 1.574219 1.628906 2.433594 3.816406 2.394531 6.078125l-.300781 17.066406c-.042969 2.238282-.957031 4.367188-2.550781 5.9375l-26.046875 25.601563c-1.59375 1.570312-3.742187 2.445312-5.980469 2.445312zm0 0"/><path d="m229.457031 324.269531c-2.292969 0-4.484375-.917969-6.089843-2.554687l-25.152344-25.601563c-2.167969-2.167969-3.007813-5.332031-2.195313-8.289062s3.148438-5.253907 6.117188-6.011719c2.972656-.757812 6.125.136719 8.253906 2.34375l25.152344 25.601562c2.410156 2.449219 3.109375 6.109376 1.78125 9.277344-1.328125 3.171875-4.429688 5.234375-7.867188 5.234375zm0 0"/><path d="m105.480469 145.070312c-.339844 0-.695313 0-1.046875-.011718-2.261719-.039063-4.417969-.976563-5.988282-2.601563-1.574218-1.628906-2.433593-3.816406-2.394531-6.082031.160157-4.675781 4.003907-8.386719 8.6875-8.382812 14.28125-.414063 27.730469-6.800782 37.078125-17.601563 2.957032-3.605469 8.261719-4.171875 11.910156-1.265625 3.648438 2.902344 4.292969 8.199219 1.441407 11.890625-12.421875 14.671875-30.472657 23.410156-49.6875 24.054687zm0 0"/><path d="m308.484375 145.070312c-19.101563-.542968-37.019531-9.378906-49.078125-24.203124-1.851562-2.421876-2.269531-5.648438-1.09375-8.464844 1.171875-2.8125 3.757812-4.785156 6.785156-5.175782 3.023438-.390624 6.027344.859376 7.875 3.285157 9.03125 10.746093 22.234375 17.113281 36.269532 17.480469 3.046874-.050782 5.890624 1.523437 7.464843 4.136718 1.570313 2.613282 1.625 5.867188.148438 8.535156-1.476563 2.667969-4.265625 4.34375-7.316407 4.394532-.355468.011718-.707031.011718-1.054687.011718zm0 0"/><path d="m103.542969 204.800781c-3.636719.003907-6.875-2.296875-8.066407-5.734375-1.195312-3.433594-.078124-7.246094 2.777344-9.5 19.15625-15.113281 36.433594-21.53125 51.332032-19.078125 8.414062 1.1875 15.988281 5.734375 20.992187 12.601563 2.453125 3.921875 1.335937 9.082031-2.523437 11.640625-3.855469 2.554687-9.042969 1.570312-11.699219-2.214844-2.535157-2.972656-6.117188-4.855469-10.003907-5.257813-6.792968-.972656-18.859374.980469-37.523437 15.710938-1.507813 1.1875-3.367187 1.835938-5.285156 1.832031zm0 0"/><path d="m308.335938 204.800781c-1.957032.003907-3.855469-.671875-5.371094-1.90625-17.851563-14.484375-29.710938-16.519531-36.503906-15.675781-4.15625.371094-8.011719 2.332031-10.757813 5.472656-2.789063 3.730469-8.035156 4.574219-11.855469 1.90625-3.785156-2.652344-4.738281-7.859375-2.132812-11.679687 5.308594-6.9375 13.183594-11.457031 21.855468-12.53125 14.855469-2.132813 31.730469 4.3125 50.144532 19.257812 2.804687 2.277344 3.871094 6.074219 2.664062 9.476563-1.207031 3.40625-4.429687 5.679687-8.042968 5.679687zm0 0"/><path d="m216.558594 85.335938h-17.066406c-4.539063 0-8.886719-1.820313-12.070313-5.058594-3.179687-3.238282-4.925781-7.621094-4.84375-12.160156l.292969-17.066407c.210937-9.371093 7.84375-16.867187 17.21875-16.914062h17.066406c4.539062 0 8.886719 1.820312 12.066406 5.058593 3.183594 3.234376 4.929688 7.613282 4.851563 12.152344l-.296875 17.066406c-.210938 9.371094-7.84375 16.875-17.21875 16.921876zm-16.46875-34.132813-.445313 17.210937 16.914063-.144531.445312-17.066406zm16.917968-.148437 8.535157.148437-8.535157-.15625zm0 0"/><path d="m191.246094 69.121094h-.152344c-4.710938-.082032-8.464844-3.964844-8.386719-8.679688l.050781-2.816406-33.375-14.9375c-.160156-.058594-.332031-.070312-.492187-.027344l-.265625 15.09375c-.21875 4.648438-4.023438 8.324219-8.679688 8.382813-2.265624-.039063-4.421874-.976563-5.992187-2.605469-1.574219-1.628906-2.433594-3.816406-2.394531-6.078125l.28125-15.875c.144531-5.363281 2.96875-10.300781 7.515625-13.152344 5.058593-3.257812 11.414062-3.761719 16.921875-1.34375l38.597656 17.269531c3.121094 1.394532 5.109375 4.519532 5.050781 7.9375l-.148437 8.445313c-.078125 4.65625-3.875 8.386719-8.53125 8.386719zm0 0"/><path d="m148.1875 93.867188c-3.515625.015624-6.957031-1.015626-9.886719-2.960938-4.476562-2.9375-7.148437-7.957031-7.089843-13.3125l.347656-20.132812c0-2.277344.921875-4.457032 2.558594-6.039063 1.636718-1.582031 3.84375-2.429687 6.117187-2.351563 4.714844.082032 8.464844 3.964844 8.390625 8.675782l-.332031 18.78125 39.386719-17.003906c2.796874-1.261719 6.054687-.929688 8.535156.875 2.480468 1.804687 3.800781 4.800781 3.460937 7.851562-.339843 3.046875-2.292969 5.675781-5.109375 6.890625l-39.125 17.234375c-2.292968.988281-4.757812 1.496094-7.253906 1.492188zm0 0"/><path d="m267.640625 93.882812c-2.523437 0-5.015625-.535156-7.316406-1.5625l-38.542969-17.226562c-3.011719-1.34375-4.980469-4.304688-5.050781-7.605469-.070313-3.300781 1.765625-6.34375 4.71875-7.816406-2.863281-1.554687-4.59375-4.601563-4.457031-7.855469.136718-3.253906 2.113281-6.148437 5.09375-7.457031l39.152343-17.226563c5.558594-2.4375 11.972657-1.910156 17.058594 1.398438 4.503906 2.925781 7.199219 7.953125 7.144531 13.324219l-.632812 36.054687c-.148438 5.386719-2.996094 10.335938-7.578125 13.171875-2.863281 1.828125-6.191407 2.796875-9.589844 2.800781zm-38.257813-34.085937 37.90625 16.9375c.289063.015625.417969.085937.464844.195313l.59375-33.96875zm0 0"/></g></svg>