<svg height="511pt" viewBox="-51 0 511 511.9989" width="511pt" xmlns="http://www.w3.org/2000/svg"><path d="m401.636719 452.265625v51.199219h-392.53125v-51.199219c-.058594-34.339844 12.902343-67.425781 36.265625-92.589844l16.382812-15.957031h12.460938l266.664062-.9375h12.886719l.425781 6.570312 11.179688 10.324219c23.363281 25.164063 36.324218 58.25 36.265625 92.589844zm0 0" fill="#cad9fc"/><path d="m376.039062 452.265625v51.199219h-366.9375l.003907-51.199219c-.207031-33.9375 11.828125-66.808594 33.898437-92.589844l15.289063-15.957031 273.015625-.9375.433594 6.570312 10.398437 10.324219c22.066406 25.78125 34.101563 58.652344 33.898437 92.589844zm0 0" fill="#e8edfc"/><path d="m364.601562 354.726562c-23.007812 14.78125-48.292968 25.679688-74.835937 32.257813-27.859375 6.691406-56.425781 9.984375-85.078125 9.8125-24.527344.121094-49.007812-2.28125-73.042969-7.167969-4.097656-.851562-8.109375-1.707031-12.035156-2.730468-26.519531-6.527344-51.777344-17.398438-74.75-32.171876-3.789063-2.394531-6.453125-6.210937-7.398437-10.589843-.949219-4.382813-.097657-8.957031 2.363281-12.703125 1.285156-1.953125 2.9375-3.632813 4.863281-4.949219 5.640625-3.699219 12.929688-3.730469 18.601562-.085937 19.835938 12.804687 41.667969 22.207031 64.597657 27.816406 2.902343.769531 5.890625 1.453125 8.960937 2.050781.101563.066406.222656.097656.34375.082031 22.203125 4.582032 44.824219 6.839844 67.496094 6.742188 25.890625.164062 51.703125-2.785156 76.886719-8.789063 22.195312-5.503906 43.367187-14.523437 62.71875-26.707031.597656-.429688 1.28125-.769531 1.878906-1.195312 7.878906-5.046876 18.351563-2.800782 23.464844 5.035156 2.441406 3.75 3.28125 8.320312 2.335937 12.695312-.945312 4.375-3.597656 8.191406-7.371094 10.597656zm0 0" fill="#7facfa"/><path d="m339.003906 350.460938c-23.011718 14.78125-48.292968 25.679687-74.839844 32.257812-27.859374 6.6875-56.425781 9.984375-85.074218 9.8125-15.863282.042969-31.710938-.925781-47.445313-2.902344-4.097656-.851562-8.109375-1.707031-12.035156-2.730468-26.519531-6.527344-51.777344-17.398438-74.75-32.171876-3.789063-2.394531-6.453125-6.210937-7.398437-10.589843-.949219-4.382813-.097657-8.957031 2.363281-12.703125 1.285156-1.953125 2.9375-3.632813 4.863281-4.949219 17.933594 10.625 37.347656 18.535156 57.601562 23.464844 11.378907 2.804687 22.921876 4.914062 34.558594 6.316406.101563.066406.222656.097656.34375.082031 22.203125 4.582032 44.824219 6.839844 67.496094 6.742188 25.890625.164062 51.703125-2.785156 76.886719-8.789063 22.195312-5.503906 43.367187-14.523437 62.71875-26.707031 4.730469 7.792969 2.386719 17.941406-5.289063 22.867188zm0 0" fill="#a4c2f7"/><path d="m393.105469 236.371094c.222656 19.703125-4.878907 39.101562-14.765625 56.148437-9.996094 16.621094-23.761719 30.652344-40.191406 40.960938-18.402344 11.554687-38.582032 20.003906-59.730469 25.003906-23.914063 5.785156-48.445313 8.621094-73.046875 8.445313-4.351563 0-8.617188-.085938-12.800782-.253907-20.3125-.625-40.503906-3.371093-60.246093-8.191406-21.148438-5-41.328125-13.449219-59.730469-25.003906-16.429688-10.308594-30.195312-24.339844-40.195312-40.960938-9.882813-17.046875-14.984376-36.445312-14.761719-56.148437.296875-21.953125 5.332031-43.578125 14.761719-63.402344 5.511718-11.902344 12.292968-23.175781 20.226562-33.621094v-.085937c-3.125-40.277344 4.71875-80.644531 22.699219-116.820313.9375-1.964844 1.789062-3.753906 2.644531-5.292968 1.179688-2.230469 3.292969-3.828126 5.761719-4.355469 2.46875-.523438 5.046875.070312 7.039062 1.625 19.164063 14.238281 36.453125 30.839843 51.453125 49.410156 1.707032 2.046875 3.246094 4.007813 4.695313 5.886719 14.730469-5.160156 30.082031-8.347656 45.652343-9.472656 4.265626-.339844 8.535157-.511719 12.800782-.511719 19.882812-.019531 39.621094 3.359375 58.367187 9.984375 13.332031-17.558594 28.746094-33.433594 45.910157-47.273438 3.15625-2.648437 6.570312-5.378906 10.15625-8.023437 1.988281-1.554688 4.566406-2.148438 7.035156-1.625 2.472656.527343 4.582031 2.125 5.761718 4.355469 19.703126 37.503906 28.511719 79.777343 25.429688 122.027343 7.960938 10.503907 14.769531 21.832031 20.308594 33.792969 9.433594 19.824219 14.46875 41.449219 14.765625 63.402344zm0 0" fill="#cad9fc"/><path d="m367.503906 236.371094c.222656 19.703125-4.878906 39.101562-14.761718 56.148437-9.996094 16.621094-23.765626 30.652344-40.191407 40.960938-18.40625 11.554687-38.585937 20.003906-59.734375 25.003906-19.742187 4.820313-39.933594 7.566406-60.246094 8.191406-20.3125-.625-40.503906-3.371093-60.246093-8.191406-21.148438-5-41.328125-13.449219-59.730469-25.003906-16.429688-10.308594-30.195312-24.339844-40.195312-40.960938-9.882813-17.046875-14.984376-36.445312-14.761719-56.148437.296875-21.953125 5.332031-43.578125 14.761719-63.402344 5.511718-11.902344 12.292968-23.175781 20.226562-33.621094v-.085937c-3.125-40.277344 4.71875-80.644531 22.699219-116.820313 17.164062 13.863282 32.605469 29.734375 45.992187 47.273438 6.839844-2.402344 13.820313-4.367188 20.90625-5.886719 12.332032-2.710937 24.921875-4.085937 37.546875-4.097656 4.351563 0 8.621094.171875 12.800781.511719 15.550782 1.078124 30.878907 4.261718 45.570313 9.472656 1.449219-1.878906 2.984375-3.925782 4.605469-5.972656 7.117187 1.550781 14.128906 3.542968 20.992187 5.972656 13.332031-17.558594 28.746094-33.433594 45.910157-47.273438 17.933593 36.160156 25.800781 76.484375 22.785156 116.734375 7.960937 10.503907 14.769531 21.832031 20.308594 33.792969 9.433593 19.824219 14.46875 41.449219 14.761718 63.402344zm0 0" fill="#e8edfc"/><path d="m130.535156 76.625c-23.238281 10.941406-44.199218 26.167969-61.78125 44.886719.4375-30.105469 7.183594-59.785157 19.796875-87.125 15.554688 12.4375 29.640625 26.609375 41.984375 42.238281zm0 0" fill="#cad9fc"/><path d="m341.902344 121.425781c-17.613282-18.71875-38.601563-33.949219-61.863282-44.882812 12.351563-15.597657 26.4375-29.738281 41.984376-42.15625 12.644531 27.300781 19.417968 56.953125 19.878906 87.039062zm0 0" fill="#cad9fc"/><path d="m137.273438 503.464844c1.050781-37.226563 30.957031-67.171875 68.183593-68.265625 37.222657 1.09375 67.128907 31.039062 68.179688 68.265625zm0 0" fill="#fff"/><path d="m237.335938 244.160156-26.707032 28.746094c-1.351562 1.472656-3.257812 2.3125-5.257812 2.3125s-3.90625-.839844-5.257813-2.3125l-26.707031-28.746094c-1.726562-1.84375-2.488281-4.394531-2.046875-6.882812.328125-3.195313 2.574219-5.871094 5.667969-6.738282.542968-.082031 1.089844-.128906 1.640625-.140624h53.40625c.550781.011718 1.097656.058593 1.640625.140624 3.09375.871094 5.339844 3.546876 5.667968 6.742188.441407 2.488281-.320312 5.039062-2.046874 6.878906zm0 0" fill="#a4c2f7"/><path d="m9.105469 452.265625v51.199219h25.597656v-51.199219c-.203125-33.9375 11.832031-66.808594 33.898437-92.589844l3.703126-3.863281c-.601563-.382812-1.246094-.695312-1.847657-1.085938-3.785156-2.394531-6.453125-6.210937-7.398437-10.589843-.945313-4.382813-.09375-8.957031 2.367187-12.703125 1.28125-1.953125 2.933594-3.632813 4.863281-4.949219 5.074219-3.328125 11.726563 3.347656 17.304688 6.3125-12.074219-11.652344-22.082031-25.269531-29.59375-40.277344-9.886719-17.046875-14.984375-36.445312-14.761719-56.148437.292969-21.953125 5.328125-43.578125 14.761719-63.402344 5.511719-11.902344 12.292969-23.175781 20.222656-33.621094v-.085937c-3.121094-40.277344 4.722656-80.644531 22.699219-116.820313l.007813-.015625c-3.242188-2.660156-6.597657-5.328125-10.160157-8.007812-1.992187-1.554688-4.570312-2.148438-7.039062-1.625-2.46875.527343-4.582031 2.125-5.761719 4.355469-.855469 1.539062-1.707031 3.328124-2.644531 5.292968-17.980469 36.175782-25.824219 76.542969-22.699219 116.820313v.085937c-7.933594 10.445313-14.714844 21.71875-20.226562 33.621094-9.429688 19.824219-14.464844 41.449219-14.761719 63.402344-.222657 19.703125 4.878906 39.101562 14.761719 56.148437 7.679687 12.863281 17.71875 24.160157 29.59375 33.292969-5.457032-2.949219-12.089844-2.691406-17.304688.671875-1.925781 1.316406-3.578125 2.996094-4.863281 4.949219-2.460938 3.746094-3.3125 8.320312-2.363281 12.703125.945312 4.378906 3.609374 8.195312 7.398437 10.589843.601563.390626 1.242187.703126 1.847656 1.085938l-3.703125 3.863281c-22.070312 25.78125-34.105468 58.652344-33.898437 92.589844zm0 0" fill="#fff"/><path d="m51.632812 365.480469c-11.792968 12.777343-20.878906 27.808593-26.710937 44.183593-2.902344 8.171876-4.945313 16.621094-6.089844 25.214844-1.054687 8.800782-1.453125 17.667969-1.195312 26.527344v42.058594h-17.066407v-42.058594c-.257812-9.628906.191407-19.265625 1.351563-28.824219 1.300781-9.75 3.617187-19.335937 6.910156-28.605469 6.609375-18.574218 16.910157-35.613281 30.28125-50.097656zm0 0" fill="#fff"/><g fill="#428dff"><path d="m21.707031 394.972656c4.128907 1.921875 9.046875.386719 11.347657-3.546875 5.097656-9.382812 11.335937-18.097656 18.578124-25.945312l-12.523437-11.597657c-8.207031 8.894532-15.28125 18.769532-21.058594 29.40625-1.15625 2.015626-1.417969 4.421876-.726562 6.640626.695312 2.21875 2.28125 4.046874 4.382812 5.042968zm0 0"/><path d="m.570312 503.464844h17.066407v-50.59375c-.101563-4.574219-3.714844-8.292969-8.28125-8.527344-2.316407-.105469-4.574219.75-6.234375 2.367188-1.664063 1.613281-2.585938 3.84375-2.550782 6.160156zm0 0"/><path d="m21.464844 421.140625c.496094-2.097656.183594-4.304687-.878906-6.183594l-.921876-1.304687c-.363281-.441406-.78125-.832032-1.242187-1.167969-.390625-.375-.832031-.691406-1.3125-.9375-.507813-.261719-1.035156-.488281-1.574219-.679687-2.183594-.667969-4.542968-.441407-6.558594.625-.996093.601562-1.851562 1.402343-2.519531 2.355468-2.148437 2.902344-2.363281 6.808594-.539062 9.925782.621093.945312 1.4375 1.75 2.394531 2.359374.925781.628907 1.972656 1.0625 3.070312 1.277344 2.214844.355469 4.480469-.078125 6.40625-1.222656 1.8125-1.164062 3.121094-2.964844 3.675782-5.046875zm0 0"/><path d="m401.636719 511.996094h-392.53125c-4.714844 0-8.535157-3.820313-8.535157-8.53125 0-4.714844 3.820313-8.535156 8.535157-8.535156h384v-42.664063c.042969-32.1875-12.101563-63.195313-33.992188-86.785156-2.074219-2.234375-2.796875-5.40625-1.898437-8.320313.902344-2.914062 3.285156-5.125 6.261718-5.804687 2.972657-.675781 6.078126.285156 8.152344 2.519531 24.820313 26.746094 38.59375 61.898438 38.542969 98.390625v51.199219c0 4.710937-3.820313 8.53125-8.535156 8.53125zm0 0"/><path d="m205.371094 409.597656c-29.492188.179688-58.894532-3.21875-87.566406-10.113281-27.539063-6.773437-53.777344-18.03125-77.664063-33.320313-5.707031-3.625-9.722656-9.390624-11.148437-16.003906-1.421876-6.609375-.132813-13.515625 3.578124-19.171875 7.777344-11.699219 23.488282-15.023437 35.339844-7.472656 19.15625 12.253906 40.195313 21.277344 62.28125 26.707031 24.621094 5.898438 49.863282 8.789063 75.179688 8.613282 25.292968.179687 50.511718-2.707032 75.113281-8.59375 22.109375-5.433594 43.171875-14.460938 62.351563-26.726563 11.847656-7.574219 27.578124-4.242187 35.339843 7.476563 3.710938 5.65625 4.996094 12.558593 3.574219 19.171874-1.421875 6.609376-5.4375 12.375-11.144531 16-23.910157 15.292969-50.171875 26.554688-77.730469 33.335938-28.652344 6.890625-58.035156 10.277344-87.503906 10.097656zm-151.347656-73.078125c-2.886719-.015625-5.589844 1.429688-7.1875 3.839844-1.203126 1.8125-1.625 4.035156-1.164063 6.164063.464844 2.179687 1.789063 4.082031 3.671875 5.273437 22.316406 14.28125 46.828125 24.796875 72.554688 31.125 27.335937 6.5625 55.363281 9.789063 83.472656 9.609375 28.089844.179688 56.09375-3.042969 83.40625-9.597656 25.753906-6.335938 50.285156-16.855469 72.628906-31.144532 1.878906-1.1875 3.203125-3.085937 3.667969-5.261718.457031-2.132813.039062-4.355469-1.167969-6.171875-2.617188-3.921875-7.898438-5.023438-11.867188-2.472657-20.75 13.273438-43.539062 23.046876-67.460937 28.929688-25.9375 6.21875-52.535156 9.273438-79.207031 9.089844-26.695313.175781-53.316406-2.882813-79.273438-9.109375-23.894531-5.875-46.664062-15.640625-67.390625-28.902344-1.398437-.894531-3.023437-1.371094-4.683593-1.371094zm0 0"/><path d="m205.371094 375.464844c-25.304688.179687-50.535156-2.742188-75.125-8.703125-22.058594-5.21875-43.109375-14.039063-62.292969-26.113281-17.554687-11.023438-32.261719-26.039063-42.917969-43.820313-10.640625-18.355469-16.144531-39.238281-15.929687-60.457031.261719-23.1875 5.566406-46.042969 15.542969-66.976563 5.308593-11.460937 11.742187-22.367187 19.203124-32.5625-2.8125-46.433593 8.207032-92.660156 31.664063-132.832031 1.246094-1.988281 3.257813-3.375 5.5625-3.835938 2.300781-.457031 4.691406.050782 6.605469 1.410157 25.105468 17.496093 47.378906 38.742187 66.042968 63 2.730469 3.761719 1.945313 9.015625-1.765624 11.820312-3.710938 2.800781-8.980469 2.117188-11.851563-1.539062-15.617187-20.347657-33.992187-38.429688-54.589844-53.71875-18.824219 36.035156-27.273437 76.589843-24.414062 117.148437.035156.324219.054687.648438.050781.976563v.027343c0 .332032-.019531.664063-.0625.992188-.171875 1.535156-.753906 2.996094-1.679688 4.230469-7.554687 9.957031-14.019531 20.699219-19.273437 32.039062-8.9375 18.691407-13.703125 39.105469-13.96875 59.820313-.203125 18.1875 4.492187 36.09375 13.59375 51.839844 9.320313 15.472656 22.15625 28.53125 37.46875 38.109374 17.609375 11.050782 36.921875 19.121094 57.15625 23.886719 23.238281 5.621094 47.074219 8.371094 70.980469 8.191407 23.902344.179687 47.734375-2.574219 70.964844-8.191407 20.242187-4.765625 39.5625-12.835937 57.175781-23.890625 15.3125-9.574218 28.148437-22.628906 37.464843-38.101562 9.101563-15.75 13.796876-33.65625 13.59375-51.84375-.265624-20.722656-5.035156-41.136719-13.980468-59.832032-5.28125-11.40625-11.777344-22.210937-19.367188-32.226562-1.296875-1.714844-1.894531-3.855469-1.679687-5.996094 2.871093-40.578125-5.605469-81.152344-24.480469-117.191406-20.574219 15.285156-38.914062 33.363281-54.496094 53.710938-1.828125 2.4375-4.820312 3.714843-7.847656 3.351562s-5.628906-2.316406-6.828125-5.121094c-1.195313-2.804687-.808594-6.03125 1.023437-8.472656 18.621094-24.273438 40.875-45.527344 65.972657-63.019531 1.914062-1.359375 4.304687-1.867188 6.609375-1.410157 2.300781.460938 4.3125 1.847657 5.558594 3.835938 23.386718 40.160156 34.4375 86.316406 31.773437 132.714844 7.488281 10.230468 13.945313 21.183594 19.269531 32.691406 9.976563 20.929688 15.277344 43.78125 15.539063 66.964844.214843 21.214844-5.289063 42.09375-15.929688 60.449218-10.652343 17.78125-25.359375 32.796876-42.914062 43.816407-19.191407 12.082031-40.242188 20.90625-62.308594 26.125-24.589844 5.960937-49.8125 8.882812-75.113281 8.703125zm0 0"/><path d="m278.441406 83.9375c-1.1875 0-2.359375-.25-3.445312-.730469-44.300782-19.828125-94.949219-19.828125-139.25 0-4.296875 1.839844-9.273438-.121093-11.164063-4.394531-1.886719-4.277344.011719-9.273438 4.261719-11.214844 48.695312-21.765625 104.355469-21.765625 153.050781 0 3.695313 1.628906 5.742188 5.625 4.90625 9.574219-.832031 3.949219-4.320312 6.773437-8.359375 6.765625zm0 0"/><path d="m205.371094 281.597656c-4.289063.007813-8.394532-1.730468-11.371094-4.8125l-26.679688-27.390625c-4.574218-4.699219-5.882812-11.683593-3.316406-17.71875 2.472656-5.929687 8.261719-9.796875 14.6875-9.8125h53.359375c6.425781.015625 12.214844 3.882813 14.6875 9.8125 2.566407 6.035157 1.257813 13.019531-3.316406 17.71875l-26.675781 27.386719c-2.980469 3.085938-7.085938 4.824219-11.375 4.816406zm.835937-16.738281.015625.011719zm-25.859375-25.929687 25.015625 25.082031 24.425781-25.082031zm0 0"/><path d="m120.027344 264.53125c-1.671875 0-3.308594-.492188-4.703125-1.417969-19.414063-10.773437-41.355469-16.175781-63.554688-15.648437-4.710937 0-8.53125-3.820313-8.53125-8.535156 0-4.710938 3.820313-8.53125 8.53125-8.53125 25.570313-.65625 50.828125 5.742187 73 18.5 3.132813 2.085937 4.523438 5.976562 3.433594 9.574218-1.09375 3.601563-4.414063 6.0625-8.175781 6.058594zm0 0"/><path d="m77.378906 307.199219c-3.761718 0-7.082031-2.457031-8.171875-6.058594-1.09375-3.597656.300781-7.488281 3.429688-9.574219 16.613281-11.144531 35.953125-17.542968 55.933593-18.503906 4.714844-.003906 8.539063 3.8125 8.542969 8.523438.007813 4.714843-3.808593 8.539062-8.523437 8.546874-16.601563 1.015626-32.640625 6.410157-46.484375 15.632813-1.398438.933594-3.042969 1.433594-4.726563 1.433594zm0 0"/><path d="m290.710938 264.53125c-3.761719.003906-7.082032-2.457031-8.171876-6.058594-1.09375-3.597656.300782-7.488281 3.433594-9.574218 22.171875-12.757813 47.425782-19.15625 73-18.5 4.710938 0 8.53125 3.820312 8.53125 8.53125 0 4.714843-3.820312 8.535156-8.53125 8.535156-22.203125-.609375-44.152344 4.792968-63.535156 15.632812-1.398438.933594-3.042969 1.433594-4.726562 1.433594zm0 0"/><path d="m333.363281 307.199219c-1.683593 0-3.328125-.5-4.726562-1.433594-13.8125-9.273437-29.859375-14.671875-46.464844-15.632813-4.714844 0-8.535156-3.824218-8.535156-8.535156 0-4.714844 3.820312-8.535156 8.535156-8.535156 19.980469.960938 39.320313 7.359375 55.933594 18.503906 3.128906 2.085938 4.523437 5.976563 3.429687 9.574219-1.089844 3.601563-4.410156 6.058594-8.171875 6.058594zm0 0"/><path d="m85.902344 511.996094c-2.890625 0-5.589844-1.46875-7.160156-3.898438-1.570313-2.429687-1.804688-5.492187-.617188-8.132812 16.691406-37.085938 1.558594-58.804688.90625-59.710938-2.707031-3.785156-1.882812-9.039062 1.851562-11.816406 3.738282-2.773438 9.007813-2.046875 11.847657 1.640625.910156 1.210937 21.984375 30.167969.957031 76.882813-1.375 3.066406-4.421875 5.039062-7.785156 5.035156zm0 0"/><path d="m324.84375 511.996094c-3.363281.003906-6.410156-1.96875-7.789062-5.035156-21.027344-46.71875.050781-75.671876.957031-76.882813 2.8125-3.78125 8.160156-4.570313 11.941406-1.757813s4.566406 8.160157 1.753906 11.941407c-.730469 1.023437-15.730469 22.71875.914063 59.703125 1.1875 2.640625.953125 5.703125-.617188 8.132812-1.570312 2.429688-4.269531 3.898438-7.160156 3.898438zm0 0"/><path d="m205.371094 298.664062c-4.714844 0-8.535156-3.820312-8.535156-8.53125v-17.070312c0-4.710938 3.820312-8.53125 8.535156-8.53125 4.710937 0 8.53125 3.820312 8.53125 8.53125v17.070312c0 4.710938-3.820313 8.53125-8.53125 8.53125zm0 0"/><path d="m179.769531 324.265625c-3.449219-.003906-6.558593-2.082031-7.878906-5.269531-1.324219-3.1875-.59375-6.859375 1.847656-9.296875l23.097657-23.101563v-13.535156c0-4.710938 3.820312-8.53125 8.535156-8.53125 4.710937 0 8.53125 3.820312 8.53125 8.53125v17.070312c0 2.261719-.898438 4.429688-2.5 6.03125l-25.597656 25.601563c-1.597657 1.601563-3.769532 2.5-6.035157 2.5zm0 0"/><path d="m230.972656 324.265625c-2.265625 0-4.4375-.898437-6.035156-2.5l-25.601562-25.601563c-3.230469-3.347656-3.1875-8.671874.105468-11.960937 3.292969-3.292969 8.613282-3.339844 11.960938-.105469l25.601562 25.601563c2.441406 2.4375 3.167969 6.109375 1.847656 9.296875-1.320312 3.1875-4.429687 5.265625-7.878906 5.269531zm0 0"/><path d="m103.871094 145.0625c-.351563 0-.695313 0-1.050782-.007812-2.261718-.039063-4.417968-.976563-5.988281-2.605469-1.574219-1.628907-2.433593-3.8125-2.394531-6.078125.152344-4.683594 4-8.394532 8.683594-8.382813 14.164062-.394531 27.492187-6.773437 36.683594-17.558593 2.914062-3.671876 8.242187-4.304688 11.9375-1.421876 3.695312 2.886719 4.371093 8.210938 1.511718 11.925782-12.242187 14.75-30.222656 23.535156-49.382812 24.128906zm0 0"/><path d="m306.871094 145.0625c-19.160156-.59375-37.140625-9.378906-49.382813-24.128906-2.859375-3.714844-2.183593-9.039063 1.511719-11.925782 3.695312-2.882812 9.023438-2.25 11.9375 1.421876 9.21875 10.746093 22.53125 17.121093 36.683594 17.558593 4.664062.035157 8.484375 3.722657 8.683594 8.382813.039062 2.265625-.820313 4.449218-2.394532 6.078125-1.570312 1.628906-3.726562 2.566406-5.988281 2.605469-.351563.007812-.703125.007812-1.050781.007812zm0 0"/><path d="m102.976562 204.796875c-3.625 0-6.855468-2.285156-8.054687-5.707031-1.199219-3.417969-.109375-7.222656 2.71875-9.488282 18.789063-15.035156 35.882813-21.484374 50.738281-19.171874 8.542969 1.136718 16.265625 5.667968 21.425782 12.566406 2.535156 3.894531 1.488281 9.101562-2.355469 11.714844-3.84375 2.613281-9.070313 1.667968-11.757813-2.121094-2.640625-3.050782-6.355468-4.96875-10.371094-5.355469-6.808593-.894531-18.761718 1.085937-37.019531 15.691406-1.511719 1.214844-3.390625 1.875-5.324219 1.871094zm0 0"/><path d="m307.769531 204.796875c-1.933593.003906-3.8125-.65625-5.324219-1.871094-18.546874-14.832031-30.5625-16.671875-37.460937-15.628906-3.800781.464844-7.300781 2.300781-9.84375 5.167969-2.632813 3.871094-7.890625 4.898437-11.789063 2.300781-3.894531-2.597656-4.96875-7.847656-2.410156-11.769531 5.160156-6.898438 12.882813-11.429688 21.425782-12.566406 14.863281-2.300782 31.953124 4.136718 50.738281 19.171874 2.828125 2.265626 3.921875 6.070313 2.71875 9.488282-1.199219 3.421875-4.429688 5.707031-8.054688 5.707031zm0 0"/><path d="m273.546875 511.996094c-4.523437-.003906-8.257813-3.535156-8.511719-8.050782-.816406-32.699218-26.972656-59.097656-59.664062-60.214843-32.691406 1.117187-58.847656 27.515625-59.664063 60.214843-.261719 4.703126-4.292969 8.304688-9 8.039063s-8.304687-4.292969-8.039062-9c1.320312-41.738281 34.957031-75.207031 76.703125-76.320313 41.742187 1.113282 75.378906 34.582032 76.703125 76.320313.128906 2.261719-.648438 4.476563-2.15625 6.167969-1.507813 1.6875-3.625 2.707031-5.882813 2.832031-.164062.011719-.328125.011719-.488281.011719zm0 0"/></g></svg>