<svg height="512pt" viewBox="-17 0 512 512.01057" width="512pt" xmlns="http://www.w3.org/2000/svg"><path d="m69.9375 233.910156-11.351562 32.765625c-27.390626-13.480469-59.390626-40.445312-47.527344-77.308593 5.402344-14.363282 13.128906-27.738282 22.867187-39.597657 16.726563-22.441406 23.550781-33.277343 10.15625-53.160156-4.457031-6.640625-8.070312-13.804687-10.753906-21.335937-6.050781-17.160157-7.464844-35.617188-4.09375-53.503907 2.121094-9.1875 11.289063-14.917969 20.480469-12.800781 9.1875 2.121094 14.917968 11.292969 12.796875 20.480469-1.949219 11.910156-.742188 24.121093 3.5 35.414062 1.582031 4.46875 3.730469 8.714844 6.398437 12.628907 27.394532 40.789062 5.207032 70.828124-11.09375 92.671874-7.449218 8.867188-13.441406 18.863282-17.746094 29.613282-4.523437 14.164062 13.3125 26.878906 26.367188 34.132812zm0 0" fill="#a4c2f7"/><path d="m469.382812 358.410156c0 145.066406-85.332031 145.066406-85.332031 145.066406h-256s-85.335937 0-85.335937-145.066406c0-122.113281 108.886718-286.632812 143.277344-335.53125 3.667968-5.117187 6.398437-9.042968 8.191406-11.433594 1.214844-1.714843 3.515625-2.265624 5.375-1.28125.171875.085938.339844.257813.511718.34375 17.238282 10.835938 21.84375 40.703126 21.84375 40.703126h68.269532c1.734375-9.980469 5.230468-19.574219 10.324218-28.332032 2.816407-4.96875 6.761719-9.210937 11.519532-12.371094.171875-.085937.339844-.257812.511718-.34375 1.859376-.984374 4.160157-.433593 5.375 1.28125 18.433594 25.257813 151.46875 211.96875 151.46875 346.964844zm0 0" fill="#cad9fc"/><path d="m443.78125 358.410156c0 145.066406-85.332031 145.066406-85.332031 145.066406h-230.398438s-85.335937 0-85.335937-145.066406c0-122.113281 108.886718-286.632812 143.277344-335.53125 5.09375 8.757813 8.589843 18.351563 10.324218 28.332032h93.867188c1.734375-9.980469 5.230468-19.574219 10.324218-28.332032 34.390626 48.898438 143.273438 213.417969 143.273438 335.53125zm0 0" fill="#e8edfc"/><path d="m358.449219 401.078125c.6875 36.375-9.730469 72.097656-29.867188 102.398437h-145.066406c-20.136719-30.300781-30.554687-66.023437-29.867187-102.398437 0-80.128906 45.824218-145.066406 102.402343-145.066406 56.574219 0 102.398438 64.9375 102.398438 145.066406zm0 0" fill="#fff"/><path d="m136.582031 443.742188h59.734375c14.136719 0 25.597656 11.464843 25.597656 25.601562s-11.460937 25.601562-25.597656 25.601562h-59.734375" fill="#e8edfc"/><path d="m375.515625 443.742188h-59.734375c-14.136719 0-25.597656 11.464843-25.597656 25.601562s11.460937 25.601562 25.597656 25.601562h59.734375" fill="#e8edfc"/><path d="m170.714844 328.265625v25.601563c0 9.425781-7.640625 17.066406-17.066406 17.066406-9.425782 0-17.066407-7.640625-17.066407-17.066406v-51.199219" fill="#e8edfc"/><path d="m341.382812 328.265625v25.601563c0 9.425781 7.640626 17.066406 17.066407 17.066406s17.066406-7.640625 17.066406-17.066406v-51.199219" fill="#e8edfc"/><path d="m66.011719 64.863281c-10.300781 5.113281-21.320313 8.625-32.683594 10.410157-6.050781-17.160157-7.464844-35.617188-4.09375-53.503907 2.121094-9.1875 11.289063-14.917969 20.480469-12.800781 9.1875 2.121094 14.917968 11.292969 12.796875 20.480469-1.949219 11.910156-.742188 24.121093 3.5 35.414062zm0 0" fill="#7facfa"/><path d="m221.660156 153.183594c-8.105468 15.785156-29.183594 31.488281-46.679687 41.984375-4.351563-2.644531-9.042969-5.546875-13.652344-8.875-13.335937-8.4375-24.621094-19.75-33.023437-33.109375-11.691407-20.992188-11.691407-41.898438 0-52.394532 7.238281-5.894531 16.78125-8.144531 25.890624-6.09375 9.105469 2.046876 16.769532 8.164063 20.785157 16.589844 4.375-8.59375 12.410156-14.746094 21.847656-16.726562 8.796875-1.9375 17.992187.371094 24.832031 6.230468 11.691406 10.496094 11.691406 31.402344 0 52.394532zm0 0" fill="#fff" fill-rule="evenodd"/><path d="m337.117188 111.253906c4.023437-8.425781 11.695312-14.539062 20.804687-16.582031 9.113281-2.046875 18.660156.199219 25.902344 6.09375 11.675781 10.488281 11.675781 31.46875 0 52.445313-8.171875 15.730468-29.191407 31.460937-46.707031 41.957031-17.519532-10.488281-38.535157-26.222657-46.710938-41.953125-11.675781-20.980469-11.675781-41.957032 0-52.445313 7.242188-5.894531 16.789062-8.144531 25.902344-6.097656 9.109375 2.046875 16.78125 8.15625 20.808594 16.582031zm0 0" fill="#fff" fill-rule="evenodd"/><path d="m298.714844 238.945312c0 28.242188-19.113282 51.199219-42.664063 51.199219-23.554687 0-42.667969-22.957031-42.667969-51.199219-.03125-6.714843 1.074219-13.382812 3.265626-19.730468 1.191406-3.492188 4.464843-5.847656 8.15625-5.871094h62.488281c3.691406.023438 6.964843 2.378906 8.15625 5.871094 2.191406 6.347656 3.296875 13.015625 3.265625 19.730468zm0 0" fill="#a4c2f7"/><path d="m221.660156 153.183594c-8.105468 15.785156-29.183594 31.488281-46.679687 41.984375-4.351563-2.644531-9.042969-5.546875-13.652344-8.875 47.277344-32.9375 43.519531-70.3125 35.5-91.734375 8.796875-1.9375 17.992187.371094 24.832031 6.230468 11.691406 10.496094 11.691406 31.402344 0 52.394532zm0 0" fill="#e8edfc" fill-rule="evenodd"/><path d="m383.792969 153.183594c-8.105469 15.785156-29.183594 31.488281-46.675781 41.984375-4.355469-2.644531-9.046876-5.546875-13.65625-8.875 47.277343-32.9375 43.519531-70.3125 35.5-91.734375 8.796874-1.9375 17.992187.371094 24.832031 6.230468 11.691406 10.496094 11.691406 31.402344 0 52.394532zm0 0" fill="#e8edfc" fill-rule="evenodd"/><path d="m291.804688 266.847656c-6.691407 13.78125-20.445313 22.742188-35.753907 23.296875-15.3125-.554687-29.066406-9.515625-35.757812-23.296875 7.878906-12.082031 21.332031-19.371094 35.757812-19.371094s27.875 7.289063 35.753907 19.371094zm0 0" fill="#e8edfc"/><path d="m78.980469 211.636719c-.511719 1.621093-1.449219 4.609375-2.558594 8.449219-.246094-.207032-.476563-.433594-.683594-.683594 1.023438-2.558594 2.132813-5.207032 3.242188-7.765625zm0 0" fill="#fff"/><path d="m58.585938 266.675781.167968-.476562c-.234375.746093-.441406 1.492187-.667968 2.242187-.792969 2.597656-1.574219 5.191406-2.316407 7.785156-.539062 1.878907-1.042969 3.753907-1.554687 5.632813-.683594 2.519531-1.339844 5.035156-1.976563 7.542969-.476562 1.894531-.933593 3.789062-1.375 5.675781-.585937 2.484375-1.136719 4.957031-1.660156 7.425781-.402344 1.882813-.792969 3.757813-1.164063 5.632813-.488281 2.492187-.925781 4.972656-1.351562 7.449219-.3125 1.8125-.628906 3.621093-.90625 5.421874-.394531 2.566407-.71875 5.109376-1.039062 7.652344-.210938 1.683594-.449219 3.375-.628907 5.046875-.296875 2.789063-.503906 5.546875-.707031 8.300781-.101562 1.390626-.25 2.792969-.324219 4.175782-.230469 4.113281-.367187 8.195312-.367187 12.226562 0 145.066406 85.335937 145.066406 85.335937 145.066406h25.597657s-85.332032 0-85.332032-145.066406c0-4.03125.132813-8.113281.363282-12.230468.078124-1.382813.226562-2.785157.328124-4.179688.203126-2.753906.410157-5.511719.707032-8.296875.179687-1.675781.414062-3.363281.628906-5.046875.320312-2.542969.644531-5.089844 1.039062-7.652344.273438-1.800781.597657-3.613281.902344-5.421875.425782-2.472656.867188-4.957031 1.355469-7.453125.367187-1.871094.761719-3.75 1.160156-5.628906.527344-2.472656 1.082031-4.945312 1.660157-7.425781.445312-1.890625.902343-3.78125 1.375-5.675781.632812-2.511719 1.289062-5.023438 1.980468-7.542969.511719-1.878907 1.015625-3.75 1.550782-5.632813.742187-2.59375 1.527343-5.1875 2.320312-7.789062.226562-.746094.433594-1.492188.667969-2.242188l-.171875.480469c-27.390625-13.484375-59.390625-40.449219-47.53125-77.3125 5.402344-14.359375 13.128906-27.738281 22.871094-39.59375 16.722656-22.441406 23.550781-33.28125 10.152343-53.164063-4.453125-6.632812-8.0625-13.800781-10.746093-21.328124-6.054688-17.160157-7.464844-35.617188-4.097657-53.503907.65625-2.738281 1.984375-5.273437 3.863281-7.371093-4.199218-4.847657-10.769531-6.925782-16.996093-5.367188-6.222657 1.558594-11.042969 6.480469-12.464844 12.738281-3.371094 17.886719-1.957031 36.34375 4.09375 53.503907 2.683594 7.53125 6.296875 14.695312 10.753906 21.335937 13.394531 19.882813 6.570313 30.71875-10.15625 53.160156-9.738281 11.859375-17.464843 25.234375-22.867187 39.597657-11.863282 36.863281 20.136718 63.828124 47.527344 77.308593zm0 0" fill="#fff"/><path d="m211.589844 22.878906c-6.230469 8.789063-14.847656 21.417969-24.746094 36.863282-2.902344 4.355468-5.804688 8.960937-8.875 13.824218-1.535156 2.390625-3.070312 4.867188-4.609375 7.425782-2.8125 4.523437-5.628906 9.128906-8.53125 13.996093-4.054687 1.023438-7.804687 3.015625-10.921875 5.800781-7.117188 7.273438-10.238281 17.5625-8.363281 27.5625l-1.535157 2.816407c-.234374.351562-.433593.722656-.597656 1.109375-1.964844 3.5-3.839844 6.996094-5.804687 10.582031-.429688.9375-.914063 1.847656-1.449219 2.730469-1.621094 3.070312-3.242188 6.230468-4.863281 9.300781l-1.792969 3.582031c-1.535156 2.902344-2.988281 5.804688-4.4375 8.792969l-2.046875 4.09375c-1.367187 2.816406-2.730469 5.632813-4.097656 8.535156-.683594 1.449219-1.449219 2.898438-2.132813 4.351563-1.28125 2.816406-2.644531 5.714844-3.925781 8.617187-.085937.085938-.171875.171875-.171875.257813-.597656 1.363281-1.191406 2.730468-1.875 4.09375-1.28125 2.988281-2.644531 5.972656-3.925781 8.960937l-1.792969 4.097657c-1.535156 3.496093-2.984375 7.082031-4.351562 10.578124-.191407.390626-.363282.789063-.511719 1.195313-.234375.441406-.433594.894531-.597657 1.367187l-4.097656 10.496094c-6.992187-3.683594-13.425781-8.335937-19.113281-13.824218 1.109375-3.839844 2.046875-6.828126 2.558594-8.449219.050781-.042969.082031-.105469.085937-.171875.511719-1.363282 1.109375-2.644532 1.707032-4.007813l.511718-1.28125c1.539063-3.5 3.074219-6.996093 4.695313-10.496093l1.277343-2.816407c1.28125-2.902343 2.648438-5.800781 3.925782-8.617187.085937-.085938.085937-.171875.171875-.257813.597656-1.363281 1.28125-2.730469 1.960937-4.09375 1.367188-2.902343 2.734375-5.71875 4.097656-8.535156l2.046876-4.09375c1.453124-2.988281 2.902343-5.890625 4.4375-8.792969l1.792968-3.582031c1.621094-3.070313 3.242188-6.230469 4.863282-9.300781.535156-.882813 1.019531-1.792969 1.453124-2.730469.679688-1.28125 1.449219-2.5625 2.046876-3.839844 1.28125-2.304687 2.472656-4.523437 3.753906-6.742187.164062-.386719.367187-.757813.597656-1.109375l1.535156-2.816407c-1.871094-10 1.25-20.289062 8.363282-27.5625 3.121093-2.785156 6.867187-4.777343 10.921874-5.800781 2.902344-4.867187 5.71875-9.472656 8.535157-13.996093 1.535156-2.558594 3.070312-5.035157 4.605469-7.425782 1.539062-2.386718 3.074218-4.777344 4.523437-7.082031l4.351563-6.742187c14.679687-22.355469 20.3125-30.546876 24.75-36.863282 3.667968-5.117187 6.398437-9.042968 8.191406-11.433594 1.214844-1.714843 3.515625-2.265624 5.375-1.28125.171875.085938.339844.257813.511718.34375 4.738282 3.1875 8.679688 7.417969 11.519532 12.371094zm0 0" fill="#fff"/><path d="m80.773438 207.457031c-.597657 1.363281-1.195313 2.644531-1.707032 4.007813.257813-.59375.34375-1.023438.429688-1.191406zm0 0" fill="#fff"/><path d="m95.535156 233.910156c-.082031.167969-.082031.339844-.167968.511719l-17.496094 54.953125c-6.796875-4.511719-12.894532-10.003906-18.089844-16.296875.941406-2.304687 11.179688-35.925781 16.640625-52.992187 5.6875 5.488281 12.121094 10.140624 19.113281 13.824218zm0 0" fill="#fff"/><path d="m85.980469 195.679688c-1.621094 3.5-3.15625 6.996093-4.695313 10.496093 1.28125-2.988281 2.648438-5.972656 3.925782-8.960937zm0 0" fill="#fff"/><path d="m51.25 358.410156c.425781 8.984375.503906 18.023438 1.1875 26.960938.796875 8.875 2.089844 17.699218 3.875 26.433594 2.980469 17.203124 9.300781 33.660156 18.609375 48.4375 6.046875 9.472656 13.933594 17.636718 23.195313 24.007812l7.167968 4.132812c2.539063 1.03125 4.960938 2.398438 7.574219 3.210938 4.878906 1.824219 9.992187 2.953125 15.191406 3.351562v17.066407c-27.917969-2.632813-52.929687-18.367188-67.390625-42.394531-10.496094-16.574219-17.652344-35.042969-21.0625-54.367188-1.160156-4.65625-1.976562-9.394531-2.441406-14.171875l-1.722656-14.226563c-.730469-9.484374-.824219-18.960937-1.25-28.441406zm0 0" fill="#fff"/><g fill="#428dff"><path d="m45.734375 400.933594c4.597656-.652344 7.875-4.796875 7.453125-9.421875l-1-8.183594-.308594-8.304687-.628906-16.613282h-17.066406l.652344 17.5.339843 8.75 1.054688 8.753906c.222656 2.277344 1.359375 4.363282 3.152343 5.78125 1.792969 1.417969 4.085938 2.046876 6.351563 1.738282zm0 0"/><path d="m128.050781 512.011719v-17.066407c-5.195312-.398437-10.3125-1.527343-15.191406-3.351562-2.609375-.8125-5.035156-2.179688-7.574219-3.210938l-7.167968-4.132812c-9.261719-6.371094-17.148438-14.535156-23.195313-24.007812l-4.132813-6.710938c-2.230468-3.925781-7.113281-5.464844-11.195312-3.535156-2.109375 1.015625-3.707031 2.855468-4.414062 5.089844-.710938 2.230468-.464844 4.65625.675781 6.703124l4.808593 7.828126c14.460938 24.027343 39.46875 39.757812 67.386719 42.394531zm0 0"/><path d="m58.9375 423.769531c-.535156-2.09375-1.84375-3.910156-3.664062-5.074219l-1.453126-.679687c-.535156-.199219-1.09375-.332031-1.660156-.386719-.523437-.128906-1.0625-.175781-1.601562-.144531-.570313.03125-1.140625.101563-1.699219.210937-2.21875.539063-4.140625 1.914063-5.363281 3.839844-.578125 1.015625-.957032 2.125-1.121094 3.277344-.382812 2.324219.234375 4.703125 1.703125 6.546875s3.644531 2.980469 5.996094 3.132813c1.113281.105468 2.234375-.019532 3.296875-.359376 2.117187-.746093 3.890625-2.226562 5.007812-4.171874.992188-1.910157 1.191406-4.132813.558594-6.191407zm0 0"/><path d="m42.714844 366.945312c-4.710938 0-8.53125-3.820312-8.53125-8.535156 0-61.78125 26.316406-140.550781 78.214844-234.113281 1.429687-2.757813 4.246093-4.519531 7.351562-4.601563 3.105469-.085937 6.007812 1.527344 7.582031 4.207032 1.574219 2.679687 1.566407 6-.015625 8.671875-49.757812 89.71875-76.066406 167.808593-76.066406 225.835937 0 4.714844-3.820312 8.535156-8.535156 8.535156zm0 0"/><path d="m384.050781 512.011719h-256c-4.714843 0-8.535156-3.820313-8.535156-8.535157 0-4.710937 3.820313-8.53125 8.535156-8.53125h256c3.082031-.042968 76.796875-2.523437 76.796875-136.535156 0-58.027344-26.308594-136.117187-76.066406-225.835937-1.582031-2.671875-1.589844-5.996094-.015625-8.675781 1.574219-2.675782 4.476563-4.289063 7.582031-4.207032 3.105469.082032 5.921875 1.847656 7.351563 4.605469 51.898437 93.5625 78.214843 172.332031 78.214843 234.113281 0 62.777344-15.367187 107.675782-45.671874 133.433594-13.378907 11.890625-30.335938 18.988281-48.191407 20.167969zm0 0"/><path d="m372.882812 103.433594c-3 .003906-5.78125-1.566406-7.324218-4.136719-23.433594-39-44.191406-68.503906-51.996094-79.316406-7.984375 9.199219-13.171875 20.492187-14.949219 32.542969-.652343 4.152343-4.226562 7.214843-8.429687 7.21875h-68.269532c-4.203124-.003907-7.777343-3.066407-8.433593-7.21875-1.78125-12.050782-6.972657-23.335938-14.964844-32.53125-7.734375 10.730468-28.515625 40.265624-51.976563 79.304687-2.425781 4.042969-7.667968 5.351563-11.710937 2.925781-4.039063-2.429687-5.347656-7.671875-2.921875-11.714844 27.203125-45.257812 50.917969-78.003906 55.394531-84.109374 3.789063-5.203126 10.863281-6.765626 16.488281-3.640626 15.445313 9.25 22.335938 29.035157 25.058594 39.917969h54.402344c2.714844-10.878906 9.582031-30.648437 24.90625-39.832031 5.609375-3.191406 12.714844-1.703125 16.574219 3.46875 4.542969 6.191406 28.261719 38.9375 55.460937 84.195312 1.578125 2.632813 1.621094 5.914063.109375 8.589844-1.511719 2.675782-4.34375 4.332032-7.417969 4.335938zm0 0"/><path d="m221.914062 76.8125c-4.710937 0-8.53125-3.824219-8.53125-8.535156v-17.066406c0-4.714844 3.820313-8.535157 8.53125-8.535157 4.714844 0 8.535157 3.820313 8.535157 8.535157v17.066406c0 4.710937-3.820313 8.535156-8.535157 8.535156zm0 0"/><path d="m256.050781 93.878906c-4.714843 0-8.535156-3.820312-8.535156-8.535156v-34.132812c0-4.714844 3.820313-8.535157 8.535156-8.535157 4.710938 0 8.53125 3.820313 8.53125 8.535157v34.132812c0 4.714844-3.820312 8.535156-8.53125 8.535156zm0 0"/><path d="m290.183594 76.8125c-4.714844 0-8.535156-3.824219-8.535156-8.535156v-17.066406c0-4.714844 3.820312-8.535157 8.535156-8.535157 4.710937 0 8.53125 3.820313 8.53125 8.535157v17.066406c0 4.710937-3.820313 8.535156-8.53125 8.535156zm0 0"/><path d="m196.316406 512.011719h-59.734375c-4.710937 0-8.53125-3.820313-8.53125-8.535157 0-4.710937 3.820313-8.53125 8.53125-8.53125h59.734375c9.425782 0 17.066406-7.640624 17.066406-17.066406 0-9.425781-7.640624-17.066406-17.066406-17.066406h-59.734375c-4.710937 0-8.53125-3.824219-8.53125-8.535156 0-4.714844 3.820313-8.535156 8.53125-8.535156h59.734375c18.851563 0 34.132813 15.285156 34.132813 34.136718 0 18.851563-15.28125 34.132813-34.132813 34.132813zm0 0"/><path d="m375.515625 512.011719h-59.734375c-18.851562 0-34.132812-15.28125-34.132812-34.132813 0-18.851562 15.28125-34.136718 34.132812-34.136718h59.734375c4.710937 0 8.535156 3.820312 8.535156 8.535156 0 4.710937-3.824219 8.535156-8.535156 8.535156h-59.734375c-9.425781 0-17.066406 7.640625-17.066406 17.066406 0 9.425782 7.640625 17.066406 17.066406 17.066406h59.734375c4.710937 0 8.535156 3.820313 8.535156 8.53125 0 4.714844-3.824219 8.535157-8.535156 8.535157zm0 0"/><path d="m153.648438 379.464844c-14.132813-.015625-25.582032-11.46875-25.597657-25.601563v-51.199219c0-4.710937 3.820313-8.53125 8.53125-8.53125 4.714844 0 8.535157 3.820313 8.535157 8.53125v51.199219c0 4.714844 3.820312 8.535157 8.53125 8.535157 4.714843 0 8.535156-3.820313 8.535156-8.535157v-25.597656c0-4.714844 3.820312-8.535156 8.53125-8.535156 4.714844 0 8.535156 3.820312 8.535156 8.535156v25.597656c-.015625 14.132813-11.46875 25.585938-25.601562 25.601563zm0 0"/><path d="m358.449219 379.464844c-14.132813-.015625-25.585938-11.46875-25.601563-25.601563v-25.597656c0-4.714844 3.820313-8.535156 8.535156-8.535156 4.710938 0 8.53125 3.820312 8.53125 8.535156v25.597656c0 4.714844 3.820313 8.535157 8.535157 8.535157 4.710937 0 8.53125-3.820313 8.53125-8.535157v-51.199219c0-4.710937 3.824219-8.53125 8.535156-8.53125s8.535156 3.820313 8.535156 8.53125v51.199219c-.015625 14.132813-11.46875 25.585938-25.601562 25.601563zm0 0"/><path d="m58.582031 275.210938c-1.304687 0-2.589843-.300782-3.757812-.878907-43.285157-21.300781-62.675781-54.042969-51.890625-87.578125 5.53125-15.003906 13.515625-28.984375 23.625-41.371094l.523437-.714843c17.167969-23.039063 19.683594-28.8125 9.925781-43.289063-15.691406-24.046875-21.464843-53.238281-16.109374-81.449218 1.507812-6.671876 5.632812-12.460938 11.449218-16.066407 5.769532-3.585937 12.726563-4.738281 19.339844-3.195312 6.617188 1.539062 12.347656 5.648437 15.9375 11.414062 3.605469 5.75 4.757812 12.707031 3.199219 19.3125l-.015625.0625c-2.257813 14.359375.835937 29.046875 8.691406 41.277344 30.867188 45.964844 4.441406 81.375-11.34375 102.535156-6.835938 8.152344-12.390625 17.300781-16.46875 27.128907-1.941406 6.074218 6.640625 15.300781 22.390625 24.054687 2.738281 1.441406 4.476563 4.25 4.550781 7.34375.074219 3.089844-1.527344 5.980469-4.191406 7.554687-2.664062 1.570313-5.972656 1.578126-8.640625.015626-31.21875-17.335938-33.742187-33.59375-30.367187-44.183594 4.578124-11.660156 11.007812-22.507813 19.039062-32.117188 15.59375-20.894531 34.988281-46.890625 10.859375-82.8125-10.59375-16.132812-14.523437-35.742187-10.96875-54.710937l-.152344-.03125c.769531-3.363281-.5625-6.855469-3.367187-8.859375-2.808594-2-6.546875-2.121094-9.472656-.300782-1.933594 1.199219-3.308594 3.125-3.820313 5.34375-4.265625 23.621094.601563 47.980469 13.617187 68.152344 17.367188 25.769532 5.109376 42.203125-10.398437 63.023438-9.148437 11.121094-16.4375 23.648437-21.585937 37.097656-11.800782 36.6875 30.066406 60.597656 43.179687 67.054688 3.558594 1.753906 5.4375 5.726562 4.539063 9.59375-.902344 3.863281-4.347657 6.59375-8.3125 6.59375zm0 0"/><path d="m174.980469 203.703125c-1.542969 0-3.058594-.421875-4.382813-1.214844-14.273437-8.550781-39.75-25.804687-49.898437-45.339843-13.707031-24.636719-13.023438-49.34375 1.878906-62.726563 8.503906-7.367187 19.882813-10.507813 30.964844-8.546875 8.15625 1.371094 15.664062 5.296875 21.4375 11.214844 5.777343-5.917969 13.289062-9.847656 21.445312-11.21875 11.082031-1.960938 22.457031 1.175781 30.964844 8.542968 14.898437 13.386719 15.582031 38.097657 1.757813 62.945313-10.03125 19.320313-35.507813 36.578125-49.78125 45.125-1.324219.796875-2.839844 1.214844-4.386719 1.21875zm-27.847657-101.292969c-4.8125-.078125-9.488281 1.59375-13.160156 4.703125-8.472656 7.613281-7.75 24.863281 1.757813 41.949219 10.050781 14.964844 23.503906 27.332031 39.253906 36.09375 15.683594-8.714844 29.089844-21.007812 39.132813-35.875 9.628906-17.300781 10.351562-34.550781 1.878906-42.167969-4.65625-3.875-10.789063-5.488281-16.75-4.402343-7.296875 1.332031-13.527344 6.042968-16.800782 12.699218-1.636718 2.527344-4.445312 4.054688-7.457031 4.054688-3.015625 0-5.820312-1.527344-7.457031-4.054688-3.273438-6.65625-9.507812-11.367187-16.800781-12.699218-1.191407-.199219-2.394531-.300782-3.597657-.300782zm0 0"/><path d="m337.117188 203.703125c-1.546876 0-3.0625-.421875-4.386719-1.214844-14.273438-8.550781-39.75-25.804687-49.898438-45.339843-13.707031-24.636719-13.023437-49.34375 1.878907-62.726563 8.503906-7.371094 19.882812-10.511719 30.964843-8.546875 8.15625 1.371094 15.664063 5.296875 21.441407 11.214844 5.773437-5.917969 13.285156-9.847656 21.441406-11.21875 11.082031-1.964844 22.457031 1.175781 30.964844 8.542968 14.902343 13.386719 15.585937 38.097657 1.757812 62.945313-10.03125 19.320313-35.507812 36.578125-49.78125 45.125-1.324219.796875-2.839844 1.214844-4.382812 1.21875zm-27.851563-101.292969c-4.8125-.078125-9.488281 1.59375-13.160156 4.703125-8.472657 7.613281-7.75 24.863281 1.761719 41.949219 10.046874 14.964844 23.5 27.332031 39.25 36.09375 15.683593-8.714844 29.089843-21.007812 39.136718-35.875 9.625-17.300781 10.347656-34.550781 1.875-42.167969-4.65625-3.875-10.789062-5.488281-16.75-4.402343-7.292968 1.332031-13.527344 6.042968-16.800781 12.699218-1.636719 2.527344-4.445313 4.054688-7.457031 4.054688-3.011719 0-5.820313-1.527344-7.457032-4.054688-3.273437-6.65625-9.507812-11.367187-16.800781-12.699218-1.191406-.199219-2.394531-.300782-3.597656-.300782zm0 0"/><path d="m256.050781 298.675781c-28.234375 0-51.203125-26.792969-51.203125-59.730469-.050781-10.15625 2.199219-20.1875 6.585938-29.347656 1.429687-2.929687 4.40625-4.785156 7.667968-4.785156h73.898438c3.257812 0 6.234375 1.855469 7.664062 4.785156 4.386719 9.160156 6.636719 19.191406 6.585938 29.347656 0 32.9375-22.96875 59.730469-51.199219 59.730469zm-31.285156-76.796875c-1.90625 5.484375-2.871094 11.257813-2.851563 17.066406 0 23.523438 15.308594 42.664063 34.136719 42.664063 18.824219 0 34.132813-19.140625 34.132813-42.664063.019531-5.808593-.945313-11.582031-2.851563-17.066406zm0 0"/><path d="m291.816406 275.382812c-2.894531.003907-5.59375-1.460937-7.167968-3.886718-6.304688-9.660156-17.0625-15.484375-28.601563-15.484375-11.535156 0-22.292969 5.824219-28.601563 15.484375-2.566406 3.953125-7.855468 5.078125-11.808593 2.507812-3.953125-2.566406-5.074219-7.855468-2.507813-11.808594 9.457032-14.503906 25.601563-23.253906 42.917969-23.253906s33.460937 8.75 42.917969 23.253906c1.703125 2.625 1.835937 5.96875.34375 8.71875-1.488282 2.75-4.367188 4.464844-7.496094 4.464844zm0 0"/><path d="m264.582031 187.742188h-17.066406c-4.710937 0-8.535156-3.820313-8.535156-8.53125 0-4.714844 3.824219-8.535157 8.535156-8.535157h17.066406c4.714844 0 8.535157 3.820313 8.535157 8.535157 0 4.710937-3.820313 8.53125-8.535157 8.53125zm0 0"/><path d="m162.183594 460.8125c-4.714844 0-8.535156-3.824219-8.535156-8.535156 0-43.46875-42.265626-51.015625-44.066407-51.316406-3.050781-.457032-5.617187-2.519532-6.714843-5.398438-1.097657-2.882812-.558594-6.132812 1.414062-8.5 1.972656-2.371094 5.070312-3.492188 8.101562-2.933594 33.582032 5.230469 58.34375 34.160156 58.332032 68.148438 0 4.710937-3.820313 8.535156-8.53125 8.535156zm0 0"/><path d="m349.914062 460.8125c-4.710937 0-8.53125-3.824219-8.53125-8.535156-.011718-33.988282 24.75-62.917969 58.332032-68.148438 4.617187-.722656 8.960937 2.402344 9.734375 7.011719.777343 4.609375-2.300781 8.984375-6.898438 9.816406-1.800781.3125-44.101562 8.152344-44.101562 51.320313 0 4.710937-3.820313 8.535156-8.535157 8.535156zm0 0"/></g></svg>