<svg height="512pt" viewBox="-17 0 512 512.0193" width="512pt" xmlns="http://www.w3.org/2000/svg"><path d="m69.875 233.894531-11.347656 32.765625c-27.394532-13.480468-59.394532-40.445312-47.53125-77.3125 5.402344-14.359375 13.128906-27.738281 22.867187-39.59375 16.726563-22.441406 23.554688-33.28125 10.15625-53.160156-4.457031-6.640625-8.066406-13.804688-10.753906-21.335938-6.050781-17.160156-7.464844-35.617187-4.09375-53.503906 2.121094-9.1875 11.289063-14.921875 20.480469-12.800781 9.1875 2.121094 14.917968 11.292969 12.796875 20.480469-1.949219 11.910156-.742188 24.117187 3.5 35.414062 1.582031 4.46875 3.730469 8.710938 6.398437 12.628906 27.394532 40.789063 5.207032 70.828126-11.089844 92.671876-7.453124 8.867187-13.445312 18.859374-17.75 29.613281-4.523437 14.164062 13.3125 26.878906 26.367188 34.132812zm0 0" fill="#a4c2f7"/><path d="m469.320312 358.394531c0 145.066407-85.332031 145.066407-85.332031 145.066407h-256s-85.335937 0-85.335937-145.066407c0-122.113281 108.886718-286.632812 143.277344-335.53125 3.667968-5.121093 6.398437-9.042969 8.191406-11.433593 1.214844-1.714844 3.515625-2.265626 5.375-1.28125.171875.085937.339844.257812.511718.34375 17.238282 10.835937 21.84375 40.703124 21.84375 40.703124h68.269532c1.734375-9.980468 5.230468-19.574218 10.324218-28.332031 2.816407-4.96875 6.761719-9.210937 11.519532-12.371093.171875-.085938.34375-.257813.511718-.34375 1.859376-.984376 4.160157-.433594 5.375 1.28125 18.433594 25.257812 151.46875 211.96875 151.46875 346.964843zm0 0" fill="#cad9fc"/><path d="m443.71875 358.394531c0 145.066407-85.332031 145.066407-85.332031 145.066407h-230.398438s-85.335937 0-85.335937-145.066407c0-122.113281 108.886718-286.632812 143.277344-335.53125 5.09375 8.757813 8.589843 18.351563 10.324218 28.332031h93.867188c1.734375-9.980468 5.230468-19.574218 10.324218-28.332031 34.390626 48.898438 143.273438 213.417969 143.273438 335.53125zm0 0" fill="#e8edfc"/><path d="m358.386719 401.0625c.6875 36.375-9.730469 72.097656-29.867188 102.398438h-145.066406c-20.136719-30.300782-30.554687-66.023438-29.867187-102.398438 0-80.128906 45.824218-145.066406 102.402343-145.066406 56.574219 0 102.398438 64.9375 102.398438 145.066406zm0 0" fill="#fff"/><path d="m136.519531 443.726562h59.734375c14.136719 0 25.597656 11.460938 25.597656 25.601563 0 14.136719-11.460937 25.601563-25.597656 25.601563h-59.734375" fill="#e8edfc"/><path d="m375.453125 443.726562h-59.734375c-14.136719 0-25.597656 11.460938-25.597656 25.601563 0 14.136719 11.460937 25.601563 25.597656 25.601563h59.734375" fill="#e8edfc"/><path d="m170.652344 328.25v25.601562c0 9.425782-7.640625 17.066407-17.066406 17.066407-9.425782 0-17.066407-7.640625-17.066407-17.066407v-51.199218" fill="#e8edfc"/><path d="m341.320312 328.25v25.601562c0 9.425782 7.640626 17.066407 17.066407 17.066407s17.066406-7.640625 17.066406-17.066407v-51.199218" fill="#e8edfc"/><path d="m65.949219 64.847656c-10.300781 5.113282-21.320313 8.625-32.683594 10.410156-6.050781-17.160156-7.464844-35.617187-4.09375-53.503906 2.121094-9.1875 11.289063-14.921875 20.480469-12.800781 9.1875 2.121094 14.917968 11.292969 12.796875 20.480469-1.949219 11.910156-.742188 24.117187 3.5 35.414062zm0 0" fill="#7facfa"/><path d="m291.230469 191.054688c-11.601563-2.324219-23.414063-3.4375-35.242188-3.328126-11.832031-.109374-23.644531 1.003907-35.246093 3.328126-4.746094 7.730468-7.28125 16.613281-7.335938 25.6875-.070312.277343-.101562.566406-.085938.851562-1.125 24.722656 17.949219 45.703125 42.667969 46.933594 24.714844-1.230469 43.789063-22.210938 42.664063-46.933594.015625-.285156-.015625-.574219-.085938-.851562-.054687-9.074219-2.589844-17.957032-7.335937-25.6875zm0 0" fill="#e8edfc"/><path d="m298.652344 217.59375c0 1.367188-.085938 2.644531-.167969 3.925781-27.898437-6.886719-57.066406-6.769531-84.910156.339844-.171875-1.414063-.257813-2.839844-.253907-4.265625-.015624-.285156.015626-.574219.085938-.851562.054688-9.074219 2.589844-17.957032 7.335938-25.6875 11.601562-2.324219 23.414062-3.4375 35.246093-3.328126 11.828125-.109374 23.640625 1.003907 35.242188 3.328126 4.746093 7.730468 7.28125 16.613281 7.335937 25.6875.070313.277343.101563.566406.085938.851562zm0 0" fill="#fff"/><path d="m281.585938 162.8125s-12.800782 24.914062-25.597657 24.914062c-12.800781 0-25.601562-24.914062-25.601562-24.914062.988281-.984375 2.042969-1.898438 3.15625-2.734375 5.980469-5.167969 13.332031-8.488281 21.164062-9.554687.851563-.085938 1.28125-.085938 1.28125-.085938s.425781 0 1.277344.085938c7.832031 1.066406 15.183594 4.386718 21.164063 9.554687 1.113281.835937 2.167968 1.75 3.15625 2.734375zm0 0" fill="#e8edfc"/><path d="m143.90625 131.164062c20.613281-37.269531 43.183594-73.417968 67.621094-108.300781l.007812.011719.023438-.035156c-2.859375-4.941406-6.8125-9.164063-11.550782-12.347656-.171874-.085938-.339843-.257813-.511718-.34375-1.859375-.984376-4.160156-.433594-5.375 1.28125-1.757813 2.40625-4.566406 6.296874-8.1875 11.445312l-.003906-.011719c-24.4375 34.882813-47.011719 71.03125-67.625 108.300781-.199219.359376-.398438.730469-.597657 1.089844-1.914062 3.488282-3.828125 7.015625-5.734375 10.582032-.488281.914062-.976562 1.84375-1.464844 2.765624-1.628906 3.070313-3.25 6.164063-4.867187 9.28125-.609375 1.179688-1.21875 2.367188-1.824219 3.554688-1.484375 2.90625-2.960937 5.832031-4.429687 8.777344-.679688 1.363281-1.355469 2.730468-2.027344 4.09375-1.390625 2.824218-2.765625 5.664062-4.128906 8.523437-.695313 1.449219-1.390625 2.898438-2.078125 4.363281-1.347656 2.859376-2.675782 5.730469-3.988282 8.617188-.664062 1.457031-1.335937 2.902344-1.992187 4.363281-1.34375 2.992188-2.65625 6-3.964844 9.011719-.589843 1.363281-1.195312 2.722656-1.78125 4.09375-1.28125 3.023438-18.464843 59.746094-19.707031 62.78125 5.203125 6.28125 11.28125 11.777344 18.054688 16.320312l17.511718-54.941406c1.398438-3.675781 2.828125-7.34375 4.289063-11.007812.351562-.871094.722656-1.734375 1.074219-2.601563 1.433593-3.527343 2.894531-7.046875 4.382812-10.550781.585938-1.371094 1.191406-2.730469 1.78125-4.097656 1.308594-3.011719 2.621094-6.019532 3.964844-9.011719.65625-1.457031 1.328125-2.90625 1.992187-4.359375 1.316407-2.886719 2.644531-5.757812 3.988281-8.621094.6875-1.460937 1.382813-2.910156 2.078126-4.363281 1.363281-2.855469 2.742187-5.695313 4.128906-8.519531.671875-1.371094 1.351562-2.738282 2.027344-4.097656 1.46875-2.945313 2.945312-5.871094 4.429687-8.773438.609375-1.1875 1.214844-2.375 1.824219-3.558594 1.613281-3.121094 3.234375-6.214844 4.867187-9.277344.488281-.925781.972657-1.851562 1.464844-2.769531 1.90625-3.570312 3.820313-7.097656 5.734375-10.582031.195312-.355469.394531-.726562.59375-1.085938zm0 0" fill="#fff"/><path d="m58.527344 266.660156.164062-.476562c-.234375.746094-.441406 1.492187-.667968 2.242187-.792969 2.597657-1.574219 5.191407-2.316407 7.785157-.539062 1.878906-1.042969 3.753906-1.554687 5.632812-.683594 2.519531-1.339844 5.035156-1.976563 7.542969-.476562 1.894531-.933593 3.789062-1.375 5.675781-.585937 2.484375-1.136719 4.957031-1.660156 7.425781-.402344 1.882813-.792969 3.757813-1.164063 5.632813-.488281 2.492187-.925781 4.972656-1.351562 7.449218-.3125 1.8125-.628906 3.621094-.90625 5.421876-.394531 2.566406-.71875 5.109374-1.039062 7.652343-.210938 1.683594-.449219 3.375-.625 5.046875-.300782 2.789063-.507813 5.546875-.710938 8.300782-.101562 1.390624-.25 2.792968-.324219 4.175781-.230469 4.113281-.367187 8.195312-.367187 12.226562 0 145.066407 85.335937 145.066407 85.335937 145.066407h25.597657s-85.332032 0-85.332032-145.066407c0-4.03125.132813-8.113281.363282-12.230469.078124-1.382812.226562-2.789062.328124-4.179687.203126-2.753906.410157-5.511719.707032-8.296875.179687-1.675781.414062-3.363281.628906-5.046875.320312-2.542969.644531-5.089844 1.039062-7.65625.277344-1.796875.597657-3.609375.902344-5.417969.429688-2.472656.867188-4.957031 1.355469-7.453125.367187-1.871093.761719-3.75 1.160156-5.628906.527344-2.472656 1.082031-4.945313 1.660157-7.425781.445312-1.890625.902343-3.78125 1.375-5.675782.632812-2.511718 1.292968-5.027343 1.980468-7.542968.511719-1.878906 1.015625-3.75 1.550782-5.632813.742187-2.59375 1.527343-5.191406 2.320312-7.789062.226562-.746094.433594-1.492188.667969-2.242188l-.171875.480469c-27.390625-13.484375-59.390625-40.449219-47.53125-77.3125 5.402344-14.363281 13.128906-27.738281 22.871094-39.59375 16.722656-22.441406 23.550781-33.28125 10.152343-53.164062-4.453125-6.636719-8.0625-13.800782-10.746093-21.328126-6.054688-17.160156-7.464844-35.617187-4.097657-53.503906.65625-2.738281 1.984375-5.273437 3.863281-7.371094-4.199218-4.847656-10.769531-6.925781-16.996093-5.367187-6.222657 1.554687-11.042969 6.480469-12.464844 12.738281-3.371094 17.886719-1.957031 36.34375 4.09375 53.503906 2.6875 7.53125 6.296875 14.695313 10.753906 21.335938 13.398438 19.878906 6.570313 30.71875-10.15625 53.160156-9.738281 11.855469-17.464843 25.234375-22.867187 39.59375-11.863282 36.867188 20.136718 63.832032 47.53125 77.3125zm0 0" fill="#fff"/><path d="m128.054688 512.015625c-20.929688-1.667969-40.46875-11.125-54.765626-26.496094-13.628906-14.519531-23.535156-32.121093-28.867187-51.304687-6.96875-24.660156-10.417969-50.179688-10.234375-75.800782h17.066406c-.175781 23.886719 3.007813 47.683594 9.449219 70.6875 4.542969 16.628907 13.054687 31.902344 24.808594 44.511719 5.777343 5.96875 12.480469 10.964844 19.847656 14.804688 7.066406 3.632812 14.777344 5.851562 22.695313 6.53125zm0 0" fill="#fff"/><g fill="#428dff"><path d="m88.964844 488.039062c-1.429688 1.898438-1.964844 4.328126-1.46875 6.652344.496094 2.324219 1.976562 4.320313 4.054687 5.472656 5.378907 3.332032 11.125 6.023438 17.121094 8.023438 6.234375 2.230469 12.765625 3.519531 19.382813 3.824219v-17.066407c-4.761719-.339843-9.457032-1.328124-13.949219-2.9375-4.800781-1.601562-9.398438-3.757812-13.695313-6.433593-3.902344-2.097657-8.75-1.054688-11.445312 2.464843zm0 0"/><path d="m51.253906 358.414062h-17.066406c-.183594 25.621094 3.265625 51.140626 10.234375 75.800782l2.808594 8.53125c.773437 2.203125 2.429687 3.984375 4.570312 4.910156 2.144531.925781 4.574219.917969 6.710938-.03125 4.125-1.867188 6.160156-6.558594 4.707031-10.847656l-2.515625-7.679688c-6.445313-23-9.625-46.796875-9.449219-70.683594zm0 0"/><path d="m64.273438 474.898438c1.503906 1.875 3.644531 3.136718 6.015624 3.546874l1.652344.011719c.570313-.042969 1.132813-.171875 1.664063-.382812.523437-.121094 1.027343-.324219 1.484375-.609375.484375-.296875.945312-.628906 1.382812-.992188 1.65625-1.542968 2.742188-3.597656 3.082032-5.835937.117187-1.0625.035156-2.136719-.242188-3.171875-.957031-3.007813-3.441406-5.277344-6.523438-5.96875-1.082031-.171875-2.183593-.152344-3.261718.0625-1.09375.183594-2.148438.578125-3.097656 1.152344-1.929688 1.238281-3.285157 3.191406-3.769532 5.433593-.472656 2.378907.113282 4.84375 1.613282 6.753907zm0 0"/><path d="m384.054688 512.019531h-256c-4.714844 0-8.535157-3.820312-8.535157-8.535156 0-4.710937 3.820313-8.53125 8.535157-8.53125h256c3.082031-.042969 76.796874-2.519531 76.796874-136.535156 0-127.445313-123.347656-305.160157-147.265624-338.414063-8.027344 9.15625-13.226563 20.449219-14.964844 32.503906-.636719 4.167969-4.21875 7.246094-8.433594 7.246094h-68.265625c-4.210937-.003906-7.789063-3.074218-8.433594-7.230468-1.769531-12.050782-6.964843-23.335938-14.96875-32.515626-23.917969 33.25-147.265625 210.960938-147.265625 338.40625 0 4.714844-3.820312 8.535157-8.535156 8.535157-4.710938 0-8.53125-3.820313-8.53125-8.535157 0-138.496093 137.449219-330.585937 153.125-352.03125 3.78125-5.300781 10.984375-6.839843 16.597656-3.542968 15.375 9.164062 22.242188 28.949218 24.953125 39.84375h54.382813c2.707031-10.894532 9.566406-30.679688 24.949218-39.839844 5.613282-3.308594 12.824219-1.769531 16.601563 3.539062 15.667969 21.445313 153.125 213.535157 153.125 352.03125 0 62.78125-15.367187 107.675782-45.675781 133.433594-13.378906 11.894532-30.332032 18.988282-48.191406 20.171875zm0 0"/><path d="m221.921875 76.816406c-4.714844 0-8.535156-3.820312-8.535156-8.535156v-17.066406c0-4.710938 3.820312-8.53125 8.535156-8.53125 4.710937 0 8.53125 3.820312 8.53125 8.53125v17.066406c0 4.714844-3.820313 8.535156-8.53125 8.535156zm0 0"/><path d="m256.054688 93.882812c-4.714844 0-8.535157-3.820312-8.535157-8.535156v-34.132812c0-4.710938 3.820313-8.53125 8.535157-8.53125 4.710937 0 8.53125 3.820312 8.53125 8.53125v34.132812c0 4.714844-3.820313 8.535156-8.53125 8.535156zm0 0"/><path d="m290.1875 76.816406c-4.714844 0-8.535156-3.820312-8.535156-8.535156v-17.066406c0-4.710938 3.820312-8.53125 8.535156-8.53125 4.710938 0 8.53125 3.820312 8.53125 8.53125v17.066406c0 4.714844-3.820312 8.535156-8.53125 8.535156zm0 0"/><path d="m196.320312 512.011719h-59.734374c-4.710938 0-8.53125-3.820313-8.53125-8.535157 0-4.710937 3.820312-8.53125 8.53125-8.53125h59.734374c9.425782 0 17.066407-7.640624 17.066407-17.066406 0-9.425781-7.640625-17.066406-17.066407-17.066406h-59.734374c-4.710938 0-8.53125-3.820312-8.53125-8.535156 0-4.710938 3.820312-8.53125 8.53125-8.53125h59.734374c18.851563 0 34.132813 15.28125 34.132813 34.132812 0 18.851563-15.28125 34.132813-34.132813 34.132813zm0 0"/><path d="m375.519531 512.011719h-59.734375c-18.851562 0-34.132812-15.28125-34.132812-34.132813 0-18.851562 15.28125-34.132812 34.132812-34.132812h59.734375c4.714844 0 8.535157 3.820312 8.535157 8.53125 0 4.714844-3.820313 8.535156-8.535157 8.535156h-59.734375c-9.425781 0-17.066406 7.640625-17.066406 17.066406 0 9.425782 7.640625 17.066406 17.066406 17.066406h59.734375c4.714844 0 8.535157 3.820313 8.535157 8.53125 0 4.714844-3.820313 8.535157-8.535157 8.535157zm0 0"/><path d="m153.652344 379.472656c-14.132813-.015625-25.582032-11.46875-25.597656-25.601562v-51.199219c0-4.710937 3.820312-8.535156 8.53125-8.535156 4.714843 0 8.535156 3.824219 8.535156 8.535156v51.199219c0 4.714844 3.820312 8.535156 8.53125 8.535156 4.714844 0 8.535156-3.820312 8.535156-8.535156v-25.597656c0-4.714844 3.820312-8.535157 8.53125-8.535157 4.714844 0 8.535156 3.820313 8.535156 8.535157v25.597656c-.015625 14.132812-11.46875 25.585937-25.601562 25.601562zm0 0"/><path d="m358.453125 379.472656c-14.132813-.015625-25.585937-11.46875-25.601563-25.601562v-25.597656c0-4.714844 3.824219-8.535157 8.535157-8.535157 4.710937 0 8.535156 3.820313 8.535156 8.535157v25.597656c0 4.714844 3.820313 8.535156 8.53125 8.535156 4.714844 0 8.535156-3.820312 8.535156-8.535156v-51.199219c0-4.710937 3.820313-8.535156 8.53125-8.535156 4.714844 0 8.535157 3.824219 8.535157 8.535156v51.199219c-.015626 14.132812-11.46875 25.585937-25.601563 25.601562zm0 0"/><path d="m58.585938 275.214844c-1.300782 0-2.585938-.300782-3.753907-.878906-43.285156-21.300782-62.679687-54.042969-51.894531-87.578126 5.53125-15.003906 13.515625-28.984374 23.625-41.371093l.523438-.714844c17.167968-23.039063 19.683593-28.8125 9.925781-43.289063-15.691407-24.046874-21.464844-53.238281-16.109375-81.445312 2.03125-8.9375 8.683594-16.105469 17.441406-18.804688 8.757812-2.695312 18.289062-.507812 24.992188 5.738282 6.707031 6.246094 9.5625 15.597656 7.492187 24.527344l-.015625.058593c-2.25 14.359375.839844 29.050781 8.691406 41.285157 30.867188 45.960937 4.441406 81.371093-11.339844 102.53125-6.84375 8.152343-12.398437 17.296874-16.476562 27.125-1.933594 6.078124 6.640625 15.304687 22.398438 24.050781 4.121093 2.285156 5.609374 7.480469 3.320312 11.605469-2.285156 4.121093-7.480469 5.605468-11.601562 3.320312-31.21875-17.335938-33.742188-33.597656-30.367188-44.1875 4.574219-11.664062 11.003906-22.507812 19.039062-32.117188 15.59375-20.890624 34.988282-46.886718 10.859376-82.8125-10.589844-16.136718-14.523438-35.742187-10.972657-54.714843l-.152343-.03125c1.054687-4.601563-1.820313-9.183594-6.421876-10.234375-4.601562-1.054688-9.183593 1.820312-10.234374 6.421875-4.265626 23.621093.601562 47.984375 13.613281 68.152343 17.367187 25.773438 5.109375 42.203126-10.398438 63.023438-9.144531 11.121094-16.433593 23.648438-21.582031 37.097656-11.800781 36.6875 30.066406 60.597656 43.179688 67.054688 3.554687 1.753906 5.4375 5.730468 4.535156 9.59375-.902344 3.863281-4.34375 6.59375-8.3125 6.59375zm0 0"/><path d="m255.988281 196.261719c-17.144531 0-30.652343-24.585938-33.195312-29.515625-1.71875-3.339844-1.050781-7.40625 1.640625-10.023438 8.285156-8.726562 19.546875-14.03125 31.554687-14.863281 12.003907.832031 23.261719 6.136719 31.546875 14.863281 2.695313 2.617188 3.363282 6.683594 1.644532 10.023438-2.542969 4.929687-16.050782 29.515625-33.191407 29.515625zm-14.625-31.5c5.15625 7.984375 11.488281 14.433593 14.625 14.433593 3.398438 0 9.738281-6.898437 14.613281-14.433593-4.28125-3.265625-9.382812-5.28125-14.738281-5.832031-5.269531.605468-10.28125 2.621093-14.5 5.832031zm0 0"/><path d="m153.59375 179.195312c-3.957031.003907-7.402344-2.714843-8.3125-6.570312-.914062-3.851562.945312-7.828125 4.488281-9.597656l34.199219-17.097656-25.015625-10.011719c-2.832031-1.128907-4.84375-3.6875-5.28125-6.703125-.433594-3.019532.773437-6.039063 3.167969-7.925782 2.394531-1.886718 5.617187-2.351562 8.445312-1.21875l42.667969 17.066407c3.121094 1.246093 5.222656 4.210937 5.363281 7.566406.140625 3.359375-1.707031 6.488281-4.710937 7.992187l-51.203125 25.597657c-1.179688.59375-2.484375.902343-3.808594.902343zm0 0"/><path d="m358.378906 179.195312c-1.324218 0-2.628906-.308593-3.808594-.902343l-51.199218-25.597657c-3.007813-1.503906-4.851563-4.632812-4.710938-7.992187.140625-3.355469 2.238282-6.320313 5.359375-7.566406l42.667969-17.066407c4.375-1.75 9.34375.378907 11.089844 4.757813 1.75 4.375-.378906 9.34375-4.757813 11.089844l-25.011719 10.011719 34.199219 17.097656c3.542969 1.769531 5.402344 5.746094 4.488281 9.601562-.910156 3.851563-4.355468 6.574219-8.316406 6.566406zm0 0"/><path d="m255.988281 273.0625c-29.421875-1.257812-52.296875-26.042969-51.203125-55.46875-.003906-.554688.027344-1.109375.09375-1.660156.203125-10.378906 3.171875-20.511719 8.601563-29.355469 2.472656-4.015625 7.730469-5.261719 11.746093-2.785156 4.011719 2.472656 5.257813 7.730469 2.785157 11.746093-3.929688 6.40625-6.03125 13.761719-6.074219 21.277344-.003906.367188-.03125.738282-.085938 1.101563-.917968 19.878906 14.273438 36.824219 34.136719 38.078125 19.859375-1.25 35.054688-18.195313 34.132813-38.078125-.054688-.363281-.082032-.734375-.085938-1.101563-.046875-7.515625-2.148437-14.875-6.074218-21.28125-2.476563-4.011718-1.226563-9.273437 2.785156-11.746094 4.011718-2.472656 9.273437-1.226562 11.746094 2.785157 5.429687 8.847656 8.398437 18.980469 8.601562 29.355469.066406.554687.097656 1.109374.09375 1.664062 1.097656 29.425781-21.78125 54.210938-51.199219 55.46875zm0 0"/><path d="m213.40625 230.398438c-4.246094-.003907-7.84375-3.125-8.441406-7.328126-.601563-4.203124 1.980468-8.207031 6.058594-9.398437 8.882812-2.441406 17.984374-4.023437 27.171874-4.722656 4.699219-.402344 8.832032 3.082031 9.230469 7.777343.402344 4.699219-3.082031 8.828126-7.777343 9.230469-8.066407.597657-16.054688 1.96875-23.859376 4.097657-.773437.226562-1.578124.34375-2.382812.34375zm0 0"/><path d="m298.566406 230.398438c-.804687 0-1.609375-.113282-2.382812-.339844-7.800782-2.128906-15.792969-3.5-23.855469-4.097656-4.699219-.398438-8.179687-4.53125-7.78125-9.230469.402344-4.695313 4.535156-8.179688 9.230469-7.777344 9.191406.695313 18.292968 2.273437 27.179687 4.714844 4.074219 1.191406 6.65625 5.195312 6.058594 9.398437s-4.195313 7.324219-8.441406 7.328125zm0 0"/><path d="m291.238281 199.589844c-.609375 0-1.214843-.066406-1.808593-.191406-22.105469-4.109376-44.78125-4.109376-66.882813 0-4.609375.992187-9.148437-1.933594-10.144531-6.542969-.992188-4.605469 1.9375-9.148438 6.542968-10.140625 24.480469-4.609375 49.605469-4.609375 74.082032 0 4.265625.917968 7.148437 4.90625 6.6875 9.242187-.460938 4.335938-4.117188 7.628907-8.480469 7.632813zm0 0"/><path d="m162.121094 460.792969c-4.714844 0-8.535156-3.820313-8.535156-8.53125 0-43.472657-42.265626-51.015625-44.066407-51.316407-3.050781-.457031-5.617187-2.519531-6.714843-5.398437-1.097657-2.882813-.558594-6.132813 1.414062-8.5 1.972656-2.371094 5.070312-3.492187 8.101562-2.933594 33.585938 5.230469 58.34375 34.160157 58.332032 68.148438 0 4.710937-3.820313 8.53125-8.53125 8.53125zm0 0"/><path d="m349.851562 460.792969c-4.710937 0-8.53125-3.820313-8.53125-8.53125-.011718-33.988281 24.75-62.917969 58.332032-68.148438 4.617187-.726562 8.960937 2.402344 9.734375 7.011719.777343 4.609375-2.300781 8.984375-6.898438 9.816406-1.800781.3125-44.101562 8.152344-44.101562 51.320313 0 4.710937-3.820313 8.53125-8.535157 8.53125zm0 0"/></g></svg>