<svg height="512pt" viewBox="-17 0 512 512.1284" width="512pt" xmlns="http://www.w3.org/2000/svg"><path d="m124.214844 480.214844c-16.554688 10.835937-39.851563 23.378906-58.796875 23.378906-20.226563.265625-39.035157-10.363281-49.242188-27.832031-10.207031-17.464844-10.238281-39.066407-.078125-56.5625 5.515625-10.515625 12.335938-20.292969 20.308594-29.097657 13.738281-16.296874 17.40625-20.652343 5.886719-39.851562-3.140625-5.226562-3.25-11.734375-.292969-17.066406 2.957031-5.335938 8.535156-8.683594 14.632812-8.789063 6.097657-.105469 11.789063 3.050781 14.929688 8.277344 24.066406 40.191406 5.71875 61.953125-9.042969 79.445313-6.203125 6.75-11.5625 14.230468-15.960937 22.273437-4.554688 7.386719-4.878906 16.628906-.851563 24.320313 4.390625 6.617187 11.769531 10.640624 19.710938 10.75 13.3125 0 41.816406-17.832032 57.261719-30.035157zm0 0" fill="#a4c2f7"/><path d="m333.535156 341.886719c-1.523437-5.980469-3.519531-11.828125-5.972656-17.492188l-147.371094 3.753907c-3.925781 4.867187-7.679687 9.898437-11.261718 15.105468-29.269532 41.558594-49.324219 91.136719-49.324219 117.675782.007812 23.558593 19.105469 42.65625 42.667969 42.664062h128c9.394531-.066406 16.996093-7.667969 17.066406-17.066406.027344 9.414062 7.652344 17.039062 17.066406 17.066406 9.398438-.066406 16.996094-7.667969 17.066406-17.066406v-76.800782c.253906-22.855468-2.410156-45.65625-7.9375-67.839843zm0 0" fill="#a56a43"/><path d="m341.472656 409.726562v76.800782c-.070312 9.398437-7.667968 17-17.066406 17.066406-9.414062-.027344-17.039062-7.652344-17.066406-17.066406v-72.53125c0-11.78125-9.550782-21.335938-21.335938-21.335938-11.78125 0-21.332031 9.554688-21.332031 21.335938v72.53125c-.066406 9.398437-7.667969 17-17.066406 17.066406h-85.332031c-23.5625-.007812-42.660157-19.105469-42.667969-42.664062 0-26.539063 20.054687-76.117188 49.324219-117.675782 3.582031-5.207031 7.335937-10.238281 11.261718-15.105468l147.371094-3.753907c2.453125 5.664063 4.449219 11.511719 5.972656 17.492188 5.527344 22.183593 8.191406 44.984375 7.9375 67.839843zm0 0" fill="#e8edfc"/><path d="m341.472656 409.726562v76.800782c-.070312 9.398437-7.667968 17-17.066406 17.066406-4.921875 0-9.597656-2.148438-12.800781-5.886719 2.777343-3.058593 4.300781-7.046875 4.265625-11.179687v-76.800782c.257812-22.855468-2.410156-45.65625-7.933594-67.839843-1.453125-5.746094-3.363281-11.367188-5.71875-16.808594l25.34375-.683594c2.453125 5.664063 4.449219 11.511719 5.972656 17.492188 5.527344 22.183593 8.191406 44.984375 7.9375 67.839843zm0 0" fill="#cad9fc"/><path d="m307.339844 486.527344c-.070313 9.398437-7.671875 17-17.066406 17.066406h-42.667969c9.398437-.066406 17-7.667969 17.066406-17.066406v-17.066406h25.601563c9.414062.027343 17.039062 7.652343 17.066406 17.066406zm0 0" fill="#e8edfc"/><path d="m307.339844 413.996094v72.53125c-.027344-9.414063-7.652344-17.039063-17.066406-17.066406h-25.601563v-55.464844c0-11.78125 9.550781-21.335938 21.332031-21.335938 11.785156 0 21.335938 9.554688 21.335938 21.335938zm0 0" fill="#a4c2f7"/><path d="m439.007812 113.28125c19.03125-35.585938 12.886719-96.257812 12.886719-96.257812s-65.023437-27.476563-109.398437 17.238281l-5.554688 5.242187c-28.828125-9.441406-59.003906-14.097656-89.335937-13.777344-30.332031-.320312-60.507813 4.335938-89.332031 13.777344l-5.558594-5.242187c-44.375-44.714844-109.398438-17.238281-109.398438-17.238281s-6.144531 60.671874 12.886719 96.257812c-18.949219 25.695312-29.582031 56.574219-30.464844 88.488281 0 72.449219 76.800781 131.160157 221.867188 131.160157 145.066406 0 221.867187-58.710938 221.867187-131.160157-.882812-31.914062-11.515625-62.792969-30.464844-88.488281zm0 0" fill="#cb8252"/><path d="m469.472656 201.769531c0 72.449219-76.800781 131.160157-221.867187 131.160157-4.09375 0-8.191407-.085938-12.203125-.171876h-1.195313c-136.359375-3.5-208.46875-60.84375-208.46875-130.988281.882813-31.914062 11.515625-62.792969 30.464844-88.488281 15.265625-21.582031 34.890625-39.71875 57.601563-53.25 12.984374-7.96875 26.808593-14.492188 41.214843-19.453125 25.625-8.832031 52.4375-13.75 79.53125-14.59375h.511719c4.09375-.171875 8.277344-.257813 12.542969-.257813 31.484375-.371093 62.800781 4.648438 92.585937 14.851563 14.410156 4.960937 28.230469 11.484375 41.21875 19.453125 22.710938 13.53125 42.332032 31.667969 57.597656 53.25 18.949219 25.695312 29.582032 56.574219 30.464844 88.488281zm0 0" fill="#cad9fc"/><path d="m443.871094 201.769531c0 70.144531-72.105469 127.488281-208.46875 130.988281h-1.195313c-136.359375-3.5-208.46875-60.84375-208.46875-130.988281.882813-31.914062 11.515625-62.792969 30.464844-88.488281 15.265625-21.582031 34.890625-39.71875 57.601563-53.25 12.984374-7.96875 26.808593-14.492188 41.214843-19.453125 25.625-8.832031 52.4375-13.75 79.53125-14.59375h.511719c27.089844.84375 53.902344 5.761719 79.53125 14.59375 14.40625 4.960937 28.226562 11.484375 41.214844 19.453125 22.710937 13.53125 42.332031 31.667969 57.601562 53.25 18.949219 25.695312 29.578125 56.574219 30.460938 88.488281zm0 0" fill="#e8edfc"/><path d="m113.804688 60.03125c-22.710938 13.53125-42.335938 31.667969-57.601563 53.25-19.03125-35.585938-12.886719-96.257812-12.886719-96.257812s36.351563 0 68.183594 39.167968zm0 0" fill="#a4c2f7"/><path d="m170.804688 51.328125c-15.1875 5.289063-44.714844 1.109375-57 8.703125l-2.304688-3.839844c-31.832031-39.167968-68.183594-39.167968-68.183594-39.167968s65.023438-27.476563 109.398438 17.238281zm0 0" fill="#e8edfc"/><path d="m439.007812 113.28125c-5.289062-7.539062-11.136718-14.671875-17.492187-21.335938-11.878906-12.386718-25.367187-23.121093-40.105469-31.914062l2.300782-3.839844c11.351562-14.484375 26.171874-25.875 43.09375-33.109375 7.933593-3.507812 16.429687-5.558593 25.089843-6.058593 0 0 6.144531 60.671874-12.886719 96.257812zm0 0" fill="#7facfa"/><path d="m421.515625 91.945312c-11.878906-12.386718-25.367187-23.121093-40.105469-31.914062l2.300782-3.839844c11.351562-14.484375 26.171874-25.875 43.09375-33.109375 1.535156 23.089844-.246094 46.28125-5.289063 68.863281zm0 0" fill="#a4c2f7"/><path d="m451.894531 17.023438s-36.351562 0-68.183593 39.167968l-2.300782 3.839844c-12.289062-7.59375-41.816406-3.414062-57.003906-8.703125l18.089844-17.066406c44.375-44.714844 109.398437-17.238281 109.398437-17.238281zm0 0" fill="#e8edfc"/><path d="m213.472656 123.863281c0-16.496093-7.640625-29.867187-17.066406-29.867187s-17.066406 13.371094-17.066406 29.867187c0 16.492188 7.640625 29.863281 17.066406 29.863281s17.066406-13.371093 17.066406-29.863281zm0 0" fill="#a4c2f7"/><path d="m206.160156 111.0625c0-9.425781-4.367187-17.066406-9.753906-17.066406s-9.753906 7.640625-9.753906 17.066406 4.367187 17.066406 9.753906 17.066406 9.753906-7.640625 9.753906-17.066406zm0 0" fill="#fff"/><path d="m315.871094 123.863281c0-16.496093-7.640625-29.867187-17.066406-29.867187-9.425782 0-17.066407 13.371094-17.066407 29.867187 0 16.492188 7.640625 29.863281 17.066407 29.863281 9.425781 0 17.066406-13.371093 17.066406-29.863281zm0 0" fill="#a4c2f7"/><path d="m308.558594 111.0625c0-9.425781-4.367188-17.066406-9.753906-17.066406-5.386719 0-9.75 7.640625-9.75 17.066406s4.363281 17.066406 9.75 17.066406c5.386718 0 9.753906-7.640625 9.753906-17.066406zm0 0" fill="#fff"/><path d="m280.542969 181.460938s-16.46875 32-32.9375 32-32.9375-32-32.9375-32c.9375-.851563 1.792969-1.707032 2.730469-2.558594 7.667968-6.953125 17.179687-11.542969 27.390624-13.226563 1.863282-.34375 3.769532-.34375 5.632813 0 10.210937 1.683594 19.722656 6.273438 27.390625 13.226563.941406.851562 1.792969 1.707031 2.730469 2.558594zm0 0" fill="#e8edfc"/><path d="m16.695312 476.628906c10.511719 16.78125 28.921876 26.972656 48.722657 26.964844 4.175781-.078125 8.332031-.625 12.386719-1.621094-17.425782-3.875-31.953126-15.847656-39.089844-32.210937-7.136719-16.363281-6.03125-35.148438 2.980468-50.5625 5.515626-10.515625 12.339844-20.292969 20.308594-29.097657 13.742188-16.296874 17.410156-20.652343 5.890625-39.851562-3.800781-6.359375-3.050781-14.453125 1.859375-20.003906-5.8125-6.648438-15.742187-7.761719-22.882812-2.558594-7.140625 5.199219-9.125 14.992188-4.578125 22.5625 11.519531 19.199219 7.851562 23.554688-5.886719 39.851562-7.96875 8.804688-14.792969 18.582032-20.308594 29.097657-10.128906 17.863281-9.902344 39.785156.597656 57.429687zm0 0" fill="#fff"/><path d="m26.621094 214.964844c.210937 1.566406.644531 3.085937.925781 4.636718.503906 2.738282.949219 5.488282 1.6875 8.167969.511719 1.863281 1.257813 3.660157 1.882813 5.492188.78125 2.296875 1.476562 4.617187 2.433593 6.867187.832031 1.957032 1.902344 3.832032 2.867188 5.746094 1.027343 2.050781 1.972656 4.117188 3.15625 6.113281 1.152343 1.949219 2.53125 3.816407 3.824219 5.71875 1.273437 1.871094 2.472656 3.765625 3.886718 5.585938 1.460938 1.886719 3.140625 3.6875 4.75 5.519531 1.527344 1.730469 2.988282 3.488281 4.640625 5.167969 1.765625 1.792969 3.734375 3.492187 5.648438 5.21875 1.78125 1.609375 3.507812 3.234375 5.417969 4.785156 2.046874 1.664063 4.285156 3.234375 6.480468 4.832031 2.058594 1.492188 4.078125 3.003906 6.265625 4.433594 2.3125 1.515625 4.789063 2.9375 7.242188 4.375 2.351562 1.382812 4.679687 2.773438 7.167969 4.085938 2.558593 1.347656 5.265624 2.613281 7.964843 3.886718 2.65625 1.257813 5.300781 2.515625 8.09375 3.699219 2.792969 1.179687 5.714844 2.273437 8.636719 3.371094 2.980469 1.125 5.960938 2.238281 9.078125 3.277343 3.003906 1 6.128906 1.917969 9.265625 2.839844 3.300781.96875 6.621094 1.917969 10.0625 2.796875 3.226562.816407 6.554688 1.566407 9.898438 2.304688 3.621093.792969 7.273437 1.5625 11.039062 2.257812 3.445312.636719 6.976562 1.207031 10.539062 1.753907.472657.074218.921876.160156 1.394532.234374l-.679688.015626c-3.925781 4.863281 21.671875 4.863281 25.597656 0l.683594-.015626c-.472656-.074218-.925781-.160156-1.394531-.234374-3.566406-.546876-7.097656-1.117188-10.542969-1.753907-3.761718-.695312-7.414062-1.464843-11.035156-2.257812-3.347656-.738281-6.679688-1.484375-9.898438-2.304688-3.445312-.878906-6.765624-1.828125-10.066406-2.796875-3.132812-.921875-6.257812-1.839844-9.265625-2.839844-3.117187-1.039062-6.097656-2.152343-9.078125-3.277343-2.921875-1.097657-5.84375-2.191407-8.632812-3.371094-2.789063-1.179687-5.4375-2.441406-8.097656-3.699219-2.695313-1.273437-5.40625-2.539062-7.964844-3.886718-2.484375-1.3125-4.8125-2.703126-7.167969-4.085938-2.449219-1.4375-4.929687-2.859375-7.238281-4.375-2.191406-1.433594-4.210938-2.941406-6.269532-4.433594-2.195312-1.597656-4.429687-3.167968-6.476562-4.832031-1.910156-1.550781-3.640625-3.175781-5.421875-4.785156-1.914063-1.726563-3.878906-3.429688-5.644531-5.21875-1.65625-1.679688-3.117188-3.4375-4.640625-5.167969-1.613281-1.832031-3.289063-3.632812-4.753907-5.519531-1.410156-1.820313-2.609374-3.714844-3.886718-5.585938-1.292969-1.898437-2.671875-3.769531-3.824219-5.71875-1.179687-1.996093-2.125-4.066406-3.15625-6.113281-.964844-1.914062-2.03125-3.789062-2.863281-5.746094-.957032-2.25-1.65625-4.570312-2.4375-6.867187-.621094-1.832031-1.371094-3.628907-1.882813-5.492188-.734375-2.679687-1.183593-5.429687-1.683593-8.167969-.285157-1.550781-.71875-3.070312-.925782-4.636718-.585937-4.375-.882812-8.78125-.882812-13.195313.882812-31.914062 11.511718-62.792969 30.464844-88.488281-19.03125-35.585938-12.886719-96.257812-12.886719-96.257812 10.207031-3.882813 20.871093-6.429688 31.734375-7.574219-19.441406-1.921875-39.0625.671875-57.335938 7.574219 0 0-6.144531 60.671874 12.886719 96.257812-18.949219 25.695312-29.582031 56.574219-30.464844 88.488281.003907 4.414063.296875 8.820313.882813 13.195313zm0 0" fill="#fff"/><path d="m324.40625 503.59375c4.527344.027344 8.871094-1.792969 12.03125-5.035156.28125-.273438.496094-.601563.757812-.898438-2.722656-3.070312-4.234374-7.027344-4.257812-11.132812-.039062 7.757812-5.292969 14.515625-12.796875 16.464844.226563.0625.4375.152343.667969.199218 1.179687.265625 2.386718.398438 3.597656.402344zm0 0" fill="#fff"/><path d="m235.0625 25.984375h-.511719c-2.175781.085937-4.199219.34375-6.335937.472656-3.359375.203125-6.675782.441407-9.941406.746094-4.355469.40625-8.609376.917969-12.8125 1.496094-3 .414062-6.003907.820312-8.921876 1.324219-4.519531.765624-8.886718 1.683593-13.214843 2.652343-1.8125.40625-3.726563.707031-5.503907 1.148438.164063.160156.335938.277343.496094.4375l5.554688 5.242187c1.078125-.363281 2.269531-.625 3.359375-.976562 4.789062-1.535156 9.664062-2.996094 14.730469-4.277344 2.269531-.578125 4.636718-1.054688 6.960937-1.574219 4.328125-.96875 8.699219-1.882812 13.214844-2.652343 2.921875-.503907 5.925781-.910157 8.925781-1.324219 4.203125-.578125 8.453125-1.089844 12.808594-1.496094 3.269531-.304687 6.585937-.542969 9.941406-.746094 2.136719-.128906 4.164062-.386719 6.335938-.472656h.53125c-4.285157-.171875-8.644532-.257813-13.074219-.257813-4.265625 0-8.449219.085938-12.542969.257813zm0 0" fill="#fff"/><path d="m34.273438 201.808594c.023437 17.011718 4.882812 33.664062 14.015624 48.019531 9.414063 14.5625 21.90625 26.886719 36.597657 36.09375 23.855469 14.800781 50.242187 25.054687 77.832031 30.242187 27.953125 5.554688 56.386719 8.3125 84.886719 8.230469v17.066407c-29.679688.082031-59.296875-2.796876-88.40625-8.597657-29.683594-5.617187-58.066407-16.699219-83.699219-32.683593-16.742188-10.554688-30.964844-24.644532-41.671875-41.285157-10.832031-17.074219-16.59375-36.871093-16.621094-57.085937zm0 0" fill="#fff"/><g fill="#428dff"><path d="m34.976562 243.109375c2-.925781 3.5625-2.582031 4.378907-4.628906.960937-1.921875 1.128906-4.140625.464843-6.183594-3.550781-9.777344-5.429687-20.085937-5.546874-30.488281h-17.066407c.117188 12.386718 2.339844 24.667968 6.570313 36.316406.753906 2.257812 2.382812 4.117188 4.523437 5.164062 2.152344.863282 4.570313.796876 6.675781-.179687zm0 0"/><path d="m247.605469 341.460938v-17.066407c-28.5.082031-56.933594-2.675781-84.886719-8.230469-27.589844-5.1875-53.976562-15.4375-77.832031-30.238281l-6.582031-4.667969c-3.785157-2.507812-8.847657-1.808593-11.808594 1.636719-1.503906 1.773438-2.183594 4.105469-1.867188 6.414063.316406 2.304687 1.597656 4.367187 3.527344 5.671875l7.34375 5.195312c25.636719 15.984375 54.015625 27.066407 83.703125 32.683594 29.105469 5.800781 58.722656 8.683594 88.402344 8.601563zm0 0"/><path d="m55.09375 259.472656c-1.308594-1.648437-3.179688-2.753906-5.253906-3.105468l-1.601563-.0625c-.570312.019531-1.136719.109374-1.683593.269531-.539063.082031-1.058594.238281-1.550782.464843-.519531.238282-1.023437.515626-1.503906.824219-1.875 1.300781-3.140625 3.304688-3.511719 5.558594-.136719 1.175781-.046875 2.371094.265625 3.515625.964844 3.542969 4.042969 6.105469 7.703125 6.40625 1.132813.0625 2.265625-.105469 3.332031-.5 1.054688-.359375 2.027344-.929688 2.851563-1.679688 1.613281-1.558593 2.632813-3.636718 2.875-5.867187.15625-2.117187-.535156-4.214844-1.921875-5.824219zm0 0"/><path d="m247.605469 341.460938c-4.710938 0-8.53125-3.820313-8.53125-8.53125 0-4.714844 3.820312-8.535157 8.53125-8.535157 129.589843 0 213.332031-48.117187 213.332031-122.585937 0-69.570313-66.183594-167.546875-213.332031-167.546875-147.148438 0-213.332031 97.976562-213.332031 167.546875 0 4.710937-3.820313 8.53125-8.535157 8.53125-4.710937 0-8.53125-3.820313-8.53125-8.53125 0-76.660156 71.484375-184.613282 230.398438-184.613282 158.917969 0 230.398437 107.953126 230.398437 184.613282 0 84.835937-90.433594 139.652344-230.398437 139.652344zm0 0"/><path d="m56.214844 121.8125c-3.152344.003906-6.046875-1.730469-7.535156-4.507812-20.03125-37.421876-14.117188-98.558594-13.855469-101.144532.4375-4.363281 4.109375-7.679687 8.492187-7.675781 1.652344 0 40.816406.480469 74.808594 42.378906 2.871094 3.664063 2.273438 8.953125-1.339844 11.886719-3.617187 2.929688-8.914062 2.425781-11.910156-1.136719-13.246094-17.578125-32.222656-29.976562-53.644531-35.042969-.824219 17.519532-.976563 57.515626 12.5 82.6875 1.414062 2.644532 1.335937 5.832032-.203125 8.40625-1.539063 2.570313-4.316406 4.144532-7.3125 4.148438zm0 0"/><path d="m152.714844 42.8125c-2.277344.003906-4.457032-.90625-6.058594-2.523438-39.667969-40.011718-97.59375-16.4375-100.035156-15.40625-4.339844 1.832032-9.347656-.203124-11.175782-4.546874-1.832031-4.339844.203126-9.347657 4.542969-11.179688 2.875-1.21875 70.886719-29.195312 118.785157 19.117188 2.425781 2.445312 3.144531 6.109374 1.816406 9.289062-1.324219 3.179688-4.429688 5.25-7.875 5.25zm0 0"/><path d="m438.996094 121.8125c-2.996094 0-5.773438-1.578125-7.3125-4.148438-1.539063-2.574218-1.617188-5.765624-.203125-8.410156 13.507812-25.226562 13.339843-65.183594 12.507812-82.6875-21.421875 5.066406-40.402343 17.464844-53.648437 35.046875-2.996094 3.5625-8.292969 4.066407-11.910156 1.136719-3.613282-2.933594-4.210938-8.222656-1.339844-11.886719 33.992187-41.898437 73.15625-42.378906 74.804687-42.378906 4.378907-.003906 8.050781 3.3125 8.492188 7.671875.253906 2.585938 6.175781 63.726562-13.859375 101.148438-1.484375 2.777343-4.378906 4.511718-7.53125 4.507812zm0 0"/><path d="m342.496094 42.8125c-3.445313 0-6.550782-2.070312-7.875-5.25-1.324219-3.179688-.609375-6.847656 1.816406-9.292969 47.882812-48.296875 115.910156-20.332031 118.785156-19.113281 4.339844 1.832031 6.375 6.835938 4.542969 11.179688-1.828125 4.34375-6.835937 6.378906-11.175781 4.546874-2.441406-1.023437-60.355469-24.601562-100.035156 15.40625-1.601563 1.617188-3.78125 2.527344-6.058594 2.523438zm0 0"/><path d="m341.472656 418.261719c-4.714844 0-8.535156-3.820313-8.535156-8.535157.828125-26.113281-3.660156-52.125-13.191406-76.453124-1.3125-2.808594-.996094-6.105469.820312-8.617188 1.820313-2.511719 4.855469-3.835938 7.933594-3.464844 3.074219.367188 5.710938 2.378906 6.878906 5.25 10.492188 26.476563 15.46875 54.820313 14.625 83.285156 0 4.714844-3.820312 8.535157-8.53125 8.535157zm0 0"/><path d="m119.605469 469.460938c-4.710938 0-8.53125-3.820313-8.53125-8.53125 0-33.777344 27.429687-94.441407 62.457031-138.117188 1.90625-2.378906 4.9375-3.558594 7.949219-3.097656 3.015625.460937 5.554687 2.496094 6.660156 5.335937 1.105469 2.839844.613281 6.058594-1.292969 8.4375-35.117187 43.789063-58.707031 101.25-58.707031 127.441407 0 4.710937-3.820313 8.53125-8.535156 8.53125zm0 0"/><path d="m162.273438 512.128906c-28.265626-.03125-51.171876-22.9375-51.199219-51.199218 0-4.714844 3.820312-8.535157 8.53125-8.535157 4.714843 0 8.535156 3.820313 8.535156 8.535157.019531 18.84375 15.289063 34.113281 34.132813 34.132812 4.710937 0 8.53125 3.820312 8.53125 8.53125 0 4.714844-3.820313 8.535156-8.53125 8.535156zm0 0"/><path d="m230.539062 461.183594c-4.710937 0-8.535156-3.820313-8.535156-8.53125 0-18.097656-14.238281-34.753906-37.164062-43.480469-2.886719-1.058594-4.980469-3.585937-5.480469-6.617187-.503906-3.03125.664063-6.097657 3.054687-8.03125 2.390626-1.929688 5.632813-2.429688 8.492188-1.300782 29.707031 11.300782 48.167969 34.074219 48.167969 59.429688 0 4.710937-3.820313 8.53125-8.535157 8.53125zm0 0"/><path d="m290.273438 512.128906h-128c-4.714844 0-8.535157-3.820312-8.535157-8.535156 0-4.710938 3.820313-8.53125 8.535157-8.53125h128c2.226562.019531 4.363281-.867188 5.921874-2.460938 1.671876-1.578124 2.617188-3.773437 2.609376-6.074218-.003907-4.710938-3.820313-8.527344-8.53125-8.53125h-25.601563c-4.710937 0-8.53125-3.820313-8.53125-8.535156 0-4.710938 3.820313-8.53125 8.53125-8.53125h25.601563c14.132812.015624 25.582031 11.464843 25.597656 25.597656-.070313 14.109375-11.488282 25.53125-25.597656 25.601562zm0 0"/><path d="m230.539062 477.996094h-59.734374c-4.710938 0-8.53125-3.820313-8.53125-8.535156 0-4.710938 3.820312-8.53125 8.53125-8.53125h59.734374c4.714844 0 8.535157 3.820312 8.535157 8.53125 0 4.714843-3.820313 8.535156-8.535157 8.535156zm0 0"/><path d="m324.40625 512.128906c-14.132812-.015625-25.585938-11.46875-25.601562-25.601562v-72.53125c0-4.714844 3.820312-8.535156 8.535156-8.535156 4.710937 0 8.53125 3.820312 8.53125 8.535156v72.53125c.003906 4.710937 3.824218 8.53125 8.535156 8.535156 2.226562.019531 4.367188-.867188 5.925781-2.460938 1.667969-1.578124 2.613281-3.773437 2.605469-6.074218v-76.800782c0-4.710937 3.820312-8.53125 8.535156-8.53125 4.710938 0 8.53125 3.820313 8.53125 8.53125v76.800782c-.066406 14.109375-11.488281 25.53125-25.597656 25.601562zm0 0"/><path d="m247.605469 512.128906c-14.132813-.015625-25.585938-11.46875-25.601563-25.601562v-76.800782c0-4.710937 3.824219-8.53125 8.535156-8.53125 4.714844 0 8.535157 3.820313 8.535157 8.53125v76.800782c.003906 4.710937 3.820312 8.53125 8.53125 8.535156 2.226562.019531 4.367187-.867188 5.925781-2.460938 1.667969-1.578124 2.613281-3.773437 2.609375-6.074218v-72.53125c0-4.714844 3.820313-8.535156 8.53125-8.535156 4.714844 0 8.535156 3.820312 8.535156 8.535156v72.53125c-.070312 14.109375-11.492187 25.53125-25.601562 25.601562zm0 0"/><path d="m65.417969 512.128906c-22.765625 0-43.921875-11.726562-55.992188-31.03125-12.128906-20.136718-12.496093-45.242187-.957031-65.726562 5.808594-11.132813 13.007812-21.476563 21.425781-30.789063 13.207031-15.671875 13.464844-15.96875 5.082031-29.945312-7.277343-12.121094-3.347656-27.851563 8.773438-35.128907 12.121094-7.277343 27.851562-3.347656 35.128906 8.773438 27.207032 45.441406 4.90625 71.859375-9.851562 89.339844-5.742188 6.25-10.722656 13.160156-14.828125 20.585937-3.042969 4.820313-3.496094 10.835938-1.210938 16.058594 2.84375 4.074219 7.460938 6.550781 12.429688 6.664063 9.585937 0 35.085937-14.863282 51.96875-28.203126 2.390625-1.886718 5.613281-2.359374 8.445312-1.230468 2.832031 1.125 4.847657 3.675781 5.289063 6.695312.441406 3.015625-.761719 6.039063-3.152344 7.929688-11.222656 8.867187-44.335938 31.875-62.550781 31.875-10.890625-.074219-21.015625-5.617188-26.949219-14.753906-5.617188-10.199219-5.449219-22.597657.441406-32.640626 4.652344-8.589843 10.332032-16.582031 16.917969-23.796874 14.515625-17.191407 29.355469-34.773438 8.40625-69.746094-2.460937-4.023438-7.707031-5.304688-11.75-2.871094-1.917969 1.136719-3.304687 3-3.839844 5.167969-.558593 2.210937-.210937 4.550781.96875 6.5 14.089844 23.5 8.492188 31.746093-6.683593 49.75-7.519532 8.292969-13.964844 17.496093-19.191407 27.394531-8.835937 14.84375-8.953125 33.304688-.304687 48.257812 8.652344 14.957032 24.710937 24.0625 41.984375 23.804688 13.234375 0 32.449219-7.808594 54.117187-21.992188 2.550782-1.671874 5.800782-1.851562 8.523438-.476562s4.503906 4.09375 4.675781 7.140625c.167969 3.042969-1.296875 5.949219-3.847656 7.621094-17.273438 11.296875-42.296875 24.773437-63.46875 24.773437zm0 0"/><path d="m145.214844 180.277344c-2.691406.003906-5.222656-1.257813-6.835938-3.414063-22.113281-29.488281-59.398437-22.421875-59.765625-22.355469-3.007812.644532-6.128906-.378906-8.171875-2.679687-2.039062-2.300781-2.6875-5.523437-1.6875-8.433594 1-2.910156 3.484375-5.058593 6.511719-5.621093 1.964844-.402344 48.273437-9.144532 76.765625 28.84375 1.9375 2.585937 2.25 6.042968.808594 8.929687-1.445313 2.890625-4.394532 4.71875-7.625 4.722656zm0 0"/><path d="m68.414062 205.878906c-3.960937.003906-7.402343-2.714844-8.3125-6.570312-.914062-3.851563.945313-7.828125 4.488282-9.597656 1.574218-.792969 38.925781-19.058594 68.28125.535156 3.917968 2.613281 4.976562 7.910156 2.363281 11.828125s-7.90625 4.980469-11.828125 2.371093c-21.242188-14.152343-50.882812.386719-51.183594.535157-1.183594.589843-2.484375.898437-3.808594.898437zm0 0"/><path d="m349.996094 180.277344c-3.230469-.003906-6.179688-1.832032-7.625-4.722656-1.441406-2.886719-1.128906-6.34375.808594-8.929688 28.484374-37.992188 74.792968-29.25 76.769531-28.84375 4.5625.976562 7.496093 5.433594 6.585937 10.011719-.910156 4.574219-5.328125 7.570312-9.914062 6.726562-1.609375-.308593-37.867188-6.894531-59.792969 22.347657-1.613281 2.152343-4.144531 3.417968-6.832031 3.410156zm0 0"/><path d="m426.796875 205.878906c-1.320313 0-2.617187-.308594-3.800781-.898437-.605469-.292969-30.199219-14.511719-51.191406-.535157-3.921876 2.609376-9.214844 1.546876-11.828126-2.371093-2.609374-3.917969-1.554687-9.214844 2.363282-11.828125 29.382812-19.578125 66.699218-1.3125 68.28125-.535156 3.542968 1.769531 5.402344 5.746093 4.492187 9.597656-.914062 3.855468-4.355469 6.574218-8.316406 6.570312zm0 0"/><path d="m307.339844 422.527344c-4.714844 0-8.535156-3.820313-8.535156-8.53125 0-7.070313-5.730469-12.800782-12.800782-12.800782-7.066406 0-12.796875 5.730469-12.796875 12.800782 0 4.710937-3.820312 8.53125-8.535156 8.53125-4.710937 0-8.53125-3.820313-8.53125-8.53125 0-16.496094 13.371094-29.867188 29.863281-29.867188 16.496094 0 29.867188 13.371094 29.867188 29.867188 0 2.261718-.898438 4.433594-2.496094 6.03125-1.601562 1.601562-3.773438 2.5-6.035156 2.5zm0 0"/><path d="m196.40625 162.261719c-14.59375 0-25.601562-16.507813-25.601562-38.398438 0-21.894531 11.007812-38.402343 25.601562-38.402343 14.589844 0 25.597656 16.507812 25.597656 38.402343 0 21.890625-11.007812 38.398438-25.597656 38.398438zm0-59.734375c-2.476562 0-8.535156 7.476562-8.535156 21.335937 0 13.855469 6.058594 21.332031 8.535156 21.332031 2.472656 0 8.53125-7.476562 8.53125-21.332031 0-13.859375-6.058594-21.335937-8.53125-21.335937zm0 0"/><path d="m298.804688 162.261719c-14.589844 0-25.597657-16.507813-25.597657-38.398438 0-21.894531 11.007813-38.402343 25.597657-38.402343 14.59375 0 25.601562 16.507812 25.601562 38.402343 0 21.890625-11.007812 38.398438-25.601562 38.398438zm0-59.734375c-2.472657 0-8.53125 7.476562-8.53125 21.335937 0 13.855469 6.058593 21.332031 8.53125 21.332031 2.476562 0 8.535156-7.476562 8.535156-21.332031 0-13.859375-6.058594-21.335937-8.535156-21.335937zm0 0"/><path d="m247.605469 216.660156c-17.140625 0-30.648438-24.585937-33.195313-29.515625-1.714844-3.335937-1.050781-7.40625 1.640625-10.019531 8.289063-8.730469 19.546875-14.03125 31.554688-14.863281 12.007812.832031 23.265625 6.132812 31.550781 14.863281 2.691406 2.613281 3.359375 6.679688 1.644531 10.019531-2.546875 4.929688-16.054687 29.515625-33.195312 29.515625zm-14.625-31.5c5.160156 7.984375 11.492187 14.433594 14.625 14.433594 3.398437 0 9.742187-6.894531 14.617187-14.433594-4.285156-3.261718-9.382812-5.28125-14.742187-5.832031-5.269531.605469-10.277344 2.621094-14.5 5.832031zm0 0"/><path d="m222.003906 247.59375c-17.636718 1.078125-32.859375-12.238281-34.132812-29.867188 0-4.710937 3.820312-8.53125 8.535156-8.53125 4.710938 0 8.53125 3.820313 8.53125 8.53125 0 6.9375 7.816406 12.800782 17.066406 12.800782 9.253906 0 17.070313-5.863282 17.070313-12.800782 0-4.710937 3.820312-8.53125 8.53125-8.53125 4.714843 0 8.535156 3.820313 8.535156 8.53125-1.273437 17.628907-16.496094 30.945313-34.136719 29.867188zm0 0"/><path d="m273.207031 247.59375c-17.640625 1.078125-32.863281-12.238281-34.132812-29.867188 0-4.710937 3.820312-8.53125 8.53125-8.53125 4.714843 0 8.535156 3.820313 8.535156 8.53125 0 6.9375 7.816406 12.800782 17.066406 12.800782s17.066407-5.863282 17.066407-12.800782c0-4.710937 3.820312-8.53125 8.53125-8.53125 4.714843 0 8.535156 3.820313 8.535156 8.53125-1.273438 17.628907-16.496094 30.945313-34.132813 29.867188zm0 0"/></g></svg>