<svg height="512pt" viewBox="-17 0 512 512.04742" width="512pt" xmlns="http://www.w3.org/2000/svg"><path d="m124.175781 480.132812c-16.554687 10.835938-39.851562 23.382813-58.796875 23.382813-20.226562.261719-39.035156-10.367187-49.242187-27.832031s-10.238281-39.070313-.082031-56.5625c5.515624-10.519532 12.339843-20.296875 20.3125-29.101563 13.738281-16.296875 17.40625-20.648437 5.886718-39.847656-3.140625-5.230469-3.253906-11.738281-.292968-17.070313 2.957031-5.332031 8.535156-8.683593 14.632812-8.789062s11.789062 3.050781 14.929688 8.277344c24.0625 40.195312 5.71875 61.953125-9.046876 79.445312-6.203124 6.75-11.558593 14.230469-15.957031 22.273438-4.554687 7.386718-4.878906 16.628906-.851562 24.320312 4.390625 6.621094 11.769531 10.644532 19.710937 10.75 13.3125 0 41.8125-17.832031 57.257813-30.035156zm0 0" fill="#a4c2f7"/><path d="m333.496094 341.808594c-1.523438-5.980469-3.519532-11.832032-5.972656-17.496094l-147.371094 3.757812c-3.925782 4.863282-7.679688 9.898438-11.265625 15.101563-29.265625 41.558594-49.320313 91.136719-49.320313 117.675781.007813 23.558594 19.105469 42.65625 42.667969 42.667969h128c9.394531-.070313 16.996094-7.671875 17.066406-17.066406.027344 9.414062 7.652344 17.039062 17.066407 17.066406 9.394531-.070313 16.996093-7.671875 17.066406-17.066406v-76.800781c.253906-22.859376-2.414063-45.65625-7.9375-67.839844zm0 0" fill="#a56a43"/><path d="m341.433594 409.648438v76.800781c-.070313 9.394531-7.671875 16.996093-17.066406 17.066406-9.414063-.027344-17.039063-7.652344-17.066407-17.066406v-72.535157c0-11.78125-9.554687-21.332031-21.335937-21.332031s-21.332032 9.550781-21.332032 21.332031v72.535157c-.070312 9.394531-7.667968 16.996093-17.066406 17.066406h-85.332031c-23.5625-.011719-42.660156-19.109375-42.667969-42.667969 0-26.539062 20.054688-76.117187 49.320313-117.675781 3.585937-5.203125 7.339843-10.238281 11.265625-15.101563l147.371094-3.757812c2.453124 5.664062 4.449218 11.515625 5.972656 17.496094 5.523437 22.183594 8.191406 44.980468 7.9375 67.839844zm0 0" fill="#e8edfc"/><path d="m307.300781 413.914062v72.535157c-.027343-9.414063-7.652343-17.039063-17.066406-17.070313h-25.601563v-55.464844c0-11.78125 9.550782-21.332031 21.332032-21.332031s21.335937 9.550781 21.335937 21.332031zm0 0" fill="#a4c2f7"/><path d="m438.96875 113.199219c19.027344-35.582031 12.886719-96.253907 12.886719-96.253907s-65.027344-27.480468-109.398438 17.234376l-5.558593 5.242187c-28.824219-9.441406-59-14.09375-89.332032-13.773437-30.332031-.320313-60.507812 4.332031-89.335937 13.773437l-5.554688-5.242187c-44.375-44.714844-109.398437-17.234376-109.398437-17.234376s-6.144532 60.671876 12.886718 96.253907c-18.949218 25.695312-29.582031 56.574219-30.464843 88.492187 0 72.445313 76.800781 131.15625 221.867187 131.15625s221.867188-58.710937 221.867188-131.15625c-.882813-31.917968-11.515625-62.796875-30.464844-88.492187zm0 0" fill="#cb8252"/><path d="m469.433594 201.691406c0 72.445313-76.800782 131.15625-221.867188 131.15625-4.097656 0-8.191406-.085937-12.203125-.171875h-1.195312c-136.363281-3.496093-208.46875-60.839843-208.46875-130.984375.882812-31.917968 11.515625-62.796875 30.464843-88.492187 15.265626-21.578125 34.890626-39.71875 57.597657-53.246094 12.988281-7.972656 26.808593-14.496094 41.21875-19.457031 25.625-8.828125 52.4375-13.75 79.53125-14.59375h.511719c4.09375-.167969 8.277343-.253906 12.542968-.253906 31.484375-.375 62.796875 4.648437 92.585938 14.847656 14.40625 4.960937 28.226562 11.484375 41.214844 19.457031 22.710937 13.527344 42.332031 31.667969 57.601562 53.246094 18.949219 25.695312 29.578125 56.574219 30.464844 88.492187zm0 0" fill="#cad9fc"/><path d="m443.832031 201.691406c0 70.144532-72.105469 127.488282-208.46875 130.984375h-1.195312c-136.363281-3.496093-208.46875-60.839843-208.46875-130.984375.882812-31.917968 11.515625-62.796875 30.464843-88.492187 15.265626-21.578125 34.890626-39.71875 57.597657-53.246094 12.988281-7.972656 26.808593-14.496094 41.21875-19.457031 25.625-8.828125 52.4375-13.75 79.53125-14.59375h.511719c27.089843.84375 53.902343 5.765625 79.527343 14.59375 14.410157 4.960937 28.230469 11.484375 41.21875 19.457031 22.710938 13.527344 42.332031 31.667969 57.597657 53.246094 18.949218 25.695312 29.582031 56.574219 30.464843 88.492187zm0 0" fill="#e8edfc"/><path d="m280.503906 198.449219s-16.46875 32-32.9375 32-32.9375-32-32.9375-32c.9375-.855469 1.789063-1.707031 2.730469-2.5625 7.667969-6.949219 17.179687-11.542969 27.390625-13.226563 1.863281-.339844 3.769531-.339844 5.632812 0 10.210938 1.683594 19.722657 6.277344 27.390626 13.226563.9375.855469 1.792968 1.707031 2.730468 2.5625zm0 0" fill="#a4c2f7"/><path d="m307.300781 486.449219c-.070312 9.394531-7.671875 16.996093-17.066406 17.066406h-42.667969c9.398438-.070313 16.996094-7.671875 17.066406-17.066406v-17.070313h25.601563c9.414063.03125 17.039063 7.65625 17.066406 17.070313zm0 0" fill="#e8edfc"/><path d="m113.761719 59.953125c-22.710938 13.527344-42.332031 31.667969-57.597657 53.246094-19.03125-35.582031-12.886718-96.253907-12.886718-96.253907s36.351562 0 68.183594 39.167969zm0 0" fill="#a4c2f7"/><path d="m170.765625 51.246094c-15.1875 5.292968-44.714844 1.109375-57.003906 8.707031l-2.300781-3.839844c-31.832032-39.167969-68.183594-39.167969-68.183594-39.167969s65.023437-27.480468 109.398437 17.234376zm0 0" fill="#e8edfc"/><path d="m438.96875 113.199219c-5.289062-7.539063-11.136719-14.667969-17.492188-21.332031-11.878906-12.390626-25.367187-23.125-40.109374-31.914063l2.304687-3.839844c11.351563-14.488281 26.171875-25.875 43.09375-33.109375 7.933594-3.511718 16.429687-5.5625 25.089844-6.058594 0 0 6.140625 60.671876-12.886719 96.253907zm0 0" fill="#7facfa"/><path d="m421.476562 91.867188c-11.878906-12.390626-25.367187-23.125-40.109374-31.914063l2.304687-3.839844c11.351563-14.488281 26.171875-25.875 43.09375-33.109375 1.535156 23.085938-.246094 46.277344-5.289063 68.863282zm0 0" fill="#a4c2f7"/><path d="m451.855469 16.945312s-36.351563 0-68.183594 39.167969l-2.304687 3.839844c-12.285157-7.597656-41.8125-3.414063-57-8.707031l18.089843-17.066406c44.371094-44.714844 109.398438-17.234376 109.398438-17.234376zm0 0" fill="#e8edfc"/><path d="m273.164062 27.191406 39.753907-16.359375c17.019531-7.003906 37.046875 3.183594 37.046875 18.84375v37.164063c0 15.664062-20.027344 25.851562-37.046875 18.84375l-39.753907-16.355469h-51.199218l-39.75 16.355469c-17.023438 7.007812-37.050782-3.179688-37.050782-18.84375v-37.164063c0-15.660156 20.027344-25.847656 37.050782-18.84375l39.75 16.359375zm0 0" fill="#cad9fc"/><path d="m230.5 16.65625h34.132812c4.710938 0 8.53125 3.820312 8.53125 8.53125v46.140625c0 4.714844-3.820312 8.535156-8.53125 8.535156h-34.132812c-4.714844 0-8.535156-3.820312-8.535156-8.535156v-46.140625c0-4.710938 3.820312-8.53125 8.535156-8.53125zm0 0" fill="#e8edfc"/><path d="m341.433594 409.648438v76.800781c-.070313 9.394531-7.671875 16.996093-17.066406 17.066406-4.921876 0-9.597657-2.152344-12.800782-5.890625 2.777344-3.054688 4.300782-7.046875 4.265625-11.175781v-76.800781c.253907-22.859376-2.410156-45.65625-7.933593-67.839844-1.453126-5.75-3.363282-11.371094-5.71875-16.8125l25.34375-.683594c2.453124 5.664062 4.449218 11.515625 5.972656 17.496094 5.523437 22.183594 8.191406 44.980468 7.9375 67.839844zm0 0" fill="#cad9fc"/><path d="m332.898438 486.449219c-.039063 7.753906-5.292969 14.511719-12.800782 16.460937.230469.0625.441406.152344.671875.203125 1.179688.261719 2.386719.394531 3.597657.402344 4.527343.023437 8.871093-1.792969 12.03125-5.035156.28125-.273438.496093-.605469.753906-.898438-2.71875-3.074219-4.234375-7.03125-4.253906-11.132812zm0 0" fill="#fff"/><path d="m42.253906 476.546875c-10.496094-17.644531-10.726562-39.566406-.597656-57.425781 5.515625-10.519532 12.339844-20.296875 20.308594-29.101563 13.738281-16.296875 17.410156-20.648437 5.890625-39.847656-3.804688-6.363281-3.050781-14.453125 1.855469-20.007813-5.8125-6.652343-15.742188-7.765624-22.882813-2.5625-7.140625 5.203126-9.125 14.996094-4.574219 22.570313 11.519532 19.199219 7.851563 23.550781-5.886718 39.847656-7.972657 8.804688-14.796876 18.582031-20.3125 29.101563-10.15625 17.492187-10.125 39.097656.082031 56.5625s29.015625 28.09375 49.242187 27.832031c4.175782-.082031 8.328125-.625 12.386719-1.621094-14.722656-3.421875-27.492187-12.535156-35.511719-25.347656zm0 0" fill="#fff"/><path d="m205.753906 328.070312.679688-.019531c-.472656-.070312-.921875-.160156-1.394532-.230469-3.5625-.550781-7.097656-1.117187-10.542968-1.753906-3.761719-.695312-7.410156-1.464844-11.027344-2.261718-3.355469-.738282-6.683594-1.480469-9.914062-2.304688-3.4375-.875-6.757813-1.824219-10.054688-2.792969-3.136719-.921875-6.265625-1.839843-9.273438-2.839843-3.113281-1.039063-6.09375-2.152344-9.070312-3.273438-2.925781-1.101562-5.851562-2.199219-8.640625-3.378906-2.792969-1.179688-5.433594-2.433594-8.085937-3.691406-2.703126-1.28125-5.417969-2.539063-7.976563-3.894532-2.480469-1.308594-4.804687-2.699218-7.152344-4.078125-2.457031-1.441406-4.9375-2.867187-7.253906-4.378906-2.183594-1.433594-4.203125-2.941406-6.257813-4.4375-2.199218-1.597656-4.4375-3.171875-6.484374-4.835937-1.910157-1.546876-3.636719-3.171876-5.417969-4.777344-1.917969-1.730469-3.882813-3.433594-5.652344-5.226563-1.652344-1.675781-3.109375-3.425781-4.628906-5.15625-1.613281-1.832031-3.296875-3.636719-4.761719-5.527343-1.414062-1.820313-2.609375-3.714844-3.882812-5.585938-1.296876-1.898438-2.675782-3.769531-3.828126-5.71875-1.179687-1.996094-2.125-4.066406-3.15625-6.113281-.964843-1.914063-2.03125-3.789063-2.863281-5.746094-.957031-2.246094-1.65625-4.566406-2.4375-6.867187-.621093-1.832032-1.371093-3.628907-1.882812-5.492188-.738281-2.679688-1.183594-5.429688-1.683594-8.167969-.285156-1.550781-.71875-3.070312-.925781-4.636719-.585938-4.375-.882813-8.78125-.882813-13.191406.421875-23.121094 6.238281-45.820312 16.992188-66.289062 3.9375-7.722656 8.441406-15.144532 13.46875-22.203125-19.027344-35.582031-12.882813-96.253907-12.882813-96.253907 10.207032-3.886718 20.871094-6.433593 31.734375-7.578124-19.441406-1.921876-39.0625.671874-57.335937 7.578124 0 0-6.144532 60.671876 12.886718 96.253907-5.03125 7.058593-9.535156 14.480469-13.472656 22.203125-10.75 20.46875-16.570312 43.167968-16.992187 66.289062 0 4.410156.296875 8.816406.882812 13.191406.210938 1.570313.640625 3.085938.925781 4.636719.503907 2.738281.949219 5.488281 1.683594 8.167969.511719 1.863281 1.261719 3.660156 1.882813 5.492188.785156 2.300781 1.480469 4.621093 2.4375 6.871093.832031 1.953125 1.902343 3.832031 2.863281 5.746094 1.03125 2.046875 1.976562 4.113281 3.160156 6.113281 1.148438 1.945313 2.53125 3.816406 3.824219 5.714844 1.273437 1.871094 2.472656 3.765625 3.882813 5.585938 1.46875 1.890624 3.148437 3.695312 4.761718 5.527343 1.523438 1.730469 2.976563 3.480469 4.628906 5.160157 1.769532 1.789062 3.738282 3.496093 5.65625 5.222656 1.777344 1.605468 3.503907 3.234375 5.414063 4.78125 2.046875 1.664062 4.285156 3.242187 6.484375 4.832031 2.058594 1.496094 4.074219 3.003906 6.261719 4.4375 2.3125 1.515625 4.792969 2.941406 7.25 4.378906 2.351562 1.382813 4.671875 2.769531 7.152343 4.078125 2.5625 1.355469 5.277344 2.617188 7.976563 3.894532 2.652344 1.257812 5.296875 2.515624 8.085937 3.695312 2.789063 1.175781 5.71875 2.273438 8.640626 3.375 2.976562 1.121094 5.960937 2.234375 9.074218 3.273438 3.007813 1 6.132813 1.921874 9.269532 2.839843 3.300781.96875 6.617187 1.917969 10.058593 2.796875 3.226563.820313 6.558594 1.566406 9.910157 2.300782 3.617187.796874 7.269531 1.566406 11.03125 2.261718 3.445312.636719 6.976562 1.203125 10.542968 1.753906.46875.074219.921875.160157 1.394532.230469l-.683594.019531c-3.925782 4.863282 21.675781 4.863282 25.601562 0zm0 0" fill="#fff"/><path d="m34.234375 201.691406c.019531 17.011719 4.878906 33.667969 14.003906 48.027344 9.410157 14.566406 21.898438 26.890625 36.589844 36.105469 23.851563 14.808593 50.246094 25.066406 77.839844 30.253906 27.953125 5.558594 56.394531 8.316406 84.898437 8.234375v17.066406c-29.6875.082032-59.304687-2.800781-88.417968-8.601562-29.691407-5.617188-58.078126-16.707032-83.710938-32.703125-16.738281-10.558594-30.960938-24.65625-41.664062-41.300781-10.820313-17.074219-16.578126-36.867188-16.609376-57.082032zm0 0" fill="#fff"/><g fill="#428dff"><path d="m34.929688 242.996094c2-.925782 3.566406-2.582032 4.378906-4.628906.964844-1.917969 1.132812-4.140626.46875-6.183594-3.550782-9.78125-5.425782-20.089844-5.542969-30.492188h-17.070313c.125 12.386719 2.347657 24.667969 6.574219 36.3125.753907 2.257813 2.382813 4.121094 4.519531 5.167969 2.15625.859375 4.566407.796875 6.671876-.175781zm0 0"/><path d="m247.566406 341.378906v-17.066406c-28.503906.082031-56.945312-2.675781-84.898437-8.234375-27.59375-5.1875-53.988281-15.445313-77.839844-30.253906l-6.582031-4.667969c-3.785156-2.511719-8.84375-1.808594-11.804688 1.632812-1.507812 1.773438-2.1875 4.105469-1.871094 6.410157.3125 2.308593 1.597657 4.371093 3.523438 5.675781l7.34375 5.195312c25.636719 15.996094 54.019531 27.085938 83.710938 32.707032 29.113281 5.800781 58.730468 8.683594 88.417968 8.601562zm0 0"/><path d="m55.035156 259.363281c-1.304687-1.648437-3.175781-2.757812-5.25-3.109375l-1.601562-.058594c-.570313.019532-1.136719.109376-1.683594.269532-.539062.078125-1.058594.234375-1.550781.460937-.519531.242188-1.023438.515625-1.503907.824219-1.875 1.300781-3.140624 3.304688-3.515624 5.558594-.132813 1.175781-.042969 2.371094.265624 3.515625.960938 3.542969 4.042969 6.105469 7.703126 6.410156 1.132812.0625 2.265624-.109375 3.332031-.5 1.054687-.359375 2.027343-.929687 2.851562-1.679687 1.613281-1.558594 2.632813-3.632813 2.875-5.863282.15625-2.121094-.535156-4.214844-1.921875-5.828125zm0 0"/><path d="m25.699219 210.222656c-4.710938 0-8.535157-3.820312-8.535157-8.53125 0-79.136718 64.703126-141.234375 124.816407-165.445312 2.828125-1.136719 6.046875-.679688 8.449219 1.199218 2.398437 1.878907 3.613281 4.898438 3.1875 7.917969-.429688 3.019531-2.4375 5.578125-5.265626 6.71875-78.40625 31.574219-114.117187 99.683594-114.117187 149.609375 0 4.710938-3.820313 8.53125-8.535156 8.53125zm0 0"/><path d="m247.566406 341.378906c-4.714844 0-8.535156-3.820312-8.535156-8.53125 0-4.714844 3.820312-8.535156 8.535156-8.535156 129.59375 0 213.332032-48.132812 213.332032-122.621094 0-49.925781-35.710938-118.035156-114.121094-149.609375-4.371094-1.761719-6.488282-6.730469-4.726563-11.105469 1.757813-4.371093 6.730469-6.488281 11.101563-4.726562 60.113281 24.207031 124.8125 86.304688 124.8125 165.441406 0 84.855469-90.4375 139.6875-230.398438 139.6875zm0 0"/><path d="m56.171875 121.734375c-3.152344 0-6.050781-1.730469-7.535156-4.511719-20.023438-37.425781-14.109375-98.558594-13.851563-101.140625.445313-4.359375 4.113282-7.671875 8.492188-7.671875 1.648437 0 40.804687.484375 74.804687 42.375 1.984375 2.359375 2.542969 5.609375 1.457031 8.496094-1.085937 2.886719-3.644531 4.960938-6.695312 5.429688-3.046875.46875-6.109375-.746094-8.011719-3.175782-13.269531-17.550781-32.234375-29.933594-53.640625-35.019531-.824218 17.523437-.972656 57.492187 12.496094 82.65625 1.414062 2.644531 1.339844 5.835937-.203125 8.410156-1.539063 2.574219-4.316406 4.148438-7.3125 4.152344zm0 0"/><path d="m145.164062 35.972656c-1.929687 0-3.804687-.652344-5.3125-1.859375-39.457031-31.484375-92.722656-9.523437-93.257812-9.308593-2.828125 1.316406-6.152344.980468-8.664062-.871094-2.507813-1.855469-3.808594-4.929688-3.386719-8.023438.425781-3.09375 2.503906-5.707031 5.417969-6.816406 2.554687-1.085938 63.234374-26.035156 110.527343 11.671875 2.832031 2.261719 3.929688 6.070313 2.734375 9.492187-1.199218 3.421876-4.429687 5.714844-8.058594 5.714844zm0 0"/><path d="m438.960938 121.734375c-2.996094-.003906-5.773438-1.578125-7.3125-4.152344-1.539063-2.574219-1.617188-5.765625-.203126-8.40625 13.5-25.226562 13.335938-65.183593 12.5-82.683593-21.421874 5.066406-40.398437 17.460937-53.644531 35.039062-1.902343 2.429688-4.964843 3.644531-8.015625 3.175781-3.046875-.46875-5.605468-2.542969-6.691406-5.429687-1.085938-2.886719-.53125-6.136719 1.457031-8.496094 34-41.890625 73.152344-42.371094 74.804688-42.371094 4.378906 0 8.050781 3.316406 8.492187 7.675782.253906 2.582031 6.171875 63.714843-13.851562 101.140624-1.488282 2.777344-4.382813 4.511719-7.535156 4.507813zm0 0"/><path d="m349.96875 35.972656c-3.628906.003906-6.863281-2.289062-8.0625-5.714844-1.199219-3.425781-.101562-7.234374 2.738281-9.492187 47.296875-37.699219 107.972657-12.761719 110.527344-11.671875 4.21875 1.902344 6.15625 6.824219 4.359375 11.089844-1.796875 4.269531-6.671875 6.324218-10.980469 4.632812-.539062-.230468-54-22.015625-93.265625 9.300782-1.507812 1.203124-3.382812 1.859374-5.316406 1.855468zm0 0"/><path d="m341.433594 418.179688c-4.714844 0-8.535156-3.820313-8.535156-8.53125.832031-26.117188-3.660157-52.132813-13.195313-76.460938-1.21875-2.792969-.859375-6.027344.953125-8.480469 1.808594-2.453125 4.789062-3.753906 7.820312-3.414062 3.03125.339843 5.648438 2.269531 6.867188 5.0625 10.488281 26.480469 15.460938 54.824219 14.621094 83.292969 0 4.710937-3.820313 8.53125-8.53125 8.53125zm0 0"/><path d="m119.566406 469.378906c-4.714844 0-8.535156-3.820312-8.535156-8.53125 0-33.773437 27.4375-94.441406 62.464844-138.117187 1.910156-2.378907 4.941406-3.554688 7.953125-3.09375 3.015625.464843 5.550781 2.5 6.65625 5.34375 1.105469 2.839843.613281 6.054687-1.296875 8.433593-35.117188 43.785157-58.710938 101.242188-58.710938 127.433594 0 4.710938-3.820312 8.53125-8.53125 8.53125zm0 0"/><path d="m162.234375 512.046875c-28.265625-.03125-51.171875-22.933594-51.203125-51.199219 0-4.714844 3.820312-8.535156 8.535156-8.535156 4.710938 0 8.53125 3.820312 8.53125 8.535156.019532 18.84375 15.292969 34.113282 34.136719 34.132813 4.710937 0 8.53125 3.820312 8.53125 8.535156 0 4.710937-3.820313 8.53125-8.53125 8.53125zm0 0"/><path d="m230.5 461.101562c-4.714844 0-8.535156-3.820312-8.535156-8.53125 0-18.101562-14.238282-34.757812-37.164063-43.484374-2.886719-1.058594-4.980469-3.585938-5.480469-6.617188-.503906-3.03125.664063-6.097656 3.054688-8.03125 2.386719-1.929688 5.632812-2.429688 8.492188-1.300781 29.710937 11.304687 48.164062 34.078125 48.164062 59.433593 0 4.710938-3.820312 8.53125-8.53125 8.53125zm0 0"/><path d="m290.234375 512.046875h-128c-4.714844 0-8.535156-3.820313-8.535156-8.53125 0-4.714844 3.820312-8.535156 8.535156-8.535156h128c2.222656.019531 4.359375-.863281 5.917969-2.449219 1.671875-1.582031 2.617187-3.78125 2.613281-6.082031-.003906-4.710938-3.820313-8.53125-8.53125-8.535157h-25.601563c-4.714843 0-8.535156-3.820312-8.535156-8.535156 0-4.710937 3.820313-8.53125 8.535156-8.53125h25.601563c14.128906.015625 25.582031 11.46875 25.597656 25.601563-.066406 14.109375-11.488281 25.53125-25.597656 25.597656zm0 0"/><path d="m230.5 477.914062h-59.734375c-4.710937 0-8.53125-3.820312-8.53125-8.535156 0-4.710937 3.820313-8.53125 8.53125-8.53125h59.734375c4.710938 0 8.53125 3.820313 8.53125 8.53125 0 4.714844-3.820312 8.535156-8.53125 8.535156zm0 0"/><path d="m324.367188 512.046875c-14.132813-.015625-25.585938-11.46875-25.601563-25.597656v-72.535157c0-4.710937 3.820313-8.535156 8.535156-8.535156 4.710938 0 8.53125 3.824219 8.53125 8.535156v72.535157c.003907 4.710937 3.824219 8.527343 8.535157 8.53125 2.222656.019531 4.359374-.863281 5.917968-2.449219 1.671875-1.582031 2.617188-3.78125 2.613282-6.082031v-76.800781c0-4.714844 3.820312-8.535157 8.535156-8.535157 4.710937 0 8.53125 3.820313 8.53125 8.535157v76.800781c-.066406 14.109375-11.488282 25.53125-25.597656 25.597656zm0 0"/><path d="m247.566406 512.046875c-14.132812-.015625-25.585937-11.46875-25.601562-25.597656v-76.800781c0-4.714844 3.820312-8.535157 8.535156-8.535157 4.710938 0 8.53125 3.820313 8.53125 8.535157v76.800781c.003906 4.710937 3.824219 8.527343 8.535156 8.53125 2.222656.019531 4.359375-.863281 5.921875-2.449219 1.671875-1.582031 2.617188-3.78125 2.609375-6.082031v-72.535157c0-4.710937 3.820313-8.535156 8.535156-8.535156 4.710938 0 8.53125 3.824219 8.53125 8.535156v72.535157c-.0625 14.109375-11.488281 25.53125-25.597656 25.597656zm0 0"/><path d="m65.378906 512.046875c-22.761718-.003906-43.917968-11.726563-55.992187-31.023437-12.132813-20.140626-12.5-45.25-.953125-65.734376 5.808594-11.125 13.007812-21.46875 21.425781-30.785156 13.460937-15.972656 13.460937-15.972656 5.078125-29.941406-7.28125-12.121094-3.355469-27.851562 8.769531-35.132812 12.121094-7.28125 27.851563-3.359376 35.132813 8.765624 27.210937 45.449219 4.914062 71.867188-9.839844 89.34375-5.75 6.246094-10.734375 13.15625-14.847656 20.585938-3.042969 4.824219-3.492188 10.84375-1.199219 16.066406 2.84375 4.070313 7.460937 6.542969 12.425781 6.65625 9.585938 0 35.082032-14.859375 51.96875-28.199218 3.699219-2.921876 9.066406-2.289063 11.984375 1.410156 2.921875 3.699218 2.289063 9.066406-1.410156 11.984375-11.21875 8.863281-44.335937 31.871093-62.542969 31.871093-10.886718-.078124-21.011718-5.617187-26.941406-14.75-5.617188-10.199218-5.449219-22.597656.4375-32.640624 4.628906-8.554688 10.28125-16.515626 16.835938-23.703126 14.59375-17.289062 29.433593-34.863281 8.492187-69.847656-1.171875-1.945312-3.074219-3.339844-5.28125-3.875-2.203125-.539062-4.535156-.175781-6.472656 1.007813-1.917969 1.140625-3.300781 3-3.839844 5.167969-.5625 2.210937-.214844 4.554687.964844 6.507812 14.09375 23.492188 8.5 31.734375-6.671875 49.734375-7.535156 8.285156-13.984375 17.488281-19.199219 27.398437-8.84375 14.84375-8.964844 33.308594-.316406 48.265626 8.652343 14.957031 24.71875 24.0625 41.992187 23.800781 13.25 0 32.472656-7.808594 54.121094-21.992188 2.550781-1.667969 5.800781-1.851562 8.523438-.476562 2.722656 1.375 4.503906 4.097656 4.675781 7.140625.167969 3.046875-1.296875 5.949218-3.847657 7.621094-17.261718 11.300781-42.285156 24.773437-63.472656 24.773437zm0 0"/><path d="m145.175781 221.914062c-2.691406.007813-5.226562-1.257812-6.835937-3.414062-22.125-29.492188-59.402344-22.433594-59.765625-22.347656-4.597657.875-9.046875-2.117188-9.964844-6.707032-.917969-4.59375 2.03125-9.066406 6.613281-10.027343 1.964844-.382813 48.277344-9.160157 76.769532 28.851562 1.933593 2.582031 2.242187 6.035157.800781 8.925781-1.441407 2.886719-4.390625 4.714844-7.617188 4.71875zm0 0"/><path d="m68.375 247.515625c-3.960938.003906-7.402344-2.714844-8.316406-6.570313-.910156-3.851562.949218-7.828124 4.492187-9.597656 1.578125-.785156 38.902344-19.050781 68.28125.535156 2.566407 1.675782 4.039063 4.601563 3.847657 7.664063-.1875 3.0625-2.003907 5.789063-4.757813 7.136719-2.753906 1.351562-6.019531 1.121094-8.554687-.601563-21.234376-14.144531-50.878907.382813-51.183594.53125-1.183594.589844-2.488282.898438-3.808594.902344zm0 0"/><path d="m349.957031 221.914062c-3.230469-.003906-6.183593-1.832031-7.625-4.722656-1.445312-2.886718-1.132812-6.347656.808594-8.929687 28.5-38.007813 74.8125-29.242188 76.765625-28.851563 4.621094.917969 7.625 5.410156 6.707031 10.035156-.917969 4.621094-5.414062 7.625-10.035156 6.707032-1.589844-.304688-37.855469-6.878906-59.785156 22.347656-1.609375 2.15625-4.144531 3.421875-6.835938 3.414062zm0 0"/><path d="m426.757812 247.515625c-1.316406 0-2.617187-.304687-3.796874-.894531-.613282-.316406-30.21875-14.515625-51.199219-.539063-3.917969 2.558594-9.171875 1.484375-11.769531-2.410156-2.597657-3.898437-1.570313-9.15625 2.300781-11.789063 29.390625-19.585937 66.714843-1.320312 68.285156-.535156 3.542969 1.769532 5.402344 5.742188 4.488281 9.597656-.910156 3.851563-4.351562 6.570313-8.308594 6.570313zm0 0"/><path d="m307.300781 422.449219c-4.714843 0-8.535156-3.824219-8.535156-8.535157 0-7.070312-5.730469-12.800781-12.800781-12.800781-7.066406 0-12.800782 5.730469-12.800782 12.800781 0 4.710938-3.820312 8.535157-8.53125 8.535157-4.714843 0-8.535156-3.824219-8.535156-8.535157 0-16.496093 13.375-29.867187 29.867188-29.867187 16.496094 0 29.867187 13.371094 29.867187 29.867187 0 2.261719-.898437 4.433594-2.5 6.035157-1.597656 1.597656-3.769531 2.5-6.03125 2.5zm0 0"/><path d="m247.566406 233.648438c-17.136718 0-30.65625-24.59375-33.1875-29.527344-1.714844-3.335938-1.050781-7.402344 1.640625-10.015625 8.285157-8.726563 19.542969-14.027344 31.546875-14.859375 12.003906.832031 23.261719 6.132812 31.546875 14.859375 2.691407 2.613281 3.355469 6.679687 1.640625 10.015625-2.535156 4.933594-16.050781 29.527344-33.1875 29.527344zm-14.625-31.5c5.15625 7.980468 11.492188 14.433593 14.625 14.433593 3.402344 0 9.746094-6.902343 14.621094-14.433593-4.285156-3.261719-9.386719-5.28125-14.742188-5.835938-5.269531.609375-10.28125 2.625-14.503906 5.835938zm0 0"/><path d="m221.964844 264.582031c-17.636719 1.074219-32.855469-12.242187-34.132813-29.867187 0-4.714844 3.820313-8.535156 8.535157-8.535156 4.710937 0 8.53125 3.820312 8.53125 8.535156 0 6.941406 7.816406 12.800781 17.066406 12.800781s17.066406-5.859375 17.066406-12.800781c0-4.714844 3.820312-8.535156 8.535156-8.535156 4.710938 0 8.53125 3.820312 8.53125 8.535156-1.273437 17.625-16.492187 30.941406-34.132812 29.867187zm0 0"/><path d="m273.164062 264.582031c-17.636718 1.074219-32.855468-12.242187-34.132812-29.867187 0-4.714844 3.820312-8.535156 8.535156-8.535156 4.710938 0 8.53125 3.820312 8.53125 8.535156 0 6.941406 7.816406 12.800781 17.066406 12.800781 9.253907 0 17.070313-5.859375 17.070313-12.800781 0-4.714844 3.820313-8.535156 8.53125-8.535156 4.714844 0 8.535156 3.820312 8.535156 8.535156-1.277343 17.625-16.496093 30.941406-34.136719 29.867187zm0 0"/><path d="m264.632812 88.398438h-34.132812c-9.421875-.011719-17.054688-7.648438-17.066406-17.066407v-46.144531c.011718-9.417969 7.644531-17.054688 17.066406-17.066406h34.132812c9.421876.011718 17.054688 7.648437 17.066407 17.066406v46.144531c-.011719 9.417969-7.644531 17.054688-17.066407 17.066407zm-34.132812-63.210938v46.144531h34.140625l-.007813-46.144531zm0 0"/><path d="m170.738281 96.472656c-7.441406.035156-14.722656-2.128906-20.929687-6.226562-8.074219-5.070313-13.03125-13.878906-13.175782-23.40625v-37.160156c.144532-9.527344 5.105469-18.332032 13.175782-23.398438 10.609375-6.917969 23.945312-8.167969 35.652344-3.34375l39.746093 16.359375c4.359375 1.792969 6.441407 6.78125 4.648438 11.140625s-6.78125 6.441406-11.140625 4.648438l-39.75-16.359376c-6.445313-2.65625-13.78125-2.011718-19.660156 1.734376-3.285157 1.949218-5.382813 5.40625-5.605469 9.21875v37.160156c.21875 3.816406 2.320312 7.273437 5.609375 9.222656 5.878906 3.742188 13.214844 4.390625 19.660156 1.734375l39.753906-16.359375c4.359375-1.792969 9.347656.289062 11.140625 4.648438 1.792969 4.359374-.289062 9.347656-4.648437 11.140624l-39.75 16.355469c-4.675782 1.914063-9.675782 2.894531-14.726563 2.890625zm0 0"/><path d="m324.394531 96.472656c-5.050781.003906-10.050781-.976562-14.726562-2.890625l-39.746094-16.359375c-4.359375-1.792968-6.4375-6.78125-4.644531-11.140625 1.792968-4.359375 6.777344-6.4375 11.136718-4.648437l39.75 16.359375c6.449219 2.644531 13.777344 1.996093 19.664063-1.730469 3.285156-1.953125 5.382813-5.410156 5.605469-9.222656v-37.160156c-.222656-3.8125-2.324219-7.273438-5.609375-9.222657-5.886719-3.730469-13.214844-4.378906-19.664063-1.734375l-39.75 16.359375c-2.820312 1.160157-6.046875.726563-8.460937-1.136719-2.414063-1.863281-3.652344-4.871093-3.246094-7.894531.40625-3.019531 2.394531-5.597656 5.214844-6.757812l39.75-16.355469c11.714843-4.808594 25.042969-3.5625 35.65625 3.34375 8.070312 5.066406 13.03125 13.871094 13.175781 23.398438v37.160156c-.144531 9.527344-5.105469 18.332031-13.175781 23.398437-6.207031 4.101563-13.488281 6.269531-20.929688 6.234375zm0 0"/><path d="m196.367188 170.714844c-4.714844 0-8.535157-3.820313-8.535157-8.535156 0-9.425782-7.640625-17.066407-17.066406-17.066407s-17.066406 7.640625-17.066406 17.066407c0 4.714843-3.820313 8.535156-8.535157 8.535156-4.710937 0-8.53125-3.820313-8.53125-8.535156 0-18.851563 15.28125-34.132813 34.132813-34.132813s34.132813 15.28125 34.132813 34.132813c0 4.714843-3.820313 8.535156-8.53125 8.535156zm0 0"/><path d="m349.964844 170.714844c-4.710938 0-8.53125-3.820313-8.53125-8.535156 0-9.425782-7.640625-17.066407-17.066406-17.066407-9.425782 0-17.066407 7.640625-17.066407 17.066407 0 4.714843-3.820312 8.535156-8.535156 8.535156-4.710937 0-8.53125-3.820313-8.53125-8.535156 0-18.851563 15.28125-34.132813 34.132813-34.132813 18.851562 0 34.132812 15.28125 34.132812 34.132813 0 4.714843-3.820312 8.535156-8.535156 8.535156zm0 0"/></g></svg>