<svg height="512pt" viewBox="0 0 512 512.05511" width="512pt" xmlns="http://www.w3.org/2000/svg"><path d="m389.660156 363.0625-.171875.171875c22.359375 23.039063 64.425781 74.496094 71.339844 140.289063h-409.601563c6.914063-65.792969 48.980469-117.25 71.339844-140.289063l-.171875-.171875c-74.921875-27.5625-113.832031-79.617188-113.832031-139.261719.636719-33.109375 9.492188-65.542969 25.769531-94.378906v-.085937c-14.902343-32.398438-19.488281-68.589844-13.140625-103.679688 13.09375-6.757812 27.386719-10.875 42.066406-12.117188 6.527344-.582031 13.085938-.722656 19.628907-.429687h.683593c16.734376 1.035156 33.148438 5.050781 48.46875 11.863281 3.753907 1.535156 7.59375 3.414063 11.519532 5.460938 1.535156-.683594 2.984375-1.28125 4.523437-1.792969.085938.085937.167969 0 .339844-.167969 29.523437-11.847656 60.882813-18.460937 92.671875-19.542968.683594 0 1.367188-.085938 2.132812-.085938 4.183594-.171875 8.449219-.253906 12.800782-.253906 5.035156 0 10.070312.167968 14.933594.339844 28.480468.996093 56.636718 6.40625 83.457031 16.042968 3.15625 1.109375 6.226562 2.21875 9.214843 3.5.171876.167969.257813.253906.339844.167969 1.539063.511719 2.988282 1.109375 4.523438 1.792969 16.957031-9.21875 35.582031-14.964844 54.785156-16.894532 1.792969-.171874 3.5-.34375 5.203125-.429687h1.28125c21.121094-1.316406 42.207031 3.011719 61.097656 12.546875 6.347657 35.089844 1.761719 71.28125-13.140625 103.679688v.085937c16.277344 28.835937 25.132813 61.269531 25.773438 94.378906 0 59.644531-38.914063 111.699219-113.835938 139.261719zm0 0" fill="#cad9fc"/><path d="m364.058594 363.0625-.167969.171875c22.355469 23.039063 64.425781 74.496094 71.335937 140.289063h-384c6.914063-65.792969 48.980469-117.25 71.339844-140.289063l-.171875-.171875c-74.921875-27.5625-113.832031-79.617188-113.832031-139.261719.636719-33.109375 9.492188-65.542969 25.769531-94.378906v-.085937c-14.902343-32.398438-19.488281-68.589844-13.140625-103.679688 13.09375-6.757812 27.386719-10.875 42.066406-12.117188 19.167969 1.972657 37.757813 7.714844 54.699219 16.894532 1.539063-.683594 2.988281-1.28125 4.523438-1.792969.085937.085937.171875 0 .339843-.167969 2.988282-1.28125 6.0625-2.390625 9.21875-3.5 26.820313-9.636718 54.972657-15.046875 83.457032-16.042968 4.863281-.171876 9.898437-.339844 14.929687-.339844 4.355469 0 8.621094.082031 12.800781.253906.769532 0 1.453126.085938 2.132813.085938 31.792969 1.082031 63.152344 7.695312 92.671875 19.542968.171875.167969.257812.253906.34375.167969 1.535156.511719 2.984375 1.109375 4.523438 1.792969 3.921874-2.046875 7.765624-3.925782 11.519531-5.460938 3.15625 1.109375 6.226562 2.21875 9.214843 3.5.171876.167969.257813.253906.339844.167969 1.539063.511719 2.988282 1.109375 4.523438 1.792969 16.957031-9.21875 35.582031-14.964844 54.785156-16.894532 14.652344 1.25 28.917969 5.367188 41.984375 12.117188 6.347656 35.089844 1.757813 71.28125-13.140625 103.679688v.085937c16.273438 28.835937 25.128906 61.269531 25.769531 94.378906 0 59.644531-38.914062 111.699219-113.835937 139.261719zm0 0" fill="#e8edfc"/><path d="m290.074219 254.859375c-.9375 29.183594-15.785157 52.394531-34.046875 52.394531-18.261719 0-33.109375-23.210937-34.046875-52.394531l34.046875-7.023437zm0 0" fill="#a4c2f7"/><path d="m58.308594 76.855469c-3.167969-11.535157-3.722656-23.636719-1.621094-35.414063 13.261719-2.996094 27.148438.667969 37.207031 9.8125zm0 0" fill="#a4c2f7"/><path d="m447.34375 76.855469c7.871094-10.363281 9.320312-24.246094 3.753906-36.011719-11.988281-1.679688-24.09375 2.144531-32.9375 10.410156zm0 0" fill="#a4c2f7"/><path d="m288.964844 198.457031s-16.46875 32-32.9375 32-32.9375-32-32.9375-32c.9375-.855469 1.792968-1.707031 2.730468-2.5625 7.667969-6.949219 17.179688-11.542969 27.390626-13.226562 1.863281-.339844 3.769531-.339844 5.632812 0 10.210938 1.683593 19.722656 6.277343 27.390625 13.226562.941406.855469 1.792969 1.707031 2.730469 2.5625zm0 0" fill="#e8edfc"/><path d="m147.996094 363.0625c-74.921875-27.5625-113.835938-79.617188-113.835938-139.261719.640625-33.109375 9.496094-65.542969 25.769532-94.378906v-.085937c-14.898438-32.398438-19.484376-68.589844-13.140626-103.679688 12.960938-6.679688 27.097657-10.773438 41.621094-12.058594-1.605468-.148437-3.277344-.394531-4.839844-.488281h-.683593c-6.542969-.292969-13.101563-.152344-19.628907.429687-14.679687 1.242188-28.972656 5.359376-42.066406 12.117188-6.347656 35.089844-1.761718 71.28125 13.140625 103.679688v.085937c-16.277343 28.835937-25.132812 61.269531-25.769531 94.378906 0 59.644531 38.910156 111.699219 113.832031 139.261719l.171875.171875c-22.359375 23.039063-64.425781 74.496094-71.339844 140.289063h25.601563c6.910156-65.792969 48.980469-117.25 71.339844-140.289063zm0 0" fill="#fff"/><path d="m243.226562 8.84375c-4.179687-.171875-8.445312-.253906-12.800781-.253906-5.03125 0-10.066406.167968-14.929687.339844-23.566406.929687-46.921875 4.8125-69.519532 11.550781 3.835938 1.3125 7.710938 2.757812 11.660157 4.492187 26.820312-9.636718 54.976562-15.046875 83.457031-16.042968 4.863281-.171876 9.898438-.339844 14.933594-.339844-4.351563 0-8.617188.082031-12.800782.253906zm0 0" fill="#fff"/><path d="m122.378906 371.554688c-1.007812 0-2.003906-.175782-2.945312-.523438-75.886719-27.902344-119.4062502-81.558594-119.4062502-147.230469 1.1601562-45.597656 16.6875002-89.664062 44.3632812-125.921875 2.820313-3.773437 8.167969-4.550781 11.945313-1.726562 3.777343 2.820312 4.550781 8.167968 1.730468 11.945312-25.496094 33.292969-39.835937 73.78125-40.972656 115.703125 0 58.097657 39.445312 105.933594 108.230469 131.214844 3.878906 1.429687 6.179687 5.433594 5.453125 9.503906-.722656 4.074219-4.265625 7.039063-8.398438 7.039063zm0 0" fill="#428dff"/><path d="m119.117188 51.253906c-3.863282.003906-7.242188-2.585937-8.246094-6.3125-1.003906-3.730468.621094-7.667968 3.960937-9.601562 43.097657-24.089844 91.832031-36.265625 141.195313-35.2851565 4.714844 0 8.535156 3.8203125 8.535156 8.5351565 0 4.710937-3.820312 8.53125-8.535156 8.53125-46.359375-.964844-92.140625 10.417968-132.644532 32.984375-1.296874.753906-2.769531 1.152343-4.265624 1.148437zm0 0" fill="#428dff"/><path d="m34.332031 137.914062c-3.757812.011719-7.078125-2.441406-8.171875-6.035156-15.289062-33.683594-19.957031-71.222656-13.386718-107.625.414062-2.5 1.921874-4.683594 4.109374-5.964844 2.371094-1.390624 58.792969-33.441406 130.664063 4.597657 4.113281 2.234375 5.664063 7.359375 3.472656 11.492187-2.1875 4.136719-7.296875 5.738282-11.453125 3.59375-33.8125-19.371094-74.726562-21.839844-110.621094-6.675781-5.027343 32.246094-.394531 65.261719 13.3125 94.882813.402344 1 .609376 2.074218.605469 3.15625.007813 4.722656-3.808593 8.558593-8.53125 8.578124zm0 0" fill="#428dff"/><path d="m389.632812 371.570312c-4.136718 0-7.675781-2.96875-8.398437-7.039062s1.574219-8.074219 5.457031-9.5c68.808594-25.285156 108.269532-73.109375 108.269532-131.230469-1.136719-41.917969-15.476563-82.410156-40.972657-115.703125-2.820312-3.773437-2.046875-9.125 1.730469-11.945312 3.777344-2.820313 9.125-2.046875 11.945312 1.730468 27.675782 36.253907 43.203126 80.320313 44.363282 125.917969 0 65.691407-43.539063 119.355469-119.453125 147.25-.941407.347657-1.9375.523438-2.941407.519531zm0 0" fill="#428dff"/><path d="m392.941406 51.253906c-1.5.003906-2.972656-.394531-4.269531-1.148437-40.503906-22.566407-86.285156-33.949219-132.644531-32.984375-4.710938 0-8.53125-3.820313-8.53125-8.53125 0-4.714844 3.820312-8.5351565 8.53125-8.5351565 49.363281-.9804685 98.097656 11.1953125 141.195312 35.2851565 3.339844 1.933594 4.964844 5.871094 3.960938 9.601562-1.003906 3.726563-4.382813 6.316406-8.242188 6.3125zm0 0" fill="#428dff"/><path d="m42.742188 502.632812c4.875-38.28125 19.167968-74.75 41.601562-106.144531 9.640625-13.949219 20.40625-27.085937 32.183594-39.28125l12.25 11.882813c-11.117188 11.515625-21.277344 23.914062-30.378906 37.082031-20.8125 29.046875-34.101563 62.800781-38.683594 98.242187zm0 0" fill="#fff"/><g fill="#428dff"><path d="m60.511719 461.964844c-2.191407-.726563-4.582031-.523438-6.617188.5625-2.035156 1.082031-3.542969 2.953125-4.164062 5.175781-3.300781 11.425781-5.636719 23.109375-6.988281 34.925781l16.972656 1.78125c1.246094-10.800781 3.386718-21.480468 6.398437-31.925781 1.210938-4.4375-1.246093-9.046875-5.601562-10.519531zm0 0"/><path d="m128.777344 369.089844-12.25-11.882813c-11.777344 12.195313-22.542969 25.332031-32.183594 39.28125l-4.890625 7.304688c-1.667969 2.5625-1.839844 5.824219-.449219 8.546875 1.394532 2.722656 4.136719 4.492187 7.191406 4.636718 3.054688.148438 5.953126-1.351562 7.601563-3.929687l4.605469-6.875c9.101562-13.167969 19.257812-25.566406 30.375-37.082031zm0 0"/><path d="m62.339844 434.601562c-.941406 2.117188-1.054688 4.511719-.328125 6.714844l.742187 1.464844c.296875.492188.664063.9375 1.085938 1.328125.34375.417969.746094.777344 1.203125 1.070313.476562.3125.976562.585937 1.496093.828124 2.09375.847657 4.429688.914063 6.570313.183594 4.246094-1.660156 6.453125-6.347656 5.03125-10.679687-.386719-1.042969-.964844-2.003907-1.703125-2.835938-1.84375-2.234375-4.714844-3.351562-7.582031-2.960937-2.867188.390625-5.332031 2.242187-6.507813 4.886718zm0 0"/><path d="m460.828125 512.054688h-409.601563c-4.710937 0-8.53125-3.820313-8.53125-8.53125 0-4.714844 3.820313-8.535157 8.53125-8.535157h399.867188c-9.292969-58.074219-46.007812-103.425781-67.816406-125.898437-3.28125-3.382813-3.199219-8.785156.183594-12.066406 3.382812-3.285157 8.785156-3.203126 12.066406.179687 24.507812 25.261719 66.683594 77.734375 73.789062 145.425781.25 2.40625-.527344 4.804688-2.148437 6.601563-1.617188 1.796875-3.921875 2.824219-6.339844 2.824219zm0 0"/><path d="m477.722656 137.914062c-2.257812.007813-4.429687-.878906-6.03125-2.472656-1.597656-1.59375-2.5-3.761718-2.5-6.019531-.003906-1.109375.203125-2.210937.605469-3.242187 13.714844-29.628907 18.347656-62.65625 13.3125-94.917969-12.394531-5.824219-56.179687-22.117188-110.617187 6.710937-4.15625 2.144532-9.265626.542969-11.453126-3.59375-2.1875-4.132812-.640624-9.261718 3.472657-11.492187 71.882812-38.066407 128.304687-5.992188 130.664062-4.597657 2.1875 1.277344 3.695313 3.464844 4.109375 5.964844 6.585938 36.539063 1.859375 74.21875-13.539062 108-1.21875 3.386719-4.425782 5.648438-8.023438 5.660156zm0 0"/><path d="m213.359375 187.789062c-4.710937 0-8.53125-3.820312-8.53125-8.535156v-8.53125c0-9.425781-7.640625-17.066406-17.066406-17.066406s-17.066407 7.640625-17.066407 17.066406v8.53125c0 4.714844-3.820312 8.535156-8.535156 8.535156-4.710937 0-8.53125-3.820312-8.53125-8.535156v-8.53125c0-18.851562 15.28125-34.132812 34.132813-34.132812 18.851562 0 34.132812 15.28125 34.132812 34.132812v8.53125c0 4.714844-3.820312 8.535156-8.535156 8.535156zm0 0"/><path d="m349.894531 187.789062c-4.714843 0-8.535156-3.820312-8.535156-8.535156v-8.53125c0-9.425781-7.640625-17.066406-17.066406-17.066406s-17.066407 7.640625-17.066407 17.066406v8.53125c0 4.714844-3.820312 8.535156-8.53125 8.535156-4.714843 0-8.535156-3.820312-8.535156-8.535156v-8.53125c0-18.851562 15.28125-34.132812 34.132813-34.132812 18.851562 0 34.132812 15.28125 34.132812 34.132812v8.53125c0 4.714844-3.820312 8.535156-8.53125 8.535156zm0 0"/><path d="m256.027344 233.65625c-17.136719 0-30.652344-24.59375-33.1875-29.527344-1.714844-3.335937-1.050782-7.402344 1.640625-10.015625 8.285156-8.726562 19.542969-14.027343 31.546875-14.859375 12.003906.832032 23.261718 6.132813 31.546875 14.859375 2.691406 2.613281 3.355469 6.679688 1.640625 10.015625-2.53125 4.933594-16.050782 29.527344-33.1875 29.527344zm-14.625-31.5c5.160156 7.980469 11.492187 14.433594 14.625 14.433594 3.402344 0 9.746094-6.902344 14.621094-14.433594-4.285157-3.261719-9.386719-5.28125-14.742188-5.835938-5.269531.609376-10.28125 2.625-14.503906 5.835938zm0 0"/><path d="m230.425781 264.589844c-17.636719 1.074218-32.855469-12.242188-34.132812-29.867188 0-4.714844 3.820312-8.535156 8.535156-8.535156 4.710937 0 8.53125 3.820312 8.53125 8.535156 0 6.941406 7.816406 12.800782 17.066406 12.800782s17.070313-5.859376 17.070313-12.800782c0-4.714844 3.820312-8.535156 8.53125-8.535156 4.714844 0 8.535156 3.820312 8.535156 8.535156-1.277344 17.625-16.496094 30.941406-34.136719 29.867188zm0 0"/><path d="m281.628906 264.589844c-17.640625 1.074218-32.859375-12.242188-34.132812-29.867188 0-4.714844 3.820312-8.535156 8.53125-8.535156 4.714844 0 8.535156 3.820312 8.535156 8.535156 0 6.941406 7.816406 12.800782 17.066406 12.800782s17.066406-5.859376 17.066406-12.800782c0-4.714844 3.820313-8.535156 8.53125-8.535156 4.714844 0 8.535157 3.820312 8.535157 8.535156-1.277344 17.625-16.496094 30.941406-34.132813 29.867188zm0 0"/><path d="m8.550781 316.53125c-2.953125-.003906-5.695312-1.535156-7.25-4.050781-1.550781-2.515625-1.695312-5.652344-.371093-8.296875 1.5-3 37.886718-73.351563 136.402343-64.417969 3.054688.253906 5.734375 2.125 7.03125 4.902344 1.292969 2.777343.996094 6.035156-.773437 8.535156-1.773438 2.5-4.746094 3.859375-7.796875 3.558594-87.011719-7.964844-119.28125 54.425781-119.597657 55.050781-1.449218 2.894531-4.40625 4.722656-7.644531 4.71875zm0 0"/><path d="m48.644531 368.320312c-.503906 0-1.007812-.046874-1.503906-.136718-2.226563-.394532-4.207031-1.65625-5.503906-3.511719-1.296875-1.851563-1.804688-4.144531-1.410157-6.371094.664063-3.734375 17.078126-91.75 93.550782-118.101562 2.898437-1.058594 6.144531-.46875 8.484375 1.539062 2.339843 2.011719 3.414062 5.128907 2.808593 8.152344-.605468 3.027344-2.796874 5.488281-5.734374 6.441406-66.871094 23.039063-82.15625 104.140625-82.304688 104.960938-.730469 4.058593-4.261719 7.015625-8.386719 7.027343zm0 0"/><path d="m38.734375 225.128906c-3.9375.007813-7.367187-2.675781-8.304687-6.5-.9375-3.824218.863281-7.792968 4.359374-9.605468 1.683594-.867188 41.824219-21.136719 104.277344-1.976563 4.507813 1.382813 7.039063 6.15625 5.65625 10.664063-1.386718 4.503906-6.160156 7.035156-10.664062 5.652343-55.851563-17.125-91.050782.625-91.390625.808594-1.214844.628906-2.5625.957031-3.933594.957031zm0 0"/><path d="m503.503906 316.53125c-3.230468.003906-6.183594-1.816406-7.636718-4.703125-1.363282-2.679687-33.078126-62.914063-119.601563-55.066406-3.039063.277343-5.992187-1.089844-7.746094-3.582031-1.757812-2.492188-2.050781-5.730469-.773437-8.5 1.28125-2.765626 3.941406-4.640626 6.976562-4.917969 98.535156-8.898438 134.90625 61.425781 136.40625 64.417969 1.320313 2.644531 1.179688 5.785156-.371094 8.300781-1.554687 2.515625-4.296874 4.046875-7.253906 4.050781zm0 0"/><path d="m463.410156 368.320312c-4.128906-.007812-7.660156-2.96875-8.390625-7.03125-.148437-.816406-15.433593-81.921874-82.304687-104.960937-2.933594-.953125-5.128906-3.414063-5.734375-6.441406-.605469-3.023438.46875-6.140625 2.808593-8.148438 2.34375-2.011719 5.585938-2.601562 8.484376-1.542969 76.476562 26.351563 92.886718 114.367188 93.550781 118.101563.394531 2.226563-.113281 4.519531-1.410157 6.375-1.292968 1.851563-3.273437 3.113281-5.503906 3.507813-.492187.09375-.996094.140624-1.5.140624zm0 0"/><path d="m473.320312 225.128906c-1.359374.003906-2.695312-.324218-3.902343-.949218-.640625-.324219-36.273438-17.742188-91.417969-.816407-4.507812 1.382813-9.28125-1.148437-10.664062-5.652343-1.382813-4.507813 1.148437-9.28125 5.652343-10.664063 62.4375-19.167969 102.589844 1.097656 104.277344 1.976563 3.496094 1.8125 5.296875 5.78125 4.359375 9.605468-.933594 3.824219-4.367188 6.507813-8.304688 6.5zm0 0"/><path d="m256.027344 315.789062c-23.160156 0-41.460938-26.074218-42.582032-60.652343-.148437-4.707031 3.546876-8.644531 8.253907-8.796875 2.277343-.128906 4.503906.679687 6.167969 2.238281 1.664062 1.558594 2.617187 3.730469 2.636718 6.011719.777344 23.921875 12.460938 44.132812 25.523438 44.132812s24.746094-20.210937 25.519531-44.132812c.039063-2.273438 1-4.433594 2.65625-5.988282 1.660156-1.554687 3.878906-2.371093 6.148437-2.261718 4.710938.152344 8.40625 4.089844 8.253907 8.796875-1.117188 34.578125-19.417969 60.652343-42.578125 60.652343zm0 0"/><path d="m215.511719 434.039062c-4.445313-.015624-8.835938-.925781-12.921875-2.675781-14.617188-7.292969-23.714844-22.359375-23.363282-38.691406-.042968-4.710937 3.738282-8.566406 8.449219-8.617187h.085938c4.679687 0 8.484375 3.769531 8.53125 8.449218-.363281 9.53125 4.636719 18.464844 12.953125 23.140625 4.203125 2.03125 9.144531 1.820313 13.164062-.558593 4.503906-2.894532 7.375-7.75 7.738282-13.089844.15625-1.609375.242187-3.226563.265624-4.84375.535157-8.71875-1.242187-17.421875-5.152343-25.234375-4.785157-8.144531-12.675781-13.996094-21.859375-16.207031-11.449219-2.898438-23.582032-1.160157-33.757813 4.835937-2.613281 1.660156-5.925781 1.777344-8.648437.296875-2.722656-1.476562-4.433594-4.3125-4.464844-7.414062-.03125-3.097657 1.621094-5.96875 4.3125-7.5 14.089844-8.449219 30.988281-10.871094 46.882812-6.726563 13.640626 3.363281 25.328126 12.128906 32.375 24.285156 5.4375 10.449219 7.984376 22.164063 7.378907 33.933594-.03125 2.066406-.144531 4.128906-.339844 6.191406-.886719 10.753907-6.816406 20.453125-15.988281 26.140625-4.730469 2.816406-10.136719 4.296875-15.640625 4.285156zm0 0"/><path d="m147.675781 477.445312c-15.003906-.003906-28.488281-9.164062-34.015625-23.113281-3.5-8.90625-5.675781-18.273437-6.457031-27.808593-.375-4.671876 3.085937-8.773438 7.753906-9.1875 4.671875-.410157 8.796875 3.019531 9.246094 7.6875.632813 7.84375 2.40625 15.558593 5.273437 22.890624 3.90625 9.757813 14.753907 14.761719 24.714844 11.398438 12.460938-4.097656 25.035156-26.324219 25.035156-66.722656 0-4.714844 3.820313-8.535156 8.535157-8.535156 4.710937 0 8.53125 3.820312 8.53125 8.535156 0 43.6875-14.085938 75.472656-36.769531 82.941406-3.824219 1.261719-7.820313 1.90625-11.847657 1.914062zm0 0"/><path d="m296.542969 434.039062c-5.503907.011719-10.910157-1.46875-15.640625-4.285156-9.171875-5.6875-15.101563-15.386718-15.988282-26.140625-.195312-2.058593-.308593-4.121093-.339843-6.191406-.605469-11.765625 1.941406-23.480469 7.378906-33.933594 7.046875-12.15625 18.734375-20.921875 32.375-24.285156 15.898437-4.136719 32.789063-1.714844 46.882813 6.726563 2.691406 1.53125 4.34375 4.40625 4.3125 7.503906s-1.742188 5.933594-4.464844 7.414062c-2.722656 1.476563-6.035156 1.363282-8.648438-.300781-10.171875-6.007813-22.308594-7.746094-33.757812-4.832031-9.183594 2.207031-17.074219 8.058594-21.859375 16.207031-3.910157 7.808594-5.6875 16.515625-5.152344 25.234375.023437 1.617188.113281 3.234375.265625 4.839844.363281 5.34375 3.234375 10.199218 7.738281 13.09375 4.019531 2.375 8.964844 2.585937 13.171875.554687 8.3125-4.675781 13.308594-13.609375 12.945313-23.140625.046875-4.679687 3.851562-8.449218 8.53125-8.449218h.085937c4.710938.050781 8.492188 3.90625 8.449219 8.617187.351563 16.332031-8.746094 31.398437-23.359375 38.691406-4.085938 1.75-8.480469 2.660157-12.925781 2.675781zm0 0"/><path d="m364.378906 477.445312c-4.027344-.007812-8.023437-.652343-11.847656-1.914062-22.683594-7.46875-36.769531-39.253906-36.769531-82.941406 0-4.714844 3.820312-8.535156 8.53125-8.535156 4.714843 0 8.535156 3.820312 8.535156 8.535156 0 40.398437 12.574219 62.625 25.035156 66.722656 9.960938 3.367188 20.8125-1.640625 24.714844-11.398438 2.867187-7.332031 4.644531-15.046874 5.273437-22.890624.449219-4.667969 4.574219-8.097657 9.246094-7.6875 4.667969.414062 8.132813 4.515624 7.753906 9.1875-.78125 9.535156-2.957031 18.902343-6.457031 27.808593-5.527343 13.949219-19.011719 23.109375-34.015625 23.113281zm0 0"/><path d="m93.894531 59.789062c-2.265625.003907-4.433593-.898437-6.035156-2.5-13.023437-13.019531-33.761719-6.527343-33.96875-6.460937-4.445313 1.386719-9.179687-1.042969-10.644531-5.464844-1.460938-4.417969.886718-9.195312 5.28125-10.734375 1.25-.425781 30.851562-9.957031 51.398437 10.589844 2.441407 2.441406 3.171875 6.113281 1.851563 9.300781-1.320313 3.191407-4.429688 5.269531-7.882813 5.269531zm0 0"/><path d="m59.769531 85.386719c-3.234375.003906-6.195312-1.820313-7.640625-4.714844-6.117187-13.25-6.117187-28.515625 0-41.765625 2.097656-4.222656 7.21875-5.945312 11.441406-3.847656 4.21875 2.097656 5.941407 7.21875 3.84375 11.441406-3.730468 8.449219-3.738281 18.082031-.019531 26.539062 1.320313 2.644532 1.179688 5.785157-.371093 8.296876-1.554688 2.515624-4.296876 4.050781-7.253907 4.050781zm0 0"/><path d="m418.160156 59.789062c-3.449218 0-6.5625-2.082031-7.882812-5.269531-1.320313-3.1875-.589844-6.855469 1.851562-9.296875 20.554688-20.558594 50.152344-11.015625 51.398438-10.59375 4.371094 1.554688 6.699218 6.320313 5.242187 10.722656-1.460937 4.40625-6.167969 6.835938-10.605469 5.476563-.207031-.066406-20.949218-6.570313-33.96875 6.457031-1.597656 1.605469-3.769531 2.503906-6.035156 2.503906zm0 0"/><path d="m452.285156 85.386719c-2.957031 0-5.699218-1.535157-7.253906-4.050781-1.550781-2.511719-1.691406-5.652344-.371094-8.296876 3.722656-8.441406 3.722656-18.058593 0-26.5-1.363281-2.726562-1.167968-5.976562.511719-8.519531s4.589844-4 7.632813-3.816406c3.042968.183594 5.757812 1.976563 7.121093 4.703125 6.117188 13.25 6.117188 28.515625 0 41.765625-1.445312 2.894531-4.40625 4.71875-7.640625 4.714844zm0 0"/><path d="m135.683594 92.625c1.222656-7.382812 4.765625-14.183594 10.113281-19.414062 5.46875-5.484376 12.375-9.304688 19.921875-11.027344 7.339844-1.449219 14.910156-1.210938 22.144531.691406 3.390625.996094 6.707031 2.222656 9.929688 3.675781 3.019531 1.679688 5.933593 3.542969 8.722656 5.582031 1.519531 1.152344 2.109375 3.15625 1.460937 4.949219-.648437 1.792969-2.386718 2.953125-4.289062 2.867188l-.546875-.03125c-3.089844-.207031-6.160156-.589844-9.203125-1.152344l-8.671875-.800781c-5.328125-.335938-10.671875-.039063-15.925781.878906-4.992188 1.089844-9.765625 3.011719-14.121094 5.679688-4.734375 3.046874-9.101562 6.636718-13.007812 10.695312l-.492188.492188c-1.09375 1.089843-2.765625 1.351562-4.140625.648437-1.371094-.703125-2.136719-2.210937-1.894531-3.734375zm0 0"/><path d="m369.84375 95.21875c-3.90625-4.058594-8.273438-7.648438-13.007812-10.695312-4.355469-2.667969-9.128907-4.589844-14.117188-5.679688-5.257812-.917969-10.601562-1.214844-15.925781-.878906l-8.675781.800781c-3.042969.5625-6.113282.945313-9.199219 1.152344l-.523438.027343c-1.90625.097657-3.65625-1.058593-4.3125-2.851562s-.0625-3.804688 1.457031-4.960938c2.789063-2.039062 5.703126-3.902343 8.722657-5.582031 3.222656-1.453125 6.539062-2.679687 9.929687-3.675781 7.234375-1.902344 14.804688-2.140625 22.144532-.691406 7.546874 1.722656 14.453124 5.542968 19.921874 11.027344 5.351563 5.230468 8.890626 12.03125 10.113282 19.414062.242187 1.519531-.519532 3.023438-1.886719 3.726562-1.367187.707032-3.035156.453126-4.132813-.625zm0 0"/></g></svg>