<svg height="512pt" viewBox="0 0 512 512.05511" width="512pt" xmlns="http://www.w3.org/2000/svg"><path d="m389.660156 363.0625-.171875.171875c22.359375 23.039063 64.429688 74.496094 71.339844 140.289063h-409.597656c6.910156-65.792969 48.980469-117.25 71.335937-140.289063l-.167968-.171875c-74.925782-27.5625-113.835938-79.617188-113.835938-139.261719.640625-33.109375 9.496094-65.542969 25.769531-94.378906v-.085937c-14.898437-32.398438-19.488281-68.589844-13.140625-103.679688 13.09375-6.757812 27.386719-10.875 42.070313-12.117188 6.523437-.582031 13.082031-.722656 19.625-.429687h.683593c16.734376 1.035156 33.148438 5.050781 48.46875 11.863281 3.753907 1.535156 7.59375 3.414063 11.519532 5.460938 1.535156-.683594 2.988281-1.28125 4.523437-1.792969.085938.085937.171875 0 .339844-.167969 29.523437-11.847656 60.882813-18.460937 92.671875-19.542968.683594 0 1.367188-.085938 2.136719-.085938 4.179687-.171875 8.445312-.253906 12.796875-.253906 5.035156 0 10.070312.167968 14.933594.339844 28.480468.996093 56.636718 6.40625 83.457031 16.042968 3.15625 1.109375 6.230469 2.21875 9.214843 3.5.171876.167969.257813.253906.34375.167969 1.535157.511719 2.984376 1.109375 4.519532 1.792969 16.957031-9.21875 35.582031-14.964844 54.785156-16.894532 1.792969-.171874 3.5-.34375 5.207031-.429687h1.277344c21.121094-1.316406 42.210937 3.011719 61.101563 12.546875 6.34375 35.089844 1.757812 71.28125-13.144532 103.679688v.085937c16.277344 28.835937 25.132813 61.269531 25.773438 94.378906 0 59.644531-38.914063 111.699219-113.835938 139.261719zm0 0" fill="#cad9fc"/><path d="m364.0625 363.0625-.171875.171875c22.355469 23.039063 64.425781 74.496094 71.339844 140.289063h-384c6.910156-65.792969 48.980469-117.25 71.335937-140.289063l-.167968-.171875c-74.925782-27.5625-113.835938-79.617188-113.835938-139.261719.640625-33.109375 9.496094-65.542969 25.769531-94.378906v-.085937c-14.898437-32.398438-19.488281-68.589844-13.140625-103.679688 13.09375-6.757812 27.386719-10.875 42.070313-12.117188 19.167969 1.972657 37.753906 7.714844 54.699219 16.894532 1.535156-.683594 2.984374-1.28125 4.519531-1.792969.085937.085937.171875 0 .34375-.167969 2.984375-1.28125 6.058593-2.390625 9.214843-3.5 26.820313-9.636718 54.976563-15.046875 83.457032-16.042968 4.863281-.171876 9.898437-.339844 14.933594-.339844 4.351562 0 8.617187.082031 12.800781.253906.765625 0 1.449219.085938 2.132812.085938 31.789063 1.082031 63.148438 7.695312 92.671875 19.542968.167969.167969.253906.253906.339844.167969 1.535156.511719 2.988281 1.109375 4.523438 1.792969 3.925781-2.046875 7.765624-3.925782 11.519531-5.460938 3.15625 1.109375 6.230469 2.21875 9.214843 3.5.171876.167969.257813.253906.34375.167969 1.535157.511719 2.984376 1.109375 4.519532 1.792969 16.957031-9.21875 35.582031-14.964844 54.785156-16.894532 14.652344 1.25 28.917969 5.367188 41.984375 12.117188 6.347656 35.089844 1.757813 71.28125-13.140625 103.679688v.085937c16.273438 28.835937 25.128906 61.269531 25.769531 94.378906 0 59.644531-38.910156 111.699219-113.832031 139.261719zm0 0" fill="#e8edfc"/><path d="m58.3125 76.855469c-3.171875-11.535157-3.726562-23.636719-1.621094-35.414063 13.257813-2.996094 27.144532.667969 37.203125 9.8125zm0 0" fill="#a4c2f7"/><path d="m447.347656 76.855469c7.867188-10.363281 9.316406-24.246094 3.753906-36.011719-11.988281-1.679688-24.09375 2.144531-32.941406 10.410156zm0 0" fill="#a4c2f7"/><path d="m261.746094 197.859375c7.742187 5.472656 12.050781 14.605469 11.347656 24.0625 0 14.164063-7.679688 25.601563-17.066406 25.601563-9.386719 0-17.066406-11.4375-17.066406-25.601563-.699219-9.457031 3.605468-18.589844 11.351562-24.0625zm0 0" fill="#a4c2f7"/><path d="m281.59375 174.640625s-12.78125 24.839844-25.566406 24.839844c-12.78125 0-25.566406-24.839844-25.566406-24.839844.730468-.664063 1.390624-1.324219 2.121093-1.988281 5.953125-5.394532 13.332031-8.957032 21.261719-10.265625 1.445312-.265625 2.925781-.265625 4.371094 0 7.925781 1.308593 15.308594 4.871093 21.261718 10.265625.726563.664062 1.390626 1.324218 2.117188 1.988281zm0 0" fill="#cad9fc"/><path d="m157.640625 24.972656c26.820313-9.636718 54.972656-15.046875 83.453125-16.042968 4.867188-.171876 9.898438-.339844 14.933594-.339844-4.351563 0-8.617188.082031-12.796875.253906-4.183594-.171875-8.449219-.253906-12.800781-.253906-5.035157 0-10.070313.167968-14.933594.339844-23.566406.929687-46.917969 4.8125-69.519532 11.550781 3.835938 1.3125 7.714844 2.757812 11.664063 4.492187zm0 0" fill="#fff"/><path d="m147.996094 363.0625c-74.921875-27.5625-113.835938-79.617188-113.835938-139.261719.640625-33.109375 9.496094-65.542969 25.773438-94.378906v-.085937c-14.902344-32.398438-19.488282-68.589844-13.140625-103.679688 12.960937-6.679688 27.09375-10.773438 41.617187-12.058594-1.605468-.148437-3.277344-.394531-4.839844-.488281h-.683593c-6.542969-.292969-13.101563-.152344-19.625.429687-14.683594 1.242188-28.976563 5.359376-42.070313 12.117188-6.347656 35.089844-1.757812 71.28125 13.140625 103.679688v.085937c-16.273437 28.835937-25.128906 61.269531-25.769531 94.378906 0 59.644531 38.910156 111.699219 113.835938 139.261719l.167968.171875c-22.355468 23.039063-64.425781 74.496094-71.335937 140.289063h25.597656c6.914063-65.792969 48.980469-117.25 71.339844-140.289063zm0 0" fill="#fff"/><path d="m122.378906 371.554688c-1.003906 0-2.003906-.175782-2.945312-.523438-75.886719-27.902344-119.4062502-81.558594-119.4062502-147.230469 1.1601562-45.597656 16.6875002-89.664062 44.3632812-125.921875 2.820313-3.773437 8.167969-4.550781 11.945313-1.726562 3.777343 2.820312 4.550781 8.167968 1.730468 11.945312-25.496094 33.292969-39.835937 73.78125-40.972656 115.703125 0 58.097657 39.449219 105.933594 108.230469 131.214844 3.882812 1.429687 6.179687 5.433594 5.453125 9.503906-.722656 4.074219-4.261719 7.039063-8.398438 7.039063zm0 0" fill="#428dff"/><path d="m119.117188 51.253906c-3.863282.003906-7.242188-2.585937-8.246094-6.3125-1.003906-3.730468.621094-7.667968 3.960937-9.601562 43.097657-24.089844 91.832031-36.265625 141.195313-35.2851565 4.714844 0 8.535156 3.8203125 8.535156 8.5351565 0 4.710937-3.820312 8.53125-8.535156 8.53125-46.355469-.964844-92.136719 10.417968-132.644532 32.984375-1.292968.753906-2.765624 1.152343-4.265624 1.148437zm0 0" fill="#428dff"/><path d="m34.332031 137.914062c-3.757812.011719-7.078125-2.441406-8.171875-6.035156-15.289062-33.683594-19.957031-71.222656-13.386718-107.625.417968-2.5 1.921874-4.683594 4.109374-5.964844 2.367188-1.390624 58.792969-33.441406 130.667969 4.597657 4.109375 2.234375 5.660157 7.359375 3.472657 11.492187-2.191407 4.136719-7.300782 5.738282-11.457032 3.59375-33.808594-19.371094-74.726562-21.839844-110.621094-6.675781-5.027343 32.246094-.394531 65.261719 13.3125 94.882813.402344 1 .609376 2.074218.609376 3.15625.003906 4.722656-3.8125 8.558593-8.535157 8.578124zm0 0" fill="#428dff"/><path d="m389.632812 371.570312c-4.136718 0-7.671874-2.96875-8.398437-7.039062-.722656-4.070312 1.578125-8.074219 5.457031-9.5 68.808594-25.285156 108.269532-73.109375 108.269532-131.230469-1.136719-41.917969-15.476563-82.410156-40.96875-115.703125-2.824219-3.773437-2.046876-9.125 1.726562-11.945312 3.777344-2.820313 9.125-2.046875 11.949219 1.730468 27.675781 36.253907 43.199219 80.320313 44.359375 125.917969 0 65.691407-43.535156 119.355469-119.453125 147.25-.941407.347657-1.9375.523438-2.941407.519531zm0 0" fill="#428dff"/><path d="m392.941406 51.253906c-1.5.003906-2.972656-.394531-4.265625-1.148437-40.507812-22.566407-86.289062-33.949219-132.648437-32.984375-4.710938 0-8.53125-3.820313-8.53125-8.53125 0-4.714844 3.820312-8.5351565 8.53125-8.5351565 49.363281-.9804685 98.097656 11.1953125 141.195312 35.2851565 3.34375 1.933594 4.964844 5.871094 3.964844 9.601562-1.003906 3.726563-4.386719 6.316406-8.246094 6.3125zm0 0" fill="#428dff"/><path d="m42.742188 502.632812c4.875-38.28125 19.167968-74.75 41.605468-106.144531 9.636719-13.949219 20.402344-27.085937 32.179688-39.28125l12.25 11.882813c-11.117188 11.515625-21.277344 23.914062-30.375 37.082031-20.8125 29.046875-34.105469 62.800781-38.6875 98.242187zm0 0" fill="#fff"/><g fill="#428dff"><path d="m60.511719 461.964844c-2.1875-.726563-4.582031-.523438-6.617188.5625-2.035156 1.082031-3.539062 2.953125-4.164062 5.175781-3.296875 11.425781-5.636719 23.109375-6.988281 34.925781l16.972656 1.78125c1.246094-10.800781 3.386718-21.480468 6.398437-31.925781 1.210938-4.4375-1.242187-9.046875-5.601562-10.519531zm0 0"/><path d="m128.777344 369.089844-12.25-11.882813c-11.777344 12.195313-22.542969 25.332031-32.179688 39.28125l-4.890625 7.304688c-1.671875 2.5625-1.84375 5.824219-.453125 8.546875 1.394532 2.722656 4.136719 4.492187 7.191406 4.636718 3.054688.148438 5.957032-1.351562 7.601563-3.929687l4.605469-6.875c9.101562-13.167969 19.257812-25.566406 30.375-37.082031zm0 0"/><path d="m62.339844 434.601562c-.9375 2.117188-1.054688 4.511719-.324219 6.714844l.738281 1.464844c.300782.492188.664063.9375 1.085938 1.328125.34375.417969.75.777344 1.203125 1.070313.476562.3125.976562.585937 1.496093.828124 2.097657.847657 4.429688.914063 6.570313.183594 4.246094-1.660156 6.457031-6.347656 5.035156-10.679687-.390625-1.042969-.96875-2.003907-1.707031-2.835938-1.84375-2.234375-4.710938-3.351562-7.582031-2.960937-2.867188.390625-5.328125 2.242187-6.507813 4.886718zm0 0"/><path d="m460.828125 512.054688h-409.597656c-4.714844 0-8.535157-3.820313-8.535157-8.53125 0-4.714844 3.820313-8.535157 8.535157-8.535157h399.863281c-9.289062-58.074219-46.007812-103.425781-67.816406-125.898437-3.28125-3.382813-3.199219-8.785156.183594-12.066406 3.382812-3.285157 8.785156-3.203126 12.066406.179687 24.507812 25.261719 66.683594 77.734375 73.789062 145.425781.253906 2.40625-.527344 4.804688-2.144531 6.601563-1.621094 1.796875-3.925781 2.824219-6.34375 2.824219zm0 0"/><path d="m477.722656 137.914062c-2.257812.007813-4.425781-.878906-6.027344-2.472656-1.601562-1.59375-2.503906-3.761718-2.503906-6.019531-.003906-1.109375.203125-2.210937.609375-3.242187 13.710938-29.628907 18.34375-62.65625 13.3125-94.917969-12.394531-5.824219-56.175781-22.117188-110.617187 6.710937-4.160156 2.144532-9.269532.542969-11.457032-3.59375-2.1875-4.132812-.640624-9.261718 3.472657-11.492187 71.886719-38.066407 128.304687-5.992188 130.667969-4.597657 2.1875 1.277344 3.691406 3.464844 4.105468 5.964844 6.585938 36.539063 1.863282 74.21875-13.539062 108-1.21875 3.386719-4.421875 5.648438-8.023438 5.660156zm0 0"/><path d="m8.554688 298.125c-2.957032-.003906-5.703126-1.535156-7.253907-4.050781-1.554687-2.515625-1.695312-5.65625-.371093-8.300781 1.503906-3 37.902343-73.332032 136.402343-64.414063 3.039063.273437 5.695313 2.148437 6.976563 4.914063 1.28125 2.769531.984375 6.007812-.769532 8.5-1.757812 2.492187-4.710937 3.859374-7.746093 3.585937-87.039063-7.929687-119.285157 54.414063-119.597657 55.046875-1.445312 2.894531-4.40625 4.722656-7.640624 4.71875zm0 0"/><path d="m48.644531 349.921875c-2.519531-.015625-4.90625-1.136719-6.523437-3.066406-1.621094-1.929688-2.3125-4.472657-1.886719-6.957031.660156-3.734376 17.066406-91.753907 93.546875-118.109376 2.898438-1.058593 6.144531-.46875 8.484375 1.539063 2.339844 2.011719 3.414063 5.128906 2.808594 8.152344-.605469 3.027343-2.796875 5.488281-5.734375 6.441406-66.871094 23.050781-82.15625 104.148437-82.300782 104.964844-.734374 4.066406-4.265624 7.023437-8.394531 7.035156zm0 0"/><path d="m38.738281 206.734375c-3.9375.007813-7.371093-2.679687-8.308593-6.503906-.933594-3.824219.867187-7.792969 4.359374-9.605469 1.679688-.867188 41.832032-21.132812 104.277344-1.976562 4.507813 1.382812 7.039063 6.15625 5.65625 10.664062-1.382812 4.503906-6.15625 7.035156-10.664062 5.652344-55.847656-17.132813-91.050782.625-91.390625.808594-1.214844.628906-2.5625.957031-3.929688.960937zm0 0"/><path d="m503.503906 298.125c-3.230468.003906-6.183594-1.816406-7.632812-4.699219-1.367188-2.683593-33.117188-62.949219-119.605469-55.066406-3.035156.273437-5.988281-1.09375-7.746094-3.585937-1.757812-2.492188-2.050781-5.730469-.769531-8.5 1.277344-2.765626 3.9375-4.640626 6.976562-4.914063 98.511719-8.902344 134.902344 61.421875 136.402344 64.414063 1.320313 2.644531 1.179688 5.785156-.371094 8.300781-1.554687 2.515625-4.296874 4.046875-7.253906 4.050781zm0 0"/><path d="m463.410156 349.921875c-4.128906-.011719-7.660156-2.96875-8.390625-7.035156-.144531-.816407-15.433593-81.917969-82.304687-104.964844-2.933594-.953125-5.125-3.414063-5.734375-6.441406-.605469-3.023438.46875-6.140625 2.8125-8.152344 2.339843-2.007813 5.582031-2.597656 8.480469-1.539063 76.480468 26.355469 92.886718 114.375 93.550781 118.109376.421875 2.484374-.265625 5.027343-1.886719 6.957031-1.621094 1.929687-4.007812 3.050781-6.527344 3.066406zm0 0"/><path d="m473.320312 206.734375c-1.359374 0-2.695312-.324219-3.902343-.953125-.636719-.324219-36.273438-17.746094-91.417969-.816406-4.507812 1.382812-9.28125-1.148438-10.664062-5.652344-1.382813-4.507812 1.148437-9.28125 5.65625-10.664062 62.429687-19.164063 102.589843 1.101562 104.277343 1.976562 3.492188 1.8125 5.292969 5.78125 4.359375 9.605469-.9375 3.824219-4.371094 6.511719-8.308594 6.503906zm0 0"/><path d="m215.511719 434.039062c-4.441407-.015624-8.835938-.925781-12.921875-2.675781-14.613282-7.292969-23.714844-22.359375-23.359375-38.691406-.046875-4.710937 3.734375-8.566406 8.445312-8.617187h.085938c4.679687 0 8.488281 3.769531 8.535156 8.449218-.367187 9.53125 4.632813 18.464844 12.949219 23.140625 4.203125 2.03125 9.148437 1.820313 13.164062-.558593 4.507813-2.894532 7.375-7.75 7.738282-13.089844.15625-1.609375.242187-3.226563.265624-4.84375.539063-8.71875-1.242187-17.421875-5.152343-25.234375-4.78125-8.144531-12.671875-13.996094-21.859375-16.207031-11.449219-2.898438-23.582032-1.160157-33.757813 4.835937-2.613281 1.660156-5.925781 1.777344-8.648437.296875-2.722656-1.476562-4.429688-4.3125-4.460938-7.414062-.03125-3.097657 1.617188-5.96875 4.308594-7.5 14.09375-8.449219 30.988281-10.871094 46.882812-6.726563 13.644532 3.363281 25.332032 12.128906 32.378907 24.285156 5.4375 10.449219 7.984375 22.164063 7.378906 33.933594-.035156 2.066406-.148437 4.128906-.34375 6.191406-.882813 10.753907-6.816406 20.453125-15.988281 26.140625-4.730469 2.816406-10.132813 4.296875-15.640625 4.285156zm0 0"/><path d="m147.679688 477.445312c-15.007813-.003906-28.488282-9.164062-34.019532-23.113281-3.5-8.90625-5.675781-18.273437-6.457031-27.808593-.375-4.671876 3.085937-8.773438 7.757813-9.1875 4.667968-.410157 8.796874 3.019531 9.242187 7.6875.632813 7.84375 2.410156 15.558593 5.273437 22.890624 3.910157 9.753907 14.757813 14.757813 24.714844 11.398438 12.460938-4.097656 25.039063-26.324219 25.039063-66.722656 0-4.714844 3.820312-8.535156 8.53125-8.535156 4.714843 0 8.535156 3.820312 8.535156 8.535156 0 43.6875-14.089844 75.472656-36.773437 82.941406-3.820313 1.261719-7.820313 1.90625-11.84375 1.914062zm0 0"/><path d="m296.542969 434.039062c-5.503907.011719-10.910157-1.46875-15.640625-4.285156-9.167969-5.6875-15.101563-15.386718-15.984375-26.140625-.195313-2.058593-.3125-4.121093-.34375-6.191406-.605469-11.765625 1.941406-23.480469 7.378906-33.933594 7.046875-12.15625 18.734375-20.921875 32.375-24.285156 15.898437-4.136719 32.792969-1.714844 46.882813 6.726563 2.695312 1.53125 4.34375 4.40625 4.3125 7.503906s-1.738282 5.933594-4.464844 7.414062c-2.722656 1.476563-6.03125 1.363282-8.648438-.300781-10.171875-6.007813-22.308594-7.746094-33.757812-4.832031-9.183594 2.207031-17.074219 8.058594-21.855469 16.207031-3.914063 7.808594-5.691406 16.515625-5.15625 25.234375.027344 1.617188.113281 3.234375.265625 4.839844.363281 5.34375 3.234375 10.199218 7.738281 13.09375 4.023438 2.375 8.964844 2.585937 13.171875.554687 8.3125-4.675781 13.308594-13.609375 12.945313-23.140625.046875-4.679687 3.855469-8.449218 8.535156-8.449218h.082031c4.714844.050781 8.492188 3.90625 8.449219 8.617187.355469 16.332031-8.742187 31.398437-23.359375 38.691406-4.082031 1.75-8.480469 2.660157-12.925781 2.675781zm0 0"/><path d="m364.378906 477.445312c-4.023437-.007812-8.023437-.652343-11.847656-1.914062-22.683594-7.46875-36.769531-39.253906-36.769531-82.941406 0-4.714844 3.820312-8.535156 8.535156-8.535156 4.710937 0 8.53125 3.820312 8.53125 8.535156 0 40.398437 12.574219 62.625 25.039063 66.722656 9.957031 3.363281 20.804687-1.640625 24.710937-11.398438 2.867187-7.332031 4.644531-15.046874 5.273437-22.890624.449219-4.667969 4.578126-8.097657 9.246094-7.6875 4.667969.414062 8.132813 4.515624 7.753906 9.1875-.78125 9.535156-2.957031 18.902343-6.457031 27.808593-5.527343 13.949219-19.011719 23.109375-34.015625 23.113281zm0 0"/><path d="m93.894531 59.789062c-2.261719.003907-4.433593-.898437-6.03125-2.5-13.03125-13.019531-33.765625-6.527343-33.972656-6.460937-4.445313 1.386719-9.179687-1.042969-10.640625-5.464844-1.464844-4.417969.886719-9.195312 5.277344-10.734375 1.246094-.425781 30.847656-9.957031 51.402344 10.589844 2.441406 2.441406 3.171874 6.113281 1.847656 9.300781-1.320313 3.191407-4.429688 5.269531-7.882813 5.269531zm0 0"/><path d="m59.769531 85.386719c-3.234375.003906-6.195312-1.820313-7.640625-4.714844-6.113281-13.25-6.113281-28.515625 0-41.765625 2.097656-4.222656 7.21875-5.945312 11.441406-3.847656 4.222657 2.097656 5.941407 7.21875 3.847657 11.441406-3.734375 8.449219-3.742188 18.082031-.023438 26.539062 1.324219 2.644532 1.183594 5.785157-.371093 8.296876-1.550782 2.515624-4.296876 4.050781-7.253907 4.050781zm0 0"/><path d="m418.160156 59.789062c-3.449218 0-6.558594-2.082031-7.878906-5.269531s-.59375-6.855469 1.847656-9.296875c20.566406-20.558594 50.144532-11.015625 51.398438-10.59375 4.371094 1.554688 6.699218 6.320313 5.242187 10.722656-1.457031 4.40625-6.167969 6.835938-10.601562 5.476563-.210938-.066406-20.949219-6.570313-33.972657 6.457031-1.597656 1.605469-3.769531 2.503906-6.035156 2.503906zm0 0"/><path d="m452.285156 85.386719c-2.953125 0-5.699218-1.535157-7.253906-4.050781-1.550781-2.511719-1.691406-5.652344-.367188-8.296876 3.722657-8.441406 3.722657-18.058593 0-26.5-1.367187-2.726562-1.171874-5.976562.507813-8.519531s4.589844-4 7.632813-3.816406c3.046874.183594 5.761718 1.976563 7.125 4.703125 6.113281 13.25 6.113281 28.515625 0 41.765625-1.449219 2.894531-4.40625 4.71875-7.644532 4.714844zm0 0"/><path d="m256.027344 208.054688c-17.136719 0-30.652344-24.589844-33.1875-29.523438-1.714844-3.339844-1.046875-7.402344 1.644531-10.019531 8.285156-8.722657 19.539063-14.027344 31.542969-14.855469 12.003906.828125 23.261718 6.132812 31.546875 14.855469 2.691406 2.617187 3.359375 6.679687 1.640625 10.019531-2.53125 4.933594-16.046875 29.523438-33.1875 29.523438zm-14.625-31.5c5.160156 7.984374 11.492187 14.433593 14.625 14.433593 3.40625 0 9.746094-6.898437 14.621094-14.433593-4.285157-3.261719-9.382813-5.28125-14.742188-5.832032-5.269531.605469-10.28125 2.621094-14.503906 5.832032zm0 0"/><path d="m187.761719 170.722656c-23.550781-.027344-42.640625-19.113281-42.667969-42.667968 0-4.710938 3.820312-8.53125 8.535156-8.53125 4.710938 0 8.53125 3.820312 8.53125 8.53125 0 14.140624 11.464844 25.601562 25.601563 25.601562s25.601562-11.460938 25.601562-25.601562c0-4.710938 3.820313-8.53125 8.53125-8.53125 4.714844 0 8.535157 3.820312 8.535157 8.53125-.027344 23.554687-19.113282 42.640624-42.667969 42.667968zm0 0"/><path d="m324.296875 170.722656c-23.554687-.027344-42.640625-19.113281-42.667969-42.667968 0-4.710938 3.820313-8.53125 8.53125-8.53125 4.714844 0 8.535156 3.820312 8.535156 8.53125 0 14.140624 11.460938 25.601562 25.601563 25.601562 14.136719 0 25.597656-11.460938 25.597656-25.601562 0-4.710938 3.820313-8.53125 8.535157-8.53125 4.710937 0 8.53125 3.820312 8.53125 8.53125-.027344 23.554687-19.113282 42.640624-42.664063 42.667968zm0 0"/><path d="m256.027344 256.054688c-14.351563 0-25.597656-14.992188-25.597656-34.132813-.765626-12.617187 5.292968-24.679687 15.871093-31.601563 3.171875-1.675781 7.054688-1.199218 9.726563 1.195313 2.675781-2.394531 6.554687-2.871094 9.730468-1.195313 10.578126 6.921876 16.636719 18.984376 15.871094 31.601563 0 19.140625-11.246094 34.132813-25.601562 34.132813zm0-51.859376c-.519532.464844-1.089844.867188-1.707032 1.195313-4.867187 4.042969-7.421874 10.230469-6.824218 16.53125 0 10.257813 5.136718 17.066406 8.53125 17.066406 3.398437 0 8.535156-6.808593 8.535156-17.066406.597656-6.300781-1.960938-12.488281-6.828125-16.535156-.613281-.328125-1.1875-.726563-1.707031-1.191407zm0 0"/><path d="m135.683594 92.625c1.222656-7.382812 4.765625-14.183594 10.113281-19.414062 5.46875-5.484376 12.375-9.304688 19.925781-11.027344 7.335938-1.449219 14.90625-1.210938 22.140625.691406 3.390625.996094 6.710938 2.222656 9.929688 3.675781 3.019531 1.679688 5.933593 3.542969 8.722656 5.582031 1.519531 1.152344 2.109375 3.15625 1.460937 4.949219-.648437 1.792969-2.386718 2.953125-4.289062 2.867188l-.546875-.03125c-3.085937-.207031-6.160156-.589844-9.203125-1.152344l-8.671875-.800781c-5.324219-.335938-10.671875-.039063-15.925781.878906-4.992188 1.089844-9.761719 3.011719-14.117188 5.679688-4.738281 3.046874-9.105468 6.636718-13.007812 10.695312l-.496094.492188c-1.09375 1.089843-2.765625 1.351562-4.136719.648437-1.375-.703125-2.140625-2.210937-1.898437-3.734375zm0 0"/><path d="m369.84375 95.21875c-3.90625-4.058594-8.269531-7.648438-13.007812-10.695312-4.355469-2.667969-9.128907-4.589844-14.117188-5.679688-5.257812-.917969-10.601562-1.214844-15.925781-.878906l-8.675781.800781c-3.039063.5625-6.113282.945313-9.199219 1.152344l-.519531.027343c-1.910157.097657-3.65625-1.058593-4.3125-2.851562s-.066407-3.804688 1.453124-4.960938c2.792969-2.039062 5.703126-3.902343 8.722657-5.582031 3.222656-1.453125 6.539062-2.679687 9.929687-3.675781 7.234375-1.902344 14.804688-2.140625 22.144532-.691406 7.546874 1.722656 14.457031 5.542968 19.925781 11.027344 5.347656 5.230468 8.890625 12.03125 10.109375 19.414062.242187 1.519531-.519532 3.023438-1.886719 3.726562-1.367187.707032-3.035156.453126-4.132813-.625zm0 0"/></g></svg>