<svg height="510pt" viewBox="0 -22 510.6468 510" width="510pt" xmlns="http://www.w3.org/2000/svg"><path d="m465.964844 131.15625v.085938l-23.210938-20.308594-71.167968-62.039063 50.089843-34.472656c1.023438-.683594 2.046875-1.367187 3.15625-1.964844 4.53125-2.609375 9.714844-3.851562 14.933594-3.582031 43.523437 3.414062 27.394531 114.175781 26.199219 122.28125zm0 0" fill="#7facfa"/><path d="m442.753906 110.933594-71.167968-62.039063 50.089843-34.472656c1.023438-.683594 2.046875-1.367187 3.15625-1.964844 22.1875 14.507813 20.652344 68.4375 17.921875 98.476563zm0 0" fill="#a4c2f7"/><path d="m501.71875 244.734375c0 83.714844-60.160156 154.453125-133.203125 188.929687-39.140625 18.144532-82.097656 26.515626-125.1875 24.40625-45.609375-1.890624-90.085937-14.804687-129.621094-37.632812-49.066406-28.417969-89.171875-73.898438-101.375-130.390625-1.433593-6.820313-2.488281-13.714844-3.15625-20.648437-3.988281-49.195313 11.003907-98.046876 41.898438-136.535157-2.644531-20.136719-10.921875-96.683593 16.128906-114.347656 3.183594-2.09375 6.859375-3.328125 10.664063-3.582031 6.488281-.257813 12.867187 1.695312 18.09375 5.546875l39.25 26.964843 10.582031 7.339844c19.234375-10.109375 39.5625-17.980468 60.585937-23.46875 14.703125-3.753906 29.738282-6.066406 44.886719-6.910156 34.335937-1.75 68.660156 3.683594 100.777344 15.957031 78.765625 30.378907 141.824219 103.253907 148.992187 188.84375.429688 5.289063.683594 10.410157.683594 15.527344zm0 0" fill="#cad9fc"/><path d="m476.117188 244.734375c0 83.714844-60.15625 154.453125-133.203126 188.929687-31.289062 14.542969-65.117187 22.832032-99.585937 24.40625-45.609375-1.890624-90.085937-14.804687-129.621094-37.632812-49.066406-28.417969-89.171875-73.898438-101.375-130.390625-1.433593-6.820313-2.488281-13.714844-3.15625-20.648437-3.988281-49.195313 11.003907-98.046876 41.898438-136.535157-2.644531-20.136719-10.921875-96.683593 16.128906-114.347656 1.109375.597656 2.132813 1.28125 3.15625 1.964844l49.835937 34.304687c4.949219-2.5625 9.984376-5.035156 15.015626-7.339844 14.699218-6.671874 29.945312-12.066406 45.570312-16.128906 23.011719-5.839844 46.777344-8.167968 70.484375-6.910156 25.734375 1.390625 51.097656 6.773438 75.179687 15.957031 78.761719 30.378907 141.824219 103.253907 148.992188 188.84375.425781 5.289063.679688 10.410157.679688 15.527344zm0 0" fill="#e8edfc"/><path d="m358.957031 321.960938c-19.09375 21.582031-47.957031 31.804687-76.375 27.050781-11.929687-1.496094-23.429687-5.417969-33.789062-11.519531-17.152344-10.386719-29.140625-27.515626-33.027344-47.1875-6.398437-33.195313 12.800781-68.609376 45.824219-75.519532 3.371094-.714844 6.796875-1.113281 10.242187-1.195312l68.09375 5.375c38.230469 17.835937 43.777344 72.023437 19.03125 102.996094zm0 0" fill="#e8edfc"/><path d="m333.355469 321.960938c-12.820313 15.207031-31 24.894531-50.773438 27.050781-11.929687-1.496094-23.429687-5.417969-33.789062-11.519531-17.152344-10.386719-29.140625-27.515626-33.027344-47.1875-6.398437-33.195313 12.800781-68.609376 45.824219-75.519532l52.738281 4.179688c38.226563 17.835937 43.773437 72.023437 19.027344 102.996094zm0 0" fill="#fff"/><path d="m203.5625 183.929688c0-21.320313-9.550781-38.605469-21.332031-38.605469s-21.332031 17.285156-21.332031 38.605469c0 21.324218 9.550781 38.609374 21.332031 38.609374s21.332031-17.285156 21.332031-38.609374zm0 0" fill="#a4c2f7"/><path d="m194.019531 166.65625c0-11.78125-5.277343-21.332031-11.789062-21.332031-6.507813 0-11.789063 9.550781-11.789063 21.332031s5.28125 21.332031 11.789063 21.332031c6.511719 0 11.789062-9.550781 11.789062-21.332031zm0 0" fill="#fff"/><path d="m418.328125 183.929688c0-21.320313-9.871094-38.605469-22.050781-38.605469-12.175782 0-22.046875 17.285156-22.046875 38.605469 0 21.324218 9.871093 38.609374 22.046875 38.609374 12.179687 0 22.050781-17.285156 22.050781-38.609374zm0 0" fill="#a4c2f7"/><path d="m408.460938 166.65625c0-11.78125-5.453126-21.332031-12.183594-21.332031-6.726563 0-12.179688 9.550781-12.179688 21.332031s5.453125 21.332031 12.179688 21.332031c6.730468 0 12.183594-9.550781 12.183594-21.332031zm0 0" fill="#fff"/><path d="m306.542969 196.523438h19.710937c6.796875.46875 12.359375 5.589843 13.386719 12.324218 3.695313 16.546875-15.71875 30.117188-29.800781 30.339844h-7.746094c-14.082031-.222656-33.496094-13.792969-29.800781-30.339844 1.027343-6.734375 6.589843-11.855468 13.386719-12.324218zm0 0" fill="#cad9fc"/><path d="m306.425781 196.523438h15.769531c4.203126-.453126 8.316407 1.441406 10.707032 4.929687 2.957031 6.617187-12.570313 12.046875-23.839844 12.136719h-6.195312c-11.269532-.085938-26.800782-5.519532-23.84375-12.136719 2.390624-3.488281 6.507812-5.382813 10.710937-4.929687zm0 0" fill="#e8edfc"/><path d="m139.308594 420.4375c-49.066406-28.417969-89.171875-73.898438-101.375-130.390625-1.433594-6.820313-2.488282-13.714844-3.160156-20.648437-3.988282-49.195313 11.003906-98.046876 41.898437-136.535157-2.644531-20.121093-10.902344-96.542969 16.066406-114.292969-4.496093-2.636718-9.664062-3.898437-14.871093-3.636718-3.804688.253906-7.480469 1.488281-10.664063 3.582031-27.050781 17.664063-18.773437 94.210937-16.128906 114.347656-30.894531 38.488281-45.886719 87.339844-41.898438 136.535157.667969 6.933593 1.722657 13.828124 3.15625 20.648437 12.203125 56.492187 52.308594 101.972656 101.375 130.390625 39.535157 22.828125 84.011719 35.742188 129.621094 37.632812 8.082031.351563 16.167969.246094 24.242187-.097656-45.140624-2.078125-89.125-14.949218-128.261718-37.535156zm0 0" fill="#fff"/><path d="m20.714844 288.289062c8.042968 34.640626 26.128906 66.132813 51.996094 90.53125 13.648437 13.214844 28.863281 24.714844 45.300781 34.246094l-8.5625 14.761719c-17.652344-10.230469-33.988281-22.582031-48.648438-36.78125-28.273437-26.742187-48.023437-61.242187-56.769531-99.167969zm0 0" fill="#fff"/><g fill="#428dff"><path d="m26.429688 330.261719c4.152343-2.003907 6.027343-6.898438 4.277343-11.164063-4.273437-9.9375-7.617187-20.25-9.992187-30.804687l-16.683594 3.585937c2.609375 11.660156 6.300781 23.054688 11.027344 34.027344.886718 2.125 2.605468 3.789062 4.753906 4.613281 2.148438.820313 4.539062.730469 6.617188-.257812zm0 0"/><path d="m109.449219 427.828125 8.5625-14.761719c-16.4375-9.527344-31.652344-21.027344-45.300781-34.246094-1.980469-1.886718-3.9375-3.800781-5.769532-5.828124-3.257812-3.261719-8.484375-3.4375-11.957031-.40625-1.722656 1.523437-2.746094 3.691406-2.824219 5.992187s.796875 4.53125 2.414063 6.167969c1.984375 2.195312 4.09375 4.261718 6.226562 6.300781 14.65625 14.195313 30.996094 26.550781 48.648438 36.78125zm0 0"/><path d="m46.429688 347.554688c-1.292969-1.757813-3.167969-3-5.289063-3.507813l-1.601563-.171875c-.566406-.019531-1.136718.035156-1.695312.164062-.539062.050782-1.066406.175782-1.566406.378907-.53125.210937-1.046875.460937-1.542969.746093-1.925781 1.214844-3.304687 3.136719-3.839844 5.351563-.234375 1.132813-.214843 2.300781.054688 3.425781.785156 3.449219 3.46875 6.144532 6.914062 6.941406 1.128907.15625 2.277344.089844 3.382813-.195312 1.089844-.253906 2.121094-.722656 3.027344-1.382812 1.773437-1.355469 2.988281-3.320313 3.414062-5.511719.386719-2.164063-.0625-4.394531-1.257812-6.238281zm0 0"/><path d="m12.363281 298.613281c-4.019531 0-7.492187-2.808593-8.332031-6.738281-1.53125-7.152344-2.652344-14.382812-3.351562-21.660156-4.230469-51.335938 11.375-102.34375 43.605468-142.523438 1.832032-2.472656 4.855469-3.769531 7.90625-3.390625 3.054688.378907 5.667969 2.375 6.839844 5.21875s.722656 6.101563-1.175781 8.519531c-29.597657 36.773438-43.976563 83.492188-40.183594 130.542969.628906 6.625 1.644531 13.207031 3.042969 19.710938.988281 4.609375-1.945313 9.144531-6.550782 10.132812-.59375.128907-1.195312.191407-1.800781.1875zm0 0"/><path d="m255.40625 466.882812c-51.234375.007813-101.570312-13.460937-145.953125-39.050781-2.699219-1.5-4.375-4.339843-4.386719-7.421875-.015625-3.085937 1.640625-5.9375 4.324219-7.460937 2.683594-1.523438 5.980469-1.476563 8.621094.117187 75.378906 43.929688 167.34375 48.710938 246.875 12.84375 77.945312-36.722656 128.300781-107.835937 128.300781-181.175781 0-4.5-.21875-9.355469-.660156-14.847656-6.53125-77.992188-64.234375-150.964844-143.558594-181.566407-44.792969-17.335937-93.855469-20.386718-140.453125-8.738281-20.394531 5.316407-40.109375 12.953125-58.761719 22.757813-2.707031 1.476562-6 1.378906-8.613281-.257813s-4.140625-4.554687-3.996094-7.632812c.144531-3.082031 1.9375-5.84375 4.695313-7.226563 19.808594-10.417968 40.75-18.523437 62.410156-24.167968 50.046875-12.527344 102.742188-9.265626 150.859375 9.34375 85.296875 32.898437 147.355469 111.699218 154.429687 196.089843.484376 5.992188.714844 11.292969.714844 16.25 0 79.917969-54.207031 157.085938-138.09375 196.601563-36.566406 16.996094-76.429687 25.71875-116.753906 25.542968zm0 0"/><path d="m51.058594 141.398438c-4.273438-.007813-7.882813-3.171876-8.445313-7.410157-3.460937-25.972656-9.21875-89.199219 11.960938-115.359375 5.457031-7.113281 13.695312-11.554687 22.636719-12.207031 8.421874-.40625 16.730468 2.0625 23.558593 7.007813l49.863281 34.316406c3.882813 2.671875 4.867188 7.988281 2.195313 11.871094-2.671875 3.886718-7.988281 4.871093-11.871094 2.199218l-49.835937-34.304687c-3.613282-2.742188-8.046875-4.175781-12.578125-4.074219-4.265625.3125-8.179688 2.480469-10.703125 5.933594-13.886719 17.148437-13.398438 64.125-8.308594 102.363281.617188 4.671875-2.664062 8.960937-7.335938 9.585937-.375.050782-.753906.074219-1.136718.078126zm0 0"/><path d="m465.964844 139.730469c-2.257813.011719-4.429688-.878907-6.03125-2.472657-1.601563-1.59375-2.503906-3.757812-2.503906-6.019531v-.085937c.003906-.414063.03125-.828125.09375-1.238282 4.464843-30.394531 7.882812-87.019531-7.625-106.46875-2.527344-3.515624-6.480469-5.738281-10.800782-6.066406-4.527344-.109375-8.957031 1.320313-12.566406 4.058594l-50.109375 34.492188c-3.882813 2.671874-9.199219 1.6875-11.871094-2.195313-2.667969-3.882813-1.6875-9.199219 2.195313-11.871094l50.085937-34.472656c6.847657-4.949219 15.167969-7.4257812 23.609375-7.023437 9.035156.671874 17.34375 5.203124 22.796875 12.441406 22.476563 28.171875 14.277344 98.375 11.179688 119.457031-.546875 4.253906-4.164063 7.445313-8.453125 7.464844zm0 0"/><path d="m182.230469 231.074219c-17.023438 0-29.867188-20.269531-29.867188-47.144531s12.84375-47.140626 29.867188-47.140626c17.027343 0 29.867187 20.265626 29.867187 47.140626s-12.839844 47.144531-29.867187 47.144531zm0-77.21875c-5.09375 0-12.800781 11.992187-12.800781 30.074219 0 18.085937 7.707031 30.074218 12.800781 30.074218 5.097656 0 12.800781-11.988281 12.800781-30.074218 0-18.082032-7.703125-30.074219-12.800781-30.074219zm0 0"/><path d="m396.277344 231.074219c-17.144532 0-30.578125-20.710938-30.578125-47.144531 0-26.433594 13.433593-47.140626 30.578125-47.140626 17.144531 0 30.578125 20.710938 30.578125 47.140626 0 26.433593-13.433594 47.144531-30.578125 47.144531zm0-77.21875c-5.507813 0-13.511719 11.71875-13.511719 30.074219 0 18.359374 8.003906 30.074218 13.511719 30.074218 5.507812 0 13.511718-11.714844 13.511718-30.074218 0-18.355469-7.996093-30.074219-13.511718-30.074219zm0 0"/><path d="m284.460938 290.390625c-16.847657 0-30.042969-10.402344-30.042969-23.683594 0-4.714843 3.820312-8.535156 8.535156-8.535156 4.710937 0 8.53125 3.820313 8.53125 8.535156 0 2.632813 5.175781 6.617188 12.976563 6.617188 7.800781 0 12.96875-3.984375 12.96875-6.617188 0-4.714843 3.820312-8.535156 8.535156-8.535156 4.710937 0 8.53125 3.820313 8.53125 8.535156 0 13.28125-13.195313 23.683594-30.035156 23.683594zm0 0"/><path d="m305.964844 247.722656h-3.390625c-.152344 0-.78125-.007812-.929688-.015625-12.335937-.707031-23.796875-6.601562-31.546875-16.226562-5.683594-6.792969-7.945312-15.816407-6.136718-24.488281 1.871093-10.652344 10.910156-18.5625 21.714843-19.003907h40.574219c10.808594.441407 19.847656 8.347657 21.71875 19 1.808594 8.675781-.453125 17.699219-6.136719 24.492188-7.832031 9.695312-19.421875 15.597656-31.867187 16.234375zm-20.289063-42.667968c-2.488281 0-4.4375 2.84375-5.058593 5.652343-.683594 3.664063.378906 7.441407 2.878906 10.207031 4.671875 5.644532 11.425781 9.15625 18.726562 9.734376l7.132813.007812c7.425781-.5 14.316406-4.023438 19.074219-9.742188 2.5-2.765624 3.566406-6.542968 2.878906-10.207031-.625-2.808593-2.566406-5.652343-5.058594-5.652343zm0 0"/><path d="m326.882812 290.390625c-16.515624 0-29.453124-10.402344-29.453124-23.683594 0-4.714843 3.820312-8.535156 8.535156-8.535156 4.710937 0 8.53125 3.820313 8.53125 8.535156 0 2.699219 4.828125 6.617188 12.386718 6.617188 7.558594 0 12.378907-3.917969 12.378907-6.617188 0-4.714843 3.820312-8.535156 8.53125-8.535156 4.714843 0 8.535156 3.820313 8.535156 8.535156 0 13.28125-12.933594 23.683594-29.445313 23.683594zm0 0"/><path d="m305.964844 273.324219c-4.714844 0-8.535156-3.820313-8.535156-8.535157v-25.601562c0-4.710938 3.820312-8.53125 8.535156-8.53125 4.710937 0 8.53125 3.820312 8.53125 8.53125v25.601562c0 4.714844-3.820313 8.535157-8.53125 8.535157zm0 0"/><path d="m134.421875 134.304688c1.222656-7.382813 4.761719-14.183594 10.109375-19.417969 5.46875-5.480469 12.378906-9.300781 19.925781-11.023438 7.339844-1.449219 14.910157-1.214843 22.144531.691407 3.390626.996093 6.707032 2.222656 9.929688 3.675781 3.019531 1.679687 5.933594 3.542969 8.722656 5.582031 1.515625 1.152344 2.109375 3.15625 1.457032 4.949219-.648438 1.789062-2.386719 2.953125-4.289063 2.863281l-.546875-.027344c-3.085938-.207031-6.160156-.589844-9.199219-1.152344l-8.675781-.800781c-5.324219-.335937-10.667969-.039062-15.925781.878907-4.988281 1.089843-9.761719 3.011718-14.117188 5.679687-4.738281 3.046875-9.101562 6.636719-13.007812 10.695313l-.492188.492187c-1.097656 1.089844-2.765625 1.351563-4.140625.648437-1.371094-.703124-2.136718-2.210937-1.894531-3.734374zm0 0"/><path d="m431.210938 132.71875c-4.382813-3.539062-9.164063-6.554688-14.242188-8.984375-4.65625-2.105469-9.628906-3.414063-14.71875-3.871094-5.328125-.257812-10.667969.117188-15.910156 1.113281l-8.507813 1.878907c-2.945312.9375-5.945312 1.703125-8.984375 2.292969l-.511718.089843c-1.878907.335938-3.757813-.59375-4.632813-2.289062-.871094-1.699219-.539063-3.765625.824219-5.101563 2.515625-2.371094 5.171875-4.585937 7.957031-6.628906 3.015625-1.84375 6.15625-3.476562 9.394531-4.886719 6.9375-2.792969 14.421875-3.972656 21.882813-3.453125 7.703125.769532 15.035156 3.699219 21.144531 8.453125 5.960938 4.523438 10.324219 10.828125 12.460938 18 .429687 1.480469-.136719 3.066407-1.40625 3.9375-1.269532.871094-2.957032.828125-4.179688-.105469zm0 0"/><path d="m295.5 358.246094c-17.933594.167968-35.589844-4.464844-51.132812-13.414063-19.160157-11.710937-32.554688-30.894531-36.949219-52.917969-4.21875-21.96875 1.304687-44.6875 15.136719-62.273437 11.859374-15.101563 29.847656-24.117187 49.046874-24.585937 4.691407-.078126 8.585938 3.609374 8.761719 8.300781.0625 2.265625-.777343 4.460937-2.332031 6.105469-1.558594 1.644531-3.707031 2.601562-5.96875 2.660156-14.179688.363281-27.453125 7.039062-36.199219 18.203125-10.714843 13.664062-14.980469 31.308593-11.683593 48.359375 3.441406 17.277344 13.949218 32.328125 28.980468 41.515625 28.1875 16.941406 75.816406 15.515625 99.125-13.609375 11.773438-15.523438 15.96875-35.507813 11.433594-54.457032-3.09375-15.445312-13.230469-28.554687-27.398438-35.433593-2.820312-1.253907-4.746093-3.929688-5.035156-7-.285156-3.074219 1.105469-6.0625 3.644532-7.816407 2.539062-1.757812 5.824218-2.003906 8.597656-.648437 18.953125 9.046875 32.574218 26.445313 36.808594 47.015625 5.675781 24.046875.273437 49.367188-14.722657 69.003906-17.453125 20.4375-43.246093 31.839844-70.113281 30.992188zm0 0"/><path d="m177.957031 281.855469c-1.484375.003906-2.941406-.386719-4.226562-1.125-31.0625-18.847657-69.199219-21.929688-102.882813-8.308594-4.214844 2.109375-9.339844.398437-11.449218-3.816406-2.109376-4.214844-.398438-9.339844 3.816406-11.449219 38.761718-16.375 83.035156-13.113281 118.984375 8.757812 3.359375 1.921876 5.007812 5.863282 4.011719 9.601563-.996094 3.742187-4.382813 6.34375-8.253907 6.339844zm0 0"/><path d="m75.554688 341.589844c-3.070313-.003906-5.90625-1.660156-7.417969-4.332032-1.511719-2.675781-1.46875-5.957031.109375-8.59375 28.097656-46.816406 107.300781-38.582031 110.660156-38.230468 4.683594.519531 8.0625 4.738281 7.542969 9.421875-.515625 4.6875-4.734375 8.0625-9.421875 7.546875-.703125-.085938-71.679688-7.390625-94.144532 30.035156-1.539062 2.578125-4.324218 4.15625-7.328124 4.152344zm0 0"/><path d="m157.207031 395.3125c-3.957031-.003906-7.390625-2.722656-8.296875-6.574219-7.671875-29.117187 6.75-59.53125 34.152344-72.019531 4.308594-1.90625 9.347656.042969 11.253906 4.351562 1.90625 4.308594-.042968 9.351563-4.351562 11.257813-19.777344 9.277344-30.074219 31.386719-24.445313 52.496094.519531 2.203125.144531 4.523437-1.046875 6.449219-1.191406 1.925781-3.097656 3.300781-5.300781 3.820312-.644531.144531-1.304687.21875-1.964844.21875zm0 0"/><path d="m407.15625 281.855469c-3.761719.003906-7.082031-2.457031-8.175781-6.054688-1.089844-3.601562.304687-7.492187 3.433593-9.578125 31.652344-21.859375 73.5625-21.710937 105.058594.367188 3.617188 2.917968 4.230469 8.195312 1.382813 11.871094-2.847657 3.671874-8.113281 4.386718-11.839844 1.609374-25.574219-17.964843-59.707031-17.828124-85.132813.351563-1.402343.933594-3.042968 1.433594-4.726562 1.433594zm0 0"/><path d="m494.921875 341.589844c-3.199219 0-6.132813-1.785156-7.597656-4.632813-18.902344-36.757812-78.46875-29.644531-79.09375-29.566406-3.023438.390625-6.027344-.863281-7.878907-3.289063-1.847656-2.425781-2.265624-5.652343-1.089843-8.464843 1.175781-2.816407 3.761719-4.789063 6.785156-5.179688 2.941406-.375 72.050781-8.757812 96.460937 38.699219 1.355469 2.644531 1.242188 5.804688-.308593 8.34375-1.546875 2.539062-4.304688 4.085938-7.277344 4.089844zm0 0"/><path d="m433.964844 401.324219c-4.714844 0-8.535156-3.820313-8.535156-8.535157 0-45.398437-29.121094-60.484374-29.414063-60.632812-2.726563-1.363281-4.519531-4.078125-4.703125-7.121094-.183594-3.046875 1.273438-5.953125 3.816406-7.632812 2.542969-1.679688 5.792969-1.875 8.519532-.511719 1.582031.789063 38.847656 20.066406 38.847656 75.898437 0 4.714844-3.820313 8.535157-8.53125 8.535157zm0 0"/></g></svg>