<svg height="510pt" viewBox="0 -22 510.64585 510" width="510pt" xmlns="http://www.w3.org/2000/svg"><path d="m465.964844 131.15625v.085938l-23.210938-20.308594-71.167968-62.039063 50.089843-34.472656c1.023438-.683594 2.046875-1.367187 3.15625-1.964844 4.527344-2.609375 9.714844-3.851562 14.933594-3.582031 43.519531 3.414062 27.390625 114.175781 26.199219 122.28125zm0 0" fill="#7facfa"/><path d="m442.753906 110.933594-71.167968-62.039063 50.089843-34.472656c1.023438-.683594 2.046875-1.367187 3.15625-1.964844 22.1875 14.507813 20.652344 68.4375 17.921875 98.476563zm0 0" fill="#a4c2f7"/><path d="m501.71875 244.734375c0 83.714844-60.160156 154.453125-133.207031 188.929687-39.136719 18.140626-82.09375 26.515626-125.183594 24.40625-45.613281-1.894531-90.085937-14.804687-129.621094-37.632812-49.066406-28.417969-89.171875-73.898438-101.375-130.390625-1.433593-6.820313-2.488281-13.714844-3.15625-20.648437-3.988281-49.195313 11-98.046876 41.898438-136.535157-2.648438-20.136719-10.925781-96.683593 16.125-114.347656 3.1875-2.09375 6.863281-3.332031 10.667969-3.582031 6.484374-.261719 12.867187 1.695312 18.089843 5.546875l39.253907 26.964843 10.582031 7.339844c19.234375-10.109375 39.5625-17.980468 60.585937-23.46875 14.703125-3.753906 29.734375-6.070312 44.886719-6.910156 34.335937-1.75 68.660156 3.683594 100.777344 15.957031 78.761719 30.378907 141.824219 103.253907 148.992187 188.839844.425782 5.292969.683594 10.414063.683594 15.53125zm0 0" fill="#cad9fc"/><path d="m476.117188 244.734375c0 83.714844-60.160157 154.453125-133.203126 188.929687-31.289062 14.539063-65.117187 22.832032-99.585937 24.40625-45.613281-1.894531-90.085937-14.804687-129.621094-37.632812-49.066406-28.417969-89.171875-73.898438-101.375-130.390625-1.433593-6.820313-2.488281-13.714844-3.15625-20.648437-3.988281-49.195313 11-98.046876 41.898438-136.535157-2.648438-20.136719-10.925781-96.683593 16.125-114.347656 1.109375.597656 2.136719 1.28125 3.160156 1.964844l49.832031 34.304687c4.949219-2.5625 9.984375-5.035156 15.019532-7.339844 14.699218-6.671874 29.945312-12.066406 45.570312-16.128906 23.011719-5.839844 46.773438-8.167968 70.484375-6.910156 25.734375 1.386719 51.097656 6.773438 75.179687 15.957031 78.761719 30.378907 141.820313 103.253907 148.988282 188.839844.429687 5.292969.683594 10.414063.683594 15.53125zm0 0" fill="#e8edfc"/><path d="m358.957031 321.960938c-19.09375 21.578124-47.957031 31.800781-76.375 27.050781-11.929687-1.5-23.429687-5.417969-33.792969-11.519531-17.148437-10.390626-29.136718-27.515626-33.023437-47.1875-6.398437-33.195313 12.800781-68.609376 45.824219-75.519532 3.371094-.714844 6.796875-1.113281 10.242187-1.195312l68.09375 5.375c38.230469 17.835937 43.777344 72.019531 19.03125 102.996094zm0 0" fill="#e8edfc"/><path d="m333.355469 321.960938c-12.820313 15.207031-31 24.894531-50.773438 27.050781-11.929687-1.5-23.429687-5.417969-33.792969-11.519531-17.148437-10.390626-29.136718-27.515626-33.023437-47.1875-6.398437-33.195313 12.800781-68.609376 45.824219-75.519532l52.734375 4.179688c38.230469 17.835937 43.777343 72.019531 19.03125 102.996094zm0 0" fill="#fff"/><path d="m229.929688 169.726562c-6.910157 13.226563-24.574219 26.453126-39.335938 35.328126-5.203125-3.097657-10.246094-6.457032-15.105469-10.070313-9.820312-6.578125-18.117187-15.191406-24.320312-25.257813-9.8125-17.664062-9.8125-35.328124 0-44.203124 6.113281-4.984376 14.175781-6.886719 21.871093-5.15625 7.695313 1.734374 14.167969 6.90625 17.554688 14.03125 1.390625-2.589844 3.175781-4.953126 5.289062-6.996094 9.089844-9.480469 23.972657-10.300782 34.046876-1.878906 9.816406 8.875 9.816406 26.539062 0 44.203124zm0 0" fill="#fff" fill-rule="evenodd"/><path d="m387.234375 134.363281c3.390625-7.097656 9.851563-12.25 17.527344-13.972656 7.679687-1.726563 15.722656.167969 21.824219 5.132813 9.835937 8.835937 9.835937 26.511718 0 44.183593-6.886719 13.253907-24.597657 26.511719-39.351563 35.347657-14.757813-8.835938-32.464844-22.09375-39.351563-35.347657-9.839843-17.671875-9.839843-35.347656 0-44.183593 6.101563-4.964844 14.144532-6.859376 21.820313-5.132813 7.675781 1.722656 14.136719 6.875 17.53125 13.972656zm0 0" fill="#fff" fill-rule="evenodd"/><path d="m331.5625 281.429688v8.960937c0 14.136719-11.460938 25.597656-25.597656 25.597656-14.140625 0-25.601563-11.460937-25.601563-25.597656v-8.875l25.601563-8.195313zm0 0" fill="#a4c2f7"/><path d="m306.539062 196.523438h19.714844c6.796875.464843 12.359375 5.585937 13.386719 12.324218 3.695313 16.546875-15.71875 30.117188-29.800781 30.335938h-7.746094c-14.085938-.21875-33.496094-13.789063-29.800781-30.335938 1.027343-6.734375 6.585937-11.855468 13.382812-12.324218zm0 0" fill="#cad9fc"/><path d="m306.425781 196.523438h15.765625c4.207032-.453126 8.320313 1.441406 10.710938 4.929687 2.957031 6.617187-12.574219 12.046875-23.839844 12.136719h-6.195312c-11.269532-.085938-26.800782-5.519532-23.84375-12.136719 2.390624-3.488281 6.503906-5.382813 10.710937-4.929687zm0 0" fill="#e8edfc"/><path d="m229.929688 169.726562c-6.910157 13.226563-24.574219 26.453126-39.335938 35.328126-5.203125-3.097657-10.246094-6.457032-15.105469-10.070313 29.953125-23.804687 29.097657-48.554687 20.394531-67.582031 9.089844-9.480469 23.972657-10.300782 34.046876-1.878906 9.816406 8.875 9.816406 26.539062 0 44.203124zm0 0" fill="#e8edfc" fill-rule="evenodd"/><path d="m426.601562 169.726562c-6.910156 13.226563-24.574218 26.453126-39.335937 35.328126-5.203125-3.097657-10.246094-6.457032-15.105469-10.070313 29.953125-23.804687 29.097656-48.554687 20.394532-67.582031 9.089843-9.480469 23.972656-10.300782 34.046874-1.878906 9.816407 8.875 9.816407 26.539062 0 44.203124zm0 0" fill="#e8edfc" fill-rule="evenodd"/><path d="m160.8125 47.445312c14.699219-6.671874 29.945312-12.066406 45.566406-16.128906 16.730469-4.253906 33.882813-6.625 51.136719-7.070312-2.082031.054687-4.167969.050781-6.25.160156-23.710937-1.257812-47.472656 1.070312-70.484375 6.910156-10.03125 2.613282-19.90625 5.796875-29.574219 9.53125zm0 0" fill="#fff"/><path d="m260.363281 24.171875c5.03125-.085937 10.066407-.015625 15.097657.210937-5.03125-.234374-10.0625-.285156-15.097657-.210937zm0 0" fill="#fff"/><path d="m139.308594 420.4375c-49.066406-28.417969-89.175782-73.898438-101.378906-130.390625-1.429688-6.820313-2.484376-13.714844-3.15625-20.648437-3.988282-49.195313 11.003906-98.046876 41.898437-136.535157-2.644531-20.121093-10.902344-96.546875 16.066406-114.292969-4.496093-2.636718-9.664062-3.898437-14.871093-3.636718-3.804688.25-7.480469 1.488281-10.667969 3.582031-27.050781 17.664063-18.773438 94.210937-16.125 114.347656-30.898438 38.488281-45.886719 87.339844-41.898438 136.535157.667969 6.933593 1.722657 13.828124 3.15625 20.648437 12.203125 56.492187 52.308594 101.972656 101.375 130.390625 39.535157 22.828125 84.007813 35.738281 129.621094 37.632812 8.082031.351563 16.167969.246094 24.242187-.101562-45.140624-2.074219-89.125-14.945312-128.261718-37.53125zm0 0" fill="#fff"/><path d="m20.714844 288.289062c8.039062 34.636719 26.128906 66.132813 51.996094 90.53125 13.648437 13.214844 28.863281 24.714844 45.300781 34.242188l-8.5625 14.765625c-17.652344-10.230469-33.992188-22.582031-48.648438-36.78125-28.273437-26.746094-48.023437-61.242187-56.769531-99.167969zm0 0" fill="#fff"/><g fill="#428dff"><path d="m26.429688 330.261719c4.152343-2.003907 6.027343-6.898438 4.277343-11.164063-4.273437-9.941406-7.621093-20.253906-9.992187-30.808594l-16.683594 3.589844c2.609375 11.660156 6.300781 23.050782 11.023438 34.027344.890624 2.121094 2.605468 3.789062 4.753906 4.613281 2.148437.820313 4.542968.730469 6.621094-.257812zm0 0"/><path d="m109.449219 427.828125 8.5625-14.761719c-16.4375-9.53125-31.652344-21.03125-45.300781-34.246094-1.984376-1.886718-3.941407-3.800781-5.769532-5.832031-3.257812-3.257812-8.484375-3.433593-11.957031-.402343-1.726563 1.523437-2.746094 3.691406-2.824219 5.992187s.792969 4.53125 2.410156 6.167969c1.988282 2.195312 4.097657 4.261718 6.230469 6.300781 14.65625 14.195313 30.996094 26.546875 48.648438 36.78125zm0 0"/><path d="m46.429688 347.550781c-1.296876-1.753906-3.167969-2.996093-5.292969-3.507812l-1.597657-.167969c-.570312-.019531-1.140624.035156-1.695312.164062-.539062.046876-1.066406.175782-1.570312.378907-.527344.210937-1.042969.460937-1.539063.746093-1.925781 1.214844-3.304687 3.136719-3.839844 5.351563-.234375 1.132813-.214843 2.300781.054688 3.425781.78125 3.449219 3.46875 6.144532 6.914062 6.941406 1.128907.15625 2.277344.089844 3.378907-.199218 1.09375-.25 2.125-.722656 3.03125-1.378906 1.773437-1.359376 2.988281-3.320313 3.414062-5.515626.386719-2.160156-.066406-4.390624-1.257812-6.238281zm0 0"/><path d="m12.363281 298.613281c-4.019531-.003906-7.488281-2.8125-8.332031-6.742187-1.535156-7.148438-2.65625-14.378906-3.351562-21.65625-4.226563-51.335938 11.375-102.34375 43.605468-142.523438 1.832032-2.472656 4.851563-3.769531 7.90625-3.390625 3.054688.378907 5.667969 2.375 6.839844 5.21875s.722656 6.101563-1.179688 8.519531c-29.589843 36.78125-43.972656 83.496094-40.191406 130.550782.640625 6.621094 1.660156 13.195312 3.050782 19.699218.988281 4.605469-1.941407 9.144532-6.550782 10.132813-.589844.128906-1.191406.195313-1.796875.191406zm0 0"/><path d="m255.40625 466.878906c-51.238281.007813-101.574219-13.457031-145.960938-39.050781-2.636718-1.527344-4.257812-4.347656-4.25-7.398437.007813-3.046876 1.640626-5.863282 4.285157-7.382813 2.644531-1.515625 5.894531-1.507813 8.53125.019531 75.382812 43.933594 167.347656 48.714844 246.878906 12.84375 77.941406-36.722656 128.292969-107.839844 128.292969-181.175781 0-4.5-.214844-9.359375-.65625-14.847656-6.535156-77.992188-64.226563-150.964844-143.550782-181.566407-44.800781-17.335937-93.867187-20.390624-140.472656-8.738281-20.386718 5.3125-40.101562 12.949219-58.75 22.757813-4.160156 2.089844-9.226562.457031-11.386718-3.667969-2.160157-4.125-.617188-9.21875 3.472656-11.449219 19.804687-10.421875 40.746094-18.527344 62.40625-24.167968 50.050781-12.527344 102.746094-9.261719 150.871094 9.34375 85.289062 32.898437 147.347656 111.699218 154.421874 196.089843.484376 5.992188.71875 11.292969.71875 16.25 0 79.917969-54.210937 157.082031-138.101562 196.601563-36.5625 16.996094-76.429688 25.71875-116.75 25.539062zm0 0"/><path d="m51.0625 141.398438c-4.273438-.003907-7.886719-3.171876-8.445312-7.410157-3.453126-25.984375-9.203126-89.226562 11.953124-115.367187 5.460938-7.109375 13.695313-11.546875 22.636719-12.203125 8.421875-.441407 16.742188 2.035156 23.554688 7.007812l49.878906 34.316407c3.835937 2.691406 4.789063 7.976562 2.132813 11.835937-2.660157 3.863281-7.933594 4.859375-11.816407 2.234375l-49.84375-34.304688c-3.609375-2.746093-8.042969-4.183593-12.574219-4.074218-4.261718.3125-8.171874 2.476562-10.699218 5.921875-13.882813 17.152343-13.394532 64.132812-8.308594 102.382812.300781 2.246094-.304688 4.515625-1.679688 6.3125s-3.410156 2.976563-5.65625 3.269531c-.375.050782-.753906.078126-1.132812.078126zm0 0"/><path d="m465.964844 139.730469c-2.261719.011719-4.429688-.878907-6.03125-2.472657-1.601563-1.59375-2.503906-3.761718-2.503906-6.019531v-.085937c0-.414063.03125-.828125.089843-1.242188 4.46875-30.390625 7.886719-87.015625-7.621093-106.464844-2.53125-3.515624-6.484376-5.738281-10.800782-6.066406-4.527344-.109375-8.960937 1.320313-12.566406 4.058594l-50.101562 34.484375c-3.875 2.535156-9.070313 1.519531-11.699219-2.296875-2.632813-3.816406-1.734375-9.03125 2.015625-11.753906l50.085937-34.472656c6.84375-4.953126 15.167969-7.4335942 23.605469-7.035157 9.039062.675781 17.34375 5.207031 22.800781 12.441407 22.476563 28.175781 14.273438 98.375 11.179688 119.460937-.550781 4.253906-4.164063 7.445313-8.453125 7.464844zm0 0"/><path d="m284.460938 290.390625c-16.84375 0-30.042969-10.402344-30.042969-23.683594 0-4.714843 3.820312-8.535156 8.535156-8.535156 4.710937 0 8.53125 3.820313 8.53125 8.535156 0 2.632813 5.175781 6.613281 12.976563 6.613281 7.800781 0 12.96875-3.980468 12.96875-6.613281 0-4.714843 3.820312-8.535156 8.535156-8.535156 4.710937 0 8.53125 3.820313 8.53125 8.535156 0 13.28125-13.199219 23.683594-30.035156 23.683594zm0 0"/><path d="m305.964844 247.722656h-3.394532c-.140624 0-.765624-.007812-.90625-.019531-12.339843-.695313-23.804687-6.585937-31.558593-16.210937-5.691407-6.796876-7.953125-15.824219-6.144531-24.5 1.867187-10.65625 10.910156-18.570313 21.71875-19.003907h40.566406c10.808594.4375 19.851562 8.347657 21.71875 19 1.808594 8.675781-.453125 17.707031-6.144532 24.5-7.828124 9.6875-19.40625 15.589844-31.847656 16.226563zm-20.285156-42.667968c-2.492188 0-4.4375 2.84375-5.066407 5.652343-.679687 3.664063.386719 7.441407 2.890625 10.207031 4.664063 5.644532 11.417969 9.15625 18.71875 9.734376l7.132813.007812c7.421875-.5 14.3125-4.019531 19.066406-9.742188 2.503906-2.765624 3.574219-6.542968 2.890625-10.207031-.632812-2.808593-2.574219-5.652343-5.066406-5.652343zm0 0"/><path d="m326.878906 290.390625c-16.515625 0-29.449218-10.402344-29.449218-23.683594 0-4.714843 3.820312-8.535156 8.535156-8.535156 4.710937 0 8.53125 3.820313 8.53125 8.535156 0 2.699219 4.824218 6.613281 12.382812 6.613281s12.382813-3.914062 12.382813-6.613281c0-4.714843 3.820312-8.535156 8.535156-8.535156 4.710937 0 8.53125 3.820313 8.53125 8.535156 0 13.28125-12.929687 23.683594-29.449219 23.683594zm0 0"/><path d="m305.964844 273.320312c-4.714844 0-8.535156-3.820312-8.535156-8.53125v-25.601562c0-4.710938 3.820312-8.53125 8.535156-8.53125 4.710937 0 8.53125 3.820312 8.53125 8.53125v25.601562c0 4.710938-3.820313 8.53125-8.53125 8.53125zm0 0"/><path d="m295.496094 358.246094c-17.933594.167968-35.582032-4.464844-51.125-13.414063-19.164063-11.707031-32.5625-30.894531-36.949219-52.917969-4.21875-21.96875 1.300781-44.691406 15.132813-62.273437 11.859374-15.101563 29.847656-24.117187 49.042968-24.585937 3.046875-.082032 5.910156 1.46875 7.507813 4.066406 1.59375 2.597656 1.683593 5.851562.230469 8.53125-1.453126 2.683594-4.222657 4.386718-7.273438 4.46875-14.175781.363281-27.453125 7.035156-36.199219 18.199218-10.722656 13.664063-14.988281 31.308594-11.691406 48.359376 3.445313 17.28125 13.957031 32.332031 28.992187 41.515624 28.175782 16.945313 75.816407 15.519532 99.117188-13.605468 11.78125-15.523438 15.984375-35.507813 11.453125-54.460938-3.097656-15.445312-13.238281-28.554687-27.410156-35.433594-2.761719-1.289062-4.625-3.953124-4.890625-6.988281-.265625-3.039062 1.109375-5.988281 3.609375-7.734375 2.496093-1.75 5.738281-2.03125 8.5-.742187 18.949219 9.050781 32.570312 26.449219 36.808593 47.019531 5.667969 24.046875.257813 49.371094-14.738281 69.003906-17.457031 20.4375-43.253906 31.839844-70.117187 30.992188zm0 0"/><path d="m177.953125 281.855469c-1.480469 0-2.9375-.386719-4.222656-1.125-31.058594-18.863281-69.203125-21.945313-102.882813-8.308594-4.214844 2.109375-9.34375.398437-11.449218-3.816406-2.109376-4.214844-.402344-9.339844 3.816406-11.449219 38.761718-16.375 83.035156-13.117188 118.980468 8.757812 3.363282 1.921876 5.007813 5.863282 4.011719 9.601563-.992187 3.742187-4.382812 6.34375-8.253906 6.339844zm0 0"/><path d="m75.554688 341.589844c-3.074219-.003906-5.90625-1.660156-7.417969-4.335938-1.511719-2.671875-1.472657-5.953125.109375-8.589844 28.101562-46.824218 107.316406-38.582031 110.660156-38.230468 4.683594.519531 8.0625 4.738281 7.542969 9.421875-.519531 4.6875-4.734375 8.0625-9.421875 7.546875-.722656-.085938-71.691406-7.382813-94.148438 30.035156-1.539062 2.578125-4.324218 4.152344-7.324218 4.152344zm0 0"/><path d="m157.207031 395.3125c-3.957031-.003906-7.390625-2.722656-8.300781-6.574219-7.671875-29.121093 6.753906-59.535156 34.15625-72.019531 4.296875-1.832031 9.265625.128906 11.152344 4.398438 1.886718 4.269531-.007813 9.265624-4.25 11.207031-19.78125 9.28125-30.074219 31.394531-24.441406 52.5 1.074218 4.589843-1.765626 9.183593-6.351563 10.269531-.644531.144531-1.304687.21875-1.964844.21875zm0 0"/><path d="m407.15625 281.855469c-3.761719.003906-7.082031-2.457031-8.175781-6.054688-1.089844-3.601562.304687-7.492187 3.433593-9.578125 31.648438-21.859375 73.558594-21.714844 105.058594.367188 3.617188 2.917968 4.230469 8.195312 1.382813 11.867187-2.851563 3.675781-8.113281 4.390625-11.839844 1.613281-25.578125-17.964843-59.710937-17.824218-85.136719.351563-1.398437.933594-3.042968 1.433594-4.722656 1.433594zm0 0"/><path d="m494.921875 341.589844c-3.203125 0-6.136719-1.789063-7.601563-4.632813-18.898437-36.761719-78.464843-29.644531-79.089843-29.566406-3.023438.386719-6.027344-.863281-7.878907-3.289063-1.851562-2.425781-2.265624-5.652343-1.089843-8.46875 1.171875-2.8125 3.761719-4.789062 6.785156-5.175781 2.925781-.375 72.050781-8.761719 96.457031 38.699219 1.359375 2.644531 1.242188 5.804688-.304687 8.34375-1.546875 2.535156-4.304688 4.085938-7.277344 4.089844zm0 0"/><path d="m433.964844 401.320312c-4.714844 0-8.535156-3.820312-8.535156-8.53125 0-45.398437-29.125-60.484374-29.417969-60.632812-2.726563-1.363281-4.519531-4.078125-4.699219-7.125-.183594-3.042969 1.269531-5.953125 3.816406-7.632812 2.542969-1.679688 5.792969-1.875 8.519532-.507813 1.582031.789063 38.847656 20.066406 38.847656 75.898437 0 4.710938-3.820313 8.53125-8.53125 8.53125zm0 0"/><path d="m190.5625 213.589844c-1.542969 0-3.058594-.417969-4.382812-1.210938-12.148438-7.273437-33.832032-21.972656-42.550782-38.738281-11.847656-21.285156-11.15625-42.753906 1.878906-54.460937 7.46875-6.488282 17.46875-9.253907 27.207032-7.523438 6.707031 1.113281 12.921875 4.210938 17.851562 8.890625 4.925782-4.675781 11.136719-7.773437 17.835938-8.890625 9.742187-1.730469 19.746094 1.035156 27.214844 7.523438 13.035156 11.710937 13.726562 33.175781 1.757812 54.675781-8.589844 16.542969-30.273438 31.242187-42.425781 38.523437-1.324219.789063-2.839844 1.207032-4.386719 1.210938zm-23.472656-85.335938c-3.722656-.066406-7.34375 1.222656-10.183594 3.625-6.667969 5.992188-5.941406 19.84375 1.757812 33.675782 8.175782 12.191406 19.101563 22.285156 31.898438 29.476562 12.726562-7.148438 23.605469-17.164062 31.773438-29.257812 7.816406-14.050782 8.542968-27.90625 1.878906-33.894532-3.613282-3.011718-8.378906-4.253906-13-3.390625-5.738282 1.066407-10.628906 4.785157-13.191406 10.023438-1.632813 2.535156-4.445313 4.066406-7.460938 4.066406-3.011719 0-5.824219-1.53125-7.457031-4.066406-2.5625-5.242188-7.460938-8.960938-13.199219-10.023438-.929688-.15625-1.875-.234375-2.816406-.234375zm0 0"/><path d="m387.230469 213.589844c-1.542969 0-3.058594-.417969-4.382813-1.210938-12.152344-7.28125-33.835937-21.980468-42.542968-38.738281-11.851563-21.285156-11.15625-42.753906 1.878906-54.460937 7.46875-6.488282 17.472656-9.253907 27.214844-7.523438 6.699218 1.117188 12.910156 4.214844 17.835937 8.890625 4.929687-4.679687 11.144531-7.777344 17.851563-8.890625 9.738281-1.730469 19.738281 1.035156 27.207031 7.523438 13.035156 11.710937 13.726562 33.175781 1.757812 54.675781-8.597656 16.550781-30.285156 31.25-42.433593 38.523437-1.324219.792969-2.84375 1.210938-4.386719 1.210938zm-23.46875-85.335938c-3.71875-.066406-7.339844 1.222656-10.179688 3.625-6.667969 5.992188-5.945312 19.84375 1.757813 33.675782 8.171875 12.191406 19.097656 22.285156 31.890625 29.476562 12.726562-7.148438 23.609375-17.164062 31.78125-29.257812 7.820312-14.050782 8.542969-27.90625 1.878906-33.894532-3.609375-3.011718-8.378906-4.253906-13-3.390625-5.738281 1.0625-10.636719 4.78125-13.199219 10.023438-1.507812 2.707031-4.363281 4.386719-7.460937 4.386719-3.097657 0-5.949219-1.679688-7.457031-4.386719-2.5625-5.238281-7.457032-8.957031-13.191407-10.023438-.933593-.15625-1.875-.234375-2.820312-.234375zm0 0"/><path d="m305.964844 324.523438c-18.84375-.019532-34.117188-15.289063-34.132813-34.132813v-8.875c0-4.714844 3.820313-8.535156 8.53125-8.535156 4.714844 0 8.535157 3.820312 8.535157 8.535156v8.875c0 9.421875 7.640624 17.066406 17.066406 17.066406 9.425781 0 17.066406-7.644531 17.066406-17.066406v-8.960937c0-4.714844 3.820312-8.535157 8.53125-8.535157 4.714844 0 8.535156 3.820313 8.535156 8.535157v8.960937c-.019531 18.84375-15.289062 34.113281-34.132812 34.132813zm0 0"/></g></svg>