<svg height="511pt" viewBox="-42 0 511 511.95991" width="511pt" xmlns="http://www.w3.org/2000/svg"><path d="m418.714844 273.027344v93.867187c.003906 18.105469-7.183594 35.472657-19.988282 48.277344-12.804687 12.800781-30.171874 19.992187-48.277343 19.988281h-25.601563v-34.132812h33.453125c7.921875.160156 15.445313-3.488282 20.222657-9.8125 3.933593-5.472656 6.050781-12.039063 6.058593-18.773438v-99.414062h-59.734375v-34.132813h59.734375c9.054688-.003906 17.738281 3.589844 24.136719 9.992188 6.402344 6.402343 10 15.085937 9.996094 24.140625zm0 0" fill="#7facfa"/><path d="m324.847656 238.894531h34.132813c9.054687-.003906 17.738281 3.589844 24.140625 9.992188 6.402344 6.402343 9.996094 15.085937 9.992187 24.140625v93.867187c.007813 18.105469-7.183593 35.472657-19.988281 48.277344-12.800781 12.800781-30.167969 19.992187-48.277344 19.988281v-34.132812h33.453125c7.921875.160156 15.445313-3.488282 20.222657-9.8125 3.933593-5.472656 6.050781-12.039063 6.058593-18.773438v-99.414062h-59.734375zm0 0" fill="#a4c2f7"/><path d="m94.773438 39.066406c-17.265626-15.707031-45.644532-30.488281-68.617188-30.527344-25.898438-.046874 3.34375 89.460938 8.234375 102.355469zm0 0" fill="#e8edfc"/><path d="m51.78125 102.359375c-5.25-19.316406-19.796875-65.949219-19.265625-76.25 18.863281 5.863281 36.832031 14.292969 53.398437 25.050781zm0 0" fill="#a4c2f7"/><path d="m247.722656 39.066406c17.265625-15.707031 45.644532-30.488281 68.617188-30.527344 25.902344-.046874-3.34375 89.460938-8.234375 102.355469zm0 0" fill="#e8edfc"/><path d="m256.582031 51.160156c16.570313-10.753906 34.535157-19.183594 53.398438-25.050781.53125 10.308594-14.015625 56.933594-19.265625 76.25zm0 0" fill="#a4c2f7"/><path d="m316.316406 230.359375v-68.265625c0-80.117188-64.949218-145.066406-145.066406-145.066406-80.121094 0-145.066406 64.949218-145.066406 145.066406v68.265625zm0 0" fill="#cad9fc"/><path d="m290.714844 230.359375v-68.265625c0-80.128906-59.207032-145.066406-132.265625-145.066406-73.058594 0-132.265625 64.9375-132.265625 145.066406v68.265625zm0 0" fill="#e8edfc"/><path d="m120.046875 213.292969h196.269531c9.414063.027343 17.039063 7.652343 17.066406 17.066406v204.800781c.003907 18.105469-7.1875 35.472656-19.992187 48.277344-12.800781 12.804688-30.167969 19.992188-48.277344 19.988281h-187.730469c-18.109374.003907-35.476562-7.183593-48.277343-19.988281-12.804688-12.804688-19.996094-30.171875-19.992188-48.277344v-204.800781c.03125-9.414063 7.65625-17.039063 17.070313-17.066406zm0 0" fill="#cad9fc"/><path d="m111.289062 213.292969h180.773438c9.035156.414062 16.050781 8.027343 15.71875 17.066406v204.800781c0 37.71875-28.136719 68.265625-62.875 68.265625h-172.914062c-34.738282 0-62.878907-30.546875-62.878907-68.265625v-204.800781c-.328125-9.039063 6.6875-16.652344 15.722657-17.066406zm0 0" fill="#e8edfc"/><path d="m137.113281 102.359375c0 14.140625-11.460937 25.601563-25.597656 25.601563-14.140625 0-25.601563-11.460938-25.601563-25.601563 0-14.136719 11.460938-25.597656 25.601563-25.597656 14.136719 0 25.597656 11.460937 25.597656 25.597656zm0 0" fill="#a4c2f7"/><path d="m256.582031 102.359375c0 14.140625-11.460937 25.601563-25.601562 25.601563-14.136719 0-25.597657-11.460938-25.597657-25.601563 0-14.136719 11.460938-25.597656 25.597657-25.597656 14.140625 0 25.601562 11.460937 25.601562 25.597656zm0 0" fill="#a4c2f7"/><path d="m120.046875 196.226562v48c.832031 15.003907-10.601563 27.867188-25.597656 28.800782-15-.933594-26.429688-13.796875-25.601563-28.800782v-48" fill="#e8edfc"/><path d="m273.648438 196.226562v48c.832031 15.003907-10.601563 27.867188-25.601563 28.800782-14.996094-.933594-26.429687-13.796875-25.597656-28.800782v-48" fill="#e8edfc"/><path d="m196.847656 125.828125s-12.800781 19.199219-25.597656 19.199219c-12.800781 0-25.601562-19.199219-25.601562-19.199219.511718-.429687 1.109374-.769531 1.621093-1.195313 6.730469-4.660156 14.546875-7.511718 22.699219-8.277343.851562-.085938 1.28125-.085938 1.28125-.085938s.425781 0 1.277344.085938c8.152344.765625 15.96875 3.617187 22.699218 8.277343.511719.425782 1.109376.765626 1.621094 1.195313zm0 0" fill="#e8edfc"/><path d="m111.515625 93.828125c0 4.710937-3.820313 8.53125-8.535156 8.53125-4.710938 0-8.53125-3.820313-8.53125-8.53125 0-4.714844 3.820312-8.535156 8.53125-8.535156 4.714843 0 8.535156 3.820312 8.535156 8.535156zm0 0" fill="#fff"/><path d="m230.980469 93.828125c0 4.710937-3.820313 8.53125-8.53125 8.53125-4.714844 0-8.535157-3.820313-8.535157-8.53125 0-4.714844 3.820313-8.535156 8.535157-8.535156 4.710937 0 8.53125 3.820312 8.53125 8.535156zm0 0" fill="#fff"/><path d="m117.632812 36.777344c18.0625-11.625 38.855469-18.316406 60.3125-19.410156-2.238281-.105469-4.4375-.339844-6.695312-.339844-2.261719 0-4.460938.234375-6.695312.339844-2.039063-.105469-4.046876-.339844-6.105469-.339844-17.855469 0-35.496094 3.921875-51.667969 11.492187 3.765625 2.550781 7.390625 5.304688 10.851562 8.257813zm0 0" fill="#fff"/><path d="m34.714844 435.160156v-204.800781c-.328125-9.039063 6.683594-16.652344 15.71875-17.066406h1.347656v-51.199219c.011719-17.726562 3.023438-35.320312 8.914062-52.039062l-.707031.839843c-4.363281-11.507812-28.09375-84-14.734375-99.421875-6.207031-1.828125-12.628906-2.8125-19.097656-2.933594-25.898438-.046874 3.34375 89.460938 8.234375 102.355469l.707031-.839843c-5.890625 16.71875-8.90625 34.3125-8.914062 52.039062v51.199219h-1.347656c-9.035157.414062-16.050782 8.027343-15.722657 17.066406v204.800781c0 37.71875 28.140625 68.265625 62.878907 68.265625h25.601562c-34.742188 0-62.878906-30.546875-62.878906-68.265625zm0 0" fill="#fff"/><path d="m111.515625 127.960938c-14.140625 0-25.601563-11.460938-25.601563-25.601563 0-14.136719 11.460938-25.597656 25.601563-25.597656 14.136719 0 25.597656 11.460937 25.597656 25.597656-.011719 14.132813-11.464843 25.585937-25.597656 25.601563zm0-34.132813c-4.714844 0-8.535156 3.820313-8.535156 8.53125 0 4.714844 3.820312 8.535156 8.535156 8.535156 4.710937 0 8.53125-3.820312 8.53125-8.535156 0-4.710937-3.820313-8.53125-8.53125-8.53125zm0 0" fill="#428dff"/><path d="m230.980469 127.960938c-14.136719 0-25.597657-11.460938-25.597657-25.601563 0-14.136719 11.460938-25.597656 25.597657-25.597656 14.140625 0 25.601562 11.460937 25.601562 25.597656-.015625 14.132813-11.46875 25.585937-25.601562 25.601563zm0-34.132813c-4.710938 0-8.53125 3.820313-8.53125 8.53125 0 4.714844 3.820312 8.535156 8.53125 8.535156 4.714843 0 8.535156-3.820312 8.535156-8.535156-.003906-4.710937-3.820313-8.53125-8.535156-8.53125zm0 0" fill="#428dff"/><path d="m222.449219 221.828125h-102.402344c-4.710937 0-8.53125-3.820313-8.53125-8.535156 0-4.710938 3.820313-8.53125 8.53125-8.53125h102.402344c4.710937 0 8.53125 3.820312 8.53125 8.53125 0 4.714843-3.820313 8.535156-8.53125 8.535156zm0 0" fill="#428dff"/><path d="m17.648438 230.359375v204.800781h-17.066407v-204.800781zm0 0" fill="#fff"/><g fill="#428dff"><path d="m9.113281 273.027344c4.710938-.015625 8.523438-3.828125 8.535157-8.535156v-34.132813h-17.066407v34.132813c.011719 4.707031 3.824219 8.519531 8.53125 8.535156zm0 0"/><path d="m.582031 435.160156h17.066407v-102.398437c0-4.714844-3.820313-8.535157-8.535157-8.535157-4.710937 0-8.53125 3.820313-8.53125 8.535157zm0 0"/><path d="m17.648438 298.625c-.035157-2.257812-.917969-4.421875-2.472657-6.058594l-1.28125-1.023437c-.476562-.320313-.992187-.582031-1.535156-.765625-.484375-.246094-1.003906-.421875-1.539063-.511719-.5625-.097656-1.132812-.15625-1.707031-.171875-2.257812.03125-4.421875.914062-6.058593 2.472656-2.070313 1.996094-2.976563 4.910156-2.40625 7.730469.570312 2.816406 2.539062 5.148437 5.222656 6.179687 1.027344.4375 2.128906.667969 3.242187.683594 2.273438.023438 4.457031-.867187 6.0625-2.472656s2.496094-3.789062 2.472657-6.0625zm0 0"/><path d="m9.113281 238.894531c-4.710937 0-8.53125-3.820312-8.53125-8.535156.015625-14.132813 11.46875-25.582031 25.601563-25.597656h42.664062c4.714844 0 8.535156 3.820312 8.535156 8.53125 0 4.714843-3.820312 8.535156-8.535156 8.535156h-42.664062c-4.714844 0-8.53125 3.820313-8.535156 8.53125 0 4.714844-3.820313 8.535156-8.535157 8.535156zm0 0"/><path d="m265.113281 511.960938h-187.730469c-42.398437-.046876-76.753906-34.40625-76.800781-76.800782 0-4.714844 3.820313-8.535156 8.53125-8.535156 4.714844 0 8.535157 3.820312 8.535157 8.535156.039062 32.972656 26.761718 59.691406 59.734374 59.734375h187.730469c32.976563-.042969 59.695313-26.761719 59.734375-59.734375v-204.800781c0-4.710937-3.820312-8.53125-8.53125-8.53125h-42.667968c-4.710938 0-8.535157-3.820313-8.535157-8.535156 0-4.710938 3.824219-8.53125 8.535157-8.53125h42.667968c14.132813.015625 25.582032 11.464843 25.597656 25.597656v204.800781c-.046874 42.394532-34.402343 76.753906-76.800781 76.800782zm0 0"/><path d="m350.449219 443.691406h-17.066407c-4.714843 0-8.535156-3.820312-8.535156-8.53125v-196.265625c0-4.714843 3.820313-8.535156 8.535156-8.535156h51.199219c23.550781.027344 42.640625 19.113281 42.667969 42.667969v93.867187c-.046875 42.394531-34.40625 76.75-76.800781 76.796875zm-8.535157-17.066406h8.535157c32.972656-.039062 59.691406-26.757812 59.734375-59.730469v-93.867187c-.015625-14.132813-11.46875-25.585938-25.601563-25.601563h-42.667969zm0 0"/><path d="m358.324219 409.558594h-24.941407c-4.714843 0-8.535156-3.820313-8.535156-8.53125v-128c0-4.714844 3.820313-8.535156 8.535156-8.535156h51.199219c4.710938 0 8.53125 3.820312 8.53125 8.535156v99.398437c.007813 8.519531-2.671875 16.820313-7.648437 23.734375-6.367188 8.570313-16.464844 13.554688-27.140625 13.398438zm-16.410157-17.066406h16.410157c5.167969.15625 10.097656-2.171876 13.265625-6.257813 2.898437-4.019531 4.457031-8.851563 4.457031-13.808594v-90.867187h-34.132813zm0 0"/><path d="m222.449219 221.828125h-102.402344c-4.710937 0-8.53125-3.820313-8.53125-8.535156 0-4.710938 3.820313-8.53125 8.53125-8.53125h102.402344c4.710937 0 8.53125 3.820312 8.53125 8.53125 0 4.714843-3.820313 8.535156-8.53125 8.535156zm0 0"/><path d="m316.316406 221.828125h-42.667968c-4.710938 0-8.535157-3.820313-8.535157-8.535156 0-4.710938 3.824219-8.53125 8.535157-8.53125h34.132812v-42.667969c0-75.40625-61.128906-136.535156-136.53125-136.535156-75.40625 0-136.535156 61.128906-136.535156 136.535156v42.667969h34.132812c4.714844 0 8.535156 3.820312 8.535156 8.53125 0 4.714843-3.820312 8.535156-8.535156 8.535156h-42.664062c-4.714844 0-8.535156-3.820313-8.535156-8.535156v-51.199219c0-84.832031 68.769531-153.601562 153.601562-153.601562 84.828125 0 153.597656 68.769531 153.597656 153.601562v51.199219c0 2.261719-.898437 4.433593-2.5 6.035156-1.597656 1.597656-3.769531 2.5-6.03125 2.5zm0 0"/><path d="m34.390625 119.425781c-3.542969 0-6.71875-2.191406-7.976563-5.507812-.316406-.816407-30.765624-82.933594-14.5-106.472657 3.179688-4.726562 8.53125-7.523437 14.226563-7.445312h.03125c26.394531.0507812 57.042969 17.019531 74.34375 32.761719 3.328125 3.203125 3.5 8.472656.390625 11.890625-3.109375 3.417968-8.371094 3.738281-11.875.722656-15.433594-14.03125-41.992188-28.265625-62.890625-28.304688-6.359375 5.671876 2.300781 54.097657 16.226563 90.796876.804687 2.117187.734374 4.464843-.195313 6.527343s-2.640625 3.671875-4.753906 4.472657c-.96875.371093-1.992188.5625-3.027344.558593zm0 0"/><path d="m308.105469 119.425781c-1.03125.003907-2.058594-.1875-3.023438-.558593-2.117187-.800782-3.828125-2.410157-4.753906-4.472657-.929687-2.0625-1-4.410156-.195313-6.527343 13.925782-36.699219 22.582032-85.125 16.257813-90.90625-20.933594.148437-47.492187 14.382812-62.925781 28.414062-2.238282 2.15625-5.46875 2.921875-8.433594 2.007812-2.96875-.917968-5.203125-3.371093-5.835938-6.414062-.636718-3.039062.433594-6.183594 2.785157-8.210938 17.300781-15.738281 47.953125-32.7070308 74.34375-32.757812h.03125c5.695312-.078125 11.046875 2.71875 14.226562 7.445312 16.265625 23.539063-14.183593 105.65625-14.5 106.472657-1.257812 3.316406-4.429687 5.507812-7.976562 5.507812zm0 0"/><path d="m94.449219 281.558594c-18.84375-.015625-34.117188-15.289063-34.132813-34.132813v-42.664062c0-4.714844 3.820313-8.535157 8.53125-8.535157 4.714844 0 8.535156 3.820313 8.535156 8.535157v42.664062c0 9.425781 7.640626 17.066407 17.066407 17.066407s17.066406-7.640626 17.066406-17.066407v-42.664062c0-4.714844 3.820313-8.535157 8.53125-8.535157 4.714844 0 8.535156 3.820313 8.535156 8.535157v42.664062c-.019531 18.84375-15.289062 34.117188-34.132812 34.132813zm0 0"/><path d="m248.046875 281.558594c-18.84375-.015625-34.113281-15.289063-34.132813-34.132813v-42.664062c0-4.714844 3.820313-8.535157 8.535157-8.535157 4.710937 0 8.53125 3.820313 8.53125 8.535157v42.664062c0 9.425781 7.640625 17.066407 17.066406 17.066407s17.066406-7.640626 17.066406-17.066407v-42.664062c0-4.714844 3.824219-8.535157 8.535157-8.535157 4.714843 0 8.535156 3.820313 8.535156 8.535157v42.664062c-.019532 18.84375-15.292969 34.117188-34.136719 34.132813zm0 0"/><path d="m171.25 153.558594c-16.535156 0-30.144531-19.15625-32.699219-23-2.515625-3.765625-1.644531-8.839844 1.976563-11.558594 8.871094-6.769531 19.578125-10.710938 30.722656-11.308594 11.140625.597656 21.847656 4.539063 30.71875 11.308594 3.621094 2.714844 4.492188 7.789062 1.984375 11.558594-2.5625 3.84375-16.171875 23-32.703125 23zm-12.828125-25.429688c3.199219 4.167969 7.722656 7.121094 12.828125 8.363282 5.101562-1.242188 9.625-4.195313 12.824219-8.363282-4.054688-1.902344-8.425781-3.042968-12.890625-3.363281-4.421875.339844-8.746094 1.480469-12.761719 3.363281zm0 0"/><path d="m154.183594 187.691406c-14.132813-.015625-25.585938-11.464844-25.601563-25.597656 0-4.714844 3.820313-8.535156 8.53125-8.535156 4.714844 0 8.535157 3.820312 8.535157 8.535156 0 4.710938 3.820312 8.53125 8.535156 8.53125 4.710937 0 8.53125-3.820312 8.53125-8.53125 0-4.714844 3.820312-8.535156 8.535156-8.535156 4.710938 0 8.53125 3.820312 8.53125 8.535156-.015625 14.132812-11.46875 25.582031-25.597656 25.597656zm0 0"/><path d="m188.316406 187.691406c-14.132812-.015625-25.585937-11.464844-25.601562-25.597656v-17.066406c0-4.714844 3.820312-8.535156 8.535156-8.535156 4.710938 0 8.53125 3.820312 8.53125 8.535156v17.066406c0 4.710938 3.820312 8.53125 8.535156 8.53125 4.710938 0 8.53125-3.820312 8.53125-8.53125 0-4.714844 3.820313-8.535156 8.535156-8.535156 4.710938 0 8.53125 3.820312 8.53125 8.535156-.015624 14.132812-11.464843 25.582031-25.597656 25.597656zm0 0"/></g></svg>