<svg height="512pt" viewBox="0 0 512 512.00874" width="512pt" xmlns="http://www.w3.org/2000/svg"><path d="m430.679688 103.183594-19.285157-13.652344-68.09375-48.382812c16.832031-18.726563 40.324219-30.117188 65.449219-31.746094 8.441406-.988282 16.960938-1.132813 25.429688-.425782 13.910156 30.167969 12.613281 65.15625-3.5 94.207032zm0 0" fill="#cad9fc"/><path d="m411.394531 89.53125-68.09375-48.382812c16.832031-18.726563 40.324219-30.117188 65.449219-31.746094 11.484375 25.300781 12.4375 54.128906 2.644531 80.128906zm0 0" fill="#e8edfc"/><path d="m81.414062 103.097656c-16.144531-29.011718-17.445312-63.992187-3.5-94.121094 0 0 59.136719-6.570312 90.878907 32.085938zm0 0" fill="#e8edfc"/><path d="m94.191406 102.417969c-11.011718-24.136719-11.871094-51.6875-2.378906-76.460938 0 0 40.207031-5.335937 61.792969 26.066407zm0 0" fill="#a4c2f7"/><path d="m417.816406 102.417969c11.011719-24.136719 11.871094-51.6875 2.378906-76.460938 0 0-40.207031-5.335937-61.792968 26.066407zm0 0" fill="#a4c2f7"/><path d="m366.9375 324.285156-9.472656 4.265625c26.878906 43.945313 43.605468 92.5 43.605468 108.628907 0 44.03125-37.71875 54.527343-91.050781 57.003906h-.085937l-33.621094.679687c-6.65625.085938-13.394531.085938-20.308594.085938-1.792968 0-3.582031 0-5.289062-.085938h-7.511719c-2.558594.085938-5.035156 0-7.507813 0l-33.707031-.679687c-53.332031-2.476563-91.050781-12.972656-91.050781-57.003906 0-16.128907 16.726562-64.683594 43.605469-108.628907l-9.472657-4.265625c-97.535156-9.132812-136.53125-72.792968-136.53125-72.792968l25.597657-12.542969c-10.867188-10.074219-18.976563-22.765625-23.550781-36.863281-.683594-1.792969-1.367188-3.753907-1.964844-5.71875 2.53125 1.332031 5.15625 2.472656 7.851562 3.414062 10.410156 3.753906 28.074219 6.742188 34.730469-12.03125.269531-30.808594 10.910156-60.632812 30.210937-84.652344 22.785157-28.402344 53.046876-49.886718 87.378907-62.035156 23.875-8.847656 48.976562-13.941406 74.410156-15.105469 4.269531-.253906 8.535156-.339843 12.800781-.339843 29.796875-.121094 59.371094 5.140624 87.296875 15.53125 34.332031 12.148437 64.589844 33.632812 87.378907 62.035156 19.25 24.007812 29.859374 53.796875 30.125 84.566406 1.539062 4.957031 4.769531 9.214844 9.128906 12.03125 1.839844 1.050781 3.824218 1.828125 5.890625 2.304688 9.554687.957031 19.175781-1.035157 27.5625-5.71875-4.347657 16.304687-13.191407 31.058593-25.515625 42.582031l25.601562 12.542969s-39 63.660156-136.535156 72.792968zm0 0" fill="#cad9fc"/><path d="m341.335938 324.285156-9.46875 4.265625c26.878906 43.945313 43.605468 92.5 43.605468 108.628907 0 44.03125-37.71875 54.527343-91.050781 57.003906h-.085937l-33.621094.679687h-7.511719c-2.558594.085938-5.035156 0-7.507813 0l-33.707031-.679687c-53.332031-2.476563-91.050781-12.972656-91.050781-57.003906 0-16.128907 16.726562-64.683594 43.605469-108.628907l-9.472657-4.265625c-97.535156-9.132812-136.53125-72.792968-136.53125-72.792968l25.597657-12.542969c-10.867188-10.074219-18.976563-22.765625-23.550781-36.863281 2.050781-.515626 4.03125-1.289063 5.886718-2.304688 10.410156 3.753906 28.074219 6.742188 34.730469-12.03125.269531-30.808594 10.910156-60.632812 30.210937-84.652344 22.785157-28.402344 53.046876-49.886718 87.378907-62.035156 23.875-8.847656 48.976562-13.941406 74.410156-15.105469 25.472656 1.140625 50.609375 6.265625 74.496094 15.191407 34.332031 12.148437 64.59375 33.632812 87.382812 62.035156 19.25 24.007812 29.859375 53.796875 30.121094 84.566406 6.65625 18.773438 24.320313 15.785156 34.730469 12.03125 1.839844 1.050781 3.824218 1.828125 5.890625 2.304688-4.578125 14.097656-12.683594 26.789062-23.554688 36.863281l25.601563 12.542969s-38.996094 63.660156-136.535156 72.792968zm0 0" fill="#e8edfc"/><path d="m341.421875 232.890625c-2.046875 43.691406-48.640625 58.453125-85.417969 57.175781-4.179687.167969-8.449218.082032-12.800781-.171875-33.960937-2.304687-70.824219-18.261719-72.617187-57.003906-.648438-14.007813 4.464843-27.671875 14.152343-37.8125 9.691407-10.140625 23.109375-15.871094 37.132813-15.863281h68.265625c14.027343-.007813 27.441406 5.722656 37.132812 15.863281 9.6875 10.140625 14.800781 23.804687 14.152344 37.8125zm0 0" fill="#e8edfc"/><path d="m315.824219 232.890625c-1.792969 38.742187-38.65625 54.699219-72.621094 57.003906-33.960937-2.304687-70.824219-18.261719-72.617187-57.003906-.648438-14.007813 4.464843-27.671875 14.152343-37.8125 9.691407-10.140625 23.109375-15.871094 37.132813-15.863281h42.667968c14.023438-.007813 27.441407 5.722656 37.128907 15.863281s14.804687 23.804687 14.15625 37.8125zm0 0" fill="#fff"/><path d="m204.804688 136.550781c0-9.425781-9.550782-17.066406-21.332032-17.066406-11.785156 0-21.335937 7.640625-21.335937 17.066406s9.550781 17.066407 21.335937 17.066407c11.78125 0 21.332032-7.640626 21.332032-17.066407zm0 0" fill="#a4c2f7"/><path d="m349.871094 136.550781c0-9.425781-9.550782-17.066406-21.332032-17.066406-11.785156 0-21.335937 7.640625-21.335937 17.066406s9.550781 17.066407 21.335937 17.066407c11.78125 0 21.332032-7.640626 21.332032-17.066407zm0 0" fill="#a4c2f7"/><path d="m273.027344 238.949219c.042968.4375.042968.875.042968 1.3125 0 13.40625-7.636718 24.289062-17.066406 24.289062-9.429687 0-17.066406-10.882812-17.066406-24.289062 0-.4375 0-.875.042969-1.3125l17.023437-8.53125zm0 0" fill="#a4c2f7"/><path d="m220.933594 433.070312c7.753906 9.582032 13.300781 20.753907 16.25 32.722657 1.285156 5.164062 1.863281 10.480469 1.722656 15.800781-.070312 4.359375-1.027344 8.65625-2.816406 12.628906-2.949219 6.957032-10.527344 10.71875-17.851563 8.867188-4.246093-.976563-8.25-2.8125-11.761719-5.390625-4.324218-3.105469-8.207031-6.777344-11.546874-10.921875-7.753907-9.582032-13.304688-20.757813-16.253907-32.726563" fill="#e8edfc"/><path d="m291.074219 433.070312c-7.753907 9.582032-13.300781 20.753907-16.25 32.722657-1.28125 5.164062-1.863281 10.480469-1.722657 15.800781.070313 4.359375 1.027344 8.65625 2.816407 12.628906 2.949219 6.957032 10.527343 10.71875 17.851562 8.867188 4.246094-.976563 8.25-2.8125 11.761719-5.390625 4.324219-3.105469 8.210938-6.777344 11.546875-10.921875 7.757813-9.582032 13.304687-20.757813 16.253906-32.726563" fill="#e8edfc"/><path d="m290.136719 173.550781s-17.066407 22.734375-34.132813 22.734375-34.132812-22.734375-34.132812-22.734375c1.109375-.75 2.304687-1.503906 3.414062-2.117187 8.859375-5.207032 18.773438-8.355469 29.011719-9.214844 1.109375-.070312 1.707031-.070312 1.707031-.070312s.597656 0 1.707032.070312c.34375-.007812.683593.015625 1.023437.066406 9.871094 1.035156 19.414063 4.152344 27.988281 9.148438 1.109375.613281 2.304688 1.367187 3.414063 2.117187zm0 0" fill="#a4c2f7"/><path d="m179.203125 128.015625c0 4.714844-3.820313 8.535156-8.53125 8.535156-4.714844 0-8.535156-3.820312-8.535156-8.535156 0-4.710937 3.820312-8.53125 8.535156-8.53125 4.710937 0 8.53125 3.820313 8.53125 8.53125zm0 0" fill="#fff"/><path d="m324.269531 128.015625c0 4.714844-3.820312 8.535156-8.53125 8.535156-4.714843 0-8.535156-3.820312-8.535156-8.535156 0-4.710937 3.820313-8.53125 8.535156-8.53125 4.710938 0 8.53125 3.820313 8.53125 8.53125zm0 0" fill="#fff"/><path d="m76.804688 187.75c.265624-30.808594 10.910156-60.632812 30.207031-84.652344-16.054688-28.863281-17.414063-63.648437-3.667969-93.679687-8.441406-.976563-16.960938-1.121094-25.429688-.441407-13.945312 30.128907-12.644531 65.109376 3.5 94.121094-19.300781 24.019532-29.941406 53.84375-30.210937 84.652344-1.515625 4.980469-4.777344 9.246094-9.183594 12.011719l.054688.019531c10.410156 3.753906 28.074219 6.742188 34.730469-12.03125zm0 0" fill="#fff"/><path d="m268.804688 25.957031h.058593c-4.253906-.210937-8.539062-.339843-12.859375-.339843-4.265625 0-8.53125.085937-12.800781.339843-18.496094.894531-36.835937 3.839844-54.679687 8.785157 2.074218 1.992187 4.035156 4.101562 5.871093 6.320312 23.875-8.847656 48.976563-13.941406 74.410157-15.105469zm0 0" fill="#fff"/><path d="m232.078125 497.695312c-1.488281-1.09375-2.917969-2.265624-4.28125-3.507812l-.207031-.003906c-53.335938-2.476563-91.050782-12.972656-91.050782-57.003906 0-16.128907 16.722657-64.683594 43.605469-108.628907l-9.472656-4.265625c-97.535156-9.132812-136.535156-72.792968-136.535156-72.792968l25.601562-12.542969c-10.871093-10.074219-18.976562-22.765625-23.554687-36.863281l-.027344-.085938c-6.640625 1.046875-13.441406.28125-19.683594-2.21875-2.695312-.941406-5.320312-2.082031-7.851562-3.414062.597656 1.964843 1.28125 3.925781 1.964844 5.71875 4.574218 14.097656 12.683593 26.789062 23.550781 36.863281l-25.597657 12.542969s38.996094 63.660156 136.53125 72.792968l9.472657 4.265625c-26.878907 43.945313-43.605469 92.5-43.605469 108.628907 0 44.03125 37.71875 54.527343 91.050781 57.003906l.207031.003906c1.367188 1.242188 2.792969 2.414062 4.28125 3.507812 3.511719 2.582032 7.515626 4.414063 11.761719 5.390626 3.550781.824218 7.273438.425781 10.566407-1.128907 1.710937-.882812 3.230468-2.09375 4.476562-3.5625-.402344-.261719-.800781-.417969-1.203125-.699219zm0 0" fill="#fff"/><path d="m261.292969 494.863281h-.035157l-.042968.066407c5.078125-.003907 10.152344 0 15.101562-.0625h-7.511718c-2.5625.082031-5.035157-.003907-7.511719-.003907zm0 0" fill="#fff"/><path d="m179.203125 346.582031c-.886719 0-1.769531-.136719-2.617187-.40625-8.699219-2.800781-17.234376-6.089843-25.566407-9.851562l-2.164062-.914063c-2.683594-1.082031-5.308594-2.292968-7.867188-3.636718-4.042969-2.300782-5.5-7.414063-3.273437-11.5 2.226562-4.085938 7.3125-5.632813 11.4375-3.480469 2.054687 1.0625 4.160156 2.023437 6.308594 2.875l2.476562 1.046875c7.777344 3.523437 15.753906 6.597656 23.882812 9.210937 4.003907 1.285157 6.476563 5.292969 5.824219 9.449219-.652343 4.152344-4.234375 7.214844-8.441406 7.207031zm0 0" fill="#428dff"/><path d="m332.804688 346.582031c-4.207032.007813-7.789063-3.054687-8.441407-7.207031-.652343-4.15625 1.820313-8.164062 5.824219-9.449219 8.085938-2.59375 16.015625-5.652343 23.75-9.152343l2.609375-1.109376c2.148437-.851562 4.253906-1.808593 6.308594-2.871093 2.679687-1.527344 5.976562-1.488281 8.621093.105469 2.644532 1.59375 4.21875 4.488281 4.125 7.570312-.09375 3.085938-1.84375 5.878906-4.582031 7.304688-2.558593 1.34375-5.183593 2.554687-7.867187 3.632812l-2.300782.976562c-8.289062 3.738282-16.777343 7.007813-25.429687 9.792969-.847656.269531-1.730469.40625-2.617187.40625zm0 0" fill="#428dff"/><path d="m460.804688 196.285156c-4.714844 0-8.535157-3.824218-8.535157-8.535156-.277343-28.871094-10.253906-56.808594-28.324219-79.324219-21.789062-27.179687-50.757812-47.710937-83.617187-59.277343-54.398437-19.964844-114.117187-20-168.539063-.097657-32.859374 11.554688-61.828124 32.082031-83.617187 59.253907-18.125 22.539062-28.140625 50.523437-28.433594 79.445312 0 4.710938-3.820312 8.535156-8.535156 8.535156-4.710937 0-8.53125-3.824218-8.53125-8.535156.277344-32.707031 11.550781-64.371094 32.007813-89.890625 23.730468-29.6875 55.304687-52.136719 91.140624-64.800781 58.28125-21.335938 122.246094-21.300782 180.5.109375 35.832032 12.667969 67.394532 35.121093 91.117188 64.8125 20.398438 25.5 31.632812 57.117187 31.898438 89.769531 0 4.710938-3.820313 8.535156-8.53125 8.535156zm0 0" fill="#428dff"/><path d="m310.414062 502.707031-.480468-8.523437.085937-8.535156c60.042969-2.792969 82.519531-15.933594 82.519531-48.46875 0-14.242188-16.5-61.910157-42.359374-104.183594-2.457032-4.023438-1.191407-9.277344 2.832031-11.734375 4.023437-2.457031 9.277343-1.1875 11.734375 2.832031 26.832031 43.871094 44.859375 93.898438 44.859375 113.089844 0 53.683594-50.144531 63.25-99.191407 65.523437zm0 0" fill="#428dff"/><path d="m161.824219 333.003906c-9.386719 15.476563-17.726563 31.566406-24.964844 48.160156-7.375 16.1875-13.011719 33.117188-16.8125 50.496094-.308594 1.824219-.5 3.667969-.574219 5.519532h-17.070312c.070312-2.765626.335937-5.523438.796875-8.25 4.007812-18.792969 10.046875-37.09375 18.011719-54.582032 7.550781-17.3125 16.253906-34.101562 26.050781-50.25zm0 0" fill="#fff"/><g fill="#428dff"><path d="m134.347656 366.109375c4.210938 1.976563 9.234375.265625 11.363282-3.871094 4.96875-9.972656 10.332031-19.746093 16.113281-29.234375l-14.5625-8.90625c-6.054688 9.949219-11.664063 20.125-16.828125 30.53125-1.03125 2.035156-1.199219 4.402344-.464844 6.566406.738281 2.160157 2.316406 3.933594 4.378906 4.914063zm0 0"/><path d="m102.402344 437.179688h17.070312c.070313-1.851563.265625-3.695313.574219-5.519532.441406-2.496094.949219-5.058594 1.628906-7.667968.988281-4.480469-1.648437-8.964844-6.046875-10.273438-2.21875-.648438-4.605468-.347656-6.597656.824219s-3.410156 3.109375-3.925781 5.363281c-.75 2.902344-1.367188 5.917969-1.90625 9.023438-.460938 2.726562-.726563 5.484374-.796875 8.25zm0 0"/><path d="m132.066406 392.71875c.769532-2.078125.746094-4.371094-.0625-6.433594l-.789062-1.425781c-.316406-.480469-.691406-.914063-1.121094-1.296875-.351562-.410156-.761719-.769531-1.21875-1.0625-.484375-.304688-.984375-.582031-1.503906-.820312-2.101563-.855469-4.449219-.871094-6.558594-.042969-1.042969.464843-1.980469 1.132812-2.757812 1.964843-2.414063 2.53125-3.113282 6.25-1.78125 9.488282.488281 1.015625 1.167968 1.929687 2.003906 2.6875.808594.769531 1.761718 1.371094 2.804687 1.769531 2.128907.742187 4.453125.675781 6.53125-.1875 2.003907-.949219 3.585938-2.597656 4.453125-4.640625zm0 0"/><path d="m201.996094 502.714844c-.132813 0-.265625 0-.402344-.007813-49.046875-2.273437-99.191406-11.839843-99.191406-65.523437 0-4.710938 3.824218-8.535156 8.535156-8.535156s8.535156 3.824218 8.535156 8.535156c0 32.535156 22.472656 45.675781 82.90625 48.472656 4.640625.199219 8.273438 4.074219 8.171875 8.71875-.105469 4.644531-3.910156 8.355469-8.554687 8.34375zm0 0"/><path d="m256.003906 503.484375c-6.941406 0-13.816406 0-20.417968-.085937-4.710938-.03125-8.507813-3.875-8.476563-8.589844.027344-4.710938 3.875-8.507813 8.585937-8.476563h.109376c6.53125.085938 13.324218.085938 20.199218.085938 7.253906-.21875 13.582032 0 20.199219-.085938h.109375c4.714844-.03125 8.558594 3.765625 8.589844 8.476563.027344 4.714844-3.769532 8.558594-8.480469 8.589844-6.691406.085937-13.476563.085937-20.417969.085937zm0 0"/><path d="m222.054688 512.007812c-1.851563-.003906-3.695313-.191406-5.507813-.558593-5.398437-1.199219-10.492187-3.5-14.960937-6.757813-4.964844-3.546875-9.421876-7.75-13.25-12.5-8.574219-10.585937-14.707032-22.9375-17.960938-36.167968-.773438-2.988282.128906-6.164063 2.359375-8.300782 2.230469-2.132812 5.441406-2.898437 8.398437-1.996094 2.953126.902344 5.1875 3.332032 5.84375 6.347657 2.652344 10.707031 7.617188 20.699219 14.542969 29.285156 2.847657 3.546875 6.160157 6.691406 9.855469 9.347656 2.546875 1.894531 5.449219 3.257813 8.53125 4.011719 3.503906 1.097656 7.253906-.757812 8.5-4.207031 1.273438-2.917969 1.945312-6.0625 1.976562-9.242188.113282-4.546875-.390624-9.085937-1.5-13.492187-2.644531-10.714844-7.609374-20.714844-14.550781-29.292969-1.933593-2.359375-2.464843-5.570313-1.390625-8.425781 1.074219-2.855469 3.589844-4.921875 6.597656-5.417969 3.011719-.496094 6.058594.648437 7.996094 3.007813 8.566406 10.589843 14.695313 22.9375 17.949219 36.164062 1.46875 5.917969 2.125 12.007812 1.949219 18.101562-.097656 5.539063-1.34375 10.996094-3.660156 16.023438-2.3125 5.027344-6.246094 9.132812-11.164063 11.660156-3.285156 1.613282-6.898437 2.4375-10.554687 2.410156zm0 0"/><path d="m289.953125 512.007812c-3.65625.027344-7.265625-.796874-10.550781-2.40625-4.917969-2.53125-8.851563-6.632812-11.164063-11.660156-2.316406-5.03125-3.5625-10.488281-3.660156-16.023437-.171875-6.097657.484375-12.191407 1.949219-18.109375 3.257812-13.222656 9.386718-25.570313 17.953125-36.160156 1.933593-2.355469 4.980469-3.503907 7.992187-3.003907 3.007813.496094 5.523438 2.5625 6.597656 5.417969 1.074219 2.855469.542969 6.066406-1.390624 8.425781-6.9375 8.578125-11.902344 18.574219-14.550782 29.28125-1.109375 4.414063-1.613281 8.953125-1.5 13.5.03125 3.183594.703125 6.324219 1.976563 9.242188.671875 1.617187 1.871093 2.957031 3.398437 3.808593 1.597656.707032 3.386719.847657 5.074219.402344 3.09375-.75 6.003906-2.113281 8.558594-4.011718 3.691406-2.65625 7.003906-5.804688 9.851562-9.351563 6.929688-8.578125 11.894531-18.574219 14.542969-29.28125.652344-3.019531 2.890625-5.445313 5.84375-6.347656 2.953125-.902344 6.164062-.140625 8.394531 1.996093 2.230469 2.136719 3.132813 5.3125 2.359375 8.300782-3.246094 13.230468-9.378906 25.582031-17.957031 36.164062-3.828125 4.75-8.285156 8.953125-13.25 12.5-4.472656 3.261719-9.574219 5.5625-14.980469 6.757813-1.808594.371093-3.644531.554687-5.488281.558593zm0 0"/><path d="m81.421875 111.632812c-3.074219 0-5.90625-1.648437-7.425781-4.316406-17.367188-31.367187-18.820313-69.109375-3.917969-101.71875 1.214844-2.816406 3.847656-4.769531 6.898437-5.105468 2.597657-.265626 64.132813-6.59375 98.414063 35.148437 2.875 3.648437 2.304687 8.925781-1.285156 11.875-3.585938 2.949219-8.875 2.488281-11.898438-1.039063-23.421875-28.519531-64.28125-29.84375-78.40625-29.316406-10.886719 26.582032-9.03125 56.679688 5.035157 81.722656 1.5 2.640626 1.484374 5.878907-.042969 8.507813-1.527344 2.625-4.335938 4.238281-7.371094 4.242187zm0 0"/><path d="m430.671875 111.71875c-3.035156-.003906-5.839844-1.621094-7.367187-4.242188-1.527344-2.625-1.542969-5.859374-.046876-8.5 14.039063-25.082031 15.894532-55.1875 5.042969-81.800781-14.152343-.511719-55.136719.925781-78.386719 29.375-2.980468 3.648438-8.355468 4.191407-12.007812 1.207031-3.648438-2.980468-4.1875-8.359374-1.207031-12.007812 34.203125-41.867188 95.828125-35.523438 98.417969-35.257812 3.054687.34375 5.6875 2.296874 6.902343 5.121093 14.859375 32.636719 13.40625 70.378907-3.914062 101.777344-1.519531 2.675781-4.359375 4.328125-7.433594 4.328125zm0 0"/><path d="m145.078125 332.816406c-.265625 0-.53125-.007812-.800781-.03125-100.625-9.394531-141.332032-74.109375-143.015625-76.859375-1.2539065-2.050781-1.589844-4.535156-.917969-6.84375.671875-2.308593 2.285156-4.226562 4.441406-5.28125l15.167969-7.417969c-8.75-11.199218-15.371094-23.90625-19.539063-37.492187-1.074218-3.347656.019532-7.011719 2.75-9.226563 2.730469-2.214843 6.542969-2.53125 9.597657-.789062 7.003906 4.15625 15.257812 5.6875 23.285156 4.316406 3.570313-1.464844 6.21875-4.554687 7.125-8.308594.953125-2.960937 3.445313-5.167968 6.5-5.757812s6.1875.527344 8.179687 2.917969c1.988282 2.390625 2.519532 5.675781 1.386719 8.574219-2.605469 8.523437-8.984375 15.378906-17.300781 18.589843-5.910156 2.023438-12.246094 2.46875-18.382812 1.292969 3.863281 8.191406 9.246093 15.570312 15.867187 21.75 2.289063 1.824219 3.488281 4.695312 3.175781 7.605469-.3125 2.910156-2.089844 5.460937-4.710937 6.761719l-16.359375 8c13.65625 16.457031 52.515625 54.464843 124.332031 61.167968 4.554687.402344 7.980469 4.320313 7.769531 8.886719-.207031 4.566406-3.976562 8.160156-8.550781 8.144531zm0 0"/><path d="m366.929688 332.816406c-4.574219.015625-8.347657-3.574218-8.554688-8.140625-.210938-4.566406 3.214844-8.488281 7.769531-8.890625 72.167969-6.734375 110.808594-44.683594 124.367188-61.152344l-16.390625-8.019531c-2.644532-1.292969-4.4375-3.859375-4.738282-6.789062-.304687-2.925781.921876-5.804688 3.246094-7.613281 6.601563-6.167969 11.972656-13.535157 15.824219-21.710938-6.136719 1.175781-12.472656.730469-18.382813-1.292969-8.316406-3.210937-14.695312-10.066406-17.300781-18.589843-1.417969-4.390626.910157-9.109376 5.253907-10.65625 4.34375-1.550782 9.128906.628906 10.8125 4.921874.902343 3.753907 3.554687 6.84375 7.125 8.308594 8.035156 1.359375 16.289062-.175781 23.296874-4.332031 3.058594-1.726563 6.863282-1.40625 9.585938.8125 2.722656 2.214844 3.8125 5.875 2.746094 9.21875-4.167969 13.585937-10.792969 26.292969-19.539063 37.492187l15.164063 7.417969c2.160156 1.054688 3.773437 2.972657 4.445312 5.28125.671875 2.308594.335938 4.792969-.917968 6.84375-1.683594 2.75-42.394532 67.464844-143.019532 76.859375-.261718.023438-.527344.03125-.792968.03125zm0 0"/><path d="m256.003906 208.015625c-20.957031 0-39.167968-25.675781-41.175781-28.597656-2.609375-3.808594-1.714844-9.003907 2.015625-11.71875 11.390625-8.433594 25.007812-13.332031 39.160156-14.082031 14.152344.75 27.769532 5.644531 39.160156 14.078124 3.730469 2.71875 4.625 7.910157 2.015626 11.71875-2.007813 2.925782-20.21875 28.601563-41.175782 28.601563zm-21.464844-31.222656c5.253907 7.109375 12.859376 12.125 21.464844 14.15625 8.605469-2.03125 16.210938-7.046875 21.464844-14.15625-6.664062-3.515625-13.996094-5.597657-21.515625-6.109375-7.484375.527344-14.777344 2.609375-21.414063 6.109375zm0 0"/><path d="m238.9375 247.484375c-14.132812-.015625-25.585938-11.46875-25.601562-25.601563 0-4.710937 3.820312-8.53125 8.535156-8.53125 4.710937 0 8.53125 3.820313 8.53125 8.53125 0 4.714844 3.824218 8.535157 8.535156 8.535157s8.535156-3.820313 8.535156-8.535157c0-4.710937 3.820313-8.53125 8.53125-8.53125 4.714844 0 8.535156 3.820313 8.535156 8.53125-.015624 14.132813-11.46875 25.585938-25.601562 25.601563zm0 0"/><path d="m273.070312 247.484375c-14.132812-.015625-25.585937-11.46875-25.597656-25.601563v-17.066406c0-4.710937 3.820313-8.53125 8.53125-8.53125 4.714844 0 8.535156 3.820313 8.535156 8.53125v17.066406c0 4.714844 3.820313 8.535157 8.53125 8.535157 4.714844 0 8.535157-3.820313 8.535157-8.535157 0-4.710937 3.820312-8.53125 8.53125-8.53125 4.714843 0 8.535156 3.820313 8.535156 8.53125-.015625 14.132813-11.46875 25.585938-25.601563 25.601563zm0 0"/><path d="m251.421875 298.691406c-43.742187 0-87.234375-19.851562-89.335937-65.382812-.84375-16.046875 4.898437-31.742188 15.894531-43.457032 11.359375-12.078124 27.152343-19 43.730469-19.167968h.160156c4.710937-.042969 8.570312 3.742187 8.613281 8.453125.042969 4.714843-3.742187 8.570312-8.453125 8.613281-11.972656.097656-23.382812 5.070312-31.601562 13.773438-7.828126 8.367187-11.90625 19.5625-11.292969 31 1.867187 40.667968 48.917969 49.75 76.585937 49.035156 3.101563-.195313 6.066406 1.3125 7.734375 3.933594 1.671875 2.625 1.78125 5.949218.289063 8.675781-1.492188 2.730469-4.347656 4.429687-7.457032 4.441406-1.617187.058594-3.242187.082031-4.867187.082031zm0 0"/><path d="m260.585938 298.691406c-1.621094 0-3.242188-.023437-4.863282-.085937-2.261718-.074219-4.398437-1.042969-5.945312-2.695313s-2.371094-3.851562-2.296875-6.113281c.238281-4.667969 4.132812-8.3125 8.808593-8.238281 27.632813.796875 74.71875-8.363282 76.574219-49.035156.621094-11.4375-3.453125-22.636719-11.28125-31-8.21875-8.707032-19.632812-13.679688-31.601562-13.773438-4.714844-.042969-8.5-3.898438-8.457031-8.613281.046874-4.710938 3.902343-8.496094 8.613281-8.453125h.160156c16.578125.171875 32.375 7.09375 43.742187 19.167968 10.984376 11.722657 16.714844 27.414063 15.871094 43.457032-2.085937 45.53125-45.589844 65.382812-89.324218 65.382812zm0 0"/><path d="m183.472656 162.148438c-15.28125 1.066406-28.585937-10.335938-29.867187-25.597657 1.28125-15.265625 14.585937-26.667969 29.867187-25.601562 15.277344-1.066407 28.582032 10.335937 29.863282 25.601562-1.28125 15.261719-14.585938 26.664063-29.863282 25.597657zm0-34.132813c-6.816406 0-12.800781 3.992187-12.800781 8.535156 0 4.539063 5.984375 8.53125 12.800781 8.53125s12.796875-3.992187 12.796875-8.53125c0-4.542969-5.980469-8.535156-12.796875-8.535156zm0 0"/><path d="m135.660156 101.117188c1.222656-7.378907 4.765625-14.179688 10.113282-19.414063 5.46875-5.480469 12.375-9.300781 19.921874-11.023437 7.339844-1.449219 14.910157-1.214844 22.144532.691406 3.390625.992187 6.707031 2.222656 9.929687 3.675781 3.019531 1.679687 5.933594 3.542969 8.722657 5.582031 1.519531 1.152344 2.109374 3.15625 1.460937 4.949219-.648437 1.789063-2.386719 2.953125-4.289063 2.863281l-.546874-.027344c-3.089844-.207031-6.160157-.59375-9.203126-1.15625l-8.671874-.796874c-5.328126-.335938-10.671876-.042969-15.925782.878906-4.992187 1.089844-9.765625 3.007812-14.121094 5.679687-4.734374 3.046875-9.101562 6.636719-13.007812 10.695313l-.492188.492187c-1.09375 1.089844-2.765624 1.347657-4.136718.644531-1.375-.703124-2.140625-2.207031-1.898438-3.734374zm0 0"/><path d="m328.539062 162.148438c-15.28125 1.066406-28.585937-10.335938-29.867187-25.597657 1.28125-15.265625 14.585937-26.667969 29.867187-25.601562 15.277344-1.066407 28.582032 10.335937 29.863282 25.601562-1.28125 15.261719-14.585938 26.664063-29.863282 25.597657zm0-34.132813c-6.816406 0-12.800781 3.992187-12.800781 8.535156 0 4.539063 5.984375 8.53125 12.800781 8.53125 6.816407 0 12.796876-3.992187 12.796876-8.53125 0-4.542969-5.980469-8.535156-12.796876-8.535156zm0 0"/><path d="m369.820312 103.714844c-3.90625-4.058594-8.273437-7.648438-13.007812-10.695313-4.355469-2.671875-9.128906-4.589843-14.117188-5.679687-5.257812-.921875-10.601562-1.214844-15.925781-.878906l-8.675781.796874c-3.042969.5625-6.113281.949219-9.199219 1.15625l-.523437.027344c-1.90625.097656-3.65625-1.058594-4.3125-2.851562-.65625-1.792969-.0625-3.804688 1.457031-4.960938 2.789063-2.039062 5.703125-3.902344 8.722656-5.582031 3.222657-1.453125 6.539063-2.683594 9.929688-3.675781 7.234375-1.90625 14.804687-2.140625 22.144531-.691406 7.546875 1.722656 14.453125 5.542968 19.921875 11.023437 5.351563 5.234375 8.890625 12.035156 10.113281 19.414063.242188 1.523437-.519531 3.027343-1.886718 3.730468-1.367188.707032-3.035157.453125-4.132813-.625zm0 0"/><path d="m187.730469 204.816406c-1.585938 0-3.140625-.441406-4.484375-1.273437-27.761719-18.785157-63.253906-21.917969-93.875-8.277344-4.132813 2.136719-9.21875.566406-11.429688-3.53125-2.210937-4.097656-.726562-9.207031 3.328125-11.488281 35.996094-16.582032 78.019531-13.257813 110.960938 8.773437 3.25 2.007813 4.773437 5.929688 3.726562 9.601563-1.046875 3.675781-4.410156 6.203125-8.226562 6.195312zm0 0"/><path d="m93.203125 264.550781c-3.019531-.003906-5.8125-1.601562-7.34375-4.203125-1.535156-2.605468-1.574219-5.824218-.113281-8.464844 26.113281-47.15625 99.875-38.839843 103.007812-38.476562 4.679688.5625 8.023438 4.808594 7.460938 9.488281-.558594 4.683594-4.804688 8.023438-9.484375 7.464844-.636719-.09375-65.5-7.292969-86.050781 29.789063-1.503907 2.71875-4.367188 4.40625-7.476563 4.402343zm0 0"/><path d="m324.28125 204.816406c-3.820312.007813-7.175781-2.523437-8.222656-6.195312s.472656-7.589844 3.71875-9.597656c32.941406-22.03125 74.96875-25.355469 110.960937-8.773438 4.035157 2.296875 5.492188 7.394531 3.285157 11.476562-2.207032 4.082032-7.273438 5.652344-11.402344 3.53125-30.617188-13.636718-66.105469-10.507812-93.859375 8.285157-1.34375.832031-2.898438 1.273437-4.480469 1.273437zm0 0"/><path d="m418.804688 264.550781c-3.109376.003907-5.972657-1.683593-7.476563-4.402343-20.605469-37.203126-85.367187-29.882813-86.042969-29.789063-4.679687.5625-8.929687-2.777344-9.488281-7.460937-.5625-4.679688 2.777344-8.929688 7.457031-9.492188 3.117188-.382812 76.890625-8.679688 103.007813 38.476562 1.464843 2.640626 1.421875 5.859376-.113281 8.464844-1.53125 2.601563-4.324219 4.199219-7.34375 4.203125zm0 0"/><path d="m256.003906 273.082031c-14.359375 0-25.601562-14.414062-25.601562-32.824219 0-.699218.019531-1.425781.085937-2.125.210938-3.097656 2.085938-5.839843 4.902344-7.15625 2.8125-1.316406 6.121094-.996093 8.632813.832032 2.511718 1.828125 3.832031 4.875 3.449218 7.957031 0 9.367187 4.582032 16.25 8.53125 16.25 3.949219 0 8.535156-6.882813 8.535156-15.757813-.464843-4.742187 2.941407-8.988281 7.671876-9.558593 2.226562-.269531 4.464843.367187 6.214843 1.761719 1.753907 1.398437 2.867188 3.445312 3.09375 5.671874.066407.699219.085938 1.425782.085938 2.125 0 18.410157-11.242188 32.824219-25.601563 32.824219zm0 0"/></g></svg>